<?xml version="1.0" standalone="no"?>
<!DOCTYPE svg PUBLIC "-//W3C//DTD SVG 1.1//EN" "http://www.w3.org/Graphics/SVG/1.1/DTD/svg11.dtd" >
<svg xmlns="http://www.w3.org/2000/svg" xmlns:xlink="http://www.w3.org/1999/xlink" version="1.1">
<metadata>
Created by FontForge 20170731 at Wed Oct 20 22:58:10 2021
 By Aleksey,,,
Copyright (c) 2021 by Fontastica. All rights reserved.
</metadata>
<defs>
<font id="EinerGrotesk-BoldItalic" horiz-adv-x="1203" vert-adv-y="2048" >
  <font-face 
    font-family="Einer Grotesk"
    font-weight="700"
    font-style="italic"
    font-stretch="normal"
    units-per-em="2048"
    panose-1="0 0 8 0 0 0 0 0 0 0"
    ascent="1638"
    descent="-410"
    x-height="969"
    cap-height="1390"
    bbox="48 -430 2687 1923"
    underline-thickness="50"
    underline-position="-150"
    slope="-9"
    unicode-range="U+000D-F8FF"
  />
<missing-glyph horiz-adv-x="1468" vert-adv-y="2130" 
d="M1455 1396l-222 -1402h-1000l222 1402h1000zM1157 1215h-462l175 -348zM1198 985l-238 -290l146 -291zM728 695l-147 289l-92 -579zM993 177l-175 346l-285 -346h460z" />
    <glyph glyph-name="t_t.liga" unicode="tt" horiz-adv-x="1202" vert-adv-y="2130" 
d="M670 168l-28 -172q-150 9 -240 100.5t-71 215.5l78 488h-157l27 170h157l66 418h171l-66 -418h262l66 418h171l-66 -418h173l-27 -170h-173l-78 -488q-9 -57 40 -98t130 -46l-28 -172q-151 9 -241.5 100.5t-71.5 215.5l78 488h-262l-78 -488q-9 -57 39.5 -98t128.5 -46z
" />
    <glyph glyph-name=".notdef" horiz-adv-x="1468" vert-adv-y="2130" 
d="M1455 1396l-222 -1402h-1000l222 1402h1000zM1157 1215h-462l175 -348zM1198 985l-238 -290l146 -291zM728 695l-147 289l-92 -579zM993 177l-175 346l-285 -346h460z" />
    <glyph glyph-name=".null" horiz-adv-x="0" vert-adv-y="0" 
 />
    <glyph glyph-name="nonmarkingreturn" horiz-adv-x="682" 
 />
    <glyph glyph-name="CR" unicode="&#xd;" horiz-adv-x="298" vert-adv-y="2130" 
 />
    <glyph glyph-name="space" unicode=" " horiz-adv-x="487" vert-adv-y="2130" 
 />
    <glyph glyph-name="exclam" unicode="!" horiz-adv-x="578" vert-adv-y="2130" 
d="M509 808l-94 -495h-152l65 495l84 528h181zM290 0q-43 0 -69.5 31.5t-19.5 74.5q7 42 43 72.5t79 30.5t68.5 -30t18.5 -73t-42.5 -74.5t-77.5 -31.5z" />
    <glyph glyph-name="quotedbl" unicode="&#x22;" horiz-adv-x="636" vert-adv-y="2130" 
d="M526 1353l-50 -315h-133l50 315h133zM672 1353l-50 -315h-134l50 315h134z" />
    <glyph glyph-name="numbersign" unicode="#" horiz-adv-x="1629" vert-adv-y="2130" 
d="M714 364l-97 -364h-173l99 364h-346l45 172h347l71 263h-347l45 169h347l102 368h170l-99 -368h245l101 368h170l-99 -368h346l-43 -169h-348l-73 -263h348l-46 -172h-349l-96 -364h-172l98 364h-246zM1078 799h-247l-72 -263h247z" />
    <glyph glyph-name="dollar" unicode="$" horiz-adv-x="1275" vert-adv-y="2130" 
d="M719 -22l-28 -173h-170l27 172q-192 22 -307 147.5t-96 298.5h172q-8 -102 65 -179t193 -96l74 466q-202 46 -298.5 139.5t-74.5 228.5q24 151 159 254.5t332 122.5l27 171h170l-27 -173q174 -23 274.5 -142t86.5 -283h-175q9 93 -51 163t-162 90l-68 -427
q222 -45 321.5 -142.5t76.5 -242.5q-25 -155 -170 -264.5t-351 -130.5zM677 787l63 399q-120 -15 -200.5 -70.5t-92.5 -133.5q-11 -66 48 -116t182 -79zM814 584l-68 -435q129 20 218.5 81t102.5 143q11 71 -54.5 124.5t-198.5 86.5z" />
    <glyph glyph-name="percent" unicode="%" horiz-adv-x="1641" vert-adv-y="2130" 
d="M1709 1336l-1341 -1336h-223l1339 1336h225zM610 818q-108 0 -172.5 75.5t-48.5 182.5q17 107 106.5 183.5t196.5 76.5t169.5 -76.5t45.5 -183.5t-103.5 -182.5t-193.5 -75.5zM636 988q36 0 66.5 26t35.5 62q6 37 -15.5 63t-57.5 26q-37 0 -68 -26t-37 -63q-5 -36 17 -62
t59 -26zM1162 0q-106 0 -170 76.5t-48 182.5q17 106 105.5 182.5t194.5 76.5q107 0 171.5 -76.5t47.5 -182.5q-16 -106 -105 -182.5t-196 -76.5zM1189 171q37 0 67.5 25.5t36.5 62.5t-16.5 63t-59.5 26t-67 -26t-36 -63t16 -62.5t59 -25.5z" />
    <glyph glyph-name="ampersand" unicode="&#x26;" horiz-adv-x="1437" vert-adv-y="2130" 
d="M654 -11q-83 0 -156 21.5t-130.5 63t-84.5 112.5t-13 161q34 216 298 361q-113 150 -91 291q23 145 141 240.5t279 95.5q147 0 240.5 -88t71.5 -232q-21 -129 -113.5 -213t-231.5 -140l249 -262q50 74 83 164h175q-67 -181 -144 -284l228 -238l-252 -8l-106 113
q-95 -77 -210 -117.5t-233 -40.5zM744 779l109 47q153 66 171 181q12 74 -30.5 118t-123.5 44q-84 0 -141.5 -46.5t-70.5 -128.5q-6 -39 5 -75t46 -87l6 -10q25 -37 29 -43zM671 155q177 0 317 108l-308 326q-106 -46 -161.5 -103t-67.5 -131q-14 -92 45 -146t175 -54z" />
    <glyph glyph-name="quotesingle" unicode="'" horiz-adv-x="562" vert-adv-y="2130" 
d="M626 1335l-180 -325h-177l148 325h209z" />
    <glyph glyph-name="parenleft" unicode="(" horiz-adv-x="639" vert-adv-y="2130" 
d="M521 -83l-21 -134q-74 11 -132.5 86.5t-90 195.5t-38.5 275.5t22 327.5q35 225 118 423.5t190 322t211 138.5l-21 -133q-92 -19 -185.5 -234t-141.5 -517q-48 -303 -22.5 -518.5t111.5 -232.5z" />
    <glyph glyph-name="parenright" unicode=")" horiz-adv-x="639" vert-adv-y="2130" 
d="M71 -217l21 134q60 11 124 113t118 270.5t86 367.5q48 302 22 517t-112 234l21 133q100 -15 168 -141t86 -317t-15 -426q-36 -225 -118.5 -423.5t-189 -322.5t-211.5 -139z" />
    <glyph glyph-name="asterisk" unicode="*" horiz-adv-x="838" vert-adv-y="2130" 
d="M652 971l-14 -90h-157l14 91l-86 -46l-58 135l87 47l-72 46l100 134l72 -44l15 92h157l-15 -92l84 44l60 -134l-89 -46l74 -47l-102 -135z" />
    <glyph glyph-name="plus" unicode="+" horiz-adv-x="1089" vert-adv-y="2130" 
d="M710 513l-50 -317h-170l50 317h-316l27 170h316l50 317h170l-50 -317h318l-27 -170h-318z" />
    <glyph glyph-name="comma" unicode="," horiz-adv-x="588" vert-adv-y="2130" 
d="M464 220l-181 -324h-177l149 324h209z" />
    <glyph glyph-name="hyphen" unicode="-" horiz-adv-x="1034" vert-adv-y="2130" 
d="M949 622l-27 -170h-665l27 170h665z" />
    <glyph glyph-name="period" unicode="." horiz-adv-x="542" vert-adv-y="2130" 
d="M272 7q-43 0 -69.5 31t-19.5 74t43 73.5t79 30.5t68.5 -30.5t18.5 -73.5t-42 -74t-78 -31z" />
    <glyph glyph-name="slash" unicode="/" horiz-adv-x="969" vert-adv-y="2130" 
d="M1058 1405l-757 -1476h-181l757 1476h181z" />
    <glyph glyph-name="zero" unicode="0" horiz-adv-x="1377" vert-adv-y="2130" 
d="M688 0q-107 0 -193 36t-141.5 99.5t-90 151t-39.5 191t11 218.5q31 194 119 349.5t232.5 251t321.5 95.5q90 0 165 -25t129 -70.5t93.5 -109.5t58 -141.5t22.5 -166t-13 -183.5q-31 -193 -119 -349t-233.5 -251.5t-322.5 -95.5zM715 171q95 0 177.5 42t142.5 115t100 167
t57 201q23 143 -1.5 260t-104.5 191t-205 74q-94 0 -176.5 -42.5t-142 -115.5t-99.5 -166.5t-57 -200.5q-19 -106 -6.5 -201t47.5 -167t104.5 -114.5t163.5 -42.5z" />
    <glyph glyph-name="one" unicode="1" horiz-adv-x="724" vert-adv-y="2130" 
d="M819 1387l-220 -1387h-171l182 1147l-200 -140l-98 124l369 256h138z" />
    <glyph glyph-name="two" unicode="2" horiz-adv-x="1238" vert-adv-y="2130" 
d="M1141 176l-28 -176h-986l20 125q10 64 37 124t60 107t87 96t98.5 83t115 76.5t116.5 67.5t122 64l42 20q142 74 203.5 120.5t71.5 106.5q9 56 -12 99.5t-63.5 69.5t-96.5 39.5t-115 13.5q-81 0 -156.5 -28t-134.5 -89.5t-77 -145.5h-170q29 140 118 241.5t203 149
t241 48.5h6q78 0 146.5 -15t126 -47t96 -78t55 -112t3.5 -145q-5 -33 -15.5 -62t-22.5 -53.5t-35 -50t-41 -44t-53.5 -42.5t-59.5 -40t-71.5 -42t-78 -42t-89.5 -46q-60 -32 -93 -50t-92 -53t-96 -63.5t-80 -66t-70.5 -78t-42.5 -82.5h811z" />
    <glyph glyph-name="three" unicode="3" horiz-adv-x="1310" vert-adv-y="2130" 
d="M656 0q-229 0 -356.5 126t-102.5 329h169q-13 -127 74 -204.5t242 -77.5q159 0 269 62.5t126 159.5q13 87 -67 155t-222 77l-11 -1l-157 -2l26 167l155 -4h12q143 0 236 64.5t107 152.5q15 94 -70.5 152t-237.5 58q-149 0 -254.5 -73.5t-129.5 -193.5h-169
q41 196 202 318.5t378 122.5q225 0 348.5 -108t97.5 -274q-13 -85 -68 -163t-133 -131q75 -55 110 -135.5t20 -174.5q-29 -180 -194.5 -291t-399.5 -111z" />
    <glyph glyph-name="four" unicode="4" horiz-adv-x="1356" vert-adv-y="2130" 
d="M1075 314l-50 -314h-169l50 314h-731l22 143l905 931h143l-142 -896h206l-28 -178h-206zM934 492l93 590l-571 -590h478z" />
    <glyph glyph-name="five" unicode="5" horiz-adv-x="1293" vert-adv-y="2130" 
d="M639 0h-27q-182 15 -292.5 138.5t-118.5 323.5h174q9 -108 85.5 -182t188.5 -91h20q161 0 273 81.5t133 213.5q18 119 -72.5 200t-239.5 92q-95 -4 -186 -41.5t-152 -102.5h-168l216 756h834l-28 -177h-688l-81 -307q129 59 278 59h4q106 0 195 -31t154 -88.5t93.5 -149
t10.5 -205.5q-34 -220 -202.5 -354.5t-403.5 -134.5z" />
    <glyph glyph-name="six" unicode="6" horiz-adv-x="1297" vert-adv-y="2130" 
d="M650 1h-7q-231 2 -353 134t-90 339l35 221q55 349 210.5 521t413.5 172q331 0 459 -375h-188q-79 199 -300 199q-149 0 -244.5 -91t-148.5 -282q153 101 354 101h7q236 -2 359 -129t90 -336q-33 -210 -200 -342t-397 -132zM679 187q155 0 266.5 80t131.5 207
q20 126 -66 206t-244 80q-154 0 -265 -80t-131 -207q-20 -126 65 -206t243 -80z" />
    <glyph glyph-name="seven" unicode="7" horiz-adv-x="1272" vert-adv-y="2130" 
d="M1344 1252l-727 -1252h-187l706 1210h-819l28 178h1021z" />
    <glyph glyph-name="eight" unicode="8" horiz-adv-x="1307" vert-adv-y="2130" 
d="M654 1q-236 0 -364.5 111.5t-100.5 291.5q33 204 230 310q-146 97 -115 287q27 173 185.5 280t384.5 107q225 0 349.5 -107t97.5 -277q-30 -188 -211 -291q79 -51 115.5 -130t20.5 -180q-28 -179 -192.5 -290.5t-399.5 -111.5zM779 792h18q144 0 242 58.5t113 150.5
q15 96 -69.5 155t-236.5 59q-153 0 -255.5 -59t-117.5 -155q-15 -94 69 -151.5t237 -57.5zM682 177q160 0 268.5 62.5t125.5 163.5q16 99 -69 160.5t-235 61.5h-19q-161 0 -269 -61t-124 -161q-16 -101 72.5 -163.5t249.5 -62.5z" />
    <glyph glyph-name="nine" unicode="9" horiz-adv-x="1297" vert-adv-y="2130" 
d="M657 0q-333 0 -459 373h188q79 -197 300 -197q85 0 152 28t113.5 81t77.5 117.5t53 147.5q-152 -103 -363 -103q-234 0 -358 129.5t-91 336.5q33 209 199.5 342t397.5 133h8q230 -2 352 -135t90 -340l-35 -220q-56 -350 -210.5 -521.5t-414.5 -171.5zM750 628
q153 0 265 80t132 206t-65.5 206t-242.5 80q-156 0 -267.5 -80t-130.5 -207q-20 -126 65 -205.5t244 -79.5z" />
    <glyph glyph-name="colon" unicode=":" horiz-adv-x="542" vert-adv-y="2130" 
d="M368 620q-43 0 -69.5 31t-19.5 74t43.5 74.5t79.5 31.5q42 0 67.5 -31.5t18.5 -74.5t-42 -74t-78 -31zM270 0q-43 0 -69.5 31.5t-19.5 74.5q7 42 43 72.5t79 30.5t68.5 -30t18.5 -73t-42.5 -74.5t-77.5 -31.5z" />
    <glyph glyph-name="semicolon" unicode=";" horiz-adv-x="583" vert-adv-y="2130" 
d="M381 620q-42 0 -68.5 31t-19.5 74t43.5 74.5t78.5 31.5q43 0 69.5 -31.5t19.5 -74.5t-43.5 -74t-79.5 -31zM451 220l-181 -324h-177l149 324h209z" />
    <glyph glyph-name="less" unicode="&#x3c;" horiz-adv-x="1030" vert-adv-y="2130" 
d="M439 593l464 -278l-31 -194l-670 404l22 139l798 403l-31 -193z" />
    <glyph glyph-name="equal" unicode="=" horiz-adv-x="1120" vert-adv-y="2130" 
d="M1057 822l-27 -170h-734l27 170h734zM1013 544l-27 -170h-734l27 170h734z" />
    <glyph glyph-name="greater" unicode="&#x3e;" horiz-adv-x="1030" vert-adv-y="2130" 
d="M1016 664l-22 -139l-798 -404l31 194l551 278l-463 281l31 193z" />
    <glyph glyph-name="question" unicode="?" horiz-adv-x="1195" vert-adv-y="2130" 
d="M668 399l-25 -162h-174l29 162q19 112 59 161t141 103q63 34 111 62.5t108.5 72t97.5 90t44 92.5q15 92 -67 152.5t-221 60.5q-128 0 -219 -71t-116 -190h-169q37 194 183.5 313t346.5 119q206 0 329.5 -111t102.5 -272q-11 -61 -47 -121.5t-82.5 -108t-108 -93.5
t-115.5 -78.5t-113 -62.5l-11 -6q-30 -15 -42 -23.5t-24 -30t-18 -58.5zM519 0q-42 0 -69 31.5t-20 74.5q7 42 43.5 72.5t78.5 30.5t68 -30t19 -73t-42.5 -74.5t-77.5 -31.5z" />
    <glyph glyph-name="at" unicode="@" horiz-adv-x="1671" vert-adv-y="2130" 
d="M1059 1364q141 0 261 -55.5t199 -149.5t114.5 -222.5t13.5 -268.5l-23 -142q-17 -109 -103 -189t-196 -80q-10 0 -28 2l-24 -151q-222 -136 -432 -136h-2q-188 0 -333 93.5t-213 254t-38 348.5q22 142 98 271t184 222t245 148t277 55zM868 143q160 0 369 132
q-48 23 -75 65q-127 -89 -287 -89h-8q-167 3 -265 97t-77 229l30 186q21 134 151.5 229.5t284.5 95.5q127 0 223 -68l4 29h154q-61 68 -148.5 106t-190.5 38q-217 0 -394.5 -153.5t-212.5 -371.5q-23 -142 28 -263t161 -191.5t253 -70.5zM1453 526l23 142q33 210 -90 364
l-86 -534q-2 -27 11.5 -48t36.5 -24q38 4 68.5 32.5t36.5 67.5zM1144 583l30 185q-2 60 -59.5 104.5t-141.5 44.5q-92 0 -165.5 -45t-83.5 -109l-30 -186q-10 -62 49 -107t157 -49l7 -1q81 5 149 52t88 111z" />
    <glyph glyph-name="A" unicode="A" horiz-adv-x="1640" vert-adv-y="2130" 
d="M569 367l-242 -367h-193l906 1388l467 -1388h-193l-126 367h-619zM1134 547l-156 458l-297 -458h453z" />
    <glyph glyph-name="B" unicode="B" horiz-adv-x="1406" vert-adv-y="2130" 
d="M887 0h-762l220 1390h717q163 0 260 -114t71 -276q-13 -84 -58 -157.5t-110 -125.5q67 -53 99.5 -141.5t17.5 -185.5q-17 -107 -84 -196.5t-165.5 -141.5t-205.5 -52zM1034 1215h-542l-68 -434h542q91 0 165 64t88 155q14 90 -39.5 152.5t-145.5 62.5zM983 609h-587
l-68 -434h587q92 0 166 62t88 153q14 90 -40.5 154.5t-145.5 64.5z" />
    <glyph glyph-name="C" unicode="C" horiz-adv-x="1617" vert-adv-y="2130" 
d="M844 -28q-147 0 -271.5 57t-206.5 153.5t-118.5 230.5t-12.5 282q31 198 155 364.5t305.5 262.5t377.5 96q185 0 338.5 -99.5t239.5 -274.5l-155 -103q-72 142 -192 223t-259 81q-149 0 -286.5 -73.5t-231 -200.5t-117.5 -276q-18 -112 9.5 -214t89.5 -175.5t156.5 -117
t205.5 -43.5q139 0 284 81t262 223l123 -103q-142 -175 -326.5 -274.5t-369.5 -99.5z" />
    <glyph glyph-name="D" unicode="D" horiz-adv-x="1458" vert-adv-y="2130" 
d="M638 0h-513l220 1390h513q141 0 261.5 -55t198.5 -148t112.5 -222t12.5 -270q-30 -189 -148.5 -349t-293 -253t-363.5 -93zM830 1215h-338l-164 -1040h338q216 0 392 152.5t210 367.5q17 106 -9 202t-84.5 166t-148.5 111t-196 41z" />
    <glyph glyph-name="E" unicode="E" horiz-adv-x="1320" vert-adv-y="2130" 
d="M1222 175l-28 -175h-1069l220 1390h1069l-28 -175h-894l-68 -434h840l-28 -172h-840l-68 -434h894z" />
    <glyph glyph-name="F" unicode="F" horiz-adv-x="1320" vert-adv-y="2130" 
d="M396 609l-96 -609h-175l220 1390h1069l-28 -175h-894l-68 -434h840l-28 -172h-840z" />
    <glyph glyph-name="G" unicode="G" horiz-adv-x="1612" vert-adv-y="2130" 
d="M844 -28q-147 0 -271.5 57t-206.5 153.5t-118.5 230.5t-12.5 282q31 198 155 364.5t305.5 262.5t377.5 96q185 0 338.5 -99.5t239.5 -274.5l-155 -103q-72 142 -192 223t-259 81q-149 0 -286.5 -73.5t-231 -200.5t-117.5 -276q-18 -112 9.5 -214t89.5 -175.5t156.5 -117
t205.5 -43.5q131 0 257.5 60.5t222.5 166.5l35 220h-556l27 174h730l-69 -446q-129 -163 -308 -255.5t-366 -92.5z" />
    <glyph glyph-name="H" unicode="H" horiz-adv-x="1397" vert-adv-y="2130" 
d="M396 609l-96 -609h-175l220 1390h175l-96 -609h798l96 609h174l-220 -1390h-174l96 609h-798z" />
    <glyph glyph-name="I" unicode="I" horiz-adv-x="424" vert-adv-y="2130" 
d="M520 1390l-220 -1390h-175l220 1390h175z" />
    <glyph glyph-name="J" unicode="J" horiz-adv-x="1347" vert-adv-y="2130" 
d="M645 -28q-147 0 -270.5 84t-197.5 233l163 86q56 -108 143.5 -169t188.5 -61q165 0 300 117t161 282l134 846h175l-134 -846q-25 -155 -122 -287t-241 -208.5t-300 -76.5z" />
    <glyph glyph-name="K" unicode="K" horiz-adv-x="1449" vert-adv-y="2130" 
d="M375 472l-75 -472h-175l220 1390h175l-108 -682l856 682h262l-702 -556l466 -834h-213l-402 716z" />
    <glyph glyph-name="L" unicode="L" horiz-adv-x="1320" vert-adv-y="2130" 
d="M1222 175l-28 -175h-1069l220 1390h175l-192 -1215h894z" />
    <glyph glyph-name="M" unicode="M" horiz-adv-x="1630" vert-adv-y="2130" 
d="M441 900l-141 -900h-175l220 1388h102l424 -1036l752 1036h101l-220 -1388h-175l145 900l-659 -900z" />
    <glyph glyph-name="N" unicode="N" horiz-adv-x="1397" vert-adv-y="2130" 
d="M448 932l-148 -932h-175l220 1388l824 -941l149 943h174l-220 -1390z" />
    <glyph glyph-name="O" unicode="O" horiz-adv-x="1698" vert-adv-y="2130" 
d="M844 -28q-147 0 -271.5 57t-206.5 153.5t-118.5 230.5t-12.5 282q31 198 155 364.5t305.5 262.5t377.5 96q148 0 273.5 -57t207.5 -153.5t118 -230.5t12 -282t-102.5 -282t-190.5 -230.5t-255.5 -153.5t-291.5 -57zM871 145q150 0 288.5 73.5t232 200t117.5 276.5
q18 112 -9.5 214t-89.5 175.5t-157.5 117t-207.5 43.5q-149 0 -286.5 -73.5t-231 -200.5t-117.5 -276q-18 -112 9.5 -214t89.5 -175.5t156.5 -117t205.5 -43.5z" />
    <glyph glyph-name="P" unicode="P" horiz-adv-x="1406" vert-adv-y="2130" 
d="M373 461l-73 -461h-175l220 1390h691q127 0 224 -61.5t142 -168t25 -233.5q-31 -194 -188 -330t-350 -136h-516zM1008 1215h-516l-91 -578h516q120 0 219 84.5t118 205.5q19 119 -53.5 203.5t-192.5 84.5z" />
    <glyph glyph-name="Q" unicode="Q" horiz-adv-x="1718" vert-adv-y="2130" 
d="M844 -28q-147 0 -271.5 57t-206.5 153.5t-118.5 230.5t-12.5 282q31 198 155 364.5t305.5 262.5t377.5 96q148 0 273.5 -57t207.5 -153.5t118 -230.5t12 -282q-18 -110 -75 -224t-140 -210l141 -163l-145 -125l-138 162q-110 -76 -236 -119.5t-247 -43.5zM871 145
q190 0 353 115l-130 152l140 127l130 -154q118 141 145 310q18 112 -9.5 214t-89.5 175.5t-157.5 117t-207.5 43.5q-149 0 -286.5 -73.5t-231 -200.5t-117.5 -276q-18 -112 9.5 -214t89.5 -175.5t156.5 -117t205.5 -43.5z" />
    <glyph glyph-name="R" unicode="R" horiz-adv-x="1433" vert-adv-y="2130" 
d="M373 462l-73 -462h-175l220 1390h691q95 0 175 -36.5t132.5 -98.5t75.5 -148t8 -181q-24 -150 -126.5 -269.5t-247.5 -166.5l256 -490h-211l-242 462h-483zM1008 1215h-516l-91 -577h542q111 19 202.5 101.5t108.5 186.5q19 120 -53.5 204.5t-192.5 84.5z" />
    <glyph glyph-name="S" unicode="S" horiz-adv-x="1398" vert-adv-y="2130" 
d="M705 -28q-239 0 -384 133t-127 333h179q-11 -125 91.5 -209t267.5 -84q164 0 286.5 68.5t138.5 172.5q14 90 -77 151.5t-284 91.5q-256 39 -374 138.5t-93 256.5q27 170 196.5 282t394.5 112q145 0 257.5 -58t170 -160t46.5 -227h-176q8 116 -84.5 194t-240.5 78
q-150 0 -260.5 -62.5t-125.5 -157.5q-13 -84 71.5 -141t258.5 -82q273 -41 398.5 -145.5t99.5 -269.5q-19 -118 -108 -213.5t-226.5 -148.5t-295.5 -53z" />
    <glyph glyph-name="T" unicode="T" horiz-adv-x="1458" vert-adv-y="2130" 
d="M1008 1215l-192 -1215h-173l192 1215h-518l28 175h1208l-28 -175h-517z" />
    <glyph glyph-name="U" unicode="U" horiz-adv-x="1397" vert-adv-y="2130" 
d="M695 -28q-156 0 -276.5 76.5t-176.5 208.5t-31 287l134 846h175l-134 -846q-26 -164 72.5 -281.5t263.5 -117.5t300.5 117.5t161.5 281.5l134 846h174l-134 -846q-25 -155 -122.5 -287t-241.5 -208.5t-299 -76.5z" />
    <glyph glyph-name="V" unicode="V" horiz-adv-x="1641" vert-adv-y="2130" 
d="M1534 1390h193l-907 -1390l-466 1390h193l335 -994z" />
    <glyph glyph-name="W" unicode="W" horiz-adv-x="2226" vert-adv-y="2130" 
d="M1542 0l-256 1091l-603 -1091l-329 1388h184l219 -919l511 919h130l218 -919l514 919h183z" />
    <glyph glyph-name="X" unicode="X" horiz-adv-x="1673" vert-adv-y="2130" 
d="M924 555l-549 -555h-233l689 695l-469 695h233l373 -555l551 555h233l-689 -695l469 -695h-233z" />
    <glyph glyph-name="Y" unicode="Y" horiz-adv-x="1649" vert-adv-y="2130" 
d="M997 537l-85 -537h-175l85 537l-463 853h215l363 -679l579 679h215z" />
    <glyph glyph-name="Z" unicode="Z" horiz-adv-x="1666" vert-adv-y="2130" 
d="M1434 175l-28 -175h-1264l1202 1215h-875l28 175h1247l-1203 -1215h893z" />
    <glyph glyph-name="bracketleft" unicode="[" horiz-adv-x="655" vert-adv-y="2130" 
d="M568 -38l-27 -171h-379l278 1753h379l-28 -171h-208l-223 -1411h208z" />
    <glyph glyph-name="backslash" unicode="\" horiz-adv-x="969" vert-adv-y="2130" 
d="M537 1405l289 -1476h-181l-289 1476h181z" />
    <glyph glyph-name="bracketright" unicode="]" horiz-adv-x="655" vert-adv-y="2130" 
d="M705 1544l-278 -1753h-379l27 171h209l223 1411h-209l28 171h379z" />
    <glyph glyph-name="asciicircum" unicode="^" horiz-adv-x="1156" vert-adv-y="2130" 
d="M754 1112l-267 -371h-196l430 595h138l240 -595h-194z" />
    <glyph glyph-name="underscore" unicode="_" horiz-adv-x="1199" vert-adv-y="2130" 
d="M1049 84l-27 -171h-873l27 171h873z" />
    <glyph glyph-name="grave" unicode="`" horiz-adv-x="954" vert-adv-y="2130" 
d="M618 1411l282 -262l-131 -130l-278 260z" />
    <glyph glyph-name="a" unicode="a" horiz-adv-x="1040" vert-adv-y="2130" 
d="M521 -16q-167 0 -268 93.5t-80 226.5q22 138 162.5 233.5t319.5 95.5h189l1 7q2 69 -44.5 115.5t-130.5 46.5q-82 0 -160 -49.5t-107 -140.5h-172q32 112 109.5 196t170.5 124t187 40q172 0 256.5 -95.5t58.5 -256.5l-98 -620h-171l7 42q-103 -58 -230 -58zM544 152
q83 0 155 44.5t93 105.5l25 161h-189q-107 0 -190.5 -45.5t-93.5 -111.5q-10 -62 49 -108t151 -46z" />
    <glyph glyph-name="b" unicode="b" horiz-adv-x="1152" vert-adv-y="2130" 
d="M576 -16q-163 0 -266 106l-14 -90h-171l212 1336h171l-73 -456q137 108 300 108q193 0 297.5 -143t70.5 -360q-23 -142 -99 -257t-188.5 -179.5t-239.5 -64.5zM603 152q121 0 217 95.5t119 237.5t-43 237.5t-187 95.5q-120 0 -215.5 -95.5t-118.5 -237.5t42.5 -237.5
t185.5 -95.5z" />
    <glyph glyph-name="c" unicode="c" horiz-adv-x="1158" vert-adv-y="2130" 
d="M597 -16q-204 0 -316.5 142.5t-78.5 358.5q23 143 102.5 258t198.5 180t253 65q121 0 223 -69t163 -193l-157 -93q-44 87 -111.5 136t-143.5 49q-130 0 -232 -95.5t-125 -237.5t49 -237.5t202 -95.5q76 0 159.5 49t154.5 136l128 -93q-101 -124 -224.5 -192t-244.5 -68z
" />
    <glyph glyph-name="d" unicode="d" horiz-adv-x="1152" vert-adv-y="2130" 
d="M568 -16q-190 0 -295 142.5t-71 358.5t184.5 359.5t340.5 143.5q163 0 269 -108l73 456h169l-212 -1336h-169l14 90q-138 -106 -303 -106zM595 152q121 0 217 95.5t119 237.5t-43 237.5t-187 95.5q-120 0 -215 -95.5t-118 -237.5t42 -237.5t185 -95.5z" />
    <glyph glyph-name="e" unicode="e" vert-adv-y="2130" 
d="M597 -16q-204 0 -316.5 142.5t-78.5 358.5q35 217 192 360t362 143q134 0 231.5 -73t139 -199.5t20.5 -281.5h-779q0 -121 71 -201.5t185 -80.5q92 0 179.5 62t150.5 169l151 -57q-89 -158 -224.5 -250t-283.5 -92zM411 606h571q-16 96 -84 154t-168 58t-186 -58
t-133 -154z" />
    <glyph glyph-name="f" unicode="f" horiz-adv-x="751" vert-adv-y="2130" 
d="M562 800l-127 -800h-171l127 800h-139l27 170h139l16 102q20 125 139 216.5t273 99.5l-27 -170q-82 -5 -143.5 -47t-70.5 -99l-16 -102h167l-27 -170h-167z" />
    <glyph glyph-name="g" unicode="g" horiz-adv-x="1144" vert-adv-y="2130" 
d="M533 -374q-149 0 -250 92t-134 257h178q23 -85 84 -132t150 -47q119 0 202 69.5t102 185.5l6 36q-140 -106 -303 -106q-190 0 -295.5 142.5t-71.5 358.5t185 360.5t341 144.5q162 0 269 -110l15 95h169l-145 -913q-31 -197 -167 -315t-335 -118zM595 149
q121 0 216.5 95.5t118.5 237.5q23 143 -43 238t-187 95t-215.5 -95t-117.5 -238q-23 -142 42.5 -237.5t185.5 -95.5z" />
    <glyph glyph-name="h" unicode="h" horiz-adv-x="1006" vert-adv-y="2130" 
d="M395 628l-98 -628h-172l220 1388h171l-73 -462q98 62 216 62q157 0 250 -110t68 -267l-97 -611h-171l97 611q14 86 -36.5 146.5t-135.5 60.5q-79 0 -148 -56.5t-91 -133.5z" />
    <glyph glyph-name="i" unicode="i" horiz-adv-x="460" vert-adv-y="2130" 
d="M409 1125q-43 0 -69.5 31t-19.5 74t43.5 74.5t79.5 31.5q42 0 67.5 -31.5t18.5 -74.5t-42 -74t-78 -31zM470 970l-154 -970h-172l154 970h172z" />
    <glyph glyph-name="j" unicode="j" horiz-adv-x="759" vert-adv-y="2130" 
d="M705 1125q-43 0 -68 31t-18 74t42.5 74.5t77.5 31.5q44 0 70 -31.5t19 -74.5t-43 -74t-80 -31zM57 -430l32 169q132 4 229 77.5t124 180.5l154 975h173l-153 -968q-31 -193 -183 -311.5t-376 -122.5z" />
    <glyph glyph-name="k" unicode="k" horiz-adv-x="1106" vert-adv-y="2130" 
d="M345 310l-49 -311h-171l220 1389h171l-134 -845l507 427h229l-490 -420l311 -551h-204l-243 437z" />
    <glyph glyph-name="l" unicode="l" horiz-adv-x="420" vert-adv-y="2130" 
d="M516 1388l-220 -1388h-171l220 1388h171z" />
    <glyph glyph-name="m" unicode="m" horiz-adv-x="1458" vert-adv-y="2130" 
d="M386 611l-97 -611h-164l154 970h164l-6 -37q89 55 191 55q167 0 239 -131q118 131 277 131q146 0 228.5 -110t57.5 -267l-97 -611h-163l97 611q14 86 -29.5 148.5t-116.5 62.5q-65 0 -126.5 -59t-83.5 -138l-99 -625h-165l99 625q3 78 -39.5 137.5t-107.5 59.5
q-74 0 -136.5 -62.5t-76.5 -148.5z" />
    <glyph glyph-name="n" unicode="n" horiz-adv-x="1006" vert-adv-y="2130" 
d="M393 611l-97 -611h-171l153 968h171l-6 -42q98 62 216 62q157 0 250 -110t68 -267l-97 -611h-171l97 611q14 86 -36.5 146.5t-135.5 60.5q-87 0 -157 -60.5t-84 -146.5z" />
    <glyph glyph-name="o" unicode="o" vert-adv-y="2130" 
d="M597 -16q-204 0 -316.5 142.5t-78.5 358.5q23 143 102.5 258t198.5 180t253 65q206 0 320 -143.5t80 -359.5t-193.5 -358.5t-365.5 -142.5zM624 152q132 0 234.5 95.5t125.5 237.5t-49.5 237.5t-204.5 95.5q-130 0 -232 -95.5t-125 -237.5t49 -237.5t202 -95.5z" />
    <glyph glyph-name="p" unicode="p" horiz-adv-x="1152" vert-adv-y="2130" 
d="M310 87l-72 -454h-171l211 1334h171l-14 -89q136 109 300 109q127 0 219 -65.5t131.5 -181t16.5 -258.5q-34 -216 -183.5 -358.5t-342.5 -142.5q-165 0 -266 106zM603 149q121 0 216.5 95.5t118.5 237.5q23 143 -43 238t-187 95q-120 0 -216 -95.5t-118 -237.5
q-23 -142 43 -237.5t186 -95.5z" />
    <glyph glyph-name="q" unicode="q" horiz-adv-x="1152" vert-adv-y="2130" 
d="M1179 967l-211 -1334h-169l72 454q-140 -106 -303 -106q-190 0 -295.5 142.5t-71.5 358.5t185 360.5t341 144.5q162 0 269 -110l14 90h169zM595 149q121 0 216.5 95.5t118.5 237.5q23 143 -43 238t-187 95t-215.5 -95t-117.5 -238q-23 -142 42.5 -237.5t185.5 -95.5z" />
    <glyph glyph-name="r" unicode="r" horiz-adv-x="755" vert-adv-y="2130" 
d="M393 611l-97 -611h-171l153 968h171l-6 -42q98 62 216 62q38 0 125 -19l-28 -178q-97 27 -122 27q-87 0 -157 -60.5t-84 -146.5z" />
    <glyph glyph-name="s" unicode="s" horiz-adv-x="1079" vert-adv-y="2130" 
d="M541 -16q-173 0 -274.5 98.5t-88.5 251.5h170q-5 -87 62.5 -134.5t157.5 -47.5q91 0 170 35.5t89 99.5q3 18 -3.5 33t-24.5 27t-36.5 21.5t-50.5 18.5t-54 14.5t-60 14.5q-68 15 -113 28t-95 36t-77.5 50t-42 69t-6.5 95q21 132 143 213t290 81q161 0 256.5 -95.5
t84.5 -242.5h-172q4 73 -50 120.5t-140 47.5q-54 0 -104 -12t-88.5 -40.5t-45.5 -68.5q-2 -17 3 -30.5t21 -24t31.5 -18.5t44.5 -16t49 -12.5t57 -12.5q92 -19 148.5 -36.5t115 -50t81 -84t11.5 -122.5q-22 -136 -151.5 -221t-307.5 -85z" />
    <glyph glyph-name="t" unicode="t" horiz-adv-x="768" vert-adv-y="2130" 
d="M670 168l-28 -172q-150 9 -240 100.5t-71 215.5l78 488h-157l27 170h157l66 418h171l-66 -418h173l-27 -170h-173l-78 -488q-9 -57 39.5 -98t128.5 -46z" />
    <glyph glyph-name="u" unicode="u" horiz-adv-x="1006" vert-adv-y="2130" 
d="M501 -17q-157 0 -250.5 109.5t-68.5 266.5l96 610h171l-96 -610q-14 -86 36.5 -147t137.5 -61q86 0 155.5 61t83.5 147l96 610h171l-153 -968h-171l7 42q-97 -60 -215 -60z" />
    <glyph glyph-name="v" unicode="v" horiz-adv-x="1234" vert-adv-y="2130" 
d="M1064 970h190l-637 -970l-329 970h190l195 -608z" />
    <glyph glyph-name="w" unicode="w" horiz-adv-x="1559" vert-adv-y="2130" 
d="M1052 0l-160 700l-383 -700l-224 970h173l120 -532l293 532h126l124 -532l289 532h173z" />
    <glyph glyph-name="x" unicode="x" horiz-adv-x="1249" vert-adv-y="2130" 
d="M679 346l-319 -346h-220l455 485l-301 485h220l209 -345l319 345h221l-455 -485l301 -485h-221z" />
    <glyph glyph-name="y" unicode="y" horiz-adv-x="1232" vert-adv-y="2130" 
d="M1252 970l-867 -1400h-177l339 550l-259 850h188l190 -653l398 653h188z" />
    <glyph glyph-name="z" unicode="z" horiz-adv-x="1039" vert-adv-y="2130" 
d="M941 171l-27 -171h-789l22 138l649 662h-509l27 170h754l-22 -137l-649 -662h544z" />
    <glyph glyph-name="braceleft" unicode="{" horiz-adv-x="698" vert-adv-y="2130" 
d="M611 -38l-27 -171h-155q-93 0 -148 66t-40 159l81 513q3 21 -10.5 37t-35.5 16h-85l27 171h85q23 0 41 16t22 38l81 511q15 94 91 160t169 66h155l-28 -171h-155q-22 0 -39.5 -16t-21.5 -39l-81 -511q-12 -79 -72 -139q40 -68 28 -139l-81 -513q-4 -23 9 -38.5t35 -15.5
h155z" />
    <glyph glyph-name="bar" unicode="|" horiz-adv-x="560" vert-adv-y="2130" 
d="M615 1579l-294 -1857h-170l294 1857h170z" />
    <glyph glyph-name="braceright" unicode="}" horiz-adv-x="698" vert-adv-y="2130" 
d="M203 -209h-155l27 171h155q22 0 40.5 16t22.5 38l81 513q13 78 70 138q-39 59 -26 140l81 511q4 23 -10 39t-36 16h-155l28 171h155q93 0 148 -66t40 -160l-81 -511q-4 -23 9.5 -38.5t36.5 -15.5h84l-27 -171h-84q-22 0 -41 -16t-22 -37l-81 -513q-15 -93 -91.5 -159
t-168.5 -66z" />
    <glyph glyph-name="asciitilde" unicode="~" horiz-adv-x="1235" vert-adv-y="2130" 
d="M871 680q-112 0 -185 90q-33 40 -70 40q-34 0 -86 -40l-96 -87l-101 123l98 83q104 90 209 90q108 0 185 -90q36 -41 70 -41q36 0 86 41l97 85l101 -121l-99 -83q-105 -90 -209 -90z" />
    <glyph glyph-name="exclamdown" unicode="&#xa1;" horiz-adv-x="578" vert-adv-y="2130" 
d="M468 1125q-43 0 -69.5 31t-19.5 74t43.5 74.5t79.5 31.5q42 0 67.5 -31.5t18.5 -74.5t-42 -74t-78 -31zM465 528l-84 -528h-181l84 528l91 493h152z" />
    <glyph glyph-name="cent" unicode="&#xa2;" horiz-adv-x="1133" vert-adv-y="2130" 
d="M654 -11l-17 -111h-170l18 114q-166 31 -249 167t-53 326t156 326t302 167l18 114h170l-18 -111q97 -17 179 -83.5t134 -171.5l-158 -93q-34 68 -81.5 113t-100.5 61l-102 -644q121 32 237 174l129 -93q-87 -105 -190 -172t-204 -83zM513 169l100 632q-101 -31 -171 -116
t-88 -200q-18 -114 25 -199t134 -117z" />
    <glyph glyph-name="sterling" unicode="&#xa3;" horiz-adv-x="1144" vert-adv-y="2130" 
d="M1015 171l-27 -171h-831l22 139q86 82 151.5 178.5t78.5 181.5l3 22h-172l27 171h128l-4 20q-28 142 -13 234q28 174 168 296t312 122q91 0 174 -48.5t148 -137.5l-142 -119q-46 64 -100 99t-107 35q-101 0 -185 -72.5t-100 -173.5q-10 -65 16 -178l3 -13q5 -20 13 -64
h370l-27 -171h-337l-3 -19q-27 -167 -156 -331h590z" />
    <glyph glyph-name="yen" unicode="&#xa5;" horiz-adv-x="1561" vert-adv-y="2130" 
d="M908 257l-41 -257h-171l41 257h-248l27 170h248l17 107h-248l27 171h145l-377 631h214l356 -598l545 598h214l-575 -631h143l-27 -171h-246l-17 -107h246l-27 -170h-246z" />
    <glyph glyph-name="brokenbar" unicode="&#xa6;" horiz-adv-x="588" vert-adv-y="2130" 
d="M629 1579l-129 -814h-170l129 814h170zM464 536l-129 -814h-170l129 814h170z" />
    <glyph glyph-name="dieresis" unicode="&#xa8;" horiz-adv-x="918" vert-adv-y="2130" 
d="M504 1062q-43 0 -69 31t-19 74t42.5 74t78.5 31t69.5 -31t19.5 -74t-43 -74t-79 -31zM748 1062q-42 0 -68.5 31t-19.5 74t43 74t78 31q43 0 70 -31t20 -74t-43.5 -74t-79.5 -31z" />
    <glyph glyph-name="copyright" unicode="&#xa9;" horiz-adv-x="1575" vert-adv-y="2130" 
d="M793 0q-137 0 -253 53.5t-192 143.5t-109.5 214.5t-11.5 261.5t95 262t177 215t237 143.5t270 53.5t253.5 -53.5t192.5 -143.5t110 -215t12 -262q-29 -182 -144 -337.5t-284.5 -245.5t-352.5 -90zM814 130q148 0 284.5 72.5t229 197.5t116.5 273q23 148 -30 273.5
t-166.5 198t-261.5 72.5t-284.5 -72.5t-229 -198t-115.5 -273.5q-18 -110 9 -211t88.5 -173.5t155 -115.5t204.5 -43zM846 257q-173 0 -276 121.5t-75 294.5q27 174 168 295.5t315 121.5q105 0 195.5 -61t143.5 -167l-118 -77q-40 82 -104.5 129t-137.5 47
q-120 0 -217 -84.5t-116 -203.5t51.5 -203t190.5 -84q73 0 151 46.5t145 129.5l95 -77q-87 -107 -196.5 -167.5t-214.5 -60.5z" />
    <glyph glyph-name="ordfeminine" unicode="&#xaa;" horiz-adv-x="656" vert-adv-y="2130" 
d="M759 1199l-37 -234h9l-22 -135h-135l2 8h-22l1 10q-52 -19 -98 -19q-55 0 -104.5 22.5t-80 70.5t-21.5 110q12 68 65 118h-47l22 135h27q38 63 106.5 97t141.5 34q104 0 156.5 -57.5t36.5 -159.5zM449 1232l-1 -10q50 14 95 14h67q-8 16 -27.5 24.5t-40.5 8.5
q-61 0 -93 -37zM579 1019l2 3l3 6l9 59h-74q-38 0 -77.5 -14.5t-42.5 -39.5q-4 -23 21 -38.5t64 -15.5q29 0 55.5 11t39.5 29z" />
    <glyph glyph-name="guillemotleft" unicode="&#xab;" horiz-adv-x="1123" vert-adv-y="1700" 
d="M457 493l257 -304l-142 -120l-355 424l489 422l104 -121zM733 493l253 -302l-137 -122l-357 424l491 422l99 -121z" />
    <glyph glyph-name="logicalnot" unicode="&#xac;" horiz-adv-x="1263" vert-adv-y="2130" 
d="M1178 683l-76 -483h-170l49 313h-703l27 170h873z" />
    <glyph glyph-name="registered" unicode="&#xae;" horiz-adv-x="1488" vert-adv-y="2130" 
d="M782 0q-182 0 -323 90t-207 245.5t-37 337.5q29 183 144 338.5t284.5 245.5t351.5 90q137 0 253 -53.5t192 -143.5t110 -215t12 -262q-29 -182 -144 -337.5t-284.5 -245.5t-351.5 -90zM803 130q148 0 284.5 72.5t229 197.5t116.5 273q23 148 -30 273.5t-166.5 198
t-261.5 72.5t-285 -72.5t-229.5 -198t-115.5 -273.5q-18 -111 9 -211.5t88.5 -173t155.5 -115.5t205 -43zM675 527l-36 -233h-131l125 789h408q116 0 184.5 -81t49.5 -197q-13 -83 -69.5 -152t-135.5 -102l135 -257h-157l-125 233h-248zM1022 968h-291l-51 -325h307
q63 9 112.5 55t58.5 107q11 68 -28.5 115.5t-107.5 47.5z" />
    <glyph glyph-name="macron" unicode="&#xaf;" horiz-adv-x="916" vert-adv-y="2130" 
d="M887 1235l-27 -170h-466l27 170h466z" />
    <glyph glyph-name="degree" unicode="&#xb0;" horiz-adv-x="748" vert-adv-y="2130" 
d="M514 887q-97 0 -154 68t-42 165q16 97 94.5 165t175.5 68t154.5 -68t41.5 -165q-15 -97 -94 -165t-176 -68zM541 1057q26 0 47.5 18.5t25.5 44.5q4 25 -11.5 43.5t-41.5 18.5t-47 -18t-26 -44q-4 -26 11.5 -44.5t41.5 -18.5z" />
    <glyph glyph-name="plusminus" unicode="&#xb1;" horiz-adv-x="1078" vert-adv-y="2130" 
d="M727 652l-39 -247h-170l39 247h-247l27 170h247l40 249h170l-40 -249h248l-27 -170h-248zM930 366l-27 -170h-665l27 170h665z" />
    <glyph glyph-name="uni00B2" unicode="&#xb2;" horiz-adv-x="561" vert-adv-y="1700" 
d="M647 1005l-20 -130h-416l12 76q6 41 27.5 77t55.5 64t63.5 47t71.5 40l71 35q42 20 44 35q3 18 -17.5 28t-55.5 10q-34 0 -58 -23.5t-35 -65.5h-127l8 53q13 82 82 124t152 42q38 0 72 -9.5t61.5 -28.5t41 -53.5t6.5 -78.5q-8 -51 -34.5 -79.5t-82.5 -60.5l-72 -37
q-77 -36 -109 -65h259z" />
    <glyph glyph-name="uni00B3" unicode="&#xb3;" horiz-adv-x="578" vert-adv-y="1700" 
d="M642 1170l-5 5q47 -49 35 -120q-9 -56 -49 -95.5t-89.5 -55.5t-103.5 -16q-40 0 -75 9.5t-64.5 28.5t-43.5 53.5t-7 78.5l7 47h118l-7 -47q-4 -24 21 -38.5t69 -14.5t74 14.5t34 38.5q3 23 -19 38t-61 15h-88l18 112h88q36 0 60.5 13.5t27.5 34.5q4 23 -19.5 36.5
t-66.5 13.5q-84 0 -108 -96h-113l7 46q9 56 47.5 95t86 54.5t100.5 15.5q83 0 139.5 -41t44.5 -122q-11 -62 -58 -103z" />
    <glyph glyph-name="acute" unicode="&#xb4;" horiz-adv-x="954" vert-adv-y="2130" 
d="M831 1410l90 -130l-365 -261l-86 131z" />
    <glyph glyph-name="paragraph" unicode="&#xb6;" horiz-adv-x="1211" vert-adv-y="2130" 
d="M1010 1202l-190 -1202h-145l72 457h-111q-184 0 -293.5 130.5t-80.5 314.5q19 121 95 223.5t188.5 162.5t232.5 60h435l-214 -1348h-145l190 1202h-34zM659 602h111l95 600h-111q-125 0 -226.5 -87.5t-120.5 -212.5q-20 -125 53.5 -212.5t198.5 -87.5z" />
    <glyph glyph-name="periodcentered" unicode="&#xb7;" horiz-adv-x="542" vert-adv-y="2130" 
d="M361 568q-43 0 -69.5 31.5t-19.5 74.5t43 74t79 31t68.5 -31t18.5 -74q-7 -44 -42 -75t-78 -31z" />
    <glyph glyph-name="cedilla" unicode="&#xb8;" horiz-adv-x="1284" vert-adv-y="2130" 
d="M435 -367l21 136q31 -5 62 7t50 36h-105l38 240h133l-17 -107h118l-15 -96q-15 -93 -98.5 -156.5t-186.5 -59.5z" />
    <glyph glyph-name="uni00B9" unicode="&#xb9;" horiz-adv-x="404" vert-adv-y="1700" 
d="M555 1416l-84 -534h-129l54 344l-35 -24l-75 94l174 120h95z" />
    <glyph glyph-name="ordmasculine" unicode="&#xba;" horiz-adv-x="745" vert-adv-y="2130" 
d="M499 799q-122 0 -189.5 85t-47.5 213q20 127 115 212t216 85q123 0 190.5 -85t47.5 -212q-20 -129 -114.5 -213.5t-217.5 -84.5zM522 947q59 0 104.5 42.5t56.5 107.5q10 63 -22.5 105t-91.5 42q-58 0 -104 -42t-56 -105q-10 -64 22.5 -107t90.5 -43z" />
    <glyph glyph-name="guillemotright" unicode="&#xbb;" horiz-adv-x="1124" vert-adv-y="1700" 
d="M433 915l356 -422l-491 -424l-101 120l350 304l-254 301zM706 915l357 -422l-491 -424l-100 120l351 304l-255 301z" />
    <glyph glyph-name="questiondown" unicode="&#xbf;" horiz-adv-x="1196" vert-adv-y="2130" 
d="M860 1153q-44 0 -71 30.5t-20 73.5q7 44 43.5 75.5t80.5 31.5q41 0 67.5 -32t19.5 -75q-7 -42 -42.5 -73t-77.5 -31zM614 0q-212 0 -336 109.5t-98 273.5q39 250 467 463q34 17 47.5 26t27 31.5t19.5 61.5l25 162h173l-26 -163q-9 -52 -19.5 -85.5t-22 -57t-37.5 -45
t-49 -35.5t-73 -41q-52 -28 -86.5 -47.5t-89 -55t-88.5 -65.5t-62.5 -70t-34.5 -78q-15 -93 67 -153t221 -60q127 0 218 70.5t117 189.5h168q-38 -194 -184 -312.5t-344 -118.5z" />
    <glyph glyph-name="Agrave" unicode="&#xc0;" horiz-adv-x="1640" vert-adv-y="2130" 
d="M1024 1849l292 -270l-131 -134l-292 268zM569 367l-242 -367h-193l906 1388l467 -1388h-193l-126 367h-619zM1134 547l-156 458l-297 -458h453z" />
    <glyph glyph-name="Aacute" unicode="&#xc1;" horiz-adv-x="1640" vert-adv-y="2130" 
d="M1223 1849l90 -135l-374 -269l-90 134zM569 367l-242 -367h-193l906 1388l467 -1388h-193l-126 367h-619zM1134 547l-156 458l-297 -458h453z" />
    <glyph glyph-name="Acircumflex" unicode="&#xc2;" horiz-adv-x="1640" vert-adv-y="2130" 
d="M1239 1467l-166 139l-207 -139l-89 134l332 223l262 -223zM569 367l-242 -367h-193l906 1388l467 -1388h-193l-126 367h-619zM1134 547l-156 458l-297 -458h453z" />
    <glyph glyph-name="Atilde" unicode="&#xc3;" horiz-adv-x="1640" vert-adv-y="2130" 
d="M997 1567l-10 -8l-90 -77l-104 122l91 77q76 63 141 63q64 0 122 -61q4 -5 10 -11l8 10l93 77l103 -124l-93 -76q-74 -63 -139 -63q-64 0 -122 63q-8 8 -10 8zM327 0h-193l906 1388l467 -1388h-193l-126 367h-619zM1134 547l-156 458l-297 -458h453z" />
    <glyph glyph-name="Adieresis" unicode="&#xc4;" horiz-adv-x="1640" vert-adv-y="2130" 
d="M929 1489q-44 0 -70.5 31.5t-19.5 75.5t43.5 76.5t80.5 32.5t71.5 -32.5t20.5 -76.5q-7 -43 -44.5 -75t-81.5 -32zM1185 1489q-45 0 -71.5 31.5t-19.5 75.5t43.5 76.5t81.5 32.5q43 0 69.5 -32.5t19.5 -76.5q-7 -43 -43.5 -75t-79.5 -32zM569 367l-242 -367h-193
l906 1388l467 -1388h-193l-126 367h-619zM1134 547l-156 458l-297 -458h453z" />
    <glyph glyph-name="Aring" unicode="&#xc5;" horiz-adv-x="1640" vert-adv-y="2130" 
d="M1050 1465q-78 0 -124 56t-34 135q13 78 76.5 133t141.5 55q80 0 127 -55t34 -133q-12 -79 -77 -135t-144 -56zM1070 1592q26 0 47 19t25 45q5 26 -10.5 45t-41.5 19q-27 0 -47.5 -18.5t-25.5 -45.5q-4 -27 11 -45.5t42 -18.5zM569 367l-242 -367h-193l906 1388
l467 -1388h-193l-126 367h-619zM1134 547l-156 458l-297 -458h453z" />
    <glyph glyph-name="AE" unicode="&#xc6;" horiz-adv-x="1963" vert-adv-y="2130" 
d="M574 391l-247 -391h-193l873 1390h1052l-28 -175h-896l-68 -434h840l-28 -172h-840l-68 -434h896l-28 -175h-1069l62 391h-258zM860 566l58 370l-235 -370h177z" />
    <glyph glyph-name="Ccedilla" unicode="&#xc7;" horiz-adv-x="1617" vert-adv-y="2130" 
d="M604 -389l22 136q31 -5 62 7t50 36h-105l32 205q-226 61 -348 255t-82 445q31 198 155 364.5t305.5 262.5t377.5 96q185 0 338.5 -99.5t239.5 -274.5l-155 -103q-72 142 -192 223t-259 81q-149 0 -286.5 -73.5t-231 -200.5t-117.5 -276q-18 -112 9.5 -214t89.5 -175.5
t156.5 -117t205.5 -43.5q139 0 284 81t262 223l123 -103q-142 -175 -326.5 -274.5t-369.5 -99.5q-17 0 -49 2l-8 -51h118l-15 -96q-15 -93 -99 -156.5t-187 -59.5z" />
    <glyph glyph-name="Egrave" unicode="&#xc8;" horiz-adv-x="1320" vert-adv-y="2130" 
d="M842 1849l291 -271l-135 -133l-288 268zM1222 175l-28 -175h-1069l220 1390h1069l-28 -175h-894l-68 -434h840l-28 -172h-840l-68 -434h894z" />
    <glyph glyph-name="Eacute" unicode="&#xc9;" horiz-adv-x="1320" vert-adv-y="2130" 
d="M1062 1849l91 -135l-375 -269l-89 134zM1222 175l-28 -175h-1069l220 1390h1069l-28 -175h-894l-68 -434h840l-28 -172h-840l-68 -434h894z" />
    <glyph glyph-name="Ecircumflex" unicode="&#xca;" horiz-adv-x="1320" vert-adv-y="2130" 
d="M951 1824l260 -225l-133 -132l-163 138l-206 -138l-94 132zM1222 175l-28 -175h-1069l220 1390h1069l-28 -175h-894l-68 -434h840l-28 -172h-840l-68 -434h894z" />
    <glyph glyph-name="Edieresis" unicode="&#xcb;" horiz-adv-x="1320" vert-adv-y="2130" 
d="M769 1489q-45 0 -72 31.5t-20 75.5t44 76.5t82 32.5q43 0 70 -32.5t20 -76.5q-7 -43 -44 -75t-80 -32zM1024 1489q-45 0 -72 31.5t-20 75.5t44 76.5t82 32.5q43 0 70 -32.5t20 -76.5q-7 -43 -43.5 -75t-80.5 -32zM1222 175l-28 -175h-1069l220 1390h1069l-28 -175h-894
l-68 -434h840l-28 -172h-840l-68 -434h894z" />
    <glyph glyph-name="Igrave" unicode="&#xcc;" horiz-adv-x="455" vert-adv-y="2130" 
d="M408 1849l291 -270l-132 -134l-290 268zM534 1390l-220 -1390h-174l220 1390h174z" />
    <glyph glyph-name="Iacute" unicode="&#xcd;" horiz-adv-x="455" vert-adv-y="2130" 
d="M631 1849l89 -136l-376 -268l-88 134zM534 1390l-220 -1390h-174l220 1390h174z" />
    <glyph glyph-name="Icircumflex" unicode="&#xce;" horiz-adv-x="445" vert-adv-y="2130" 
d="M640 1467l-164 138l-207 -138l-91 132l333 225l262 -225zM530 1390l-220 -1390h-176l220 1390h176z" />
    <glyph glyph-name="Idieresis" unicode="&#xcf;" horiz-adv-x="393" vert-adv-y="2130" 
d="M305 1489q-44 0 -71 31.5t-20 75.5t44 76.5t81 32.5t71 -32.5t20 -76.5t-44 -75.5t-81 -31.5zM560 1489q-45 0 -72 31.5t-20 75.5t44 76.5t82 32.5q44 0 71 -32.5t20 -76.5q-7 -43 -44 -75t-81 -32zM504 1390l-220 -1390h-174l220 1390h174z" />
    <glyph glyph-name="Ntilde" unicode="&#xd1;" horiz-adv-x="1397" vert-adv-y="2130" 
d="M875 1567l-11 -8l-87 -77l-107 122l91 77q76 63 141 63q66 0 123 -62q7 -5 9 -10q1 2 11 10l90 77l104 -124l-92 -76q-76 -63 -140 -63q-66 0 -121 63q-8 8 -11 8zM345 1388l824 -941l149 943h174l-220 -1390l-824 932l-148 -932h-175z" />
    <glyph glyph-name="Ograve" unicode="&#xd2;" horiz-adv-x="1698" vert-adv-y="2130" 
d="M1032 1849l290 -271l-134 -133l-289 268zM844 -28q-147 0 -271.5 57t-206.5 153.5t-118.5 230.5t-12.5 282q31 198 155 364.5t305.5 262.5t377.5 96q148 0 273.5 -57t207.5 -153.5t118 -230.5t12 -282t-102.5 -282t-190.5 -230.5t-255.5 -153.5t-291.5 -57zM871 145
q150 0 288.5 73.5t232 200t117.5 276.5q18 112 -9.5 214t-89.5 175.5t-157.5 117t-207.5 43.5q-149 0 -286.5 -73.5t-231 -200.5t-117.5 -276q-18 -112 9.5 -214t89.5 -175.5t156.5 -117t205.5 -43.5z" />
    <glyph glyph-name="Oacute" unicode="&#xd3;" horiz-adv-x="1698" vert-adv-y="2130" 
d="M1253 1849l90 -135l-375 -269l-90 134zM844 -28q-147 0 -271.5 57t-206.5 153.5t-118.5 230.5t-12.5 282q31 198 155 364.5t305.5 262.5t377.5 96q148 0 273.5 -57t207.5 -153.5t118 -230.5t12 -282t-102.5 -282t-190.5 -230.5t-255.5 -153.5t-291.5 -57zM871 145
q150 0 288.5 73.5t232 200t117.5 276.5q18 112 -9.5 214t-89.5 175.5t-157.5 117t-207.5 43.5q-149 0 -286.5 -73.5t-231 -200.5t-117.5 -276q-18 -112 9.5 -214t89.5 -175.5t156.5 -117t205.5 -43.5z" />
    <glyph glyph-name="Ocircumflex" unicode="&#xd4;" horiz-adv-x="1698" vert-adv-y="2130" 
d="M1265 1467l-163 138l-206 -138l-92 132l333 225l263 -225zM844 -28q-147 0 -271.5 57t-206.5 153.5t-118.5 230.5t-12.5 282q31 198 155 364.5t305.5 262.5t377.5 96q148 0 273.5 -57t207.5 -153.5t118 -230.5t12 -282t-102.5 -282t-190.5 -230.5t-255.5 -153.5
t-291.5 -57zM871 145q150 0 288.5 73.5t232 200t117.5 276.5q18 112 -9.5 214t-89.5 175.5t-157.5 117t-207.5 43.5q-149 0 -286.5 -73.5t-231 -200.5t-117.5 -276q-18 -112 9.5 -214t89.5 -175.5t156.5 -117t205.5 -43.5z" />
    <glyph glyph-name="Otilde" unicode="&#xd5;" horiz-adv-x="1698" vert-adv-y="2130" 
d="M1015 1560l-89 -78l-105 122l93 78q73 62 140 62q63 0 121 -61l10 -10l11 9l88 77l106 -124l-92 -76q-72 -63 -140 -63q-67 0 -121 62l-11 9l-2 -1q-1 -1 -4 -2.5t-5 -3.5zM1073 1418q148 0 273.5 -57t207.5 -153.5t118 -230.5t12 -282t-102.5 -282t-190.5 -230.5
t-255.5 -153.5t-291.5 -57q-147 0 -271.5 57t-206.5 153.5t-118.5 230.5t-12.5 282q31 198 155 364.5t305.5 262.5t377.5 96zM871 145q150 0 288.5 73.5t232 200t117.5 276.5q18 112 -9.5 214t-89.5 175.5t-157.5 117t-207.5 43.5q-149 0 -286.5 -73.5t-231 -200.5
t-117.5 -276q-18 -112 9.5 -214t89.5 -175.5t156.5 -117t205.5 -43.5z" />
    <glyph glyph-name="Odieresis" unicode="&#xd6;" horiz-adv-x="1698" vert-adv-y="2130" 
d="M957 1489q-43 0 -70 32t-20 75q7 44 44 76.5t80 32.5q45 0 72 -32.5t20 -76.5t-44 -75.5t-82 -31.5zM1212 1489q-43 0 -70 32t-20 75q7 44 44 76.5t80 32.5q45 0 71.5 -32t19.5 -77q-7 -44 -43.5 -75.5t-81.5 -31.5zM844 -28q-147 0 -271.5 57t-206.5 153.5t-118.5 230.5
t-12.5 282q31 198 155 364.5t305.5 262.5t377.5 96q148 0 273.5 -57t207.5 -153.5t118 -230.5t12 -282t-102.5 -282t-190.5 -230.5t-255.5 -153.5t-291.5 -57zM871 145q150 0 288.5 73.5t232 200t117.5 276.5q18 112 -9.5 214t-89.5 175.5t-157.5 117t-207.5 43.5
q-149 0 -286.5 -73.5t-231 -200.5t-117.5 -276q-18 -112 9.5 -214t89.5 -175.5t156.5 -117t205.5 -43.5z" />
    <glyph glyph-name="multiply" unicode="&#xd7;" horiz-adv-x="1071" vert-adv-y="2130" 
d="M750 597l189 -222l-139 -122l-189 225l-259 -225l-102 122l261 222l-190 225l140 120l188 -224l260 224l101 -120z" />
    <glyph glyph-name="Oslash" unicode="&#xd8;" horiz-adv-x="1698" vert-adv-y="2130" 
d="M689 -11l-30 -60h-186l60 118q-168 91 -249.5 266.5t-48.5 381.5q31 198 155 364.5t305.5 262.5t377.5 96q84 0 155 -17l32 60h186l-62 -119q168 -91 250.5 -266t49.5 -381q-24 -148 -102.5 -282t-190.5 -230.5t-255.5 -153.5t-291.5 -57q-84 0 -155 17zM619 212
l525 1023q-53 10 -99 10q-149 0 -286.5 -73.5t-231 -200.5t-117.5 -276q-24 -153 32 -282t177 -201zM871 145q150 0 288.5 73.5t232 200t117.5 276.5q24 152 -32.5 281.5t-176.5 201.5l-525 -1023q53 -10 96 -10z" />
    <glyph glyph-name="Ugrave" unicode="&#xd9;" horiz-adv-x="1397" vert-adv-y="2130" 
d="M879 1849l292 -270l-135 -134l-288 268zM695 -28q-156 0 -276.5 76.5t-176.5 208.5t-31 287l134 846h175l-134 -846q-26 -164 72.5 -281.5t263.5 -117.5t300.5 117.5t161.5 281.5l134 846h174l-134 -846q-25 -155 -122.5 -287t-241.5 -208.5t-299 -76.5z" />
    <glyph glyph-name="Uacute" unicode="&#xda;" horiz-adv-x="1397" vert-adv-y="2130" 
d="M1100 1849l92 -135l-377 -269l-88 134zM695 -28q-156 0 -276.5 76.5t-176.5 208.5t-31 287l134 846h175l-134 -846q-26 -164 72.5 -281.5t263.5 -117.5t300.5 117.5t161.5 281.5l134 846h174l-134 -846q-25 -155 -122.5 -287t-241.5 -208.5t-299 -76.5z" />
    <glyph glyph-name="Ucircumflex" unicode="&#xdb;" horiz-adv-x="1397" vert-adv-y="2130" 
d="M1115 1467l-162 138l-207 -138l-92 132l334 225l261 -225zM695 -28q-156 0 -276.5 76.5t-176.5 208.5t-31 287l134 846h175l-134 -846q-26 -164 72.5 -281.5t263.5 -117.5t300.5 117.5t161.5 281.5l134 846h174l-134 -846q-25 -155 -122.5 -287t-241.5 -208.5t-299 -76.5
z" />
    <glyph glyph-name="Udieresis" unicode="&#xdc;" horiz-adv-x="1397" vert-adv-y="2130" 
d="M808 1489q-45 0 -72 31.5t-20 75.5q7 45 44 77t82 32q43 0 70 -32.5t20 -76.5q-7 -43 -44 -75t-80 -32zM1063 1489q-45 0 -72 31.5t-20 75.5t44 76.5t82 32.5q43 0 70 -32.5t20 -76.5q-7 -43 -44 -75t-80 -32zM695 -28q-156 0 -276.5 76.5t-176.5 208.5t-31 287l134 846
h175l-134 -846q-26 -164 72.5 -281.5t263.5 -117.5t300.5 117.5t161.5 281.5l134 846h174l-134 -846q-25 -155 -122.5 -287t-241.5 -208.5t-299 -76.5z" />
    <glyph glyph-name="Yacute" unicode="&#xdd;" horiz-adv-x="1589" vert-adv-y="2130" 
d="M1228 1849l90 -136l-376 -268l-90 134zM997 537l-85 -537h-175l85 537l-463 853h215l363 -679l579 679h215z" />
    <glyph glyph-name="germandbls" unicode="&#xdf;" horiz-adv-x="1310" vert-adv-y="1700" 
d="M1319 983q-14 -88 -68.5 -164.5t-140.5 -130.5l-18 11q89 -53 129 -139t24 -188q-19 -117 -108 -208t-228.5 -142t-307.5 -53l27 169q180 2 304.5 66.5t140.5 165.5q14 89 -66.5 159t-221.5 78l-11 -1l-157 -2l25 161l155 -4h11q144 0 237.5 66.5t107.5 157.5
q15 97 -69.5 157.5t-237.5 60.5q-151 0 -254.5 -62t-119.5 -160l-200 -1264h-171l204 1287q37 163 194.5 264t373.5 101q225 0 348.5 -108t97.5 -278z" />
    <glyph glyph-name="agrave" unicode="&#xe0;" horiz-adv-x="1040" vert-adv-y="2130" 
d="M659 1410l281 -260l-130 -131l-279 259zM521 -16q-167 0 -268 93.5t-80 226.5q22 138 162.5 233.5t319.5 95.5h189l1 7q2 69 -44.5 115.5t-130.5 46.5q-82 0 -160 -49.5t-107 -140.5h-172q32 112 109.5 196t170.5 124t187 40q172 0 256.5 -95.5t58.5 -256.5l-98 -620
h-171l7 42q-103 -58 -230 -58zM544 152q83 0 155 44.5t93 105.5l25 161h-189q-107 0 -190.5 -45.5t-93.5 -111.5q-10 -62 49 -108t151 -46z" />
    <glyph glyph-name="aacute" unicode="&#xe1;" horiz-adv-x="1040" vert-adv-y="2130" 
d="M851 1410l86 -132l-363 -260l-86 132zM521 -16q-167 0 -268 93.5t-80 226.5q22 138 162.5 233.5t319.5 95.5h189l1 7q2 69 -44.5 115.5t-130.5 46.5q-82 0 -160 -49.5t-107 -140.5h-172q32 112 109.5 196t170.5 124t187 40q172 0 256.5 -95.5t58.5 -256.5l-98 -620h-171
l7 42q-103 -58 -230 -58zM544 152q83 0 155 44.5t93 105.5l25 161h-189q-107 0 -190.5 -45.5t-93.5 -111.5q-10 -62 49 -108t151 -46z" />
    <glyph glyph-name="acircumflex" unicode="&#xe2;" horiz-adv-x="1040" vert-adv-y="2130" 
d="M865 1040l-159 133l-198 -133l-90 131l322 217l253 -217zM521 -16q-167 0 -268 93.5t-80 226.5q22 138 162.5 233.5t319.5 95.5h189l1 7q2 69 -44.5 115.5t-130.5 46.5q-82 0 -160 -49.5t-107 -140.5h-172q32 112 109.5 196t170.5 124t187 40q172 0 256.5 -95.5
t58.5 -256.5l-98 -620h-171l7 42q-103 -58 -230 -58zM544 152q83 0 155 44.5t93 105.5l25 161h-189q-107 0 -190.5 -45.5t-93.5 -111.5q-10 -62 49 -108t151 -46z" />
    <glyph glyph-name="atilde" unicode="&#xe3;" horiz-adv-x="1040" vert-adv-y="2130" 
d="M623 1129l-85 -76l-104 122l89 75q74 60 135 60q66 0 118 -60l10 -9l8 9l88 76l102 -122l-90 -75q-72 -61 -136 -61q-63 0 -117 61l-8 7q-6 -3 -10 -7zM521 -16q-167 0 -268 93.5t-80 226.5q22 138 162.5 233.5t319.5 95.5h189l1 7q2 69 -44.5 115.5t-130.5 46.5
q-82 0 -160 -49.5t-107 -140.5h-172q32 112 109.5 196t170.5 124t187 40q172 0 256.5 -95.5t58.5 -256.5l-98 -620h-171l7 42q-103 -58 -230 -58zM544 152q83 0 155 44.5t93 105.5l25 161h-189q-107 0 -190.5 -45.5t-93.5 -111.5q-10 -62 49 -108t151 -46z" />
    <glyph glyph-name="adieresis" unicode="&#xe4;" horiz-adv-x="1040" vert-adv-y="2130" 
d="M566 1061q-43 0 -69.5 32t-19.5 74q7 43 43 73.5t79 30.5q42 0 69 -31t20 -73t-43.5 -74t-78.5 -32zM811 1061q-43 0 -69.5 32t-19.5 74q7 43 43 73.5t79 30.5t69 -30.5t19 -73.5q-7 -42 -43 -74t-78 -32zM521 -16q-167 0 -268 93.5t-80 226.5q22 138 162.5 233.5
t319.5 95.5h189l1 7q2 69 -44.5 115.5t-130.5 46.5q-82 0 -160 -49.5t-107 -140.5h-172q32 112 109.5 196t170.5 124t187 40q172 0 256.5 -95.5t58.5 -256.5l-98 -620h-171l7 42q-103 -58 -230 -58zM544 152q83 0 155 44.5t93 105.5l25 161h-189q-107 0 -190.5 -45.5
t-93.5 -111.5q-10 -62 49 -108t151 -46z" />
    <glyph glyph-name="aring" unicode="&#xe5;" horiz-adv-x="1040" vert-adv-y="2130" 
d="M684 1031q-78 0 -124 56t-33 135q12 78 75.5 133t141.5 55q79 0 126.5 -55t35.5 -133q-13 -79 -78 -135t-144 -56zM704 1158q26 0 47 19t26 45q4 27 -11 45.5t-41 18.5q-27 0 -48 -19t-25 -45q-5 -27 10 -45.5t42 -18.5zM521 -16q-167 0 -268 93.5t-80 226.5
q22 138 162.5 233.5t319.5 95.5h189l1 7q2 69 -44.5 115.5t-130.5 46.5q-82 0 -160 -49.5t-107 -140.5h-172q32 112 109.5 196t170.5 124t187 40q172 0 256.5 -95.5t58.5 -256.5l-98 -620h-171l7 42q-103 -58 -230 -58zM544 152q83 0 155 44.5t93 105.5l25 161h-189
q-107 0 -190.5 -45.5t-93.5 -111.5q-10 -62 49 -108t151 -46z" />
    <glyph glyph-name="ae" unicode="&#xe6;" horiz-adv-x="1823" vert-adv-y="2130" 
d="M1247 152q92 0 179.5 62t150.5 169l151 -57q-89 -158 -224.5 -250t-283.5 -92q-176 0 -290 112l-15 -96h-171l7 42q-103 -58 -230 -58q-167 0 -268 93.5t-80 226.5q22 138 162.5 233.5t319.5 95.5h189l1 7q2 69 -44.5 115.5t-130.5 46.5q-82 0 -160 -49.5t-107 -140.5
h-172q32 112 109.5 196t170.5 124t187 40q109 0 184 -39.5t110 -111.5q78 79 178 123t209 44q134 0 231.5 -73t139 -199.5t20.5 -281.5h-779q0 -121 71 -201.5t185 -80.5zM1353 818q-100 0 -186 -58t-133 -154h571q-16 96 -84 154t-168 58zM544 152q83 0 155 44.5t93 105.5
l25 161h-189q-107 0 -190.5 -45.5t-93.5 -111.5q-10 -62 49 -108t151 -46z" />
    <glyph glyph-name="ccedilla" unicode="&#xe7;" horiz-adv-x="1158" vert-adv-y="2130" 
d="M379 -371l22 136q31 -5 62 7t50 36h-105l32 203q-134 50 -199.5 177.5t-38.5 296.5q23 143 102.5 258t198.5 180t253 65q121 0 223 -69t163 -193l-157 -93q-44 87 -111.5 136t-143.5 49q-130 0 -232 -95.5t-125 -237.5t49 -237.5t202 -95.5q76 0 159.5 49t154.5 136
l128 -93q-101 -124 -224.5 -192t-244.5 -68q-19 0 -28 1l-7 -44h118l-16 -96q-14 -93 -98 -156.5t-187 -59.5z" />
    <glyph glyph-name="egrave" unicode="&#xe8;" vert-adv-y="2130" 
d="M718 1410l280 -260l-129 -131l-279 260zM597 -16q-204 0 -316.5 142.5t-78.5 358.5q35 217 192 360t362 143q134 0 231.5 -73t139 -199.5t20.5 -281.5h-779q0 -121 71 -201.5t185 -80.5q92 0 179.5 62t150.5 169l151 -57q-89 -158 -224.5 -250t-283.5 -92zM411 606h571
q-16 96 -84 154t-168 58t-186 -58t-133 -154z" />
    <glyph glyph-name="eacute" unicode="&#xe9;" vert-adv-y="2130" 
d="M931 1410l88 -131l-362 -260l-88 131zM597 -16q-204 0 -316.5 142.5t-78.5 358.5q35 217 192 360t362 143q134 0 231.5 -73t139 -199.5t20.5 -281.5h-779q0 -121 71 -201.5t185 -80.5q92 0 179.5 62t150.5 169l151 -57q-89 -158 -224.5 -250t-283.5 -92zM411 606h571
q-16 96 -84 154t-168 58t-186 -58t-133 -154z" />
    <glyph glyph-name="ecircumflex" unicode="&#xea;" vert-adv-y="2130" 
d="M945 1040l-159 133l-196 -133l-90 131l320 217l253 -217zM597 -16q-204 0 -316.5 142.5t-78.5 358.5q35 217 192 360t362 143q134 0 231.5 -73t139 -199.5t20.5 -281.5h-779q0 -121 71 -201.5t185 -80.5q92 0 179.5 62t150.5 169l151 -57q-89 -158 -224.5 -250
t-283.5 -92zM411 606h571q-16 96 -84 154t-168 58t-186 -58t-133 -154z" />
    <glyph glyph-name="edieresis" unicode="&#xeb;" vert-adv-y="2130" 
d="M647 1061q-43 0 -69.5 32t-19.5 74q7 43 43 73.5t79 30.5t69.5 -30.5t19.5 -73.5q-7 -42 -43.5 -74t-78.5 -32zM890 1061q-42 0 -67.5 32t-18.5 74q7 43 42 73.5t77 30.5q43 0 70.5 -31t20.5 -73t-44.5 -74t-79.5 -32zM597 -16q-204 0 -316.5 142.5t-78.5 358.5
q35 217 192 360t362 143q134 0 231.5 -73t139 -199.5t20.5 -281.5h-779q0 -121 71 -201.5t185 -80.5q92 0 179.5 62t150.5 169l151 -57q-89 -158 -224.5 -250t-283.5 -92zM411 606h571q-16 96 -84 154t-168 58t-186 -58t-133 -154z" />
    <glyph glyph-name="igrave" unicode="&#xec;" horiz-adv-x="488" vert-adv-y="2130" 
d="M359 1410l283 -261l-131 -129l-280 258zM483 970l-154 -970h-172l154 970h172z" />
    <glyph glyph-name="iacute" unicode="&#xed;" horiz-adv-x="488" vert-adv-y="2130" 
d="M572 1410l90 -131l-365 -261l-86 132zM483 970l-154 -970h-172l154 970h172z" />
    <glyph glyph-name="icircumflex" unicode="&#xee;" horiz-adv-x="470" vert-adv-y="2130" 
d="M455 1388l251 -217l-127 -131l-158 133l-199 -133l-89 131zM474 970l-154 -970h-172l154 970h172z" />
    <glyph glyph-name="idieresis" unicode="&#xef;" horiz-adv-x="424" vert-adv-y="2130" 
d="M258 1061q-42 0 -69 32t-20 74q7 43 43 73.5t79 30.5t68.5 -30.5t18.5 -73.5q-7 -42 -42.5 -74t-77.5 -32zM502 1061q-42 0 -69 32.5t-20 73.5q7 42 43.5 73t78.5 31t68.5 -30.5t19.5 -73.5q-7 -42 -43 -74t-78 -32zM451 970l-154 -970h-171l154 970h171z" />
    <glyph glyph-name="ntilde" unicode="&#xf1;" horiz-adv-x="1006" vert-adv-y="2130" 
d="M606 1129l-87 -76l-102 122l90 75q71 60 136 60q62 0 117 -60l7 -9q4 5 10 9l85 76l105 -122l-90 -75q-74 -61 -137 -61q-62 0 -116 61l-1 1l-8 7l-2 -1q-2 -2 -4 -3.5t-3 -3.5zM659 988q157 0 250 -110t68 -267l-97 -611h-171l97 611q14 86 -36.5 146.5t-135.5 60.5
q-87 0 -157 -60.5t-84 -146.5l-97 -611h-171l153 968h171l-6 -42q98 62 216 62z" />
    <glyph glyph-name="ograve" unicode="&#xf2;" vert-adv-y="2130" 
d="M718 1410l280 -260l-129 -131l-279 260zM597 -16q-204 0 -316.5 142.5t-78.5 358.5q23 143 102.5 258t198.5 180t253 65q206 0 320 -143.5t80 -359.5t-193.5 -358.5t-365.5 -142.5zM624 152q132 0 234.5 95.5t125.5 237.5t-49.5 237.5t-204.5 95.5q-130 0 -232 -95.5
t-125 -237.5t49 -237.5t202 -95.5z" />
    <glyph glyph-name="oacute" unicode="&#xf3;" vert-adv-y="2130" 
d="M931 1410l88 -131l-362 -260l-88 131zM597 -16q-204 0 -316.5 142.5t-78.5 358.5q23 143 102.5 258t198.5 180t253 65q206 0 320 -143.5t80 -359.5t-193.5 -358.5t-365.5 -142.5zM624 152q132 0 234.5 95.5t125.5 237.5t-49.5 237.5t-204.5 95.5q-130 0 -232 -95.5
t-125 -237.5t49 -237.5t202 -95.5z" />
    <glyph glyph-name="ocircumflex" unicode="&#xf4;" vert-adv-y="2130" 
d="M945 1040l-159 133l-196 -133l-90 131l320 217l253 -217zM597 -16q-204 0 -316.5 142.5t-78.5 358.5q23 143 102.5 258t198.5 180t253 65q206 0 320 -143.5t80 -359.5t-193.5 -358.5t-365.5 -142.5zM624 152q132 0 234.5 95.5t125.5 237.5t-49.5 237.5t-204.5 95.5
q-130 0 -232 -95.5t-125 -237.5t49 -237.5t202 -95.5z" />
    <glyph glyph-name="otilde" unicode="&#xf5;" vert-adv-y="2130" 
d="M714 1136l-11 -7l-84 -76l-104 122l90 75q69 60 135 60q64 0 117 -60l9 -9l9 9l88 76l101 -122l-89 -75q-72 -61 -137 -61q-63 0 -116 61q-7 7 -8 7zM756 988q206 0 320 -143.5t80 -359.5t-193.5 -358.5t-365.5 -142.5q-204 0 -316.5 142.5t-78.5 358.5q23 143 102.5 258
t198.5 180t253 65zM624 152q132 0 234.5 95.5t125.5 237.5t-49.5 237.5t-204.5 95.5q-130 0 -232 -95.5t-125 -237.5t49 -237.5t202 -95.5z" />
    <glyph glyph-name="odieresis" unicode="&#xf6;" vert-adv-y="2130" 
d="M648 1061q-44 0 -70 32t-19 74q7 43 42.5 73.5t79.5 30.5q43 0 69.5 -30.5t19.5 -73.5q-7 -42 -43.5 -74t-78.5 -32zM891 1061q-42 0 -68 32t-19 74q7 43 42.5 73.5t77.5 30.5q43 0 70.5 -31t20.5 -73t-44.5 -74t-79.5 -32zM597 -16q-204 0 -316.5 142.5t-78.5 358.5
q23 143 102.5 258t198.5 180t253 65q206 0 320 -143.5t80 -359.5t-193.5 -358.5t-365.5 -142.5zM624 152q132 0 234.5 95.5t125.5 237.5t-49.5 237.5t-204.5 95.5q-130 0 -232 -95.5t-125 -237.5t49 -237.5t202 -95.5z" />
    <glyph glyph-name="divide" unicode="&#xf7;" horiz-adv-x="1189" vert-adv-y="2130" 
d="M715 761q-43 0 -69 30.5t-19 73.5q7 42 43 73.5t78 31.5t69 -31.5t20 -73.5q-7 -43 -43 -73.5t-79 -30.5zM1105 683l-27 -170h-804l27 170h804zM633 247q-43 0 -68.5 30.5t-18.5 74.5q7 43 42 74t78 31q42 0 69.5 -31.5t20.5 -73.5q-7 -44 -43.5 -74.5t-79.5 -30.5z" />
    <glyph glyph-name="oslash" unicode="&#xf8;" vert-adv-y="2130" 
d="M839 1102h182l-78 -154q120 -56 179 -181t34 -282q-34 -216 -193.5 -358.5t-365.5 -142.5q-73 0 -138 21l-38 -76h-183l79 156q-75 69 -105 171.5t-10 228.5q23 143 102.5 258t198.5 180t253 65q8 0 24 -2zM410 265l282 550q-119 -14 -208.5 -106t-110.5 -224
q-21 -128 37 -220zM624 152q132 0 234.5 95.5t125.5 237.5q16 102 -17.5 182.5t-107.5 119.5l-318 -623q39 -12 83 -12z" />
    <glyph glyph-name="ugrave" unicode="&#xf9;" horiz-adv-x="1006" vert-adv-y="2130" 
d="M619 1410l283 -261l-132 -129l-278 258zM501 -17q-157 0 -250.5 109.5t-68.5 266.5l96 610h171l-96 -610q-14 -86 36.5 -147t137.5 -61q86 0 155.5 61t83.5 147l96 610h171l-153 -968h-171l7 42q-97 -60 -215 -60z" />
    <glyph glyph-name="uacute" unicode="&#xfa;" horiz-adv-x="1006" vert-adv-y="2130" 
d="M831 1410l91 -131l-365 -261l-85 132zM501 -17q-157 0 -250.5 109.5t-68.5 266.5l96 610h171l-96 -610q-14 -86 36.5 -147t137.5 -61q86 0 155.5 61t83.5 147l96 610h171l-153 -968h-171l7 42q-97 -60 -215 -60z" />
    <glyph glyph-name="ucircumflex" unicode="&#xfb;" horiz-adv-x="1006" vert-adv-y="2130" 
d="M724 1388l252 -217l-131 -131l-155 133l-200 -133l-89 131zM501 -17q-157 0 -250.5 109.5t-68.5 266.5l96 610h171l-96 -610q-14 -86 36.5 -147t137.5 -61q86 0 155.5 61t83.5 147l96 610h171l-153 -968h-171l7 42q-97 -60 -215 -60z" />
    <glyph glyph-name="udieresis" unicode="&#xfc;" horiz-adv-x="1006" vert-adv-y="2130" 
d="M548 1061q-42 0 -68 32t-19 74q7 43 42.5 73.5t77.5 30.5q44 0 70 -30.5t19 -73.5q-7 -42 -43 -74t-79 -32zM795 1061q-44 0 -71 32t-20 74q7 43 43.5 73.5t80.5 30.5q42 0 68.5 -31t19.5 -73q-7 -41 -43.5 -73.5t-77.5 -32.5zM501 -17q-157 0 -250.5 109.5t-68.5 266.5
l96 610h171l-96 -610q-14 -86 36.5 -147t137.5 -61q86 0 155.5 61t83.5 147l96 610h171l-153 -968h-171l7 42q-97 -60 -215 -60z" />
    <glyph glyph-name="yacute" unicode="&#xfd;" horiz-adv-x="1232" vert-adv-y="2130" 
d="M945 1410l89 -131l-364 -260l-87 131zM1252 970l-867 -1400h-177l339 550l-259 850h188l190 -653l398 653h188z" />
    <glyph glyph-name="ydieresis" unicode="&#xff;" horiz-adv-x="1232" vert-adv-y="2130" 
d="M662 1061q-42 0 -68 32t-19 74q7 43 42 73.5t78 30.5t70 -30.5t20 -73.5q-7 -42 -44 -74t-79 -32zM906 1061q-43 0 -68.5 32t-18.5 74q7 43 42 73.5t78 30.5t69.5 -30.5t19.5 -73.5q-7 -42 -43.5 -74t-78.5 -32zM1252 970l-867 -1400h-177l339 550l-259 850h188l190 -653
l398 653h188z" />
    <glyph glyph-name="Amacron" unicode="&#x100;" horiz-adv-x="1640" vert-adv-y="2130" 
d="M1325 1667l-28 -176h-482l28 176h482zM569 367l-242 -367h-193l906 1388l467 -1388h-193l-126 367h-619zM1134 547l-156 458l-297 -458h453z" />
    <glyph glyph-name="amacron" unicode="&#x101;" horiz-adv-x="1040" vert-adv-y="2130" 
d="M949 1236l-27 -171h-465l27 171h465zM521 -16q-167 0 -268 93.5t-80 226.5q22 138 162.5 233.5t319.5 95.5h189l1 7q2 69 -44.5 115.5t-130.5 46.5q-82 0 -160 -49.5t-107 -140.5h-172q32 112 109.5 196t170.5 124t187 40q172 0 256.5 -95.5t58.5 -256.5l-98 -620h-171
l7 42q-103 -58 -230 -58zM544 152q83 0 155 44.5t93 105.5l25 161h-189q-107 0 -190.5 -45.5t-93.5 -111.5q-10 -62 49 -108t151 -46z" />
    <glyph glyph-name="Abreve" unicode="&#x102;" horiz-adv-x="1640" vert-adv-y="2130" 
d="M1053 1470q-109 0 -174.5 94t-51.5 231h172q-5 -64 18.5 -108t62.5 -44q40 0 77 44t53 108h173q-31 -137 -126 -231t-204 -94zM569 367l-242 -367h-193l906 1388l467 -1388h-193l-126 367h-619zM1134 547l-156 458l-297 -458h453z" />
    <glyph glyph-name="abreve" unicode="&#x103;" horiz-adv-x="1040" vert-adv-y="2130" 
d="M685 1043q-104 0 -167.5 91.5t-50.5 223.5h170q-5 -62 16.5 -103.5t58.5 -41.5t72.5 41.5t49.5 103.5h170q-29 -132 -121.5 -223.5t-197.5 -91.5zM521 -16q-167 0 -268 93.5t-80 226.5q22 138 162.5 233.5t319.5 95.5h189l1 7q2 69 -44.5 115.5t-130.5 46.5
q-82 0 -160 -49.5t-107 -140.5h-172q32 112 109.5 196t170.5 124t187 40q172 0 256.5 -95.5t58.5 -256.5l-98 -620h-171l7 42q-103 -58 -230 -58zM544 152q83 0 155 44.5t93 105.5l25 161h-189q-107 0 -190.5 -45.5t-93.5 -111.5q-10 -62 49 -108t151 -46z" />
    <glyph glyph-name="Cacute" unicode="&#x106;" horiz-adv-x="1617" vert-adv-y="2130" 
d="M1200 1849l90 -135l-375 -269l-89 134zM844 -28q-147 0 -271.5 57t-206.5 153.5t-118.5 230.5t-12.5 282q31 198 155 364.5t305.5 262.5t377.5 96q185 0 338.5 -99.5t239.5 -274.5l-155 -103q-72 142 -192 223t-259 81q-149 0 -286.5 -73.5t-231 -200.5t-117.5 -276
q-18 -112 9.5 -214t89.5 -175.5t156.5 -117t205.5 -43.5q139 0 284 81t262 223l123 -103q-142 -175 -326.5 -274.5t-369.5 -99.5z" />
    <glyph glyph-name="cacute" unicode="&#x107;" horiz-adv-x="1158" vert-adv-y="2130" 
d="M895 1410l90 -131l-364 -260l-87 131zM597 -16q-204 0 -316.5 142.5t-78.5 358.5q23 143 102.5 258t198.5 180t253 65q121 0 223 -69t163 -193l-157 -93q-44 87 -111.5 136t-143.5 49q-130 0 -232 -95.5t-125 -237.5t49 -237.5t202 -95.5q76 0 159.5 49t154.5 136
l128 -93q-101 -124 -224.5 -192t-244.5 -68z" />
    <glyph glyph-name="Ccircumflex" unicode="&#x108;" horiz-adv-x="1617" vert-adv-y="2130" 
d="M1215 1467l-164 139l-208 -139l-89 134l334 223l260 -223zM844 -28q-147 0 -271.5 57t-206.5 153.5t-118.5 230.5t-12.5 282q31 198 155 364.5t305.5 262.5t377.5 96q185 0 338.5 -99.5t239.5 -274.5l-155 -103q-72 142 -192 223t-259 81q-149 0 -286.5 -73.5
t-231 -200.5t-117.5 -276q-18 -112 9.5 -214t89.5 -175.5t156.5 -117t205.5 -43.5q139 0 284 81t262 223l123 -103q-142 -175 -326.5 -274.5t-369.5 -99.5z" />
    <glyph glyph-name="ccircumflex" unicode="&#x109;" horiz-adv-x="1158" vert-adv-y="2130" 
d="M909 1040l-157 133l-198 -133l-90 131l323 217l252 -217zM597 -16q-204 0 -316.5 142.5t-78.5 358.5q23 143 102.5 258t198.5 180t253 65q121 0 223 -69t163 -193l-157 -93q-44 87 -111.5 136t-143.5 49q-130 0 -232 -95.5t-125 -237.5t49 -237.5t202 -95.5
q76 0 159.5 49t154.5 136l128 -93q-101 -124 -224.5 -192t-244.5 -68z" />
    <glyph glyph-name="Cdotaccent" unicode="&#x10a;" horiz-adv-x="1617" vert-adv-y="2130" 
d="M1036 1518q-44 0 -69.5 32t-18.5 76t43 76t80 32q45 0 71.5 -31.5t19.5 -76.5q-8 -45 -44.5 -76.5t-81.5 -31.5zM844 -28q-147 0 -271.5 57t-206.5 153.5t-118.5 230.5t-12.5 282q31 198 155 364.5t305.5 262.5t377.5 96q185 0 338.5 -99.5t239.5 -274.5l-155 -103
q-72 142 -192 223t-259 81q-149 0 -286.5 -73.5t-231 -200.5t-117.5 -276q-18 -112 9.5 -214t89.5 -175.5t156.5 -117t205.5 -43.5q139 0 284 81t262 223l123 -103q-142 -175 -326.5 -274.5t-369.5 -99.5z" />
    <glyph glyph-name="cdotaccent" unicode="&#x10b;" horiz-adv-x="1158" vert-adv-y="2130" 
d="M740 1091q-44 0 -70.5 30.5t-19.5 73.5t43 74.5t80 31.5q43 0 69 -31.5t19 -74.5t-42.5 -73.5t-78.5 -30.5zM597 -16q-204 0 -316.5 142.5t-78.5 358.5q23 143 102.5 258t198.5 180t253 65q121 0 223 -69t163 -193l-157 -93q-44 87 -111.5 136t-143.5 49
q-130 0 -232 -95.5t-125 -237.5t49 -237.5t202 -95.5q76 0 159.5 49t154.5 136l128 -93q-101 -124 -224.5 -192t-244.5 -68z" />
    <glyph glyph-name="Ccaron" unicode="&#x10c;" horiz-adv-x="1617" vert-adv-y="2130" 
d="M1270 1814l90 -132l-330 -225l-264 225l132 132l164 -139zM844 -28q-147 0 -271.5 57t-206.5 153.5t-118.5 230.5t-12.5 282q31 198 155 364.5t305.5 262.5t377.5 96q185 0 338.5 -99.5t239.5 -274.5l-155 -103q-72 142 -192 223t-259 81q-149 0 -286.5 -73.5
t-231 -200.5t-117.5 -276q-18 -112 9.5 -214t89.5 -175.5t156.5 -117t205.5 -43.5q139 0 284 81t262 223l123 -103q-142 -175 -326.5 -274.5t-369.5 -99.5z" />
    <glyph glyph-name="ccaron" unicode="&#x10d;" horiz-adv-x="1158" vert-adv-y="2130" 
d="M962 1378l90 -131l-322 -216l-253 216l130 131l156 -134zM597 -16q-204 0 -316.5 142.5t-78.5 358.5q23 143 102.5 258t198.5 180t253 65q121 0 223 -69t163 -193l-157 -93q-44 87 -111.5 136t-143.5 49q-130 0 -232 -95.5t-125 -237.5t49 -237.5t202 -95.5
q76 0 159.5 49t154.5 136l128 -93q-101 -124 -224.5 -192t-244.5 -68z" />
    <glyph glyph-name="Emacron" unicode="&#x112;" horiz-adv-x="1320" vert-adv-y="2130" 
d="M1166 1667l-28 -176h-483l28 176h483zM1222 175l-28 -175h-1069l220 1390h1069l-28 -175h-894l-68 -434h840l-28 -172h-840l-68 -434h894z" />
    <glyph glyph-name="emacron" unicode="&#x113;" vert-adv-y="2130" 
d="M1030 1236l-27 -171h-466l27 171h466zM597 -16q-204 0 -316.5 142.5t-78.5 358.5q35 217 192 360t362 143q134 0 231.5 -73t139 -199.5t20.5 -281.5h-779q0 -121 71 -201.5t185 -80.5q92 0 179.5 62t150.5 169l151 -57q-89 -158 -224.5 -250t-283.5 -92zM411 606h571
q-16 96 -84 154t-168 58t-186 -58t-133 -154z" />
    <glyph glyph-name="Ebreve" unicode="&#x114;" horiz-adv-x="1320" vert-adv-y="2130" 
d="M894 1470q-108 0 -174.5 94.5t-53.5 230.5h173q-5 -64 18.5 -108t63.5 -44q38 0 75.5 44t52.5 108h173q-30 -137 -125 -231t-203 -94zM1222 175l-28 -175h-1069l220 1390h1069l-28 -175h-894l-68 -434h840l-28 -172h-840l-68 -434h894z" />
    <glyph glyph-name="ebreve" unicode="&#x115;" vert-adv-y="2130" 
d="M765 1043q-104 0 -166.5 91.5t-51.5 223.5h171q-5 -61 16.5 -103t57.5 -42q38 0 73 41.5t51 103.5h169q-29 -132 -122 -223.5t-198 -91.5zM597 -16q-204 0 -316.5 142.5t-78.5 358.5q35 217 192 360t362 143q134 0 231.5 -73t139 -199.5t20.5 -281.5h-779
q0 -121 71 -201.5t185 -80.5q92 0 179.5 62t150.5 169l151 -57q-89 -158 -224.5 -250t-283.5 -92zM411 606h571q-16 96 -84 154t-168 58t-186 -58t-133 -154z" />
    <glyph glyph-name="Edotaccent" unicode="&#x116;" horiz-adv-x="1320" vert-adv-y="2130" 
d="M901 1518q-45 0 -71.5 31.5t-18.5 76.5q7 45 43.5 76.5t81.5 31.5q43 0 70 -32t20 -76t-44.5 -76t-80.5 -32zM1222 175l-28 -175h-1069l220 1390h1069l-28 -175h-894l-68 -434h840l-28 -172h-840l-68 -434h894z" />
    <glyph glyph-name="edotaccent" unicode="&#x117;" vert-adv-y="2130" 
d="M773 1091q-42 0 -68.5 30.5t-19.5 73.5t43 74.5t78 31.5q44 0 70 -31.5t19 -74.5t-42.5 -73.5t-79.5 -30.5zM597 -16q-204 0 -316.5 142.5t-78.5 358.5q35 217 192 360t362 143q134 0 231.5 -73t139 -199.5t20.5 -281.5h-779q0 -121 71 -201.5t185 -80.5q92 0 179.5 62
t150.5 169l151 -57q-89 -158 -224.5 -250t-283.5 -92zM411 606h571q-16 96 -84 154t-168 58t-186 -58t-133 -154z" />
    <glyph glyph-name="Ecaron" unicode="&#x11a;" horiz-adv-x="1320" vert-adv-y="2130" 
d="M1133 1814l91 -132l-331 -225l-265 225l135 132l163 -139zM1222 175l-28 -175h-1069l220 1390h1069l-28 -175h-894l-68 -434h840l-28 -172h-840l-68 -434h894z" />
    <glyph glyph-name="ecaron" unicode="&#x11b;" vert-adv-y="2130" 
d="M998 1378l88 -131l-323 -216l-250 216l130 131l154 -134zM597 -16q-204 0 -316.5 142.5t-78.5 358.5q35 217 192 360t362 143q134 0 231.5 -73t139 -199.5t20.5 -281.5h-779q0 -121 71 -201.5t185 -80.5q92 0 179.5 62t150.5 169l151 -57q-89 -158 -224.5 -250
t-283.5 -92zM411 606h571q-16 96 -84 154t-168 58t-186 -58t-133 -154z" />
    <glyph glyph-name="Gcircumflex" unicode="&#x11c;" horiz-adv-x="1612" vert-adv-y="2130" 
d="M1215 1467l-164 139l-208 -139l-89 134l334 223l260 -223zM844 -28q-147 0 -271.5 57t-206.5 153.5t-118.5 230.5t-12.5 282q31 198 155 364.5t305.5 262.5t377.5 96q185 0 338.5 -99.5t239.5 -274.5l-155 -103q-72 142 -192 223t-259 81q-149 0 -286.5 -73.5
t-231 -200.5t-117.5 -276q-18 -112 9.5 -214t89.5 -175.5t156.5 -117t205.5 -43.5q131 0 257.5 60.5t222.5 166.5l35 220h-556l27 174h730l-69 -446q-129 -163 -308 -255.5t-366 -92.5z" />
    <glyph glyph-name="gcircumflex" unicode="&#x11d;" horiz-adv-x="1144" vert-adv-y="2130" 
d="M795 1388l252 -217l-128 -131l-158 133l-198 -133l-90 131zM533 -374q-149 0 -250 92t-134 257h178q23 -85 84 -132t150 -47q119 0 202 69.5t102 185.5l6 36q-140 -106 -303 -106q-190 0 -295.5 142.5t-71.5 358.5t185 360.5t341 144.5q162 0 269 -110l15 95h169
l-145 -913q-31 -197 -167 -315t-335 -118zM595 149q121 0 216.5 95.5t118.5 237.5q23 143 -43 238t-187 95t-215.5 -95t-117.5 -238q-23 -142 42.5 -237.5t185.5 -95.5z" />
    <glyph glyph-name="Gbreve" unicode="&#x11e;" horiz-adv-x="1612" vert-adv-y="2130" 
d="M1029 1470q-108 0 -173.5 94t-53.5 231h174q-4 -64 19 -108t61 -44q40 0 77.5 44t53.5 108h173q-31 -137 -126 -231t-205 -94zM844 -28q-147 0 -271.5 57t-206.5 153.5t-118.5 230.5t-12.5 282q31 198 155 364.5t305.5 262.5t377.5 96q185 0 338.5 -99.5t239.5 -274.5
l-155 -103q-72 142 -192 223t-259 81q-149 0 -286.5 -73.5t-231 -200.5t-117.5 -276q-18 -112 9.5 -214t89.5 -175.5t156.5 -117t205.5 -43.5q131 0 257.5 60.5t222.5 166.5l35 220h-556l27 174h730l-69 -446q-129 -163 -308 -255.5t-366 -92.5z" />
    <glyph glyph-name="gbreve" unicode="&#x11f;" horiz-adv-x="1144" vert-adv-y="2130" 
d="M740 1043q-105 0 -168 91.5t-50 223.5h170q-5 -61 16.5 -103t58.5 -42t72 41.5t50 103.5h170q-30 -132 -122.5 -223.5t-196.5 -91.5zM533 -374q-149 0 -250 92t-134 257h178q23 -85 84 -132t150 -47q119 0 202 69.5t102 185.5l6 36q-140 -106 -303 -106
q-190 0 -295.5 142.5t-71.5 358.5t185 360.5t341 144.5q162 0 269 -110l15 95h169l-145 -913q-31 -197 -167 -315t-335 -118zM595 149q121 0 216.5 95.5t118.5 237.5q23 143 -43 238t-187 95t-215.5 -95t-117.5 -238q-23 -142 42.5 -237.5t185.5 -95.5z" />
    <glyph glyph-name="Gdotaccent" unicode="&#x120;" horiz-adv-x="1612" vert-adv-y="2130" 
d="M1036 1518q-44 0 -69.5 32t-18.5 76t43 76t80 32q45 0 71.5 -31.5t19.5 -76.5q-8 -45 -44.5 -76.5t-81.5 -31.5zM844 -28q-147 0 -271.5 57t-206.5 153.5t-118.5 230.5t-12.5 282q31 198 155 364.5t305.5 262.5t377.5 96q185 0 338.5 -99.5t239.5 -274.5l-155 -103
q-72 142 -192 223t-259 81q-149 0 -286.5 -73.5t-231 -200.5t-117.5 -276q-18 -112 9.5 -214t89.5 -175.5t156.5 -117t205.5 -43.5q131 0 257.5 60.5t222.5 166.5l35 220h-556l27 174h730l-69 -446q-129 -163 -308 -255.5t-366 -92.5z" />
    <glyph glyph-name="gdotaccent" unicode="&#x121;" horiz-adv-x="1144" vert-adv-y="2130" 
d="M748 1091q-44 0 -70 30.5t-19 73.5t43 74.5t79 31.5t69 -31.5t19 -74.5t-42 -73.5t-79 -30.5zM533 -374q-149 0 -250 92t-134 257h178q23 -85 84 -132t150 -47q119 0 202 69.5t102 185.5l6 36q-140 -106 -303 -106q-190 0 -295.5 142.5t-71.5 358.5t185 360.5t341 144.5
q162 0 269 -110l15 95h169l-145 -913q-31 -197 -167 -315t-335 -118zM595 149q121 0 216.5 95.5t118.5 237.5q23 143 -43 238t-187 95t-215.5 -95t-117.5 -238q-23 -142 42.5 -237.5t185.5 -95.5z" />
    <glyph glyph-name="Itilde" unicode="&#x128;" horiz-adv-x="446" vert-adv-y="2130" 
d="M569 1682l91 77l104 -124l-92 -76q-75 -63 -141 -63q-65 0 -120 62l-11 9l-12 -9l-86 -76l-107 122l93 77q73 63 139 63q64 0 123 -61q2 -2 4 -4.5t3.5 -4t1.5 -2.5zM530 1390l-220 -1390h-176l220 1390h176z" />
    <glyph glyph-name="itilde" unicode="&#x129;" horiz-adv-x="472" vert-adv-y="2130" 
d="M501 1241l9 9l86 76l104 -122l-91 -75q-73 -61 -136 -61t-116 61l-9 9q-3 -4 -8 -8l-88 -77l-102 122l89 75q73 60 136 60q64 0 117 -60zM474 970l-154 -970h-168l154 970h168z" />
    <glyph glyph-name="Imacron" unicode="&#x12a;" horiz-adv-x="393" vert-adv-y="2130" 
d="M702 1667l-28 -176h-483l28 176h483zM503 1390l-220 -1390h-175l220 1390h175z" />
    <glyph glyph-name="imacron" unicode="&#x12b;" horiz-adv-x="422" vert-adv-y="2130" 
d="M640 1236l-27 -171h-466l27 171h466zM451 970l-154 -970h-171l154 970h171z" />
    <glyph glyph-name="Idotaccent" unicode="&#x130;" horiz-adv-x="420" vert-adv-y="2130" 
d="M450 1518q-44 0 -70.5 32t-19.5 76t44 76t81 32t71 -32t20 -76q-8 -44 -45 -76t-81 -32zM516 1390l-220 -1390h-171l220 1390h171z" />
    <glyph glyph-name="dotlessi" unicode="&#x131;" horiz-adv-x="466" vert-adv-y="2130" 
d="M473 970l-154 -970h-171l154 970h171z" />
    <glyph glyph-name="Nacute" unicode="&#x143;" horiz-adv-x="1397" vert-adv-y="2130" 
d="M1100 1849l92 -135l-377 -269l-88 134zM448 932l-148 -932h-175l220 1388l824 -941l149 943h174l-220 -1390z" />
    <glyph glyph-name="nacute" unicode="&#x144;" horiz-adv-x="1006" vert-adv-y="2130" 
d="M831 1410l91 -131l-365 -261l-85 132zM393 611l-97 -611h-171l153 968h171l-6 -42q98 62 216 62q157 0 250 -110t68 -267l-97 -611h-171l97 611q14 86 -36.5 146.5t-135.5 60.5q-87 0 -157 -60.5t-84 -146.5z" />
    <glyph glyph-name="Ncaron" unicode="&#x147;" horiz-adv-x="1397" vert-adv-y="2130" 
d="M1170 1814l92 -132l-332 -225l-263 225l134 132l163 -139zM448 932l-148 -932h-175l220 1388l824 -941l149 943h174l-220 -1390z" />
    <glyph glyph-name="ncaron" unicode="&#x148;" horiz-adv-x="1006" vert-adv-y="2130" 
d="M898 1378l91 -131l-322 -216l-253 216l129 131l158 -134zM393 611l-97 -611h-171l153 968h171l-6 -42q98 62 216 62q157 0 250 -110t68 -267l-97 -611h-171l97 611q14 86 -36.5 146.5t-135.5 60.5q-87 0 -157 -60.5t-84 -146.5z" />
    <glyph glyph-name="Omacron" unicode="&#x14c;" horiz-adv-x="1698" vert-adv-y="2130" 
d="M1354 1667l-28 -176h-482l28 176h482zM844 -28q-147 0 -271.5 57t-206.5 153.5t-118.5 230.5t-12.5 282q31 198 155 364.5t305.5 262.5t377.5 96q148 0 273.5 -57t207.5 -153.5t118 -230.5t12 -282t-102.5 -282t-190.5 -230.5t-255.5 -153.5t-291.5 -57zM871 145
q150 0 288.5 73.5t232 200t117.5 276.5q18 112 -9.5 214t-89.5 175.5t-157.5 117t-207.5 43.5q-149 0 -286.5 -73.5t-231 -200.5t-117.5 -276q-18 -112 9.5 -214t89.5 -175.5t156.5 -117t205.5 -43.5z" />
    <glyph glyph-name="omacron" unicode="&#x14d;" vert-adv-y="2130" 
d="M1030 1236l-27 -171h-466l27 171h466zM597 -16q-204 0 -316.5 142.5t-78.5 358.5q23 143 102.5 258t198.5 180t253 65q206 0 320 -143.5t80 -359.5t-193.5 -358.5t-365.5 -142.5zM624 152q132 0 234.5 95.5t125.5 237.5t-49.5 237.5t-204.5 95.5q-130 0 -232 -95.5
t-125 -237.5t49 -237.5t202 -95.5z" />
    <glyph glyph-name="Obreve" unicode="&#x14e;" horiz-adv-x="1698" vert-adv-y="2130" 
d="M1081 1470q-109 0 -174.5 94t-51.5 231h173q-5 -64 18 -108t62 -44q40 0 77.5 44t52.5 108h174q-32 -137 -127.5 -231t-203.5 -94zM844 -28q-147 0 -271.5 57t-206.5 153.5t-118.5 230.5t-12.5 282q31 198 155 364.5t305.5 262.5t377.5 96q148 0 273.5 -57t207.5 -153.5
t118 -230.5t12 -282t-102.5 -282t-190.5 -230.5t-255.5 -153.5t-291.5 -57zM871 145q150 0 288.5 73.5t232 200t117.5 276.5q18 112 -9.5 214t-89.5 175.5t-157.5 117t-207.5 43.5q-149 0 -286.5 -73.5t-231 -200.5t-117.5 -276q-18 -112 9.5 -214t89.5 -175.5t156.5 -117
t205.5 -43.5z" />
    <glyph glyph-name="obreve" unicode="&#x14f;" vert-adv-y="2130" 
d="M765 1043q-104 0 -166.5 91.5t-51.5 223.5h171q-5 -61 16.5 -103t57.5 -42q38 0 73 41.5t51 103.5h169q-29 -132 -122 -223.5t-198 -91.5zM597 -16q-204 0 -316.5 142.5t-78.5 358.5q23 143 102.5 258t198.5 180t253 65q206 0 320 -143.5t80 -359.5t-193.5 -358.5
t-365.5 -142.5zM624 152q132 0 234.5 95.5t125.5 237.5t-49.5 237.5t-204.5 95.5q-130 0 -232 -95.5t-125 -237.5t49 -237.5t202 -95.5z" />
    <glyph glyph-name="Ohungarumlaut" unicode="&#x150;" horiz-adv-x="1698" vert-adv-y="2130" 
d="M1072 1923l130 -92l-301 -353l-131 95zM1336 1923l132 -92l-301 -353l-132 95zM844 -28q-147 0 -271.5 57t-206.5 153.5t-118.5 230.5t-12.5 282q31 198 155 364.5t305.5 262.5t377.5 96q148 0 273.5 -57t207.5 -153.5t118 -230.5t12 -282t-102.5 -282t-190.5 -230.5
t-255.5 -153.5t-291.5 -57zM871 145q150 0 288.5 73.5t232 200t117.5 276.5q18 112 -9.5 214t-89.5 175.5t-157.5 117t-207.5 43.5q-149 0 -286.5 -73.5t-231 -200.5t-117.5 -276q-18 -112 9.5 -214t89.5 -175.5t156.5 -117t205.5 -43.5z" />
    <glyph glyph-name="ohungarumlaut" unicode="&#x151;" vert-adv-y="2130" 
d="M754 1482l132 -88l-293 -344l-126 94zM1009 1482l131 -88l-293 -344l-126 94zM597 -16q-204 0 -316.5 142.5t-78.5 358.5q23 143 102.5 258t198.5 180t253 65q206 0 320 -143.5t80 -359.5t-193.5 -358.5t-365.5 -142.5zM624 152q132 0 234.5 95.5t125.5 237.5
t-49.5 237.5t-204.5 95.5q-130 0 -232 -95.5t-125 -237.5t49 -237.5t202 -95.5z" />
    <glyph glyph-name="OE" unicode="&#x152;" horiz-adv-x="2592" vert-adv-y="2130" 
d="M844 -28q-147 0 -271.5 57t-206.5 153.5t-118.5 230.5t-12.5 282q31 194 156 360t306.5 262.5t375.5 100.5q161 -1 295 -67.5t215 -182.5l35 222h1069l-28 -175h-894l-68 -434h840l-28 -172h-840l-68 -434h894l-28 -175h-1069l35 222q-119 -118 -272 -184t-317 -66z
M871 145q134 0 266.5 74t228.5 193t137 253l10 60q1 134 -57.5 253t-167.5 193t-243 74q-149 0 -286.5 -73.5t-231 -200.5t-117.5 -276q-18 -112 9.5 -214t89.5 -175.5t156.5 -117t205.5 -43.5z" />
    <glyph glyph-name="oe" unicode="&#x153;" horiz-adv-x="1985" vert-adv-y="2130" 
d="M1405 152q92 0 179.5 62t150.5 169l151 -57q-89 -158 -224.5 -250t-283.5 -92q-122 0 -214.5 54t-141.5 151q-78 -97 -189 -151t-236 -54q-204 0 -316.5 142.5t-78.5 358.5q23 143 102.5 258t198.5 180t253 65q124 0 217 -54.5t142 -151.5q79 97 189 151.5t233 54.5
q134 0 231.5 -73t139 -199.5t20.5 -281.5h-779q0 -121 71 -201.5t185 -80.5zM978 467l8 46q8 123 -66 214t-190 91q-130 0 -232 -95.5t-125 -237.5t49 -237.5t202 -95.5q118 0 219 94t135 221zM1511 818q-100 0 -186 -58t-133 -154h571q-16 96 -84 154t-168 58z" />
    <glyph glyph-name="Racute" unicode="&#x154;" horiz-adv-x="1433" vert-adv-y="2130" 
d="M1105 1849l90 -135l-375 -269l-89 134zM373 462l-73 -462h-175l220 1390h691q95 0 175 -36.5t132.5 -98.5t75.5 -148t8 -181q-24 -150 -126.5 -269.5t-247.5 -166.5l256 -490h-211l-242 462h-483zM1008 1215h-516l-91 -577h542q111 19 202.5 101.5t108.5 186.5
q19 120 -53.5 204.5t-192.5 84.5z" />
    <glyph glyph-name="racute" unicode="&#x155;" horiz-adv-x="755" vert-adv-y="2130" 
d="M708 1410l86 -132l-362 -260l-87 132zM393 611l-97 -611h-171l153 968h171l-6 -42q98 62 216 62q38 0 125 -19l-28 -178q-97 27 -122 27q-87 0 -157 -60.5t-84 -146.5z" />
    <glyph glyph-name="Rcaron" unicode="&#x158;" horiz-adv-x="1433" vert-adv-y="2130" 
d="M1175 1814l92 -132l-332 -225l-264 225l135 132l163 -139zM373 462l-73 -462h-175l220 1390h691q95 0 175 -36.5t132.5 -98.5t75.5 -148t8 -181q-24 -150 -126.5 -269.5t-247.5 -166.5l256 -490h-211l-242 462h-483zM1008 1215h-516l-91 -577h542q111 19 202.5 101.5
t108.5 186.5q19 120 -53.5 204.5t-192.5 84.5z" />
    <glyph glyph-name="rcaron" unicode="&#x159;" horiz-adv-x="824" vert-adv-y="2130" 
d="M808 1379l88 -132l-321 -216l-252 216l129 131l157 -134zM428 611l-97 -611h-172l153 968h171l-6 -42q98 62 215 62q37 0 126 -19l-28 -178q-95 27 -123 27q-86 0 -155.5 -60.5t-83.5 -146.5z" />
    <glyph glyph-name="Sacute" unicode="&#x15a;" horiz-adv-x="1398" vert-adv-y="2130" 
d="M1104 1849l92 -135l-377 -269l-88 134zM705 -28q-239 0 -384 133t-127 333h179q-11 -125 91.5 -209t267.5 -84q164 0 286.5 68.5t138.5 172.5q14 90 -77 151.5t-284 91.5q-256 39 -374 138.5t-93 256.5q27 170 196.5 282t394.5 112q145 0 257.5 -58t170 -160t46.5 -227
h-176q8 116 -84.5 194t-240.5 78q-150 0 -260.5 -62.5t-125.5 -157.5q-13 -84 71.5 -141t258.5 -82q273 -41 398.5 -145.5t99.5 -269.5q-19 -118 -108 -213.5t-226.5 -148.5t-295.5 -53z" />
    <glyph glyph-name="sacute" unicode="&#x15b;" horiz-adv-x="1079" vert-adv-y="2130" 
d="M870 1410l91 -131l-365 -260l-87 131zM541 -16q-173 0 -274.5 98.5t-88.5 251.5h170q-5 -87 62.5 -134.5t157.5 -47.5q91 0 170 35.5t89 99.5q3 18 -3.5 33t-24.5 27t-36.5 21.5t-50.5 18.5t-54 14.5t-60 14.5q-68 15 -113 28t-95 36t-77.5 50t-42 69t-6.5 95
q21 132 143 213t290 81q161 0 256.5 -95.5t84.5 -242.5h-172q4 73 -50 120.5t-140 47.5q-54 0 -104 -12t-88.5 -40.5t-45.5 -68.5q-2 -17 3 -30.5t21 -24t31.5 -18.5t44.5 -16t49 -12.5t57 -12.5q92 -19 148.5 -36.5t115 -50t81 -84t11.5 -122.5q-22 -136 -151.5 -221
t-307.5 -85z" />
    <glyph glyph-name="Scircumflex" unicode="&#x15c;" horiz-adv-x="1398" vert-adv-y="2130" 
d="M992 1824l260 -225l-133 -132l-162 138l-207 -138l-93 132zM705 -28q-239 0 -384 133t-127 333h179q-11 -125 91.5 -209t267.5 -84q164 0 286.5 68.5t138.5 172.5q14 90 -77 151.5t-284 91.5q-256 39 -374 138.5t-93 256.5q27 170 196.5 282t394.5 112q145 0 257.5 -58
t170 -160t46.5 -227h-176q8 116 -84.5 194t-240.5 78q-150 0 -260.5 -62.5t-125.5 -157.5q-13 -84 71.5 -141t258.5 -82q273 -41 398.5 -145.5t99.5 -269.5q-19 -118 -108 -213.5t-226.5 -148.5t-295.5 -53z" />
    <glyph glyph-name="scircumflex" unicode="&#x15d;" horiz-adv-x="1079" vert-adv-y="2130" 
d="M763 1388l251 -217l-130 -131l-156 133l-199 -133l-90 131zM541 -16q-173 0 -274.5 98.5t-88.5 251.5h170q-5 -87 62.5 -134.5t157.5 -47.5q91 0 170 35.5t89 99.5q3 18 -3.5 33t-24.5 27t-36.5 21.5t-50.5 18.5t-54 14.5t-60 14.5q-68 15 -113 28t-95 36t-77.5 50
t-42 69t-6.5 95q21 132 143 213t290 81q161 0 256.5 -95.5t84.5 -242.5h-172q4 73 -50 120.5t-140 47.5q-54 0 -104 -12t-88.5 -40.5t-45.5 -68.5q-2 -17 3 -30.5t21 -24t31.5 -18.5t44.5 -16t49 -12.5t57 -12.5q92 -19 148.5 -36.5t115 -50t81 -84t11.5 -122.5
q-22 -136 -151.5 -221t-307.5 -85z" />
    <glyph glyph-name="Scedilla" unicode="&#x15e;" horiz-adv-x="1398" vert-adv-y="2130" 
d="M514 -389l22 136q31 -5 62 7t50 36h-105l30 194q-184 36 -289.5 160t-89.5 294h179q-11 -125 91.5 -209t267.5 -84q164 0 286.5 68.5t138.5 172.5q14 90 -77 151.5t-284 91.5q-256 39 -374 138.5t-93 256.5q27 170 196.5 282t394.5 112q145 0 257.5 -58t170 -160
t46.5 -227h-176q8 116 -84.5 194t-240.5 78q-150 0 -260.5 -62.5t-125.5 -157.5q-13 -84 71.5 -141t258.5 -82q273 -41 398.5 -145.5t99.5 -269.5q-19 -118 -108 -213.5t-226.5 -148.5t-295.5 -53l-8 -49h118l-15 -96q-15 -93 -99 -156.5t-187 -59.5z" />
    <glyph glyph-name="scedilla" unicode="&#x15f;" horiz-adv-x="1079" vert-adv-y="2130" 
d="M356 -369l21 136q31 -5 62 7t50 36h-105l30 191q-118 32 -182 121.5t-54 211.5h170q-5 -87 62.5 -134.5t157.5 -47.5q91 0 170 35.5t89 99.5q3 18 -3.5 33t-24.5 27t-36.5 21.5t-50.5 18.5t-54 14.5t-60 14.5q-68 15 -113 28t-95 36t-77.5 50t-42 69t-6.5 95
q21 132 143 213t290 81q161 0 256.5 -95.5t84.5 -242.5h-172q4 73 -50 120.5t-140 47.5q-54 0 -104 -12t-88.5 -40.5t-45.5 -68.5q-2 -17 3 -30.5t21 -24t31.5 -18.5t44.5 -16t49 -12.5t57 -12.5q92 -19 148.5 -36.5t115 -50t81 -84t11.5 -122.5q-22 -136 -150 -220.5
t-306 -85.5l-6 -41h118l-15 -96q-15 -93 -98.5 -156.5t-186.5 -59.5z" />
    <glyph glyph-name="Scaron" unicode="&#x160;" horiz-adv-x="1398" vert-adv-y="2130" 
d="M1174 1814l91 -132l-331 -225l-264 225l136 132l162 -139zM705 -28q-239 0 -384 133t-127 333h179q-11 -125 91.5 -209t267.5 -84q164 0 286.5 68.5t138.5 172.5q14 90 -77 151.5t-284 91.5q-256 39 -374 138.5t-93 256.5q27 170 196.5 282t394.5 112q145 0 257.5 -58
t170 -160t46.5 -227h-176q8 116 -84.5 194t-240.5 78q-150 0 -260.5 -62.5t-125.5 -157.5q-13 -84 71.5 -141t258.5 -82q273 -41 398.5 -145.5t99.5 -269.5q-19 -118 -108 -213.5t-226.5 -148.5t-295.5 -53z" />
    <glyph glyph-name="scaron" unicode="&#x161;" horiz-adv-x="1079" vert-adv-y="2130" 
d="M937 1378l90 -131l-321 -216l-254 216l130 131l157 -134zM541 -16q-173 0 -274.5 98.5t-88.5 251.5h170q-5 -87 62.5 -134.5t157.5 -47.5q91 0 170 35.5t89 99.5q3 18 -3.5 33t-24.5 27t-36.5 21.5t-50.5 18.5t-54 14.5t-60 14.5q-68 15 -113 28t-95 36t-77.5 50t-42 69
t-6.5 95q21 132 143 213t290 81q161 0 256.5 -95.5t84.5 -242.5h-172q4 73 -50 120.5t-140 47.5q-54 0 -104 -12t-88.5 -40.5t-45.5 -68.5q-2 -17 3 -30.5t21 -24t31.5 -18.5t44.5 -16t49 -12.5t57 -12.5q92 -19 148.5 -36.5t115 -50t81 -84t11.5 -122.5
q-22 -136 -151.5 -221t-307.5 -85z" />
    <glyph glyph-name="Utilde" unicode="&#x168;" horiz-adv-x="1397" vert-adv-y="2130" 
d="M875 1567l-11 -8l-87 -77l-107 122l91 77q76 63 141 63q66 0 123 -62q7 -5 9 -10q1 2 11 10l90 77l104 -124l-92 -76q-76 -63 -140 -63q-66 0 -121 63q-8 8 -11 8zM1184 544l134 846h174l-134 -846q-25 -155 -122.5 -287t-241.5 -208.5t-299 -76.5q-156 0 -276.5 76.5
t-176.5 208.5t-31 287l134 846h175l-134 -846q-26 -164 72.5 -281.5t263.5 -117.5t300.5 117.5t161.5 281.5z" />
    <glyph glyph-name="utilde" unicode="&#x169;" horiz-adv-x="1006" vert-adv-y="2130" 
d="M606 1129l-87 -76l-102 122l90 75q71 60 136 60q62 0 117 -60l7 -9q4 5 10 9l85 76l105 -122l-90 -75q-74 -61 -137 -61q-62 0 -116 61l-1 1l-8 7l-2 -1q-2 -2 -4 -3.5t-3 -3.5zM766 359l96 610h171l-153 -968h-171l7 42q-97 -60 -215 -60q-157 0 -250.5 109.5
t-68.5 266.5l96 610h171l-96 -610q-14 -86 36.5 -147t137.5 -61q86 0 155.5 61t83.5 147z" />
    <glyph glyph-name="Umacron" unicode="&#x16a;" horiz-adv-x="1397" vert-adv-y="2130" 
d="M1204 1667l-28 -176h-483l28 176h483zM695 -28q-156 0 -276.5 76.5t-176.5 208.5t-31 287l134 846h175l-134 -846q-26 -164 72.5 -281.5t263.5 -117.5t300.5 117.5t161.5 281.5l134 846h174l-134 -846q-25 -155 -122.5 -287t-241.5 -208.5t-299 -76.5z" />
    <glyph glyph-name="umacron" unicode="&#x16b;" horiz-adv-x="1006" vert-adv-y="2130" 
d="M932 1236l-27 -171h-466l27 171h466zM501 -17q-157 0 -250.5 109.5t-68.5 266.5l96 610h171l-96 -610q-14 -86 36.5 -147t137.5 -61q86 0 155.5 61t83.5 147l96 610h171l-153 -968h-171l7 42q-97 -60 -215 -60z" />
    <glyph glyph-name="Ubreve" unicode="&#x16c;" horiz-adv-x="1397" vert-adv-y="2130" 
d="M932 1470q-108 0 -174.5 94.5t-54.5 230.5h175q-5 -64 18.5 -108t62.5 -44t76.5 44t52.5 108h173q-31 -137 -126 -231t-203 -94zM695 -28q-156 0 -276.5 76.5t-176.5 208.5t-31 287l134 846h175l-134 -846q-26 -164 72.5 -281.5t263.5 -117.5t300.5 117.5t161.5 281.5
l134 846h174l-134 -846q-25 -155 -122.5 -287t-241.5 -208.5t-299 -76.5z" />
    <glyph glyph-name="ubreve" unicode="&#x16d;" horiz-adv-x="1006" vert-adv-y="2130" 
d="M669 1043q-104 0 -168 91.5t-52 223.5h170q-5 -62 17.5 -103.5t59.5 -41.5t71.5 41.5t48.5 103.5h170q-29 -132 -121 -223.5t-196 -91.5zM501 -17q-157 0 -250.5 109.5t-68.5 266.5l96 610h171l-96 -610q-14 -86 36.5 -147t137.5 -61q86 0 155.5 61t83.5 147l96 610h171
l-153 -968h-171l7 42q-97 -60 -215 -60z" />
    <glyph glyph-name="Uring" unicode="&#x16e;" horiz-adv-x="1397" vert-adv-y="2130" 
d="M929 1465q-78 0 -124 56t-34 135q13 78 76.5 133t141.5 55q80 0 127 -55t34 -133q-12 -79 -77 -135t-144 -56zM949 1592q26 0 47 19t25 45q5 26 -10.5 45t-41.5 19q-27 0 -47.5 -18.5t-25.5 -45.5q-4 -27 11 -45.5t42 -18.5zM695 -28q-156 0 -276.5 76.5t-176.5 208.5
t-31 287l134 846h175l-134 -846q-26 -164 72.5 -281.5t263.5 -117.5t300.5 117.5t161.5 281.5l134 846h174l-134 -846q-25 -155 -122.5 -287t-241.5 -208.5t-299 -76.5z" />
    <glyph glyph-name="uring" unicode="&#x16f;" horiz-adv-x="1006" vert-adv-y="2130" 
d="M667 1031q-78 0 -124 56t-33 135q12 78 75.5 133t141.5 55q79 0 126.5 -55t35.5 -133q-13 -79 -78 -135t-144 -56zM687 1158q26 0 47 19t26 45q4 27 -11 45.5t-41 18.5q-27 0 -48 -19t-25 -45q-5 -27 10 -45.5t42 -18.5zM501 -17q-157 0 -250.5 109.5t-68.5 266.5l96 610
h171l-96 -610q-14 -86 36.5 -147t137.5 -61q86 0 155.5 61t83.5 147l96 610h171l-153 -968h-171l7 42q-97 -60 -215 -60z" />
    <glyph glyph-name="Uhungarumlaut" unicode="&#x170;" horiz-adv-x="1397" vert-adv-y="2130" 
d="M919 1923l133 -92l-302 -353l-131 95zM1184 1923l132 -92l-302 -353l-128 96zM695 -28q-156 0 -276.5 76.5t-176.5 208.5t-31 287l134 846h175l-134 -846q-26 -164 72.5 -281.5t263.5 -117.5t300.5 117.5t161.5 281.5l134 846h174l-134 -846q-25 -155 -122.5 -287
t-241.5 -208.5t-299 -76.5z" />
    <glyph glyph-name="uhungarumlaut" unicode="&#x171;" horiz-adv-x="1006" vert-adv-y="2130" 
d="M659 1482l127 -89l-291 -343l-127 94zM912 1482l128 -89l-292 -343l-126 94zM501 -17q-157 0 -250.5 109.5t-68.5 266.5l96 610h171l-96 -610q-14 -86 36.5 -147t137.5 -61q86 0 155.5 61t83.5 147l96 610h171l-153 -968h-171l7 42q-97 -60 -215 -60z" />
    <glyph glyph-name="Wcircumflex" unicode="&#x174;" horiz-adv-x="2226" vert-adv-y="2130" 
d="M1532 1467l-165 139l-208 -139l-88 134l331 223l263 -223zM1542 0l-256 1091l-603 -1091l-329 1388h184l219 -919l511 919h130l218 -919l514 919h183z" />
    <glyph glyph-name="wcircumflex" unicode="&#x175;" horiz-adv-x="1559" vert-adv-y="2130" 
d="M1123 1040l-157 133l-199 -133l-88 131l320 217l253 -217zM1052 0l-160 700l-383 -700l-224 970h173l120 -532l293 532h126l124 -532l289 532h173z" />
    <glyph glyph-name="Ycircumflex" unicode="&#x176;" horiz-adv-x="1589" vert-adv-y="2130" 
d="M1242 1467l-164 139l-207 -139l-89 134l331 223l262 -223zM997 537l-85 -537h-175l85 537l-463 853h215l363 -679l579 679h215z" />
    <glyph glyph-name="ycircumflex" unicode="&#x177;" horiz-adv-x="1232" vert-adv-y="2130" 
d="M836 1388l252 -217l-129 -131l-157 133l-198 -133l-91 131zM1252 970l-867 -1400h-177l339 550l-259 850h188l190 -653l398 653h188z" />
    <glyph glyph-name="Ydieresis" unicode="&#x178;" horiz-adv-x="1589" vert-adv-y="2130" 
d="M933 1489q-43 0 -70.5 32t-20.5 75q7 44 44.5 76.5t80.5 32.5q44 0 71 -32.5t20 -76.5t-44 -75.5t-81 -31.5zM1188 1489q-43 0 -70.5 32t-20.5 75q7 44 44.5 76.5t80.5 32.5q45 0 71.5 -32t19.5 -77q-7 -44 -43.5 -75.5t-81.5 -31.5zM997 537l-85 -537h-175l85 537
l-463 853h215l363 -679l579 679h215z" />
    <glyph glyph-name="Zacute" unicode="&#x179;" horiz-adv-x="1666" vert-adv-y="2130" 
d="M1236 1849l89 -135l-375 -269l-88 134zM1434 175l-28 -175h-1264l1202 1215h-875l28 175h1247l-1203 -1215h893z" />
    <glyph glyph-name="zacute" unicode="&#x17a;" horiz-adv-x="1039" vert-adv-y="2130" 
d="M850 1410l86 -132l-363 -260l-86 132zM941 171l-27 -171h-789l22 138l649 662h-509l27 170h754l-22 -137l-649 -662h544z" />
    <glyph glyph-name="Zdotaccent" unicode="&#x17b;" horiz-adv-x="1666" vert-adv-y="2130" 
d="M1072 1518q-44 0 -70 32t-19 76t43.5 76t80.5 32q45 0 71.5 -32t19.5 -76q-8 -44 -44.5 -76t-81.5 -32zM1434 175l-28 -175h-1264l1202 1215h-875l28 175h1247l-1203 -1215h893z" />
    <glyph glyph-name="zdotaccent" unicode="&#x17c;" horiz-adv-x="1039" vert-adv-y="2130" 
d="M692 1091q-43 0 -69 30.5t-19 73.5t42.5 74.5t78.5 31.5q44 0 70 -31.5t19 -74.5t-42.5 -73.5t-79.5 -30.5zM941 171l-27 -171h-789l22 138l649 662h-509l27 170h754l-22 -137l-649 -662h544z" />
    <glyph glyph-name="Zcaron" unicode="&#x17d;" horiz-adv-x="1666" vert-adv-y="2130" 
d="M1304 1814l93 -132l-334 -225l-261 225l133 132l162 -139zM1434 175l-28 -175h-1264l1202 1215h-875l28 175h1247l-1203 -1215h893z" />
    <glyph glyph-name="zcaron" unicode="&#x17e;" horiz-adv-x="1039" vert-adv-y="2130" 
d="M917 1378l88 -131l-323 -216l-251 216l129 131l156 -134zM941 171l-27 -171h-789l22 138l649 662h-509l27 170h754l-22 -137l-649 -662h544z" />
    <glyph glyph-name="circumflex" unicode="&#x2c6;" horiz-adv-x="1077" vert-adv-y="2130" 
d="M881 1040l-157 133l-198 -133l-90 130l322 217l253 -217z" />
    <glyph glyph-name="caron" unicode="&#x2c7;" horiz-adv-x="1077" vert-adv-y="2130" 
d="M934 1378l90 -130l-323 -217l-252 217l130 130l156 -134z" />
    <glyph glyph-name="breve" unicode="&#x2d8;" horiz-adv-x="1027" vert-adv-y="2130" 
d="M679 1043q-105 0 -168 91.5t-51 223.5h170q-5 -61 16.5 -102.5t59.5 -41.5q37 0 72 41.5t50 102.5h169q-29 -132 -121.5 -223.5t-196.5 -91.5z" />
    <glyph glyph-name="dotaccent" unicode="&#x2d9;" horiz-adv-x="514" vert-adv-y="2130" 
d="M430 1090q-43 0 -69.5 31t-19.5 74t43 74.5t79 31.5t69 -31.5t19 -74.5t-42.5 -74t-78.5 -31z" />
    <glyph glyph-name="ring" unicode="&#x2da;" horiz-adv-x="869" vert-adv-y="2130" 
d="M597 1031q-78 0 -124 56t-33 135q12 78 75.5 133t141.5 55q79 0 126.5 -55t35.5 -133q-13 -79 -78 -135t-144 -56zM617 1158q26 0 47 19t26 45q4 27 -11 45.5t-41 18.5q-27 0 -48 -19t-25 -45q-5 -27 10 -45.5t42 -18.5z" />
    <glyph glyph-name="tilde" unicode="&#x2dc;" horiz-adv-x="1046" vert-adv-y="2130" 
d="M797 1249l87 77l102 -122l-89 -75q-71 -60 -137 -60q-64 0 -116 60l-9 9l-9 -9l-87 -76l-102 121l89 76q69 58 136 60q65 -2 118 -60l8 -9q0 1 9 8z" />
    <glyph glyph-name="hungarumlaut" unicode="&#x2dd;" horiz-adv-x="975" vert-adv-y="2130" 
d="M642 1482l128 -90l-291 -342l-127 94zM896 1482l128 -90l-291 -342l-127 94z" />
    <glyph glyph-name="Wgrave" unicode="&#x1e80;" horiz-adv-x="2226" vert-adv-y="2130" 
d="M1296 1849l291 -270l-134 -134l-290 268zM1542 0l-256 1091l-603 -1091l-329 1388h184l219 -919l511 919h130l218 -919l514 919h183z" />
    <glyph glyph-name="wgrave" unicode="&#x1e81;" horiz-adv-x="1559" vert-adv-y="2130" 
d="M896 1410l281 -260l-131 -131l-278 259zM1052 0l-160 700l-383 -700l-224 970h173l120 -532l293 532h126l124 -532l289 532h173z" />
    <glyph glyph-name="Wacute" unicode="&#x1e82;" horiz-adv-x="2226" vert-adv-y="2130" 
d="M1485 1849l91 -136l-377 -268l-87 134zM1542 0l-256 1091l-603 -1091l-329 1388h184l219 -919l511 919h130l218 -919l514 919h183z" />
    <glyph glyph-name="wacute" unicode="&#x1e83;" horiz-adv-x="1559" vert-adv-y="2130" 
d="M1109 1410l89 -131l-364 -260l-86 131zM1052 0l-160 700l-383 -700l-224 970h173l120 -532l293 532h126l124 -532l289 532h173z" />
    <glyph glyph-name="Wdieresis" unicode="&#x1e84;" horiz-adv-x="2226" vert-adv-y="2130" 
d="M1227 1489q-43 0 -70 32t-20 75q7 44 44 76.5t80 32.5q45 0 72 -32t20 -77q-7 -44 -44 -75.5t-82 -31.5zM1483 1489q-44 0 -71 32t-20 75q7 44 44 76.5t81 32.5t71 -32.5t20 -76.5t-44 -75.5t-81 -31.5zM1542 0l-256 1091l-603 -1091l-329 1388h184l219 -919l511 919h130
l218 -919l514 919h183z" />
    <glyph glyph-name="wdieresis" unicode="&#x1e85;" horiz-adv-x="1559" vert-adv-y="2130" 
d="M827 1061q-44 0 -70 32t-19 74q7 43 42.5 73.5t79.5 30.5q43 0 69 -30.5t19 -73.5q-7 -42 -43 -74t-78 -32zM1070 1061q-42 0 -68.5 32.5t-19.5 73.5q7 43 43 73.5t78 30.5t69.5 -31t20.5 -73q-7 -41 -44 -73.5t-79 -32.5zM1052 0l-160 700l-383 -700l-224 970h173
l120 -532l293 532h126l124 -532l289 532h173z" />
    <glyph glyph-name="endash" unicode="&#x2013;" horiz-adv-x="1157" vert-adv-y="2130" 
d="M1078 613l-27 -170h-804l27 170h804z" />
    <glyph glyph-name="emdash" unicode="&#x2014;" horiz-adv-x="1679" vert-adv-y="2130" 
d="M1599 613l-27 -170h-1325l27 170h1325z" />
    <glyph glyph-name="quoteleft" unicode="&#x2018;" horiz-adv-x="578" vert-adv-y="2130" 
d="M589 1335l46 -325h-176l-79 325h209z" />
    <glyph glyph-name="quoteright" unicode="&#x2019;" horiz-adv-x="562" vert-adv-y="2130" 
d="M626 1335l-180 -325h-177l148 325h209z" />
    <glyph glyph-name="quotesinglbase" unicode="&#x201a;" horiz-adv-x="586" vert-adv-y="2130" 
d="M469 344l-180 -325h-177l148 325h209z" />
    <glyph glyph-name="quotedblleft" unicode="&#x201c;" horiz-adv-x="708" vert-adv-y="2130" 
d="M463 1355l69 -295h-167l-41 295h139zM651 1355l69 -295h-167l-41 295h139z" />
    <glyph glyph-name="quotedblright" unicode="&#x201d;" horiz-adv-x="692" vert-adv-y="2130" 
d="M578 1352l-163 -295h-139l135 295h167zM766 1352l-163 -295h-139l135 295h167z" />
    <glyph glyph-name="quotedblbase" unicode="&#x201e;" horiz-adv-x="718" vert-adv-y="2130" 
d="M414 317l-163 -295h-139l135 295h167zM602 317l-163 -295h-139l135 295h167z" />
    <glyph glyph-name="dagger" unicode="&#x2020;" horiz-adv-x="843" vert-adv-y="2130" 
d="M656 939l-66 -417h-171l66 417h-177l27 170h177l35 226h171l-35 -226h177l-27 -170h-177z" />
    <glyph glyph-name="daggerdbl" unicode="&#x2021;" horiz-adv-x="851" vert-adv-y="2130" 
d="M547 226l-36 -226h-171l36 226h-177l27 170h177l86 543h-177l27 170h177l35 226h171l-35 -226h177l-27 -170h-177l-86 -543h177l-27 -170h-177z" />
    <glyph glyph-name="bullet" unicode="&#x2022;" horiz-adv-x="783" vert-adv-y="2130" 
d="M473 513q-65 0 -102.5 45t-27.5 110q10 64 62.5 109t116.5 45t102.5 -45t28.5 -109q-10 -65 -63 -110t-117 -45z" />
    <glyph glyph-name="ellipsis" unicode="&#x2026;" horiz-adv-x="1087" vert-adv-y="2130" 
d="M265 0q-43 0 -69.5 31.5t-19.5 74.5q7 42 43 72.5t79 30.5t68.5 -30t18.5 -73t-42.5 -74.5t-77.5 -31.5zM543 0q-44 0 -69.5 31.5t-18.5 74.5t42 73t79 30t70 -30t19 -73t-43 -74.5t-79 -31.5zM818 0q-42 0 -68 31.5t-19 74.5t42.5 73t77.5 30q43 0 70 -30.5t20 -72.5
q-7 -43 -43.5 -74.5t-79.5 -31.5z" />
    <glyph glyph-name="guilsinglleft" unicode="&#x2039;" horiz-adv-x="849" vert-adv-y="2130" 
d="M457 493l257 -304l-142 -120l-355 424l489 422l104 -121z" />
    <glyph glyph-name="guilsinglright" unicode="&#x203a;" horiz-adv-x="849" vert-adv-y="2130" 
d="M433 915l356 -422l-491 -424l-101 120l350 304l-254 301z" />
    <glyph glyph-name="fraction" unicode="&#x2044;" horiz-adv-x="1493" vert-adv-y="2130" 
d="M1545 1365l96 -114l-1482 -1281l-97 115z" />
    <glyph glyph-name="Euro" unicode="&#x20ac;" horiz-adv-x="1385" vert-adv-y="1700" 
d="M775 -28q-185 0 -305.5 117.5t-150.5 318.5h-117l27 172h86q1 41 9 88t19 89h-86l27 170h117q93 205 250.5 321t344.5 116q124 0 228.5 -64t181.5 -186l-141 -119q-124 198 -297 198q-116 0 -218.5 -70.5t-171.5 -195.5h510l-27 -170h-547q-8 -29 -18 -89q-9 -54 -10 -88
h547l-27 -172h-510q29 -124 109.5 -194.5t196.5 -70.5q173 0 359 198l105 -118q-239 -251 -491 -251z" />
    <glyph glyph-name="trademark" unicode="&#x2122;" horiz-adv-x="1281" vert-adv-y="2130" 
d="M996 958l27 164l-157 -168l-103 168l-26 -164h-113l49 313h-91l-49 -313h-117l49 313h-147l18 109h432l129 -229l204 237h77l-68 -430h-114z" />
    <glyph glyph-name="minus" unicode="&#x2212;" horiz-adv-x="1155" vert-adv-y="2130" 
d="M1072 701l-27 -171h-768l27 171h768z" />
    <glyph glyph-name="uniF8FF" unicode="&#xf8ff;" horiz-adv-x="1980" vert-adv-y="2130" 
d="M1860 1615v-1869h-1740v1869h1740zM1266 1384h-890v-1194h203v344h687v183h-687v491h687v176zM1398 375h-685v-185h888v1194h-203v-334h-685v-190h685v-485zM559 -2q30 0 50.5 19.5t20.5 49.5t-20.5 49.5t-50.5 19.5t-51 -19.5t-21 -49.5t21 -49.5t51 -19.5zM1095 -2
q22 0 37.5 11t15.5 30q0 14 -6 22q-4 6 -15 13q-9 5 -24 8q-25 5 -25 16q0 9 14 9q17 0 43 -14l13 28q-28 15 -53 15q-22 0 -37.5 -10.5t-15.5 -31.5q0 -13 6 -20q3 -6 15 -12l24 -8l9 -3q8 -3 13 -5q3 -3 3 -8q0 -6 -6 -8q-6 -3 -11 -3q-27 0 -48 21l-14 -28q27 -22 62 -22
zM1402 -2q29 0 56 25l-21 21q-15 -15 -32 -15q-21 0 -31 19q-5 6 -5 16q0 20 10 31t25 11q22 0 33 -18l20 25q-20 23 -52 23q-31 0 -51.5 -19.5t-20.5 -49.5q0 -29 20 -49t49 -20zM480 134h-99v-134h35v48h58v28h-58v30h64v28zM678 134h-31v-134h33v80l60 -80h29v134h-32
l1 -81zM785 105h39v-105h33v105h41v29h-113v-29zM976 134h-35l-56 -134h34l10 23h57l9 -23h37zM1154 105h39v-105h35v105h40v29h-114v-29zM1316 134h-34v-134h34v134zM1550 134h-36l-57 -134h36l8 23h59l8 -23h37zM559 28q-16 0 -26 11.5t-10 27.5t10 27.5t26 11.5
q23 0 31 -20q4 -10 4 -19q0 -16 -10 -27.5t-25 -11.5zM959 98l17 -48h-37zM1530 98l19 -48h-37zM671 -342v-69h-23v69h-13v12l13 6v6q0 15 7 22q7 6 23 6q13 0 22 -3l-6 -18q-4 2 -13 2q-5 0 -7 -3q-3 -2 -3 -7v-5h21v-18h-21zM1233 -314q-12 0 -12 12t12 12q13 0 13 -12
q0 -6 -3 -9t-10 -3zM938 -412q-14 0 -21 6q-6 8 -6 22v42h-11v10l12 8l7 19h16v-19h24v-18h-24v-42q0 -3 2 -7q4 -2 8 -2q3 0 15 2v-18q-9 -3 -22 -3zM1183 -412q-15 0 -21 6q-7 7 -7 22v42h-12v10l14 8l7 19h14v-19h25v-18h-25v-42q0 -4 4 -7q4 -2 7 -2t15 2v-18
q-9 -3 -21 -3zM998 -412q-12 0 -19 6q-8 8 -8 21q0 14 11 21q8 6 29 7h14v4q0 13 -13 13q-10 0 -24 -6l-8 16q16 8 33 8q16 0 27 -8q9 -8 9 -23v-58h-17l-4 11h-1q-8 -8 -12 -10t-17 -2zM1373 -412q-13 0 -20 6q-7 7 -7 21t10 21q8 5 29 7h15v4q0 13 -13 13q-11 0 -25 -6
l-8 16q16 8 34 8q15 0 26 -8q9 -8 9 -23v-58h-17l-4 11h-1q-5 -7 -11 -10q-4 -2 -17 -2zM742 -412q-13 0 -22 5q-9 4 -15 16q-5 12 -5 23q0 20 11 34q11 11 31 11q14 0 22 -5q10 -4 16 -16q5 -10 5 -24q0 -20 -12 -33q-10 -11 -31 -11zM827 -371v-40h-24v87h19l3 -11h1
q5 7 12 9q6 3 15 3q16 0 23 -8q8 -8 8 -23v-57h-24v51q0 10 -3 14t-11 4q-10 0 -14 -6q-5 -8 -5 -23zM1097 -412q-12 0 -16 1l-12 3v20q2 -1 7 -2.5t7 -2.5l15 -3q13 0 13 8q0 3 -2 5l-6 4q-1 0 -5 2t-7 3q-7 2 -14 7q-5 5 -6 9q-2 3 -2 11q0 13 8 18q9 6 26 6t30 -6l-7 -18
l-12 5q-4 1 -12 1q-11 0 -11 -5q0 -4 4 -5q5 -3 15 -7l15 -7l7 -9q2 -6 2 -11q0 -13 -9 -21q-11 -6 -28 -6zM1305 -412q-41 0 -41 43q0 21 12 35q10 11 31 11q15 0 27 -5l-6 -19q-3 1 -7 3l-4 1q-1 0 -4.5 0.5t-5.5 0.5q-18 0 -18 -26q0 -25 18 -25q5 0 13 2q6 2 12 5v-20
q-2 -2 -12 -5q-4 -1 -15 -1zM1528 -412q-40 0 -40 43q0 24 10 35q11 11 33 11q13 0 26 -5l-7 -19l-10 4q-2 0 -5 0.5t-4 0.5q-19 0 -19 -26q0 -25 19 -25q4 0 12 2q6 1 11 5v-20q-3 -3 -11 -5q-4 -1 -15 -1zM1611 -412q-13 0 -21 5q-11 5 -15 16q-5 9 -5 23q0 21 10 34
q11 11 31 11q15 0 23 -5q11 -6 15 -16q5 -10 5 -24q0 -20 -12 -33q-10 -11 -31 -11zM1697 -371v-40h-24v87h18l3 -11h2q3 7 10 9q6 3 15 3q20 0 26 -12h2q5 6 10 9q7 3 18 3q14 0 21 -7t7 -24v-57h-24v51q0 10 -3 14t-10 4q-8 0 -13 -6q-4 -5 -4 -20v-43h-24v51q0 10 -3 14
t-10 4q-9 0 -13 -6q-4 -7 -4 -23zM245 -343l-15 -68h-26l-24 87h23l10 -38q1 -2 5 -29q0 6 3 18l1 8l11 41h27l9 -41q1 -2 1 -6q0 -1 1 -3.5t1 -3.5q0 -5 1 -7v-6h1q0 3 2 15l2 14l12 38h23l-25 -87h-26l-7 30l-9 38h-1zM382 -343l-17 -68h-24l-25 87h23l10 -38q4 -16 5 -29
h1q0 2 2 18l1 8l12 41h25l11 -41q0 -4 1 -6l1 -7q0 -2 0.5 -4t0.5 -3q0 -2 0.5 -3.5t0.5 -2.5q0 3 2 15q1 3 2 8t1 6l10 38h23l-25 -87h-26l-6 30zM518 -343l-16 -68h-26l-25 87h24l11 -38q0 -2 1.5 -12t2.5 -17h1q0 6 3 18l1 8l10 41h26l10 -41q0 -1 0.5 -3t0.5 -3t1 -3.5
t1 -3.5q1 -3 1 -7q1 -3 1 -6l3 15l2 14l10 38h24l-25 -87h-26l-7 30l-8 38h-1zM1245 -324v-87h-23v87h23zM742 -393q10 0 14 6q4 5 4 19q0 15 -4 20q-4 6 -14 6t-13 -6q-4 -5 -4 -20q0 -12 4 -19q3 -6 13 -6zM1611 -393q11 0 14 6q4 5 4 19q0 15 -4 20q-3 6 -14 6
q-9 0 -13 -6q-4 -5 -4 -20q0 -12 4 -19q4 -6 13 -6zM1008 -396q5 0 13 6q4 4 4 12v7h-8q-13 -2 -16 -4q-5 -3 -5 -10q0 -11 12 -11zM1381 -396q8 0 14 6q5 5 5 12v7h-9q-12 -2 -16 -4q-5 -3 -5 -10q0 -11 11 -11zM609 -413q-5 0 -11 3q-3 4 -3 10q0 7 3 10q6 3 11 3
q7 0 10 -3t3 -10q0 -6 -3 -10q-5 -3 -10 -3zM1458 -413q-6 0 -10 3q-3 5 -3 10q0 7 3 10t10 3q6 0 10 -3q4 -4 4 -10q0 -4 -4 -10q-5 -3 -10 -3z" />
    <glyph glyph-name="_Fontastica" horiz-adv-x="1458" vert-adv-y="2130" 
d="M322 521v-340h-196q-3 0 -4.5 2t-1.5 4v2v1178h884v-174h-682v-490h682v-182h-682zM1338 1367v-1186h-884v184h682v482h-682v188h682v332h202zM836 -1q-35 0 -61 21l14 28q7 -8 21.5 -14.5t24.5 -6.5q8 0 14 3q5 2 5 8q0 5 -4 8q-11 6 -22 9q-18 5 -24 8q-9 3 -14 10
q-6 8 -6 20q0 22 15.5 32.5t36.5 10.5q26 0 53 -15l-13 -28q-23 14 -41 14q-15 0 -15 -9q0 -10 24 -17q19 -4 24 -7q11 -7 15 -12q6 -9 6 -22q0 -20 -15.5 -30.5t-37.5 -10.5zM302 -2q-30 0 -50.5 19.5t-20.5 49.5t20.5 49t50.5 19t50.5 -19t20.5 -49t-20 -49.5t-51 -19.5z
M1143 -2q-29 0 -48.5 20t-19.5 49q0 30 20 49t50 19q33 0 53 -23l-20 -24q-13 18 -33 18q-15 0 -25.5 -10.5t-10.5 -29.5q0 -10 5 -18q12 -19 32 -19q19 0 32 15l21 -21q-27 -25 -56 -25zM159 48v-47h-34v132h99v-27h-65v-30h59v-28h-59zM423 80v-79h-33v132h30l61 -79
l-1 79h33v-132h-30zM600 105v-104h-33v104h-40v28h114v-28h-41zM671 24l-9 -23h-35l56 132h35l56 -132h-36l-10 23h-57zM970 105v-104h-36v104h-38v28h112v-28h-38zM1057 133v-132h-34v132h34zM1242 24l-9 -23h-35l56 132h36l55 -132h-37l-9 23h-57zM302 27q16 0 26 12
t10 27q0 5 -5 20q-7 20 -30 20q-16 0 -26.5 -11.5t-10.5 -27.5t10.5 -28t25.5 -12zM717 50l-16 48l-20 -48h36zM1289 50l-18 48l-18 -48h36z" />
    <glyph glyph-name="_VendorID" horiz-adv-x="1123" vert-adv-y="2130" 
d="M779 772q-104 0 -168 53.5t-53 127.5h73q-16 -44 29.5 -78.5t118.5 -34.5q62 0 105 26.5t43 65.5q0 68 -155 91q-99 15 -150 54.5t-51 98.5q0 66 58 109.5t145 43.5q96 0 158 -51.5t50 -122.5h-74q17 40 -24.5 72.5t-109.5 32.5q-56 0 -94.5 -24t-38.5 -58q0 -66 140 -86
q106 -15 161.5 -56t55.5 -104q0 -69 -62.5 -114.5t-156.5 -45.5zM190 1016v-233h-70v535h413v-69h-343v-164h323v-69h-323zM780 143q-103 0 -168 53t-54 128h73q-16 -43 29.5 -77t118.5 -34q62 0 105 25.5t43 63.5q0 70 -152 93q-100 14 -152 53.5t-52 99.5q0 66 58.5 109.5
t145.5 43.5q96 0 157 -51.5t50 -122.5h-74q17 40 -24.5 72.5t-108.5 32.5q-56 0 -95 -24t-39 -59q0 -64 139 -84q218 -32 218 -162q0 -69 -62 -114.5t-156 -45.5zM190 387v-233h-70v535h413v-68h-343v-164h323v-70h-323zM392 98v-37h-12v37h-7v7l7 3v3q0 8 5 11q0 4 11 4
q9 0 13 -2l-4 -10q-3 1 -8 1q-3 0 -4 -1q-1 -2 -1 -4v-2h11v-10h-11zM695 113q-7 0 -7 6q0 7 7 7t7 -7q0 -4 -1 -5q-1 0 -3 -0.5t-3 -0.5zM536 60q-6 0 -12 4q-4 4 -4 12v22h-4v5l5 5l5 9h8v-9h13v-10h-13v-22q0 -2 2 -4q2 -1 4 -1q1 0 3.5 0.5t4.5 0.5v-10q-8 -2 -12 -2z
M668 60q-8 0 -12 4q-3 2 -3 12v22h-7v5l7 5l4 9h8v-9h14v-10h-14v-22q0 -3 2 -4l4 -1l8 1v-10q-4 -2 -11 -2zM568 60q-4 0 -10 4q-5 3 -5 11q0 7 7 11q2 2 16 4h6v2q0 7 -6 7t-13 -3l-5 9q12 4 19 4q4 0 14 -4q4 -4 4 -13v-31h-9l-2 5h-1q-1 0 -2.5 -2t-2.5 -2q-2 -2 -10 -2
zM771 60q-4 0 -12 4q-4 3 -4 11q0 7 6 11q1 2 16 4h8v2q0 7 -7 7q-6 0 -15 -3l-3 9q10 4 18 4q4 0 14 -4q5 -4 5 -13v-31h-10l-1 5h-1l-6 -4q-2 -2 -8 -2zM944 82v-21h-12v47h9l2 -6h1q1 2 4 4t9 2q12 0 15 -6h1q2 4 5 4q6 2 8 2q9 0 12 -3q5 -4 5 -14v-30h-13v28q0 3 -2 7
q-2 2 -6 2t-7 -3q-2 -4 -2 -11v-23h-13v28q0 3 -2 7q-1 2 -4 2q-6 0 -8 -3q-2 -6 -2 -13zM163 97l-8 -36h-14l-13 47h13l5 -20l3 -16q0 5 1 8l1 6l5 22h15l5 -22q1 -2 1 -4v-4q0 -1 1 -3v-3q0 3 2 7q0 2 0.5 5t0.5 4l7 20h12l-13 -47h-15l-4 16l-4 20h-1zM237 97l-10 -36
h-12l-14 47h13l5 -20q2 -12 2 -16h1q0 1 0.5 3.5t0.5 4.5l1 6l6 22h13l7 -22v-8v-1q1 -1 1 -2v-3q0 3 2 7q0 7 1 9l5 20h14l-15 -47h-13l-4 16zM310 97l-10 -36h-13l-12 47h12l5 -20q0 -3 1 -8t1 -8h1q0 2 2 8l1 6l4 22h16l4 -22v-2l1 -2q0 -1 1 -2v-2v-3q1 -2 1 -3q0 5 1 7
q0 2 0.5 5t0.5 4l7 20h12l-13 -47h-14l-4 16l-4 20h-1zM430 60q-7 0 -12 4q-4 1 -8 8q-1 4 -1 12q0 13 5 19q7 5 16 5t13 -2q6 -4 8 -9q2 -8 2 -13q0 -9 -6 -18q-5 -6 -17 -6zM477 82v-21h-14v47h10l2 -6h1q2 4 6 4q2 2 8 2q9 0 12 -4q5 -2 5 -13v-30h-13v28q0 5 -1 7
q-4 2 -8 2q-3 0 -6 -3q-2 -3 -2 -13zM621 60q-6 0 -8 1q-1 1 -3.5 1t-3.5 1v10q1 0 4 -0.5t4 -1.5q4 -2 7 -2q8 0 8 4v4q-2 0 -4 1q-1 0 -7 2t-6 4q-4 4 -4 5q-2 2 -2 6q0 7 6 10q3 3 13 3t16 -3l-4 -10q-1 1 -4 2l-3 1h-6q-6 0 -6 -2q0 -3 1 -3l10 -4l8 -3q1 -2 2.5 -3.5
t1.5 -2.5v-5q0 -8 -4 -11q-8 -4 -16 -4zM702 108v-47h-13v47h13zM734 60q-22 0 -22 23q0 12 5 20q7 5 18 5q8 0 14 -2l-3 -11q-4 2 -6 2q-1 0 -2 0.5t-3 0.5q-10 0 -10 -14q0 -13 10 -13q1 0 3 0.5t4 0.5q3 0 6 3v-11l-6 -3q-3 -1 -8 -1zM853 60q-21 0 -21 23q0 13 6 20
q7 5 17 5q3 0 15 -2l-5 -11q-2 2 -5 2q-1 0 -3 1h-2q-10 0 -10 -14q0 -13 10 -13q1 0 3 1h3q4 0 7 3v-11q-1 -1 -7 -3q-1 -1 -8 -1zM897 60q-7 0 -10 4q-7 2 -8 8q-3 6 -3 12q0 11 5 19q7 5 16 5q11 0 13 -2q7 -3 9 -9q2 -4 2 -13q0 -10 -7 -18q-6 -6 -17 -6zM430 71
q5 0 8 3q2 3 2 10q0 8 -2 11q-3 3 -8 3q-6 0 -7 -3q-2 -3 -2 -11q0 -7 2 -10q1 -3 7 -3zM897 71q7 0 9 3t2 10q0 8 -2 11t-9 3q-3 0 -6 -3q-2 -3 -2 -11q0 -7 2 -10q3 -3 6 -3zM574 69q3 0 6 3q2 4 2 6v4h-3q-8 -2 -10 -3q-1 0 -1 -4q0 -6 6 -6zM775 69l6 3q4 4 4 6v4h-6
q-5 -1 -7 -3q-3 0 -3 -4q0 -6 6 -6zM359 60q-4 0 -7 2v2l-1 2l1 6q6 2 7 2q3 0 5 -2q2 0 2 -6l-2 -4q-2 -2 -5 -2zM815 60q-3 0 -4 2l-2 4q0 6 2 6q2 2 4 2q3 0 7 -2q1 -3 1 -6l-1 -2v-2q-2 -2 -7 -2z" />
    </font>
</defs>
</svg>
