<?xml version="1.0" standalone="no"?>
<!DOCTYPE svg PUBLIC "-//W3C//DTD SVG 1.1//EN" "http://www.w3.org/Graphics/SVG/1.1/DTD/svg11.dtd" >
<svg xmlns="http://www.w3.org/2000/svg" xmlns:xlink="http://www.w3.org/1999/xlink" version="1.1">
<metadata>
Created by FontForge 20170731 at Wed Oct 20 22:58:10 2021
 By Aleksey,,,
Copyright (c) 2021 by Fontastica. All rights reserved.
</metadata>
<defs>
<font id="EinerGrotesk-LightItalic" horiz-adv-x="1383" vert-adv-y="2048" >
  <font-face 
    font-family="Einer Grotesk Light"
    font-weight="300"
    font-style="italic"
    font-stretch="normal"
    units-per-em="2048"
    panose-1="0 0 4 0 0 0 0 0 0 0"
    ascent="1638"
    descent="-410"
    x-height="969"
    cap-height="1390"
    bbox="45 -430 2740 1939"
    underline-thickness="50"
    underline-position="-150"
    slope="-9"
    unicode-range="U+000D-F8FF"
  />
<missing-glyph horiz-adv-x="1446" vert-adv-y="2130" 
d="M1433 1396l-222 -1402h-978l222 1402h978zM1241 1283h-630l240 -476zM1265 1128l-355 -433l217 -435zM757 695l-219 432l-137 -865zM1055 109l-238 474l-390 -474h628z" />
    <glyph glyph-name="t_t.liga" unicode="tt" horiz-adv-x="1200" vert-adv-y="2130" 
d="M624 105l-17 -107q-131 8 -208 94.5t-58 204.5l90 567h-169l17 106h169l66 418h106l-66 -418h363l66 418h106l-66 -418h187l-17 -106h-187l-90 -567q-12 -76 39 -131.5t138 -60.5l-17 -107q-131 8 -208 94.5t-58 204.5l90 567h-363l-90 -567q-12 -76 39 -131.5t138 -60.5
z" />
    <glyph glyph-name=".notdef" horiz-adv-x="1446" vert-adv-y="2130" 
d="M1433 1396l-222 -1402h-978l222 1402h978zM1241 1283h-630l240 -476zM1265 1128l-355 -433l217 -435zM757 695l-219 432l-137 -865zM1055 109l-238 474l-390 -474h628z" />
    <glyph glyph-name=".null" horiz-adv-x="0" vert-adv-y="0" 
 />
    <glyph glyph-name="nonmarkingreturn" horiz-adv-x="682" 
 />
    <glyph glyph-name="CR" unicode="&#xd;" horiz-adv-x="314" vert-adv-y="2130" 
 />
    <glyph glyph-name="space" unicode=" " horiz-adv-x="526" vert-adv-y="2130" 
 />
    <glyph glyph-name="exclam" unicode="!" horiz-adv-x="517" vert-adv-y="2130" 
d="M450 834l-94 -496h-87l63 496l84 531h118zM259 0q-31 0 -49.5 22t-13.5 53q4 30 30 52t57 22q30 0 48.5 -22t13.5 -52q-5 -31 -30.5 -53t-55.5 -22z" />
    <glyph glyph-name="quotedbl" unicode="&#x22;" horiz-adv-x="614" vert-adv-y="2130" 
d="M501 1365l-46 -294h-106l46 294h106zM652 1365l-46 -294h-107l46 294h107z" />
    <glyph glyph-name="numbersign" unicode="#" horiz-adv-x="1651" vert-adv-y="2130" 
d="M681 394l-105 -394h-107l106 394h-374l28 106h375l98 363h-374l27 105h375l109 397h106l-108 -397h344l109 397h105l-107 -397h375l-27 -105h-376l-99 -363h375l-28 -106h-377l-104 -394h-107l106 394h-345zM1153 863h-345l-98 -363h345z" />
    <glyph glyph-name="dollar" unicode="$" horiz-adv-x="1283" vert-adv-y="2130" 
d="M690 -27l-29 -184h-106l29 183q-207 12 -334.5 128t-111.5 279h109q-10 -121 89.5 -206.5t263.5 -94.5l92 579q-223 43 -327.5 135.5t-82.5 229.5q24 154 170.5 257t356.5 114l28 182h106l-29 -183q186 -15 299 -124.5t99 -260.5h-110q10 108 -76.5 186.5t-227.5 92.5
l-86 -538q243 -43 350.5 -139.5t83.5 -245.5q-25 -159 -180 -267.5t-376 -122.5zM709 764l83 522q-163 -8 -274 -81t-128 -183q-15 -96 65 -161.5t254 -96.5zM796 641l-90 -563q173 13 293.5 92t138.5 193q16 101 -70.5 171t-271.5 107z" />
    <glyph glyph-name="percent" unicode="%" horiz-adv-x="1582" vert-adv-y="2130" 
d="M1653 1365l-1369 -1365h-139l1368 1365h140zM562 883q-100 0 -159.5 70.5t-43.5 170.5q16 99 97.5 170t181.5 71t159 -71t43 -170q-16 -100 -97 -170.5t-181 -70.5zM578 988q55 0 101.5 40t55.5 96q9 55 -24.5 95t-89.5 40t-101.5 -39.5t-54.5 -95.5t24 -96t89 -40z
M1160 0q-99 0 -159 71t-44 170t98 170t181 71t159 -71t44 -170t-98 -170t-181 -71zM1177 106q55 0 101 39.5t55 95.5t-24.5 95.5t-88.5 39.5q-56 0 -102 -40t-55 -95t24.5 -95t89.5 -40z" />
    <glyph glyph-name="ampersand" unicode="&#x26;" horiz-adv-x="1399" vert-adv-y="2130" 
d="M650 -11q-65 0 -124.5 12.5t-112 39.5t-88.5 66.5t-52 98.5t-5 130q36 232 343 380q-75 93 -103.5 169t-15.5 155q22 140 137.5 232t272.5 92q91 0 165 -36t113 -107t25 -163q-38 -236 -405 -370l341 -357q68 85 113 200h110q-62 -169 -152 -273l205 -216l-158 -5
l-128 136q-100 -89 -225 -136.5t-256 -47.5zM725 756l144 62q192 82 215 231q16 98 -39.5 156t-160.5 58q-108 0 -182.5 -60.5t-91.5 -167.5q-8 -50 4.5 -94t53.5 -106q28 -43 57 -79zM655 90q110 0 217 41t190 115l-375 398q-138 -57 -211.5 -130t-88.5 -169
q-19 -117 53 -186t215 -69z" />
    <glyph glyph-name="quotesingle" unicode="'" horiz-adv-x="476" vert-adv-y="2130" 
d="M546 1364l-152 -273h-112l125 273h139z" />
    <glyph glyph-name="parenleft" unicode="(" horiz-adv-x="591" vert-adv-y="2130" 
d="M461 -161l-11 -67q-87 13 -144 142.5t-67.5 327t24.5 441.5q37 234 114.5 439t173.5 331t187 140l-10 -68q-99 -19 -202 -260.5t-157 -581.5q-54 -341 -27.5 -582.5t119.5 -261.5z" />
    <glyph glyph-name="parenright" unicode=")" horiz-adv-x="591" vert-adv-y="2130" 
d="M69 -228l11 67q66 13 135.5 127.5t128.5 303.5t95 413q36 223 36.5 412t-33 303.5t-95.5 126.5l10 68q88 -14 144.5 -142.5t67 -326t-24.5 -441.5q-37 -234 -114 -439.5t-173 -332t-188 -139.5z" />
    <glyph glyph-name="asterisk" unicode="*" horiz-adv-x="768" vert-adv-y="2130" 
d="M601 1078l-20 -127h-91l20 127l-120 -63l-34 78l121 65l-100 64l58 78l100 -63l20 128h91l-20 -128l119 63l35 -78l-122 -64l101 -65l-59 -78z" />
    <glyph glyph-name="plus" unicode="+" horiz-adv-x="1076" vert-adv-y="2130" 
d="M679 554l-54 -342h-106l54 342h-342l17 106h342l54 342h106l-54 -342h342l-17 -106h-342z" />
    <glyph glyph-name="comma" unicode="," horiz-adv-x="502" vert-adv-y="2130" 
d="M368 160l-152 -272h-112l125 272h139z" />
    <glyph glyph-name="hyphen" unicode="-" horiz-adv-x="1010" vert-adv-y="2130" 
d="M919 594l-17 -106h-640l17 106h640z" />
    <glyph glyph-name="period" unicode="." horiz-adv-x="481" vert-adv-y="2130" 
d="M241 7q-31 0 -49.5 22t-13.5 52q4 31 30 53t57 22q30 0 48.5 -22t13.5 -53q-5 -30 -30.5 -52t-55.5 -22z" />
    <glyph glyph-name="slash" unicode="/" horiz-adv-x="915" vert-adv-y="2130" 
d="M1010 1440l-778 -1516h-113l778 1516h113z" />
    <glyph glyph-name="zero" unicode="0" horiz-adv-x="1389" vert-adv-y="2130" 
d="M694 0q-90 0 -166 25t-130.5 70.5t-94 109.5t-58 141t-23 165t12.5 183q23 143 80.5 268.5t142.5 220.5t203 150t253 55q91 0 167 -25t130.5 -70.5t94.5 -109.5t58.5 -141t23 -165t-12.5 -183q-23 -143 -80.5 -268.5t-143 -220.5t-204 -150t-253.5 -55zM710 103
q112 0 209 47.5t167 129.5t116.5 188t65.5 226q13 95 10.5 182t-30.5 162t-72.5 130t-116 86t-161.5 31q-111 0 -208.5 -48t-167 -130t-116 -187.5t-65.5 -225.5q-13 -96 -10.5 -183t30.5 -161.5t72.5 -129.5t115.5 -86t161 -31z" />
    <glyph glyph-name="one" unicode="1" horiz-adv-x="664" vert-adv-y="2130" 
d="M759 1388l-220 -1388h-106l198 1247l-256 -182l-61 77l349 246h96z" />
    <glyph glyph-name="two" unicode="2" horiz-adv-x="1237" vert-adv-y="2130" 
d="M1130 107l-17 -107h-988l15 92q9 55 29 106.5t53.5 97.5t69 85.5t87.5 78.5t95 69t106.5 65.5t107 58.5t110.5 57l45 22q63 32 93.5 48t73.5 41.5t63.5 42.5t43.5 41t33.5 48.5t15.5 54.5q11 68 -14 122t-75.5 86.5t-115 49t-137.5 16.5q-98 0 -187.5 -30t-158.5 -94.5
t-88 -153.5h-106q25 123 111.5 211.5t200 130t241.5 42.5h6q78 0 147 -14.5t126.5 -45t96.5 -74.5t55.5 -107t4.5 -138q-11 -68 -37.5 -117.5t-97.5 -101t-124 -81t-193 -100.5q-16 -9 -25 -13q-61 -31 -96 -49.5t-96 -53.5t-99 -62t-86.5 -67t-79 -77.5t-56 -84.5
t-35.5 -95h882z" />
    <glyph glyph-name="three" unicode="3" horiz-adv-x="1315" vert-adv-y="2130" 
d="M658 0q-231 0 -361 111t-108 290h105q-14 -133 90 -215t289 -82q190 0 321 77.5t150 198.5q18 113 -74.5 197t-270.5 87l-14 -1l-128 -3l15 97l126 -4h14q173 0 285 80t130 190q18 116 -83 189.5t-282 73.5q-177 0 -301.5 -78.5t-150.5 -204.5h-104q35 171 193.5 278
t377.5 107q226 0 351.5 -102.5t100.5 -260.5q-15 -98 -88 -183.5t-171 -130.5q103 -49 151 -134t31 -191q-27 -172 -192.5 -279t-401.5 -107z" />
    <glyph glyph-name="four" unicode="4" horiz-adv-x="1367" vert-adv-y="2130" 
d="M1073 333l-53 -333h-106l53 333h-789l15 97l949 958h98l-150 -948h221l-17 -107h-221zM984 440l122 774l-761 -774h639z" />
    <glyph glyph-name="five" unicode="5" horiz-adv-x="1289" vert-adv-y="2130" 
d="M632 0h-27q-183 14 -293.5 123.5t-118.5 285.5h109q10 -119 99 -196.5t227 -91.5h23q191 0 324 97t158 254q24 150 -80.5 246.5t-288.5 102.5q-112 -2 -213.5 -41.5t-170.5 -111.5h-117l206 720h828l-17 -107h-739l-117 -439q155 97 353 97h4q107 0 197 -30t155.5 -86.5
t95 -145.5t12.5 -200q-34 -214 -203 -345.5t-406 -131.5z" />
    <glyph glyph-name="six" unicode="6" horiz-adv-x="1303" vert-adv-y="2130" 
d="M653 1h-7q-233 2 -356.5 130.5t-91.5 330.5l37 234q55 349 210.5 520.5t415.5 171.5q335 0 447 -317h-117q-86 211 -348 211q-202 0 -317.5 -125t-173.5 -403q180 161 437 161h8q237 -2 361 -126t92 -326q-32 -205 -198.5 -333.5t-398.5 -128.5zM671 119q185 0 317.5 96
t156.5 247t-78 246t-290 95q-184 0 -316.5 -95.5t-156.5 -246.5t77.5 -246.5t289.5 -95.5z" />
    <glyph glyph-name="seven" unicode="7" horiz-adv-x="1276" vert-adv-y="2130" 
d="M1356 1292l-764 -1292h-116l757 1280h-905l17 108h1026z" />
    <glyph glyph-name="eight" unicode="8" horiz-adv-x="1314" vert-adv-y="2130" 
d="M657 1q-237 0 -367.5 106.5t-103.5 280.5q19 113 96.5 196.5t202.5 129.5q-99 42 -146 121t-31 184q26 165 184 267t385 102q226 0 352 -102t100 -264q-17 -107 -92.5 -187t-185.5 -122q109 -44 163 -129t36 -198q-27 -172 -191.5 -278.5t-401.5 -106.5zM777 758h20
q172 0 290.5 73t136.5 188q19 120 -81 193.5t-282 73.5t-306 -73.5t-143 -193.5q-18 -118 82.5 -189.5t282.5 -71.5zM674 107q190 0 320 77t150 202q19 123 -81 199t-280 76h-21q-192 0 -321 -75t-149 -200t86 -202t296 -77z" />
    <glyph glyph-name="nine" unicode="9" horiz-adv-x="1303" vert-adv-y="2130" 
d="M661 0q-335 0 -446 316h116q87 -209 348 -209q92 0 167 27.5t127 74t92 116t64.5 144t42.5 166.5q-81 -75 -197 -119t-249 -44q-236 0 -361 126t-93 328q32 203 198.5 332.5t399.5 129.5h8q232 -2 355 -131t91 -331l-37 -232q-56 -350 -210.5 -522t-415.5 -172zM747 585
q182 0 315 96t157 246q24 151 -77.5 246.5t-288.5 95.5q-185 0 -318 -96t-157 -247t77.5 -246t291.5 -95z" />
    <glyph glyph-name="colon" unicode=":" horiz-adv-x="481" vert-adv-y="2130" 
d="M345 670q-31 0 -49.5 22t-13.5 53q4 30 30 52t57 22q30 0 48.5 -22t13.5 -52q-4 -31 -30 -53t-56 -22zM239 0q-31 0 -49.5 22t-13.5 53q4 30 30 52t57 22q30 0 48.5 -22t13.5 -52q-5 -31 -30.5 -53t-55.5 -22z" />
    <glyph glyph-name="semicolon" unicode=";" horiz-adv-x="497" vert-adv-y="2130" 
d="M351 670q-30 0 -48.5 22t-14.5 53q4 30 30.5 52t56.5 22q31 0 49.5 -22t13.5 -52q-4 -31 -30 -53t-57 -22zM355 160l-152 -272h-112l125 272h139z" />
    <glyph glyph-name="less" unicode="&#x3c;" horiz-adv-x="1011" vert-adv-y="2130" 
d="M339 601l538 -323l-19 -120l-652 393l17 103l776 393l-19 -120z" />
    <glyph glyph-name="equal" unicode="=" horiz-adv-x="1101" vert-adv-y="2130" 
d="M1035 810l-16 -105h-714l16 105h714zM988 510l-17 -106h-714l17 106h714z" />
    <glyph glyph-name="greater" unicode="&#x3e;" horiz-adv-x="1011" vert-adv-y="2130" 
d="M995 654l-17 -103l-776 -393l19 120l641 323l-538 326l19 120z" />
    <glyph glyph-name="question" unicode="?" horiz-adv-x="1193" vert-adv-y="2130" 
d="M626 392l-21 -135h-108l23 135q13 78 34 120t53 67t105 64q52 28 81.5 45t84 50t89 61t72.5 64.5t60 76t28 79.5q19 117 -79.5 193.5t-264.5 76.5q-155 0 -263.5 -77t-136.5 -205h-105q35 174 178.5 281t342.5 107q210 0 334.5 -107t99.5 -268q-40 -247 -479 -467
q-64 -32 -81 -48q-34 -34 -47 -113zM510 0q-30 0 -49 22t-14 53q4 30 30.5 52t56.5 22t48.5 -22t13.5 -52q-5 -31 -30.5 -53t-55.5 -22z" />
    <glyph glyph-name="at" unicode="@" horiz-adv-x="1705" vert-adv-y="2130" 
d="M857 -30h-2q-116 0 -218.5 36t-179.5 102t-129 154t-70.5 196.5t-0.5 224.5q30 193 152 357t301 259.5t371 95.5q190 0 343 -99.5t222 -265.5q65 -162 36 -347l-24 -154q-16 -102 -96 -176.5t-181 -74.5q-60 0 -103.5 28.5t-64.5 81.5q-60 -56 -144 -86.5t-175 -30.5h-8
q-164 3 -261 93.5t-77 219.5l32 201q21 128 149.5 220.5t278.5 92.5q81 0 153 -30.5t120 -83.5l11 71h106l-90 -557q-6 -48 18 -81t67 -34q59 1 104 43.5t55 102.5l24 154q26 164 -32.5 303.5t-185.5 221t-293 81.5q-123 0 -243 -48t-214 -129t-159.5 -193.5t-85.5 -235.5
q-26 -165 32.5 -304.5t185.5 -221t293 -81.5q202 0 429 154l-20 -132q-212 -128 -426 -128zM905 377l10 -1q110 1 195 61t108 151l33 205q4 82 -68.5 140t-182.5 58q-116 0 -208.5 -60.5t-105.5 -145.5l-32 -201q-13 -82 59.5 -142.5t191.5 -64.5z" />
    <glyph glyph-name="A" unicode="A" horiz-adv-x="1594" vert-adv-y="2130" 
d="M511 401l-259 -401h-118l884 1388l442 -1388h-118l-131 401h-700zM1179 520l-200 628l-400 -628h600z" />
    <glyph glyph-name="B" unicode="B" horiz-adv-x="1393" vert-adv-y="2130" 
d="M892 0h-767l220 1390h719q156 0 249 -109t68 -264q-15 -95 -72.5 -176t-137.5 -128q86 -42 130 -136t26 -204q-25 -155 -152 -264t-283 -109zM1047 1283h-612l-85 -535h612q112 0 203.5 79t108.5 190q18 111 -48 188.5t-179 77.5zM994 642h-660l-85 -535h660
q113 0 203.5 77.5t107.5 188.5q18 111 -48 190t-178 79z" />
    <glyph glyph-name="C" unicode="C" horiz-adv-x="1602" vert-adv-y="2130" 
d="M845 -30q-147 0 -272.5 57t-207 154t-118 231.5t-12.5 282.5t102.5 282.5t191 231.5t256 154t290.5 57q185 0 335 -92.5t231 -255.5l-96 -63q-72 142 -201.5 223t-285.5 81q-168 0 -323.5 -82.5t-260.5 -225t-132 -310.5t33.5 -310.5t189.5 -225t297 -82.5
q156 0 310.5 80.5t271.5 223.5l76 -63q-132 -163 -311 -255.5t-364 -92.5z" />
    <glyph glyph-name="D" unicode="D" horiz-adv-x="1448" vert-adv-y="2130" 
d="M628 0h-503l220 1390h503q141 0 261.5 -55t198.5 -148t112.5 -222t12.5 -270q-30 -189 -148.5 -349t-293 -253t-363.5 -93zM831 1283h-396l-186 -1176h396q160 0 308 79t248 214.5t125 294.5t-32 294.5t-180 214.5t-283 79z" />
    <glyph glyph-name="E" unicode="E" horiz-adv-x="1302" vert-adv-y="2130" 
d="M1194 107l-17 -107h-1052l220 1390h1052l-17 -107h-945l-85 -535h888l-16 -106h-888l-85 -535h945z" />
    <glyph glyph-name="F" unicode="F" horiz-adv-x="1302" vert-adv-y="2130" 
d="M334 642l-102 -642h-107l220 1390h1052l-17 -107h-945l-85 -535h888l-16 -106h-888z" />
    <glyph glyph-name="G" unicode="G" horiz-adv-x="1597" vert-adv-y="2130" 
d="M845 -30q-147 0 -272.5 57t-207 154t-118 231.5t-12.5 282.5t102.5 282.5t191 231.5t256 154t290.5 57q185 0 335 -92.5t231 -255.5l-96 -63q-72 142 -201.5 223t-285.5 81q-168 0 -323.5 -82.5t-260.5 -225t-132 -310.5t33.5 -310.5t189.5 -225t297 -82.5
q151 0 296.5 70t252.5 194l45 283h-588l17 108h695l-66 -422q-126 -159 -304 -249.5t-365 -90.5z" />
    <glyph glyph-name="H" unicode="H" vert-adv-y="2130" 
d="M334 642l-102 -642h-107l220 1390h107l-102 -642h919l102 642h108l-220 -1390h-108l102 642h-919z" />
    <glyph glyph-name="I" unicode="I" horiz-adv-x="357" vert-adv-y="2130" 
d="M452 1390l-220 -1390h-107l220 1390h107z" />
    <glyph glyph-name="J" unicode="J" horiz-adv-x="1314" vert-adv-y="2130" 
d="M618 -30q-145 0 -263 75t-184 208l101 54q55 -108 151 -169t212 -61q190 0 346 134.5t186 324.5l135 854h108l-135 -854q-25 -154 -121.5 -284.5t-239 -206t-296.5 -75.5z" />
    <glyph glyph-name="K" unicode="K" horiz-adv-x="1385" vert-adv-y="2130" 
d="M308 477l-76 -477h-107l220 1390h107l-121 -768l964 768h162l-685 -544l474 -846h-131l-433 774z" />
    <glyph glyph-name="L" unicode="L" horiz-adv-x="1302" vert-adv-y="2130" 
d="M1194 107l-17 -107h-1052l220 1390h107l-203 -1283h945z" />
    <glyph glyph-name="M" unicode="M" horiz-adv-x="1629" vert-adv-y="2130" 
d="M398 1060l-166 -1060h-107l220 1388h47l457 -1176l829 1176h46l-220 -1388h-107l170 1060l-752 -1060z" />
    <glyph glyph-name="N" unicode="N" vert-adv-y="2130" 
d="M406 1101l-174 -1101h-107l220 1391l850 -1111l176 1110h108l-220 -1390z" />
    <glyph glyph-name="O" unicode="O" horiz-adv-x="1701" vert-adv-y="2130" 
d="M845 -30q-147 0 -272.5 57t-207 154t-118 231.5t-12.5 282.5t102.5 282.5t191 231.5t256 154t290.5 57q148 0 273.5 -57t207.5 -154t118.5 -231.5t12.5 -282.5t-102.5 -282.5t-191.5 -231.5t-256.5 -154t-291.5 -57zM862 77q168 0 324 82.5t261 225t132 310.5
t-33.5 310.5t-190 225t-297.5 82.5t-323.5 -82.5t-260.5 -225t-132 -310.5t33.5 -310.5t189.5 -225t297 -82.5z" />
    <glyph glyph-name="P" unicode="P" horiz-adv-x="1393" vert-adv-y="2130" 
d="M309 487l-77 -487h-107l220 1390h691q123 0 217.5 -60t138.5 -164t25 -227q-30 -188 -183 -320t-341 -132h-584zM1019 1283h-584l-109 -688h584q143 0 260 100.5t140 243.5q22 142 -63 243t-228 101z" />
    <glyph glyph-name="Q" unicode="Q" horiz-adv-x="1706" vert-adv-y="2130" 
d="M845 -30q-147 0 -272.5 57t-207 154t-118 231.5t-12.5 282.5t102.5 282.5t191 231.5t256 154t290.5 57q148 0 273.5 -57t207.5 -154t118.5 -231.5t12.5 -282.5q-19 -122 -82 -242t-157 -219l144 -169l-89 -77l-142 168q-116 -88 -250.5 -137t-265.5 -49zM862 77
q236 0 435 156l-140 164l87 79l140 -166q161 171 195 385q27 168 -33.5 310.5t-190 225t-297.5 82.5t-323.5 -82.5t-260.5 -225t-132 -310.5t33.5 -310.5t189.5 -225t297 -82.5z" />
    <glyph glyph-name="R" unicode="R" horiz-adv-x="1393" vert-adv-y="2130" 
d="M309 488l-77 -488h-107l220 1390h691q123 0 217.5 -60t138.5 -164.5t25 -227.5q-26 -159 -141.5 -281t-274.5 -156l262 -501h-129l-257 488h-568zM1019 1283h-584l-109 -687h615q135 17 241.5 115t127.5 227q22 143 -63 244t-228 101z" />
    <glyph glyph-name="S" unicode="S" vert-adv-y="2130" 
d="M695 -30q-155 0 -275.5 54t-182 149t-51.5 212h111q-11 -132 107 -220t307 -88q125 0 233.5 37.5t178 104.5t82.5 150q18 112 -85.5 186t-323.5 108q-254 39 -370.5 134t-93.5 244q26 164 191.5 271.5t386.5 107.5q218 0 352.5 -112.5t120.5 -281.5h-110q9 124 -99 205.5
t-280 81.5q-174 0 -303.5 -76.5t-148.5 -193.5q-16 -105 80 -174.5t295 -98.5q273 -41 399 -142t101 -258q-28 -173 -205.5 -286.5t-416.5 -113.5z" />
    <glyph glyph-name="T" unicode="T" horiz-adv-x="1448" vert-adv-y="2130" 
d="M981 1283l-203 -1283h-107l203 1283h-546l17 107h1198l-17 -107h-545z" />
    <glyph glyph-name="U" unicode="U" vert-adv-y="2130" 
d="M687 -30q-116 0 -214 45t-161.5 120.5t-91.5 180.5t-10 220l135 854h107l-135 -854q-30 -190 83.5 -324.5t303.5 -134.5t346 134.5t186 324.5l135 854h108l-135 -854q-18 -115 -80 -220t-150 -180.5t-200 -120.5t-227 -45z" />
    <glyph glyph-name="V" unicode="V" horiz-adv-x="1594" vert-adv-y="2130" 
d="M1562 1390h118l-882 -1390l-444 1390h118l365 -1136z" />
    <glyph glyph-name="W" unicode="W" horiz-adv-x="2223" vert-adv-y="2130" 
d="M1564 0l-262 1207l-644 -1207l-304 1388h111l241 -1087l583 1087h84l239 -1087l586 1087h111z" />
    <glyph glyph-name="X" unicode="X" horiz-adv-x="1586" vert-adv-y="2130" 
d="M889 608l-601 -608h-146l689 695l-469 695h146l409 -608l602 608h146l-689 -695l469 -695h-146z" />
    <glyph glyph-name="Y" unicode="Y" horiz-adv-x="1577" vert-adv-y="2130" 
d="M928 540l-86 -540h-107l86 540l-462 850h133l398 -745l636 745h132z" />
    <glyph glyph-name="Z" unicode="Z" horiz-adv-x="1578" vert-adv-y="2130" 
d="M1373 107l-17 -107h-1214l1269 1283h-967l17 107h1196l-1270 -1283h986z" />
    <glyph glyph-name="bracketleft" unicode="[" horiz-adv-x="607" vert-adv-y="2130" 
d="M507 -119l-17 -107h-331l288 1816h331l-17 -106h-225l-254 -1603h225z" />
    <glyph glyph-name="backslash" unicode="\" horiz-adv-x="915" vert-adv-y="2130" 
d="M474 1440l298 -1516h-113l-298 1516h113z" />
    <glyph glyph-name="bracketright" unicode="]" horiz-adv-x="607" vert-adv-y="2130" 
d="M664 1590l-288 -1816h-331l17 107h226l254 1603h-226l17 106h331z" />
    <glyph glyph-name="asciicircum" unicode="^" horiz-adv-x="1088" vert-adv-y="2130" 
d="M741 1241l-318 -440h-122l407 564h104l228 -564h-120z" />
    <glyph glyph-name="underscore" unicode="_" horiz-adv-x="1191" vert-adv-y="2130" 
d="M1030 13l-17 -107h-865l17 107h865z" />
    <glyph glyph-name="grave" unicode="`" horiz-adv-x="878" vert-adv-y="2130" 
d="M580 1430l252 -233l-81 -81l-249 233z" />
    <glyph glyph-name="a" unicode="a" horiz-adv-x="1026" vert-adv-y="2130" 
d="M514 -18q-164 0 -263.5 90t-79.5 217q21 133 160 225t315 92h244l8 49q6 94 -52.5 153t-170.5 59q-108 0 -205.5 -58.5t-123.5 -164.5h-107q38 151 171.5 239.5t282.5 88.5q168 0 250 -92t57 -250l-100 -630h-106l13 84q-130 -102 -293 -102zM527 87q109 0 199.5 58
t112.5 140l34 215h-244q-132 0 -235 -60.5t-117 -148.5q-13 -83 60.5 -143.5t189.5 -60.5z" />
    <glyph glyph-name="b" unicode="b" horiz-adv-x="1146" vert-adv-y="2130" 
d="M574 -18q-108 0 -190 46.5t-128 132.5l-25 -161h-106l216 1365h106l-88 -556q73 86 169.5 132.5t204.5 46.5q191 0 295 -143.5t70 -359.5q-23 -142 -99 -257.5t-188 -180.5t-237 -65zM591 87q148 0 264 114t143 284t-53 284t-228 114q-147 0 -263 -114t-143 -284t53 -284
t227 -114z" />
    <glyph glyph-name="c" unicode="c" horiz-adv-x="1138" vert-adv-y="2130" 
d="M597 -18q-204 0 -316.5 143t-78.5 360q23 143 102.5 258t198.5 180t253 65q121 0 218.5 -60.5t152.5 -170.5l-98 -59q-44 87 -120.5 136t-168.5 49q-158 0 -281.5 -114t-150.5 -284t60.5 -284t245.5 -114q92 0 184 49t163 136l80 -59q-90 -110 -206.5 -170.5
t-237.5 -60.5z" />
    <glyph glyph-name="d" unicode="d" horiz-adv-x="1146" vert-adv-y="2130" 
d="M565 -18q-189 0 -293 143.5t-70 359.5t183.5 359.5t338.5 143.5q109 0 190.5 -46.5t128.5 -132.5l88 556h106l-216 -1365h-106l25 161q-154 -179 -375 -179zM582 87q148 0 264 114t143 284t-53 284t-228 114q-147 0 -262.5 -114t-142.5 -284t52.5 -284t226.5 -114z" />
    <glyph glyph-name="e" unicode="e" horiz-adv-x="1201" vert-adv-y="2130" 
d="M597 -18q-204 0 -316.5 143t-78.5 360q35 217 192 360t362 143q202 0 313.5 -148.5t80.5 -369.5h-845q-20 -165 67.5 -274t241.5 -109q119 0 226 74t171 201l96 -34q-80 -159 -217.5 -252.5t-292.5 -93.5zM331 576h720q-7 134 -93 220.5t-218 86.5t-245.5 -86.5
t-163.5 -220.5z" />
    <glyph glyph-name="f" unicode="f" horiz-adv-x="713" vert-adv-y="2130" 
d="M519 864l-137 -864h-107l137 864h-150l17 106h150l18 119q20 119 124 205.5t237 93.5l-17 -105q-88 -6 -156 -62t-81 -132l-18 -119h181l-17 -106h-181z" />
    <glyph glyph-name="g" unicode="g" horiz-adv-x="1138" vert-adv-y="2130" 
d="M526 -404q-147 0 -244.5 79t-126.5 220h111q25 -92 98 -142.5t180 -50.5q147 0 249 85t124 228l23 143q-154 -179 -375 -179q-189 0 -293.5 143.5t-70.5 359.5t184 360.5t339 144.5q109 0 190.5 -47t128.5 -134l26 166h106l-150 -947q-31 -195 -166.5 -312t-332.5 -117z
M581 84q148 0 264 114t143 284q27 171 -53 284.5t-228 113.5q-147 0 -262.5 -113.5t-142.5 -284.5q-27 -170 52.5 -284t226.5 -114z" />
    <glyph glyph-name="h" unicode="h" horiz-adv-x="988" vert-adv-y="2130" 
d="M333 642l-101 -642h-107l220 1388h106l-81 -509q123 109 280 109q154 0 245 -107t66 -260l-98 -621h-106l98 621q17 109 -47 185.5t-173 76.5q-105 0 -192 -69.5t-110 -171.5z" />
    <glyph glyph-name="i" unicode="i" horiz-adv-x="399" vert-adv-y="2130" 
d="M392 1215q-31 0 -49.5 22t-13.5 53q5 30 31 52.5t56 22.5t48.5 -22.5t13.5 -52.5q-4 -31 -30 -53t-56 -22zM407 970l-154 -970h-107l154 970h107z" />
    <glyph glyph-name="j" unicode="j" horiz-adv-x="720" vert-adv-y="2130" 
d="M712 1215q-30 0 -48.5 22t-13.5 53q5 30 30.5 52.5t55.5 22.5q31 0 49.5 -22.5t13.5 -52.5q-4 -31 -30 -53t-57 -22zM57 -430l20 105q149 4 255 91.5t133 223.5l156 982h107l-154 -973q-31 -191 -171.5 -308t-345.5 -121z" />
    <glyph glyph-name="k" unicode="k" horiz-adv-x="1040" vert-adv-y="2130" 
d="M280 312l-49 -313h-106l220 1389h106l-148 -932l612 514h137l-479 -410l316 -561h-124l-274 492z" />
    <glyph glyph-name="l" unicode="l" horiz-adv-x="356" vert-adv-y="2130" 
d="M451 1388l-220 -1388h-106l220 1388h106z" />
    <glyph glyph-name="m" unicode="m" horiz-adv-x="1477" vert-adv-y="2130" 
d="M322 621l-98 -621h-99l154 970h99l-14 -86q112 104 253 104q189 0 251 -175q57 82 137.5 128.5t169.5 46.5q140 0 220.5 -107t55.5 -260l-98 -621h-99l98 621q17 109 -39 187.5t-151 78.5q-90 0 -169 -73.5t-103 -176.5l-101 -637h-100l101 637q8 102 -48 176t-145 74
q-96 0 -177 -78t-98 -188z" />
    <glyph glyph-name="n" unicode="n" horiz-adv-x="988" vert-adv-y="2130" 
d="M330 621l-98 -621h-107l153 968h106l-14 -89q123 109 280 109q154 0 245 -107t66 -260l-98 -621h-106l98 621q17 109 -47 185.5t-173 76.5t-198.5 -76.5t-106.5 -185.5z" />
    <glyph glyph-name="o" unicode="o" horiz-adv-x="1201" vert-adv-y="2130" 
d="M597 -18q-204 0 -316.5 143t-78.5 360q23 143 102.5 258t198.5 180t253 65q135 0 234 -65t143 -180.5t21 -257.5q-23 -143 -103 -258t-199.5 -180t-254.5 -65zM614 87q159 0 282.5 114t150.5 284t-60.5 284t-246.5 114q-158 0 -281.5 -114t-150.5 -284t60.5 -284
t245.5 -114z" />
    <glyph glyph-name="p" unicode="p" horiz-adv-x="1146" vert-adv-y="2130" 
d="M256 158l-88 -555h-106l216 1364h106l-25 -161q73 87 169.5 134t204.5 47q125 0 216.5 -65.5t131 -181.5t16.5 -258q-34 -216 -183 -359.5t-340 -143.5q-108 0 -190 46.5t-128 132.5zM590 84q148 0 264 114t143 284q27 171 -53 284.5t-228 113.5q-147 0 -263 -113.5
t-143 -284.5q-27 -170 53 -284t227 -114z" />
    <glyph glyph-name="q" unicode="q" horiz-adv-x="1146" vert-adv-y="2130" 
d="M1174 967l-216 -1364h-106l88 555q-154 -179 -375 -179q-189 0 -293.5 143.5t-70.5 359.5t184 360.5t339 144.5q109 0 190.5 -47t128.5 -134l25 161h106zM581 84q148 0 264 114t143 284q27 171 -53 284.5t-228 113.5q-147 0 -262.5 -113.5t-142.5 -284.5
q-27 -170 52.5 -284t226.5 -114z" />
    <glyph glyph-name="r" unicode="r" horiz-adv-x="718" vert-adv-y="2130" 
d="M330 621l-98 -621h-107l153 968h106l-14 -89q123 109 280 109q41 0 98 -12l-18 -110q-61 17 -95 17q-109 0 -198.5 -76.5t-106.5 -185.5z" />
    <glyph glyph-name="s" unicode="s" horiz-adv-x="1065" vert-adv-y="2130" 
d="M533 -18q-171 0 -272.5 85t-90.5 216h107q-4 -63 38 -109.5t103.5 -66.5t130.5 -20q71 0 139 18.5t123 62t64 103.5q3 21 0 38.5t-15 32.5t-23.5 26t-36.5 21.5t-41 17.5t-50 15.5t-51.5 12.5t-55.5 13q-73 16 -117.5 28t-95.5 33.5t-76.5 46.5t-39.5 64.5t-6 90.5
q19 124 138 200.5t283 76.5q158 0 253 -80.5t85 -204.5h-107q5 78 -63.5 129t-177.5 51q-69 0 -132 -17t-112 -56.5t-58 -95.5q-5 -30 7 -54.5t31 -39.5t58 -29t69 -21t83 -18q72 -15 119.5 -27.5t101.5 -35t83.5 -50t46 -69.5t7.5 -96q-20 -130 -147 -211t-302 -81z" />
    <glyph glyph-name="t" unicode="t" horiz-adv-x="732" vert-adv-y="2130" 
d="M624 105l-17 -107q-131 8 -208 94.5t-58 204.5l90 567h-169l17 106h169l66 418h106l-66 -418h188l-17 -106h-188l-90 -567q-12 -76 39 -131.5t138 -60.5z" />
    <glyph glyph-name="u" unicode="u" horiz-adv-x="988" vert-adv-y="2130" 
d="M492 -19q-154 0 -245 107t-67 261l98 620h106l-98 -620q-17 -109 48 -186t174 -77t198 77t106 186l98 620h106l-153 -968h-106l14 89q-123 -109 -279 -109z" />
    <glyph glyph-name="v" unicode="v" horiz-adv-x="1187" vert-adv-y="2130" 
d="M1090 970h117l-613 -970l-306 970h117l225 -745z" />
    <glyph glyph-name="w" unicode="w" horiz-adv-x="1551" vert-adv-y="2130" 
d="M1070 0l-165 812l-422 -812l-198 970h103l139 -692l362 692h82l143 -692l358 692h103z" />
    <glyph glyph-name="x" unicode="x" horiz-adv-x="1167" vert-adv-y="2130" 
d="M646 399l-367 -399h-139l455 485l-301 485h139l241 -398l368 398h139l-455 -485l301 -485h-139z" />
    <glyph glyph-name="y" unicode="y" horiz-adv-x="1187" vert-adv-y="2130" 
d="M1207 970l-872 -1400h-105l326 520l-268 880h117l222 -761l463 761h117z" />
    <glyph glyph-name="z" unicode="z" horiz-adv-x="1025" vert-adv-y="2130" 
d="M916 106l-17 -106h-774l15 96l753 768h-593l17 106h736l-15 -95l-752 -769h630z" />
    <glyph glyph-name="braceleft" unicode="{" horiz-adv-x="662" vert-adv-y="2130" 
d="M562 -119l-17 -107h-129q-84 0 -134 60t-36 144l87 554q6 39 -18 68t-63 29h-53l17 107h53q40 0 72.5 28t39.5 69l88 553q13 85 82 144.5t153 59.5h129l-17 -106h-129q-40 0 -72.5 -29t-38.5 -69l-88 -553q-14 -91 -92 -150q58 -63 44 -151l-87 -554q-7 -40 16.5 -68.5
t63.5 -28.5h129z" />
    <glyph glyph-name="bar" unicode="|" horiz-adv-x="496" vert-adv-y="2130" 
d="M559 1628l-306 -1929h-106l306 1929h106z" />
    <glyph glyph-name="braceright" unicode="}" horiz-adv-x="662" vert-adv-y="2130" 
d="M173 -226h-128l17 107h128q40 0 73.5 28.5t40.5 68.5l87 554q14 88 90 150q-57 59 -42 151l88 553q6 40 -18.5 69t-64.5 29h-128l17 106h128q84 0 134 -59.5t37 -144.5l-88 -553q-7 -40 17.5 -68.5t65.5 -28.5h53l-17 -107h-53q-39 0 -73.5 -29t-40.5 -68l-87 -554
q-14 -84 -83 -144t-153 -60z" />
    <glyph glyph-name="asciitilde" unicode="~" horiz-adv-x="1192" vert-adv-y="2130" 
d="M869 735q-101 0 -173 85q-46 55 -102 55q-55 0 -122 -55l-72 -65l-63 76l74 63q98 85 196 85q103 0 175 -85q47 -56 102 -56q54 0 121 56l73 64l63 -75l-75 -63q-99 -85 -197 -85z" />
    <glyph glyph-name="exclamdown" unicode="&#xa1;" horiz-adv-x="517" vert-adv-y="2130" 
d="M451 1215q-31 0 -49.5 22t-13.5 53q5 30 31 52.5t56 22.5t48.5 -22.5t13.5 -52.5q-4 -31 -30 -53t-56 -22zM402 531l-84 -531h-118l84 531l94 495h87z" />
    <glyph glyph-name="cent" unicode="&#xa2;" horiz-adv-x="1112" vert-adv-y="2130" 
d="M620 -17l-18 -115h-106l19 118q-179 22 -271.5 161.5t-60.5 337.5t168 337.5t322 161.5l19 118h106l-19 -115q106 -9 192.5 -69.5t136.5 -160.5l-98 -59q-41 80 -105 127t-143 55l-125 -790q81 8 161 56t144 126l80 -59q-82 -100 -187.5 -160.5t-214.5 -69.5zM532 93
l124 784q-138 -26 -240.5 -134t-126.5 -258t44 -258t199 -134z" />
    <glyph glyph-name="sterling" unicode="&#xa3;" horiz-adv-x="1128" vert-adv-y="2130" 
d="M994 106l-17 -106h-820l15 96q92 87 164 195.5t88 207.5q4 23 4 64h-182l17 107h154l-14 73q-29 144 -14 240q27 171 165.5 291.5t308.5 120.5q89 0 167 -41.5t133 -117.5l-88 -74q-43 61 -103 94t-126 33q-126 0 -229 -89.5t-123 -215.5q-11 -70 16 -205q17 -77 21 -109
h390l-17 -107h-368q-2 -40 -5 -61q-17 -108 -75.5 -211t-135.5 -185h674z" />
    <glyph glyph-name="yen" unicode="&#xa5;" horiz-adv-x="1512" vert-adv-y="2130" 
d="M853 278l-44 -278h-106l44 278h-267l17 106h267l30 193h-267l17 106h195l-407 682h134l400 -672l612 672h133l-622 -682h195l-17 -106h-267l-30 -193h267l-17 -106h-267z" />
    <glyph glyph-name="brokenbar" unicode="&#xa6;" horiz-adv-x="524" vert-adv-y="2130" 
d="M573 1628l-127 -801h-106l127 801h106zM394 501l-127 -802h-106l127 802h106z" />
    <glyph glyph-name="dieresis" unicode="&#xa8;" horiz-adv-x="876" vert-adv-y="2130" 
d="M488 1147q-31 0 -50 22t-14 52q5 31 30.5 53t56.5 22q30 0 48.5 -22t13.5 -53q-5 -30 -30 -52t-55 -22zM752 1147q-31 0 -50 22t-14 52q5 31 30.5 53t56.5 22q30 0 48.5 -22t13.5 -53q-5 -30 -30 -52t-55 -22z" />
    <glyph glyph-name="copyright" unicode="&#xa9;" horiz-adv-x="1605" vert-adv-y="2130" 
d="M802 0q-185 0 -327.5 91.5t-209.5 248.5t-37 342q22 139 96 265t180 217.5t241 146t273 54.5t256 -54.5t195.5 -146t111.5 -218t12 -264.5q-30 -185 -146.5 -342t-288 -248.5t-356.5 -91.5zM816 90q121 0 238 47t209 126t156.5 189t83.5 230q26 161 -32 297.5t-182 216
t-285 79.5q-120 0 -237.5 -47t-209 -126t-156 -189t-83.5 -231q-26 -161 32 -297.5t181.5 -215.5t284.5 -79zM858 269q-172 0 -274 120.5t-75 292.5t167 293t313 121q103 0 190.5 -56t136.5 -154l-81 -55q-40 82 -109.5 128.5t-151.5 46.5q-135 0 -245 -95t-131 -229
t59 -228.5t215 -94.5q82 0 165 46t148 128l67 -54q-80 -98 -185 -154t-209 -56z" />
    <glyph glyph-name="ordfeminine" unicode="&#xaa;" horiz-adv-x="618" vert-adv-y="2130" 
d="M448 896q-50 0 -96 20t-74.5 62t-19.5 97q14 86 98.5 134t171.5 48h119l2 13q1 8 -1 28q-13 72 -109 72q-95 0 -144 -67l-9 -61h-102l10 68h16q34 68 102 105t142 37q94 0 142 -52t33 -143l-46 -292h10l-11 -68h-69l1 9h-23l6 37q-71 -47 -149 -47zM464 979q43 0 82 18.5
t60 47.5q11 19 12 26l16 103h-119q-33 0 -69.5 -10t-68.5 -33.5t-37 -54.5q-6 -40 30.5 -68.5t93.5 -28.5z" />
    <glyph glyph-name="guillemotleft" unicode="&#xab;" horiz-adv-x="1079" vert-adv-y="1700" 
d="M366 493l276 -327l-88 -75l-337 402l465 401l64 -75zM664 493l274 -327l-86 -75l-338 402l466 401l62 -75z" />
    <glyph glyph-name="logicalnot" unicode="&#xac;" horiz-adv-x="1255" vert-adv-y="2130" 
d="M1167 660l-71 -444h-106l54 338h-759l17 106h865z" />
    <glyph glyph-name="registered" unicode="&#xae;" horiz-adv-x="1605" vert-adv-y="2130" 
d="M802 0q-185 0 -327.5 91.5t-209.5 248.5t-37 342q22 139 96 265t180 217.5t241 146t273 54.5t256 -54.5t195.5 -146t111.5 -218t12 -264.5q-30 -185 -146.5 -342t-288 -248.5t-356.5 -91.5zM816 90q121 0 238 47t209 126t156.5 189t83.5 230q26 161 -32 297.5t-182 216
t-285 79.5q-120 0 -237.5 -47t-209 -126t-156 -189t-83.5 -231q-26 -161 32 -297.5t181.5 -215.5t284.5 -79zM672 550l-43 -273h-91l128 811h404q112 0 178 -78.5t49 -191.5q-14 -89 -76.5 -159t-149.5 -95l151 -287h-109l-146 273h-295zM1056 997h-313l-56 -356h330
q69 9 123.5 59.5t65.5 117.5q12 76 -31.5 127.5t-118.5 51.5z" />
    <glyph glyph-name="macron" unicode="&#xaf;" horiz-adv-x="875" vert-adv-y="2130" 
d="M849 1257l-17 -106h-425l17 106h425z" />
    <glyph glyph-name="degree" unicode="&#xb0;" horiz-adv-x="707" vert-adv-y="2130" 
d="M506 958q-88 0 -141 62t-39 151q14 88 86.5 150t160.5 62t140 -62t38 -150q-13 -88 -85 -150.5t-160 -62.5zM523 1064q44 0 79.5 31.5t42.5 75.5t-19 75t-70 31t-80.5 -31t-43.5 -75t20 -75.5t71 -31.5z" />
    <glyph glyph-name="plusminus" unicode="&#xb1;" horiz-adv-x="1054" vert-adv-y="2130" 
d="M692 705l-43 -267h-106l43 267h-267l16 105h267l43 268h106l-43 -268h267l-16 -105h-267zM897 318l-16 -106h-640l16 106h640z" />
    <glyph glyph-name="uni00B2" unicode="&#xb2;" horiz-adv-x="535" vert-adv-y="1700" 
d="M621 1006l-14 -90h-390l9 57q6 39 26.5 72.5t54.5 61t63 45.5t70 40l19 10l4 1q6 3 10 6l40 19q56 26 62 57q4 29 -22.5 46t-72.5 17t-77 -25t-42 -69h-89l5 33q12 74 76.5 112t142.5 38t129.5 -38t39.5 -116q-7 -46 -31.5 -72t-75.5 -55l-75 -38q-123 -60 -154 -112h292
z" />
    <glyph glyph-name="uni00B3" unicode="&#xb3;" horiz-adv-x="561" vert-adv-y="1700" 
d="M425 916q-83 0 -139 40t-44 120l6 33h91l-6 -33q-4 -31 25 -50.5t81 -19.5t88.5 19.5t40.5 50.5q5 31 -21 50.5t-73 19.5h-76l13 85h76q43 0 73.5 18t35.5 47q5 31 -23 49t-79 18q-49 0 -82 -26t-44 -73h-87l5 32q8 53 45.5 89.5t83 51t95.5 14.5t91.5 -15t67.5 -50.5
t18 -87.5q-10 -63 -68 -107q51 -46 39 -118q-9 -53 -47.5 -90t-86 -52t-99.5 -15z" />
    <glyph glyph-name="acute" unicode="&#xb4;" horiz-adv-x="878" vert-adv-y="2130" 
d="M800 1430l56 -81l-325 -233l-53 81z" />
    <glyph glyph-name="paragraph" unicode="&#xb6;" horiz-adv-x="1204" vert-adv-y="2130" 
d="M1006 1259l-199 -1259h-106l76 479h-139q-183 0 -292.5 129.5t-80.5 312.5q19 120 94.5 222.5t187 162t231.5 59.5h433l-216 -1365h-106l199 1259h-82zM655 585h139l106 674h-139q-140 0 -254 -99t-136 -239q-22 -139 61 -237.5t223 -98.5z" />
    <glyph glyph-name="periodcentered" unicode="&#xb7;" horiz-adv-x="481" vert-adv-y="2130" 
d="M337 614q-31 0 -49.5 22t-13.5 53t30.5 53t56.5 22q30 0 48.5 -22t13.5 -53q-4 -31 -30 -53t-56 -22z" />
    <glyph glyph-name="cedilla" unicode="&#xb8;" horiz-adv-x="1210" vert-adv-y="2130" 
d="M450 -334l14 90q44 1 80 26.5t49 62.5h-115l25 155l89 2l-10 -68h118l-12 -74q-13 -78 -81.5 -134.5t-156.5 -59.5z" />
    <glyph glyph-name="uni00B9" unicode="&#xb9;" horiz-adv-x="359" vert-adv-y="1700" 
d="M513 1436l-81 -512h-90l61 383l-59 -41l-52 65l152 105h69z" />
    <glyph glyph-name="ordmasculine" unicode="&#xba;" horiz-adv-x="713" vert-adv-y="2130" 
d="M493 863q-115 0 -179 80.5t-45 201.5t108.5 201.5t204.5 80.5q116 0 179.5 -80.5t44.5 -201.5t-108 -201.5t-205 -80.5zM506 945q80 0 141.5 57t75.5 143t-30 143t-124 57q-79 0 -141.5 -57t-76.5 -143q-13 -85 31 -142.5t124 -57.5z" />
    <glyph glyph-name="guillemotright" unicode="&#xbb;" horiz-adv-x="1079" vert-adv-y="1700" 
d="M384 894l338 -401l-467 -402l-62 75l379 327l-275 326zM680 894l338 -401l-466 -402l-62 75l379 327l-275 326z" />
    <glyph glyph-name="questiondown" unicode="&#xbf;" horiz-adv-x="1193" vert-adv-y="2130" 
d="M879 1245q-31 0 -50 22t-14 53t31 53t57 22q30 0 48.5 -22t13.5 -53q-4 -31 -30 -53t-56 -22zM614 0q-212 0 -336.5 107.5t-99.5 267.5q10 63 46 124t83 108t111.5 93t119 77.5t119.5 63.5l35 17.5t26.5 15.5t25 20.5t16 24.5t16 36t9.5 48l21 136h108l-22 -137
q-8 -49 -18 -81t-21 -54t-36 -42.5t-46.5 -34t-70.5 -39.5q-42 -22 -69.5 -37t-72.5 -42.5t-76 -49.5t-68.5 -53.5t-61.5 -60t-43 -63.5t-24 -69q-19 -117 79.5 -193.5t264.5 -76.5q155 0 263 77t135 205h105q-34 -174 -177 -281t-341 -107z" />
    <glyph glyph-name="Agrave" unicode="&#xc0;" horiz-adv-x="1594" vert-adv-y="2130" 
d="M1003 1859l256 -237l-81 -82l-255 236zM511 401l-259 -401h-118l884 1388l442 -1388h-118l-131 401h-700zM1179 520l-200 628l-400 -628h600z" />
    <glyph glyph-name="Aacute" unicode="&#xc1;" horiz-adv-x="1594" vert-adv-y="2130" 
d="M1202 1859l56 -83l-329 -236l-54 82zM511 401l-259 -401h-118l884 1388l442 -1388h-118l-131 401h-700zM1179 520l-200 628l-400 -628h600z" />
    <glyph glyph-name="Acircumflex" unicode="&#xc2;" horiz-adv-x="1594" vert-adv-y="2130" 
d="M1234 1562l-167 142l-213 -142l-55 82l290 195l226 -195zM511 401l-259 -401h-118l884 1388l442 -1388h-118l-131 401h-700zM1179 520l-200 628l-400 -628h600z" />
    <glyph glyph-name="Atilde" unicode="&#xc3;" horiz-adv-x="1594" vert-adv-y="2130" 
d="M944 1634l-64 -55l-63 75l65 54q62 56 119 56t104 -55q20 -22 34 -22q16 0 41 22l63 55l63 -76l-64 -54q-64 -55 -120 -55q-57 0 -103 55q-18 20 -35 20t-40 -20zM511 401l-259 -401h-118l884 1388l442 -1388h-118l-131 401h-700zM1179 520l-200 628l-400 -628h600z" />
    <glyph glyph-name="Adieresis" unicode="&#xc4;" horiz-adv-x="1594" vert-adv-y="2130" 
d="M912 1571q-31 0 -49.5 22.5t-13.5 52.5q5 31 30.5 53.5t56.5 22.5t50 -22.5t14 -53.5q-5 -30 -31 -52.5t-57 -22.5zM1182 1571q-31 0 -50 22.5t-14 52.5q5 31 31 53.5t57 22.5q30 0 48.5 -22.5t13.5 -53.5q-5 -30 -30.5 -52.5t-55.5 -22.5zM511 401l-259 -401h-118
l884 1388l442 -1388h-118l-131 401h-700zM1179 520l-200 628l-400 -628h600z" />
    <glyph glyph-name="Aring" unicode="&#xc5;" horiz-adv-x="1594" vert-adv-y="2130" 
d="M1042 1539q-70 0 -111.5 49.5t-30.5 119.5t68 119t127 49q69 0 110 -49t31 -119q-11 -70 -68 -119.5t-126 -49.5zM1059 1646q25 0 45.5 18t25.5 44q4 25 -11.5 43t-40.5 18t-46 -18t-25 -43t11 -43.5t41 -18.5zM511 401l-259 -401h-118l884 1388l442 -1388h-118l-131 401
h-700zM1179 520l-200 628l-400 -628h600z" />
    <glyph glyph-name="AE" unicode="&#xc6;" horiz-adv-x="1959" vert-adv-y="2130" 
d="M513 413l-261 -413h-118l873 1390h1047l-17 -107h-945l-85 -535h887l-16 -106h-887l-85 -535h945l-17 -107h-1052l65 413h-334zM864 520l95 600l-380 -600h285z" />
    <glyph glyph-name="Ccedilla" unicode="&#xc7;" horiz-adv-x="1602" vert-adv-y="2130" 
d="M635 -363l14 90q43 1 79 26.5t50 62.5h-115l27 171q-237 55 -366.5 252.5t-88.5 455.5q24 148 102.5 282.5t191 231.5t256 154t290.5 57q185 0 335 -92.5t231 -255.5l-96 -63q-72 142 -201.5 223t-285.5 81q-168 0 -323.5 -82.5t-260.5 -225t-132 -310.5t33.5 -310.5
t189.5 -225t297 -82.5q156 0 310.5 80.5t271.5 223.5l76 -63q-132 -163 -311 -255.5t-364 -92.5q-35 0 -68 3l-11 -68h118l-12 -74q-12 -78 -80.5 -134.5t-156.5 -59.5z" />
    <glyph glyph-name="Egrave" unicode="&#xc8;" horiz-adv-x="1302" vert-adv-y="2130" 
d="M833 1859l256 -237l-83 -82l-253 236zM1194 107l-17 -107h-1052l220 1390h1052l-17 -107h-945l-85 -535h888l-16 -106h-888l-85 -535h945z" />
    <glyph glyph-name="Eacute" unicode="&#xc9;" horiz-adv-x="1302" vert-adv-y="2130" 
d="M1056 1859l56 -83l-329 -236l-54 82zM1194 107l-17 -107h-1052l220 1390h1052l-17 -107h-945l-85 -535h888l-16 -106h-888l-85 -535h945z" />
    <glyph glyph-name="Ecircumflex" unicode="&#xca;" horiz-adv-x="1302" vert-adv-y="2130" 
d="M1088 1562l-166 142l-212 -142l-57 81l290 196l227 -196zM1194 107l-17 -107h-1052l220 1390h1052l-17 -107h-945l-85 -535h888l-16 -106h-888l-85 -535h945z" />
    <glyph glyph-name="Edieresis" unicode="&#xcb;" horiz-adv-x="1302" vert-adv-y="2130" 
d="M766 1571q-31 0 -50 22.5t-14 52.5q5 31 31 53.5t57 22.5q30 0 49 -22.5t14 -53.5q-5 -30 -31 -52.5t-56 -22.5zM1035 1571q-31 0 -50 22.5t-14 52.5q5 31 31 53.5t57 22.5q30 0 49 -22.5t14 -53.5q-5 -30 -31 -52.5t-56 -22.5zM1194 107l-17 -107h-1052l220 1390h1052
l-17 -107h-945l-85 -535h888l-16 -106h-888l-85 -535h945z" />
    <glyph glyph-name="Igrave" unicode="&#xcc;" horiz-adv-x="372" vert-adv-y="2130" 
d="M367 1859l255 -237l-81 -82l-254 236zM459 1390l-220 -1390h-107l220 1390h107z" />
    <glyph glyph-name="Iacute" unicode="&#xcd;" horiz-adv-x="372" vert-adv-y="2130" 
d="M591 1859l55 -83l-329 -236l-54 82zM459 1390l-220 -1390h-107l220 1390h107z" />
    <glyph glyph-name="Icircumflex" unicode="&#xce;" horiz-adv-x="367" vert-adv-y="2130" 
d="M620 1562l-167 142l-212 -142l-56 81l289 196l228 -196zM457 1390l-220 -1390h-108l220 1390h108z" />
    <glyph glyph-name="Idieresis" unicode="&#xcf;" horiz-adv-x="342" vert-adv-y="2130" 
d="M286 1571q-31 0 -50 22.5t-14 52.5q5 31 31 53.5t57 22.5t49.5 -22.5t13.5 -53.5q-5 -30 -31 -52.5t-56 -22.5zM555 1571q-31 0 -50 22.5t-14 52.5q5 31 31 53.5t57 22.5q30 0 49 -22.5t14 -53.5q-5 -30 -31 -52.5t-56 -22.5zM445 1390l-220 -1390h-107l220 1390h107z
" />
    <glyph glyph-name="Ntilde" unicode="&#xd1;" vert-adv-y="2130" 
d="M838 1634l-62 -55l-65 75l65 54q62 56 119 56q56 0 105 -55q19 -22 33 -22q15 0 42 22l62 55l64 -76l-64 -54q-64 -55 -120 -55t-103 55q-17 20 -35 20q-16 0 -41 -20zM406 1098l-174 -1098h-107l220 1388l850 -1108l176 1110h108l-220 -1390z" />
    <glyph glyph-name="Ograve" unicode="&#xd2;" horiz-adv-x="1701" vert-adv-y="2130" 
d="M1033 1859l255 -237l-82 -82l-254 236zM845 -30q-147 0 -272.5 57t-207 154t-118 231.5t-12.5 282.5t102.5 282.5t191 231.5t256 154t290.5 57q148 0 273.5 -57t207.5 -154t118.5 -231.5t12.5 -282.5t-102.5 -282.5t-191.5 -231.5t-256.5 -154t-291.5 -57zM862 77
q168 0 324 82.5t261 225t132 310.5t-33.5 310.5t-190 225t-297.5 82.5t-323.5 -82.5t-260.5 -225t-132 -310.5t33.5 -310.5t189.5 -225t297 -82.5z" />
    <glyph glyph-name="Oacute" unicode="&#xd3;" horiz-adv-x="1701" vert-adv-y="2130" 
d="M1256 1859l56 -83l-329 -236l-55 82zM845 -30q-147 0 -272.5 57t-207 154t-118 231.5t-12.5 282.5t102.5 282.5t191 231.5t256 154t290.5 57q148 0 273.5 -57t207.5 -154t118.5 -231.5t12.5 -282.5t-102.5 -282.5t-191.5 -231.5t-256.5 -154t-291.5 -57zM862 77
q168 0 324 82.5t261 225t132 310.5t-33.5 310.5t-190 225t-297.5 82.5t-323.5 -82.5t-260.5 -225t-132 -310.5t33.5 -310.5t189.5 -225t297 -82.5z" />
    <glyph glyph-name="Ocircumflex" unicode="&#xd4;" horiz-adv-x="1701" vert-adv-y="2130" 
d="M1286 1562l-166 142l-212 -142l-56 81l289 196l228 -196zM845 -30q-147 0 -272.5 57t-207 154t-118 231.5t-12.5 282.5t102.5 282.5t191 231.5t256 154t290.5 57q148 0 273.5 -57t207.5 -154t118.5 -231.5t12.5 -282.5t-102.5 -282.5t-191.5 -231.5t-256.5 -154
t-291.5 -57zM862 77q168 0 324 82.5t261 225t132 310.5t-33.5 310.5t-190 225t-297.5 82.5t-323.5 -82.5t-260.5 -225t-132 -310.5t33.5 -310.5t189.5 -225t297 -82.5z" />
    <glyph glyph-name="Otilde" unicode="&#xd5;" horiz-adv-x="1701" vert-adv-y="2130" 
d="M997 1634l-63 -55l-64 75l66 55q61 55 119 55q56 0 103 -55q22 -22 35 -22q14 0 41 22l61 55l65 -76l-64 -54q-64 -55 -120 -55q-57 0 -103 55q-18 20 -35 20q-16 0 -41 -20zM845 -30q-147 0 -272.5 57t-207 154t-118 231.5t-12.5 282.5t102.5 282.5t191 231.5t256 154
t290.5 57q148 0 273.5 -57t207.5 -154t118.5 -231.5t12.5 -282.5t-102.5 -282.5t-191.5 -231.5t-256.5 -154t-291.5 -57zM862 77q168 0 324 82.5t261 225t132 310.5t-33.5 310.5t-190 225t-297.5 82.5t-323.5 -82.5t-260.5 -225t-132 -310.5t33.5 -310.5t189.5 -225
t297 -82.5z" />
    <glyph glyph-name="Odieresis" unicode="&#xd6;" horiz-adv-x="1701" vert-adv-y="2130" 
d="M965 1571q-30 0 -49 22.5t-14 52.5q4 31 30.5 53.5t56.5 22.5q31 0 50 -22.5t14 -53.5q-5 -30 -31 -52.5t-57 -22.5zM1234 1571q-30 0 -49 22.5t-14 52.5q4 31 30.5 53.5t56.5 22.5q31 0 50 -22.5t14 -53.5q-5 -30 -31 -52.5t-57 -22.5zM845 -30q-147 0 -272.5 57
t-207 154t-118 231.5t-12.5 282.5t102.5 282.5t191 231.5t256 154t290.5 57q148 0 273.5 -57t207.5 -154t118.5 -231.5t12.5 -282.5t-102.5 -282.5t-191.5 -231.5t-256.5 -154t-291.5 -57zM862 77q168 0 324 82.5t261 225t132 310.5t-33.5 310.5t-190 225t-297.5 82.5
t-323.5 -82.5t-260.5 -225t-132 -310.5t33.5 -310.5t189.5 -225t297 -82.5z" />
    <glyph glyph-name="multiply" unicode="&#xd7;" horiz-adv-x="1016" vert-adv-y="2130" 
d="M796 290l-204 243l-280 -243l-63 75l280 242l-204 242l87 75l204 -242l280 242l63 -75l-281 -242l205 -242z" />
    <glyph glyph-name="Oslash" unicode="&#xd8;" horiz-adv-x="1701" vert-adv-y="2130" 
d="M658 -5l-36 -71h-114l55 107q-183 86 -272.5 267t-55.5 397q24 148 102.5 282.5t191 231.5t256 154t290.5 57q99 0 187 -25l37 71h115l-56 -107q184 -87 273.5 -267.5t55.5 -396.5q-24 -148 -102.5 -282.5t-191.5 -231.5t-256.5 -154t-291.5 -57q-96 0 -187 25zM615 132
l596 1161q-75 20 -153 20q-168 0 -323.5 -82.5t-260.5 -225t-132 -310.5q-28 -182 46 -334.5t227 -228.5zM862 77q168 0 324 82.5t261 225t132 310.5q29 181 -45.5 334t-226.5 229l-596 -1161q74 -20 151 -20z" />
    <glyph glyph-name="Ugrave" unicode="&#xd9;" vert-adv-y="2130" 
d="M873 1859l256 -237l-83 -82l-253 236zM687 -30q-116 0 -214 45t-161.5 120.5t-91.5 180.5t-10 220l135 854h107l-135 -854q-30 -190 83.5 -324.5t303.5 -134.5t346 134.5t186 324.5l135 854h108l-135 -854q-18 -115 -80 -220t-150 -180.5t-200 -120.5t-227 -45z" />
    <glyph glyph-name="Uacute" unicode="&#xda;" vert-adv-y="2130" 
d="M1096 1859l57 -83l-330 -236l-54 82zM687 -30q-116 0 -214 45t-161.5 120.5t-91.5 180.5t-10 220l135 854h107l-135 -854q-30 -190 83.5 -324.5t303.5 -134.5t346 134.5t186 324.5l135 854h108l-135 -854q-18 -115 -80 -220t-150 -180.5t-200 -120.5t-227 -45z" />
    <glyph glyph-name="Ucircumflex" unicode="&#xdb;" vert-adv-y="2130" 
d="M1128 1562l-166 142l-212 -142l-57 81l290 196l227 -196zM687 -30q-116 0 -214 45t-161.5 120.5t-91.5 180.5t-10 220l135 854h107l-135 -854q-30 -190 83.5 -324.5t303.5 -134.5t346 134.5t186 324.5l135 854h108l-135 -854q-18 -115 -80 -220t-150 -180.5t-200 -120.5
t-227 -45z" />
    <glyph glyph-name="Udieresis" unicode="&#xdc;" vert-adv-y="2130" 
d="M807 1571q-31 0 -50 22.5t-14 52.5q5 31 31 53.5t57 22.5q30 0 49 -22.5t14 -53.5q-5 -30 -31 -52.5t-56 -22.5zM1076 1571q-31 0 -50 22.5t-14 52.5q5 31 31 53.5t57 22.5q30 0 49 -22.5t14 -53.5q-5 -30 -31 -52.5t-56 -22.5zM687 -30q-116 0 -214 45t-161.5 120.5
t-91.5 180.5t-10 220l135 854h107l-135 -854q-30 -190 83.5 -324.5t303.5 -134.5t346 134.5t186 324.5l135 854h108l-135 -854q-18 -115 -80 -220t-150 -180.5t-200 -120.5t-227 -45z" />
    <glyph glyph-name="Yacute" unicode="&#xdd;" horiz-adv-x="1517" vert-adv-y="2130" 
d="M1194 1859l56 -83l-330 -236l-55 82zM928 540l-86 -540h-107l86 540l-462 850h133l398 -745l636 745h132z" />
    <glyph glyph-name="germandbls" unicode="&#xdf;" horiz-adv-x="1315" vert-adv-y="1700" 
d="M414 1021l-210 -1326h-106l214 1350q36 159 193 257.5t375 98.5q226 0 350.5 -105.5t98.5 -271.5q-16 -103 -86.5 -187t-181.5 -134q106 -50 155.5 -140t31.5 -201q-27 -173 -198 -282.5t-412 -112.5l16 105q195 3 331 83t156 205q18 118 -74 205.5t-270 89.5l-13 -1
l-129 -2l15 96l127 -4h13q173 0 286.5 83.5t131.5 198.5q19 121 -81.5 197t-283.5 76q-181 0 -305 -77t-144 -201z" />
    <glyph glyph-name="agrave" unicode="&#xe0;" horiz-adv-x="1026" vert-adv-y="2130" 
d="M654 1430l251 -232l-81 -82l-249 232zM514 -18q-164 0 -263.5 90t-79.5 217q21 133 160 225t315 92h244l8 49q6 94 -53 153t-170 59q-108 0 -205.5 -58.5t-123.5 -164.5h-107q38 151 171.5 239.5t282.5 88.5q168 0 250 -92t57 -250l-100 -630h-106l13 84
q-130 -102 -293 -102zM527 87q109 0 199.5 58t112.5 140l34 215h-244q-132 0 -235 -60.5t-117 -148.5q-13 -83 60.5 -143.5t189.5 -60.5z" />
    <glyph glyph-name="aacute" unicode="&#xe1;" horiz-adv-x="1026" vert-adv-y="2130" 
d="M849 1430l55 -82l-324 -232l-53 82zM514 -18q-164 0 -263.5 90t-79.5 217q21 133 160 225t315 92h244l8 49q6 94 -53 153t-170 59q-108 0 -205.5 -58.5t-123.5 -164.5h-107q38 151 171.5 239.5t282.5 88.5q168 0 250 -92t57 -250l-100 -630h-106l13 84
q-130 -102 -293 -102zM527 87q109 0 199.5 58t112.5 140l34 215h-244q-132 0 -235 -60.5t-117 -148.5q-13 -83 60.5 -143.5t189.5 -60.5z" />
    <glyph glyph-name="acircumflex" unicode="&#xe2;" horiz-adv-x="1026" vert-adv-y="2130" 
d="M880 1138l-165 139l-207 -139l-56 81l284 192l224 -192zM514 -18q-164 0 -263.5 90t-79.5 217q21 133 160 225t315 92h244l8 49q6 94 -53 153t-170 59q-108 0 -205.5 -58.5t-123.5 -164.5h-107q38 151 171.5 239.5t282.5 88.5q168 0 250 -92t57 -250l-100 -630h-106
l13 84q-130 -102 -293 -102zM527 87q109 0 199.5 58t112.5 140l34 215h-244q-132 0 -235 -60.5t-117 -148.5q-13 -83 60.5 -143.5t189.5 -60.5z" />
    <glyph glyph-name="atilde" unicode="&#xe3;" horiz-adv-x="1026" vert-adv-y="2130" 
d="M594 1209l-60 -55l-64 76l63 53q65 54 118 54q56 0 102 -54q18 -20 34 -20t39 20l63 55l63 -76l-65 -53q-63 -55 -117 -55q-53 0 -102 55q-18 20 -33 20q-18 -2 -41 -20zM514 -18q-164 0 -263.5 90t-79.5 217q21 133 160 225t315 92h244l8 49q6 94 -53 153t-170 59
q-108 0 -205.5 -58.5t-123.5 -164.5h-107q38 151 171.5 239.5t282.5 88.5q168 0 250 -92t57 -250l-100 -630h-106l13 84q-130 -102 -293 -102zM527 87q109 0 199.5 58t112.5 140l34 215h-244q-132 0 -235 -60.5t-117 -148.5q-13 -83 60.5 -143.5t189.5 -60.5z" />
    <glyph glyph-name="adieresis" unicode="&#xe4;" horiz-adv-x="1026" vert-adv-y="2130" 
d="M563 1146q-31 0 -49.5 23t-13.5 53t30 52t56 22q30 0 48.5 -22t14.5 -52q-5 -30 -30.5 -53t-55.5 -23zM827 1146q-30 0 -49 23t-14 53q4 30 30 52t56 22t48.5 -22t14.5 -52q-5 -30 -30.5 -53t-55.5 -23zM514 -18q-164 0 -263.5 90t-79.5 217q21 133 160 225t315 92h244
l8 49q6 94 -53 153t-170 59q-108 0 -205.5 -58.5t-123.5 -164.5h-107q38 151 171.5 239.5t282.5 88.5q168 0 250 -92t57 -250l-100 -630h-106l13 84q-130 -102 -293 -102zM527 87q109 0 199.5 58t112.5 140l34 215h-244q-132 0 -235 -60.5t-117 -148.5q-13 -83 60.5 -143.5
t189.5 -60.5z" />
    <glyph glyph-name="aring" unicode="&#xe5;" horiz-adv-x="1026" vert-adv-y="2130" 
d="M690 1115q-69 0 -109.5 49t-29.5 118q11 68 66.5 116.5t124.5 48.5t110 -48.5t30 -116.5q-11 -69 -67 -118t-125 -49zM707 1222q25 0 45 17.5t24 42.5q4 24 -11 41.5t-40 17.5q-24 0 -44.5 -17.5t-24.5 -41.5q-4 -25 11.5 -42.5t39.5 -17.5zM514 -18q-164 0 -263.5 90
t-79.5 217q21 133 160 225t315 92h244l8 49q6 94 -53 153t-170 59q-108 0 -205.5 -58.5t-123.5 -164.5h-107q38 151 171.5 239.5t282.5 88.5q168 0 250 -92t57 -250l-100 -630h-106l13 84q-130 -102 -293 -102zM527 87q109 0 199.5 58t112.5 140l34 215h-244
q-132 0 -235 -60.5t-117 -148.5q-13 -83 60.5 -143.5t189.5 -60.5z" />
    <glyph glyph-name="ae" unicode="&#xe6;" horiz-adv-x="1872" vert-adv-y="2130" 
d="M1285 87q119 0 226 74t171 201l96 -34q-80 -159 -217.5 -252.5t-292.5 -93.5q-117 0 -206.5 50t-140.5 139l-22 -171h-105l13 84q-130 -102 -293 -102q-164 0 -263.5 90t-79.5 217q21 133 160 225t315 92h244l8 49q6 94 -53 153t-170 59q-108 0 -205.5 -58.5
t-123.5 -164.5h-107q25 101 99 177.5t166.5 113.5t187.5 37q124 0 203.5 -51.5t102.5 -146.5l-1 -2q79 101 191.5 158.5t238.5 57.5q202 0 313.5 -148.5t80.5 -369.5h-845q-20 -165 67.5 -274t241.5 -109zM1411 883q-132 0 -245.5 -86.5t-163.5 -220.5h720q-7 134 -93 220.5
t-218 86.5zM839 285l34 215h-244q-132 0 -235 -60.5t-117 -148.5q-13 -83 60.5 -143.5t189.5 -60.5q109 0 199.5 58t112.5 140z" />
    <glyph glyph-name="ccedilla" unicode="&#xe7;" horiz-adv-x="1138" vert-adv-y="2130" 
d="M417 -290l8 53q44 5 79 29t47 56h-112l24 154q-147 44 -218 175.5t-43 307.5q23 143 102.5 258t198.5 180t253 65q121 0 218.5 -60.5t152.5 -170.5l-98 -59q-44 87 -120.5 136t-168.5 49q-158 0 -281.5 -114t-150.5 -284t60.5 -284t245.5 -114q92 0 184 49t163 136
l80 -59q-90 -110 -206.5 -170.5t-237.5 -60.5q-33 0 -50 2l-7 -49h113l-12 -72q-12 -74 -78.5 -122t-145.5 -31z" />
    <glyph glyph-name="egrave" unicode="&#xe8;" horiz-adv-x="1201" vert-adv-y="2130" 
d="M717 1430l251 -232l-81 -82l-249 232zM597 -18q-204 0 -316.5 143t-78.5 360q35 217 192 360t362 143q202 0 313.5 -148.5t80.5 -369.5h-845q-20 -165 67.5 -274t241.5 -109q119 0 226 74t171 201l96 -34q-80 -159 -217.5 -252.5t-292.5 -93.5zM331 576h720
q-7 134 -93 220.5t-218 86.5t-245.5 -86.5t-163.5 -220.5z" />
    <glyph glyph-name="eacute" unicode="&#xe9;" horiz-adv-x="1201" vert-adv-y="2130" 
d="M936 1430l56 -82l-324 -232l-54 82zM597 -18q-204 0 -316.5 143t-78.5 360q35 217 192 360t362 143q202 0 313.5 -148.5t80.5 -369.5h-845q-20 -165 67.5 -274t241.5 -109q119 0 226 74t171 201l96 -34q-80 -159 -217.5 -252.5t-292.5 -93.5zM331 576h720
q-7 134 -93 220.5t-218 86.5t-245.5 -86.5t-163.5 -220.5z" />
    <glyph glyph-name="ecircumflex" unicode="&#xea;" horiz-adv-x="1201" vert-adv-y="2130" 
d="M967 1138l-165 139l-207 -139l-55 81l283 192l225 -192zM597 -18q-204 0 -316.5 143t-78.5 360q35 217 192 360t362 143q202 0 313.5 -148.5t80.5 -369.5h-845q-20 -165 67.5 -274t241.5 -109q119 0 226 74t171 201l96 -34q-80 -159 -217.5 -252.5t-292.5 -93.5zM331 576
h720q-7 134 -93 220.5t-218 86.5t-245.5 -86.5t-163.5 -220.5z" />
    <glyph glyph-name="edieresis" unicode="&#xeb;" horiz-adv-x="1201" vert-adv-y="2130" 
d="M651 1146q-31 0 -50 23t-14 53t30.5 52t56.5 22q30 0 48.5 -22t14.5 -52q-5 -30 -30.5 -53t-55.5 -23zM914 1146q-30 0 -48.5 23t-13.5 53t30 52t55 22t49 -22t15 -52q-5 -30 -31 -53t-56 -23zM597 -18q-204 0 -316.5 143t-78.5 360q35 217 192 360t362 143
q202 0 313.5 -148.5t80.5 -369.5h-845q-20 -165 67.5 -274t241.5 -109q119 0 226 74t171 201l96 -34q-80 -159 -217.5 -252.5t-292.5 -93.5zM331 576h720q-7 134 -93 220.5t-218 86.5t-245.5 -86.5t-163.5 -220.5z" />
    <glyph glyph-name="igrave" unicode="&#xec;" horiz-adv-x="412" vert-adv-y="2130" 
d="M321 1430l253 -233l-82 -81l-249 232zM413 970l-154 -970h-107l154 970h107z" />
    <glyph glyph-name="iacute" unicode="&#xed;" horiz-adv-x="412" vert-adv-y="2130" 
d="M541 1430l57 -82l-326 -232l-53 82zM413 970l-154 -970h-107l154 970h107z" />
    <glyph glyph-name="icircumflex" unicode="&#xee;" horiz-adv-x="404" vert-adv-y="2130" 
d="M568 1138l-164 139l-208 -139l-55 81l284 192l223 -192zM409 970l-154 -970h-107l154 970h107z" />
    <glyph glyph-name="idieresis" unicode="&#xef;" horiz-adv-x="382" vert-adv-y="2130" 
d="M241 1146q-31 0 -49.5 23t-13.5 53t30 52t56 22q30 0 48.5 -22t14.5 -52q-5 -30 -30.5 -53t-55.5 -23zM505 1146q-30 0 -49 23t-14 53q4 30 30 52t56 22t48.5 -22t14.5 -52q-5 -30 -30.5 -53t-55.5 -23zM398 970l-154 -970h-106l154 970h106z" />
    <glyph glyph-name="ntilde" unicode="&#xf1;" horiz-adv-x="988" vert-adv-y="2130" 
d="M576 1209l-62 -55l-63 76l64 53q63 54 118 54t101 -54q18 -20 33 -20q17 0 40 20l62 55l64 -76l-64 -53q-64 -55 -118 -55q-53 0 -102 55q-18 20 -33 20t-40 -20zM330 621l-98 -621h-107l153 968h106l-14 -89q123 109 280 109q154 0 245 -107t66 -260l-98 -621h-106
l98 621q17 109 -47 185.5t-173 76.5t-198.5 -76.5t-106.5 -185.5z" />
    <glyph glyph-name="ograve" unicode="&#xf2;" horiz-adv-x="1201" vert-adv-y="2130" 
d="M717 1430l251 -232l-81 -82l-249 232zM597 -18q-204 0 -316.5 143t-78.5 360q23 143 102.5 258t198.5 180t253 65q135 0 234 -65t143 -180.5t21 -257.5q-23 -143 -103 -258t-199.5 -180t-254.5 -65zM614 87q159 0 282.5 114t150.5 284t-60.5 284t-246.5 114
q-158 0 -281.5 -114t-150.5 -284t60.5 -284t245.5 -114z" />
    <glyph glyph-name="oacute" unicode="&#xf3;" horiz-adv-x="1201" vert-adv-y="2130" 
d="M936 1430l56 -82l-324 -232l-54 82zM597 -18q-204 0 -316.5 143t-78.5 360q23 143 102.5 258t198.5 180t253 65q135 0 234 -65t143 -180.5t21 -257.5q-23 -143 -103 -258t-199.5 -180t-254.5 -65zM614 87q159 0 282.5 114t150.5 284t-60.5 284t-246.5 114
q-158 0 -281.5 -114t-150.5 -284t60.5 -284t245.5 -114z" />
    <glyph glyph-name="ocircumflex" unicode="&#xf4;" horiz-adv-x="1201" vert-adv-y="2130" 
d="M967 1138l-165 139l-207 -139l-55 81l283 192l225 -192zM597 -18q-204 0 -316.5 143t-78.5 360q23 143 102.5 258t198.5 180t253 65q135 0 234 -65t143 -180.5t21 -257.5q-23 -143 -103 -258t-199.5 -180t-254.5 -65zM614 87q159 0 282.5 114t150.5 284t-60.5 284
t-246.5 114q-158 0 -281.5 -114t-150.5 -284t60.5 -284t245.5 -114z" />
    <glyph glyph-name="otilde" unicode="&#xf5;" horiz-adv-x="1201" vert-adv-y="2130" 
d="M682 1209l-61 -55l-64 76l63 53q65 54 119 54q55 0 101 -54q18 -20 34 -20t39 20l63 55l63 -76l-64 -53q-64 -55 -118 -55q-53 0 -102 55q-18 20 -32 20q-18 -1 -41 -20zM597 -18q-204 0 -316.5 143t-78.5 360q23 143 102.5 258t198.5 180t253 65q135 0 234 -65
t143 -180.5t21 -257.5q-23 -143 -103 -258t-199.5 -180t-254.5 -65zM614 87q159 0 282.5 114t150.5 284t-60.5 284t-246.5 114q-158 0 -281.5 -114t-150.5 -284t60.5 -284t245.5 -114z" />
    <glyph glyph-name="odieresis" unicode="&#xf6;" horiz-adv-x="1201" vert-adv-y="2130" 
d="M652 1146q-31 0 -50 23t-14 53t30.5 52t56.5 22q30 0 48.5 -22t14.5 -52q-5 -30 -30.5 -53t-55.5 -23zM915 1146q-30 0 -49 23t-14 53q4 30 30 52t56 22t49 -22t15 -52q-5 -30 -31 -53t-56 -23zM597 -18q-204 0 -316.5 143t-78.5 360q23 143 102.5 258t198.5 180t253 65
q135 0 234 -65t143 -180.5t21 -257.5q-23 -143 -103 -258t-199.5 -180t-254.5 -65zM614 87q159 0 282.5 114t150.5 284t-60.5 284t-246.5 114q-158 0 -281.5 -114t-150.5 -284t60.5 -284t245.5 -114z" />
    <glyph glyph-name="divide" unicode="&#xf7;" horiz-adv-x="1176" vert-adv-y="2130" 
d="M717 821q-30 0 -48.5 22t-13.5 53q4 30 30 52t56 22t48.5 -22t14.5 -52q-5 -31 -31 -53t-56 -22zM1088 660l-17 -106h-790l17 106h790zM629 267q-30 0 -48 22t-14 53q5 30 30.5 52t55.5 22t49 -22t14 -52q-4 -31 -30.5 -53t-56.5 -22z" />
    <glyph glyph-name="oslash" unicode="&#xf8;" horiz-adv-x="1201" vert-adv-y="2130" 
d="M424 16l-47 -92h-114l74 144q-83 67 -119.5 176t-15.5 241q23 143 102.5 258t198.5 180t253 65q26 0 51 -3l65 127h114l-76 -149q136 -49 203.5 -178t40.5 -300q-23 -143 -103 -258t-199.5 -180t-254.5 -65q-94 0 -173 34zM392 174l363 709h-15q-158 0 -281.5 -114
t-150.5 -284q-15 -95 7.5 -175.5t76.5 -135.5zM614 87q159 0 282.5 114t150.5 284q21 134 -31 236.5t-157 141.5l-384 -747q61 -29 139 -29z" />
    <glyph glyph-name="ugrave" unicode="&#xf9;" horiz-adv-x="988" vert-adv-y="2130" 
d="M610 1430l252 -233l-82 -81l-248 232zM492 -19q-154 0 -245 107t-67 261l98 620h106l-98 -620q-17 -109 48 -186t174 -77t198 77t106 186l98 620h106l-153 -968h-106l14 89q-123 -109 -279 -109z" />
    <glyph glyph-name="uacute" unicode="&#xfa;" horiz-adv-x="988" vert-adv-y="2130" 
d="M829 1430l57 -82l-325 -232l-53 82zM492 -19q-154 0 -245 107t-67 261l98 620h106l-98 -620q-17 -109 48 -186t174 -77t198 77t106 186l98 620h106l-153 -968h-106l14 89q-123 -109 -279 -109z" />
    <glyph glyph-name="ucircumflex" unicode="&#xfb;" horiz-adv-x="988" vert-adv-y="2130" 
d="M860 1138l-163 139l-209 -139l-54 81l284 192l224 -192zM492 -19q-154 0 -245 107t-67 261l98 620h106l-98 -620q-17 -109 48 -186t174 -77t198 77t106 186l98 620h106l-153 -968h-106l14 89q-123 -109 -279 -109z" />
    <glyph glyph-name="udieresis" unicode="&#xfc;" horiz-adv-x="988" vert-adv-y="2130" 
d="M544 1146q-30 0 -48.5 23t-13.5 53t30 52t55 22q31 0 50 -22t14 -52t-31 -53t-56 -23zM809 1146q-31 0 -50 23t-14 53t30.5 52t56.5 22q30 0 48.5 -22t14.5 -52q-5 -30 -30.5 -53t-55.5 -23zM492 -19q-154 0 -245 107t-67 261l98 620h106l-98 -620q-17 -109 48 -186
t174 -77t198 77t106 186l98 620h106l-153 -968h-106l14 89q-123 -109 -279 -109z" />
    <glyph glyph-name="yacute" unicode="&#xfd;" horiz-adv-x="1187" vert-adv-y="2130" 
d="M928 1430l57 -82l-325 -232l-54 82zM1207 970l-856 -1374h-105l310 494l-268 880h117l222 -761l463 761h117z" />
    <glyph glyph-name="ydieresis" unicode="&#xff;" horiz-adv-x="1187" vert-adv-y="2130" 
d="M644 1146q-30 0 -48.5 23t-13.5 53t30 52t55 22q31 0 50 -22t14 -52t-31 -53t-56 -23zM908 1146q-31 0 -49.5 23t-13.5 53t30 52t56 22q30 0 48.5 -22t14.5 -52q-5 -30 -30.5 -53t-55.5 -23zM1207 970l-856 -1374h-105l310 494l-268 880h117l222 -761l463 761h117z" />
    <glyph glyph-name="Amacron" unicode="&#x100;" horiz-adv-x="1594" vert-adv-y="2130" 
d="M1279 1682l-17 -108h-432l17 108h432zM511 401l-259 -401h-118l884 1388l442 -1388h-118l-131 401h-700zM1179 520l-200 628l-400 -628h600z" />
    <glyph glyph-name="amacron" unicode="&#x101;" horiz-adv-x="1026" vert-adv-y="2130" 
d="M925 1257l-17 -107h-426l17 107h426zM514 -18q-164 0 -263.5 90t-79.5 217q21 133 160 225t315 92h244l8 49q6 94 -53 153t-170 59q-108 0 -205.5 -58.5t-123.5 -164.5h-107q38 151 171.5 239.5t282.5 88.5q168 0 250 -92t57 -250l-100 -630h-106l13 84
q-130 -102 -293 -102zM527 87q109 0 199.5 58t112.5 140l34 215h-244q-132 0 -235 -60.5t-117 -148.5q-13 -83 60.5 -143.5t189.5 -60.5z" />
    <glyph glyph-name="Abreve" unicode="&#x102;" horiz-adv-x="1594" vert-adv-y="2130" 
d="M1044 1551q-100 0 -161 77t-50 189h106q-5 -68 30 -113.5t92 -45.5q56 0 104.5 45.5t65.5 113.5h107q-26 -112 -110.5 -189t-183.5 -77zM511 401l-259 -401h-118l884 1388l442 -1388h-118l-131 401h-700zM1179 520l-200 628l-400 -628h600z" />
    <glyph glyph-name="abreve" unicode="&#x103;" horiz-adv-x="1026" vert-adv-y="2130" 
d="M691 1127q-97 0 -157 76t-50 186h107q-5 -66 28.5 -111t88.5 -45t103.5 45t64.5 111h106q-25 -110 -109 -186t-182 -76zM514 -18q-164 0 -263.5 90t-79.5 217q21 133 160 225t315 92h244l8 49q6 94 -53 153t-170 59q-108 0 -205.5 -58.5t-123.5 -164.5h-107
q38 151 171.5 239.5t282.5 88.5q168 0 250 -92t57 -250l-100 -630h-106l13 84q-130 -102 -293 -102zM527 87q109 0 199.5 58t112.5 140l34 215h-244q-132 0 -235 -60.5t-117 -148.5q-13 -83 60.5 -143.5t189.5 -60.5z" />
    <glyph glyph-name="Cacute" unicode="&#x106;" horiz-adv-x="1602" vert-adv-y="2130" 
d="M1201 1859l56 -83l-329 -236l-54 82zM845 -30q-147 0 -272.5 57t-207 154t-118 231.5t-12.5 282.5t102.5 282.5t191 231.5t256 154t290.5 57q185 0 335 -92.5t231 -255.5l-96 -63q-72 142 -201.5 223t-285.5 81q-168 0 -323.5 -82.5t-260.5 -225t-132 -310.5t33.5 -310.5
t189.5 -225t297 -82.5q156 0 310.5 80.5t271.5 223.5l76 -63q-132 -163 -311 -255.5t-364 -92.5z" />
    <glyph glyph-name="cacute" unicode="&#x107;" horiz-adv-x="1138" vert-adv-y="2130" 
d="M898 1430l56 -82l-324 -232l-54 82zM597 -18q-204 0 -316.5 143t-78.5 360q23 143 102.5 258t198.5 180t253 65q121 0 218.5 -60.5t152.5 -170.5l-98 -59q-44 87 -120.5 136t-168.5 49q-158 0 -281.5 -114t-150.5 -284t60.5 -284t245.5 -114q92 0 184 49t163 136l80 -59
q-90 -110 -206.5 -170.5t-237.5 -60.5z" />
    <glyph glyph-name="Ccircumflex" unicode="&#x108;" horiz-adv-x="1602" vert-adv-y="2130" 
d="M1233 1562l-167 142l-213 -142l-55 82l290 195l226 -195zM845 -30q-147 0 -272.5 57t-207 154t-118 231.5t-12.5 282.5t102.5 282.5t191 231.5t256 154t290.5 57q185 0 335 -92.5t231 -255.5l-96 -63q-72 142 -201.5 223t-285.5 81q-168 0 -323.5 -82.5t-260.5 -225
t-132 -310.5t33.5 -310.5t189.5 -225t297 -82.5q156 0 310.5 80.5t271.5 223.5l76 -63q-132 -163 -311 -255.5t-364 -92.5z" />
    <glyph glyph-name="ccircumflex" unicode="&#x109;" horiz-adv-x="1138" vert-adv-y="2130" 
d="M929 1138l-164 139l-208 -139l-55 81l285 192l223 -192zM597 -18q-204 0 -316.5 143t-78.5 360q23 143 102.5 258t198.5 180t253 65q121 0 218.5 -60.5t152.5 -170.5l-98 -59q-44 87 -120.5 136t-168.5 49q-158 0 -281.5 -114t-150.5 -284t60.5 -284t245.5 -114
q92 0 184 49t163 136l80 -59q-90 -110 -206.5 -170.5t-237.5 -60.5z" />
    <glyph glyph-name="Cdotaccent" unicode="&#x10a;" horiz-adv-x="1602" vert-adv-y="2130" 
d="M1050 1603q-31 0 -49.5 22t-13.5 53t30.5 53.5t56.5 22.5t49.5 -22.5t13.5 -53.5t-30.5 -53t-56.5 -22zM845 -30q-147 0 -272.5 57t-207 154t-118 231.5t-12.5 282.5t102.5 282.5t191 231.5t256 154t290.5 57q185 0 335 -92.5t231 -255.5l-96 -63q-72 142 -201.5 223
t-285.5 81q-168 0 -323.5 -82.5t-260.5 -225t-132 -310.5t33.5 -310.5t189.5 -225t297 -82.5q156 0 310.5 80.5t271.5 223.5l76 -63q-132 -163 -311 -255.5t-364 -92.5z" />
    <glyph glyph-name="cdotaccent" unicode="&#x10b;" horiz-adv-x="1138" vert-adv-y="2130" 
d="M751 1178q-32 0 -50.5 22t-14.5 53q5 30 31 52t57 22q30 0 48.5 -22t13.5 -52q-4 -31 -29.5 -53t-55.5 -22zM597 -18q-204 0 -316.5 143t-78.5 360q23 143 102.5 258t198.5 180t253 65q121 0 218.5 -60.5t152.5 -170.5l-98 -59q-44 87 -120.5 136t-168.5 49
q-158 0 -281.5 -114t-150.5 -284t60.5 -284t245.5 -114q92 0 184 49t163 136l80 -59q-90 -110 -206.5 -170.5t-237.5 -60.5z" />
    <glyph glyph-name="Ccaron" unicode="&#x10c;" horiz-adv-x="1602" vert-adv-y="2130" 
d="M1275 1824l55 -82l-288 -195l-228 195l81 82l167 -144zM845 -30q-147 0 -272.5 57t-207 154t-118 231.5t-12.5 282.5t102.5 282.5t191 231.5t256 154t290.5 57q185 0 335 -92.5t231 -255.5l-96 -63q-72 142 -201.5 223t-285.5 81q-168 0 -323.5 -82.5t-260.5 -225
t-132 -310.5t33.5 -310.5t189.5 -225t297 -82.5q156 0 310.5 80.5t271.5 223.5l76 -63q-132 -163 -311 -255.5t-364 -92.5z" />
    <glyph glyph-name="ccaron" unicode="&#x10d;" horiz-adv-x="1138" vert-adv-y="2130" 
d="M970 1396l55 -81l-283 -192l-225 192l81 81l164 -140zM597 -18q-204 0 -316.5 143t-78.5 360q23 143 102.5 258t198.5 180t253 65q121 0 218.5 -60.5t152.5 -170.5l-98 -59q-44 87 -120.5 136t-168.5 49q-158 0 -281.5 -114t-150.5 -284t60.5 -284t245.5 -114
q92 0 184 49t163 136l80 -59q-90 -110 -206.5 -170.5t-237.5 -60.5z" />
    <glyph glyph-name="Emacron" unicode="&#x112;" horiz-adv-x="1302" vert-adv-y="2130" 
d="M1134 1682l-17 -108h-433l17 108h433zM1194 107l-17 -107h-1052l220 1390h1052l-17 -107h-945l-85 -535h888l-16 -106h-888l-85 -535h945z" />
    <glyph glyph-name="emacron" unicode="&#x113;" horiz-adv-x="1201" vert-adv-y="2130" 
d="M1012 1257l-17 -107h-425l17 107h425zM597 -18q-204 0 -316.5 143t-78.5 360q35 217 192 360t362 143q202 0 313.5 -148.5t80.5 -369.5h-845q-20 -165 67.5 -274t241.5 -109q119 0 226 74t171 201l96 -34q-80 -159 -217.5 -252.5t-292.5 -93.5zM331 576h720
q-7 134 -93 220.5t-218 86.5t-245.5 -86.5t-163.5 -220.5z" />
    <glyph glyph-name="Ebreve" unicode="&#x114;" horiz-adv-x="1302" vert-adv-y="2130" 
d="M898 1551q-99 0 -160 77t-51 189h106q-5 -68 30 -113.5t92 -45.5q56 0 105 46t65 113h107q-25 -112 -110 -189t-184 -77zM1194 107l-17 -107h-1052l220 1390h1052l-17 -107h-945l-85 -535h888l-16 -106h-888l-85 -535h945z" />
    <glyph glyph-name="ebreve" unicode="&#x115;" horiz-adv-x="1201" vert-adv-y="2130" 
d="M778 1127q-97 0 -156.5 75.5t-49.5 186.5h106q-5 -66 28.5 -111t88.5 -45q56 0 104 45t65 111h105q-25 -110 -109 -186t-182 -76zM597 -18q-204 0 -316.5 143t-78.5 360q35 217 192 360t362 143q202 0 313.5 -148.5t80.5 -369.5h-845q-20 -165 67.5 -274t241.5 -109
q119 0 226 74t171 201l96 -34q-80 -159 -217.5 -252.5t-292.5 -93.5zM331 576h720q-7 134 -93 220.5t-218 86.5t-245.5 -86.5t-163.5 -220.5z" />
    <glyph glyph-name="Edotaccent" unicode="&#x116;" horiz-adv-x="1302" vert-adv-y="2130" 
d="M906 1603q-31 0 -50 22t-14 53t31 53.5t57 22.5q30 0 49 -22.5t14 -53.5t-31 -53t-56 -22zM1194 107l-17 -107h-1052l220 1390h1052l-17 -107h-945l-85 -535h888l-16 -106h-888l-85 -535h945z" />
    <glyph glyph-name="edotaccent" unicode="&#x117;" horiz-adv-x="1201" vert-adv-y="2130" 
d="M787 1178q-30 0 -48.5 22t-14.5 53q5 30 30.5 52t55.5 22q31 0 49.5 -22t13.5 -52q-4 -31 -29 -53t-57 -22zM597 -18q-204 0 -316.5 143t-78.5 360q35 217 192 360t362 143q202 0 313.5 -148.5t80.5 -369.5h-845q-20 -165 67.5 -274t241.5 -109q119 0 226 74t171 201
l96 -34q-80 -159 -217.5 -252.5t-292.5 -93.5zM331 576h720q-7 134 -93 220.5t-218 86.5t-245.5 -86.5t-163.5 -220.5z" />
    <glyph glyph-name="Ecaron" unicode="&#x11a;" horiz-adv-x="1302" vert-adv-y="2130" 
d="M1130 1824l56 -82l-289 -195l-228 195l83 82l166 -144zM1194 107l-17 -107h-1052l220 1390h1052l-17 -107h-945l-85 -535h888l-16 -106h-888l-85 -535h945z" />
    <glyph glyph-name="ecaron" unicode="&#x11b;" horiz-adv-x="1201" vert-adv-y="2130" 
d="M1008 1396l55 -81l-285 -192l-223 192l81 81l163 -140zM597 -18q-204 0 -316.5 143t-78.5 360q35 217 192 360t362 143q202 0 313.5 -148.5t80.5 -369.5h-845q-20 -165 67.5 -274t241.5 -109q119 0 226 74t171 201l96 -34q-80 -159 -217.5 -252.5t-292.5 -93.5zM331 576
h720q-7 134 -93 220.5t-218 86.5t-245.5 -86.5t-163.5 -220.5z" />
    <glyph glyph-name="Gcircumflex" unicode="&#x11c;" horiz-adv-x="1597" vert-adv-y="2130" 
d="M1233 1562l-167 142l-213 -142l-55 82l290 195l226 -195zM845 -30q-147 0 -272.5 57t-207 154t-118 231.5t-12.5 282.5t102.5 282.5t191 231.5t256 154t290.5 57q185 0 335 -92.5t231 -255.5l-96 -63q-72 142 -201.5 223t-285.5 81q-168 0 -323.5 -82.5t-260.5 -225
t-132 -310.5t33.5 -310.5t189.5 -225t297 -82.5q151 0 296.5 70t252.5 194l45 283h-588l17 108h695l-66 -422q-126 -159 -304 -249.5t-365 -90.5z" />
    <glyph glyph-name="gcircumflex" unicode="&#x11d;" horiz-adv-x="1138" vert-adv-y="2130" 
d="M939 1138l-165 139l-207 -139l-55 81l283 192l224 -192zM526 -404q-147 0 -244.5 79t-126.5 220h111q25 -92 98 -142.5t180 -50.5q147 0 249 85t124 228l23 143q-154 -179 -375 -179q-189 0 -293.5 143.5t-70.5 359.5t184 360.5t339 144.5q109 0 190.5 -47t128.5 -134
l26 166h106l-150 -947q-31 -195 -166.5 -312t-332.5 -117zM581 84q148 0 264 114t143 284q27 171 -53 284.5t-228 113.5q-147 0 -262.5 -113.5t-142.5 -284.5q-27 -170 52.5 -284t226.5 -114z" />
    <glyph glyph-name="Gbreve" unicode="&#x11e;" horiz-adv-x="1597" vert-adv-y="2130" 
d="M1042 1551q-100 0 -161 77t-50 189h107q-5 -68 29.5 -113.5t91.5 -45.5t105.5 45.5t65.5 113.5h107q-26 -112 -111 -189t-184 -77zM845 -30q-147 0 -272.5 57t-207 154t-118 231.5t-12.5 282.5t102.5 282.5t191 231.5t256 154t290.5 57q185 0 335 -92.5t231 -255.5
l-96 -63q-72 142 -201.5 223t-285.5 81q-168 0 -323.5 -82.5t-260.5 -225t-132 -310.5t33.5 -310.5t189.5 -225t297 -82.5q151 0 296.5 70t252.5 194l45 283h-588l17 108h695l-66 -422q-126 -159 -304 -249.5t-365 -90.5z" />
    <glyph glyph-name="gbreve" unicode="&#x11f;" horiz-adv-x="1138" vert-adv-y="2130" 
d="M750 1127q-97 0 -157 76t-49 186h106q-5 -66 28.5 -111t88.5 -45t103.5 45t64.5 111h106q-25 -110 -109 -186t-182 -76zM526 -404q-147 0 -244.5 79t-126.5 220h111q25 -92 98 -142.5t180 -50.5q147 0 249 85t124 228l23 143q-154 -179 -375 -179q-189 0 -293.5 143.5
t-70.5 359.5t184 360.5t339 144.5q109 0 190.5 -47t128.5 -134l26 166h106l-150 -947q-31 -195 -166.5 -312t-332.5 -117zM581 84q148 0 264 114t143 284q27 171 -53 284.5t-228 113.5q-147 0 -262.5 -113.5t-142.5 -284.5q-27 -170 52.5 -284t226.5 -114z" />
    <glyph glyph-name="Gdotaccent" unicode="&#x120;" horiz-adv-x="1597" vert-adv-y="2130" 
d="M1050 1603q-31 0 -49.5 22t-13.5 53t30.5 53.5t56.5 22.5t49.5 -22.5t13.5 -53.5t-30.5 -53t-56.5 -22zM845 -30q-147 0 -272.5 57t-207 154t-118 231.5t-12.5 282.5t102.5 282.5t191 231.5t256 154t290.5 57q185 0 335 -92.5t231 -255.5l-96 -63q-72 142 -201.5 223
t-285.5 81q-168 0 -323.5 -82.5t-260.5 -225t-132 -310.5t33.5 -310.5t189.5 -225t297 -82.5q151 0 296.5 70t252.5 194l45 283h-588l17 108h695l-66 -422q-126 -159 -304 -249.5t-365 -90.5z" />
    <glyph glyph-name="gdotaccent" unicode="&#x121;" horiz-adv-x="1138" vert-adv-y="2130" 
d="M759 1178q-30 0 -48.5 22t-14.5 53q5 30 30.5 52t55.5 22q31 0 49.5 -22t13.5 -52q-4 -31 -29.5 -53t-56.5 -22zM526 -404q-147 0 -244.5 79t-126.5 220h111q25 -92 98 -142.5t180 -50.5q147 0 249 85t124 228l23 143q-154 -179 -375 -179q-189 0 -293.5 143.5
t-70.5 359.5t184 360.5t339 144.5q109 0 190.5 -47t128.5 -134l26 166h106l-150 -947q-31 -195 -166.5 -312t-332.5 -117zM581 84q148 0 264 114t143 284q27 171 -53 284.5t-228 113.5q-147 0 -262.5 -113.5t-142.5 -284.5q-27 -170 52.5 -284t226.5 -114z" />
    <glyph glyph-name="Itilde" unicode="&#x128;" horiz-adv-x="367" vert-adv-y="2130" 
d="M330 1634l-62 -55l-65 75l65 54q62 56 119 56t104 -55q20 -22 34 -22q16 0 41 22l63 55l64 -76l-64 -54q-66 -55 -121 -55q-56 0 -102 55q-20 20 -35 20q-16 0 -41 -20zM457 1390l-220 -1390h-108l220 1390h108z" />
    <glyph glyph-name="itilde" unicode="&#x129;" horiz-adv-x="405" vert-adv-y="2130" 
d="M284 1209l-62 -55l-63 76l63 53q65 54 119 54q55 0 101 -54q18 -20 34 -20t39 20l62 55l64 -76l-65 -53q-63 -55 -117 -55q-55 0 -102 55q-18 20 -33 20t-40 -20zM409 970l-154 -970h-105l154 970h105z" />
    <glyph glyph-name="Imacron" unicode="&#x12a;" horiz-adv-x="343" vert-adv-y="2130" 
d="M654 1682l-17 -108h-433l17 108h433zM445 1390l-220 -1390h-108l220 1390h108z" />
    <glyph glyph-name="imacron" unicode="&#x12b;" horiz-adv-x="381" vert-adv-y="2130" 
d="M602 1257l-17 -107h-425l17 107h425zM398 970l-154 -970h-106l154 970h106z" />
    <glyph glyph-name="Idotaccent" unicode="&#x130;" horiz-adv-x="355" vert-adv-y="2130" 
d="M432 1603q-31 0 -50 22t-14 53t31 53.5t57 22.5t49.5 -22.5t13.5 -53.5t-30.5 -53t-56.5 -22zM451 1390l-220 -1390h-106l220 1390h106z" />
    <glyph glyph-name="dotlessi" unicode="&#x131;" horiz-adv-x="402" vert-adv-y="2130" 
d="M408 970l-154 -970h-106l154 970h106z" />
    <glyph glyph-name="Nacute" unicode="&#x143;" vert-adv-y="2130" 
d="M1096 1859l57 -83l-330 -236l-54 82zM406 1098l-174 -1098h-107l220 1388l850 -1108l176 1110h108l-220 -1390z" />
    <glyph glyph-name="nacute" unicode="&#x144;" horiz-adv-x="988" vert-adv-y="2130" 
d="M829 1430l57 -82l-325 -232l-53 82zM330 621l-98 -621h-107l153 968h106l-14 -89q123 109 280 109q154 0 245 -107t66 -260l-98 -621h-106l98 621q17 109 -47 185.5t-173 76.5t-198.5 -76.5t-106.5 -185.5z" />
    <glyph glyph-name="Ncaron" unicode="&#x147;" vert-adv-y="2130" 
d="M1170 1824l56 -82l-289 -195l-228 195l83 82l166 -144zM406 1098l-174 -1098h-107l220 1388l850 -1108l176 1110h108l-220 -1390z" />
    <glyph glyph-name="ncaron" unicode="&#x148;" horiz-adv-x="988" vert-adv-y="2130" 
d="M901 1396l56 -81l-284 -192l-224 192l80 81l165 -140zM330 621l-98 -621h-107l153 968h106l-14 -89q123 109 280 109q154 0 245 -107t66 -260l-98 -621h-106l98 621q17 109 -47 185.5t-173 76.5t-198.5 -76.5t-106.5 -185.5z" />
    <glyph glyph-name="Omacron" unicode="&#x14c;" horiz-adv-x="1701" vert-adv-y="2130" 
d="M1333 1682l-17 -108h-432l17 108h432zM845 -30q-147 0 -272.5 57t-207 154t-118 231.5t-12.5 282.5t102.5 282.5t191 231.5t256 154t290.5 57q148 0 273.5 -57t207.5 -154t118.5 -231.5t12.5 -282.5t-102.5 -282.5t-191.5 -231.5t-256.5 -154t-291.5 -57zM862 77
q168 0 324 82.5t261 225t132 310.5t-33.5 310.5t-190 225t-297.5 82.5t-323.5 -82.5t-260.5 -225t-132 -310.5t33.5 -310.5t189.5 -225t297 -82.5z" />
    <glyph glyph-name="omacron" unicode="&#x14d;" horiz-adv-x="1201" vert-adv-y="2130" 
d="M1012 1257l-17 -107h-425l17 107h425zM597 -18q-204 0 -316.5 143t-78.5 360q23 143 102.5 258t198.5 180t253 65q135 0 234 -65t143 -180.5t21 -257.5q-23 -143 -103 -258t-199.5 -180t-254.5 -65zM614 87q159 0 282.5 114t150.5 284t-60.5 284t-246.5 114
q-158 0 -281.5 -114t-150.5 -284t60.5 -284t245.5 -114z" />
    <glyph glyph-name="Obreve" unicode="&#x14e;" horiz-adv-x="1701" vert-adv-y="2130" 
d="M1096 1551q-99 0 -160 77t-50 189h107q-5 -68 29.5 -113.5t90.5 -45.5q57 0 106 45.5t66 113.5h106q-26 -112 -111 -189t-184 -77zM845 -30q-147 0 -272.5 57t-207 154t-118 231.5t-12.5 282.5t102.5 282.5t191 231.5t256 154t290.5 57q148 0 273.5 -57t207.5 -154
t118.5 -231.5t12.5 -282.5t-102.5 -282.5t-191.5 -231.5t-256.5 -154t-291.5 -57zM862 77q168 0 324 82.5t261 225t132 310.5t-33.5 310.5t-190 225t-297.5 82.5t-323.5 -82.5t-260.5 -225t-132 -310.5t33.5 -310.5t189.5 -225t297 -82.5z" />
    <glyph glyph-name="obreve" unicode="&#x14f;" horiz-adv-x="1201" vert-adv-y="2130" 
d="M778 1127q-97 0 -156.5 75.5t-49.5 186.5h106q-5 -66 28.5 -111t88.5 -45q56 0 104 45t65 111h105q-25 -110 -109 -186t-182 -76zM597 -18q-204 0 -316.5 143t-78.5 360q23 143 102.5 258t198.5 180t253 65q135 0 234 -65t143 -180.5t21 -257.5q-23 -143 -103 -258
t-199.5 -180t-254.5 -65zM614 87q159 0 282.5 114t150.5 284t-60.5 284t-246.5 114q-158 0 -281.5 -114t-150.5 -284t60.5 -284t245.5 -114z" />
    <glyph glyph-name="Ohungarumlaut" unicode="&#x150;" horiz-adv-x="1701" vert-adv-y="2130" 
d="M1081 1939l80 -56l-264 -309l-80 58zM1360 1939l81 -56l-264 -309l-80 58zM845 -30q-147 0 -272.5 57t-207 154t-118 231.5t-12.5 282.5t102.5 282.5t191 231.5t256 154t290.5 57q148 0 273.5 -57t207.5 -154t118.5 -231.5t12.5 -282.5t-102.5 -282.5t-191.5 -231.5
t-256.5 -154t-291.5 -57zM862 77q168 0 324 82.5t261 225t132 310.5t-33.5 310.5t-190 225t-297.5 82.5t-323.5 -82.5t-260.5 -225t-132 -310.5t33.5 -310.5t189.5 -225t297 -82.5z" />
    <glyph glyph-name="ohungarumlaut" unicode="&#x151;" horiz-adv-x="1201" vert-adv-y="2130" 
d="M763 1509l81 -55l-260 -305l-79 58zM1038 1509l80 -55l-260 -305l-79 58zM597 -18q-204 0 -316.5 143t-78.5 360q23 143 102.5 258t198.5 180t253 65q135 0 234 -65t143 -180.5t21 -257.5q-23 -143 -103 -258t-199.5 -180t-254.5 -65zM614 87q159 0 282.5 114t150.5 284
t-60.5 284t-246.5 114q-158 0 -281.5 -114t-150.5 -284t60.5 -284t245.5 -114z" />
    <glyph glyph-name="OE" unicode="&#x152;" horiz-adv-x="2645" vert-adv-y="2130" 
d="M845 -30q-147 0 -272.5 57t-207 154t-118 231.5t-12.5 282.5t102.5 282.5t191 231.5t256 154t290.5 57q197 0 345 -91.5t218 -252.5l50 314h1052l-17 -107h-944l-85 -535h887l-16 -106h-887l-85 -535h944l-17 -107h-1052l50 314q-122 -161 -299 -252.5t-374 -91.5z
M862 77q118 0 235.5 47t211.5 126.5t164.5 186.5t99.5 223l11 70q7 116 -29 223t-105 186.5t-171.5 126.5t-220.5 47q-168 0 -323.5 -82.5t-260.5 -225t-132 -310.5t33.5 -310.5t189.5 -225t297 -82.5z" />
    <glyph glyph-name="oe" unicode="&#x153;" horiz-adv-x="2046" vert-adv-y="2130" 
d="M1458 87q119 0 226 74t171 201l96 -34q-80 -159 -217.5 -252.5t-292.5 -93.5q-139 0 -239.5 70.5t-139.5 191.5q-80 -122 -202 -192t-263 -70q-204 0 -316.5 143t-78.5 360q23 143 102.5 258t198.5 180t253 65q141 0 241 -70t140 -192q78 121 200.5 191.5t262.5 70.5
q202 0 313.5 -148.5t80.5 -369.5h-845q-20 -165 67.5 -274t241.5 -109zM1040 463l10 53q19 153 -71.5 260t-238.5 107q-158 0 -281.5 -114t-150.5 -284t60.5 -284t245.5 -114q150 0 271 109.5t155 266.5zM1584 883q-132 0 -245.5 -86.5t-163.5 -220.5h720q-7 134 -93 220.5
t-218 86.5z" />
    <glyph glyph-name="Racute" unicode="&#x154;" horiz-adv-x="1393" vert-adv-y="2130" 
d="M1101 1859l56 -83l-329 -236l-54 82zM309 488l-77 -488h-107l220 1390h691q123 0 217.5 -60t138.5 -164.5t25 -227.5q-26 -159 -141.5 -281t-274.5 -156l262 -501h-129l-257 488h-568zM1019 1283h-584l-109 -687h615q135 17 241.5 115t127.5 227q22 143 -63 244t-228 101
z" />
    <glyph glyph-name="racute" unicode="&#x155;" horiz-adv-x="718" vert-adv-y="2130" 
d="M695 1430l55 -82l-324 -232l-53 82zM330 621l-98 -621h-107l153 968h106l-14 -89q123 109 280 109q41 0 98 -12l-18 -110q-61 17 -95 17q-109 0 -198.5 -76.5t-106.5 -185.5z" />
    <glyph glyph-name="Rcaron" unicode="&#x158;" horiz-adv-x="1393" vert-adv-y="2130" 
d="M1175 1824l56 -82l-289 -195l-228 195l83 82l166 -144zM309 488l-77 -488h-107l220 1390h691q123 0 217.5 -60t138.5 -164.5t25 -227.5q-26 -159 -141.5 -281t-274.5 -156l262 -501h-129l-257 488h-568zM1019 1283h-584l-109 -687h615q135 17 241.5 115t127.5 227
q22 143 -63 244t-228 101z" />
    <glyph glyph-name="rcaron" unicode="&#x159;" horiz-adv-x="758" vert-adv-y="2130" 
d="M786 1396l54 -81l-283 -192l-224 192l81 81l164 -140zM350 621l-98 -621h-108l153 968h107l-14 -89q123 109 279 109q41 0 98 -12l-18 -110q-59 17 -95 17q-109 0 -198 -76.5t-106 -185.5z" />
    <glyph glyph-name="Sacute" unicode="&#x15a;" vert-adv-y="2130" 
d="M1097 1859l57 -83l-330 -236l-54 82zM695 -30q-155 0 -275.5 54t-182 149t-51.5 212h111q-11 -132 107 -220t307 -88q125 0 233.5 37.5t178 104.5t82.5 150q18 112 -85.5 186t-323.5 108q-254 39 -370.5 134t-93.5 244q26 164 191.5 271.5t386.5 107.5
q218 0 352.5 -112.5t120.5 -281.5h-110q9 124 -99 205.5t-280 81.5q-174 0 -303.5 -76.5t-148.5 -193.5q-16 -105 80 -174.5t295 -98.5q273 -41 399 -142t101 -258q-28 -173 -205.5 -286.5t-416.5 -113.5z" />
    <glyph glyph-name="sacute" unicode="&#x15b;" horiz-adv-x="1065" vert-adv-y="2130" 
d="M868 1430l57 -82l-325 -232l-54 82zM533 -18q-171 0 -272.5 85t-90.5 216h107q-4 -63 38 -109.5t103.5 -66.5t130.5 -20q71 0 139 18.5t123 62t64 103.5q3 21 0 38.5t-15 32.5t-23.5 26t-36.5 21.5t-41 17.5t-50 15.5t-51.5 12.5t-55.5 13q-73 16 -117.5 28t-95.5 33.5
t-76.5 46.5t-39.5 64.5t-6 90.5q19 124 138 200.5t283 76.5q158 0 253 -80.5t85 -204.5h-107q5 78 -63.5 129t-177.5 51q-69 0 -132 -17t-112 -56.5t-58 -95.5q-5 -30 7 -54.5t31 -39.5t58 -29t69 -21t83 -18q72 -15 119.5 -27.5t101.5 -35t83.5 -50t46 -69.5t7.5 -96
q-20 -130 -147 -211t-302 -81z" />
    <glyph glyph-name="Scircumflex" unicode="&#x15c;" vert-adv-y="2130" 
d="M1129 1562l-166 142l-212 -142l-57 81l290 196l227 -196zM695 -30q-155 0 -275.5 54t-182 149t-51.5 212h111q-11 -132 107 -220t307 -88q125 0 233.5 37.5t178 104.5t82.5 150q18 112 -85.5 186t-323.5 108q-254 39 -370.5 134t-93.5 244q26 164 191.5 271.5
t386.5 107.5q218 0 352.5 -112.5t120.5 -281.5h-110q9 124 -99 205.5t-280 81.5q-174 0 -303.5 -76.5t-148.5 -193.5q-16 -105 80 -174.5t295 -98.5q273 -41 399 -142t101 -258q-28 -173 -205.5 -286.5t-416.5 -113.5z" />
    <glyph glyph-name="scircumflex" unicode="&#x15d;" horiz-adv-x="1065" vert-adv-y="2130" 
d="M899 1138l-163 139l-209 -139l-55 81l285 192l223 -192zM533 -18q-171 0 -272.5 85t-90.5 216h107q-4 -63 38 -109.5t103.5 -66.5t130.5 -20q71 0 139 18.5t123 62t64 103.5q3 21 0 38.5t-15 32.5t-23.5 26t-36.5 21.5t-41 17.5t-50 15.5t-51.5 12.5t-55.5 13
q-73 16 -117.5 28t-95.5 33.5t-76.5 46.5t-39.5 64.5t-6 90.5q19 124 138 200.5t283 76.5q158 0 253 -80.5t85 -204.5h-107q5 78 -63.5 129t-177.5 51q-69 0 -132 -17t-112 -56.5t-58 -95.5q-5 -30 7 -54.5t31 -39.5t58 -29t69 -21t83 -18q72 -15 119.5 -27.5t101.5 -35
t83.5 -50t46 -69.5t7.5 -96q-20 -130 -147 -211t-302 -81z" />
    <glyph glyph-name="Scedilla" unicode="&#x15e;" vert-adv-y="2130" 
d="M534 -363l14 90q43 1 79 26.5t50 62.5h-115l25 160q-192 27 -303.5 140t-97.5 269h111q-11 -132 107 -220t307 -88q125 0 233.5 37.5t178 104.5t82.5 150q18 112 -85.5 186t-323.5 108q-254 39 -370.5 134t-93.5 244q26 164 191.5 271.5t386.5 107.5q218 0 352.5 -112.5
t120.5 -281.5h-110q9 124 -99 205.5t-280 81.5q-174 0 -303.5 -76.5t-148.5 -193.5q-16 -105 80 -174.5t295 -98.5q273 -41 399 -142t101 -258q-28 -173 -205.5 -286.5t-416.5 -113.5h-20l-10 -65h118l-12 -74q-12 -78 -80.5 -134.5t-156.5 -59.5z" />
    <glyph glyph-name="scedilla" unicode="&#x15f;" horiz-adv-x="1065" vert-adv-y="2130" 
d="M381 -327l14 87q44 5 79 29t46 56h-112l23 145q-130 22 -200.5 101t-60.5 192h107q-4 -63 38 -109.5t103.5 -66.5t130.5 -20q71 0 139 18.5t123 62t64 103.5q13 84 -97 129q-49 20 -177 48q-72 16 -116.5 28t-95.5 33.5t-76.5 46.5t-39.5 64.5t-6 90.5q19 124 138 200.5
t283 76.5q158 0 253 -80.5t85 -204.5h-107q5 78 -63.5 129t-178.5 51q-68 0 -131 -17t-112 -56.5t-58 -95.5q-5 -30 7 -54.5t31 -39.5t58 -29t69 -21t83 -18q72 -15 119.5 -27.5t101.5 -35t83.5 -50t46 -69.5t7.5 -96q-20 -130 -147 -211t-302 -81h-15l-8 -50h112l-11 -71
q-11 -72 -77.5 -126t-152.5 -62z" />
    <glyph glyph-name="Scaron" unicode="&#x160;" vert-adv-y="2130" 
d="M1171 1824l56 -82l-289 -195l-228 195l83 82l166 -144zM695 -30q-155 0 -275.5 54t-182 149t-51.5 212h111q-11 -132 107 -220t307 -88q125 0 233.5 37.5t178 104.5t82.5 150q18 112 -85.5 186t-323.5 108q-254 39 -370.5 134t-93.5 244q26 164 191.5 271.5t386.5 107.5
q218 0 352.5 -112.5t120.5 -281.5h-110q9 124 -99 205.5t-280 81.5q-174 0 -303.5 -76.5t-148.5 -193.5q-16 -105 80 -174.5t295 -98.5q273 -41 399 -142t101 -258q-28 -173 -205.5 -286.5t-416.5 -113.5z" />
    <glyph glyph-name="scaron" unicode="&#x161;" horiz-adv-x="1065" vert-adv-y="2130" 
d="M940 1396l55 -81l-283 -192l-225 192l81 81l165 -140zM533 -18q-171 0 -272.5 85t-90.5 216h107q-4 -63 38 -109.5t103.5 -66.5t130.5 -20q71 0 139 18.5t123 62t64 103.5q3 21 0 38.5t-15 32.5t-23.5 26t-36.5 21.5t-41 17.5t-50 15.5t-51.5 12.5t-55.5 13
q-73 16 -117.5 28t-95.5 33.5t-76.5 46.5t-39.5 64.5t-6 90.5q19 124 138 200.5t283 76.5q158 0 253 -80.5t85 -204.5h-107q5 78 -63.5 129t-177.5 51q-69 0 -132 -17t-112 -56.5t-58 -95.5q-5 -30 7 -54.5t31 -39.5t58 -29t69 -21t83 -18q72 -15 119.5 -27.5t101.5 -35
t83.5 -50t46 -69.5t7.5 -96q-20 -130 -147 -211t-302 -81z" />
    <glyph glyph-name="Utilde" unicode="&#x168;" vert-adv-y="2130" 
d="M838 1634l-62 -55l-65 75l65 54q62 56 119 56q56 0 105 -55q19 -22 33 -22q15 0 42 22l62 55l64 -76l-64 -54q-64 -55 -120 -55t-103 55q-17 20 -35 20q-16 0 -41 -20zM687 -30q-116 0 -214 45t-161.5 120.5t-91.5 180.5t-10 220l135 854h107l-135 -854
q-30 -190 83.5 -324.5t303.5 -134.5t346 134.5t186 324.5l135 854h108l-135 -854q-18 -115 -80 -220t-150 -180.5t-200 -120.5t-227 -45z" />
    <glyph glyph-name="utilde" unicode="&#x169;" horiz-adv-x="988" vert-adv-y="2130" 
d="M576 1209l-62 -55l-63 76l64 53q63 54 118 54t101 -54q18 -20 33 -20q17 0 40 20l62 55l64 -76l-64 -53q-64 -55 -118 -55q-53 0 -102 55q-18 20 -33 20t-40 -20zM492 -19q-154 0 -245 107t-67 261l98 620h106l-98 -620q-17 -109 48 -186t174 -77t198 77t106 186l98 620
h106l-153 -968h-106l14 89q-123 -109 -279 -109z" />
    <glyph glyph-name="Umacron" unicode="&#x16a;" vert-adv-y="2130" 
d="M1174 1682l-17 -108h-433l17 108h433zM687 -30q-116 0 -214 45t-161.5 120.5t-91.5 180.5t-10 220l135 854h107l-135 -854q-30 -190 83.5 -324.5t303.5 -134.5t346 134.5t186 324.5l135 854h108l-135 -854q-18 -115 -80 -220t-150 -180.5t-200 -120.5t-227 -45z" />
    <glyph glyph-name="umacron" unicode="&#x16b;" horiz-adv-x="988" vert-adv-y="2130" 
d="M906 1257l-17 -107h-425l17 107h425zM492 -19q-154 0 -245 107t-67 261l98 620h106l-98 -620q-17 -109 48 -186t174 -77t198 77t106 186l98 620h106l-153 -968h-106l14 89q-123 -109 -279 -109z" />
    <glyph glyph-name="Ubreve" unicode="&#x16c;" vert-adv-y="2130" 
d="M938 1551q-99 0 -160 77t-51 189h107q-5 -68 29.5 -113.5t91.5 -45.5q56 0 105 45.5t66 113.5h107q-26 -112 -111 -189t-184 -77zM687 -30q-116 0 -214 45t-161.5 120.5t-91.5 180.5t-10 220l135 854h107l-135 -854q-30 -190 83.5 -324.5t303.5 -134.5t346 134.5
t186 324.5l135 854h108l-135 -854q-18 -115 -80 -220t-150 -180.5t-200 -120.5t-227 -45z" />
    <glyph glyph-name="ubreve" unicode="&#x16d;" horiz-adv-x="988" vert-adv-y="2130" 
d="M673 1127q-97 0 -157 76t-50 186h105q-5 -66 29.5 -111t89.5 -45t103 45t64 111h106q-25 -110 -109 -186t-181 -76zM492 -19q-154 0 -245 107t-67 261l98 620h106l-98 -620q-17 -109 48 -186t174 -77t198 77t106 186l98 620h106l-153 -968h-106l14 89
q-123 -109 -279 -109z" />
    <glyph glyph-name="Uring" unicode="&#x16e;" vert-adv-y="2130" 
d="M936 1539q-70 0 -111.5 49.5t-30.5 119.5t68 119t127 49q69 0 110.5 -49t31.5 -119q-11 -70 -68.5 -119.5t-126.5 -49.5zM953 1646q25 0 45.5 18t25.5 44q4 25 -11.5 43t-40.5 18t-46 -18t-25 -43t11 -43.5t41 -18.5zM687 -30q-116 0 -214 45t-161.5 120.5t-91.5 180.5
t-10 220l135 854h107l-135 -854q-30 -190 83.5 -324.5t303.5 -134.5t346 134.5t186 324.5l135 854h108l-135 -854q-18 -115 -80 -220t-150 -180.5t-200 -120.5t-227 -45z" />
    <glyph glyph-name="uring" unicode="&#x16f;" horiz-adv-x="988" vert-adv-y="2130" 
d="M672 1115q-69 0 -110 49t-30 118q11 68 67 116.5t125 48.5q68 0 109 -48.5t30 -116.5q-11 -69 -67 -118t-124 -49zM689 1222q24 0 44 17.5t24 42.5q4 24 -11 41.5t-39 17.5q-25 0 -45 -17.5t-24 -41.5q-4 -25 11 -42.5t40 -17.5zM492 -19q-154 0 -245 107t-67 261l98 620
h106l-98 -620q-17 -109 48 -186t174 -77t198 77t106 186l98 620h106l-153 -968h-106l14 89q-123 -109 -279 -109z" />
    <glyph glyph-name="Uhungarumlaut" unicode="&#x170;" vert-adv-y="2130" 
d="M921 1939l81 -56l-264 -309l-80 58zM1201 1939l80 -56l-264 -309l-79 58zM687 -30q-116 0 -214 45t-161.5 120.5t-91.5 180.5t-10 220l135 854h107l-135 -854q-30 -190 83.5 -324.5t303.5 -134.5t346 134.5t186 324.5l135 854h108l-135 -854q-18 -115 -80 -220
t-150 -180.5t-200 -120.5t-227 -45z" />
    <glyph glyph-name="uhungarumlaut" unicode="&#x171;" horiz-adv-x="988" vert-adv-y="2130" 
d="M658 1509l79 -55l-259 -305l-79 58zM932 1509l79 -55l-259 -305l-79 58zM492 -19q-154 0 -245 107t-67 261l98 620h106l-98 -620q-17 -109 48 -186t174 -77t198 77t106 186l98 620h106l-153 -968h-106l14 89q-123 -109 -279 -109z" />
    <glyph glyph-name="Wcircumflex" unicode="&#x174;" horiz-adv-x="2223" vert-adv-y="2130" 
d="M1549 1562l-168 142l-212 -142l-55 82l288 195l228 -195zM1564 0l-262 1207l-644 -1207l-304 1388h111l241 -1087l583 1087h84l239 -1087l586 1087h111z" />
    <glyph glyph-name="wcircumflex" unicode="&#x175;" horiz-adv-x="1551" vert-adv-y="2130" 
d="M1142 1138l-165 139l-207 -139l-55 81l283 192l225 -192zM1070 0l-165 812l-422 -812l-198 970h103l139 -692l362 692h82l143 -692l358 692h103z" />
    <glyph glyph-name="Ycircumflex" unicode="&#x176;" horiz-adv-x="1517" vert-adv-y="2130" 
d="M1225 1562l-167 142l-212 -142l-55 82l288 195l227 -195zM928 540l-86 -540h-107l86 540l-462 850h133l398 -745l636 745h132z" />
    <glyph glyph-name="ycircumflex" unicode="&#x177;" horiz-adv-x="1187" vert-adv-y="2130" 
d="M959 1138l-163 139l-208 -139l-56 81l285 192l224 -192zM1207 970l-856 -1374h-105l310 494l-268 880h117l222 -761l463 761h117z" />
    <glyph glyph-name="Ydieresis" unicode="&#x178;" horiz-adv-x="1517" vert-adv-y="2130" 
d="M903 1571q-30 0 -49 22.5t-14 52.5q4 31 30.5 53.5t56.5 22.5q31 0 50 -22.5t14 -53.5q-5 -30 -31 -52.5t-57 -22.5zM1172 1571q-30 0 -49.5 22.5t-14.5 52.5q4 31 31 53.5t57 22.5q31 0 50 -22.5t14 -53.5q-5 -30 -31 -52.5t-57 -22.5zM928 540l-86 -540h-107l86 540
l-462 850h133l398 -745l636 745h132z" />
    <glyph glyph-name="Zacute" unicode="&#x179;" horiz-adv-x="1578" vert-adv-y="2130" 
d="M1194 1859l56 -83l-329 -236l-54 82zM1373 107l-17 -107h-1214l1269 1283h-967l17 107h1196l-1270 -1283h986z" />
    <glyph glyph-name="zacute" unicode="&#x17a;" horiz-adv-x="1025" vert-adv-y="2130" 
d="M848 1430l55 -82l-324 -232l-53 82zM916 106l-17 -106h-774l15 96l753 768h-593l17 106h736l-15 -95l-752 -769h630z" />
    <glyph glyph-name="Zdotaccent" unicode="&#x17b;" horiz-adv-x="1578" vert-adv-y="2130" 
d="M1043 1603q-31 0 -49.5 22t-13.5 53t30.5 53.5t56.5 22.5t50 -22.5t14 -53.5t-31 -53t-57 -22zM1373 107l-17 -107h-1214l1269 1283h-967l17 107h1196l-1270 -1283h986z" />
    <glyph glyph-name="zdotaccent" unicode="&#x17c;" horiz-adv-x="1025" vert-adv-y="2130" 
d="M699 1178q-30 0 -48.5 22t-14.5 53q5 30 30.5 52t55.5 22q31 0 49.5 -22t13.5 -52q-4 -31 -29.5 -53t-56.5 -22zM916 106l-17 -106h-774l15 96l753 768h-593l17 106h736l-15 -95l-752 -769h630z" />
    <glyph glyph-name="Zcaron" unicode="&#x17d;" horiz-adv-x="1578" vert-adv-y="2130" 
d="M1267 1824l57 -82l-290 -195l-227 195l82 82l166 -144zM1373 107l-17 -107h-1214l1269 1283h-967l17 107h1196l-1270 -1283h986z" />
    <glyph glyph-name="zcaron" unicode="&#x17e;" horiz-adv-x="1025" vert-adv-y="2130" 
d="M920 1396l54 -81l-284 -192l-223 192l81 81l163 -140zM916 106l-17 -106h-774l15 96l753 768h-593l17 106h736l-15 -95l-752 -769h630z" />
    <glyph glyph-name="circumflex" unicode="&#x2c6;" horiz-adv-x="1010" vert-adv-y="2130" 
d="M871 1138l-164 139l-208 -139l-55 81l284 192l224 -192z" />
    <glyph glyph-name="caron" unicode="&#x2c7;" horiz-adv-x="1010" vert-adv-y="2130" 
d="M912 1396l55 -81l-284 -192l-224 192l81 81l164 -140z" />
    <glyph glyph-name="breve" unicode="&#x2d8;" horiz-adv-x="987" vert-adv-y="2130" 
d="M672 1127q-98 0 -157.5 75.5t-49.5 186.5h106q-5 -66 29 -111t89 -45t103 45t64 111h106q-25 -110 -109 -186t-181 -76z" />
    <glyph glyph-name="dotaccent" unicode="&#x2d9;" horiz-adv-x="453" vert-adv-y="2130" 
d="M414 1178q-31 0 -50 22t-14 52q5 31 30.5 53t56.5 22q30 0 48.5 -22t13.5 -53q-5 -30 -30 -52t-55 -22z" />
    <glyph glyph-name="ring" unicode="&#x2da;" horiz-adv-x="821" vert-adv-y="2130" 
d="M588 1116q-69 0 -110 48.5t-30 117.5q11 68 67 116.5t125 48.5q68 0 109 -48.5t30 -116.5q-11 -69 -67 -117.5t-124 -48.5zM605 1222q24 0 44 17.5t24 42.5q4 24 -11 41.5t-39 17.5q-25 0 -45 -17.5t-24 -41.5q-4 -25 11 -42.5t40 -17.5z" />
    <glyph glyph-name="tilde" unicode="&#x2dc;" horiz-adv-x="979" vert-adv-y="2130" 
d="M571 1209l-62 -55l-63 75l63 54q63 54 119 54q55 0 101 -54q18 -21 34 -21q15 0 39 21l62 55l64 -76l-64 -53q-63 -54 -118 -54q-54 0 -102 54q-18 20 -33 20t-40 -20z" />
    <glyph glyph-name="hungarumlaut" unicode="&#x2dd;" horiz-adv-x="916" vert-adv-y="2130" 
d="M621 1509l79 -56l-259 -304l-79 58zM895 1509l80 -56l-260 -304l-79 58z" />
    <glyph glyph-name="Wgrave" unicode="&#x1e80;" horiz-adv-x="2223" vert-adv-y="2130" 
d="M1295 1859l255 -237l-82 -82l-254 236zM1564 0l-262 1207l-644 -1207l-304 1388h111l241 -1087l583 1087h84l239 -1087l586 1087h111z" />
    <glyph glyph-name="wgrave" unicode="&#x1e81;" horiz-adv-x="1551" vert-adv-y="2130" 
d="M892 1430l251 -232l-81 -82l-249 232zM1070 0l-165 812l-422 -812l-198 970h103l139 -692l362 692h82l143 -692l358 692h103z" />
    <glyph glyph-name="Wacute" unicode="&#x1e82;" horiz-adv-x="2223" vert-adv-y="2130" 
d="M1484 1859l56 -83l-330 -236l-53 82zM1564 0l-262 1207l-644 -1207l-304 1388h111l241 -1087l583 1087h84l239 -1087l586 1087h111z" />
    <glyph glyph-name="wacute" unicode="&#x1e83;" horiz-adv-x="1551" vert-adv-y="2130" 
d="M1111 1430l56 -82l-324 -232l-54 82zM1070 0l-165 812l-422 -812l-198 970h103l139 -692l362 692h82l143 -692l358 692h103z" />
    <glyph glyph-name="Wdieresis" unicode="&#x1e84;" horiz-adv-x="2223" vert-adv-y="2130" 
d="M1232 1571q-30 0 -49 22.5t-14 52.5q4 31 30.5 53.5t56.5 22.5q31 0 50 -22.5t14 -53.5q-5 -30 -31 -52.5t-57 -22.5zM1501 1571q-30 0 -49 22.5t-14 52.5q4 31 30.5 53.5t56.5 22.5q31 0 50 -22.5t14 -53.5q-5 -30 -31 -52.5t-57 -22.5zM1564 0l-262 1207l-644 -1207
l-304 1388h111l241 -1087l583 1087h84l239 -1087l586 1087h111z" />
    <glyph glyph-name="wdieresis" unicode="&#x1e85;" horiz-adv-x="1551" vert-adv-y="2130" 
d="M826 1146q-31 0 -49.5 23t-13.5 53t30 52t56 22t50 -22t14 -52t-31 -53t-56 -23zM1090 1146q-30 0 -49 23t-14 53q4 30 30 52t56 22t49 -22t15 -52q-5 -30 -31 -53t-56 -23zM1070 0l-165 812l-422 -812l-198 970h103l139 -692l362 692h82l143 -692l358 692h103z" />
    <glyph glyph-name="endash" unicode="&#x2013;" horiz-adv-x="1144" vert-adv-y="2130" 
d="M1060 585l-17 -106h-790l17 106h790z" />
    <glyph glyph-name="emdash" unicode="&#x2014;" horiz-adv-x="1707" vert-adv-y="2130" 
d="M1623 585l-17 -106h-1353l17 106h1353z" />
    <glyph glyph-name="quoteleft" unicode="&#x2018;" horiz-adv-x="492" vert-adv-y="2130" 
d="M524 1364l39 -273h-112l-66 273h139z" />
    <glyph glyph-name="quoteright" unicode="&#x2019;" horiz-adv-x="476" vert-adv-y="2130" 
d="M546 1364l-152 -273h-112l125 273h139z" />
    <glyph glyph-name="quotesinglbase" unicode="&#x201a;" horiz-adv-x="500" vert-adv-y="2130" 
d="M377 294l-153 -273h-112l126 273h139z" />
    <glyph glyph-name="quotedblleft" unicode="&#x201c;" horiz-adv-x="654" vert-adv-y="2130" 
d="M437 1364l66 -273h-139l-39 273h112zM605 1364l66 -273h-139l-38 273h111z" />
    <glyph glyph-name="quotedblright" unicode="&#x201d;" horiz-adv-x="638" vert-adv-y="2130" 
d="M546 1364l-152 -273h-112l125 273h139zM714 1364l-152 -273h-111l124 273h139z" />
    <glyph glyph-name="quotedblbase" unicode="&#x201e;" horiz-adv-x="664" vert-adv-y="2130" 
d="M377 294l-153 -273h-112l126 273h139zM545 294l-153 -273h-111l125 273h139z" />
    <glyph glyph-name="dagger" unicode="&#x2020;" horiz-adv-x="807" vert-adv-y="2130" 
d="M618 1014l-72 -450h-106l72 450h-192l16 106h192l39 245h106l-39 -245h191l-16 -106h-191z" />
    <glyph glyph-name="daggerdbl" unicode="&#x2021;" horiz-adv-x="815" vert-adv-y="2130" 
d="M500 244l-39 -244h-106l39 244h-192l16 106h192l106 664h-192l16 106h192l39 245h106l-39 -245h191l-16 -106h-191l-106 -664h191l-16 -106h-191z" />
    <glyph glyph-name="bullet" unicode="&#x2022;" horiz-adv-x="730" vert-adv-y="2130" 
d="M453 554q-53 0 -84.5 37.5t-23.5 91.5q8 53 51.5 90t96.5 37t85 -37.5t24 -89.5q-8 -54 -52 -91.5t-97 -37.5z" />
    <glyph glyph-name="ellipsis" unicode="&#x2026;" horiz-adv-x="1070" vert-adv-y="2130" 
d="M234 0q-31 0 -49.5 22t-13.5 53q4 30 30 52t57 22q30 0 48.5 -22t13.5 -52q-5 -31 -30.5 -53t-55.5 -22zM535 0q-31 0 -49.5 22t-13.5 53q4 30 30 52t57 22t49.5 -22t13.5 -52q-5 -31 -30.5 -53t-56.5 -22zM833 0q-30 0 -49 22t-14 53q4 30 30.5 52t56.5 22t48.5 -22
t13.5 -52q-5 -31 -30.5 -53t-55.5 -22z" />
    <glyph glyph-name="guilsinglleft" unicode="&#x2039;" horiz-adv-x="782" vert-adv-y="2130" 
d="M366 493l276 -327l-88 -75l-337 402l465 401l64 -75z" />
    <glyph glyph-name="guilsinglright" unicode="&#x203a;" horiz-adv-x="782" vert-adv-y="2130" 
d="M384 894l338 -401l-467 -402l-62 75l379 327l-275 326z" />
    <glyph glyph-name="fraction" unicode="&#x2044;" horiz-adv-x="1495" vert-adv-y="2130" 
d="M1596 1380l57 -68l-1538 -1328l-58 69z" />
    <glyph glyph-name="Euro" unicode="&#x20ac;" horiz-adv-x="1381" vert-adv-y="1700" 
d="M786 -30q-195 0 -317 126t-145 345h-117l17 107h97q1 63 12 135q11 69 30 134h-97l17 107h117q92 223 254.5 347t358.5 124q254 0 398 -228l-88 -73q-124 195 -328 195q-151 0 -280.5 -97.5t-206.5 -267.5h565l-17 -107h-587q-21 -83 -29 -134q-12 -75 -12 -135h586
l-17 -107h-565q23 -171 121.5 -268t249.5 -97q206 0 390 195l64 -73q-216 -228 -471 -228z" />
    <glyph glyph-name="trademark" unicode="&#x2122;" horiz-adv-x="1271" vert-adv-y="2130" 
d="M556 1313l-54 -341h-77l54 341h-154l11 72h418l140 -285l231 285h46l-65 -413h-73l37 234l-196 -234l-122 234l-36 -234h-73l54 341h-141z" />
    <glyph glyph-name="minus" unicode="&#x2212;" horiz-adv-x="1138" vert-adv-y="2130" 
d="M1053 679l-17 -106h-752l17 106h752z" />
    <glyph glyph-name="uniF8FF" unicode="&#xf8ff;" horiz-adv-x="1980" vert-adv-y="2130" 
d="M1860 1615v-1869h-1740v1869h1740zM1266 1384h-890v-1194h203v344h687v183h-687v491h687v176zM1398 375h-685v-185h888v1194h-203v-334h-685v-190h685v-485zM559 -2q30 0 50.5 19.5t20.5 49.5t-20.5 49.5t-50.5 19.5t-51 -19.5t-21 -49.5t21 -49.5t51 -19.5zM1095 -2
q22 0 37.5 11t15.5 30q0 14 -6 22q-4 6 -15 13q-9 5 -24 8q-25 5 -25 16q0 9 14 9q17 0 43 -14l13 28q-28 15 -53 15q-22 0 -37.5 -10.5t-15.5 -31.5q0 -13 6 -20q3 -6 15 -12l24 -8l9 -3q8 -3 13 -5q3 -3 3 -8q0 -6 -6 -8q-6 -3 -11 -3q-27 0 -48 21l-14 -28q27 -22 62 -22
zM1402 -2q29 0 56 25l-21 21q-15 -15 -32 -15q-21 0 -31 19q-5 6 -5 16q0 20 10 31t25 11q22 0 33 -18l20 25q-20 23 -52 23q-31 0 -51.5 -19.5t-20.5 -49.5q0 -29 20 -49t49 -20zM480 134h-99v-134h35v48h58v28h-58v30h64v28zM678 134h-31v-134h33v80l60 -80h29v134h-32
l1 -81zM785 105h39v-105h33v105h41v29h-113v-29zM976 134h-35l-56 -134h34l10 23h57l9 -23h37zM1154 105h39v-105h35v105h40v29h-114v-29zM1316 134h-34v-134h34v134zM1550 134h-36l-57 -134h36l8 23h59l8 -23h37zM559 28q-16 0 -26 11.5t-10 27.5t10 27.5t26 11.5
q23 0 31 -20q4 -10 4 -19q0 -16 -10 -27.5t-25 -11.5zM959 98l17 -48h-37zM1530 98l19 -48h-37zM671 -342v-69h-23v69h-13v12l13 6v6q0 15 7 22q7 6 23 6q13 0 22 -3l-6 -18q-4 2 -13 2q-5 0 -7 -3q-3 -2 -3 -7v-5h21v-18h-21zM1233 -314q-12 0 -12 12t12 12q13 0 13 -12
q0 -6 -3 -9t-10 -3zM938 -412q-14 0 -21 6q-6 8 -6 22v42h-11v10l12 8l7 19h16v-19h24v-18h-24v-42q0 -3 2 -7q4 -2 8 -2q3 0 15 2v-18q-9 -3 -22 -3zM1183 -412q-15 0 -21 6q-7 7 -7 22v42h-12v10l14 8l7 19h14v-19h25v-18h-25v-42q0 -4 4 -7q4 -2 7 -2t15 2v-18
q-9 -3 -21 -3zM998 -412q-12 0 -19 6q-8 8 -8 21q0 14 11 21q8 6 29 7h14v4q0 13 -13 13q-10 0 -24 -6l-8 16q16 8 33 8q16 0 27 -8q9 -8 9 -23v-58h-17l-4 11h-1q-8 -8 -12 -10t-17 -2zM1373 -412q-13 0 -20 6q-7 7 -7 21t10 21q8 5 29 7h15v4q0 13 -13 13q-11 0 -25 -6
l-8 16q16 8 34 8q15 0 26 -8q9 -8 9 -23v-58h-17l-4 11h-1q-5 -7 -11 -10q-4 -2 -17 -2zM742 -412q-13 0 -22 5q-9 4 -15 16q-5 12 -5 23q0 20 11 34q11 11 31 11q14 0 22 -5q10 -4 16 -16q5 -10 5 -24q0 -20 -12 -33q-10 -11 -31 -11zM827 -371v-40h-24v87h19l3 -11h1
q5 7 12 9q6 3 15 3q16 0 23 -8q8 -8 8 -23v-57h-24v51q0 10 -3 14t-11 4q-10 0 -14 -6q-5 -8 -5 -23zM1097 -412q-12 0 -16 1l-12 3v20q2 -1 7 -2.5t7 -2.5l15 -3q13 0 13 8q0 3 -2 5l-6 4q-1 0 -5 2t-7 3q-7 2 -14 7q-5 5 -6 9q-2 3 -2 11q0 13 8 18q9 6 26 6t30 -6l-7 -18
l-12 5q-4 1 -12 1q-11 0 -11 -5q0 -4 4 -5q5 -3 15 -7l15 -7l7 -9q2 -6 2 -11q0 -13 -9 -21q-11 -6 -28 -6zM1305 -412q-41 0 -41 43q0 21 12 35q10 11 31 11q15 0 27 -5l-6 -19q-3 1 -7 3l-4 1q-1 0 -4.5 0.5t-5.5 0.5q-18 0 -18 -26q0 -25 18 -25q5 0 13 2q6 2 12 5v-20
q-2 -2 -12 -5q-4 -1 -15 -1zM1528 -412q-40 0 -40 43q0 24 10 35q11 11 33 11q13 0 26 -5l-7 -19l-10 4q-2 0 -5 0.5t-4 0.5q-19 0 -19 -26q0 -25 19 -25q4 0 12 2q6 1 11 5v-20q-3 -3 -11 -5q-4 -1 -15 -1zM1611 -412q-13 0 -21 5q-11 5 -15 16q-5 9 -5 23q0 21 10 34
q11 11 31 11q15 0 23 -5q11 -6 15 -16q5 -10 5 -24q0 -20 -12 -33q-10 -11 -31 -11zM1697 -371v-40h-24v87h18l3 -11h2q3 7 10 9q6 3 15 3q20 0 26 -12h2q5 6 10 9q7 3 18 3q14 0 21 -7t7 -24v-57h-24v51q0 10 -3 14t-10 4q-8 0 -13 -6q-4 -5 -4 -20v-43h-24v51q0 10 -3 14
t-10 4q-9 0 -13 -6q-4 -7 -4 -23zM245 -343l-15 -68h-26l-24 87h23l10 -38q1 -2 5 -29q0 6 3 18l1 8l11 41h27l9 -41q1 -2 1 -6q0 -1 1 -3.5t1 -3.5q0 -5 1 -7v-6h1q0 3 2 15l2 14l12 38h23l-25 -87h-26l-7 30l-9 38h-1zM382 -343l-17 -68h-24l-25 87h23l10 -38q4 -16 5 -29
h1q0 2 2 18l1 8l12 41h25l11 -41q0 -4 1 -6l1 -7q0 -2 0.5 -4t0.5 -3q0 -2 0.5 -3.5t0.5 -2.5q0 3 2 15q1 3 2 8t1 6l10 38h23l-25 -87h-26l-6 30zM518 -343l-16 -68h-26l-25 87h24l11 -38q0 -2 1.5 -12t2.5 -17h1q0 6 3 18l1 8l10 41h26l10 -41q0 -1 0.5 -3t0.5 -3t1 -3.5
t1 -3.5q1 -3 1 -7q1 -3 1 -6l3 15l2 14l10 38h24l-25 -87h-26l-7 30l-8 38h-1zM1245 -324v-87h-23v87h23zM742 -393q10 0 14 6q4 5 4 19q0 15 -4 20q-4 6 -14 6t-13 -6q-4 -5 -4 -20q0 -12 4 -19q3 -6 13 -6zM1611 -393q11 0 14 6q4 5 4 19q0 15 -4 20q-3 6 -14 6
q-9 0 -13 -6q-4 -5 -4 -20q0 -12 4 -19q4 -6 13 -6zM1008 -396q5 0 13 6q4 4 4 12v7h-8q-13 -2 -16 -4q-5 -3 -5 -10q0 -11 12 -11zM1381 -396q8 0 14 6q5 5 5 12v7h-9q-12 -2 -16 -4q-5 -3 -5 -10q0 -11 11 -11zM609 -413q-5 0 -11 3q-3 4 -3 10q0 7 3 10q6 3 11 3
q7 0 10 -3t3 -10q0 -6 -3 -10q-5 -3 -10 -3zM1458 -413q-6 0 -10 3q-3 5 -3 10q0 7 3 10t10 3q6 0 10 -3q4 -4 4 -10q0 -4 -4 -10q-5 -3 -10 -3z" />
    <glyph glyph-name="_Fontastica" horiz-adv-x="1458" vert-adv-y="2130" 
d="M322 521v-340h-196q-3 0 -4.5 2t-1.5 4v2v1178h884v-174h-682v-490h682v-182h-682zM1338 1367v-1186h-884v184h682v482h-682v188h682v332h202zM836 -1q-35 0 -61 21l14 28q7 -8 21.5 -14.5t24.5 -6.5q8 0 14 3q5 2 5 8q0 5 -4 8q-11 6 -22 9q-18 5 -24 8q-9 3 -14 10
q-6 8 -6 20q0 22 15.5 32.5t36.5 10.5q26 0 53 -15l-13 -28q-23 14 -41 14q-15 0 -15 -9q0 -10 24 -17q19 -4 24 -7q11 -7 15 -12q6 -9 6 -22q0 -20 -15.5 -30.5t-37.5 -10.5zM302 -2q-30 0 -50.5 19.5t-20.5 49.5t20.5 49t50.5 19t50.5 -19t20.5 -49t-20 -49.5t-51 -19.5z
M1143 -2q-29 0 -48.5 20t-19.5 49q0 30 20 49t50 19q33 0 53 -23l-20 -24q-13 18 -33 18q-15 0 -25.5 -10.5t-10.5 -29.5q0 -10 5 -18q12 -19 32 -19q19 0 32 15l21 -21q-27 -25 -56 -25zM159 48v-47h-34v132h99v-27h-65v-30h59v-28h-59zM423 80v-79h-33v132h30l61 -79
l-1 79h33v-132h-30zM600 105v-104h-33v104h-40v28h114v-28h-41zM671 24l-9 -23h-35l56 132h35l56 -132h-36l-10 23h-57zM970 105v-104h-36v104h-38v28h112v-28h-38zM1057 133v-132h-34v132h34zM1242 24l-9 -23h-35l56 132h36l55 -132h-37l-9 23h-57zM302 27q16 0 26 12
t10 27q0 5 -5 20q-7 20 -30 20q-16 0 -26.5 -11.5t-10.5 -27.5t10.5 -28t25.5 -12zM717 50l-16 48l-20 -48h36zM1289 50l-18 48l-18 -48h36z" />
    <glyph glyph-name="_VendorID" horiz-adv-x="1123" vert-adv-y="2130" 
d="M779 772q-104 0 -168 53.5t-53 127.5h73q-16 -44 29.5 -78.5t118.5 -34.5q62 0 105 26.5t43 65.5q0 68 -155 91q-99 15 -150 54.5t-51 98.5q0 66 58 109.5t145 43.5q96 0 158 -51.5t50 -122.5h-74q17 40 -24.5 72.5t-109.5 32.5q-56 0 -94.5 -24t-38.5 -58q0 -66 140 -86
q106 -15 161.5 -56t55.5 -104q0 -69 -62.5 -114.5t-156.5 -45.5zM190 1016v-233h-70v535h413v-69h-343v-164h323v-69h-323zM780 143q-103 0 -168 53t-54 128h73q-16 -43 29.5 -77t118.5 -34q62 0 105 25.5t43 63.5q0 70 -152 93q-100 14 -152 53.5t-52 99.5q0 66 58.5 109.5
t145.5 43.5q96 0 157 -51.5t50 -122.5h-74q17 40 -24.5 72.5t-108.5 32.5q-56 0 -95 -24t-39 -59q0 -64 139 -84q218 -32 218 -162q0 -69 -62 -114.5t-156 -45.5zM190 387v-233h-70v535h413v-68h-343v-164h323v-70h-323zM392 98v-37h-12v37h-7v7l7 3v3q0 8 5 11q0 4 11 4
q9 0 13 -2l-4 -10q-3 1 -8 1q-3 0 -4 -1q-1 -2 -1 -4v-2h11v-10h-11zM695 113q-7 0 -7 6q0 7 7 7t7 -7q0 -4 -1 -5q-1 0 -3 -0.5t-3 -0.5zM536 60q-6 0 -12 4q-4 4 -4 12v22h-4v5l5 5l5 9h8v-9h13v-10h-13v-22q0 -2 2 -4q2 -1 4 -1q1 0 3.5 0.5t4.5 0.5v-10q-8 -2 -12 -2z
M668 60q-8 0 -12 4q-3 2 -3 12v22h-7v5l7 5l4 9h8v-9h14v-10h-14v-22q0 -3 2 -4l4 -1l8 1v-10q-4 -2 -11 -2zM568 60q-4 0 -10 4q-5 3 -5 11q0 7 7 11q2 2 16 4h6v2q0 7 -6 7t-13 -3l-5 9q12 4 19 4q4 0 14 -4q4 -4 4 -13v-31h-9l-2 5h-1q-1 0 -2.5 -2t-2.5 -2q-2 -2 -10 -2
zM771 60q-4 0 -12 4q-4 3 -4 11q0 7 6 11q1 2 16 4h8v2q0 7 -7 7q-6 0 -15 -3l-3 9q10 4 18 4q4 0 14 -4q5 -4 5 -13v-31h-10l-1 5h-1l-6 -4q-2 -2 -8 -2zM944 82v-21h-12v47h9l2 -6h1q1 2 4 4t9 2q12 0 15 -6h1q2 4 5 4q6 2 8 2q9 0 12 -3q5 -4 5 -14v-30h-13v28q0 3 -2 7
q-2 2 -6 2t-7 -3q-2 -4 -2 -11v-23h-13v28q0 3 -2 7q-1 2 -4 2q-6 0 -8 -3q-2 -6 -2 -13zM163 97l-8 -36h-14l-13 47h13l5 -20l3 -16q0 5 1 8l1 6l5 22h15l5 -22q1 -2 1 -4v-4q0 -1 1 -3v-3q0 3 2 7q0 2 0.5 5t0.5 4l7 20h12l-13 -47h-15l-4 16l-4 20h-1zM237 97l-10 -36
h-12l-14 47h13l5 -20q2 -12 2 -16h1q0 1 0.5 3.5t0.5 4.5l1 6l6 22h13l7 -22v-8v-1q1 -1 1 -2v-3q0 3 2 7q0 7 1 9l5 20h14l-15 -47h-13l-4 16zM310 97l-10 -36h-13l-12 47h12l5 -20q0 -3 1 -8t1 -8h1q0 2 2 8l1 6l4 22h16l4 -22v-2l1 -2q0 -1 1 -2v-2v-3q1 -2 1 -3q0 5 1 7
q0 2 0.5 5t0.5 4l7 20h12l-13 -47h-14l-4 16l-4 20h-1zM430 60q-7 0 -12 4q-4 1 -8 8q-1 4 -1 12q0 13 5 19q7 5 16 5t13 -2q6 -4 8 -9q2 -8 2 -13q0 -9 -6 -18q-5 -6 -17 -6zM477 82v-21h-14v47h10l2 -6h1q2 4 6 4q2 2 8 2q9 0 12 -4q5 -2 5 -13v-30h-13v28q0 5 -1 7
q-4 2 -8 2q-3 0 -6 -3q-2 -3 -2 -13zM621 60q-6 0 -8 1q-1 1 -3.5 1t-3.5 1v10q1 0 4 -0.5t4 -1.5q4 -2 7 -2q8 0 8 4v4q-2 0 -4 1q-1 0 -7 2t-6 4q-4 4 -4 5q-2 2 -2 6q0 7 6 10q3 3 13 3t16 -3l-4 -10q-1 1 -4 2l-3 1h-6q-6 0 -6 -2q0 -3 1 -3l10 -4l8 -3q1 -2 2.5 -3.5
t1.5 -2.5v-5q0 -8 -4 -11q-8 -4 -16 -4zM702 108v-47h-13v47h13zM734 60q-22 0 -22 23q0 12 5 20q7 5 18 5q8 0 14 -2l-3 -11q-4 2 -6 2q-1 0 -2 0.5t-3 0.5q-10 0 -10 -14q0 -13 10 -13q1 0 3 0.5t4 0.5q3 0 6 3v-11l-6 -3q-3 -1 -8 -1zM853 60q-21 0 -21 23q0 13 6 20
q7 5 17 5q3 0 15 -2l-5 -11q-2 2 -5 2q-1 0 -3 1h-2q-10 0 -10 -14q0 -13 10 -13q1 0 3 1h3q4 0 7 3v-11q-1 -1 -7 -3q-1 -1 -8 -1zM897 60q-7 0 -10 4q-7 2 -8 8q-3 6 -3 12q0 11 5 19q7 5 16 5q11 0 13 -2q7 -3 9 -9q2 -4 2 -13q0 -10 -7 -18q-6 -6 -17 -6zM430 71
q5 0 8 3q2 3 2 10q0 8 -2 11q-3 3 -8 3q-6 0 -7 -3q-2 -3 -2 -11q0 -7 2 -10q1 -3 7 -3zM897 71q7 0 9 3t2 10q0 8 -2 11t-9 3q-3 0 -6 -3q-2 -3 -2 -11q0 -7 2 -10q3 -3 6 -3zM574 69q3 0 6 3q2 4 2 6v4h-3q-8 -2 -10 -3q-1 0 -1 -4q0 -6 6 -6zM775 69l6 3q4 4 4 6v4h-6
q-5 -1 -7 -3q-3 0 -3 -4q0 -6 6 -6zM359 60q-4 0 -7 2v2l-1 2l1 6q6 2 7 2q3 0 5 -2q2 0 2 -6l-2 -4q-2 -2 -5 -2zM815 60q-3 0 -4 2l-2 4q0 6 2 6q2 2 4 2q3 0 7 -2q1 -3 1 -6l-1 -2v-2q-2 -2 -7 -2z" />
    </font>
</defs>
</svg>
