<?xml version="1.0" standalone="no"?>
<!DOCTYPE svg PUBLIC "-//W3C//DTD SVG 1.1//EN" "http://www.w3.org/Graphics/SVG/1.1/DTD/svg11.dtd" >
<svg xmlns="http://www.w3.org/2000/svg" xmlns:xlink="http://www.w3.org/1999/xlink" version="1.1">
<metadata>
Created by FontForge 20170731 at Wed Oct 20 22:58:10 2021
 By Aleksey,,,
Copyright (c) 2021 by Fontastica. All rights reserved.
</metadata>
<defs>
<font id="EinerGrotesk-ExtraLightItalic" horiz-adv-x="981" vert-adv-y="2048" >
  <font-face 
    font-family="Einer Grotesk ExtraLight"
    font-weight="200"
    font-style="italic"
    font-stretch="normal"
    units-per-em="2048"
    panose-1="0 0 3 0 0 0 0 0 0 0"
    ascent="1638"
    descent="-410"
    x-height="969"
    cap-height="1390"
    bbox="44 -430 2762 1946"
    underline-thickness="50"
    underline-position="-150"
    slope="-9"
    unicode-range="U+000D-F8FF"
  />
<missing-glyph horiz-adv-x="1437" vert-adv-y="2130" 
d="M1424 1396l-222 -1402h-969l222 1402h969zM1277 1311h-701l267 -529zM1290 1185l-401 -490l245 -492h3l156 982h-3zM523 1182l-4 -1l-155 -976h3l402 490zM1082 81l-265 527l-434 -527h699z" />
    <glyph glyph-name="t_t.liga" unicode="tt" horiz-adv-x="1200" vert-adv-y="2130" 
d="M603 78l-12 -79q-122 7 -193 91.5t-53 200.5l95 601h-174l13 78h174l66 418h79l-66 -418h405l66 418h79l-66 -418h193l-13 -78h-193l-95 -601q-14 -85 38 -146.5t141 -66.5l-12 -79q-122 7 -193 91.5t-53 200.5l95 601h-405l-95 -601q-14 -85 38 -146.5t141 -66.5z" />
    <glyph glyph-name=".notdef" horiz-adv-x="1437" vert-adv-y="2130" 
d="M1424 1396l-222 -1402h-969l222 1402h969zM1277 1311h-701l267 -529zM1290 1185l-401 -490l245 -492h3l156 982h-3zM523 1182l-4 -1l-155 -976h3l402 490zM1082 81l-265 527l-434 -527h699z" />
    <glyph glyph-name=".null" horiz-adv-x="0" vert-adv-y="0" 
 />
    <glyph glyph-name="nonmarkingreturn" horiz-adv-x="682" 
 />
    <glyph glyph-name="CR" unicode="&#xd;" horiz-adv-x="321" vert-adv-y="2130" 
 />
    <glyph glyph-name="space" unicode=" " horiz-adv-x="543" vert-adv-y="2130" 
 />
    <glyph glyph-name="exclam" unicode="!" horiz-adv-x="491" vert-adv-y="2130" 
d="M425 845l-95 -496h-59l63 496l84 532h91zM246 0q-26 0 -41 18.5t-11 43.5t25 43t46 18t40.5 -18t11.5 -43q-5 -26 -25.5 -44t-45.5 -18z" />
    <glyph glyph-name="quotedbl" unicode="&#x22;" horiz-adv-x="592" vert-adv-y="2130" 
d="M475 1377l-43 -272h-78l43 272h78zM631 1377l-43 -272h-79l43 272h79z" />
    <glyph glyph-name="numbersign" unicode="#" horiz-adv-x="1660" vert-adv-y="2130" 
d="M667 407l-108 -407h-79l109 407h-386l21 78h387l109 405h-386l20 78h387l112 409h78l-111 -409h386l112 409h78l-111 -409h387l-20 -78h-388l-109 -405h387l-21 -78h-389l-108 -407h-79l109 407h-387zM1185 890h-387l-109 -405h387z" />
    <glyph glyph-name="dollar" unicode="$" horiz-adv-x="1286" vert-adv-y="2130" 
d="M677 -29l-30 -189h-79l30 188q-212 8 -345.5 120.5t-117.5 269.5h82q-11 -126 101.5 -214.5t292.5 -96.5l99 626q-232 42 -339.5 134t-85.5 230q24 154 175 257t366 111l29 187h79l-29 -187q126 -8 224 -58.5t148.5 -132t41.5 -177.5h-82q10 116 -87 198t-258 91
l-92 -585q248 -43 360.5 -139.5t89.5 -244.5q-26 -161 -186 -269.5t-387 -118.5zM722 754l91 574q-178 -7 -303 -87.5t-144 -201.5q-17 -106 73.5 -179t282.5 -106zM787 664l-97 -616q191 11 325 97.5t154 213.5q18 113 -79 190t-303 115z" />
    <glyph glyph-name="percent" unicode="%" horiz-adv-x="1556" vert-adv-y="2130" 
d="M1629 1377l-1381 -1377h-103l1381 1377h103zM541 911q-96 0 -153.5 68.5t-42.5 164.5t94.5 164.5t175.5 68.5q97 0 154 -68.5t42 -164.5t-94 -164.5t-176 -68.5zM554 989q64 0 116.5 45.5t62.5 109.5t-28 109.5t-102 45.5t-116 -45.5t-63 -109.5q-10 -64 28 -109.5
t102 -45.5zM1159 0q-96 0 -153.5 68.5t-42.5 164.5t94.5 164.5t175.5 68.5t153.5 -68.5t42.5 -164.5t-94.5 -164.5t-175.5 -68.5zM1171 78q64 0 116.5 45.5t63.5 109.5q10 64 -28.5 109.5t-102.5 45.5t-116.5 -45.5t-62.5 -109.5t28 -109.5t102 -45.5z" />
    <glyph glyph-name="ampersand" unicode="&#x26;" horiz-adv-x="1383" vert-adv-y="2130" 
d="M648 -11q-82 0 -154 20t-129 59.5t-84.5 107.5t-13.5 155q38 235 360 386l1 5q-81 99 -111.5 177t-17.5 159q21 137 135 227.5t270 90.5q90 0 162.5 -35t111 -105t24.5 -160q-38 -241 -430 -376l380 -397q29 31 66.5 92t60.5 122h82q-60 -160 -157 -269l197 -206l-119 -4
l-137 147q-102 -95 -231.5 -145.5t-265.5 -50.5zM716 746l160 69q206 87 233 252q17 109 -43.5 172.5t-176.5 63.5q-118 0 -200 -66.5t-100 -184.5q-9 -55 4.5 -102t57.5 -114q27 -40 65 -90zM649 62q121 0 238 47t206 130l-403 428q-152 -61 -233.5 -140.5t-97.5 -185.5
q-20 -129 57.5 -204t232.5 -75z" />
    <glyph glyph-name="quotesingle" unicode="'" horiz-adv-x="440" vert-adv-y="2130" 
d="M511 1376l-140 -250h-84l115 250h109z" />
    <glyph glyph-name="parenleft" unicode="(" horiz-adv-x="571" vert-adv-y="2130" 
d="M435 -194l-6 -39q-82 13 -134 143t-59.5 330.5t28.5 448.5q38 238 113 445.5t166.5 335t177.5 140.5l-6 -39q-68 -13 -140.5 -132.5t-134 -317.5t-98.5 -432q-37 -235 -38 -432.5t33 -317.5t98 -133z" />
    <glyph glyph-name="parenright" unicode=")" horiz-adv-x="571" vert-adv-y="2130" 
d="M68 -233l6 39q103 20 210 273t163 610q37 234 38 431.5t-33 317.5t-98 133l6 39q82 -13 134 -143t59.5 -330t-28.5 -448q-38 -238 -112.5 -446t-166.5 -335.5t-178 -140.5z" />
    <glyph glyph-name="asterisk" unicode="*" horiz-adv-x="739" vert-adv-y="2130" 
d="M579 1124l-23 -143h-63l23 143l-134 -71l-24 54l136 72l-113 72l41 54l111 -71l23 143h63l-23 -143l135 71l23 -54l-135 -72l112 -72l-40 -54z" />
    <glyph glyph-name="plus" unicode="+" horiz-adv-x="1070" vert-adv-y="2130" 
d="M665 572l-56 -353h-78l56 353h-353l12 78h353l56 353h78l-56 -353h353l-12 -78h-353z" />
    <glyph glyph-name="comma" unicode="," horiz-adv-x="466" vert-adv-y="2130" 
d="M327 134l-139 -250h-84l114 250h109z" />
    <glyph glyph-name="hyphen" unicode="-" horiz-adv-x="999" vert-adv-y="2130" 
d="M906 582l-12 -78h-629l12 78h629z" />
    <glyph glyph-name="period" unicode="." horiz-adv-x="455" vert-adv-y="2130" 
d="M228 7q-25 0 -40.5 18t-11.5 43t25 43.5t47 18.5q25 0 40 -18t11 -44q-4 -25 -25 -43t-46 -18z" />
    <glyph glyph-name="slash" unicode="/" horiz-adv-x="892" vert-adv-y="2130" 
d="M989 1455l-786 -1533h-84l786 1533h84z" />
    <glyph glyph-name="zero" unicode="0" horiz-adv-x="1395" vert-adv-y="2130" 
d="M692 -31q-91 0 -167 26t-130.5 73t-94 113t-57.5 146t-22 172t13 190q23 149 81.5 278.5t145 228t205.5 155.5t254 57q109 0 196 -37t143.5 -103t91.5 -156.5t39.5 -197t-11.5 -225.5q-32 -200 -122 -361.5t-237.5 -260t-327.5 -98.5zM704 47q119 0 223 52t178 141
t124 204t71 245q14 104 11.5 198t-32 175t-77 140.5t-123 93.5t-171.5 34q-119 0 -222.5 -52t-178 -140.5t-124.5 -203.5t-71 -245q-14 -104 -11.5 -198.5t32 -175.5t77 -140.5t123.5 -93.5t171 -34z" />
    <glyph glyph-name="one" unicode="1" horiz-adv-x="638" vert-adv-y="2130" 
d="M733 1388l-220 -1388h-78l205 1292l-280 -197l-45 56l340 237h78z" />
    <glyph glyph-name="two" unicode="2" horiz-adv-x="1238" vert-adv-y="2130" 
d="M1125 78l-12 -78h-988l12 78q10 63 38 122t63 106t91 96t104 84t121 77t123.5 68.5t128.5 65.5l46 22q69 35 101 51.5t78.5 43t67 44.5t45 44t35.5 53t16 60q9 60 -6.5 109.5t-50 83.5t-84 57.5t-106.5 34.5t-119 11q-105 0 -200 -30.5t-168.5 -97t-93.5 -157.5h-78
q18 88 71.5 158t129 113.5t164 66.5t183.5 24h6q98 0 181 -23t145 -67.5t91 -117t14 -164.5q-11 -66 -35.5 -113t-93.5 -97t-121 -79t-191 -99q-26 -13 -39 -20q-65 -33 -102.5 -52.5t-103 -57.5t-106 -67t-92.5 -72.5t-83.5 -84t-57 -92t-34.5 -104.5h910z" />
    <glyph glyph-name="three" unicode="3" horiz-adv-x="1318" vert-adv-y="2130" 
d="M659 0q-231 0 -362.5 104.5t-111.5 272.5h78q-14 -136 98 -219t309 -83q203 0 342.5 83t160.5 213q19 124 -78 214t-292 90l-15 -1l-117 -2l11 66l114 -3h15q185 0 306 86t139 204q20 125 -88 204t-302 79q-189 0 -321.5 -79.5t-158.5 -208.5h-76q32 160 189.5 260
t377.5 100q226 0 352.5 -99.5t102.5 -253.5q-17 -106 -100.5 -194t-193.5 -126q119 -45 175.5 -131.5t39.5 -198.5q-27 -168 -192.5 -272.5t-401.5 -104.5z" />
    <glyph glyph-name="four" unicode="4" horiz-adv-x="1371" vert-adv-y="2130" 
d="M1072 340l-54 -340h-79l54 340h-814l12 78l968 970h79l-154 -969h228l-12 -79h-228zM1005 419l135 850l-843 -850h708z" />
    <glyph glyph-name="five" unicode="5" horiz-adv-x="1288" vert-adv-y="2130" 
d="M629 0h-27q-183 14 -294 117.5t-119 269.5h81q12 -124 106 -202t243 -92h25q203 0 345.5 103.5t168.5 270.5q25 163 -85 266.5t-309 106.5q-120 -1 -225.5 -41.5t-178.5 -115.5h-96l203 705h826l-13 -78h-761l-133 -499q77 56 178 86.5t208 30.5h4q107 0 197.5 -29.5
t156.5 -85t95.5 -143.5t12.5 -198q-34 -212 -203 -342t-406 -130z" />
    <glyph glyph-name="six" unicode="6" horiz-adv-x="1305" vert-adv-y="2130" 
d="M654 1h-7q-233 2 -357 129.5t-92 327.5l37 238q55 349 211 521t416 172q338 0 441 -292h-86q-89 215 -368 215q-222 0 -348 -143.5t-184 -456.5q189 194 471 194h8q238 -2 363.5 -124.5t93.5 -322.5q-32 -203 -199.5 -330.5t-399.5 -127.5zM667 91q198 0 340 102.5
t168 264.5q25 161 -83.5 262.5t-310.5 101.5q-196 0 -338.5 -102t-167.5 -263q-26 -162 82.5 -264t309.5 -102z" />
    <glyph glyph-name="seven" unicode="7" horiz-adv-x="1278" vert-adv-y="2130" 
d="M1360 1309l-779 -1309h-86l779 1309h-942l13 79h1028z" />
    <glyph glyph-name="eight" unicode="8" horiz-adv-x="1317" vert-adv-y="2130" 
d="M658 1q-237 0 -368 106t-104 277q18 120 108 206.5t233 128.5q-119 37 -176 118.5t-39 195.5q25 162 182.5 263t384.5 101t353.5 -100.5t100.5 -260.5q-18 -116 -105.5 -199t-213.5 -119q127 -39 192.5 -127t46.5 -209q-27 -169 -192.5 -275t-402.5 -106zM777 749h21
q185 0 312 79.5t147 204.5q20 130 -87 210t-302 80q-194 0 -327 -80t-153 -210q-20 -128 87.5 -206t301.5 -78zM670 78q204 0 343.5 84t161.5 220q21 133 -87 216t-300 83h-22q-204 0 -342.5 -82t-159.5 -217q-22 -136 90.5 -220t315.5 -84z" />
    <glyph glyph-name="nine" unicode="9" horiz-adv-x="1305" vert-adv-y="2130" 
d="M663 0q-338 0 -441 292h86q88 -214 368 -214q103 0 185.5 32t139 84.5t98.5 131t67 161t42 185.5l-3 1q-79 -86 -205 -138t-272 -52q-236 0 -362 124.5t-94 323.5q32 202 199 329.5t400 127.5h8q233 -2 356.5 -129.5t91.5 -327.5l-37 -237q-56 -350 -211 -522t-416 -172z
M745 567q128 0 237.5 46t180 129.5t87.5 189.5q26 162 -82.5 264t-308.5 102q-198 0 -340.5 -102.5t-168.5 -264.5q-25 -161 84 -262.5t311 -101.5z" />
    <glyph glyph-name="colon" unicode=":" horiz-adv-x="455" vert-adv-y="2130" 
d="M335 691q-25 0 -40.5 18t-11.5 44q4 25 25.5 43t46.5 18t40 -18t11 -43t-25 -43.5t-46 -18.5zM226 0q-26 0 -41 18.5t-11 43.5t25 43t46 18t40.5 -18t11.5 -43q-5 -26 -25.5 -44t-45.5 -18z" />
    <glyph glyph-name="semicolon" unicode=";" horiz-adv-x="461" vert-adv-y="2130" 
d="M338 691q-25 0 -40.5 18.5t-11.5 43.5t25.5 43t46.5 18t40 -18t11 -43t-25 -43.5t-46 -18.5zM314 134l-139 -250h-84l114 250h109z" />
    <glyph glyph-name="less" unicode="&#x3c;" horiz-adv-x="1002" vert-adv-y="2130" 
d="M296 605l570 -343l-13 -88l-645 388l14 88l768 389l-15 -89z" />
    <glyph glyph-name="equal" unicode="=" horiz-adv-x="1092" vert-adv-y="2130" 
d="M1026 805l-12 -78h-706l12 78h706zM977 495l-12 -78h-706l12 78h706z" />
    <glyph glyph-name="greater" unicode="&#x3e;" horiz-adv-x="1002" vert-adv-y="2130" 
d="M986 650l-14 -88l-767 -388l13 88l680 343l-571 345l15 89z" />
    <glyph glyph-name="question" unicode="?" horiz-adv-x="1191" vert-adv-y="2130" 
d="M609 389l-20 -124h-81l22 124q8 48 17.5 79.5t20.5 53.5t35 41.5t46 33t69 38.5q44 24 72.5 39.5t76.5 44.5t80.5 52t72 56.5t65 64.5t45.5 69t26 75q20 128 -84.5 211t-282.5 83q-167 0 -283.5 -79.5t-143.5 -211.5h-78q33 166 174.5 267.5t340.5 101.5
q211 0 335.5 -106t99.5 -265q-38 -246 -484 -468q-68 -34 -87 -52q-40 -36 -54 -128zM506 0q-25 0 -40.5 18.5t-11.5 43.5t25 43t46 18t40.5 -18t11.5 -43q-5 -26 -25.5 -44t-45.5 -18z" />
    <glyph glyph-name="at" unicode="@" horiz-adv-x="1719" vert-adv-y="2130" 
d="M864 -31h-2q-117 0 -220.5 36.5t-181.5 103t-130.5 155t-71.5 198.5t0 227q23 146 101.5 279.5t190 229.5t253 153t287.5 57q192 0 346.5 -100t225.5 -268q64 -165 35 -351l-25 -159q-16 -99 -93 -171t-175 -72q-62 0 -105 32t-61 90h-4q-60 -61 -147.5 -95t-184.5 -34
h-8q-163 3 -259 91.5t-76 215.5l33 208q20 125 147 216t276 91q89 0 166.5 -36.5t123.5 -99.5l4 1l15 91h78l-91 -560q-8 -58 20.5 -95.5t80.5 -38.5q69 1 120 49t62 117l25 159q21 130 -11 248.5t-104 204.5t-183 137t-242 51q-174 0 -335.5 -86t-270.5 -233.5t-137 -321.5
t34.5 -322t196.5 -234t309 -86q213 0 426 144l-15 -97q-206 -125 -423 -125zM908 358l10 -1q125 0 216 65t116 169l33 213q8 91 -71 155t-200 64q-126 0 -226.5 -67t-115.5 -161l-33 -208q-14 -91 63.5 -157.5t207.5 -71.5z" />
    <glyph glyph-name="A" unicode="A" horiz-adv-x="1575" vert-adv-y="2130" 
d="M486 416l-265 -416h-87l874 1388l433 -1388h-87l-133 416h-735zM1198 508l-218 703l-443 -703h661z" />
    <glyph glyph-name="B" unicode="B" horiz-adv-x="1388" vert-adv-y="2130" 
d="M894 0h-769l220 1390h720q153 0 244 -107t67 -259q-16 -101 -81.5 -185.5t-152.5 -127.5q94 -35 146 -132t33 -213q-24 -152 -149 -259t-278 -107zM1053 1311h-641l-92 -577h641q120 0 218.5 85t117.5 205t-52 203.5t-192 83.5zM998 656h-690l-91 -577h690
q121 0 218.5 83.5t116.5 203.5t-52.5 205t-191.5 85z" />
    <glyph glyph-name="C" unicode="C" horiz-adv-x="1596" vert-adv-y="2130" 
d="M846 -31q-197 0 -349 97t-222.5 264t-39.5 365t155 365t306.5 264t379.5 97q185 0 333.5 -89.5t227.5 -247.5l-72 -46q-72 142 -205 223t-296 81q-176 0 -338.5 -86.5t-273 -235.5t-138.5 -325q-21 -132 11.5 -252t105.5 -206.5t184.5 -137.5t243.5 -51q163 0 321.5 81
t275.5 223l56 -46q-128 -158 -305 -247.5t-361 -89.5z" />
    <glyph glyph-name="D" unicode="D" horiz-adv-x="1444" vert-adv-y="2130" 
d="M624 0h-499l220 1390h499q141 0 261.5 -55t198.5 -148t112.5 -222t12.5 -270q-30 -189 -148.5 -349t-293 -253t-363.5 -93zM832 1311h-420l-195 -1232h420q167 0 322 82.5t259.5 224.5t131.5 309q20 125 -10.5 239t-100 196.5t-176 131.5t-231.5 49z" />
    <glyph glyph-name="E" unicode="E" horiz-adv-x="1295" vert-adv-y="2130" 
d="M1183 79l-13 -79h-1045l220 1390h1045l-12 -79h-966l-92 -577h907l-12 -78h-907l-91 -577h966z" />
    <glyph glyph-name="F" unicode="F" horiz-adv-x="1295" vert-adv-y="2130" 
d="M308 656l-104 -656h-79l220 1390h1045l-12 -79h-966l-92 -577h907l-12 -78h-907z" />
    <glyph glyph-name="G" unicode="G" horiz-adv-x="1591" vert-adv-y="2130" 
d="M846 -31q-197 0 -349 97t-222.5 264t-39.5 365t155 365t306.5 264t379.5 97q185 0 333.5 -89.5t227.5 -247.5l-72 -46q-72 142 -205 223t-296 81q-176 0 -338.5 -86.5t-273 -235.5t-138.5 -325q-21 -132 11.5 -252t105.5 -206.5t184.5 -137.5t243.5 -51q159 0 311.5 74.5
t265.5 205.5l49 310h-601l13 79h680l-65 -411q-125 -158 -302 -247.5t-364 -89.5z" />
    <glyph glyph-name="H" unicode="H" horiz-adv-x="1378" vert-adv-y="2130" 
d="M308 656l-104 -656h-79l220 1390h79l-104 -656h970l104 656h79l-220 -1390h-79l104 656h-970z" />
    <glyph glyph-name="I" unicode="I" horiz-adv-x="329" vert-adv-y="2130" 
d="M424 1390l-220 -1390h-79l220 1390h79z" />
    <glyph glyph-name="J" unicode="J" horiz-adv-x="1301" vert-adv-y="2130" 
d="M607 -31q-144 0 -260 71t-178 198l74 40q55 -108 155 -169t222 -61q201 0 365 142t196 343l136 857h79l-136 -857q-24 -153 -120 -283t-238 -205.5t-295 -75.5z" />
    <glyph glyph-name="K" unicode="K" horiz-adv-x="1365" vert-adv-y="2130" 
d="M280 479l-76 -479h-79l220 1390h79l-127 -804l1010 804h120l-678 -539l477 -851h-97l-446 799z" />
    <glyph glyph-name="L" unicode="L" horiz-adv-x="1295" vert-adv-y="2130" 
d="M1183 79l-13 -79h-1045l220 1390h79l-207 -1311h966z" />
    <glyph glyph-name="M" unicode="M" horiz-adv-x="1629" vert-adv-y="2130" 
d="M381 1132l-177 -1132h-79l220 1388h25l469 -1237l861 1237h24l-220 -1388h-79l181 1132l-791 -1132z" />
    <glyph glyph-name="N" unicode="N" horiz-adv-x="1378" vert-adv-y="2130" 
d="M390 1177l-186 -1177h-79l220 1392l861 -1187l188 1185h79l-220 -1390z" />
    <glyph glyph-name="O" unicode="O" horiz-adv-x="1703" vert-adv-y="2130" 
d="M846 -31q-197 0 -349 97t-222.5 264t-39.5 365t155 365t306.5 264t379.5 97q148 0 273.5 -57.5t207.5 -154.5t118.5 -231.5t12.5 -282.5q-31 -198 -155 -365t-306.5 -264t-380.5 -97zM859 48q176 0 339 86.5t273 235.5t138 325t-35 325t-198.5 235.5t-311.5 86.5
t-338.5 -86.5t-273 -235.5t-138.5 -325q-21 -132 11.5 -252t105.5 -206.5t184.5 -137.5t243.5 -51z" />
    <glyph glyph-name="P" unicode="P" horiz-adv-x="1388" vert-adv-y="2130" 
d="M283 498l-79 -498h-79l220 1390h691q122 0 215.5 -59.5t137 -162t24.5 -224.5q-30 -186 -181.5 -316t-336.5 -130h-612zM1024 1311h-612l-117 -734h612q152 0 277 107.5t150 259.5q24 152 -67 259.5t-243 107.5z" />
    <glyph glyph-name="Q" unicode="Q" horiz-adv-x="1703" vert-adv-y="2130" 
d="M846 -31q-197 0 -349 97t-222.5 264t-39.5 365t155 365t306.5 264t379.5 97q148 0 273.5 -57.5t207.5 -154.5t118.5 -231.5t12.5 -282.5q-20 -128 -85 -250t-165 -222l147 -172l-66 -57l-145 171q-117 -93 -254 -144.5t-274 -51.5zM859 48q256 0 468 174l-143 169l64 58
l143 -170q87 86 143.5 193.5t74.5 222.5q28 176 -35 325t-198.5 235.5t-311.5 86.5t-338.5 -86.5t-273 -235.5t-138.5 -325q-21 -132 11.5 -252t105.5 -206.5t184.5 -137.5t243.5 -51z" />
    <glyph glyph-name="R" unicode="R" horiz-adv-x="1388" vert-adv-y="2130" 
d="M283 499l-79 -499h-79l220 1390h691q122 0 215.5 -59.5t137 -162.5t23.5 -225q-26 -162 -148 -285t-285 -151l265 -507h-95l-262 499h-604zM1024 1311h-612l-116 -733h645q144 16 257 120.5t135 244.5q25 153 -66 260.5t-243 107.5z" />
    <glyph glyph-name="S" unicode="S" horiz-adv-x="1376" vert-adv-y="2130" 
d="M691 -31q-234 0 -379 113t-130 281h83q-11 -135 114 -225t324 -90q202 0 352 89t171 225q20 121 -89 200.5t-341 114.5q-253 39 -369.5 132.5t-93.5 239.5q17 106 98 191.5t206 133t269 47.5q216 0 350.5 -106.5t120.5 -265.5h-82q10 126 -104 209.5t-296 83.5
q-185 0 -322.5 -82.5t-157.5 -208.5q-18 -114 83.5 -189t310.5 -106q272 -41 398 -140t101 -253q-27 -170 -203 -282t-414 -112z" />
    <glyph glyph-name="T" unicode="T" horiz-adv-x="1444" vert-adv-y="2130" 
d="M970 1311l-208 -1311h-79l208 1311h-558l12 79h1194l-12 -79h-557z" />
    <glyph glyph-name="U" unicode="U" horiz-adv-x="1378" vert-adv-y="2130" 
d="M684 -31q-153 0 -271 75.5t-173 205.5t-31 283l136 857h79l-136 -857q-21 -132 26.5 -243.5t149 -176.5t233.5 -65q201 0 365 142t196 343l136 857h79l-136 -857q-24 -153 -120 -283t-238 -205.5t-295 -75.5z" />
    <glyph glyph-name="V" unicode="V" horiz-adv-x="1575" vert-adv-y="2130" 
d="M1574 1390h87l-873 -1390l-434 1390h87l377 -1198z" />
    <glyph glyph-name="W" unicode="W" horiz-adv-x="2222" vert-adv-y="2130" 
d="M1574 0l-264 1259l-662 -1259l-294 1388h81l249 -1162l614 1162h65l247 -1162l617 1162h81z" />
    <glyph glyph-name="X" unicode="X" horiz-adv-x="1550" vert-adv-y="2130" 
d="M875 630l-624 -630h-109l689 695l-469 695h109l424 -630l624 630h109l-689 -695l469 -695h-109z" />
    <glyph glyph-name="Y" unicode="Y" horiz-adv-x="1547" vert-adv-y="2130" 
d="M899 541l-86 -541h-79l86 541l-461 849h98l414 -773l659 773h98z" />
    <glyph glyph-name="Z" unicode="Z" horiz-adv-x="1542" vert-adv-y="2130" 
d="M1348 79l-13 -79h-1193l1298 1311h-1006l12 79h1174l-1297 -1311h1025z" />
    <glyph glyph-name="bracketleft" unicode="[" horiz-adv-x="587" vert-adv-y="2130" 
d="M482 -154l-13 -79h-311l292 1843h311l-13 -79h-233l-266 -1685h233z" />
    <glyph glyph-name="backslash" unicode="\" horiz-adv-x="892" vert-adv-y="2130" 
d="M447 1455l302 -1533h-84l-302 1533h84z" />
    <glyph glyph-name="bracketright" unicode="]" horiz-adv-x="587" vert-adv-y="2130" 
d="M647 1610l-292 -1843h-311l13 79h233l266 1685h-233l13 79h311z" />
    <glyph glyph-name="asciicircum" unicode="^" horiz-adv-x="1058" vert-adv-y="2130" 
d="M734 1296l-339 -470h-90l398 551h89l223 -551h-89z" />
    <glyph glyph-name="underscore" unicode="_" horiz-adv-x="1188" vert-adv-y="2130" 
d="M1022 -18l-12 -79h-862l12 79h862z" />
    <glyph glyph-name="grave" unicode="`" horiz-adv-x="846" vert-adv-y="2130" 
d="M565 1438l238 -220l-61 -60l-236 220z" />
    <glyph glyph-name="a" unicode="a" horiz-adv-x="1019" vert-adv-y="2130" 
d="M511 -19q-162 0 -261.5 89t-79.5 213q21 131 158.5 221t313.5 90h267l11 67q8 105 -55 169.5t-187 64.5q-74 0 -145.5 -24t-131.5 -78t-78 -128h-79q24 95 97 167t164 106t186 34q166 0 247 -91t57 -246l-101 -635h-79l17 107q-142 -126 -321 -126zM519 59q120 0 219 64
t121 155l38 238h-267q-143 0 -254.5 -67t-127.5 -164q-14 -92 65.5 -159t205.5 -67z" />
    <glyph glyph-name="b" unicode="b" horiz-adv-x="1144" vert-adv-y="2130" 
d="M573 -19q-120 0 -208 59t-130 165l-32 -205h-78l218 1377h78l-97 -612q75 106 181.5 165t227.5 59q190 0 293.5 -143.5t69.5 -360.5q-23 -142 -99 -257.5t-187.5 -181t-236.5 -65.5zM585 59q159 0 284 122t154 304t-57.5 304t-245.5 122q-158 0 -283.5 -122t-153.5 -304
q-29 -182 57.5 -304t244.5 -122z" />
    <glyph glyph-name="c" unicode="c" horiz-adv-x="1129" vert-adv-y="2130" 
d="M597 -19q-204 0 -316.5 143.5t-78.5 360.5q23 143 103 258t199 180.5t253 65.5q121 0 216 -57.5t147 -161.5l-73 -44q-44 87 -124 136t-179 49q-170 0 -302.5 -122t-161.5 -304t65 -304t264 -122q99 0 194.5 49t167.5 136l59 -44q-85 -104 -198.5 -161.5t-234.5 -57.5z
" />
    <glyph glyph-name="d" unicode="d" horiz-adv-x="1144" vert-adv-y="2130" 
d="M564 -19q-189 0 -292.5 144t-69.5 360t183.5 360t338.5 144q121 0 208 -59t129 -165l97 612h79l-218 -1377h-79l32 205q-75 -106 -181 -165t-227 -59zM576 59q159 0 284 122t154 304t-57.5 304t-245.5 122q-158 0 -282.5 -122t-153.5 -304t57 -304t244 -122z" />
    <glyph glyph-name="e" unicode="e" horiz-adv-x="1200" vert-adv-y="2130" 
d="M597 -19q-204 0 -316.5 143.5t-78.5 360.5q35 217 192.5 360.5t362.5 143.5q133 0 230.5 -66.5t140.5 -181.5t24 -256h-872q-29 -182 65 -304t264 -122q131 0 246 79.5t180 213.5l71 -25q-76 -158 -214 -252t-295 -94zM298 563h781q-1 152 -94 250t-241 98
q-147 0 -271.5 -98t-174.5 -250z" />
    <glyph glyph-name="f" unicode="f" horiz-adv-x="697" vert-adv-y="2130" 
d="M500 892l-141 -892h-79l141 892h-155l13 78h155l20 126q18 116 116 200.5t222 91.5l-13 -78q-91 -6 -162 -67.5t-84 -146.5l-20 -126h187l-13 -78h-187z" />
    <glyph glyph-name="g" unicode="g" horiz-adv-x="1135" vert-adv-y="2130" 
d="M523 -417q-147 0 -243 73.5t-122 204.5h82q26 -95 103.5 -147t192.5 -52q159 0 269 91.5t135 246.5l32 202q-75 -106 -181 -165t-227 -59q-189 0 -293 143.5t-70 360.5q23 142 98.5 258t187.5 181.5t236 65.5q121 0 208.5 -59.5t129.5 -165.5l33 210h79l-152 -962
q-31 -194 -166.5 -310.5t-331.5 -116.5zM576 56q159 0 283.5 122t153.5 304q29 183 -57 304.5t-245 121.5q-158 0 -283 -121.5t-154 -304.5q-29 -182 57.5 -304t244.5 -122z" />
    <glyph glyph-name="h" unicode="h" vert-adv-y="2130" 
d="M304 631l-100 -631h-79l220 1388h78l-85 -537q61 64 142 101t167 37q152 0 242 -106t66 -258l-99 -625h-79l99 625q19 118 -51.5 202t-189.5 84q-118 0 -215 -82t-117 -198h1z" />
    <glyph glyph-name="i" unicode="i" horiz-adv-x="373" vert-adv-y="2130" 
d="M386 1254q-26 0 -41.5 18.5t-11.5 43.5q5 25 26 43t46 18t40 -18t11 -43t-24.5 -43.5t-45.5 -18.5zM380 970l-154 -970h-79l154 970h79z" />
    <glyph glyph-name="j" unicode="j" horiz-adv-x="704" vert-adv-y="2130" 
d="M716 1254q-25 0 -40.5 18.5t-11.5 43.5q5 25 25.5 43t45.5 18q26 0 41 -18t11 -43q-4 -26 -25 -44t-46 -18zM57 -429l14 78q158 4 267.5 97t136.5 243l156 983h80l-154 -974q-31 -191 -166.5 -307t-333.5 -120z" />
    <glyph glyph-name="k" unicode="k" horiz-adv-x="1011" vert-adv-y="2130" 
d="M253 313l-50 -314h-78l220 1389h78l-154 -969l657 551h98l-475 -406l319 -565h-90l-287 516z" />
    <glyph glyph-name="l" unicode="l" horiz-adv-x="328" vert-adv-y="2130" 
d="M423 1388l-220 -1388h-78l220 1388h78z" />
    <glyph glyph-name="m" unicode="m" horiz-adv-x="1486" vert-adv-y="2130" 
d="M295 625l-99 -625h-71l154 970h71l-19 -116q122 135 282 135q199 0 255 -201q55 94 139.5 147.5t181.5 53.5q138 0 216.5 -106t54.5 -258l-99 -625h-71l99 625q19 119 -42.5 204.5t-166.5 85.5q-100 0 -187 -80t-112 -193l-102 -642h-72l102 642q11 113 -50.5 193
t-161.5 80q-106 0 -194.5 -85.5t-107.5 -204.5z" />
    <glyph glyph-name="n" unicode="n" vert-adv-y="2130" 
d="M303 625l-99 -625h-79l153 968h78l-18 -117q61 64 142 101t167 37q152 0 242 -106t66 -258l-99 -625h-79l99 625q19 118 -51.5 202t-189.5 84t-216 -83.5t-116 -202.5z" />
    <glyph glyph-name="o" unicode="o" horiz-adv-x="1201" vert-adv-y="2130" 
d="M597 -19q-204 0 -316.5 143.5t-78.5 360.5q23 143 103 258t199 180.5t253 65.5q135 0 233.5 -65.5t142 -180.5t20.5 -258q-35 -217 -193 -360.5t-363 -143.5zM609 59q170 0 303 122t162 304t-65.5 304t-264.5 122t-302.5 -122t-161.5 -304t65 -304t264 -122z" />
    <glyph glyph-name="p" unicode="p" horiz-adv-x="1144" vert-adv-y="2130" 
d="M235 202l-97 -612h-78l218 1377h78l-32 -205q75 106 181.5 165.5t226.5 59.5q125 0 216 -65.5t130.5 -181.5t16.5 -258q-34 -216 -183 -360t-339 -144q-120 0 -208 59t-130 165zM585 56q159 0 283.5 122t153.5 304q29 183 -57 304.5t-245 121.5q-158 0 -283.5 -121.5
t-154.5 -304.5q-29 -182 58 -304t245 -122z" />
    <glyph glyph-name="q" unicode="q" horiz-adv-x="1144" vert-adv-y="2130" 
d="M1172 967l-218 -1377h-79l97 612q-75 -106 -181 -165t-227 -59q-189 0 -293 143.5t-70 360.5q23 142 98.5 258t187.5 181.5t236 65.5q121 0 208.5 -59.5t129.5 -165.5l32 205h79zM576 56q159 0 283.5 122t153.5 304q29 183 -57 304.5t-245 121.5q-158 0 -283 -121.5
t-154 -304.5q-29 -182 57.5 -304t244.5 -122z" />
    <glyph glyph-name="r" unicode="r" horiz-adv-x="702" vert-adv-y="2130" 
d="M303 625l-99 -625h-79l153 968h78l-18 -117q61 64 142 101t167 37q33 0 85 -10l-13 -81q-46 13 -84 13q-119 0 -216 -83.5t-116 -202.5z" />
    <glyph glyph-name="s" unicode="s" horiz-adv-x="1058" vert-adv-y="2130" 
d="M529 -19q-170 0 -271.5 79t-91.5 201h80q-4 -65 41 -112.5t111.5 -68.5t141.5 -21q56 0 113.5 12.5t109 36t88 64.5t44.5 92q6 37 -7.5 66.5t-36.5 48t-65.5 34.5t-79.5 25t-93 22q-2 0 -3.5 0.5l-3 1t-3.5 0.5q-95 21 -146.5 36.5t-106 44t-73.5 71.5t-9 104
q19 121 136.5 196t280.5 75q158 0 252 -74.5t85 -189.5h-80q5 81 -70 133.5t-194 52.5q-75 0 -143.5 -19t-122 -63.5t-63.5 -107.5q-6 -35 7 -63t32.5 -44.5t62.5 -32t73.5 -23t90.5 -19.5q61 -12 101.5 -22t89.5 -26t78.5 -35.5t55 -46t34 -62.5t1.5 -80
q-20 -127 -146 -206.5t-300 -79.5z" />
    <glyph glyph-name="t" unicode="t" horiz-adv-x="716" vert-adv-y="2130" 
d="M603 78l-12 -79q-122 7 -193 91.5t-53 200.5l95 601h-174l13 78h174l66 418h79l-66 -418h194l-13 -78h-194l-95 -601q-14 -85 38 -146.5t141 -66.5z" />
    <glyph glyph-name="u" unicode="u" vert-adv-y="2130" 
d="M488 -20q-152 0 -242.5 106.5t-65.5 258.5l98 624h78l-98 -624q-19 -119 51.5 -203t189.5 -84t216 84t117 203l98 624h79l-153 -968h-79l19 117q-62 -64 -142.5 -101t-165.5 -37z" />
    <glyph glyph-name="v" unicode="v" horiz-adv-x="1168" vert-adv-y="2130" 
d="M1101 970h87l-604 -970l-296 970h86l236 -807z" />
    <glyph glyph-name="w" unicode="w" horiz-adv-x="1549" vert-adv-y="2130" 
d="M1078 0l-166 864l-440 -864l-187 970h73l146 -767l393 767h63l150 -767l389 767h73z" />
    <glyph glyph-name="x" unicode="x" horiz-adv-x="1132" vert-adv-y="2130" 
d="M632 422l-388 -422h-104l455 485l-301 485h104l254 -421l390 421h104l-455 -485l301 -485h-104z" />
    <glyph glyph-name="y" unicode="y" horiz-adv-x="1168" vert-adv-y="2130" 
d="M1188 970l-872 -1400h-74l318 507l-272 893h86l236 -807l491 807h87z" />
    <glyph glyph-name="z" unicode="z" horiz-adv-x="1018" vert-adv-y="2130" 
d="M905 78l-12 -78h-768l12 78l797 814h-629l13 78h729l-13 -77l-797 -815h668z" />
    <glyph glyph-name="braceleft" unicode="{" horiz-adv-x="646" vert-adv-y="2130" 
d="M541 -154l-13 -79h-117q-80 0 -128 57.5t-35 137.5l90 571q8 47 -21.5 81.5t-75.5 34.5h-39l12 79h39q48 0 88 34t47 82l90 571q13 81 79 138t146 57h117l-13 -79h-117q-47 0 -86.5 -34t-46.5 -82l-90 -571q-16 -93 -98 -152l-1 -6q64 -64 49 -153l-90 -571
q-7 -48 21.5 -82t75.5 -34h117z" />
    <glyph glyph-name="bar" unicode="|" horiz-adv-x="468" vert-adv-y="2130" 
d="M534 1648l-310 -1958h-78l310 1958h78z" />
    <glyph glyph-name="braceright" unicode="}" horiz-adv-x="646" vert-adv-y="2130" 
d="M161 -233h-117l13 79h117q47 0 87 34t47 82l90 571q16 93 98 153l1 6q-65 56 -49 152l90 571q7 48 -22 82t-76 34h-117l13 79h117q80 0 128 -57t35 -138l-90 -571q-8 -48 20.5 -82t76.5 -34h39l-12 -79h-39q-47 0 -87.5 -35t-47.5 -81l-90 -571q-13 -80 -79 -137.5
t-146 -57.5z" />
    <glyph glyph-name="asciitilde" unicode="~" horiz-adv-x="1173" vert-adv-y="2130" 
d="M869 758q-98 0 -169 84q-52 61 -116 61q-62 0 -137 -61l-63 -56l-46 56l64 54q95 83 191 83q100 0 170 -83q51 -62 116 -62q63 0 136 62l63 55l46 -55l-64 -54q-95 -84 -191 -84z" />
    <glyph glyph-name="exclamdown" unicode="&#xa1;" horiz-adv-x="491" vert-adv-y="2130" 
d="M445 1254q-26 0 -41.5 18.5t-11.5 43.5q5 25 26 43t46 18t40 -18t11 -43t-24.5 -43.5t-45.5 -18.5zM375 532l-84 -532h-91l84 532l95 496h59z" />
    <glyph glyph-name="cent" unicode="&#xa2;" horiz-adv-x="1103" vert-adv-y="2130" 
d="M605 -18l-19 -118h-78l19 120q-184 19 -280 159t-64 342t172.5 342t330.5 159l19 120h78l-19 -118q111 -5 199.5 -62.5t137.5 -155.5l-73 -44q-41 82 -113.5 130t-162.5 53l-134 -848q91 5 179.5 53.5t154.5 129.5l59 -44q-80 -98 -186.5 -155.5t-219.5 -62.5zM540 62
l134 846q-155 -23 -271 -140.5t-142 -282.5t53 -282.5t226 -140.5z" />
    <glyph glyph-name="sterling" unicode="&#xa3;" horiz-adv-x="1123" vert-adv-y="2130" 
d="M984 78l-12 -78h-815l12 78q96 90 170 203t91 218q5 35 5 77v5h-186l13 79h165l-3 13l-16 83q-29 149 -15 243q27 171 165 290t307 119q89 0 164.5 -38.5t126.5 -108.5l-65 -55q-42 59 -104.5 91.5t-133.5 32.5q-136 0 -248 -96.5t-134 -233.5q-12 -75 17 -217
q16 -68 23 -123h399l-13 -79h-382q0 -39 -6 -78q-19 -119 -85.5 -230.5t-152.5 -194.5h713z" />
    <glyph glyph-name="yen" unicode="&#xa5;" horiz-adv-x="1490" vert-adv-y="2130" 
d="M829 287l-45 -287h-78l45 287h-275l13 78h275l36 230h-275l13 79h216l-420 703h99l419 -703l641 703h99l-642 -703h217l-13 -79h-276l-36 -230h276l-13 -78h-276z" />
    <glyph glyph-name="brokenbar" unicode="&#xa6;" horiz-adv-x="496" vert-adv-y="2130" 
d="M548 1648l-126 -795h-78l126 795h78zM364 485l-126 -795h-78l126 795h78z" />
    <glyph glyph-name="dieresis" unicode="&#xa8;" horiz-adv-x="858" vert-adv-y="2130" 
d="M480 1183q-25 0 -40.5 18.5t-11.5 43.5t25.5 43t46.5 18t40 -18t11 -43t-25 -43.5t-46 -18.5zM752 1183q-25 0 -40.5 18.5t-11.5 43.5t25.5 43t46.5 18t40 -18t11 -43t-25 -43.5t-46 -18.5z" />
    <glyph glyph-name="copyright" unicode="&#xa9;" horiz-adv-x="1617" vert-adv-y="2130" 
d="M809 0q-187 0 -331 92.5t-211.5 251t-37.5 345.5q30 186 147 344.5t290.5 251t360.5 92.5q186 0 330 -92.5t211.5 -251t37.5 -344.5q-30 -187 -147 -345.5t-290.5 -251t-359.5 -92.5zM819 62q170 0 327.5 84t264 228t133.5 315q20 127 -11 243t-101.5 200t-179 133.5
t-235.5 49.5q-128 0 -252 -49.5t-221 -133.5t-165 -200t-88 -243q-27 -171 34 -315t192 -228t302 -84zM865 277q-171 0 -272 120t-74 292q27 171 166 291t310 120q104 0 189.5 -53t131.5 -145l-57 -37q-39 81 -112 127t-162 46q-145 0 -263.5 -102t-141.5 -247t63 -247.5
t232 -102.5q88 0 175 46t152 127l46 -37q-74 -92 -176.5 -145t-206.5 -53z" />
    <glyph glyph-name="ordfeminine" unicode="&#xaa;" horiz-adv-x="601" vert-adv-y="2130" 
d="M444 925q-77 0 -136 46t-47 123q9 56 55 96.5t100 58t106 17.5h138l4 29q3 16 -2 34q-6 40 -38 62.5t-86 22.5q-57 0 -103.5 -26t-69.5 -67h5l-6 -39h-74l6 39h13q28 70 95.5 108t143.5 38q90 0 136 -49t32 -136l-50 -317h10l-6 -39h-40l1 9h-24l9 56q-77 -66 -172 -66z
M456 979q48 0 92.5 21.5t67.5 55.5q11 16 16 34l19 121h-138q-61 0 -125 -31t-73 -85q-7 -48 34.5 -82t106.5 -34z" />
    <glyph glyph-name="guillemotleft" unicode="&#xab;" horiz-adv-x="1060" vert-adv-y="1700" 
d="M327 493l285 -337l-65 -56l-330 393l454 392l47 -55zM634 493l284 -337l-64 -56l-331 393l455 392l46 -55z" />
    <glyph glyph-name="logicalnot" unicode="&#xac;" horiz-adv-x="1252" vert-adv-y="2130" 
d="M1162 650l-68 -427h-79l56 349h-783l12 78h862z" />
    <glyph glyph-name="registered" unicode="&#xae;" horiz-adv-x="1617" vert-adv-y="2130" 
d="M809 0q-187 0 -331 92.5t-211.5 251t-37.5 345.5q30 186 147 344.5t290.5 251t360.5 92.5q186 0 330 -92.5t211.5 -251t37.5 -344.5q-30 -187 -147 -345.5t-290.5 -251t-359.5 -92.5zM819 62q170 0 327.5 84t264 228t133.5 315q20 127 -11 243t-101.5 200t-179 133.5
t-235.5 49.5q-128 0 -252 -49.5t-221 -133.5t-165 -200t-88 -243q-27 -171 34 -315t192 -228t302 -84zM659 568l-45 -282h-63l128 805h401q110 0 174 -76.5t47 -185.5q-14 -92 -82 -163t-159 -90l151 -290h-75l-149 282h-328zM1070 1029h-338l-63 -398h357q78 8 139 65
t73 133q13 85 -35.5 142.5t-132.5 57.5z" />
    <glyph glyph-name="macron" unicode="&#xaf;" horiz-adv-x="858" vert-adv-y="2130" 
d="M834 1266l-13 -79h-408l13 79h408z" />
    <glyph glyph-name="degree" unicode="&#xb0;" horiz-adv-x="690" vert-adv-y="2130" 
d="M502 989q-85 0 -135 59.5t-37 144.5q14 84 82.5 143.5t153.5 59.5t135.5 -59.5t36.5 -143.5q-14 -85 -82.5 -144.5t-153.5 -59.5zM514 1067q52 0 95 37t51 89t-23 88.5t-83 36.5t-95 -36.5t-51 -88.5t23 -89t83 -37z" />
    <glyph glyph-name="plusminus" unicode="&#xb1;" horiz-adv-x="1043" vert-adv-y="2130" 
d="M676 727l-43 -275h-79l43 275h-275l12 78h275l44 276h79l-44 -276h275l-12 -78h-275zM883 297l-12 -78h-629l12 78h629z" />
    <glyph glyph-name="uni00B2" unicode="&#xb2;" horiz-adv-x="516" vert-adv-y="1700" 
d="M602 1007l-9 -62h-371l7 44q6 37 26 69.5t53.5 59t61.5 44.5t69 39l16 8q1 0 19 9l40 20q68 31 74 72q6 37 -25 59t-86 22q-54 0 -90 -25.5t-47 -71.5h-62l3 18q11 69 72 104.5t136 35.5q46 0 83.5 -13t61.5 -47t16 -84q-6 -42 -29 -66t-71 -51l-14 -7l-36 -19l-11 -6
q-64 -31 -90 -47q-83 -51 -103 -105h306z" />
    <glyph glyph-name="uni00B3" unicode="&#xb3;" horiz-adv-x="543" vert-adv-y="1700" 
d="M421 945q-79 0 -133.5 37.5t-42.5 112.5l3 18h63l-3 -18q-6 -40 28 -64t94 -24q61 0 103 24t48 64q7 38 -24.5 62.5t-85.5 24.5h-63l9 57h63q51 0 88 23.5t42 59.5q6 38 -26.5 61t-91.5 23q-57 0 -95 -26.5t-49 -75.5h-60l2 18q12 72 74.5 108t138.5 36q77 0 129 -36
t41 -106q-10 -66 -76 -108l-1 -6q59 -43 47 -118q-12 -73 -77.5 -110t-144.5 -37z" />
    <glyph glyph-name="acute" unicode="&#xb4;" horiz-adv-x="846" vert-adv-y="2130" 
d="M787 1438l41 -60l-308 -220l-39 60z" />
    <glyph glyph-name="paragraph" unicode="&#xb6;" horiz-adv-x="1201" vert-adv-y="2130" 
d="M1004 1299l-206 -1299h-78l78 494h-159q-183 0 -292 129t-80 312q19 120 94.5 222t186.5 161t231 59h431l-218 -1377h-78l206 1299h-116zM652 573h159l115 726h-159q-151 0 -274.5 -106.5t-147.5 -257.5t65.5 -256.5t241.5 -105.5z" />
    <glyph glyph-name="periodcentered" unicode="&#xb7;" horiz-adv-x="455" vert-adv-y="2130" 
d="M327 634q-25 0 -40.5 18t-11.5 43t25 43.5t47 18.5q25 0 40 -18t11 -44q-4 -25 -25 -43t-46 -18z" />
    <glyph glyph-name="cedilla" unicode="&#xb8;" horiz-adv-x="1185" vert-adv-y="2130" 
d="M456 -312l9 59q50 6 88.5 39.5t46.5 77.5h-117l21 127h59l-11 -68h116l-9 -58q-11 -68 -69.5 -118.5t-133.5 -58.5z" />
    <glyph glyph-name="uni00B9" unicode="&#xb9;" horiz-adv-x="327" vert-adv-y="1700" 
d="M484 1451l-79 -498h-62l65 412l-77 -53l-35 44l138 95h50z" />
    <glyph glyph-name="ordmasculine" unicode="&#xba;" horiz-adv-x="699" vert-adv-y="2130" 
d="M490 890q-112 0 -174 79t-43 197t105.5 197t198.5 79q113 0 175.5 -79t43.5 -197t-106 -197t-200 -79zM499 944q89 0 158 63.5t84 158.5t-34 158.5t-138 63.5q-88 0 -157.5 -63.5t-84.5 -158.5t34 -158.5t138 -63.5z" />
    <glyph glyph-name="guillemotright" unicode="&#xbb;" horiz-adv-x="1060" vert-adv-y="1700" 
d="M362 885l331 -392l-455 -393l-46 56l390 337l-284 337zM668 885l331 -392l-455 -393l-46 56l391 337l-285 337z" />
    <glyph glyph-name="questiondown" unicode="&#xbf;" horiz-adv-x="1191" vert-adv-y="2130" 
d="M888 1285q-26 0 -41.5 18.5t-11.5 43.5q5 25 26 43t46 18t40 -18t11 -43t-24.5 -43.5t-45.5 -18.5zM614 0q-212 0 -336.5 106t-99.5 265q38 246 484 468q68 34 87 52q40 36 54 128l20 125h81l-21 -125q-8 -48 -18 -79.5t-20.5 -53.5t-35.5 -41.5t-46 -32.5t-69 -39
q-44 -24 -72.5 -39.5t-76.5 -44.5t-80.5 -52t-72 -56.5t-65 -64.5t-45.5 -69t-26 -75q-20 -128 85 -211t283 -83q167 0 283 79.5t143 211.5h78q-33 -166 -174.5 -267.5t-339.5 -101.5z" />
    <glyph glyph-name="Agrave" unicode="&#xc0;" horiz-adv-x="1575" vert-adv-y="2130" 
d="M995 1863l240 -223l-60 -60l-239 222zM486 416l-265 -416h-87l874 1388l433 -1388h-87l-133 416h-735zM1198 508l-218 703l-443 -703h661z" />
    <glyph glyph-name="Aacute" unicode="&#xc1;" horiz-adv-x="1575" vert-adv-y="2130" 
d="M1194 1863l41 -61l-310 -222l-39 60zM487 422l-266 -422h-87l877 1409l430 -1409h-87l-132 422h-735zM1200 515l-217 714l-444 -714h661z" />
    <glyph glyph-name="Acircumflex" unicode="&#xc2;" horiz-adv-x="1575" vert-adv-y="2130" 
d="M1233 1602l-168 144l-215 -144l-41 60l271 183l212 -183zM486 416l-265 -416h-87l874 1388l433 -1388h-87l-133 416h-735zM1198 508l-218 703l-443 -703h661z" />
    <glyph glyph-name="Atilde" unicode="&#xc3;" horiz-adv-x="1575" vert-adv-y="2130" 
d="M1120 1614q-53 0 -96 52q-23 25 -45 25q-23 0 -53 -25l-52 -46l-47 55l53 45q59 52 112 52q52 0 95 -52q24 -26 45 -26q22 0 53 26l53 46l46 -56l-53 -44q-59 -52 -111 -52zM486 416l-265 -416h-87l874 1388l433 -1388h-87l-133 416h-735zM1198 508l-218 703l-443 -703
h661z" />
    <glyph glyph-name="Adieresis" unicode="&#xc4;" horiz-adv-x="1575" vert-adv-y="2130" 
d="M905 1606q-25 0 -40.5 18t-11.5 43t25 43.5t47 18.5q25 0 40.5 -18.5t11.5 -43.5t-25.5 -43t-46.5 -18zM1180 1606q-25 0 -40.5 18t-11.5 43t25 43.5t47 18.5q25 0 40 -18t11 -44q-4 -25 -25 -43t-46 -18zM486 416l-265 -416h-87l874 1388l433 -1388h-87l-133 416h-735z
M1198 508l-218 703l-443 -703h661z" />
    <glyph glyph-name="Aring" unicode="&#xc5;" horiz-adv-x="1575" vert-adv-y="2130" 
d="M1037 1573q-65 0 -104 46t-28 111t64 111t118 46t103 -46t28 -111q-11 -65 -64 -111t-117 -46zM1050 1652q32 0 58.5 23t31.5 55t-14.5 55t-51.5 23t-58.5 -23t-31.5 -55t14.5 -55t51.5 -23zM486 416l-265 -416h-87l874 1388l433 -1388h-87l-133 416h-735zM1198 508
l-218 703l-443 -703h661z" />
    <glyph glyph-name="AE" unicode="&#xc6;" horiz-adv-x="1957" vert-adv-y="2130" 
d="M488 422l-267 -422h-87l873 1390h1045l-12 -79h-966l-92 -577h907l-12 -78h-907l-91 -577h966l-13 -79h-1045l67 422h-366zM975 1190h-3l-436 -689h330z" />
    <glyph glyph-name="Ccedilla" unicode="&#xc7;" horiz-adv-x="1596" vert-adv-y="2130" 
d="M657 -315l10 60q50 6 88.5 40t46.5 78h-117l19 120q-163 33 -279.5 135.5t-166.5 253.5t-23 323q31 198 155 365t306.5 264t379.5 97q185 0 333.5 -89.5t227.5 -247.5l-72 -46q-72 142 -205 223t-296 81q-176 0 -338.5 -86.5t-273 -235.5t-138.5 -325q-21 -132 11.5 -252
t105.5 -206.5t184.5 -137.5t243.5 -51q163 0 321.5 81t275.5 223l56 -46q-128 -159 -305 -248t-363 -89q-45 0 -82 4l-8 -51h118l-10 -59q-10 -69 -69 -119.5t-136 -58.5z" />
    <glyph glyph-name="Egrave" unicode="&#xc8;" horiz-adv-x="1295" vert-adv-y="2130" 
d="M830 1863l240 -223l-61 -60l-238 222zM1183 79l-13 -79h-1045l220 1390h1045l-12 -79h-966l-92 -577h907l-12 -78h-907l-91 -577h966z" />
    <glyph glyph-name="Eacute" unicode="&#xc9;" horiz-adv-x="1295" vert-adv-y="2130" 
d="M1054 1863l41 -61l-310 -222l-39 60zM1183 79l-13 -79h-1045l220 1390h1045l-12 -79h-966l-92 -577h907l-12 -78h-907l-91 -577h966z" />
    <glyph glyph-name="Ecircumflex" unicode="&#xca;" horiz-adv-x="1295" vert-adv-y="2130" 
d="M1093 1602l-168 144l-214 -144l-42 60l271 183l213 -183zM1183 79l-13 -79h-1045l220 1390h1045l-12 -79h-966l-92 -577h907l-12 -78h-907l-91 -577h966z" />
    <glyph glyph-name="Edieresis" unicode="&#xcb;" horiz-adv-x="1295" vert-adv-y="2130" 
d="M764 1606q-25 0 -40.5 18t-11.5 43t25 43.5t47 18.5q25 0 40.5 -18.5t11.5 -43.5t-25.5 -43t-46.5 -18zM1039 1606q-25 0 -40.5 18t-11.5 43t25 43.5t47 18.5q25 0 40.5 -18.5t11.5 -43.5t-25.5 -43t-46.5 -18zM1183 79l-13 -79h-1045l220 1390h1045l-12 -79h-966
l-92 -577h907l-12 -78h-907l-91 -577h966z" />
    <glyph glyph-name="Igrave" unicode="&#xcc;" horiz-adv-x="336" vert-adv-y="2130" 
d="M350 1863l240 -223l-60 -60l-239 222zM427 1390l-220 -1390h-78l220 1390h78z" />
    <glyph glyph-name="Iacute" unicode="&#xcd;" horiz-adv-x="336" vert-adv-y="2130" 
d="M575 1863l40 -61l-310 -222l-39 60zM427 1390l-220 -1390h-78l220 1390h78z" />
    <glyph glyph-name="Icircumflex" unicode="&#xce;" horiz-adv-x="334" vert-adv-y="2130" 
d="M612 1602l-168 144l-214 -144l-42 60l271 183l213 -183zM426 1390l-220 -1390h-79l220 1390h79z" />
    <glyph glyph-name="Idieresis" unicode="&#xcf;" horiz-adv-x="321" vert-adv-y="2130" 
d="M277 1606q-25 0 -40.5 18t-11.5 43t25 43.5t47 18.5q25 0 40.5 -18t11.5 -44q-4 -25 -25.5 -43t-46.5 -18zM552 1606q-25 0 -40.5 18t-11.5 43t25 43.5t47 18.5q25 0 40.5 -18.5t11.5 -43.5t-25.5 -43t-46.5 -18zM420 1390l-220 -1390h-79l220 1390h79z" />
    <glyph glyph-name="Ntilde" unicode="&#xd1;" horiz-adv-x="1378" vert-adv-y="2130" 
d="M1022 1614q-53 0 -96 52q-23 25 -45 25q-23 0 -54 -25l-51 -46l-48 55l53 45q59 52 112 52q52 0 95 -52q24 -26 45 -26q22 0 53 26l53 46l47 -56l-53 -44q-61 -52 -111 -52zM390 1177l-186 -1177h-79l220 1392l861 -1187l188 1185h79l-220 -1390z" />
    <glyph glyph-name="Ograve" unicode="&#xd2;" horiz-adv-x="1703" vert-adv-y="2130" 
d="M1034 1863l240 -223l-61 -60l-239 222zM846 -31q-197 0 -349 97t-222.5 264t-39.5 365t155 365t306.5 264t379.5 97q148 0 273.5 -57.5t207.5 -154.5t118.5 -231.5t12.5 -282.5q-31 -198 -155 -365t-306.5 -264t-380.5 -97zM859 48q176 0 339 86.5t273 235.5t138 325
t-35 325t-198.5 235.5t-311.5 86.5t-338.5 -86.5t-273 -235.5t-138.5 -325q-21 -132 11.5 -252t105.5 -206.5t184.5 -137.5t243.5 -51z" />
    <glyph glyph-name="Oacute" unicode="&#xd3;" horiz-adv-x="1703" vert-adv-y="2130" 
d="M1258 1863l41 -61l-310 -222l-40 60zM846 -31q-197 0 -349 97t-222.5 264t-39.5 365t155 365t306.5 264t379.5 97q148 0 273.5 -57.5t207.5 -154.5t118.5 -231.5t12.5 -282.5q-31 -198 -155 -365t-306.5 -264t-380.5 -97zM859 48q176 0 339 86.5t273 235.5t138 325
t-35 325t-198.5 235.5t-311.5 86.5t-338.5 -86.5t-273 -235.5t-138.5 -325q-21 -132 11.5 -252t105.5 -206.5t184.5 -137.5t243.5 -51z" />
    <glyph glyph-name="Ocircumflex" unicode="&#xd4;" horiz-adv-x="1703" vert-adv-y="2130" 
d="M1296 1602l-168 144l-214 -144l-42 60l271 183l213 -183zM846 -31q-197 0 -349 97t-222.5 264t-39.5 365t155 365t306.5 264t379.5 97q148 0 273.5 -57.5t207.5 -154.5t118.5 -231.5t12.5 -282.5q-31 -198 -155 -365t-306.5 -264t-380.5 -97zM859 48q176 0 339 86.5
t273 235.5t138 325t-35 325t-198.5 235.5t-311.5 86.5t-338.5 -86.5t-273 -235.5t-138.5 -325q-21 -132 11.5 -252t105.5 -206.5t184.5 -137.5t243.5 -51z" />
    <glyph glyph-name="Otilde" unicode="&#xd5;" horiz-adv-x="1703" vert-adv-y="2130" 
d="M1184 1614q-53 0 -96 52q-23 25 -45 25q-23 0 -53 -25l-52 -46l-48 55l54 45q59 52 112 52t94 -52q26 -26 46 -26t53 26l52 46l47 -56l-53 -44q-59 -52 -111 -52zM846 -31q-197 0 -349 97t-222.5 264t-39.5 365t155 365t306.5 264t379.5 97q148 0 273.5 -57.5
t207.5 -154.5t118.5 -231.5t12.5 -282.5q-31 -198 -155 -365t-306.5 -264t-380.5 -97zM859 48q176 0 339 86.5t273 235.5t138 325t-35 325t-198.5 235.5t-311.5 86.5t-338.5 -86.5t-273 -235.5t-138.5 -325q-21 -132 11.5 -252t105.5 -206.5t184.5 -137.5t243.5 -51z" />
    <glyph glyph-name="Odieresis" unicode="&#xd6;" horiz-adv-x="1703" vert-adv-y="2130" 
d="M968 1606q-25 0 -40.5 18t-11.5 43t25.5 43.5t46.5 18.5t40.5 -18t11.5 -44q-4 -25 -25.5 -43t-46.5 -18zM1243 1606q-25 0 -40.5 18t-11.5 43t25.5 43.5t46.5 18.5t40.5 -18t11.5 -44q-4 -25 -25.5 -43t-46.5 -18zM846 -31q-197 0 -349 97t-222.5 264t-39.5 365t155 365
t306.5 264t379.5 97q148 0 273.5 -57.5t207.5 -154.5t118.5 -231.5t12.5 -282.5q-31 -198 -155 -365t-306.5 -264t-380.5 -97zM859 48q176 0 339 86.5t273 235.5t138 325t-35 325t-198.5 235.5t-311.5 86.5t-338.5 -86.5t-273 -235.5t-138.5 -325q-21 -132 11.5 -252
t105.5 -206.5t184.5 -137.5t243.5 -51z" />
    <glyph glyph-name="multiply" unicode="&#xd7;" horiz-adv-x="992" vert-adv-y="2130" 
d="M794 306l-210 250l-290 -250l-46 55l290 250l-211 250l64 55l210 -250l290 250l46 -55l-289 -250l210 -250z" />
    <glyph glyph-name="Oslash" unicode="&#xd8;" horiz-adv-x="1703" vert-adv-y="2130" 
d="M646 -2l-39 -76h-84l52 103q-189 84 -281.5 267t-58.5 403q31 198 155 365t306.5 264t379.5 97q102 0 200 -29l40 76h85l-54 -103q189 -85 282.5 -267.5t58.5 -402.5q-31 -198 -155 -365t-306.5 -264t-380.5 -97q-101 0 -200 29zM614 99l625 1218q-87 25 -175 25
q-176 0 -338.5 -86.5t-273 -235.5t-138.5 -325q-31 -195 51 -357t249 -239zM859 48q176 0 339 86.5t273 235.5t138 325q31 194 -51.5 356.5t-248.5 239.5l-624 -1218q84 -25 174 -25z" />
    <glyph glyph-name="Ugrave" unicode="&#xd9;" horiz-adv-x="1378" vert-adv-y="2130" 
d="M871 1863l240 -223l-61 -60l-238 222zM684 -31q-153 0 -271 75.5t-173 205.5t-31 283l136 857h79l-136 -857q-21 -132 26.5 -243.5t149 -176.5t233.5 -65q201 0 365 142t196 343l136 857h79l-136 -857q-24 -153 -120 -283t-238 -205.5t-295 -75.5z" />
    <glyph glyph-name="Uacute" unicode="&#xda;" horiz-adv-x="1378" vert-adv-y="2130" 
d="M1095 1863l41 -61l-310 -222l-39 60zM684 -31q-153 0 -271 75.5t-173 205.5t-31 283l136 857h79l-136 -857q-21 -132 26.5 -243.5t149 -176.5t233.5 -65q201 0 365 142t196 343l136 857h79l-136 -857q-24 -153 -120 -283t-238 -205.5t-295 -75.5z" />
    <glyph glyph-name="Ucircumflex" unicode="&#xdb;" horiz-adv-x="1378" vert-adv-y="2130" 
d="M1134 1602l-168 144l-214 -144l-42 60l271 183l213 -183zM684 -31q-153 0 -271 75.5t-173 205.5t-31 283l136 857h79l-136 -857q-21 -132 26.5 -243.5t149 -176.5t233.5 -65q201 0 365 142t196 343l136 857h79l-136 -857q-24 -153 -120 -283t-238 -205.5t-295 -75.5z" />
    <glyph glyph-name="Udieresis" unicode="&#xdc;" horiz-adv-x="1378" vert-adv-y="2130" 
d="M806 1606q-25 0 -40.5 18t-11.5 43t25 43.5t47 18.5q25 0 40.5 -18.5t11.5 -43.5t-25.5 -43t-46.5 -18zM1081 1606q-25 0 -40.5 18t-11.5 43t25 43.5t47 18.5q25 0 40.5 -18.5t11.5 -43.5t-25.5 -43t-46.5 -18zM684 -31q-153 0 -271 75.5t-173 205.5t-31 283l136 857h79
l-136 -857q-21 -132 26.5 -243.5t149 -176.5t233.5 -65q201 0 365 142t196 343l136 857h79l-136 -857q-24 -153 -120 -283t-238 -205.5t-295 -75.5z" />
    <glyph glyph-name="Yacute" unicode="&#xdd;" horiz-adv-x="1487" vert-adv-y="2130" 
d="M1180 1863l41 -61l-310 -222l-40 60zM899 541l-86 -541h-79l86 541l-461 849h98l414 -773l659 773h98z" />
    <glyph glyph-name="germandbls" unicode="&#xdf;" horiz-adv-x="1318" vert-adv-y="1700" 
d="M388 1038l-214 -1353h-78l218 1377q36 158 193.5 255.5t375.5 97.5q227 0 352 -104.5t99 -269.5q-17 -108 -95.5 -195t-200.5 -134l-1 -4q118 -48 174.5 -140.5t38.5 -209.5q-28 -171 -194.5 -280t-401.5 -112l12 78q201 3 342 89.5t162 222.5q10 62 -8.5 119t-62.5 102
t-121 72t-176 27l-14 -1l-116 -2l10 67l115 -3h14q186 0 307 90.5t141 215.5q21 131 -86.5 214t-302.5 83q-194 0 -327 -83.5t-155 -218.5z" />
    <glyph glyph-name="agrave" unicode="&#xe0;" horiz-adv-x="1019" vert-adv-y="2130" 
d="M652 1438l237 -220l-60 -60l-236 220zM511 -19q-162 0 -261.5 89t-79.5 213q21 131 158.5 221t313.5 90h267l11 67q8 105 -55.5 169.5t-186.5 64.5q-74 0 -145.5 -24t-131.5 -78t-78 -128h-79q24 95 97 167t164 106t186 34q166 0 247 -91t57 -246l-101 -635h-79l17 107
q-142 -126 -321 -126zM519 59q120 0 219 64t121 155l38 238h-267q-143 0 -254.5 -67t-127.5 -164q-14 -92 65.5 -159t205.5 -67z" />
    <glyph glyph-name="aacute" unicode="&#xe1;" horiz-adv-x="1019" vert-adv-y="2130" 
d="M849 1438l40 -60l-307 -220l-39 60zM511 -19q-162 0 -261.5 89t-79.5 213q21 131 158.5 221t313.5 90h267l11 67q8 105 -55.5 169.5t-186.5 64.5q-74 0 -145.5 -24t-131.5 -78t-78 -128h-79q24 95 97 167t164 106t186 34q166 0 247 -91t57 -246l-101 -635h-79l17 107
q-142 -126 -321 -126zM519 59q120 0 219 64t121 155l38 238h-267q-143 0 -254.5 -67t-127.5 -164q-14 -92 65.5 -159t205.5 -67z" />
    <glyph glyph-name="acircumflex" unicode="&#xe2;" horiz-adv-x="1019" vert-adv-y="2130" 
d="M887 1180l-168 142l-211 -142l-42 60l269 181l211 -181zM511 -19q-162 0 -261.5 89t-79.5 213q21 131 158.5 221t313.5 90h267l11 67q8 105 -55.5 169.5t-186.5 64.5q-74 0 -145.5 -24t-131.5 -78t-78 -128h-79q24 95 97 167t164 106t186 34q166 0 247 -91t57 -246
l-101 -635h-79l17 107q-142 -126 -321 -126zM519 59q120 0 219 64t121 155l38 238h-267q-143 0 -254.5 -67t-127.5 -164q-14 -92 65.5 -159t205.5 -67z" />
    <glyph glyph-name="atilde" unicode="&#xe3;" horiz-adv-x="1019" vert-adv-y="2130" 
d="M775 1191q-49 0 -95 52q-23 25 -44 25q-23 0 -53 -25l-51 -46l-48 56l53 44q61 52 111 52q51 0 94 -52q23 -25 45 -25t52 25l53 46l46 -56l-53 -44q-61 -52 -110 -52zM511 -19q-162 0 -261.5 89t-79.5 213q21 131 158.5 221t313.5 90h267l11 67q8 105 -55.5 169.5
t-186.5 64.5q-74 0 -145.5 -24t-131.5 -78t-78 -128h-79q24 95 97 167t164 106t186 34q166 0 247 -91t57 -246l-101 -635h-79l17 107q-142 -126 -321 -126zM519 59q120 0 219 64t121 155l38 238h-267q-143 0 -254.5 -67t-127.5 -164q-14 -92 65.5 -159t205.5 -67z" />
    <glyph glyph-name="adieresis" unicode="&#xe4;" horiz-adv-x="1019" vert-adv-y="2130" 
d="M561 1183q-25 0 -40.5 18.5t-11.5 43.5t25.5 43t46.5 18t40 -18t11 -43t-25 -43.5t-46 -18.5zM833 1183q-25 0 -40.5 18.5t-11.5 43.5t25.5 43t46.5 18t40 -18t11 -43t-25 -43.5t-46 -18.5zM511 -19q-162 0 -261.5 89t-79.5 213q21 131 158.5 221t313.5 90h267l11 67
q8 105 -55.5 169.5t-186.5 64.5q-74 0 -145.5 -24t-131.5 -78t-78 -128h-79q24 95 97 167t164 106t186 34q166 0 247 -91t57 -246l-101 -635h-79l17 107q-142 -126 -321 -126zM519 59q120 0 219 64t121 155l38 238h-267q-143 0 -254.5 -67t-127.5 -164q-14 -92 65.5 -159
t205.5 -67z" />
    <glyph glyph-name="aring" unicode="&#xe5;" horiz-adv-x="1019" vert-adv-y="2130" 
d="M692 1151q-64 0 -102.5 45.5t-27.5 110.5t63.5 110t116.5 45q65 0 103 -45.5t28 -109.5q-11 -65 -64 -110.5t-117 -45.5zM705 1230q31 0 57.5 22.5t31.5 54.5q5 31 -14 54t-51 23q-31 0 -57.5 -22.5t-31.5 -54.5q-5 -31 14 -54t51 -23zM511 -19q-162 0 -261.5 89
t-79.5 213q21 131 158.5 221t313.5 90h267l11 67q8 105 -55.5 169.5t-186.5 64.5q-74 0 -145.5 -24t-131.5 -78t-78 -128h-79q24 95 97 167t164 106t186 34q166 0 247 -91t57 -246l-101 -635h-79l17 107q-142 -126 -321 -126zM519 59q120 0 219 64t121 155l38 238h-267
q-143 0 -254.5 -67t-127.5 -164q-14 -92 65.5 -159t205.5 -67z" />
    <glyph glyph-name="ae" unicode="&#xe6;" horiz-adv-x="1890" vert-adv-y="2130" 
d="M511 -19q-162 0 -261.5 89t-79.5 213q21 131 158.5 221t313.5 90h267l11 67q8 105 -55.5 169.5t-186.5 64.5q-74 0 -145.5 -24t-131.5 -78t-78 -128h-79q36 140 167.5 223.5t278.5 83.5q130 0 211.5 -60t96.5 -165q78 110 197 176t253 66q200 -1 311.5 -144t82.5 -360
h-871l-5 -29q-14 -170 80 -283.5t253 -113.5q131 0 246 79.5t180 213.5l71 -25q-75 -158 -213 -252t-296 -94q-127 0 -221 57.5t-141 160.5l-32 -199h-78l17 107q-142 -126 -321 -126zM988 563h781q-1 152 -94 250t-241 98q-147 0 -271.5 -98t-174.5 -250zM519 59
q120 0 219 64t121 155l38 238h-267q-143 0 -254.5 -67t-127.5 -164q-14 -92 65.5 -159t205.5 -67z" />
    <glyph glyph-name="ccedilla" unicode="&#xe7;" horiz-adv-x="1129" vert-adv-y="2130" 
d="M427 -298l9 59q50 6 89 39.5t47 77.5h-117l19 120q-152 42 -226.5 175t-45.5 312q23 143 103 258t199 180.5t253 65.5q121 0 216 -57.5t147 -161.5l-73 -44q-44 87 -124 136t-179 49q-170 0 -302.5 -122t-161.5 -304t65 -304t264 -122q99 0 194.5 49t167.5 136l59 -44
q-85 -104 -198.5 -161.5t-234.5 -57.5q-37 0 -66 4l-8 -48h116l-9 -59q-11 -68 -69.5 -118.5t-133.5 -57.5z" />
    <glyph glyph-name="egrave" unicode="&#xe8;" horiz-adv-x="1200" vert-adv-y="2130" 
d="M717 1438l237 -220l-60 -60l-236 220zM597 -19q-204 0 -316.5 143.5t-78.5 360.5q35 217 192.5 360t362.5 144q133 0 230.5 -66.5t140.5 -181.5t24 -256h-872q-29 -182 65 -304t264 -122q131 0 246 79.5t180 213.5l71 -25q-76 -158 -214 -252t-295 -94zM298 563h781
q-1 152 -94 250t-241 98q-147 0 -271.5 -98t-174.5 -250z" />
    <glyph glyph-name="eacute" unicode="&#xe9;" horiz-adv-x="1200" vert-adv-y="2130" 
d="M939 1438l40 -60l-307 -220l-39 60zM597 -19q-204 0 -316.5 143.5t-78.5 360.5q35 217 192.5 360t362.5 144q133 0 230.5 -66.5t140.5 -181.5t24 -256h-872q-29 -182 65 -304t264 -122q131 0 246 79.5t180 213.5l71 -25q-76 -158 -214 -252t-295 -94zM298 563h781
q-1 152 -94 250t-241 98q-147 0 -271.5 -98t-174.5 -250z" />
    <glyph glyph-name="ecircumflex" unicode="&#xea;" horiz-adv-x="1200" vert-adv-y="2130" 
d="M977 1180l-168 142l-211 -142l-41 60l268 181l211 -181zM597 -19q-204 0 -316.5 143.5t-78.5 360.5q35 217 192.5 360t362.5 144q133 0 230.5 -66.5t140.5 -181.5t24 -256h-872q-29 -182 65 -304t264 -122q131 0 246 79.5t180 213.5l71 -25q-76 -158 -214 -252t-295 -94z
M298 563h781q-1 152 -94 250t-241 98q-147 0 -271.5 -98t-174.5 -250z" />
    <glyph glyph-name="edieresis" unicode="&#xeb;" horiz-adv-x="1200" vert-adv-y="2130" 
d="M651 1183q-25 0 -40.5 18.5t-11.5 43.5t25.5 43t46.5 18t40 -18t11 -43t-25 -43.5t-46 -18.5zM923 1183q-25 0 -40 18.5t-11 43.5t25 43t46 18t40.5 -18t11.5 -43t-25.5 -43.5t-46.5 -18.5zM597 -19q-204 0 -316.5 143.5t-78.5 360.5q35 217 192.5 360t362.5 144
q133 0 230.5 -66.5t140.5 -181.5t24 -256h-872q-29 -182 65 -304t264 -122q131 0 246 79.5t180 213.5l71 -25q-76 -158 -214 -252t-295 -94zM298 563h781q-1 152 -94 250t-241 98q-147 0 -271.5 -98t-174.5 -250z" />
    <glyph glyph-name="igrave" unicode="&#xec;" horiz-adv-x="380" vert-adv-y="2130" 
d="M306 1438l238 -220l-61 -60l-236 220zM383 970l-154 -970h-79l154 970h79z" />
    <glyph glyph-name="iacute" unicode="&#xed;" horiz-adv-x="380" vert-adv-y="2130" 
d="M528 1438l41 -60l-308 -220l-39 60zM383 970l-154 -970h-79l154 970h79z" />
    <glyph glyph-name="icircumflex" unicode="&#xee;" horiz-adv-x="375" vert-adv-y="2130" 
d="M564 1180l-167 142l-212 -142l-41 60l269 181l210 -181zM381 970l-154 -970h-79l154 970h79z" />
    <glyph glyph-name="idieresis" unicode="&#xef;" horiz-adv-x="364" vert-adv-y="2130" 
d="M233 1183q-25 0 -40.5 18.5t-11.5 43.5t25.5 43t46.5 18t40 -18t11 -43t-25 -43.5t-46 -18.5zM505 1183q-25 0 -40.5 18.5t-11.5 43.5t25.5 43t46.5 18t40 -18t11 -43t-25 -43.5t-46 -18.5zM375 970l-154 -970h-78l154 970h78z" />
    <glyph glyph-name="ntilde" unicode="&#xf1;" vert-adv-y="2130" 
d="M756 1191q-51 0 -95 52q-23 25 -45 25t-52 -25l-52 -46l-47 56l53 44q61 52 111 52t94 -52q23 -25 44 -25q23 0 53 25l52 46l47 -56l-53 -44q-61 -52 -110 -52zM303 625l-99 -625h-79l153 968h78l-18 -117q61 64 142 101t167 37q152 0 242 -106t66 -258l-99 -625h-79
l99 625q19 118 -51.5 202t-189.5 84t-216 -83.5t-116 -202.5z" />
    <glyph glyph-name="ograve" unicode="&#xf2;" horiz-adv-x="1201" vert-adv-y="2130" 
d="M717 1438l237 -220l-60 -60l-236 220zM597 -19q-204 0 -316.5 143.5t-78.5 360.5q23 143 103 258t199 180.5t253 65.5q135 0 233.5 -65.5t142 -180.5t20.5 -258q-35 -217 -193 -360.5t-363 -143.5zM609 59q170 0 303 122t162 304t-65.5 304t-264.5 122t-302.5 -122
t-161.5 -304t65 -304t264 -122z" />
    <glyph glyph-name="oacute" unicode="&#xf3;" horiz-adv-x="1201" vert-adv-y="2130" 
d="M939 1438l40 -60l-307 -220l-39 60zM597 -19q-204 0 -316.5 143.5t-78.5 360.5q23 143 103 258t199 180.5t253 65.5q135 0 233.5 -65.5t142 -180.5t20.5 -258q-35 -217 -193 -360.5t-363 -143.5zM609 59q170 0 303 122t162 304t-65.5 304t-264.5 122t-302.5 -122
t-161.5 -304t65 -304t264 -122z" />
    <glyph glyph-name="ocircumflex" unicode="&#xf4;" horiz-adv-x="1201" vert-adv-y="2130" 
d="M977 1180l-168 142l-211 -142l-41 60l268 181l211 -181zM597 -19q-204 0 -316.5 143.5t-78.5 360.5q23 143 103 258t199 180.5t253 65.5q135 0 233.5 -65.5t142 -180.5t20.5 -258q-35 -217 -193 -360.5t-363 -143.5zM609 59q170 0 303 122t162 304t-65.5 304t-264.5 122
t-302.5 -122t-161.5 -304t65 -304t264 -122z" />
    <glyph glyph-name="otilde" unicode="&#xf5;" horiz-adv-x="1201" vert-adv-y="2130" 
d="M865 1191q-49 0 -95 52q-23 25 -44 25q-23 0 -53 -25l-51 -46l-48 56l53 44q61 52 111 52q51 0 94 -52q23 -25 45 -25t52 25l53 46l46 -56l-52 -44q-63 -52 -111 -52zM597 -19q-204 0 -316.5 143.5t-78.5 360.5q23 143 103 258t199 180.5t253 65.5q135 0 233.5 -65.5
t142 -180.5t20.5 -258q-35 -217 -193 -360.5t-363 -143.5zM609 59q170 0 303 122t162 304t-65.5 304t-264.5 122t-302.5 -122t-161.5 -304t65 -304t264 -122z" />
    <glyph glyph-name="odieresis" unicode="&#xf6;" horiz-adv-x="1201" vert-adv-y="2130" 
d="M652 1183q-25 0 -40.5 18.5t-11.5 43.5t25.5 43t46.5 18t40 -18t11 -43t-25 -43.5t-46 -18.5zM924 1183q-25 0 -40.5 18.5t-11.5 43.5t25.5 43t46.5 18t40.5 -18t11.5 -43t-25.5 -43.5t-46.5 -18.5zM597 -19q-204 0 -316.5 143.5t-78.5 360.5q23 143 103 258t199 180.5
t253 65.5q135 0 233.5 -65.5t142 -180.5t20.5 -258q-35 -217 -193 -360.5t-363 -143.5zM609 59q170 0 303 122t162 304t-65.5 304t-264.5 122t-302.5 -122t-161.5 -304t65 -304t264 -122z" />
    <glyph glyph-name="divide" unicode="&#xf7;" horiz-adv-x="1170" vert-adv-y="2130" 
d="M718 847q-25 0 -40 18t-11 44q4 25 25 43t46 18t40.5 -18t11.5 -43t-25.5 -43.5t-46.5 -18.5zM1080 650l-12 -78h-784l12 78h784zM628 275q-25 0 -40.5 18.5t-11.5 43.5q5 25 25.5 43t45.5 18t40.5 -18t11.5 -43t-25 -43.5t-46 -18.5z" />
    <glyph glyph-name="oslash" unicode="&#xf8;" horiz-adv-x="1201" vert-adv-y="2130" 
d="M409 21l-50 -99h-85l71 139q-88 67 -126 178t-17 246q23 143 103 258t199 180.5t253 65.5q35 0 62 -4l68 131h84l-76 -148q143 -45 214.5 -176.5t43.5 -306.5q-35 -217 -193 -360.5t-363 -143.5q-103 0 -188 40zM385 138l396 771q-24 2 -37 2q-170 0 -302.5 -122
t-161.5 -304q-17 -108 11 -198.5t94 -148.5zM609 59q170 0 303 122t162 304q23 149 -37 260t-180 149l-409 -798q71 -37 161 -37z" />
    <glyph glyph-name="ugrave" unicode="&#xf9;" vert-adv-y="2130" 
d="M607 1438l238 -220l-61 -60l-236 220zM488 -20q-152 0 -242.5 106.5t-65.5 258.5l98 624h78l-98 -624q-19 -119 51.5 -203t189.5 -84t216 84t117 203l98 624h79l-153 -968h-79l19 117q-62 -64 -142.5 -101t-165.5 -37z" />
    <glyph glyph-name="uacute" unicode="&#xfa;" vert-adv-y="2130" 
d="M829 1438l41 -60l-308 -220l-39 60zM488 -20q-152 0 -242.5 106.5t-65.5 258.5l98 624h78l-98 -624q-19 -119 51.5 -203t189.5 -84t216 84t117 203l98 624h79l-153 -968h-79l19 117q-62 -64 -142.5 -101t-165.5 -37z" />
    <glyph glyph-name="ucircumflex" unicode="&#xfb;" vert-adv-y="2130" 
d="M867 1180l-167 142l-212 -142l-41 60l269 181l211 -181zM488 -20q-152 0 -242.5 106.5t-65.5 258.5l98 624h78l-98 -624q-19 -119 51.5 -203t189.5 -84t216 84t117 203l98 624h79l-153 -968h-79l19 117q-62 -64 -142.5 -101t-165.5 -37z" />
    <glyph glyph-name="udieresis" unicode="&#xfc;" vert-adv-y="2130" 
d="M541 1183q-25 0 -40 18.5t-11 43.5t25 43t46 18t40.5 -18t11.5 -43t-25.5 -43.5t-46.5 -18.5zM814 1183q-25 0 -40.5 18.5t-11.5 43.5t25.5 43t46.5 18t40 -18t11 -43t-25 -43.5t-46 -18.5zM488 -20q-152 0 -242.5 106.5t-65.5 258.5l98 624h78l-98 -624
q-19 -119 51.5 -203t189.5 -84t216 84t117 203l98 624h79l-153 -968h-79l19 117q-62 -64 -142.5 -101t-165.5 -37z" />
    <glyph glyph-name="yacute" unicode="&#xfd;" horiz-adv-x="1168" vert-adv-y="2130" 
d="M922 1438l41 -60l-308 -220l-39 60zM1188 970l-864 -1387h-74l310 494l-272 893h86l236 -807l491 807h87z" />
    <glyph glyph-name="ydieresis" unicode="&#xff;" horiz-adv-x="1168" vert-adv-y="2130" 
d="M635 1183q-25 0 -40 18.5t-11 43.5t25 43t46 18t40.5 -18t11.5 -43t-25.5 -43.5t-46.5 -18.5zM908 1183q-25 0 -40.5 18.5t-11.5 43.5t25.5 43t46.5 18t40 -18t11 -43t-25 -43.5t-46 -18.5zM1188 970l-864 -1387h-74l310 494l-272 893h86l236 -807l491 807h87z" />
    <glyph glyph-name="Amacron" unicode="&#x100;" horiz-adv-x="1575" vert-adv-y="2130" 
d="M1260 1688l-12 -79h-411l12 79h411zM486 416l-265 -416h-87l874 1388l433 -1388h-87l-133 416h-735zM1198 508l-218 703l-443 -703h661z" />
    <glyph glyph-name="amacron" unicode="&#x101;" horiz-adv-x="1019" vert-adv-y="2130" 
d="M915 1266l-13 -79h-408l13 79h408zM511 -19q-162 0 -261.5 89t-79.5 213q21 131 158.5 221t313.5 90h267l11 67q8 105 -55.5 169.5t-186.5 64.5q-74 0 -145.5 -24t-131.5 -78t-78 -128h-79q24 95 97 167t164 106t186 34q166 0 247 -91t57 -246l-101 -635h-79l17 107
q-142 -126 -321 -126zM519 59q120 0 219 64t121 155l38 238h-267q-143 0 -254.5 -67t-127.5 -164q-14 -92 65.5 -159t205.5 -67z" />
    <glyph glyph-name="Abreve" unicode="&#x102;" horiz-adv-x="1575" vert-adv-y="2130" 
d="M1039 1585q-96 0 -155 70t-49 171h78q-5 -69 35 -115.5t104 -46.5t117.5 46.5t70.5 115.5h79q-23 -101 -104 -171t-176 -70zM486 416l-265 -416h-87l874 1388l433 -1388h-87l-133 416h-735zM1198 508l-218 703l-443 -703h661z" />
    <glyph glyph-name="abreve" unicode="&#x103;" horiz-adv-x="1019" vert-adv-y="2130" 
d="M694 1163q-94 0 -152.5 69t-49.5 170h79q-5 -68 34 -114.5t102 -46.5t116.5 46.5t70.5 114.5h78q-23 -101 -103.5 -170t-174.5 -69zM511 -19q-162 0 -261.5 89t-79.5 213q21 131 158.5 221t313.5 90h267l11 67q8 105 -55.5 169.5t-186.5 64.5q-74 0 -145.5 -24
t-131.5 -78t-78 -128h-79q24 95 97 167t164 106t186 34q166 0 247 -91t57 -246l-101 -635h-79l17 107q-142 -126 -321 -126zM519 59q120 0 219 64t121 155l38 238h-267q-143 0 -254.5 -67t-127.5 -164q-14 -92 65.5 -159t205.5 -67z" />
    <glyph glyph-name="Cacute" unicode="&#x106;" horiz-adv-x="1596" vert-adv-y="2130" 
d="M1202 1863l41 -61l-310 -222l-39 60zM846 -31q-197 0 -349 97t-222.5 264t-39.5 365t155 365t306.5 264t379.5 97q185 0 333.5 -89.5t227.5 -247.5l-72 -46q-72 142 -205 223t-296 81q-176 0 -338.5 -86.5t-273 -235.5t-138.5 -325q-21 -132 11.5 -252t105.5 -206.5
t184.5 -137.5t243.5 -51q163 0 321.5 81t275.5 223l56 -46q-128 -158 -305 -247.5t-361 -89.5z" />
    <glyph glyph-name="cacute" unicode="&#x107;" horiz-adv-x="1129" vert-adv-y="2130" 
d="M900 1438l40 -60l-307 -220l-39 60zM597 -19q-204 0 -316.5 143.5t-78.5 360.5q23 143 103 258t199 180.5t253 65.5q121 0 216 -57.5t147 -161.5l-73 -44q-44 87 -124 136t-179 49q-170 0 -302.5 -122t-161.5 -304t65 -304t264 -122q99 0 194.5 49t167.5 136l59 -44
q-85 -104 -198.5 -161.5t-234.5 -57.5z" />
    <glyph glyph-name="Ccircumflex" unicode="&#x108;" horiz-adv-x="1596" vert-adv-y="2130" 
d="M1241 1602l-168 144l-215 -144l-41 60l271 183l212 -183zM846 -31q-197 0 -349 97t-222.5 264t-39.5 365t155 365t306.5 264t379.5 97q185 0 333.5 -89.5t227.5 -247.5l-72 -46q-72 142 -205 223t-296 81q-176 0 -338.5 -86.5t-273 -235.5t-138.5 -325
q-21 -132 11.5 -252t105.5 -206.5t184.5 -137.5t243.5 -51q163 0 321.5 81t275.5 223l56 -46q-128 -158 -305 -247.5t-361 -89.5z" />
    <glyph glyph-name="ccircumflex" unicode="&#x109;" horiz-adv-x="1129" vert-adv-y="2130" 
d="M938 1180l-167 142l-212 -142l-41 60l269 181l210 -181zM597 -19q-204 0 -316.5 143.5t-78.5 360.5q23 143 103 258t199 180.5t253 65.5q121 0 216 -57.5t147 -161.5l-73 -44q-44 87 -124 136t-179 49q-170 0 -302.5 -122t-161.5 -304t65 -304t264 -122q99 0 194.5 49
t167.5 136l59 -44q-85 -104 -198.5 -161.5t-234.5 -57.5z" />
    <glyph glyph-name="Cdotaccent" unicode="&#x10a;" horiz-adv-x="1596" vert-adv-y="2130" 
d="M1055 1638q-25 0 -40.5 18t-11.5 44q4 25 25.5 43.5t46.5 18.5t40 -18.5t11 -43.5t-25 -43.5t-46 -18.5zM846 -31q-197 0 -349 97t-222.5 264t-39.5 365t155 365t306.5 264t379.5 97q185 0 333.5 -89.5t227.5 -247.5l-72 -46q-72 142 -205 223t-296 81
q-176 0 -338.5 -86.5t-273 -235.5t-138.5 -325q-21 -132 11.5 -252t105.5 -206.5t184.5 -137.5t243.5 -51q163 0 321.5 81t275.5 223l56 -46q-128 -158 -305 -247.5t-361 -89.5z" />
    <glyph glyph-name="cdotaccent" unicode="&#x10b;" horiz-adv-x="1129" vert-adv-y="2130" 
d="M754 1215q-25 0 -40.5 18t-11.5 44q4 25 25.5 43t46.5 18t40 -18t11 -43t-25 -43.5t-46 -18.5zM597 -19q-204 0 -316.5 143.5t-78.5 360.5q23 143 103 258t199 180.5t253 65.5q121 0 216 -57.5t147 -161.5l-73 -44q-44 87 -124 136t-179 49q-170 0 -302.5 -122
t-161.5 -304t65 -304t264 -122q99 0 194.5 49t167.5 136l59 -44q-85 -104 -198.5 -161.5t-234.5 -57.5z" />
    <glyph glyph-name="Ccaron" unicode="&#x10c;" horiz-adv-x="1596" vert-adv-y="2130" 
d="M1277 1828l40 -60l-270 -183l-213 183l60 60l169 -145zM846 -31q-197 0 -349 97t-222.5 264t-39.5 365t155 365t306.5 264t379.5 97q185 0 333.5 -89.5t227.5 -247.5l-72 -46q-72 142 -205 223t-296 81q-176 0 -338.5 -86.5t-273 -235.5t-138.5 -325q-21 -132 11.5 -252
t105.5 -206.5t184.5 -137.5t243.5 -51q163 0 321.5 81t275.5 223l56 -46q-128 -158 -305 -247.5t-361 -89.5z" />
    <glyph glyph-name="ccaron" unicode="&#x10d;" horiz-adv-x="1129" vert-adv-y="2130" 
d="M973 1404l41 -60l-268 -181l-211 181l59 60l168 -143zM597 -19q-204 0 -316.5 143.5t-78.5 360.5q23 143 103 258t199 180.5t253 65.5q121 0 216 -57.5t147 -161.5l-73 -44q-44 87 -124 136t-179 49q-170 0 -302.5 -122t-161.5 -304t65 -304t264 -122q99 0 194.5 49
t167.5 136l59 -44q-85 -104 -198.5 -161.5t-234.5 -57.5z" />
    <glyph glyph-name="Emacron" unicode="&#x112;" horiz-adv-x="1295" vert-adv-y="2130" 
d="M1121 1688l-12 -79h-412l12 79h412zM1183 79l-13 -79h-1045l220 1390h1045l-12 -79h-966l-92 -577h907l-12 -78h-907l-91 -577h966z" />
    <glyph glyph-name="emacron" unicode="&#x113;" horiz-adv-x="1200" vert-adv-y="2130" 
d="M1005 1266l-13 -79h-408l13 79h408zM597 -19q-204 0 -316.5 143.5t-78.5 360.5q35 217 192.5 360t362.5 144q133 0 230.5 -66.5t140.5 -181.5t24 -256h-872q-29 -182 65 -304t264 -122q131 0 246 79.5t180 213.5l71 -25q-76 -158 -214 -252t-295 -94zM298 563h781
q-1 152 -94 250t-241 98q-147 0 -271.5 -98t-174.5 -250z" />
    <glyph glyph-name="Ebreve" unicode="&#x114;" horiz-adv-x="1295" vert-adv-y="2130" 
d="M899 1585q-95 0 -154 70t-50 171h78q-5 -69 35 -115.5t104 -46.5t117.5 46.5t70.5 115.5h79q-23 -101 -104 -171t-176 -70zM1183 79l-13 -79h-1045l220 1390h1045l-12 -79h-966l-92 -577h907l-12 -78h-907l-91 -577h966z" />
    <glyph glyph-name="ebreve" unicode="&#x115;" horiz-adv-x="1200" vert-adv-y="2130" 
d="M784 1163q-94 0 -152.5 69t-49.5 170h79q-5 -68 34 -114.5t102 -46.5q64 0 117 46.5t70 114.5h78q-23 -101 -103.5 -170t-174.5 -69zM597 -19q-204 0 -316.5 143.5t-78.5 360.5q35 217 192.5 360t362.5 144q133 0 230.5 -66.5t140.5 -181.5t24 -256h-872
q-29 -182 65 -304t264 -122q131 0 246 79.5t180 213.5l71 -25q-76 -158 -214 -252t-295 -94zM298 563h781q-1 152 -94 250t-241 98q-147 0 -271.5 -98t-174.5 -250z" />
    <glyph glyph-name="Edotaccent" unicode="&#x116;" horiz-adv-x="1295" vert-adv-y="2130" 
d="M907 1638q-25 0 -40.5 18t-11.5 44q4 25 25.5 43.5t46.5 18.5t40.5 -18.5t11.5 -43.5t-25.5 -43.5t-46.5 -18.5zM1183 79l-13 -79h-1045l220 1390h1045l-12 -79h-966l-92 -577h907l-12 -78h-907l-91 -577h966z" />
    <glyph glyph-name="edotaccent" unicode="&#x117;" horiz-adv-x="1200" vert-adv-y="2130" 
d="M792 1215q-25 0 -40 18t-11 44q4 25 25 43t46 18t40.5 -18t11.5 -43t-25 -43.5t-47 -18.5zM597 -19q-204 0 -316.5 143.5t-78.5 360.5q35 217 192.5 360t362.5 144q133 0 230.5 -66.5t140.5 -181.5t24 -256h-872q-29 -182 65 -304t264 -122q131 0 246 79.5t180 213.5
l71 -25q-76 -158 -214 -252t-295 -94zM298 563h781q-1 152 -94 250t-241 98q-147 0 -271.5 -98t-174.5 -250z" />
    <glyph glyph-name="Ecaron" unicode="&#x11a;" horiz-adv-x="1295" vert-adv-y="2130" 
d="M1129 1828l41 -60l-271 -183l-213 183l61 60l168 -145zM1183 79l-13 -79h-1045l220 1390h1045l-12 -79h-966l-92 -577h907l-12 -78h-907l-91 -577h966z" />
    <glyph glyph-name="ecaron" unicode="&#x11b;" horiz-adv-x="1200" vert-adv-y="2130" 
d="M1012 1404l41 -60l-269 -181l-210 181l59 60l167 -143zM597 -19q-204 0 -316.5 143.5t-78.5 360.5q35 217 192.5 360t362.5 144q133 0 230.5 -66.5t140.5 -181.5t24 -256h-872q-29 -182 65 -304t264 -122q131 0 246 79.5t180 213.5l71 -25q-76 -158 -214 -252t-295 -94z
M298 563h781q-1 152 -94 250t-241 98q-147 0 -271.5 -98t-174.5 -250z" />
    <glyph glyph-name="Gcircumflex" unicode="&#x11c;" horiz-adv-x="1591" vert-adv-y="2130" 
d="M1241 1602l-168 144l-215 -144l-41 60l271 183l212 -183zM846 -31q-197 0 -349 97t-222.5 264t-39.5 365t155 365t306.5 264t379.5 97q185 0 333.5 -89.5t227.5 -247.5l-72 -46q-72 142 -205 223t-296 81q-176 0 -338.5 -86.5t-273 -235.5t-138.5 -325
q-21 -132 11.5 -252t105.5 -206.5t184.5 -137.5t243.5 -51q159 0 311.5 74.5t265.5 205.5l49 310h-601l13 79h680l-65 -411q-125 -158 -302 -247.5t-364 -89.5z" />
    <glyph glyph-name="gcircumflex" unicode="&#x11d;" horiz-adv-x="1135" vert-adv-y="2130" 
d="M948 1180l-168 142l-211 -142l-41 60l268 181l211 -181zM523 -417q-147 0 -243 73.5t-122 204.5h82q26 -95 103.5 -147t192.5 -52q159 0 269 91.5t135 246.5l32 202q-75 -106 -181 -165t-227 -59q-189 0 -293 143.5t-70 360.5q23 142 98.5 258t187.5 181.5t236 65.5
q121 0 208.5 -59.5t129.5 -165.5l33 210h79l-152 -962q-31 -194 -166.5 -310.5t-331.5 -116.5zM576 56q159 0 283.5 122t153.5 304q29 183 -57 304.5t-245 121.5q-158 0 -283 -121.5t-154 -304.5q-29 -182 57.5 -304t244.5 -122z" />
    <glyph glyph-name="Gbreve" unicode="&#x11e;" horiz-adv-x="1591" vert-adv-y="2130" 
d="M1047 1585q-96 0 -155 70t-50 171h79q-5 -69 35 -115.5t104 -46.5t117.5 46.5t70.5 115.5h79q-23 -101 -104 -171t-176 -70zM846 -31q-197 0 -349 97t-222.5 264t-39.5 365t155 365t306.5 264t379.5 97q185 0 333.5 -89.5t227.5 -247.5l-72 -46q-72 142 -205 223t-296 81
q-176 0 -338.5 -86.5t-273 -235.5t-138.5 -325q-21 -132 11.5 -252t105.5 -206.5t184.5 -137.5t243.5 -51q159 0 311.5 74.5t265.5 205.5l49 310h-601l13 79h680l-65 -411q-125 -158 -302 -247.5t-364 -89.5z" />
    <glyph glyph-name="gbreve" unicode="&#x11f;" horiz-adv-x="1135" vert-adv-y="2130" 
d="M755 1163q-94 0 -152.5 69t-49.5 170h79q-5 -68 34 -114.5t102 -46.5t116.5 46.5t70.5 114.5h78q-23 -101 -103.5 -170t-174.5 -69zM523 -417q-147 0 -243 73.5t-122 204.5h82q26 -95 103.5 -147t192.5 -52q159 0 269 91.5t135 246.5l32 202q-75 -106 -181 -165t-227 -59
q-189 0 -293 143.5t-70 360.5q23 142 98.5 258t187.5 181.5t236 65.5q121 0 208.5 -59.5t129.5 -165.5l33 210h79l-152 -962q-31 -194 -166.5 -310.5t-331.5 -116.5zM576 56q159 0 283.5 122t153.5 304q29 183 -57 304.5t-245 121.5q-158 0 -283 -121.5t-154 -304.5
q-29 -182 57.5 -304t244.5 -122z" />
    <glyph glyph-name="Gdotaccent" unicode="&#x120;" horiz-adv-x="1591" vert-adv-y="2130" 
d="M1055 1638q-25 0 -40.5 18t-11.5 44q4 25 25.5 43.5t46.5 18.5t40 -18.5t11 -43.5t-25 -43.5t-46 -18.5zM846 -31q-197 0 -349 97t-222.5 264t-39.5 365t155 365t306.5 264t379.5 97q185 0 333.5 -89.5t227.5 -247.5l-72 -46q-72 142 -205 223t-296 81
q-176 0 -338.5 -86.5t-273 -235.5t-138.5 -325q-21 -132 11.5 -252t105.5 -206.5t184.5 -137.5t243.5 -51q159 0 311.5 74.5t265.5 205.5l49 310h-601l13 79h680l-65 -411q-125 -158 -302 -247.5t-364 -89.5z" />
    <glyph glyph-name="gdotaccent" unicode="&#x121;" horiz-adv-x="1135" vert-adv-y="2130" 
d="M763 1215q-25 0 -40 18t-11 44q4 25 25 43t46 18t40.5 -18t11.5 -43t-25 -43.5t-47 -18.5zM523 -417q-147 0 -243 73.5t-122 204.5h82q26 -95 103.5 -147t192.5 -52q159 0 269 91.5t135 246.5l32 202q-75 -106 -181 -165t-227 -59q-189 0 -293 143.5t-70 360.5
q23 142 98.5 258t187.5 181.5t236 65.5q121 0 208.5 -59.5t129.5 -165.5l33 210h79l-152 -962q-31 -194 -166.5 -310.5t-331.5 -116.5zM576 56q159 0 283.5 122t153.5 304q29 183 -57 304.5t-245 121.5q-158 0 -283 -121.5t-154 -304.5q-29 -182 57.5 -304t244.5 -122z" />
    <glyph glyph-name="Itilde" unicode="&#x128;" horiz-adv-x="334" vert-adv-y="2130" 
d="M499 1614q-54 0 -95 52q-25 25 -45 25q-23 0 -54 -25l-51 -46l-48 55l53 45q59 52 112 52q52 0 95 -52q24 -26 45 -26q22 0 53 26l53 46l47 -56l-53 -44q-61 -52 -112 -52zM426 1390l-220 -1390h-79l220 1390h79z" />
    <glyph glyph-name="itilde" unicode="&#x129;" horiz-adv-x="376" vert-adv-y="2130" 
d="M453 1191q-51 0 -95 52q-23 25 -45 25t-52 -25l-52 -46l-47 56l53 44q61 52 111 52t94 -52q23 -25 45 -25t52 25l52 46l47 -56l-53 -44q-61 -52 -110 -52zM381 970l-154 -970h-78l154 970h78z" />
    <glyph glyph-name="Imacron" unicode="&#x12a;" horiz-adv-x="322" vert-adv-y="2130" 
d="M634 1688l-12 -79h-412l12 79h412zM420 1390l-220 -1390h-79l220 1390h79z" />
    <glyph glyph-name="imacron" unicode="&#x12b;" horiz-adv-x="364" vert-adv-y="2130" 
d="M587 1266l-13 -79h-408l13 79h408zM375 970l-154 -970h-78l154 970h78z" />
    <glyph glyph-name="Idotaccent" unicode="&#x130;" horiz-adv-x="328" vert-adv-y="2130" 
d="M423 1638q-25 0 -40.5 18t-11.5 44q4 25 25.5 43.5t46.5 18.5t40.5 -18.5t11.5 -43.5t-25 -43.5t-47 -18.5zM423 1390l-220 -1390h-78l220 1390h78z" />
    <glyph glyph-name="dotlessi" unicode="&#x131;" horiz-adv-x="374" vert-adv-y="2130" 
d="M380 970l-154 -970h-78l154 970h78z" />
    <glyph glyph-name="Nacute" unicode="&#x143;" horiz-adv-x="1378" vert-adv-y="2130" 
d="M1095 1863l41 -61l-310 -222l-39 60zM390 1177l-186 -1177h-79l220 1392l861 -1187l188 1185h79l-220 -1390z" />
    <glyph glyph-name="nacute" unicode="&#x144;" vert-adv-y="2130" 
d="M829 1438l41 -60l-308 -220l-39 60zM303 625l-99 -625h-79l153 968h78l-18 -117q61 64 142 101t167 37q152 0 242 -106t66 -258l-99 -625h-79l99 625q19 118 -51.5 202t-189.5 84t-216 -83.5t-116 -202.5z" />
    <glyph glyph-name="Ncaron" unicode="&#x147;" horiz-adv-x="1378" vert-adv-y="2130" 
d="M1176 1826l41 -60l-269 -181l-210 181l59 60l167 -143zM390 1177l-186 -1177h-79l220 1392l861 -1187l188 1185h79l-220 -1390z" />
    <glyph glyph-name="ncaron" unicode="&#x148;" vert-adv-y="2130" 
d="M902 1404l42 -60l-269 -181l-211 181l59 60l168 -143zM303 625l-99 -625h-79l153 968h78l-18 -117q61 64 142 101t167 37q152 0 242 -106t66 -258l-99 -625h-79l99 625q19 118 -51.5 202t-189.5 84t-216 -83.5t-116 -202.5z" />
    <glyph glyph-name="Omacron" unicode="&#x14c;" horiz-adv-x="1703" vert-adv-y="2130" 
d="M1324 1688l-12 -79h-411l12 79h411zM846 -31q-197 0 -349 97t-222.5 264t-39.5 365t155 365t306.5 264t379.5 97q148 0 273.5 -57.5t207.5 -154.5t118.5 -231.5t12.5 -282.5q-31 -198 -155 -365t-306.5 -264t-380.5 -97zM859 48q176 0 339 86.5t273 235.5t138 325
t-35 325t-198.5 235.5t-311.5 86.5t-338.5 -86.5t-273 -235.5t-138.5 -325q-21 -132 11.5 -252t105.5 -206.5t184.5 -137.5t243.5 -51z" />
    <glyph glyph-name="omacron" unicode="&#x14d;" horiz-adv-x="1201" vert-adv-y="2130" 
d="M1005 1266l-13 -79h-408l13 79h408zM597 -19q-204 0 -316.5 143.5t-78.5 360.5q23 143 103 258t199 180.5t253 65.5q135 0 233.5 -65.5t142 -180.5t20.5 -258q-35 -217 -193 -360.5t-363 -143.5zM609 59q170 0 303 122t162 304t-65.5 304t-264.5 122t-302.5 -122
t-161.5 -304t65 -304t264 -122z" />
    <glyph glyph-name="Obreve" unicode="&#x14e;" horiz-adv-x="1703" vert-adv-y="2130" 
d="M1102 1585q-95 0 -154 70t-50 171h79q-5 -69 34.5 -115.5t103.5 -46.5t118.5 46.5t70.5 115.5h78q-23 -101 -103.5 -171t-176.5 -70zM846 -31q-197 0 -349 97t-222.5 264t-39.5 365t155 365t306.5 264t379.5 97q148 0 273.5 -57.5t207.5 -154.5t118.5 -231.5t12.5 -282.5
q-31 -198 -155 -365t-306.5 -264t-380.5 -97zM859 48q176 0 339 86.5t273 235.5t138 325t-35 325t-198.5 235.5t-311.5 86.5t-338.5 -86.5t-273 -235.5t-138.5 -325q-21 -132 11.5 -252t105.5 -206.5t184.5 -137.5t243.5 -51z" />
    <glyph glyph-name="obreve" unicode="&#x14f;" horiz-adv-x="1201" vert-adv-y="2130" 
d="M784 1163q-94 0 -152.5 69t-49.5 170h79q-5 -68 34 -114.5t102 -46.5q64 0 117 46.5t70 114.5h78q-23 -101 -103.5 -170t-174.5 -69zM597 -19q-204 0 -316.5 143.5t-78.5 360.5q23 143 103 258t199 180.5t253 65.5q135 0 233.5 -65.5t142 -180.5t20.5 -258
q-35 -217 -193 -360.5t-363 -143.5zM609 59q170 0 303 122t162 304t-65.5 304t-264.5 122t-302.5 -122t-161.5 -304t65 -304t264 -122z" />
    <glyph glyph-name="Ohungarumlaut" unicode="&#x150;" horiz-adv-x="1703" vert-adv-y="2130" 
d="M1085 1946l59 -41l-248 -291l-59 43zM1370 1946l60 -41l-248 -291l-59 43zM846 -31q-197 0 -349 97t-222.5 264t-39.5 365t155 365t306.5 264t379.5 97q148 0 273.5 -57.5t207.5 -154.5t118.5 -231.5t12.5 -282.5q-31 -198 -155 -365t-306.5 -264t-380.5 -97zM859 48
q176 0 339 86.5t273 235.5t138 325t-35 325t-198.5 235.5t-311.5 86.5t-338.5 -86.5t-273 -235.5t-138.5 -325q-21 -132 11.5 -252t105.5 -206.5t184.5 -137.5t243.5 -51z" />
    <glyph glyph-name="ohungarumlaut" unicode="&#x151;" horiz-adv-x="1201" vert-adv-y="2130" 
d="M767 1521l59 -41l-246 -289l-59 43zM1050 1521l59 -41l-246 -289l-59 43zM597 -19q-204 0 -316.5 143.5t-78.5 360.5q23 143 103 258t199 180.5t253 65.5q135 0 233.5 -65.5t142 -180.5t20.5 -258q-35 -217 -193 -360.5t-363 -143.5zM609 59q170 0 303 122t162 304
t-65.5 304t-264.5 122t-302.5 -122t-161.5 -304t65 -304t264 -122z" />
    <glyph glyph-name="OE" unicode="&#x152;" horiz-adv-x="2667" vert-adv-y="2130" 
d="M846 -31q-197 0 -349 97t-222.5 264t-39.5 365t155 365t306.5 264t379.5 97q209 0 365 -107.5t220 -287.5l57 364h1044l-12 -79h-965l-92 -577h907l-12 -78h-907l-91 -577h965l-13 -79h-1044l58 364q-121 -180 -311 -287.5t-399 -107.5zM859 48q168 0 325.5 82.5
t268 222.5t149.5 306l12 72q14 166 -52.5 306t-198 222.5t-299.5 82.5q-176 0 -338.5 -86.5t-273 -235.5t-138.5 -325q-21 -132 11.5 -252t105.5 -206.5t184.5 -137.5t243.5 -51z" />
    <glyph glyph-name="oe" unicode="&#x153;" horiz-adv-x="2072" vert-adv-y="2130" 
d="M1481 59q131 0 246 79.5t180 213.5l71 -25q-76 -158 -214 -252t-295 -94q-149 0 -252.5 80.5t-136.5 215.5v-2q-77 -135 -205.5 -214.5t-277.5 -79.5q-204 0 -316.5 143.5t-78.5 360.5q23 143 103 258t199 180.5t253 65.5q149 0 252.5 -79.5t136.5 -214.5v-1
q75 135 204 214.5t279 80.5q133 0 230.5 -66.5t140.5 -181.5t24 -256h-872q-29 -182 65 -304t264 -122zM1067 462l10 55q19 109 -20.5 200t-123 142.5t-189.5 51.5q-170 0 -302.5 -122t-161.5 -304t65 -304t264 -122q164 0 296.5 117t161.5 286zM1616 911q-147 0 -271.5 -98
t-174.5 -250h781q-1 152 -94 250t-241 98z" />
    <glyph glyph-name="Racute" unicode="&#x154;" horiz-adv-x="1388" vert-adv-y="2130" 
d="M1100 1863l41 -61l-310 -222l-39 60zM283 499l-79 -499h-79l220 1390h691q122 0 215.5 -59.5t137 -162.5t23.5 -225q-26 -162 -148 -285t-285 -151l265 -507h-95l-262 499h-604zM1024 1311h-612l-116 -733h645q144 16 257 120.5t135 244.5q25 153 -66 260.5t-243 107.5z
" />
    <glyph glyph-name="racute" unicode="&#x155;" horiz-adv-x="702" vert-adv-y="2130" 
d="M690 1438l40 -60l-307 -220l-39 60zM303 625l-99 -625h-79l153 968h78l-18 -117q61 64 142 101t167 37q33 0 85 -10l-13 -81q-46 13 -84 13q-119 0 -216 -83.5t-116 -202.5z" />
    <glyph glyph-name="Rcaron" unicode="&#x158;" horiz-adv-x="1388" vert-adv-y="2130" 
d="M1175 1828l41 -60l-271 -183l-213 183l61 60l168 -145zM283 499l-79 -499h-79l220 1390h691q122 0 215.5 -59.5t137 -162.5t23.5 -225q-26 -162 -148 -285t-285 -151l265 -507h-95l-262 499h-604zM1024 1311h-612l-116 -733h645q144 16 257 120.5t135 244.5
q25 153 -66 260.5t-243 107.5z" />
    <glyph glyph-name="rcaron" unicode="&#x159;" horiz-adv-x="729" vert-adv-y="2130" 
d="M776 1404l41 -60l-268 -181l-211 181l59 60l168 -143zM317 625l-99 -625h-80l153 968h79l-18 -117q61 64 142 101t166 37q33 0 85 -10l-13 -81q-46 13 -84 13q-119 0 -215.5 -83.5t-115.5 -202.5z" />
    <glyph glyph-name="Sacute" unicode="&#x15a;" horiz-adv-x="1376" vert-adv-y="2130" 
d="M1095 1863l41 -61l-310 -222l-39 60zM691 -31q-234 0 -379 113t-130 281h83q-11 -135 114 -225t324 -90q202 0 352 89t171 225q20 121 -89 200.5t-341 114.5q-253 39 -369.5 132.5t-93.5 239.5q17 106 98 191.5t206 133t269 47.5q216 0 350.5 -106.5t120.5 -265.5h-82
q10 126 -104 209.5t-296 83.5q-185 0 -322.5 -82.5t-157.5 -208.5q-18 -114 83.5 -189t310.5 -106q272 -41 398 -140t101 -253q-27 -170 -203 -282t-414 -112z" />
    <glyph glyph-name="sacute" unicode="&#x15b;" horiz-adv-x="1058" vert-adv-y="2130" 
d="M868 1438l41 -60l-308 -220l-39 60zM529 -19q-170 0 -271.5 79t-91.5 201h80q-4 -65 41 -112.5t111.5 -68.5t141.5 -21q56 0 113.5 12.5t109 36t88 64.5t44.5 92q6 37 -7.5 66.5t-36.5 48t-65.5 34.5t-79.5 25t-93 22q-2 0 -3.5 0.5l-3 1t-3.5 0.5q-95 21 -146.5 36.5
t-106 44t-73.5 71.5t-9 104q19 121 136.5 196t280.5 75q158 0 252 -74.5t85 -189.5h-80q5 81 -70 133.5t-194 52.5q-75 0 -143.5 -19t-122 -63.5t-63.5 -107.5q-6 -35 7 -63t32.5 -44.5t62.5 -32t73.5 -23t90.5 -19.5q61 -12 101.5 -22t89.5 -26t78.5 -35.5t55 -46t34 -62.5
t1.5 -80q-20 -127 -146 -206.5t-300 -79.5z" />
    <glyph glyph-name="Scircumflex" unicode="&#x15c;" horiz-adv-x="1376" vert-adv-y="2130" 
d="M1134 1602l-168 144l-214 -144l-42 60l271 183l213 -183zM691 -31q-234 0 -379 113t-130 281h83q-11 -135 114 -225t324 -90q202 0 352 89t171 225q20 121 -89 200.5t-341 114.5q-253 39 -369.5 132.5t-93.5 239.5q17 106 98 191.5t206 133t269 47.5q216 0 350.5 -106.5
t120.5 -265.5h-82q10 126 -104 209.5t-296 83.5q-185 0 -322.5 -82.5t-157.5 -208.5q-18 -114 83.5 -189t310.5 -106q272 -41 398 -140t101 -253q-27 -170 -203 -282t-414 -112z" />
    <glyph glyph-name="scircumflex" unicode="&#x15d;" horiz-adv-x="1058" vert-adv-y="2130" 
d="M906 1180l-167 142l-212 -142l-41 60l269 181l210 -181zM529 -19q-170 0 -271.5 79t-91.5 201h80q-4 -65 41 -112.5t111.5 -68.5t141.5 -21q56 0 113.5 12.5t109 36t88 64.5t44.5 92q6 37 -7.5 66.5t-36.5 48t-65.5 34.5t-79.5 25t-93 22q-2 0 -3.5 0.5l-3 1t-3.5 0.5
q-95 21 -146.5 36.5t-106 44t-73.5 71.5t-9 104q19 121 136.5 196t280.5 75q158 0 252 -74.5t85 -189.5h-80q5 81 -70 133.5t-194 52.5q-75 0 -143.5 -19t-122 -63.5t-63.5 -107.5q-6 -35 7 -63t32.5 -44.5t62.5 -32t73.5 -23t90.5 -19.5q61 -12 101.5 -22t89.5 -26
t78.5 -35.5t55 -46t34 -62.5t1.5 -80q-20 -127 -146 -206.5t-300 -79.5z" />
    <glyph glyph-name="Scedilla" unicode="&#x15e;" horiz-adv-x="1376" vert-adv-y="2130" 
d="M551 -315l10 60q50 6 89.5 40t46.5 78h-118l18 111q-197 23 -312.5 131t-102.5 258h83q-11 -135 114 -225t324 -90q202 0 352 89t171 225q20 121 -89 200.5t-341 114.5q-253 39 -369.5 132.5t-93.5 239.5q17 106 98 191.5t206 133t269 47.5q216 0 350.5 -106.5
t120.5 -265.5h-82q10 126 -104 209.5t-296 83.5q-185 0 -322.5 -82.5t-157.5 -208.5q-18 -114 83.5 -189t310.5 -106q272 -41 398 -140t101 -253q-27 -170 -203 -282t-414 -112q-24 0 -36 1l-7 -48h117l-10 -59q-10 -69 -68.5 -119.5t-135.5 -58.5z" />
    <glyph glyph-name="scedilla" unicode="&#x15f;" horiz-adv-x="1058" vert-adv-y="2130" 
d="M393 -312l9 59q50 6 88.5 39.5t46.5 77.5h-117l20 123q-133 20 -208 94.5t-66 179.5h80q-4 -65 41 -112.5t111.5 -68.5t141.5 -21q56 0 113.5 12.5t109 36t88 64.5t44.5 92q6 37 -7.5 66.5t-36.5 48t-65.5 34.5t-79.5 25t-93 22q-2 0 -3.5 0.5l-3 1t-3.5 0.5
q-95 21 -146.5 36.5t-106 44t-73.5 71.5t-9 104q19 121 136.5 196t280.5 75q158 0 252 -74.5t85 -189.5h-80q5 81 -70 133.5t-194 52.5q-75 0 -143.5 -19t-122 -63.5t-63.5 -107.5q-6 -35 7 -63t32.5 -44.5t62.5 -32t73.5 -23t90.5 -19.5q61 -12 101.5 -22t89.5 -26
t78.5 -35.5t55 -46t34 -62.5t1.5 -80q-20 -127 -146 -206.5t-300 -79.5q-21 0 -31 1l-9 -59h116l-9 -58q-11 -68 -69.5 -118.5t-133.5 -58.5z" />
    <glyph glyph-name="Scaron" unicode="&#x160;" horiz-adv-x="1376" vert-adv-y="2130" 
d="M1170 1828l41 -60l-271 -183l-213 183l61 60l168 -145zM691 -31q-234 0 -379 113t-130 281h83q-11 -135 114 -225t324 -90q202 0 352 89t171 225q20 121 -89 200.5t-341 114.5q-253 39 -369.5 132.5t-93.5 239.5q17 106 98 191.5t206 133t269 47.5q216 0 350.5 -106.5
t120.5 -265.5h-82q10 126 -104 209.5t-296 83.5q-185 0 -322.5 -82.5t-157.5 -208.5q-18 -114 83.5 -189t310.5 -106q272 -41 398 -140t101 -253q-27 -170 -203 -282t-414 -112z" />
    <glyph glyph-name="scaron" unicode="&#x161;" horiz-adv-x="1058" vert-adv-y="2130" 
d="M941 1404l41 -60l-268 -181l-211 181l59 60l168 -143zM529 -19q-170 0 -271.5 79t-91.5 201h80q-4 -65 41 -112.5t111.5 -68.5t141.5 -21q56 0 113.5 12.5t109 36t88 64.5t44.5 92q6 37 -7.5 66.5t-36.5 48t-65.5 34.5t-79.5 25t-93 22q-2 0 -3.5 0.5l-3 1t-3.5 0.5
q-95 21 -146.5 36.5t-106 44t-73.5 71.5t-9 104q19 121 136.5 196t280.5 75q158 0 252 -74.5t85 -189.5h-80q5 81 -70 133.5t-194 52.5q-75 0 -143.5 -19t-122 -63.5t-63.5 -107.5q-6 -35 7 -63t32.5 -44.5t62.5 -32t73.5 -23t90.5 -19.5q61 -12 101.5 -22t89.5 -26
t78.5 -35.5t55 -46t34 -62.5t1.5 -80q-20 -127 -146 -206.5t-300 -79.5z" />
    <glyph glyph-name="Utilde" unicode="&#x168;" horiz-adv-x="1378" vert-adv-y="2130" 
d="M1022 1614q-53 0 -96 52q-23 25 -45 25q-23 0 -54 -25l-51 -46l-48 55l53 45q59 52 112 52q52 0 95 -52q24 -26 45 -26q22 0 53 26l53 46l47 -56l-53 -44q-61 -52 -111 -52zM684 -31q-153 0 -271 75.5t-173 205.5t-31 283l136 857h79l-136 -857q-21 -132 26.5 -243.5
t149 -176.5t233.5 -65q201 0 365 142t196 343l136 857h79l-136 -857q-24 -153 -120 -283t-238 -205.5t-295 -75.5z" />
    <glyph glyph-name="utilde" unicode="&#x169;" vert-adv-y="2130" 
d="M756 1191q-51 0 -95 52q-23 25 -45 25t-52 -25l-52 -46l-47 56l53 44q61 52 111 52t94 -52q23 -25 44 -25q23 0 53 25l52 46l47 -56l-53 -44q-61 -52 -110 -52zM488 -20q-152 0 -242.5 106.5t-65.5 258.5l98 624h78l-98 -624q-19 -119 51.5 -203t189.5 -84t216 84
t117 203l98 624h79l-153 -968h-79l19 117q-62 -64 -142.5 -101t-165.5 -37z" />
    <glyph glyph-name="Umacron" unicode="&#x16a;" horiz-adv-x="1378" vert-adv-y="2130" 
d="M1162 1688l-12 -79h-412l12 79h412zM684 -31q-153 0 -271 75.5t-173 205.5t-31 283l136 857h79l-136 -857q-21 -132 26.5 -243.5t149 -176.5t233.5 -65q201 0 365 142t196 343l136 857h79l-136 -857q-24 -153 -120 -283t-238 -205.5t-295 -75.5z" />
    <glyph glyph-name="umacron" unicode="&#x16b;" vert-adv-y="2130" 
d="M896 1266l-13 -79h-408l13 79h408zM488 -20q-152 0 -242.5 106.5t-65.5 258.5l98 624h78l-98 -624q-19 -119 51.5 -203t189.5 -84t216 84t117 203l98 624h79l-153 -968h-79l19 117q-62 -64 -142.5 -101t-165.5 -37z" />
    <glyph glyph-name="Ubreve" unicode="&#x16c;" horiz-adv-x="1378" vert-adv-y="2130" 
d="M940 1585q-95 0 -154 70t-50 171h79q-5 -69 34.5 -115.5t103.5 -46.5t117.5 46.5t70.5 115.5h79q-23 -101 -104 -171t-176 -70zM684 -31q-153 0 -271 75.5t-173 205.5t-31 283l136 857h79l-136 -857q-21 -132 26.5 -243.5t149 -176.5t233.5 -65q201 0 365 142t196 343
l136 857h79l-136 -857q-24 -153 -120 -283t-238 -205.5t-295 -75.5z" />
    <glyph glyph-name="ubreve" unicode="&#x16d;" vert-adv-y="2130" 
d="M675 1163q-94 0 -152.5 69t-49.5 170h78q-5 -68 34.5 -114.5t102.5 -46.5t116.5 46.5t69.5 114.5h79q-23 -101 -103.5 -170t-174.5 -69zM488 -20q-152 0 -242.5 106.5t-65.5 258.5l98 624h78l-98 -624q-19 -119 51.5 -203t189.5 -84t216 84t117 203l98 624h79l-153 -968
h-79l19 117q-62 -64 -142.5 -101t-165.5 -37z" />
    <glyph glyph-name="Uring" unicode="&#x16e;" horiz-adv-x="1378" vert-adv-y="2130" 
d="M938 1573q-65 0 -104 46t-28 111t64 111t118 46t103.5 -46t28.5 -111q-11 -65 -64.5 -111t-117.5 -46zM951 1652q32 0 58.5 23t31.5 55t-14.5 55t-51.5 23t-58.5 -23t-31.5 -55t14.5 -55t51.5 -23zM684 -31q-153 0 -271 75.5t-173 205.5t-31 283l136 857h79l-136 -857
q-21 -132 26.5 -243.5t149 -176.5t233.5 -65q201 0 365 142t196 343l136 857h79l-136 -857q-24 -153 -120 -283t-238 -205.5t-295 -75.5z" />
    <glyph glyph-name="uring" unicode="&#x16f;" vert-adv-y="2130" 
d="M673 1151q-65 0 -103 46t-28 110t63 109.5t118 45.5t102.5 -45.5t27.5 -109.5q-11 -65 -63.5 -110.5t-116.5 -45.5zM686 1230q31 0 57.5 22.5t31.5 54.5q5 31 -14 54t-51 23q-31 0 -57.5 -22.5t-31.5 -54.5q-5 -31 14 -54t51 -23zM488 -20q-152 0 -242.5 106.5
t-65.5 258.5l98 624h78l-98 -624q-19 -119 51.5 -203t189.5 -84t216 84t117 203l98 624h79l-153 -968h-79l19 117q-62 -64 -142.5 -101t-165.5 -37z" />
    <glyph glyph-name="Uhungarumlaut" unicode="&#x170;" horiz-adv-x="1378" vert-adv-y="2130" 
d="M922 1946l60 -41l-248 -291l-60 43zM1208 1946l59 -41l-248 -291l-59 43zM684 -31q-153 0 -271 75.5t-173 205.5t-31 283l136 857h79l-136 -857q-21 -132 26.5 -243.5t149 -176.5t233.5 -65q201 0 365 142t196 343l136 857h79l-136 -857q-24 -153 -120 -283t-238 -205.5
t-295 -75.5z" />
    <glyph glyph-name="uhungarumlaut" unicode="&#x171;" vert-adv-y="2130" 
d="M658 1521l58 -41l-245 -289l-59 43zM941 1521l58 -41l-245 -289l-59 43zM488 -20q-152 0 -242.5 106.5t-65.5 258.5l98 624h78l-98 -624q-19 -119 51.5 -203t189.5 -84t216 84t117 203l98 624h79l-153 -968h-79l19 117q-62 -64 -142.5 -101t-165.5 -37z" />
    <glyph glyph-name="Wcircumflex" unicode="&#x174;" horiz-adv-x="2222" vert-adv-y="2130" 
d="M1557 1602l-169 144l-214 -144l-41 60l270 183l213 -183zM1574 0l-264 1259l-662 -1259l-294 1388h81l249 -1162l614 1162h65l247 -1162l617 1162h81z" />
    <glyph glyph-name="wcircumflex" unicode="&#x175;" horiz-adv-x="1549" vert-adv-y="2130" 
d="M1151 1180l-168 142l-211 -142l-41 60l268 181l211 -181zM1078 0l-166 864l-440 -864l-187 970h73l146 -767l393 767h63l150 -767l389 767h73z" />
    <glyph glyph-name="Ycircumflex" unicode="&#x176;" horiz-adv-x="1487" vert-adv-y="2130" 
d="M1219 1602l-169 144l-214 -144l-41 60l270 183l213 -183zM899 541l-86 -541h-79l86 541l-461 849h98l414 -773l659 773h98z" />
    <glyph glyph-name="ycircumflex" unicode="&#x177;" horiz-adv-x="1168" vert-adv-y="2130" 
d="M960 1180l-167 142l-211 -142l-42 60l269 181l211 -181zM1188 970l-864 -1387h-74l310 494l-272 893h86l236 -807l491 807h87z" />
    <glyph glyph-name="Ydieresis" unicode="&#x178;" horiz-adv-x="1487" vert-adv-y="2130" 
d="M890 1606q-25 0 -40 18t-11 43t25 43.5t46 18.5t40.5 -18t11.5 -44q-4 -25 -25.5 -43t-46.5 -18zM1165 1606q-25 0 -40.5 18t-11.5 43t25.5 43.5t46.5 18.5t40.5 -18t11.5 -44q-4 -25 -25.5 -43t-46.5 -18zM899 541l-86 -541h-79l86 541l-461 849h98l414 -773l659 773h98
z" />
    <glyph glyph-name="Zacute" unicode="&#x179;" horiz-adv-x="1542" vert-adv-y="2130" 
d="M1177 1863l41 -61l-310 -222l-39 60zM1348 79l-13 -79h-1193l1298 1311h-1006l12 79h1174l-1297 -1311h1025z" />
    <glyph glyph-name="zacute" unicode="&#x17a;" horiz-adv-x="1018" vert-adv-y="2130" 
d="M848 1438l40 -60l-307 -220l-39 60zM905 78l-12 -78h-768l12 78l797 814h-629l13 78h729l-13 -77l-797 -815h668z" />
    <glyph glyph-name="Zdotaccent" unicode="&#x17b;" horiz-adv-x="1542" vert-adv-y="2130" 
d="M1030 1638q-25 0 -40.5 18t-11.5 44q4 25 25.5 43.5t46.5 18.5t40.5 -18.5t11.5 -43.5t-25.5 -43.5t-46.5 -18.5zM1348 79l-13 -79h-1193l1298 1311h-1006l12 79h1174l-1297 -1311h1025z" />
    <glyph glyph-name="zdotaccent" unicode="&#x17c;" horiz-adv-x="1018" vert-adv-y="2130" 
d="M701 1215q-25 0 -40 18t-11 44q4 25 25 43t46 18t40.5 -18t11.5 -43t-25 -43.5t-47 -18.5zM905 78l-12 -78h-768l12 78l797 814h-629l13 78h729l-13 -77l-797 -815h668z" />
    <glyph glyph-name="Zcaron" unicode="&#x17d;" horiz-adv-x="1542" vert-adv-y="2130" 
d="M1252 1828l41 -60l-271 -183l-213 183l61 60l168 -145zM1348 79l-13 -79h-1193l1298 1311h-1006l12 79h1174l-1297 -1311h1025z" />
    <glyph glyph-name="zcaron" unicode="&#x17e;" horiz-adv-x="1018" vert-adv-y="2130" 
d="M921 1404l41 -60l-269 -181l-210 181l59 60l167 -143zM905 78l-12 -78h-768l12 78l797 814h-629l13 78h729l-13 -77l-797 -815h668z" />
    <glyph glyph-name="circumflex" unicode="&#x2c6;" vert-adv-y="2130" 
d="M867 1180l-167 142l-212 -142l-41 60l269 181l210 -181z" />
    <glyph glyph-name="caron" unicode="&#x2c7;" vert-adv-y="2130" 
d="M902 1404l41 -60l-268 -181l-211 181l59 60l168 -143z" />
    <glyph glyph-name="breve" unicode="&#x2d8;" horiz-adv-x="970" vert-adv-y="2130" 
d="M669 1163q-94 0 -152.5 69t-49.5 170h78q-5 -68 34.5 -114.5t102.5 -46.5t116.5 46.5t70.5 114.5h78q-23 -101 -103.5 -170t-174.5 -69z" />
    <glyph glyph-name="dotaccent" unicode="&#x2d9;" horiz-adv-x="427" vert-adv-y="2130" 
d="M406 1215q-25 0 -40.5 18t-11.5 44q4 25 25.5 43t46.5 18t40 -18t11 -43t-25 -43.5t-46 -18.5z" />
    <glyph glyph-name="ring" unicode="&#x2da;" horiz-adv-x="801" vert-adv-y="2130" 
d="M583 1151q-65 0 -103 46t-28 110t63 109.5t118 45.5q64 0 102 -45.5t28 -109.5t-63 -110t-117 -46zM596 1230q31 0 57.5 22.5t31.5 54.5q5 31 -14 54t-51 23t-58.5 -22.5t-31.5 -54.5q-5 -31 14.5 -54t51.5 -23z" />
    <glyph glyph-name="tilde" unicode="&#x2dc;" horiz-adv-x="950" vert-adv-y="2130" 
d="M740 1191q-51 0 -95 52q-23 25 -45 25t-52 -25l-52 -46l-47 56l53 44q58 50 111 52q53 -2 94 -52q23 -25 45 -25t52 25l52 46l47 -56l-53 -44q-61 -52 -110 -52z" />
    <glyph glyph-name="hungarumlaut" unicode="&#x2dd;" horiz-adv-x="890" vert-adv-y="2130" 
d="M612 1521l58 -41l-245 -289l-59 43zM895 1521l58 -41l-245 -289l-59 43z" />
    <glyph glyph-name="Wgrave" unicode="&#x1e80;" horiz-adv-x="2222" vert-adv-y="2130" 
d="M1295 1863l240 -223l-61 -60l-239 222zM1574 0l-264 1259l-662 -1259l-294 1388h81l249 -1162l614 1162h65l247 -1162l617 1162h81z" />
    <glyph glyph-name="wgrave" unicode="&#x1e81;" horiz-adv-x="1549" vert-adv-y="2130" 
d="M891 1438l237 -220l-60 -60l-236 220zM1078 0l-166 864l-440 -864l-187 970h73l146 -767l393 767h63l150 -767l389 767h73z" />
    <glyph glyph-name="Wacute" unicode="&#x1e82;" horiz-adv-x="2222" vert-adv-y="2130" 
d="M1484 1863l41 -61l-310 -222l-39 60zM1572 -14l-263 1264l-663 -1264l-294 1393h81l249 -1166l614 1166h65l247 -1166l617 1166h81z" />
    <glyph glyph-name="wacute" unicode="&#x1e83;" horiz-adv-x="1549" vert-adv-y="2130" 
d="M1113 1438l40 -60l-307 -220l-39 60zM1078 0l-166 864l-440 -864l-187 970h73l146 -767l393 767h63l150 -767l389 767h73z" />
    <glyph glyph-name="Wdieresis" unicode="&#x1e84;" horiz-adv-x="2222" vert-adv-y="2130" 
d="M1234 1606q-25 0 -40.5 18t-11.5 43t25.5 43.5t46.5 18.5t40.5 -18t11.5 -44q-4 -25 -25.5 -43t-46.5 -18zM1509 1606q-25 0 -40.5 18t-11.5 43t25.5 43.5t46.5 18.5t40.5 -18t11.5 -44q-4 -25 -25.5 -43t-46.5 -18zM1574 0l-264 1259l-662 -1259l-294 1388h81l249 -1162
l614 1162h65l247 -1162l617 1162h81z" />
    <glyph glyph-name="wdieresis" unicode="&#x1e85;" horiz-adv-x="1549" vert-adv-y="2130" 
d="M826 1183q-25 0 -40.5 18.5t-11.5 43.5t25.5 43t46.5 18t40 -18t11 -43t-25 -43.5t-46 -18.5zM1098 1183q-25 0 -40.5 18.5t-11.5 43.5t25.5 43t46.5 18t40.5 -18t11.5 -43t-25.5 -43.5t-46.5 -18.5zM1078 0l-166 864l-440 -864l-187 970h73l146 -767l393 767h63
l150 -767l389 767h73z" />
    <glyph glyph-name="endash" unicode="&#x2013;" horiz-adv-x="1138" vert-adv-y="2130" 
d="M1052 573l-13 -79h-784l13 79h784z" />
    <glyph glyph-name="emdash" unicode="&#x2014;" horiz-adv-x="1719" vert-adv-y="2130" 
d="M1633 573l-13 -79h-1365l13 79h1365z" />
    <glyph glyph-name="quoteleft" unicode="&#x2018;" horiz-adv-x="456" vert-adv-y="2130" 
d="M496 1376l35 -250h-84l-60 250h109z" />
    <glyph glyph-name="quoteright" unicode="&#x2019;" horiz-adv-x="440" vert-adv-y="2130" 
d="M511 1376l-140 -250h-84l115 250h109z" />
    <glyph glyph-name="quotesinglbase" unicode="&#x201a;" horiz-adv-x="464" vert-adv-y="2130" 
d="M336 272l-140 -250h-84l115 250h109z" />
    <glyph glyph-name="quotedblleft" unicode="&#x201c;" horiz-adv-x="622" vert-adv-y="2130" 
d="M411 1376l60 -250h-109l-35 250h84zM585 1376l60 -250h-109l-35 250h84z" />
    <glyph glyph-name="quotedblright" unicode="&#x201d;" horiz-adv-x="606" vert-adv-y="2130" 
d="M511 1376l-140 -250h-84l115 250h109zM685 1376l-140 -250h-84l115 250h109z" />
    <glyph glyph-name="quotedblbase" unicode="&#x201e;" horiz-adv-x="632" vert-adv-y="2130" 
d="M336 272l-140 -250h-84l115 250h109zM510 272l-140 -250h-84l115 250h109z" />
    <glyph glyph-name="dagger" unicode="&#x2020;" horiz-adv-x="792" vert-adv-y="2130" 
d="M601 1047l-74 -466h-78l74 466h-198l12 78h198l40 252h78l-40 -252h198l-12 -78h-198z" />
    <glyph glyph-name="daggerdbl" unicode="&#x2021;" horiz-adv-x="800" vert-adv-y="2130" 
d="M479 252l-40 -252h-78l40 252h-198l12 78h198l114 717h-198l12 78h198l40 252h78l-40 -252h198l-12 -78h-198l-114 -717h198l-12 -78h-198z" />
    <glyph glyph-name="bullet" unicode="&#x2022;" horiz-adv-x="708" vert-adv-y="2130" 
d="M445 572q-49 0 -78 34t-21 83q8 48 47 82t88 34q48 0 77 -34t22 -82q-7 -49 -47 -83t-88 -34z" />
    <glyph glyph-name="ellipsis" unicode="&#x2026;" horiz-adv-x="1063" vert-adv-y="2130" 
d="M221 0q-26 0 -41 18.5t-11 43.5t25 43t46 18t40.5 -18t11.5 -43q-5 -26 -25.5 -44t-45.5 -18zM532 0q-26 0 -41 18.5t-11 43.5t25 43t46 18t40.5 -18t11.5 -43q-5 -26 -25.5 -44t-45.5 -18zM839 0q-25 0 -40.5 18.5t-11.5 43.5t25 43t46 18t40.5 -18t11.5 -43
q-5 -26 -25.5 -44t-45.5 -18z" />
    <glyph glyph-name="guilsinglleft" unicode="&#x2039;" horiz-adv-x="754" vert-adv-y="2130" 
d="M327 493l285 -337l-65 -56l-330 393l454 392l47 -55z" />
    <glyph glyph-name="guilsinglright" unicode="&#x203a;" horiz-adv-x="754" vert-adv-y="2130" 
d="M362 885l331 -392l-455 -393l-46 56l390 337l-284 337z" />
    <glyph glyph-name="fraction" unicode="&#x2044;" horiz-adv-x="1495" vert-adv-y="2130" 
d="M1617 1387l41 -49l-1562 -1348l-41 49z" />
    <glyph glyph-name="Euro" unicode="&#x20ac;" horiz-adv-x="1380" vert-adv-y="1700" 
d="M791 -31q-200 0 -323 129.5t-142 356.5h-117l13 79h103q-1 73 12 155q11 74 37 154h-103l12 79h117q90 233 254.5 359.5t365.5 126.5q256 0 392 -218l-64 -54q-122 194 -341 194q-168 0 -307.5 -107t-219.5 -301h587l-12 -79h-603q-22 -69 -36 -154q-14 -86 -12 -155h602
l-13 -79h-587q19 -194 124 -301t273 -107q220 0 403 194l48 -54q-209 -218 -463 -218z" />
    <glyph glyph-name="trademark" unicode="&#x2122;" horiz-adv-x="1267" vert-adv-y="2130" 
d="M537 1345l-59 -373h-48l59 373h-159l8 48h366l-8 -48h-159zM746 1272l-47 -300h-44l66 419h24l147 -331l251 331h25l-66 -419h-45l48 300l-227 -300z" />
    <glyph glyph-name="minus" unicode="&#x2212;" horiz-adv-x="1131" vert-adv-y="2130" 
d="M1044 670l-12 -79h-745l12 79h745z" />
    <glyph glyph-name="uniF8FF" unicode="&#xf8ff;" horiz-adv-x="1980" vert-adv-y="2130" 
d="M1860 1615v-1869h-1740v1869h1740zM1266 1384h-890v-1194h203v344h687v183h-687v491h687v176zM1398 375h-685v-185h888v1194h-203v-334h-685v-190h685v-485zM559 -2q30 0 50.5 19.5t20.5 49.5t-20.5 49.5t-50.5 19.5t-51 -19.5t-21 -49.5t21 -49.5t51 -19.5zM1095 -2
q22 0 37.5 11t15.5 30q0 14 -6 22q-4 6 -15 13q-9 5 -24 8q-25 5 -25 16q0 9 14 9q17 0 43 -14l13 28q-28 15 -53 15q-22 0 -37.5 -10.5t-15.5 -31.5q0 -13 6 -20q3 -6 15 -12l24 -8l9 -3q8 -3 13 -5q3 -3 3 -8q0 -6 -6 -8q-6 -3 -11 -3q-27 0 -48 21l-14 -28q27 -22 62 -22
zM1402 -2q29 0 56 25l-21 21q-15 -15 -32 -15q-21 0 -31 19q-5 6 -5 16q0 20 10 31t25 11q22 0 33 -18l20 25q-20 23 -52 23q-31 0 -51.5 -19.5t-20.5 -49.5q0 -29 20 -49t49 -20zM480 134h-99v-134h35v48h58v28h-58v30h64v28zM678 134h-31v-134h33v80l60 -80h29v134h-32
l1 -81zM785 105h39v-105h33v105h41v29h-113v-29zM976 134h-35l-56 -134h34l10 23h57l9 -23h37zM1154 105h39v-105h35v105h40v29h-114v-29zM1316 134h-34v-134h34v134zM1550 134h-36l-57 -134h36l8 23h59l8 -23h37zM559 28q-16 0 -26 11.5t-10 27.5t10 27.5t26 11.5
q23 0 31 -20q4 -10 4 -19q0 -16 -10 -27.5t-25 -11.5zM959 98l17 -48h-37zM1530 98l19 -48h-37zM671 -342v-69h-23v69h-13v12l13 6v6q0 15 7 22q7 6 23 6q13 0 22 -3l-6 -18q-4 2 -13 2q-5 0 -7 -3q-3 -2 -3 -7v-5h21v-18h-21zM1233 -314q-12 0 -12 12t12 12q13 0 13 -12
q0 -6 -3 -9t-10 -3zM938 -412q-14 0 -21 6q-6 8 -6 22v42h-11v10l12 8l7 19h16v-19h24v-18h-24v-42q0 -3 2 -7q4 -2 8 -2q3 0 15 2v-18q-9 -3 -22 -3zM1183 -412q-15 0 -21 6q-7 7 -7 22v42h-12v10l14 8l7 19h14v-19h25v-18h-25v-42q0 -4 4 -7q4 -2 7 -2t15 2v-18
q-9 -3 -21 -3zM998 -412q-12 0 -19 6q-8 8 -8 21q0 14 11 21q8 6 29 7h14v4q0 13 -13 13q-10 0 -24 -6l-8 16q16 8 33 8q16 0 27 -8q9 -8 9 -23v-58h-17l-4 11h-1q-8 -8 -12 -10t-17 -2zM1373 -412q-13 0 -20 6q-7 7 -7 21t10 21q8 5 29 7h15v4q0 13 -13 13q-11 0 -25 -6
l-8 16q16 8 34 8q15 0 26 -8q9 -8 9 -23v-58h-17l-4 11h-1q-5 -7 -11 -10q-4 -2 -17 -2zM742 -412q-13 0 -22 5q-9 4 -15 16q-5 12 -5 23q0 20 11 34q11 11 31 11q14 0 22 -5q10 -4 16 -16q5 -10 5 -24q0 -20 -12 -33q-10 -11 -31 -11zM827 -371v-40h-24v87h19l3 -11h1
q5 7 12 9q6 3 15 3q16 0 23 -8q8 -8 8 -23v-57h-24v51q0 10 -3 14t-11 4q-10 0 -14 -6q-5 -8 -5 -23zM1097 -412q-12 0 -16 1l-12 3v20q2 -1 7 -2.5t7 -2.5l15 -3q13 0 13 8q0 3 -2 5l-6 4q-1 0 -5 2t-7 3q-7 2 -14 7q-5 5 -6 9q-2 3 -2 11q0 13 8 18q9 6 26 6t30 -6l-7 -18
l-12 5q-4 1 -12 1q-11 0 -11 -5q0 -4 4 -5q5 -3 15 -7l15 -7l7 -9q2 -6 2 -11q0 -13 -9 -21q-11 -6 -28 -6zM1305 -412q-41 0 -41 43q0 21 12 35q10 11 31 11q15 0 27 -5l-6 -19q-3 1 -7 3l-4 1q-1 0 -4.5 0.5t-5.5 0.5q-18 0 -18 -26q0 -25 18 -25q5 0 13 2q6 2 12 5v-20
q-2 -2 -12 -5q-4 -1 -15 -1zM1528 -412q-40 0 -40 43q0 24 10 35q11 11 33 11q13 0 26 -5l-7 -19l-10 4q-2 0 -5 0.5t-4 0.5q-19 0 -19 -26q0 -25 19 -25q4 0 12 2q6 1 11 5v-20q-3 -3 -11 -5q-4 -1 -15 -1zM1611 -412q-13 0 -21 5q-11 5 -15 16q-5 9 -5 23q0 21 10 34
q11 11 31 11q15 0 23 -5q11 -6 15 -16q5 -10 5 -24q0 -20 -12 -33q-10 -11 -31 -11zM1697 -371v-40h-24v87h18l3 -11h2q3 7 10 9q6 3 15 3q20 0 26 -12h2q5 6 10 9q7 3 18 3q14 0 21 -7t7 -24v-57h-24v51q0 10 -3 14t-10 4q-8 0 -13 -6q-4 -5 -4 -20v-43h-24v51q0 10 -3 14
t-10 4q-9 0 -13 -6q-4 -7 -4 -23zM245 -343l-15 -68h-26l-24 87h23l10 -38q1 -2 5 -29q0 6 3 18l1 8l11 41h27l9 -41q1 -2 1 -6q0 -1 1 -3.5t1 -3.5q0 -5 1 -7v-6h1q0 3 2 15l2 14l12 38h23l-25 -87h-26l-7 30l-9 38h-1zM382 -343l-17 -68h-24l-25 87h23l10 -38q4 -16 5 -29
h1q0 2 2 18l1 8l12 41h25l11 -41q0 -4 1 -6l1 -7q0 -2 0.5 -4t0.5 -3q0 -2 0.5 -3.5t0.5 -2.5q0 3 2 15q1 3 2 8t1 6l10 38h23l-25 -87h-26l-6 30zM518 -343l-16 -68h-26l-25 87h24l11 -38q0 -2 1.5 -12t2.5 -17h1q0 6 3 18l1 8l10 41h26l10 -41q0 -1 0.5 -3t0.5 -3t1 -3.5
t1 -3.5q1 -3 1 -7q1 -3 1 -6l3 15l2 14l10 38h24l-25 -87h-26l-7 30l-8 38h-1zM1245 -324v-87h-23v87h23zM742 -393q10 0 14 6q4 5 4 19q0 15 -4 20q-4 6 -14 6t-13 -6q-4 -5 -4 -20q0 -12 4 -19q3 -6 13 -6zM1611 -393q11 0 14 6q4 5 4 19q0 15 -4 20q-3 6 -14 6
q-9 0 -13 -6q-4 -5 -4 -20q0 -12 4 -19q4 -6 13 -6zM1008 -396q5 0 13 6q4 4 4 12v7h-8q-13 -2 -16 -4q-5 -3 -5 -10q0 -11 12 -11zM1381 -396q8 0 14 6q5 5 5 12v7h-9q-12 -2 -16 -4q-5 -3 -5 -10q0 -11 11 -11zM609 -413q-5 0 -11 3q-3 4 -3 10q0 7 3 10q6 3 11 3
q7 0 10 -3t3 -10q0 -6 -3 -10q-5 -3 -10 -3zM1458 -413q-6 0 -10 3q-3 5 -3 10q0 7 3 10t10 3q6 0 10 -3q4 -4 4 -10q0 -4 -4 -10q-5 -3 -10 -3z" />
    <glyph glyph-name="_Fontastica" horiz-adv-x="1458" vert-adv-y="2130" 
d="M322 521v-340h-196q-3 0 -4.5 2t-1.5 4v2v1178h884v-174h-682v-490h682v-182h-682zM1338 1367v-1186h-884v184h682v482h-682v188h682v332h202zM836 -1q-35 0 -61 21l14 28q7 -8 21.5 -14.5t24.5 -6.5q8 0 14 3q5 2 5 8q0 5 -4 8q-11 6 -22 9q-18 5 -24 8q-9 3 -14 10
q-6 8 -6 20q0 22 15.5 32.5t36.5 10.5q26 0 53 -15l-13 -28q-23 14 -41 14q-15 0 -15 -9q0 -10 24 -17q19 -4 24 -7q11 -7 15 -12q6 -9 6 -22q0 -20 -15.5 -30.5t-37.5 -10.5zM302 -2q-30 0 -50.5 19.5t-20.5 49.5t20.5 49t50.5 19t50.5 -19t20.5 -49t-20 -49.5t-51 -19.5z
M1143 -2q-29 0 -48.5 20t-19.5 49q0 30 20 49t50 19q33 0 53 -23l-20 -24q-13 18 -33 18q-15 0 -25.5 -10.5t-10.5 -29.5q0 -10 5 -18q12 -19 32 -19q19 0 32 15l21 -21q-27 -25 -56 -25zM159 48v-47h-34v132h99v-27h-65v-30h59v-28h-59zM423 80v-79h-33v132h30l61 -79
l-1 79h33v-132h-30zM600 105v-104h-33v104h-40v28h114v-28h-41zM671 24l-9 -23h-35l56 132h35l56 -132h-36l-10 23h-57zM970 105v-104h-36v104h-38v28h112v-28h-38zM1057 133v-132h-34v132h34zM1242 24l-9 -23h-35l56 132h36l55 -132h-37l-9 23h-57zM302 27q16 0 26 12
t10 27q0 5 -5 20q-7 20 -30 20q-16 0 -26.5 -11.5t-10.5 -27.5t10.5 -28t25.5 -12zM717 50l-16 48l-20 -48h36zM1289 50l-18 48l-18 -48h36z" />
    <glyph glyph-name="_VendorID" horiz-adv-x="1123" vert-adv-y="2130" 
d="M779 772q-104 0 -168 53.5t-53 127.5h73q-16 -44 29.5 -78.5t118.5 -34.5q62 0 105 26.5t43 65.5q0 68 -155 91q-99 15 -150 54.5t-51 98.5q0 66 58 109.5t145 43.5q96 0 158 -51.5t50 -122.5h-74q17 40 -24.5 72.5t-109.5 32.5q-56 0 -94.5 -24t-38.5 -58q0 -66 140 -86
q106 -15 161.5 -56t55.5 -104q0 -69 -62.5 -114.5t-156.5 -45.5zM190 1016v-233h-70v535h413v-69h-343v-164h323v-69h-323zM780 143q-103 0 -168 53t-54 128h73q-16 -43 29.5 -77t118.5 -34q62 0 105 25.5t43 63.5q0 70 -152 93q-100 14 -152 53.5t-52 99.5q0 66 58.5 109.5
t145.5 43.5q96 0 157 -51.5t50 -122.5h-74q17 40 -24.5 72.5t-108.5 32.5q-56 0 -95 -24t-39 -59q0 -64 139 -84q218 -32 218 -162q0 -69 -62 -114.5t-156 -45.5zM190 387v-233h-70v535h413v-68h-343v-164h323v-70h-323zM392 98v-37h-12v37h-7v7l7 3v3q0 8 5 11q0 4 11 4
q9 0 13 -2l-4 -10q-3 1 -8 1q-3 0 -4 -1q-1 -2 -1 -4v-2h11v-10h-11zM695 113q-7 0 -7 6q0 7 7 7t7 -7q0 -4 -1 -5q-1 0 -3 -0.5t-3 -0.5zM536 60q-6 0 -12 4q-4 4 -4 12v22h-4v5l5 5l5 9h8v-9h13v-10h-13v-22q0 -2 2 -4q2 -1 4 -1q1 0 3.5 0.5t4.5 0.5v-10q-8 -2 -12 -2z
M668 60q-8 0 -12 4q-3 2 -3 12v22h-7v5l7 5l4 9h8v-9h14v-10h-14v-22q0 -3 2 -4l4 -1l8 1v-10q-4 -2 -11 -2zM568 60q-4 0 -10 4q-5 3 -5 11q0 7 7 11q2 2 16 4h6v2q0 7 -6 7t-13 -3l-5 9q12 4 19 4q4 0 14 -4q4 -4 4 -13v-31h-9l-2 5h-1q-1 0 -2.5 -2t-2.5 -2q-2 -2 -10 -2
zM771 60q-4 0 -12 4q-4 3 -4 11q0 7 6 11q1 2 16 4h8v2q0 7 -7 7q-6 0 -15 -3l-3 9q10 4 18 4q4 0 14 -4q5 -4 5 -13v-31h-10l-1 5h-1l-6 -4q-2 -2 -8 -2zM944 82v-21h-12v47h9l2 -6h1q1 2 4 4t9 2q12 0 15 -6h1q2 4 5 4q6 2 8 2q9 0 12 -3q5 -4 5 -14v-30h-13v28q0 3 -2 7
q-2 2 -6 2t-7 -3q-2 -4 -2 -11v-23h-13v28q0 3 -2 7q-1 2 -4 2q-6 0 -8 -3q-2 -6 -2 -13zM163 97l-8 -36h-14l-13 47h13l5 -20l3 -16q0 5 1 8l1 6l5 22h15l5 -22q1 -2 1 -4v-4q0 -1 1 -3v-3q0 3 2 7q0 2 0.5 5t0.5 4l7 20h12l-13 -47h-15l-4 16l-4 20h-1zM237 97l-10 -36
h-12l-14 47h13l5 -20q2 -12 2 -16h1q0 1 0.5 3.5t0.5 4.5l1 6l6 22h13l7 -22v-8v-1q1 -1 1 -2v-3q0 3 2 7q0 7 1 9l5 20h14l-15 -47h-13l-4 16zM310 97l-10 -36h-13l-12 47h12l5 -20q0 -3 1 -8t1 -8h1q0 2 2 8l1 6l4 22h16l4 -22v-2l1 -2q0 -1 1 -2v-2v-3q1 -2 1 -3q0 5 1 7
q0 2 0.5 5t0.5 4l7 20h12l-13 -47h-14l-4 16l-4 20h-1zM430 60q-7 0 -12 4q-4 1 -8 8q-1 4 -1 12q0 13 5 19q7 5 16 5t13 -2q6 -4 8 -9q2 -8 2 -13q0 -9 -6 -18q-5 -6 -17 -6zM477 82v-21h-14v47h10l2 -6h1q2 4 6 4q2 2 8 2q9 0 12 -4q5 -2 5 -13v-30h-13v28q0 5 -1 7
q-4 2 -8 2q-3 0 -6 -3q-2 -3 -2 -13zM621 60q-6 0 -8 1q-1 1 -3.5 1t-3.5 1v10q1 0 4 -0.5t4 -1.5q4 -2 7 -2q8 0 8 4v4q-2 0 -4 1q-1 0 -7 2t-6 4q-4 4 -4 5q-2 2 -2 6q0 7 6 10q3 3 13 3t16 -3l-4 -10q-1 1 -4 2l-3 1h-6q-6 0 -6 -2q0 -3 1 -3l10 -4l8 -3q1 -2 2.5 -3.5
t1.5 -2.5v-5q0 -8 -4 -11q-8 -4 -16 -4zM702 108v-47h-13v47h13zM734 60q-22 0 -22 23q0 12 5 20q7 5 18 5q8 0 14 -2l-3 -11q-4 2 -6 2q-1 0 -2 0.5t-3 0.5q-10 0 -10 -14q0 -13 10 -13q1 0 3 0.5t4 0.5q3 0 6 3v-11l-6 -3q-3 -1 -8 -1zM853 60q-21 0 -21 23q0 13 6 20
q7 5 17 5q3 0 15 -2l-5 -11q-2 2 -5 2q-1 0 -3 1h-2q-10 0 -10 -14q0 -13 10 -13q1 0 3 1h3q4 0 7 3v-11q-1 -1 -7 -3q-1 -1 -8 -1zM897 60q-7 0 -10 4q-7 2 -8 8q-3 6 -3 12q0 11 5 19q7 5 16 5q11 0 13 -2q7 -3 9 -9q2 -4 2 -13q0 -10 -7 -18q-6 -6 -17 -6zM430 71
q5 0 8 3q2 3 2 10q0 8 -2 11q-3 3 -8 3q-6 0 -7 -3q-2 -3 -2 -11q0 -7 2 -10q1 -3 7 -3zM897 71q7 0 9 3t2 10q0 8 -2 11t-9 3q-3 0 -6 -3q-2 -3 -2 -11q0 -7 2 -10q3 -3 6 -3zM574 69q3 0 6 3q2 4 2 6v4h-3q-8 -2 -10 -3q-1 0 -1 -4q0 -6 6 -6zM775 69l6 3q4 4 4 6v4h-6
q-5 -1 -7 -3q-3 0 -3 -4q0 -6 6 -6zM359 60q-4 0 -7 2v2l-1 2l1 6q6 2 7 2q3 0 5 -2q2 0 2 -6l-2 -4q-2 -2 -5 -2zM815 60q-3 0 -4 2l-2 4q0 6 2 6q2 2 4 2q3 0 7 -2q1 -3 1 -6l-1 -2v-2q-2 -2 -7 -2z" />
    </font>
</defs>
</svg>
