<?xml version="1.0" standalone="no"?>
<!DOCTYPE svg PUBLIC "-//W3C//DTD SVG 1.1//EN" "http://www.w3.org/Graphics/SVG/1.1/DTD/svg11.dtd" >
<svg xmlns="http://www.w3.org/2000/svg" xmlns:xlink="http://www.w3.org/1999/xlink" version="1.1">
<metadata>
Created by FontForge 20170731 at Wed Oct 20 22:58:10 2021
 By Aleksey,,,
Copyright (c) 2021 by Fontastica. All rights reserved.
</metadata>
<defs>
<font id="EinerGrotesk-ThinItalic" horiz-adv-x="1372" vert-adv-y="2048" >
  <font-face 
    font-family="Einer Grotesk Thin"
    font-weight="100"
    font-style="italic"
    font-stretch="normal"
    units-per-em="2048"
    panose-1="0 0 2 0 0 0 0 0 0 0"
    ascent="1638"
    descent="-410"
    x-height="969"
    cap-height="1390"
    bbox="43 -430 2785 1953"
    underline-thickness="50"
    underline-position="-150"
    slope="-9"
    unicode-range="U+000D-F8FF"
  />
<missing-glyph horiz-adv-x="1428" vert-adv-y="2130" 
d="M1415 1396l-222 -1402h-960l222 1402h960zM1313 1340h-774l295 -584zM1291 1214l-424 -519l260 -521l26 7l162 1026zM495 1203l-162 -1020l24 -7l424 519l-260 516zM1109 52l-293 582l-479 -582h772z" />
    <glyph glyph-name="t_t.liga" unicode="tt" horiz-adv-x="1199" vert-adv-y="2130" 
d="M583 50l-8 -50q-113 6 -178 88.5t-47 196.5l101 635h-180l8 50h180l66 420h50l-66 -420h449l66 420h50l-66 -420h200l-8 -50h-200l-101 -635q-15 -94 38 -161.5t145 -73.5l-8 -50q-113 6 -178 88.5t-47 196.5l101 635h-449l-101 -635q-15 -94 38 -161.5t145 -73.5z" />
    <glyph glyph-name=".notdef" horiz-adv-x="1428" vert-adv-y="2130" 
d="M1415 1396l-222 -1402h-960l222 1402h960zM1313 1340h-774l295 -584zM1291 1214l-424 -519l260 -521l26 7l162 1026zM495 1203l-162 -1020l24 -7l424 519l-260 516zM1109 52l-293 582l-479 -582h772z" />
    <glyph glyph-name=".null" horiz-adv-x="0" vert-adv-y="0" 
 />
    <glyph glyph-name="nonmarkingreturn" horiz-adv-x="682" 
 />
    <glyph glyph-name="CR" unicode="&#xd;" horiz-adv-x="328" vert-adv-y="2130" 
 />
    <glyph glyph-name="space" unicode=" " horiz-adv-x="560" vert-adv-y="2130" 
 />
    <glyph glyph-name="exclam" unicode="!" horiz-adv-x="464" vert-adv-y="2130" 
d="M399 857l-95 -497h-30l63 497l84 533h62zM232 0q-20 0 -32 14.5t-8 33.5q3 20 19.5 34t35.5 14q20 0 32 -14.5t9 -33.5q-4 -20 -20.5 -34t-35.5 -14z" />
    <glyph glyph-name="quotedbl" unicode="&#x22;" horiz-adv-x="568" vert-adv-y="2130" 
d="M449 1390l-39 -250h-50l39 250h50zM609 1390l-39 -250h-50l39 250h50z" />
    <glyph glyph-name="numbersign" unicode="#" horiz-adv-x="1670" vert-adv-y="2130" 
d="M654 420l-113 -420h-50l113 420h-398l12 50h399l121 448h-398l13 50h399l115 422h50l-115 -422h430l115 422h50l-115 -422h400l-13 -50h-401l-121 -448h400l-12 -50h-401l-113 -420h-50l113 420h-430zM1218 918h-430l-121 -448h430z" />
    <glyph glyph-name="dollar" unicode="$" horiz-adv-x="1290" vert-adv-y="2130" 
d="M664 -31l-31 -194h-50l31 194q-144 3 -258 53t-174 134t-50 184h54q-12 -132 113.5 -224.5t322.5 -96.5l107 675q-242 41 -353 132t-89 231q25 155 181 257.5t376 106.5l31 193h50l-31 -192q130 -6 232 -54t155 -126t44 -170h-53q10 120 -100 206t-286 93l-100 -633
q255 -43 372.5 -140t94.5 -243q-26 -162 -190.5 -270.5t-398.5 -115.5zM737 744l99 627q-196 -4 -335 -92t-161 -222q-19 -119 82.5 -199t314.5 -114zM778 688l-106 -670q209 8 357.5 102.5t170.5 234.5q20 126 -86.5 210t-335.5 123z" />
    <glyph glyph-name="percent" unicode="%" horiz-adv-x="1530" vert-adv-y="2130" 
d="M1605 1390l-1394 -1390h-66l1394 1390h66zM521 940q-93 0 -148.5 66t-40.5 159q14 93 90.5 159t169.5 66t148.5 -66t41.5 -159q-15 -93 -91.5 -159t-169.5 -66zM529 990q72 0 131.5 51.5t71.5 123.5q11 72 -32.5 123.5t-115.5 51.5t-131.5 -51.5t-70.5 -123.5
q-12 -72 31.5 -123.5t115.5 -51.5zM1158 0q-93 0 -148.5 66t-40.5 159q14 93 90.5 159t169.5 66t148.5 -66t41.5 -159q-15 -93 -91.5 -159t-169.5 -66zM1166 50q72 0 131.5 51.5t71.5 123.5q11 72 -32.5 123.5t-115.5 51.5t-131.5 -51.5t-70.5 -123.5q-12 -72 31.5 -123.5
t115.5 -51.5z" />
    <glyph glyph-name="ampersand" unicode="&#x26;" horiz-adv-x="1366" vert-adv-y="2130" 
d="M646 -11q-77 0 -143 16q-132 32 -193.5 117t-42.5 204q36 234 367 388l7 21q-85 101 -117 180t-19 161q22 135 134.5 224t266.5 89q98 0 170.5 -38.5t106.5 -113.5q40 -97 3 -197.5t-133 -176.5q-109 -85 -310 -150l419 -438q27 23 72 91.5t71 135.5h53
q-55 -148 -161 -264l187 -196l-78 -3l-147 158q-103 -101 -237 -154.5t-276 -53.5zM708 736l175 75q224 94 252 275q19 119 -47.5 189t-192.5 70q-129 0 -218 -73t-110 -202q-9 -60 5 -111t62 -122q31 -48 74 -101zM642 33q133 0 261 52.5t222 146.5l-433 459
q-167 -66 -255 -152t-107 -203q-22 -139 61.5 -221t250.5 -82z" />
    <glyph glyph-name="quotesingle" unicode="'" horiz-adv-x="402" vert-adv-y="2130" 
d="M475 1389l-127 -227h-55l104 227h78z" />
    <glyph glyph-name="parenleft" unicode="(" horiz-adv-x="550" vert-adv-y="2130" 
d="M409 -228l-2 -10q-76 12 -123 143.5t-51.5 334.5t32.5 455q38 242 110.5 453t160 339.5t167.5 140.5l-2 -10q-69 -13 -144 -138t-139 -332t-103 -453t-40.5 -453t33.5 -332t101 -138z" />
    <glyph glyph-name="parenright" unicode=")" horiz-adv-x="550" vert-adv-y="2130" 
d="M67 -238l2 10q69 13 144 138t139 332t103 453t40.5 453t-33.5 332t-101 138l2 10q76 -12 123 -143.5t51.5 -334.5t-32.5 -455q-38 -242 -110.5 -453t-160 -339.5t-167.5 -140.5z" />
    <glyph glyph-name="asterisk" unicode="*" horiz-adv-x="708" vert-adv-y="2130" 
d="M556 1171l-25 -159h-34l25 159l-149 -79l-12 29l149 80l-124 80l21 29l125 -79l25 159h34l-25 -159l149 79l13 -29l-150 -80l125 -80l-22 -29z" />
    <glyph glyph-name="plus" unicode="+" horiz-adv-x="1064" vert-adv-y="2130" 
d="M650 590l-57 -364h-50l57 364h-364l8 50h364l58 364h50l-58 -364h364l-8 -50h-364z" />
    <glyph glyph-name="comma" unicode="," horiz-adv-x="428" vert-adv-y="2130" 
d="M285 107l-127 -227h-55l104 227h78z" />
    <glyph glyph-name="hyphen" unicode="-" horiz-adv-x="988" vert-adv-y="2130" 
d="M893 570l-8 -50h-618l8 50h618z" />
    <glyph glyph-name="period" unicode="." horiz-adv-x="428" vert-adv-y="2130" 
d="M214 7q-19 0 -31 14t-9 34t19.5 34t35.5 14q20 0 32 -14.5t9 -33.5t-19.5 -33.5t-36.5 -14.5z" />
    <glyph glyph-name="slash" unicode="/" horiz-adv-x="868" vert-adv-y="2130" 
d="M968 1470l-796 -1550h-54l796 1550h54z" />
    <glyph glyph-name="zero" unicode="0" horiz-adv-x="1400" vert-adv-y="2130" 
d="M700 0q-109 0 -197 35.5t-145 99t-92.5 151t-41 190.5t10.5 218q23 144 80.5 269t144 220t205.5 150t255 55q109 0 197 -35.5t145 -99t92.5 -151t41 -190.5t-10.5 -218q-23 -144 -80.5 -269t-144 -220t-205.5 -150t-255 -55zM708 48q126 0 236 52t188 141.5t130 205
t73 247.5q14 105 10.5 200t-35.5 176.5t-83.5 141.5t-132 94t-182.5 34q-126 0 -236 -52t-188 -141.5t-130 -205t-73 -247.5q-14 -105 -10.5 -200t35.5 -176.5t83.5 -141.5t132 -94t182.5 -34z" />
    <glyph glyph-name="one" unicode="1" horiz-adv-x="612" vert-adv-y="2130" 
d="M707 1390l-220 -1390h-50l212 1339l-304 -213l-28 35l330 229h60z" />
    <glyph glyph-name="two" unicode="2" horiz-adv-x="1238" vert-adv-y="2130" 
d="M1121 49l-8 -49h-988l10 64q9 55 29.5 105.5t55 96.5t71 85t90.5 79t98 70t110 66t110.5 59t114.5 58q205 102 256 134q103 64 136 138q13 30 19 67q13 79 -15.5 141.5t-86.5 100t-132 56.5t-158 19q-112 0 -213.5 -31.5t-178.5 -99t-98 -160.5h-50q22 108 106 186.5
t197 115t241 37.5q99 1 183 -21.5t147 -65.5t92.5 -114.5t15.5 -162.5q-19 -122 -108 -191.5t-342 -195.5l-34 -17q-53 -26 -84.5 -42.5t-85.5 -46t-88.5 -51.5t-83 -55t-80 -62t-67 -67.5t-58 -75t-39.5 -80.5t-22 -90h938z" />
    <glyph glyph-name="three" unicode="3" horiz-adv-x="1320" vert-adv-y="2130" 
d="M662 13q-232 0 -364.5 97.5t-114.5 254.5h50q-14 -138 105.5 -222t329.5 -84q217 0 365.5 88.5t170.5 227.5q10 64 -11 122t-70 104t-134.5 72.5t-195.5 24.5l-105 -2l6 35l102 -2q206 -4 339 88t153 221q21 133 -94 217.5t-322 84.5q-202 0 -342 -80.5t-168 -211.5h-47
q31 149 187 242t376 93q226 0 353.5 -96.5t104.5 -246.5q-19 -117 -120 -209.5t-225 -114.5q145 -38 214 -126.5t50 -208.5q-17 -108 -98 -192t-210 -130t-285 -46z" />
    <glyph glyph-name="four" unicode="4" horiz-adv-x="1376" vert-adv-y="2130" 
d="M1070 348l-55 -348h-50l55 348h-840l9 59l988 983h58l-157 -992h236l-8 -50h-236zM1028 398l147 928l-926 -928h779z" />
    <glyph glyph-name="five" unicode="5" horiz-adv-x="1286" vert-adv-y="2130" 
d="M626 0h-27q-184 14 -294.5 111.5t-118.5 253.5h52q13 -128 111.5 -208t259.5 -93h27q217 0 368.5 110t179.5 288q28 177 -88 287t-332 111q-129 0 -238 -41t-185 -119h-75l199 690h824l-8 -49h-784l-151 -565q79 69 190.5 106.5t235.5 36.5q107 0 197.5 -29.5t156.5 -84
t96 -142t13 -196.5q-33 -209 -202 -338t-407 -129z" />
    <glyph glyph-name="six" unicode="6" horiz-adv-x="1310" vert-adv-y="2130" 
d="M650 3q-233 2 -357.5 128t-93.5 323l38 243q55 349 211 521t416 172h1q339 0 435 -267h-54q-93 219 -388 219h-1q-110 0 -199 -34.5t-148.5 -90.5t-105 -140.5t-71.5 -172t-44 -196.5l-8 -46q105 123 228 179t290 56q236 0 362.5 -123t95.5 -320q-32 -200 -201 -326.5
t-406 -124.5zM666 64q211 0 362 109t179 281q27 172 -89 280t-331 108q-208 0 -359.5 -109t-178.5 -280q-28 -172 88 -280.5t329 -108.5z" />
    <glyph glyph-name="seven" unicode="7" horiz-adv-x="1280" vert-adv-y="2130" 
d="M1365 1328l-795 -1328h-55l802 1340h-980l8 50h1030z" />
    <glyph glyph-name="eight" unicode="8" horiz-adv-x="1320" vert-adv-y="2130" 
d="M659 1q-237 0 -369 103t-106 270q21 128 126.5 216.5t273.5 122.5q-144 28 -217.5 111.5t-54.5 206.5q25 157 182 255t384 98t354 -97.5t103 -252.5q-20 -126 -127 -212t-253 -110q152 -29 235.5 -119.5t63.5 -221.5q-26 -164 -191.5 -267t-403.5 -103zM775 727h21
q197 0 333.5 85t157.5 219q22 138 -92.5 223.5t-322.5 85.5t-349.5 -85.5t-163.5 -223.5q-22 -137 93 -220.5t323 -83.5zM668 48q217 0 365 89.5t171 233.5q22 142 -93 230t-320 88h-22q-218 0 -365.5 -87t-169.5 -231q-23 -144 97 -233.5t337 -89.5z" />
    <glyph glyph-name="nine" unicode="9" horiz-adv-x="1308" vert-adv-y="2130" 
d="M666 0h-1q-339 0 -435 267h54q93 -219 389 -219h1q110 0 198.5 34.5t148.5 90.5t105 140.5t71 172t44 196.5l8 46q-105 -123 -228 -179t-290 -56q-236 0 -362.5 123t-95.5 320q32 200 201 326.5t406 124.5q234 -2 358.5 -128t92.5 -323l-38 -243q-55 -349 -211 -521
t-416 -172zM743 548q208 0 359.5 109t178.5 280q28 172 -88 280.5t-329 108.5q-211 0 -362 -109t-179 -281q-27 -172 89 -280t331 -108z" />
    <glyph glyph-name="colon" unicode=":" horiz-adv-x="428" vert-adv-y="2130" 
d="M325 713q-20 0 -32 14.5t-8 33.5q3 20 19.5 34t35.5 14q20 0 32 -14.5t9 -33.5q-4 -20 -20.5 -34t-35.5 -14zM212 0q-20 0 -32 14.5t-8 33.5q3 20 19.5 34t35.5 14q20 0 32 -14.5t9 -33.5q-4 -20 -20.5 -34t-35.5 -14z" />
    <glyph glyph-name="semicolon" unicode=";" horiz-adv-x="428" vert-adv-y="2130" 
d="M325 713q-20 0 -32 14.5t-8 33.5q3 20 19.5 34t35.5 14q20 0 32 -14.5t9 -33.5q-4 -20 -20.5 -34t-35.5 -14zM272 107l-127 -227h-55l104 227h78z" />
    <glyph glyph-name="less" unicode="&#x3c;" horiz-adv-x="994" vert-adv-y="2130" 
d="M251 609l605 -363l-9 -56l-637 384l11 72l759 384l-9 -56z" />
    <glyph glyph-name="equal" unicode="=" horiz-adv-x="1084" vert-adv-y="2130" 
d="M1018 800l-8 -50h-698l8 50h698zM967 480l-8 -50h-698l8 50h698z" />
    <glyph glyph-name="greater" unicode="&#x3e;" horiz-adv-x="994" vert-adv-y="2130" 
d="M977 646l-11 -72l-759 -384l9 56l719 363l-604 365l9 56z" />
    <glyph glyph-name="question" unicode="?" horiz-adv-x="1190" vert-adv-y="2130" 
d="M590 386l-18 -113h-52l19 113q8 48 17.5 78t19.5 51.5t34 40.5t45 31.5t69 38.5q96 51 175 100q137 86 205 164.5t82 163.5q22 138 -90 228t-303 90q-179 0 -302 -81.5t-152 -218.5h-50q31 158 171.5 254t338.5 96q212 0 337 -105t100 -262q-33 -207 -345 -392
q-68 -40 -144 -78q-74 -37 -94 -55q-47 -42 -63 -144zM502 0q-20 0 -32 14.5t-8 33.5q3 20 19.5 34t35.5 14q20 0 32 -14.5t9 -33.5q-4 -20 -20.5 -34t-35.5 -14z" />
    <glyph glyph-name="at" unicode="@" horiz-adv-x="1734" vert-adv-y="2130" 
d="M871 -32h-2q-147 0 -272 57.5t-207 155t-118 232t-13 282.5q24 148 102.5 282.5t191.5 232t256 155t290 57.5q198 0 353.5 -99.5t224.5 -272.5q67 -166 36 -355l-26 -164q-15 -94 -85 -161t-158 -73q-66 -5 -113 28t-63 96l-22 2q-60 -66 -150 -101t-193 -33
q-162 3 -258 89.5t-76 211.5l34 215q20 123 145.5 212t273.5 89q93 0 172 -38t122 -105l26 8l14 90h50l-91 -563q-11 -71 24.5 -114t102.5 -39q72 4 127.5 57t67.5 129l26 164q29 177 -33 331q-64 158 -207.5 252t-330.5 94q-137 0 -271 -53.5t-238.5 -144t-178 -216
t-95.5 -263.5q-22 -137 12 -262.5t110 -216.5t193 -144.5t255 -53.5q225 0 422 133l-10 -61q-200 -122 -420 -122zM912 338q140 -3 242.5 67.5t127.5 188.5l35 221q10 101 -75 171t-218 70q-136 0 -245 -73.5t-126 -177.5l-34 -215q-16 -103 66.5 -175.5t226.5 -76.5z" />
    <glyph glyph-name="A" unicode="A" horiz-adv-x="1556" vert-adv-y="2130" 
d="M461 431l-272 -431h-55l864 1388l424 -1388h-55l-136 431h-770zM1219 496l-239 781l-485 -781h724z" />
    <glyph glyph-name="B" unicode="B" horiz-adv-x="1382" vert-adv-y="2130" 
d="M896 0h-771l220 1390h721q150 0 239 -105t65 -254q-17 -113 -94.5 -202t-176.5 -121q109 -20 172 -121.5t43 -227.5q-24 -149 -146 -254t-272 -105zM1058 1340h-671l-98 -620h671q129 0 234.5 91t125.5 220q21 129 -55.5 219t-206.5 90zM1002 670h-721l-98 -620h721
q130 0 235 90t125 219t-56.5 220t-205.5 91z" />
    <glyph glyph-name="C" unicode="C" horiz-adv-x="1589" vert-adv-y="2130" 
d="M847 -32q-148 0 -273.5 57.5t-207.5 155t-118.5 232t-12.5 282.5t102.5 282.5t191.5 232t256.5 155t291.5 57.5q185 0 332 -86.5t223 -239.5l-45 -29q-72 143 -209.5 224t-308.5 81q-138 0 -271.5 -53.5t-238.5 -144t-178.5 -216t-95.5 -263.5t12 -263.5t110 -216
t193 -144t255 -53.5q170 0 333 81t280 224l36 -29q-125 -153 -299 -239.5t-358 -86.5z" />
    <glyph glyph-name="D" unicode="D" horiz-adv-x="1440" vert-adv-y="2130" 
d="M620 0h-495l220 1390h495q141 0 261.5 -55t198.5 -148t112.5 -222t12.5 -270q-30 -189 -148.5 -349t-293 -253t-363.5 -93zM832 1340h-445l-204 -1290h445q175 0 337.5 86.5t272 235t137.5 323.5t-35 323.5t-198 235t-310 86.5z" />
    <glyph glyph-name="E" unicode="E" horiz-adv-x="1287" vert-adv-y="2130" 
d="M1170 50l-8 -50h-1037l220 1390h1037l-8 -50h-987l-98 -620h927l-8 -50h-927l-98 -620h987z" />
    <glyph glyph-name="F" unicode="F" horiz-adv-x="1287" vert-adv-y="2130" 
d="M281 670l-106 -670h-50l220 1390h1037l-8 -50h-987l-98 -620h927l-8 -50h-927z" />
    <glyph glyph-name="G" unicode="G" horiz-adv-x="1589" vert-adv-y="2130" 
d="M847 -32q-148 0 -273.5 57.5t-207.5 155t-118.5 232t-12.5 282.5t102.5 282.5t191.5 232t256.5 155t291.5 57.5q185 0 332 -86.5t223 -239.5l-45 -29q-72 143 -209.5 224t-308.5 81q-138 0 -271.5 -53.5t-238.5 -144t-178.5 -216t-95.5 -263.5t12 -263.5t110 -216
t193 -144t255 -53.5q168 0 328.5 78.5t278.5 218.5l53 337h-614l8 50h664l-62 -400q-125 -156 -301.5 -245t-362.5 -89z" />
    <glyph glyph-name="H" unicode="H" vert-adv-y="2130" 
d="M281 670l-106 -670h-50l220 1390h50l-106 -670h1022l106 670h50l-220 -1390h-50l106 670h-1022z" />
    <glyph glyph-name="I" unicode="I" horiz-adv-x="300" vert-adv-y="2130" 
d="M395 1390l-220 -1390h-50l220 1390h50z" />
    <glyph glyph-name="J" unicode="J" horiz-adv-x="1287" vert-adv-y="2130" 
d="M596 -32q-143 0 -257 67.5t-173 187.5l47 25q55 -108 158.5 -169t232.5 -61q139 0 267.5 68.5t215.5 186t109 256.5l136 861h50l-136 -861q-24 -152 -119.5 -281.5t-237 -204.5t-293.5 -75z" />
    <glyph glyph-name="K" unicode="K" horiz-adv-x="1344" vert-adv-y="2130" 
d="M251 481l-76 -481h-50l220 1390h50l-133 -841l1057 841h77l-671 -533l480 -857h-61l-460 824z" />
    <glyph glyph-name="L" unicode="L" horiz-adv-x="1287" vert-adv-y="2130" 
d="M1170 50l-8 -50h-1037l220 1390h50l-212 -1340h987z" />
    <glyph glyph-name="M" unicode="M" horiz-adv-x="1629" vert-adv-y="2130" 
d="M363 1201l-188 -1201h-50l220 1388l484 -1299l895 1299l-220 -1388h-50l192 1201l-831 -1201z" />
    <glyph glyph-name="N" unicode="N" vert-adv-y="2130" 
d="M373 1251l-198 -1251h-50l220 1388l872 -1260l200 1262h50l-220 -1390z" />
    <glyph glyph-name="O" unicode="O" horiz-adv-x="1704" vert-adv-y="2130" 
d="M847 -32q-148 0 -273.5 57.5t-207.5 155t-118.5 232t-12.5 282.5t102.5 282.5t191.5 232t256.5 155t291.5 57.5t273.5 -57.5t207.5 -155t118.5 -232t12.5 -282.5t-102.5 -282.5t-191.5 -232t-256.5 -155t-291.5 -57.5zM855 18q138 0 271.5 53.5t238.5 144t178.5 216
t95.5 263.5t-12 263.5t-110 216t-193 144t-255 53.5t-271.5 -53.5t-238.5 -144t-178.5 -216t-95.5 -263.5t12 -263.5t110 -216t193 -144t255 -53.5z" />
    <glyph glyph-name="P" unicode="P" horiz-adv-x="1382" vert-adv-y="2130" 
d="M256 509l-81 -509h-50l220 1390h691q183 0 291.5 -128.5t79.5 -311.5q-19 -120 -93.5 -222t-185.5 -160.5t-231 -58.5h-641zM1028 1340h-641l-123 -781h641q162 0 294 114.5t158 276.5q26 161 -70.5 275.5t-258.5 114.5z" />
    <glyph glyph-name="Q" unicode="Q" horiz-adv-x="1704" vert-adv-y="2130" 
d="M847 -32q-148 0 -273.5 57.5t-207.5 155t-118.5 232t-12.5 282.5t102.5 282.5t191.5 232t256.5 155t291.5 57.5t273.5 -57.5t207.5 -155t118.5 -232t12.5 -282.5q-43 -275 -260 -483l149 -175l-43 -37l-147 175q-119 -100 -258.5 -153.5t-282.5 -53.5zM855 18
q133 0 263 50t239 143l-146 174l41 37l147 -175q97 92 158.5 207.5t81.5 240.5q22 138 -12 263.5t-110 216t-193 144t-255 53.5t-271.5 -53.5t-238.5 -144t-178.5 -216t-95.5 -263.5t12 -263.5t110 -216t193 -144t255 -53.5z" />
    <glyph glyph-name="R" unicode="R" horiz-adv-x="1382" vert-adv-y="2130" 
d="M256 510l-81 -510h-50l220 1390h691q183 0 291.5 -129t79.5 -312q-26 -166 -155 -290t-297 -145l269 -514h-60l-267 510h-641zM1028 1340h-641l-123 -780h675q155 14 274.5 125.5t143.5 263.5q26 162 -70.5 276.5t-258.5 114.5z" />
    <glyph glyph-name="S" unicode="S" horiz-adv-x="1369" vert-adv-y="2130" 
d="M687 -32q-153 0 -273 48.5t-182.5 134t-52.5 189.5h54q-11 -138 120.5 -230t340.5 -92q140 0 261 43t199 120.5t93 173.5q21 130 -92.5 214.5t-357.5 122.5q-253 39 -369.5 130.5t-93.5 234.5q17 104 97 188t204 130.5t267 46.5q141 0 252 -45.5t168.5 -126t49.5 -178.5
h-53q10 129 -111 214.5t-313 85.5q-195 0 -340.5 -89t-166.5 -224q-19 -123 87 -204t326 -113q271 -40 397 -137.5t102 -248.5q-26 -167 -201.5 -277.5t-411.5 -110.5z" />
    <glyph glyph-name="T" unicode="T" horiz-adv-x="1440" vert-adv-y="2130" 
d="M957 1340l-212 -1340h-50l212 1340h-570l8 50h1190l-8 -50h-570z" />
    <glyph glyph-name="U" unicode="U" vert-adv-y="2130" 
d="M681 -32q-152 0 -269.5 75t-172 204.5t-30.5 281.5l136 861h50l-136 -861q-22 -139 27.5 -256.5t156.5 -186t246 -68.5t267.5 68.5t215.5 186t109 256.5l136 861h50l-136 -861q-24 -152 -119.5 -281.5t-237 -204.5t-293.5 -75z" />
    <glyph glyph-name="V" unicode="V" horiz-adv-x="1556" vert-adv-y="2130" 
d="M1587 1390h55l-863 -1386l-425 1386h55l390 -1260z" />
    <glyph glyph-name="W" unicode="W" horiz-adv-x="2221" vert-adv-y="2130" 
d="M1584 0l-265 1315l-682 -1315l-283 1388h50l256 -1242l648 1242h45l254 -1242l650 1242h50z" />
    <glyph glyph-name="X" unicode="X" horiz-adv-x="1512" vert-adv-y="2130" 
d="M859 653l-646 -653h-71l689 695l-469 695h71l440 -653l646 653h71l-689 -695l469 -695h-71z" />
    <glyph glyph-name="Y" unicode="Y" horiz-adv-x="1516" vert-adv-y="2130" 
d="M869 542l-86 -542h-50l86 542l-460 848h63l429 -802l683 802h63z" />
    <glyph glyph-name="Z" unicode="Z" horiz-adv-x="1504" vert-adv-y="2130" 
d="M1321 50l-8 -50h-1171l1326 1340h-1045l8 50h1151l-1326 -1340h1065z" />
    <glyph glyph-name="bracketleft" unicode="[" horiz-adv-x="566" vert-adv-y="2130" 
d="M455 -190l-8 -50h-290l296 1870h290l-8 -50h-240l-280 -1770h240z" />
    <glyph glyph-name="backslash" unicode="\" horiz-adv-x="868" vert-adv-y="2130" 
d="M420 1470l304 -1550h-54l-304 1550h54z" />
    <glyph glyph-name="bracketright" unicode="]" horiz-adv-x="566" vert-adv-y="2130" 
d="M629 1630l-296 -1870h-290l8 50h240l280 1770h-240l8 50h290z" />
    <glyph glyph-name="asciicircum" unicode="^" horiz-adv-x="1028" vert-adv-y="2130" 
d="M728 1353l-362 -501h-57l388 538h74l218 -538h-57z" />
    <glyph glyph-name="underscore" unicode="_" horiz-adv-x="1184" vert-adv-y="2130" 
d="M1013 -50l-8 -50h-858l8 50h858z" />
    <glyph glyph-name="grave" unicode="`" horiz-adv-x="812" vert-adv-y="2130" 
d="M548 1447l224 -208l-38 -38l-223 208z" />
    <glyph glyph-name="a" unicode="a" horiz-adv-x="1013" vert-adv-y="2130" 
d="M508 -20q-105 0 -188 40t-123.5 108.5t-27.5 148.5q13 84 80.5 154.5t171 110.5t217.5 40h291l14 85q12 119 -60 189t-214 67q-133 -2 -238 -68.5t-131 -168.5h-50q31 127 151.5 205t274.5 81q170 4 254 -86t59 -246l-101 -640h-51l22 136q-152 -156 -351 -156zM512 30
q132 0 239 70t129 171l41 261h-291q-154 0 -274 -73.5t-137 -179.5q-16 -102 70 -175.5t223 -73.5z" />
    <glyph glyph-name="b" unicode="b" horiz-adv-x="1141" vert-adv-y="2130" 
d="M572 -20q-135 0 -229 77t-126 207l-42 -264h-50l220 1390h50l-108 -684q73 130 191.5 207t253.5 77q189 0 292 -144t69 -361q-23 -142 -98.5 -258t-187 -181.5t-235.5 -65.5zM580 30q170 0 304 130t165 325t-62 325t-263 130t-304 -130t-165 -325t62 -325t263 -130z" />
    <glyph glyph-name="c" unicode="c" horiz-adv-x="1120" vert-adv-y="2130" 
d="M597 -20q-204 0 -316.5 144t-78.5 361q35 217 193 361t362 144q120 0 213.5 -54.5t142.5 -152.5l-46 -28q-44 87 -128 136t-190 49q-182 0 -324 -130t-173 -325t70 -325t283 -130q106 0 205.5 49t170.5 136l38 -28q-80 -98 -191 -152.5t-231 -54.5z" />
    <glyph glyph-name="d" unicode="d" horiz-adv-x="1141" vert-adv-y="2130" 
d="M563 -20q-189 0 -292 144t-69 361q23 142 98.5 258t187 181.5t235.5 65.5q135 0 229 -77t126 -207l108 684h50l-220 -1390h-50l42 264q-73 -130 -191.5 -207t-253.5 -77zM571 30q170 0 304 130t165 325t-62 325t-263 130t-304 -130t-165 -325t62 -325t263 -130z" />
    <glyph glyph-name="e" unicode="e" horiz-adv-x="1199" vert-adv-y="2130" 
d="M597 -20q-204 0 -316.5 144t-78.5 361q35 217 192.5 361t362.5 144q133 0 230.5 -64.5t141 -176.5t24.5 -249h-899q-37 -200 64 -335t287 -135q140 0 261.5 80.5t186.5 217.5l45 -16q-72 -152 -208 -242t-293 -90zM266 550h841q7 172 -93 281t-265 109
q-166 0 -301.5 -109t-181.5 -281z" />
    <glyph glyph-name="f" unicode="f" horiz-adv-x="680" vert-adv-y="2130" 
d="M481 920l-146 -920h-50l146 920h-160l8 50h160l21 135q18 114 109.5 196.5t205.5 88.5l-8 -50q-94 -6 -168 -73.5t-89 -161.5l-21 -135h193l-8 -50h-193z" />
    <glyph glyph-name="g" unicode="g" horiz-adv-x="1133" vert-adv-y="2130" 
d="M521 -430h-1q-146 0 -241 67.5t-119 188.5h53q27 -98 109.5 -152t206.5 -54q172 0 290 99t145 266l43 276q-73 -130 -191.5 -207t-253.5 -77q-124 0 -214.5 65.5t-129.5 181t-17 258.5q23 142 98.5 258t187 181.5t235.5 65.5q135 0 229 -77t126 -207l43 269h51l-155 -977
q-31 -194 -165.5 -309.5t-329.5 -115.5zM570 27q170 0 304 130t165 325t-62 325t-263 130t-303.5 -130t-165.5 -325q-31 -195 62 -325t263 -130z" />
    <glyph glyph-name="h" unicode="h" horiz-adv-x="973" vert-adv-y="2130" 
d="M276 629l-100 -629h-51l220 1390h50l-91 -577q61 81 151 129t188 48q151 0 239.5 -105.5t65.5 -255.5l-100 -629h-50l100 629q20 129 -56.5 220t-205.5 91q-130 0 -235.5 -91t-125.5 -220l-1 -2z" />
    <glyph glyph-name="i" unicode="i" horiz-adv-x="346" vert-adv-y="2130" 
d="M378 1294q-20 0 -32 14.5t-8 33.5q3 20 19.5 34t35.5 14q20 0 32 -14.5t9 -33.5q-4 -20 -20.5 -34t-35.5 -14zM352 970l-154 -970h-50l154 970h50z" />
    <glyph glyph-name="j" unicode="j" horiz-adv-x="687" vert-adv-y="2130" 
d="M719 1294q-20 0 -32 14.5t-8 33.5q3 20 19.5 34t35.5 14q20 0 32 -14.5t9 -33.5q-4 -20 -20.5 -34t-35.5 -14zM57 -430l9 50q166 4 279 102.5t141 262.5l156 987h51l-155 -977q-30 -190 -160.5 -305t-320.5 -120z" />
    <glyph glyph-name="k" unicode="k" horiz-adv-x="987" vert-adv-y="2130" 
d="M225 314l-50 -315h-50l220 1391h50l-160 -1010l702 590h58l-470 -402l321 -569h-55l-300 541z" />
    <glyph glyph-name="l" unicode="l" horiz-adv-x="300" vert-adv-y="2130" 
d="M395 1390l-220 -1390h-50l220 1390h50z" />
    <glyph glyph-name="m" unicode="m" horiz-adv-x="1494" vert-adv-y="2130" 
d="M267 629l-100 -629h-42l154 970h42l-25 -157q61 85 141 131t171 46q104 0 170 -60t89 -174q54 108 143.5 171t191.5 63q136 0 213 -105t54 -256l-100 -629h-42l100 629q20 130 -47 222.5t-182 92.5q-111 0 -206 -86t-121 -211l-102 -647h-43l102 647q14 124 -53 210.5
t-178 86.5q-116 0 -213 -92.5t-117 -222.5z" />
    <glyph glyph-name="n" unicode="n" horiz-adv-x="973" vert-adv-y="2130" 
d="M276 629l-100 -629h-51l153 968h50l-24 -155q61 81 151 129t188 48q151 0 239.5 -105.5t65.5 -255.5l-100 -629h-50l100 629q20 129 -56.5 220t-205.5 91q-130 0 -235 -91t-125 -220z" />
    <glyph glyph-name="o" unicode="o" horiz-adv-x="1200" vert-adv-y="2130" 
d="M597 -20q-204 0 -316.5 144t-78.5 361q35 217 193 361t362 144t316.5 -144t78.5 -361q-35 -217 -193 -361t-362 -144zM605 30q182 0 324 130t173 325t-70 325t-283 130t-324 -130t-173 -325t70 -325t283 -130z" />
    <glyph glyph-name="p" unicode="p" horiz-adv-x="1141" vert-adv-y="2130" 
d="M216 261l-108 -684h-50l220 1390h50l-42 -264q73 130 191.5 207t253.5 77q189 0 292 -144t69 -361t-183 -361t-338 -144q-135 0 -229 77t-126 207zM579 27q170 0 304 130t165 325t-62 325t-263 130t-303.5 -130t-165.5 -325q-31 -195 62 -325t263 -130z" />
    <glyph glyph-name="q" unicode="q" horiz-adv-x="1141" vert-adv-y="2130" 
d="M1169 967l-220 -1390h-50l108 684q-73 -130 -191.5 -207t-253.5 -77q-124 0 -214.5 65.5t-129.5 181t-17 258.5q23 142 98.5 258t187 181.5t235.5 65.5q135 0 229 -77t126 -207l42 264h50zM570 27q170 0 304 130t165 325t-62 325t-263 130t-303.5 -130t-165.5 -325
q-31 -195 62 -325t263 -130z" />
    <glyph glyph-name="r" unicode="r" horiz-adv-x="685" vert-adv-y="2130" 
d="M276 629l-100 -629h-51l153 968h50l-24 -155q61 81 151 129t188 48q35 0 73 -8l-9 -51q-33 9 -71 9q-130 0 -235 -91t-125 -220z" />
    <glyph glyph-name="s" unicode="s" horiz-adv-x="1052" vert-adv-y="2130" 
d="M525 -20q-168 0 -270 73t-92 185h52q-5 -67 44 -116t121 -70.5t152 -21.5q61 0 123 13.5t118 40t95 71.5t48 102q5 35 -1 63t-32.5 50t-44 35.5t-69.5 29t-71.5 20.5t-85.5 19q-5 1 -8 2q-75 16 -118 27.5t-94.5 32.5t-76.5 44.5t-39.5 60t-6.5 84.5q19 119 135 192
t277 73q156 0 250.5 -68.5t85.5 -173.5h-52q5 84 -76 138t-210 54q-81 0 -155.5 -21t-133 -71t-69.5 -120q-5 -29 1 -53t16.5 -41.5t34.5 -32.5t43.5 -24.5t57.5 -20t62 -16t70 -14.5q53 -11 87.5 -19t78.5 -21.5t72 -27t57 -33.5t44 -43t22 -54t1 -68q-19 -124 -144.5 -202
t-298.5 -78z" />
    <glyph glyph-name="t" unicode="t" horiz-adv-x="700" vert-adv-y="2130" 
d="M583 50l-8 -50q-113 6 -178 88.5t-47 196.5l101 635h-180l8 50h180l66 420h50l-66 -420h200l-8 -50h-200l-101 -635q-15 -94 38 -161.5t145 -73.5z" />
    <glyph glyph-name="u" unicode="u" horiz-adv-x="973" vert-adv-y="2130" 
d="M484 -21q-151 0 -240 105.5t-65 255.5l99 629h50l-99 -629q-20 -129 56.5 -220t205.5 -91q130 0 235.5 91t125.5 220l99 629h50l-153 -968h-50l25 155q-61 -81 -151 -129t-188 -48z" />
    <glyph glyph-name="v" unicode="v" horiz-adv-x="1148" vert-adv-y="2130" 
d="M1113 970h55l-594 -970l-286 970h55l246 -874z" />
    <glyph glyph-name="w" unicode="w" horiz-adv-x="1546" vert-adv-y="2130" 
d="M1086 0l-166 922l-459 -922l-176 970h43l152 -850l426 850h43l156 -850l422 850h42z" />
    <glyph glyph-name="x" unicode="x" horiz-adv-x="1096" vert-adv-y="2130" 
d="M617 445l-409 -445h-68l455 485l-301 485h68l268 -445l412 445h68l-455 -485l301 -485h-68z" />
    <glyph glyph-name="y" unicode="y" horiz-adv-x="1148" vert-adv-y="2130" 
d="M1168 970l-872 -1400h-42l310 494l-276 906h55l249 -855l521 855h55z" />
    <glyph glyph-name="z" unicode="z" horiz-adv-x="1012" vert-adv-y="2130" 
d="M895 50l-8 -50h-762l9 59l844 861h-667l8 50h722l-10 -59l-843 -861h707z" />
    <glyph glyph-name="braceleft" unicode="{" horiz-adv-x="630" vert-adv-y="2130" 
d="M519 -190l-8 -50h-105q-77 0 -122.5 54.5t-33.5 130.5l94 590q8 54 -26 94.5t-88 40.5h-25l8 50h25q56 0 102 40t54 95l94 590q12 77 75 131t139 54h105l-8 -50h-105q-55 0 -101 -39.5t-55 -95.5l-94 -590q-14 -93 -99 -149l-4 -21q67 -61 53 -150l-94 -590
q-8 -56 25.5 -95.5t88.5 -39.5h105z" />
    <glyph glyph-name="bar" unicode="|" horiz-adv-x="440" vert-adv-y="2130" 
d="M510 1670l-316 -1990h-50l316 1990h50z" />
    <glyph glyph-name="braceright" unicode="}" horiz-adv-x="630" vert-adv-y="2130" 
d="M148 -240h-105l8 50h105q56 0 102 40t54 95l94 590q14 90 99 150l4 21q-67 53 -53 149l94 590q9 55 -24.5 95t-89.5 40h-105l8 50h105q77 0 122.5 -54.5t33.5 -130.5l-94 -590q-8 -56 25.5 -95.5t88.5 -39.5h25l-8 -50h-25q-54 0 -101 -40.5t-55 -94.5l-94 -590
q-12 -77 -75 -131t-139 -54z" />
    <glyph glyph-name="asciitilde" unicode="~" horiz-adv-x="1154" vert-adv-y="2130" 
d="M422 864l-52 -46l-30 35l53 45q56 49 111 68.5t99.5 11.5t79 -28t60.5 -52q120 -139 282 0l53 46l29 -35l-53 -45q-56 -49 -111 -68.5t-99.5 -11.5t-79 28t-60.5 52q-120 139 -282 0z" />
    <glyph glyph-name="exclamdown" unicode="&#xa1;" horiz-adv-x="464" vert-adv-y="2130" 
d="M437 1294q-20 0 -32 14.5t-8 33.5q3 20 19.5 34t35.5 14q20 0 32 -14.5t9 -33.5q-4 -20 -20.5 -34t-35.5 -14zM347 533l-84 -533h-62l84 533l95 497h30z" />
    <glyph glyph-name="cent" unicode="&#xa2;" horiz-adv-x="1094" vert-adv-y="2130" 
d="M590 -19l-19 -121h-50l19 122q-190 15 -290 156t-67 347q32 206 177 347t339 156l20 122h50l-19 -121q115 -1 205.5 -55.5t138.5 -150.5l-46 -28q-44 85 -124.5 134t-181.5 50l-144 -908q102 1 198 50t166 134l38 -28q-79 -96 -186.5 -150.5t-223.5 -55.5zM548 31
l144 908q-173 -16 -301.5 -143t-157.5 -311t59 -311t256 -143z" />
    <glyph glyph-name="sterling" unicode="&#xa3;" horiz-adv-x="1118" vert-adv-y="2130" 
d="M975 50l-8 -50h-810l9 59q99 93 176 210.5t94 229.5q4 25 6 82v19h-190l8 50h176q0 1 -3.5 20t-8.5 46t-6 33q-1 5 -5 26t-5.5 28t-5 26.5t-4.5 29.5t-3 28.5t-2 31.5t-0.5 30t1 33.5t4.5 32.5q27 170 164 288.5t305 118.5q88 0 161 -35.5t121 -100.5l-42 -35
q-41 58 -106 89.5t-142 31.5q-147 0 -267.5 -104t-143.5 -252q-8 -30 -4.5 -79.5t8 -75.5t14.5 -74q19 -93 23 -137h409l-8 -50h-397q1 -48 -6 -96q-21 -130 -97.5 -251t-169.5 -203h755z" />
    <glyph glyph-name="yen" unicode="&#xa5;" horiz-adv-x="1468" vert-adv-y="2130" 
d="M806 296l-47 -296h-50l47 296h-284l8 50h284l42 268h-284l8 50h239l-433 726h63l439 -736l671 736h63l-663 -726h239l-8 -50h-284l-42 -268h284l-8 -50h-284z" />
    <glyph glyph-name="brokenbar" unicode="&#xa6;" horiz-adv-x="468" vert-adv-y="2130" 
d="M524 1670l-126 -790h-50l126 790h50zM333 470l-125 -790h-50l125 790h50z" />
    <glyph glyph-name="dieresis" unicode="&#xa8;" horiz-adv-x="840" vert-adv-y="2130" 
d="M472 1221q-19 0 -31 14t-9 34q3 19 19.5 33.5t36.5 14.5q19 0 31 -14t9 -34q-3 -19 -19.5 -33.5t-36.5 -14.5zM753 1221q-19 0 -31 14t-9 34q3 19 19.5 33.5t36.5 14.5q19 0 31 -14t9 -34q-3 -19 -19.5 -33.5t-36.5 -14.5z" />
    <glyph glyph-name="copyright" unicode="&#xa9;" horiz-adv-x="1630" vert-adv-y="2130" 
d="M815 0q-141 0 -261 55t-198.5 148.5t-113 222t-12.5 269.5t98 269.5t183.5 222t245 148.5t278.5 55t261 -55t198.5 -148.5t113 -222t12.5 -269.5t-98 -269.5t-183.5 -222t-245 -148.5t-278.5 -55zM820 33q180 0 346.5 88.5t279 241t141.5 332.5q21 135 -11.5 257.5
t-107.5 211t-189 141t-249 52.5q-180 0 -346.5 -88.5t-279 -241t-141.5 -332.5q-21 -135 11.5 -257.5t107.5 -211t189 -141t249 -52.5zM873 286q-170 0 -270.5 119.5t-73.5 289.5t165.5 289.5t308.5 119.5q103 0 186.5 -49.5t126.5 -135.5l-31 -20q-39 80 -115 126t-172 46
q-157 0 -284.5 -110t-152.5 -266t68 -266t250 -110q95 0 185.5 45.5t155.5 126.5l25 -20q-70 -86 -169.5 -135.5t-202.5 -49.5z" />
    <glyph glyph-name="ordfeminine" unicode="&#xaa;" horiz-adv-x="584" vert-adv-y="2130" 
d="M439 954q-74 0 -130 43.5t-45 115.5q8 52 52 90.5t96.5 55t102.5 16.5h158l7 46q3 16 -1 40q-8 46 -44 72t-98 26q-76 0 -132.5 -36.5t-71.5 -90.5h-25q17 72 85.5 111.5t149.5 39.5q86 0 129.5 -47t30.5 -129l-54 -342h-25l11 70l-9 3q-34 -38 -85.5 -61t-101.5 -23z
M308 1332l-1 -9h-10l1 9h10zM343 1332l-1 -9h-10l1 9h10zM447 979q55 0 105 24t76 64q16 25 19 42l22 141h-158q-41 0 -87.5 -13.5t-87 -46t-47.5 -76.5q-8 -56 38.5 -95.5t119.5 -39.5zM659 965l-2 -9h-10l2 9h10z" />
    <glyph glyph-name="guillemotleft" unicode="&#xab;" horiz-adv-x="1040" vert-adv-y="1700" 
d="M287 493l293 -348l-41 -35l-322 383l444 383l29 -35zM603 493l293 -348l-41 -35l-322 383l444 383l29 -35z" />
    <glyph glyph-name="logicalnot" unicode="&#xac;" horiz-adv-x="1248" vert-adv-y="2130" 
d="M1156 640l-65 -410h-50l57 360h-808l8 50h858z" />
    <glyph glyph-name="registered" unicode="&#xae;" horiz-adv-x="1630" vert-adv-y="2130" 
d="M815 0q-141 0 -261 55t-198.5 148.5t-113 222t-12.5 269.5t98 269.5t183.5 222t245 148.5t278.5 55t261 -55t198.5 -148.5t113 -222t12.5 -269.5t-98 -269.5t-183.5 -222t-245 -148.5t-278.5 -55zM820 33q180 0 346.5 88.5t279 241t141.5 332.5q21 135 -11.5 257.5
t-107.5 211t-189 141t-249 52.5q-180 0 -346.5 -88.5t-279 -241t-141.5 -332.5q-21 -135 11.5 -257.5t107.5 -211t189 -141t249 -52.5zM645 586l-46 -291h-34l126 800h399q107 0 169.5 -74.5t45.5 -180.5q-15 -95 -88.5 -166.5t-169.5 -83.5l155 -295h-40l-155 291h-362z
M1085 1062h-365l-70 -442h385q88 8 155.5 71t80.5 149q15 94 -39 158t-147 64z" />
    <glyph glyph-name="macron" unicode="&#xaf;" horiz-adv-x="840" vert-adv-y="2130" 
d="M817 1275l-8 -50h-390l8 50h390z" />
    <glyph glyph-name="degree" unicode="&#xb0;" horiz-adv-x="672" vert-adv-y="2130" 
d="M498 1020q-81 0 -129.5 57t-35.5 138q14 81 79.5 138t146.5 57t129 -57t35 -138t-78.5 -138t-146.5 -57zM505 1070q60 0 109.5 42.5t58.5 102.5q10 60 -26 102.5t-96 42.5t-109 -42.5t-59 -102.5q-9 -60 26.5 -102.5t95.5 -42.5z" />
    <glyph glyph-name="plusminus" unicode="&#xb1;" horiz-adv-x="1032" vert-adv-y="2130" 
d="M660 750l-45 -284h-50l45 284h-284l8 50h284l45 284h50l-45 -284h284l-8 -50h-284zM869 276l-8 -50h-618l8 50h618z" />
    <glyph glyph-name="uni00B2" unicode="&#xb2;" horiz-adv-x="497" vert-adv-y="1700" 
d="M584 1008l-6 -33h-352l5 30q13 83 115 151q40 27 93 54q17 9 18 9q0 1 0.5 1t1.5 0.5t2.5 1.5t4.5 2.5t8 3.5l36 18l4 2t5.5 2.5t10.5 5.5q17 9 23.5 13.5t19.5 14.5t20 23t10 29q7 45 -29 72t-100 27q-62 0 -103.5 -26.5t-52.5 -73.5h-34l1 3q10 64 67.5 96.5
t128.5 32.5q70 0 117.5 -32.5t36.5 -100.5q-6 -38 -27 -60t-67 -47l-51 -27q-80 -40 -105 -55q-105 -64 -119 -137h318z" />
    <glyph glyph-name="uni00B3" unicode="&#xb3;" horiz-adv-x="525" vert-adv-y="1700" 
d="M416 975q-76 0 -127.5 34.5t-40.5 104.5l1 3h34l-1 -3q-7 -47 32 -76.5t108 -29.5q70 0 117.5 29.5t55.5 76.5q7 46 -28.5 76t-98.5 30h-49l5 28h49q60 0 102 28.5t50 72.5q7 46 -30 74t-105 28q-66 0 -109 -27.5t-55 -77.5h-32l1 3q7 45 40.5 76.5t74.5 44t87 12.5
q72 0 121.5 -33t39.5 -98q-7 -43 -30.5 -70t-70.5 -44q84 -40 71 -126q-10 -67 -73 -101.5t-139 -34.5z" />
    <glyph glyph-name="acute" unicode="&#xb4;" horiz-adv-x="812" vert-adv-y="2130" 
d="M773 1447l26 -38l-290 -208l-25 38z" />
    <glyph glyph-name="paragraph" unicode="&#xb6;" horiz-adv-x="1198" vert-adv-y="2130" 
d="M1001 1340l-212 -1340h-50l81 510h-179q-90 0 -166 34.5t-126 93.5t-72 140t-8 171q19 120 94 221.5t186 160.5t231 59h429l-220 -1390h-50l212 1340h-150zM649 560h179l123 780h-179q-162 0 -294.5 -114.5t-158.5 -276.5q-25 -162 71 -275.5t259 -113.5z" />
    <glyph glyph-name="periodcentered" unicode="&#xb7;" horiz-adv-x="428" vert-adv-y="2130" 
d="M317 654q-20 0 -32 14.5t-9 33.5t19.5 33.5t36.5 14.5q19 0 31 -14t9 -34t-19.5 -34t-35.5 -14z" />
    <glyph glyph-name="cedilla" unicode="&#xb8;" horiz-adv-x="1160" vert-adv-y="2130" 
d="M454 -320l5 30q56 7 98 50.5t46 99.5h-120l16 100h30l-11 -70h120l-8 -45q-10 -64 -60.5 -111.5t-115.5 -53.5z" />
    <glyph glyph-name="uni00B9" unicode="&#xb9;" horiz-adv-x="294" vert-adv-y="1700" 
d="M453 1466l-76 -483h-33l70 441l-96 -65l-18 23l122 84h31z" />
    <glyph glyph-name="ordmasculine" unicode="&#xba;" horiz-adv-x="685" vert-adv-y="2130" 
d="M487 918q-109 0 -169 77t-42 193q19 115 103.5 192t193.5 77q110 0 170.5 -77t41.5 -192q-18 -116 -103 -193t-195 -77zM491 943q98 0 175 70t93 175t-38 174.5t-152 69.5t-175 -70t-93 -174q-17 -105 37.5 -175t152.5 -70z" />
    <glyph glyph-name="guillemotright" unicode="&#xbb;" horiz-adv-x="1040" vert-adv-y="1700" 
d="M341 876l322 -383l-444 -383l-29 35l403 348l-293 348zM657 876l322 -383l-444 -383l-29 35l403 348l-293 348z" />
    <glyph glyph-name="questiondown" unicode="&#xbf;" horiz-adv-x="1190" vert-adv-y="2130" 
d="M896 1326q-19 0 -31 14t-9 34t19.5 34t35.5 14q20 0 32 -14.5t9 -33.5t-19.5 -33.5t-36.5 -14.5zM614 0q-212 0 -337 105t-100 262q33 207 345 392q62 37 145 78q73 36 94 55q46 42 62 144l18 113h52l-19 -113q-10 -59 -19.5 -91.5t-34 -60t-48 -42t-83.5 -46.5
q-106 -57 -175 -100q-137 -86 -205 -164.5t-82 -163.5q-22 -138 90 -228t303 -90q179 0 302.5 81.5t151.5 218.5h50q-32 -158 -172 -254t-338 -96z" />
    <glyph glyph-name="Agrave" unicode="&#xc0;" horiz-adv-x="1556" vert-adv-y="2130" 
d="M987 1867l224 -208l-38 -38l-223 208zM461 431l-272 -431h-55l864 1388l424 -1388h-55l-136 431h-770zM1219 496l-239 781l-485 -781h724z" />
    <glyph glyph-name="Aacute" unicode="&#xc1;" horiz-adv-x="1556" vert-adv-y="2130" 
d="M1186 1867l26 -38l-290 -208l-25 38zM461 431l-272 -431h-55l864 1388l424 -1388h-55l-136 431h-770zM1219 496l-239 781l-485 -781h724z" />
    <glyph glyph-name="Acircumflex" unicode="&#xc2;" horiz-adv-x="1556" vert-adv-y="2130" 
d="M1231 1643l-170 145l-216 -145l-26 38l252 170l198 -170zM461 431l-272 -431h-55l864 1388l424 -1388h-55l-136 431h-770zM1219 496l-239 781l-485 -781h724z" />
    <glyph glyph-name="Atilde" unicode="&#xc3;" horiz-adv-x="1556" vert-adv-y="2130" 
d="M908 1698l-41 -36l-29 35l41 35q110 95 190 0q52 -60 122 0l41 36l29 -35l-41 -35q-110 -95 -190 0q-52 60 -122 0zM461 431l-272 -431h-55l864 1388l424 -1388h-55l-136 431h-770zM1219 496l-239 781l-485 -781h724z" />
    <glyph glyph-name="Adieresis" unicode="&#xc4;" horiz-adv-x="1556" vert-adv-y="2130" 
d="M898 1641q-20 0 -32 14.5t-8 33.5q3 20 19.5 34t35.5 14q20 0 32 -14.5t9 -33.5q-4 -20 -20.5 -34t-35.5 -14zM1179 1641q-20 0 -32 14.5t-8 33.5q3 20 19.5 34t35.5 14q20 0 32 -14.5t9 -33.5q-4 -20 -20.5 -34t-35.5 -14zM461 431l-272 -431h-55l864 1388l424 -1388
h-55l-136 431h-770zM1219 496l-239 781l-485 -781h724z" />
    <glyph glyph-name="Aring" unicode="&#xc5;" horiz-adv-x="1556" vert-adv-y="2130" 
d="M1033 1608q-60 0 -96 42.5t-26 102.5q9 60 58.5 102.5t109.5 42.5t95.5 -42.5t26.5 -102.5q-10 -60 -59 -102.5t-109 -42.5zM1041 1658q39 0 71 28t39 67q6 39 -17.5 67t-62.5 28t-71.5 -28t-38.5 -67q-7 -39 17 -67t63 -28zM461 431l-272 -431h-55l864 1388l424 -1388
h-55l-136 431h-770zM1219 496l-239 781l-485 -781h724z" />
    <glyph glyph-name="AE" unicode="&#xc6;" horiz-adv-x="1955" vert-adv-y="2130" 
d="M461 431l-272 -431h-55l873 1390h1043l-8 -50h-987l-98 -620h927l-8 -50h-927l-98 -620h987l-8 -50h-1037l68 431h-400zM985 1213l-26 6l-467 -738h377z" />
    <glyph glyph-name="Ccedilla" unicode="&#xc7;" horiz-adv-x="1589" vert-adv-y="2130" 
d="M669 -320l5 30q56 7 98 51t45 99h-119l19 120q-165 31 -285 134t-172.5 255.5t-24.5 325.5q24 148 102.5 282.5t191.5 232t256.5 155t291.5 57.5q185 0 332 -86.5t223 -239.5l-45 -29q-72 143 -209.5 224t-308.5 81q-138 0 -271.5 -53.5t-238.5 -144t-178.5 -216
t-95.5 -263.5t12 -263.5t110 -216t193 -144t255 -53.5q170 0 333 81t280 224l36 -29q-125 -153 -299 -239.5t-360 -86.5q-54 0 -99 7l-13 -85h120l-8 -45q-10 -64 -60.5 -111.5t-115.5 -53.5z" />
    <glyph glyph-name="Egrave" unicode="&#xc8;" horiz-adv-x="1287" vert-adv-y="2130" 
d="M827 1867l224 -208l-38 -38l-223 208zM1170 50l-8 -50h-1037l220 1390h1037l-8 -50h-987l-98 -620h927l-8 -50h-927l-98 -620h987z" />
    <glyph glyph-name="Eacute" unicode="&#xc9;" horiz-adv-x="1287" vert-adv-y="2130" 
d="M1052 1867l26 -38l-290 -208l-25 38zM1170 50l-8 -50h-1037l220 1390h1037l-8 -50h-987l-98 -620h927l-8 -50h-927l-98 -620h987z" />
    <glyph glyph-name="Ecircumflex" unicode="&#xca;" horiz-adv-x="1287" vert-adv-y="2130" 
d="M1097 1643l-170 145l-216 -145l-26 38l252 170l198 -170zM1170 50l-8 -50h-1037l220 1390h1037l-8 -50h-987l-98 -620h927l-8 -50h-927l-98 -620h987z" />
    <glyph glyph-name="Edieresis" unicode="&#xcb;" horiz-adv-x="1287" vert-adv-y="2130" 
d="M763 1641q-20 0 -32 14.5t-8 33.5q3 20 19.5 34t35.5 14q20 0 32 -14.5t9 -33.5q-4 -20 -20.5 -34t-35.5 -14zM1044 1641q-20 0 -32 14.5t-8 33.5q3 20 19.5 34t35.5 14q20 0 32 -14.5t9 -33.5q-4 -20 -20.5 -34t-35.5 -14zM1170 50l-8 -50h-1037l220 1390h1037l-8 -50
h-987l-98 -620h927l-8 -50h-927l-98 -620h987z" />
    <glyph glyph-name="Igrave" unicode="&#xcc;" horiz-adv-x="300" vert-adv-y="2130" 
d="M333 1867l224 -208l-38 -38l-223 208zM395 1390l-220 -1390h-50l220 1390h50z" />
    <glyph glyph-name="Iacute" unicode="&#xcd;" horiz-adv-x="300" vert-adv-y="2130" 
d="M558 1867l26 -38l-290 -208l-25 38zM395 1390l-220 -1390h-50l220 1390h50z" />
    <glyph glyph-name="Icircumflex" unicode="&#xce;" horiz-adv-x="300" vert-adv-y="2130" 
d="M603 1643l-170 145l-216 -145l-26 38l252 170l198 -170zM395 1390l-220 -1390h-50l220 1390h50z" />
    <glyph glyph-name="Idieresis" unicode="&#xcf;" horiz-adv-x="299" vert-adv-y="2130" 
d="M269 1641q-20 0 -32 14.5t-8 33.5q3 20 19.5 34t35.5 14q20 0 32 -14.5t9 -33.5q-4 -20 -20.5 -34t-35.5 -14zM550 1641q-20 0 -32 14.5t-8 33.5q3 20 19.5 34t35.5 14q20 0 32 -14.5t9 -33.5q-4 -20 -20.5 -34t-35.5 -14zM395 1390l-220 -1390h-50l220 1390h50z" />
    <glyph glyph-name="Ntilde" unicode="&#xd1;" vert-adv-y="2130" 
d="M816 1698l-41 -36l-29 35l41 35q110 95 190 0q52 -60 122 0l41 36l29 -35l-41 -35q-110 -95 -190 0q-52 60 -122 0zM373 1251l-198 -1251h-50l220 1388l872 -1260l200 1262h50l-220 -1390z" />
    <glyph glyph-name="Ograve" unicode="&#xd2;" horiz-adv-x="1704" vert-adv-y="2130" 
d="M1035 1867l224 -208l-38 -38l-223 208zM847 -32q-148 0 -273.5 57.5t-207.5 155t-118.5 232t-12.5 282.5t102.5 282.5t191.5 232t256.5 155t291.5 57.5t273.5 -57.5t207.5 -155t118.5 -232t12.5 -282.5t-102.5 -282.5t-191.5 -232t-256.5 -155t-291.5 -57.5zM855 18
q138 0 271.5 53.5t238.5 144t178.5 216t95.5 263.5t-12 263.5t-110 216t-193 144t-255 53.5t-271.5 -53.5t-238.5 -144t-178.5 -216t-95.5 -263.5t12 -263.5t110 -216t193 -144t255 -53.5z" />
    <glyph glyph-name="Oacute" unicode="&#xd3;" horiz-adv-x="1704" vert-adv-y="2130" 
d="M1260 1867l26 -38l-290 -208l-25 38zM847 -32q-148 0 -273.5 57.5t-207.5 155t-118.5 232t-12.5 282.5t102.5 282.5t191.5 232t256.5 155t291.5 57.5t273.5 -57.5t207.5 -155t118.5 -232t12.5 -282.5t-102.5 -282.5t-191.5 -232t-256.5 -155t-291.5 -57.5zM855 18
q138 0 271.5 53.5t238.5 144t178.5 216t95.5 263.5t-12 263.5t-110 216t-193 144t-255 53.5t-271.5 -53.5t-238.5 -144t-178.5 -216t-95.5 -263.5t12 -263.5t110 -216t193 -144t255 -53.5z" />
    <glyph glyph-name="Ocircumflex" unicode="&#xd4;" horiz-adv-x="1704" vert-adv-y="2130" 
d="M1305 1643l-170 145l-216 -145l-26 38l252 170l198 -170zM847 -32q-148 0 -273.5 57.5t-207.5 155t-118.5 232t-12.5 282.5t102.5 282.5t191.5 232t256.5 155t291.5 57.5t273.5 -57.5t207.5 -155t118.5 -232t12.5 -282.5t-102.5 -282.5t-191.5 -232t-256.5 -155
t-291.5 -57.5zM855 18q138 0 271.5 53.5t238.5 144t178.5 216t95.5 263.5t-12 263.5t-110 216t-193 144t-255 53.5t-271.5 -53.5t-238.5 -144t-178.5 -216t-95.5 -263.5t12 -263.5t110 -216t193 -144t255 -53.5z" />
    <glyph glyph-name="Otilde" unicode="&#xd5;" horiz-adv-x="1704" vert-adv-y="2130" 
d="M982 1698l-41 -36l-29 35l41 35q110 95 190 0q52 -60 122 0l41 36l29 -35l-41 -35q-110 -95 -190 0q-52 60 -122 0zM847 -32q-148 0 -273.5 57.5t-207.5 155t-118.5 232t-12.5 282.5t102.5 282.5t191.5 232t256.5 155t291.5 57.5t273.5 -57.5t207.5 -155t118.5 -232
t12.5 -282.5t-102.5 -282.5t-191.5 -232t-256.5 -155t-291.5 -57.5zM855 18q138 0 271.5 53.5t238.5 144t178.5 216t95.5 263.5t-12 263.5t-110 216t-193 144t-255 53.5t-271.5 -53.5t-238.5 -144t-178.5 -216t-95.5 -263.5t12 -263.5t110 -216t193 -144t255 -53.5z" />
    <glyph glyph-name="Odieresis" unicode="&#xd6;" horiz-adv-x="1704" vert-adv-y="2130" 
d="M972 1641q-20 0 -32 14.5t-8 33.5q3 20 19.5 34t35.5 14q20 0 32 -14.5t9 -33.5q-4 -20 -20.5 -34t-35.5 -14zM1253 1641q-20 0 -32 14.5t-8 33.5q3 20 19.5 34t35.5 14q20 0 32 -14.5t9 -33.5q-4 -20 -20.5 -34t-35.5 -14zM847 -32q-148 0 -273.5 57.5t-207.5 155
t-118.5 232t-12.5 282.5t102.5 282.5t191.5 232t256.5 155t291.5 57.5t273.5 -57.5t207.5 -155t118.5 -232t12.5 -282.5t-102.5 -282.5t-191.5 -232t-256.5 -155t-291.5 -57.5zM855 18q138 0 271.5 53.5t238.5 144t178.5 216t95.5 263.5t-12 263.5t-110 216t-193 144
t-255 53.5t-271.5 -53.5t-238.5 -144t-178.5 -216t-95.5 -263.5t12 -263.5t110 -216t193 -144t255 -53.5z" />
    <glyph glyph-name="multiply" unicode="&#xd7;" horiz-adv-x="968" vert-adv-y="2130" 
d="M793 322l-217 258l-299 -258l-29 35l298 258l-217 258l41 35l217 -258l299 258l29 -35l-299 -258l218 -258z" />
    <glyph glyph-name="Oslash" unicode="&#xd8;" horiz-adv-x="1704" vert-adv-y="2130" 
d="M633 1l-42 -81h-54l51 99q-196 82 -292 267t-61 409q24 148 102.5 282.5t191.5 232t256.5 155t291.5 57.5q111 0 214 -33l42 81h54l-51 -99q196 -82 292 -267t61 -409q-24 -148 -102.5 -282.5t-191.5 -232t-256.5 -155t-291.5 -57.5q-111 0 -214 33zM612 65l654 1276
q-95 31 -197 31q-138 0 -271.5 -53.5t-238.5 -144t-178.5 -216t-95.5 -263.5q-33 -208 56.5 -380.5t270.5 -249.5zM855 18q138 0 271.5 53.5t238.5 144t178.5 216t95.5 263.5q33 209 -56.5 381t-270.5 249l-654 -1276q96 -31 197 -31z" />
    <glyph glyph-name="Ugrave" unicode="&#xd9;" vert-adv-y="2130" 
d="M869 1867l224 -208l-38 -38l-223 208zM681 -32q-152 0 -269.5 75t-172 204.5t-30.5 281.5l136 861h50l-136 -861q-22 -139 27.5 -256.5t156.5 -186t246 -68.5t267.5 68.5t215.5 186t109 256.5l136 861h50l-136 -861q-24 -152 -119.5 -281.5t-237 -204.5t-293.5 -75z" />
    <glyph glyph-name="Uacute" unicode="&#xda;" vert-adv-y="2130" 
d="M1094 1867l26 -38l-290 -208l-25 38zM681 -32q-152 0 -269.5 75t-172 204.5t-30.5 281.5l136 861h50l-136 -861q-22 -139 27.5 -256.5t156.5 -186t246 -68.5t267.5 68.5t215.5 186t109 256.5l136 861h50l-136 -861q-24 -152 -119.5 -281.5t-237 -204.5t-293.5 -75z" />
    <glyph glyph-name="Ucircumflex" unicode="&#xdb;" vert-adv-y="2130" 
d="M1139 1643l-170 145l-216 -145l-26 38l252 170l198 -170zM681 -32q-152 0 -269.5 75t-172 204.5t-30.5 281.5l136 861h50l-136 -861q-22 -139 27.5 -256.5t156.5 -186t246 -68.5t267.5 68.5t215.5 186t109 256.5l136 861h50l-136 -861q-24 -152 -119.5 -281.5
t-237 -204.5t-293.5 -75z" />
    <glyph glyph-name="Udieresis" unicode="&#xdc;" vert-adv-y="2130" 
d="M806 1641q-20 0 -32 14.5t-8 33.5q3 20 19.5 34t35.5 14q20 0 32 -14.5t9 -33.5q-4 -20 -20.5 -34t-35.5 -14zM1087 1641q-20 0 -32 14.5t-8 33.5q3 20 19.5 34t35.5 14q20 0 32 -14.5t9 -33.5q-4 -20 -20.5 -34t-35.5 -14zM681 -32q-152 0 -269.5 75t-172 204.5
t-30.5 281.5l136 861h50l-136 -861q-22 -139 27.5 -256.5t156.5 -186t246 -68.5t267.5 68.5t215.5 186t109 256.5l136 861h50l-136 -861q-24 -152 -119.5 -281.5t-237 -204.5t-293.5 -75z" />
    <glyph glyph-name="Yacute" unicode="&#xdd;" horiz-adv-x="1456" vert-adv-y="2130" 
d="M1166 1867l26 -38l-290 -208l-25 38zM869 542l-86 -542h-50l86 542l-460 848h63l429 -802l683 802h63z" />
    <glyph glyph-name="germandbls" unicode="&#xdf;" horiz-adv-x="1320" vert-adv-y="1700" 
d="M363 1056l-218 -1381h-50l222 1405q36 156 193 252.5t376 96.5q227 0 353 -103.5t100 -266.5q-18 -110 -99 -197t-207 -133l-2 -25q122 -47 180.5 -139.5t39.5 -210.5q-27 -170 -190 -278t-392 -111l8 50q208 3 354.5 96.5t169.5 240.5q11 68 -10 130.5t-70 111.5
t-134 77t-195 26l-104 -2l6 37l103 -2q205 -4 339 94.5t156 236.5q23 142 -91.5 232t-322.5 90q-207 0 -349.5 -90.5t-165.5 -236.5z" />
    <glyph glyph-name="agrave" unicode="&#xe0;" horiz-adv-x="1013" vert-adv-y="2130" 
d="M649 1447l224 -208l-38 -38l-223 208zM508 -20q-105 0 -188 40t-123.5 108.5t-27.5 148.5q13 84 80.5 154.5t171 110.5t217.5 40h291l14 85q11 119 -61 189t-213 67q-133 -2 -238 -68.5t-131 -168.5h-50q31 127 152 205t274 81q170 4 254 -86t59 -246l-101 -640h-51
l22 136q-152 -156 -351 -156zM512 30q132 0 239 70t129 171l41 261h-291q-154 0 -274 -73.5t-137 -179.5q-16 -102 70 -175.5t223 -73.5z" />
    <glyph glyph-name="aacute" unicode="&#xe1;" horiz-adv-x="1013" vert-adv-y="2130" 
d="M848 1447l26 -38l-290 -208l-25 38zM508 -20q-105 0 -188 40t-123.5 108.5t-27.5 148.5q13 84 80.5 154.5t171 110.5t217.5 40h291l14 85q11 119 -61 189t-213 67q-133 -2 -238 -68.5t-131 -168.5h-50q31 127 152 205t274 81q170 4 254 -86t59 -246l-101 -640h-51l22 136
q-152 -156 -351 -156zM512 30q132 0 239 70t129 171l41 261h-291q-154 0 -274 -73.5t-137 -179.5q-16 -102 70 -175.5t223 -73.5z" />
    <glyph glyph-name="acircumflex" unicode="&#xe2;" horiz-adv-x="1013" vert-adv-y="2130" 
d="M894 1223l-170 145l-216 -145l-26 38l252 170l198 -170zM508 -20q-105 0 -188 40t-123.5 108.5t-27.5 148.5q13 84 80.5 154.5t171 110.5t217.5 40h291l14 85q11 119 -61 189t-213 67q-133 -2 -238 -68.5t-131 -168.5h-50q31 127 152 205t274 81q170 4 254 -86t59 -246
l-101 -640h-51l22 136q-152 -156 -351 -156zM512 30q132 0 239 70t129 171l41 261h-291q-154 0 -274 -73.5t-137 -179.5q-16 -102 70 -175.5t223 -73.5z" />
    <glyph glyph-name="atilde" unicode="&#xe3;" horiz-adv-x="1013" vert-adv-y="2130" 
d="M570 1278l-40 -36l-30 35l42 35q109 96 190 0q51 -60 122 0l41 36l29 -35l-42 -35q-109 -96 -190 0q-51 60 -122 0zM508 -20q-105 0 -188 40t-123.5 108.5t-27.5 148.5q13 84 80.5 154.5t171 110.5t217.5 40h291l14 85q11 119 -61 189t-213 67q-133 -2 -238 -68.5
t-131 -168.5h-50q31 127 152 205t274 81q170 4 254 -86t59 -246l-101 -640h-51l22 136q-152 -156 -351 -156zM512 30q132 0 239 70t129 171l41 261h-291q-154 0 -274 -73.5t-137 -179.5q-16 -102 70 -175.5t223 -73.5z" />
    <glyph glyph-name="adieresis" unicode="&#xe4;" horiz-adv-x="1013" vert-adv-y="2130" 
d="M559 1221q-19 0 -31 14t-9 34q3 19 19.5 33.5t36.5 14.5q19 0 31 -14t9 -34q-3 -19 -19.5 -33.5t-36.5 -14.5zM840 1221q-19 0 -31 14t-9 34q3 19 19.5 33.5t36.5 14.5q19 0 31 -14t9 -34q-3 -19 -19.5 -33.5t-36.5 -14.5zM508 -20q-105 0 -188 40t-123.5 108.5
t-27.5 148.5q13 84 80.5 154.5t171 110.5t217.5 40h291l14 85q11 119 -61 189t-213 67q-133 -2 -238 -68.5t-131 -168.5h-50q31 127 152 205t274 81q170 4 254 -86t59 -246l-101 -640h-51l22 136q-152 -156 -351 -156zM512 30q132 0 239 70t129 171l41 261h-291
q-154 0 -274 -73.5t-137 -179.5q-16 -102 70 -175.5t223 -73.5z" />
    <glyph glyph-name="aring" unicode="&#xe5;" horiz-adv-x="1013" vert-adv-y="2130" 
d="M695 1188q-60 0 -96 42.5t-26 102.5t59 102.5t109 42.5t96 -42.5t26 -102.5t-59 -102.5t-109 -42.5zM703 1238q39 0 71.5 28t38.5 67t-17.5 67t-62.5 28t-71.5 -28t-38.5 -67t17.5 -67t62.5 -28zM508 -20q-105 0 -188 40t-123.5 108.5t-27.5 148.5q13 84 80.5 154.5
t171 110.5t217.5 40h291l14 85q11 119 -61 189t-213 67q-133 -2 -238 -68.5t-131 -168.5h-50q31 127 152 205t274 81q170 4 254 -86t59 -246l-101 -640h-51l22 136q-152 -156 -351 -156zM512 30q132 0 239 70t129 171l41 261h-291q-154 0 -274 -73.5t-137 -179.5
q-16 -102 70 -175.5t223 -73.5z" />
    <glyph glyph-name="ae" unicode="&#xe6;" horiz-adv-x="1911" vert-adv-y="2130" 
d="M508 -20q-105 0 -188 40t-123.5 108.5t-27.5 148.5q13 84 80.5 154.5t171 110.5t217.5 40h291l14 85q11 119 -61 189t-213 67q-133 -2 -238 -68.5t-131 -168.5h-50q30 124 150 203.5t276 82.5q148 3 234 -67.5t85 -195.5q74 126 201 203.5t274 77.5q200 -1 311.5 -140
t83.5 -350h-898l-7 -46q-19 -183 82 -303.5t275 -120.5q140 0 261.5 80.5t186.5 217.5l45 -16q-72 -152 -208 -242t-293 -90q-141 0 -242 73t-140 197l-40 -250h-50l22 136q-152 -156 -351 -156zM978 550h841q7 172 -93 281t-265 109q-166 0 -301.5 -109t-181.5 -281z
M512 30q132 0 239 70t129 171l41 261h-291q-154 0 -274 -73.5t-137 -179.5q-16 -102 70 -175.5t223 -73.5z" />
    <glyph glyph-name="ccedilla" unicode="&#xe7;" horiz-adv-x="1120" vert-adv-y="2130" 
d="M437 -306l4 30q56 7 98 50.5t46 99.5h-120l19 120q-157 40 -234 174.5t-48 316.5q35 217 193 361t362 144q120 0 213.5 -54.5t142.5 -152.5l-46 -28q-44 87 -128 136t-190 49q-182 0 -324 -130t-173 -325t70 -325t283 -130q106 0 205.5 49t170.5 136l38 -28
q-80 -98 -191 -152.5t-231 -54.5q-35 0 -84 7l-13 -83h120l-7 -45q-10 -64 -60.5 -111.5t-115.5 -53.5z" />
    <glyph glyph-name="egrave" unicode="&#xe8;" horiz-adv-x="1199" vert-adv-y="2130" 
d="M716 1447l224 -208l-38 -38l-223 208zM597 -20q-204 0 -316.5 144t-78.5 361q35 217 192.5 360.5t362.5 144.5q133 0 230.5 -64.5t141 -176.5t24.5 -249h-899q-37 -200 64 -335t287 -135q140 0 261.5 80.5t186.5 217.5l45 -16q-72 -152 -208 -242t-293 -90zM266 550h841
q7 172 -93 281t-265 109q-166 0 -301.5 -109t-181.5 -281z" />
    <glyph glyph-name="eacute" unicode="&#xe9;" horiz-adv-x="1199" vert-adv-y="2130" 
d="M941 1447l26 -38l-290 -208l-25 38zM597 -20q-204 0 -316.5 144t-78.5 361q35 217 192.5 360.5t362.5 144.5q133 0 230.5 -64.5t141 -176.5t24.5 -249h-899q-37 -200 64 -335t287 -135q140 0 261.5 80.5t186.5 217.5l45 -16q-72 -152 -208 -242t-293 -90zM266 550h841
q7 172 -93 281t-265 109q-166 0 -301.5 -109t-181.5 -281z" />
    <glyph glyph-name="ecircumflex" unicode="&#xea;" horiz-adv-x="1199" vert-adv-y="2130" 
d="M987 1223l-170 145l-216 -145l-26 38l252 170l198 -170zM597 -20q-204 0 -316.5 144t-78.5 361q35 217 192.5 360.5t362.5 144.5q133 0 230.5 -64.5t141 -176.5t24.5 -249h-899q-37 -200 64 -335t287 -135q140 0 261.5 80.5t186.5 217.5l45 -16q-72 -152 -208 -242
t-293 -90zM266 550h841q7 172 -93 281t-265 109q-166 0 -301.5 -109t-181.5 -281z" />
    <glyph glyph-name="edieresis" unicode="&#xeb;" horiz-adv-x="1199" vert-adv-y="2130" 
d="M652 1221q-19 0 -31 14t-9 34q3 19 19.5 33.5t36.5 14.5q19 0 31 -14t9 -34q-3 -19 -19.5 -33.5t-36.5 -14.5zM933 1221q-19 0 -31 14t-9 34q3 19 19.5 33.5t36.5 14.5q19 0 31 -14t9 -34q-3 -19 -19.5 -33.5t-36.5 -14.5zM597 -20q-204 0 -316.5 144t-78.5 361
q35 217 192.5 360.5t362.5 144.5q133 0 230.5 -64.5t141 -176.5t24.5 -249h-899q-37 -200 64 -335t287 -135q140 0 261.5 80.5t186.5 217.5l45 -16q-72 -152 -208 -242t-293 -90zM266 550h841q7 172 -93 281t-265 109q-166 0 -301.5 -109t-181.5 -281z" />
    <glyph glyph-name="igrave" unicode="&#xec;" horiz-adv-x="346" vert-adv-y="2130" 
d="M289 1447l224 -208l-38 -38l-223 208zM352 970l-154 -970h-50l154 970h50z" />
    <glyph glyph-name="iacute" unicode="&#xed;" horiz-adv-x="346" vert-adv-y="2130" 
d="M514 1447l26 -38l-290 -208l-25 38zM352 970l-154 -970h-50l154 970h50z" />
    <glyph glyph-name="icircumflex" unicode="&#xee;" horiz-adv-x="346" vert-adv-y="2130" 
d="M560 1223l-170 145l-216 -145l-26 38l252 170l198 -170zM352 970l-154 -970h-50l154 970h50z" />
    <glyph glyph-name="idieresis" unicode="&#xef;" horiz-adv-x="346" vert-adv-y="2130" 
d="M225 1221q-19 0 -31 14t-9 34q3 19 19.5 33.5t36.5 14.5q19 0 31 -14t9 -34q-3 -19 -19.5 -33.5t-36.5 -14.5zM506 1221q-19 0 -31 14t-9 34q3 19 19.5 33.5t36.5 14.5q19 0 31 -14t9 -34q-3 -19 -19.5 -33.5t-36.5 -14.5zM352 970l-154 -970h-50l154 970h50z" />
    <glyph glyph-name="ntilde" unicode="&#xf1;" horiz-adv-x="973" vert-adv-y="2130" 
d="M550 1278l-40 -36l-30 35l42 35q109 96 190 0q51 -60 122 0l41 36l29 -35l-42 -35q-109 -96 -190 0q-51 60 -122 0zM276 629l-100 -629h-51l153 968h50l-24 -155q61 81 151 129t188 48q151 0 239.5 -105.5t65.5 -255.5l-100 -629h-50l100 629q20 129 -56.5 220t-205.5 91
q-130 0 -235 -91t-125 -220z" />
    <glyph glyph-name="ograve" unicode="&#xf2;" horiz-adv-x="1200" vert-adv-y="2130" 
d="M716 1447l224 -208l-38 -38l-223 208zM597 -20q-204 0 -316.5 144t-78.5 361q35 217 193 361t362 144t316.5 -144t78.5 -361q-35 -217 -193 -361t-362 -144zM605 30q182 0 324 130t173 325t-70 325t-283 130t-324 -130t-173 -325t70 -325t283 -130z" />
    <glyph glyph-name="oacute" unicode="&#xf3;" horiz-adv-x="1200" vert-adv-y="2130" 
d="M941 1447l26 -38l-290 -208l-25 38zM597 -20q-204 0 -316.5 144t-78.5 361q35 217 193 361t362 144t316.5 -144t78.5 -361q-35 -217 -193 -361t-362 -144zM605 30q182 0 324 130t173 325t-70 325t-283 130t-324 -130t-173 -325t70 -325t283 -130z" />
    <glyph glyph-name="ocircumflex" unicode="&#xf4;" horiz-adv-x="1200" vert-adv-y="2130" 
d="M987 1223l-170 145l-216 -145l-26 38l252 170l198 -170zM597 -20q-204 0 -316.5 144t-78.5 361q35 217 193 361t362 144t316.5 -144t78.5 -361q-35 -217 -193 -361t-362 -144zM605 30q182 0 324 130t173 325t-70 325t-283 130t-324 -130t-173 -325t70 -325t283 -130z" />
    <glyph glyph-name="otilde" unicode="&#xf5;" horiz-adv-x="1200" vert-adv-y="2130" 
d="M663 1278l-40 -36l-30 35l42 35q109 96 190 0q51 -60 122 0l41 36l29 -35l-42 -35q-109 -96 -190 0q-51 60 -122 0zM597 -20q-204 0 -316.5 144t-78.5 361q35 217 193 361t362 144t316.5 -144t78.5 -361q-35 -217 -193 -361t-362 -144zM605 30q182 0 324 130t173 325
t-70 325t-283 130t-324 -130t-173 -325t70 -325t283 -130z" />
    <glyph glyph-name="odieresis" unicode="&#xf6;" horiz-adv-x="1200" vert-adv-y="2130" 
d="M653 1221q-19 0 -31 14t-9 34q3 19 19.5 33.5t36.5 14.5q19 0 31 -14t9 -34q-3 -19 -19.5 -33.5t-36.5 -14.5zM934 1221q-19 0 -31 14t-9 34q3 19 19.5 33.5t36.5 14.5q19 0 31 -14t9 -34q-3 -19 -19.5 -33.5t-36.5 -14.5zM597 -20q-204 0 -316.5 144t-78.5 361
q35 217 193 361t362 144t316.5 -144t78.5 -361q-35 -217 -193 -361t-362 -144zM605 30q182 0 324 130t173 325t-70 325t-283 130t-324 -130t-173 -325t70 -325t283 -130z" />
    <glyph glyph-name="divide" unicode="&#xf7;" horiz-adv-x="1164" vert-adv-y="2130" 
d="M719 874q-19 0 -31 14t-9 34q3 19 19.5 33.5t36.5 14.5q19 0 31 -14t9 -34q-3 -19 -19.5 -33.5t-36.5 -14.5zM1072 640l-8 -50h-778l8 50h778zM626 284q-20 0 -32 14.5t-8 33.5q3 20 19.5 34t35.5 14q20 0 32 -14.5t9 -33.5q-4 -20 -20.5 -34t-35.5 -14z" />
    <glyph glyph-name="oslash" unicode="&#xf8;" horiz-adv-x="1200" vert-adv-y="2130" 
d="M394 28l-55 -108h-54l68 133q-92 66 -132.5 179.5t-18.5 252.5q35 217 193 361t362 144q37 0 75 -6l70 137h54l-76 -147q149 -42 224.5 -175.5t47.5 -313.5q-35 -217 -193 -361t-362 -144q-112 0 -203 48zM379 103l427 833q-24 4 -57 4q-182 0 -324 -130t-173 -325
q-19 -121 15 -221.5t112 -160.5zM605 30q182 0 324 130t173 325q26 163 -42.5 284t-203.5 157l-437 -850q80 -46 186 -46z" />
    <glyph glyph-name="ugrave" unicode="&#xf9;" horiz-adv-x="973" vert-adv-y="2130" 
d="M603 1447l224 -208l-38 -38l-223 208zM484 -21q-151 0 -240 105.5t-65 255.5l99 629h50l-99 -629q-20 -129 56.5 -220t205.5 -91q130 0 235.5 91t125.5 220l99 629h50l-153 -968h-50l25 155q-61 -81 -151 -129t-188 -48z" />
    <glyph glyph-name="uacute" unicode="&#xfa;" horiz-adv-x="973" vert-adv-y="2130" 
d="M828 1447l26 -38l-290 -208l-25 38zM484 -21q-151 0 -240 105.5t-65 255.5l99 629h50l-99 -629q-20 -129 56.5 -220t205.5 -91q130 0 235.5 91t125.5 220l99 629h50l-153 -968h-50l25 155q-61 -81 -151 -129t-188 -48z" />
    <glyph glyph-name="ucircumflex" unicode="&#xfb;" horiz-adv-x="973" vert-adv-y="2130" 
d="M874 1223l-170 145l-216 -145l-26 38l252 170l198 -170zM484 -21q-151 0 -240 105.5t-65 255.5l99 629h50l-99 -629q-20 -129 56.5 -220t205.5 -91q130 0 235.5 91t125.5 220l99 629h50l-153 -968h-50l25 155q-61 -81 -151 -129t-188 -48z" />
    <glyph glyph-name="udieresis" unicode="&#xfc;" horiz-adv-x="973" vert-adv-y="2130" 
d="M539 1221q-19 0 -31 14t-9 34q3 19 19.5 33.5t36.5 14.5q19 0 31 -14t9 -34q-3 -19 -19.5 -33.5t-36.5 -14.5zM820 1221q-19 0 -31 14t-9 34q3 19 19.5 33.5t36.5 14.5q19 0 31 -14t9 -34q-3 -19 -19.5 -33.5t-36.5 -14.5zM484 -21q-151 0 -240 105.5t-65 255.5l99 629
h50l-99 -629q-20 -129 56.5 -220t205.5 -91q130 0 235.5 91t125.5 220l99 629h50l-153 -968h-50l25 155q-61 -81 -151 -129t-188 -48z" />
    <glyph glyph-name="yacute" unicode="&#xfd;" horiz-adv-x="1148" vert-adv-y="2130" 
d="M915 1447l26 -38l-290 -208l-25 38zM1168 970l-872 -1400h-42l310 494l-276 906h55l249 -855l521 855h55z" />
    <glyph glyph-name="ydieresis" unicode="&#xff;" horiz-adv-x="1148" vert-adv-y="2130" 
d="M627 1221q-19 0 -31 14t-9 34q3 19 19.5 33.5t36.5 14.5q19 0 31 -14t9 -34q-3 -19 -19.5 -33.5t-36.5 -14.5zM908 1221q-19 0 -31 14t-9 34q3 19 19.5 33.5t36.5 14.5q19 0 31 -14t9 -34q-3 -19 -19.5 -33.5t-36.5 -14.5zM1168 970l-872 -1400h-42l310 494l-276 906h55
l249 -855l521 855h55z" />
    <glyph glyph-name="Amacron" unicode="&#x100;" horiz-adv-x="1556" vert-adv-y="2130" 
d="M1241 1695l-7 -50h-390l7 50h390zM461 431l-272 -431h-55l864 1388l424 -1388h-55l-136 431h-770zM1219 496l-239 781l-485 -781h724z" />
    <glyph glyph-name="amacron" unicode="&#x101;" horiz-adv-x="1013" vert-adv-y="2130" 
d="M904 1275l-8 -50h-390l8 50h390zM508 -20q-105 0 -188 40t-123.5 108.5t-27.5 148.5q13 84 80.5 154.5t171 110.5t217.5 40h291l14 85q11 119 -61 189t-213 67q-133 -2 -238 -68.5t-131 -168.5h-50q31 127 152 205t274 81q170 4 254 -86t59 -246l-101 -640h-51l22 136
q-152 -156 -351 -156zM512 30q132 0 239 70t129 171l41 261h-291q-154 0 -274 -73.5t-137 -179.5q-16 -102 70 -175.5t223 -73.5z" />
    <glyph glyph-name="Abreve" unicode="&#x102;" horiz-adv-x="1556" vert-adv-y="2130" 
d="M1035 1620q-91 0 -148 62.5t-49 153.5h50q-5 -71 39.5 -118.5t115.5 -47.5t130.5 47.5t76.5 118.5h50q-20 -91 -97 -153.5t-168 -62.5zM461 431l-272 -431h-55l864 1388l424 -1388h-55l-136 431h-770zM1219 496l-239 781l-485 -781h724z" />
    <glyph glyph-name="abreve" unicode="&#x103;" horiz-adv-x="1013" vert-adv-y="2130" 
d="M697 1200q-91 0 -148 62.5t-49 153.5h50q-5 -71 39.5 -118.5t115.5 -47.5t130.5 47.5t76.5 118.5h50q-20 -91 -97 -153.5t-168 -62.5zM508 -20q-105 0 -188 40t-123.5 108.5t-27.5 148.5q13 84 80.5 154.5t171 110.5t217.5 40h291l14 85q11 119 -61 189t-213 67
q-133 -2 -238 -68.5t-131 -168.5h-50q31 127 152 205t274 81q170 4 254 -86t59 -246l-101 -640h-51l22 136q-152 -156 -351 -156zM512 30q132 0 239 70t129 171l41 261h-291q-154 0 -274 -73.5t-137 -179.5q-16 -102 70 -175.5t223 -73.5z" />
    <glyph glyph-name="Cacute" unicode="&#x106;" horiz-adv-x="1589" vert-adv-y="2130" 
d="M1203 1867l26 -38l-290 -208l-25 38zM847 -32q-148 0 -273.5 57.5t-207.5 155t-118.5 232t-12.5 282.5t102.5 282.5t191.5 232t256.5 155t291.5 57.5q185 0 332 -86.5t223 -239.5l-45 -29q-72 143 -209.5 224t-308.5 81q-138 0 -271.5 -53.5t-238.5 -144t-178.5 -216
t-95.5 -263.5t12 -263.5t110 -216t193 -144t255 -53.5q170 0 333 81t280 224l36 -29q-125 -153 -299 -239.5t-358 -86.5z" />
    <glyph glyph-name="cacute" unicode="&#x107;" horiz-adv-x="1120" vert-adv-y="2130" 
d="M901 1447l26 -38l-290 -208l-25 38zM597 -20q-204 0 -316.5 144t-78.5 361q35 217 193 361t362 144q120 0 213.5 -54.5t142.5 -152.5l-46 -28q-44 87 -128 136t-190 49q-182 0 -324 -130t-173 -325t70 -325t283 -130q106 0 205.5 49t170.5 136l38 -28
q-80 -98 -191 -152.5t-231 -54.5z" />
    <glyph glyph-name="Ccircumflex" unicode="&#x108;" horiz-adv-x="1589" vert-adv-y="2130" 
d="M1248 1643l-170 145l-216 -145l-26 38l252 170l198 -170zM847 -32q-148 0 -273.5 57.5t-207.5 155t-118.5 232t-12.5 282.5t102.5 282.5t191.5 232t256.5 155t291.5 57.5q185 0 332 -86.5t223 -239.5l-45 -29q-72 143 -209.5 224t-308.5 81q-138 0 -271.5 -53.5
t-238.5 -144t-178.5 -216t-95.5 -263.5t12 -263.5t110 -216t193 -144t255 -53.5q170 0 333 81t280 224l36 -29q-125 -153 -299 -239.5t-358 -86.5z" />
    <glyph glyph-name="ccircumflex" unicode="&#x109;" horiz-adv-x="1120" vert-adv-y="2130" 
d="M947 1223l-170 145l-216 -145l-26 38l252 170l198 -170zM597 -20q-204 0 -316.5 144t-78.5 361q35 217 193 361t362 144q120 0 213.5 -54.5t142.5 -152.5l-46 -28q-44 87 -128 136t-190 49q-182 0 -324 -130t-173 -325t70 -325t283 -130q106 0 205.5 49t170.5 136l38 -28
q-80 -98 -191 -152.5t-231 -54.5z" />
    <glyph glyph-name="Cdotaccent" unicode="&#x10a;" horiz-adv-x="1589" vert-adv-y="2130" 
d="M1060 1674q-19 0 -31 14t-9 34t19.5 34t35.5 14q20 0 32 -14.5t9 -33.5t-19.5 -33.5t-36.5 -14.5zM847 -32q-148 0 -273.5 57.5t-207.5 155t-118.5 232t-12.5 282.5t102.5 282.5t191.5 232t256.5 155t291.5 57.5q185 0 332 -86.5t223 -239.5l-45 -29q-72 143 -209.5 224
t-308.5 81q-138 0 -271.5 -53.5t-238.5 -144t-178.5 -216t-95.5 -263.5t12 -263.5t110 -216t193 -144t255 -53.5q170 0 333 81t280 224l36 -29q-125 -153 -299 -239.5t-358 -86.5z" />
    <glyph glyph-name="cdotaccent" unicode="&#x10b;" horiz-adv-x="1120" vert-adv-y="2130" 
d="M759 1254q-20 0 -32 14.5t-9 33.5t19.5 33.5t36.5 14.5q19 0 31 -14t9 -34t-19.5 -34t-35.5 -14zM597 -20q-204 0 -316.5 144t-78.5 361q35 217 193 361t362 144q120 0 213.5 -54.5t142.5 -152.5l-46 -28q-44 87 -128 136t-190 49q-182 0 -324 -130t-173 -325t70 -325
t283 -130q106 0 205.5 49t170.5 136l38 -28q-80 -98 -191 -152.5t-231 -54.5z" />
    <glyph glyph-name="Ccaron" unicode="&#x10c;" horiz-adv-x="1589" vert-adv-y="2130" 
d="M1278 1832l26 -38l-252 -170l-198 170l38 38l170 -146zM847 -32q-148 0 -273.5 57.5t-207.5 155t-118.5 232t-12.5 282.5t102.5 282.5t191.5 232t256.5 155t291.5 57.5q185 0 332 -86.5t223 -239.5l-45 -29q-72 143 -209.5 224t-308.5 81q-138 0 -271.5 -53.5
t-238.5 -144t-178.5 -216t-95.5 -263.5t12 -263.5t110 -216t193 -144t255 -53.5q170 0 333 81t280 224l36 -29q-125 -153 -299 -239.5t-358 -86.5z" />
    <glyph glyph-name="ccaron" unicode="&#x10d;" horiz-adv-x="1120" vert-adv-y="2130" 
d="M977 1412l26 -38l-252 -170l-198 170l38 38l170 -146zM597 -20q-204 0 -316.5 144t-78.5 361q35 217 193 361t362 144q120 0 213.5 -54.5t142.5 -152.5l-46 -28q-44 87 -128 136t-190 49q-182 0 -324 -130t-173 -325t70 -325t283 -130q106 0 205.5 49t170.5 136l38 -28
q-80 -98 -191 -152.5t-231 -54.5z" />
    <glyph glyph-name="Emacron" unicode="&#x112;" horiz-adv-x="1287" vert-adv-y="2130" 
d="M1107 1695l-7 -50h-390l7 50h390zM1170 50l-8 -50h-1037l220 1390h1037l-8 -50h-987l-98 -620h927l-8 -50h-927l-98 -620h987z" />
    <glyph glyph-name="emacron" unicode="&#x113;" horiz-adv-x="1199" vert-adv-y="2130" 
d="M997 1275l-8 -50h-390l8 50h390zM597 -20q-204 0 -316.5 144t-78.5 361q35 217 192.5 360.5t362.5 144.5q133 0 230.5 -64.5t141 -176.5t24.5 -249h-899q-37 -200 64 -335t287 -135q140 0 261.5 80.5t186.5 217.5l45 -16q-72 -152 -208 -242t-293 -90zM266 550h841
q7 172 -93 281t-265 109q-166 0 -301.5 -109t-181.5 -281z" />
    <glyph glyph-name="Ebreve" unicode="&#x114;" horiz-adv-x="1287" vert-adv-y="2130" 
d="M901 1620q-91 0 -148 62.5t-49 153.5h50q-5 -71 39.5 -118.5t115.5 -47.5t130.5 47.5t76.5 118.5h50q-20 -91 -97 -153.5t-168 -62.5zM1170 50l-8 -50h-1037l220 1390h1037l-8 -50h-987l-98 -620h927l-8 -50h-927l-98 -620h987z" />
    <glyph glyph-name="ebreve" unicode="&#x115;" horiz-adv-x="1199" vert-adv-y="2130" 
d="M790 1200q-91 0 -148 62.5t-49 153.5h50q-5 -71 39.5 -118.5t115.5 -47.5t130.5 47.5t76.5 118.5h50q-20 -91 -97 -153.5t-168 -62.5zM597 -20q-204 0 -316.5 144t-78.5 361q35 217 192.5 360.5t362.5 144.5q133 0 230.5 -64.5t141 -176.5t24.5 -249h-899
q-37 -200 64 -335t287 -135q140 0 261.5 80.5t186.5 217.5l45 -16q-72 -152 -208 -242t-293 -90zM266 550h841q7 172 -93 281t-265 109q-166 0 -301.5 -109t-181.5 -281z" />
    <glyph glyph-name="Edotaccent" unicode="&#x116;" horiz-adv-x="1287" vert-adv-y="2130" 
d="M909 1674q-19 0 -31 14t-9 34t19.5 34t35.5 14q20 0 32 -14.5t9 -33.5t-19.5 -33.5t-36.5 -14.5zM1170 50l-8 -50h-1037l220 1390h1037l-8 -50h-987l-98 -620h927l-8 -50h-927l-98 -620h987z" />
    <glyph glyph-name="edotaccent" unicode="&#x117;" horiz-adv-x="1199" vert-adv-y="2130" 
d="M799 1254q-20 0 -32 14.5t-9 33.5t19.5 33.5t36.5 14.5q19 0 31 -14t9 -34t-19.5 -34t-35.5 -14zM597 -20q-204 0 -316.5 144t-78.5 361q35 217 192.5 360.5t362.5 144.5q133 0 230.5 -64.5t141 -176.5t24.5 -249h-899q-37 -200 64 -335t287 -135q140 0 261.5 80.5
t186.5 217.5l45 -16q-72 -152 -208 -242t-293 -90zM266 550h841q7 172 -93 281t-265 109q-166 0 -301.5 -109t-181.5 -281z" />
    <glyph glyph-name="Ecaron" unicode="&#x11a;" horiz-adv-x="1287" vert-adv-y="2130" 
d="M1127 1832l26 -38l-252 -170l-198 170l38 38l170 -146zM1170 50l-8 -50h-1037l220 1390h1037l-8 -50h-987l-98 -620h927l-8 -50h-927l-98 -620h987z" />
    <glyph glyph-name="ecaron" unicode="&#x11b;" horiz-adv-x="1199" vert-adv-y="2130" 
d="M1017 1412l26 -38l-252 -170l-198 170l38 38l170 -146zM597 -20q-204 0 -316.5 144t-78.5 361q35 217 192.5 360.5t362.5 144.5q133 0 230.5 -64.5t141 -176.5t24.5 -249h-899q-37 -200 64 -335t287 -135q140 0 261.5 80.5t186.5 217.5l45 -16q-72 -152 -208 -242
t-293 -90zM266 550h841q7 172 -93 281t-265 109q-166 0 -301.5 -109t-181.5 -281z" />
    <glyph glyph-name="Gcircumflex" unicode="&#x11c;" horiz-adv-x="1589" vert-adv-y="2130" 
d="M1248 1643l-170 145l-216 -145l-26 38l252 170l198 -170zM847 -32q-148 0 -273.5 57.5t-207.5 155t-118.5 232t-12.5 282.5t102.5 282.5t191.5 232t256.5 155t291.5 57.5q185 0 332 -86.5t223 -239.5l-45 -29q-72 143 -209.5 224t-308.5 81q-138 0 -271.5 -53.5
t-238.5 -144t-178.5 -216t-95.5 -263.5t12 -263.5t110 -216t193 -144t255 -53.5q168 0 328.5 78.5t278.5 218.5l53 337h-614l8 50h664l-62 -400q-125 -156 -301.5 -245t-362.5 -89z" />
    <glyph glyph-name="gcircumflex" unicode="&#x11d;" horiz-adv-x="1133" vert-adv-y="2130" 
d="M957 1223l-170 145l-216 -145l-26 38l252 170l198 -170zM521 -430h-1q-146 0 -241 67.5t-119 188.5h53q27 -98 109.5 -152t206.5 -54q172 0 290 99t145 266l43 276q-73 -130 -191.5 -207t-253.5 -77q-124 0 -214.5 65.5t-129.5 181t-17 258.5q23 142 98.5 258t187 181.5
t235.5 65.5q135 0 229 -77t126 -207l43 269h51l-155 -977q-31 -194 -165.5 -309.5t-329.5 -115.5zM570 27q170 0 304 130t165 325t-62 325t-263 130t-303.5 -130t-165.5 -325q-31 -195 62 -325t263 -130z" />
    <glyph glyph-name="Gbreve" unicode="&#x11e;" horiz-adv-x="1589" vert-adv-y="2130" 
d="M1052 1620q-91 0 -148 62.5t-49 153.5h50q-5 -71 39.5 -118.5t115.5 -47.5t130.5 47.5t76.5 118.5h50q-20 -91 -97 -153.5t-168 -62.5zM847 -32q-148 0 -273.5 57.5t-207.5 155t-118.5 232t-12.5 282.5t102.5 282.5t191.5 232t256.5 155t291.5 57.5q185 0 332 -86.5
t223 -239.5l-45 -29q-72 143 -209.5 224t-308.5 81q-138 0 -271.5 -53.5t-238.5 -144t-178.5 -216t-95.5 -263.5t12 -263.5t110 -216t193 -144t255 -53.5q168 0 328.5 78.5t278.5 218.5l53 337h-614l8 50h664l-62 -400q-125 -156 -301.5 -245t-362.5 -89z" />
    <glyph glyph-name="gbreve" unicode="&#x11f;" horiz-adv-x="1133" vert-adv-y="2130" 
d="M760 1200q-91 0 -148 62.5t-49 153.5h50q-5 -71 39.5 -118.5t115.5 -47.5t130.5 47.5t76.5 118.5h50q-20 -91 -97 -153.5t-168 -62.5zM521 -430h-1q-146 0 -241 67.5t-119 188.5h53q27 -98 109.5 -152t206.5 -54q172 0 290 99t145 266l43 276q-73 -130 -191.5 -207
t-253.5 -77q-124 0 -214.5 65.5t-129.5 181t-17 258.5q23 142 98.5 258t187 181.5t235.5 65.5q135 0 229 -77t126 -207l43 269h51l-155 -977q-31 -194 -165.5 -309.5t-329.5 -115.5zM570 27q170 0 304 130t165 325t-62 325t-263 130t-303.5 -130t-165.5 -325
q-31 -195 62 -325t263 -130z" />
    <glyph glyph-name="Gdotaccent" unicode="&#x120;" horiz-adv-x="1589" vert-adv-y="2130" 
d="M1060 1674q-19 0 -31 14t-9 34t19.5 34t35.5 14q20 0 32 -14.5t9 -33.5t-19.5 -33.5t-36.5 -14.5zM847 -32q-148 0 -273.5 57.5t-207.5 155t-118.5 232t-12.5 282.5t102.5 282.5t191.5 232t256.5 155t291.5 57.5q185 0 332 -86.5t223 -239.5l-45 -29q-72 143 -209.5 224
t-308.5 81q-138 0 -271.5 -53.5t-238.5 -144t-178.5 -216t-95.5 -263.5t12 -263.5t110 -216t193 -144t255 -53.5q168 0 328.5 78.5t278.5 218.5l53 337h-614l8 50h664l-62 -400q-125 -156 -301.5 -245t-362.5 -89z" />
    <glyph glyph-name="gdotaccent" unicode="&#x121;" horiz-adv-x="1133" vert-adv-y="2130" 
d="M769 1254q-20 0 -32 14.5t-9 33.5t19.5 33.5t36.5 14.5q19 0 31 -14t9 -34t-19.5 -34t-35.5 -14zM521 -430h-1q-146 0 -241 67.5t-119 188.5h53q27 -98 109.5 -152t206.5 -54q172 0 290 99t145 266l43 276q-73 -130 -191.5 -207t-253.5 -77q-124 0 -214.5 65.5
t-129.5 181t-17 258.5q23 142 98.5 258t187 181.5t235.5 65.5q135 0 229 -77t126 -207l43 269h51l-155 -977q-31 -194 -165.5 -309.5t-329.5 -115.5zM570 27q170 0 304 130t165 325t-62 325t-263 130t-303.5 -130t-165.5 -325q-31 -195 62 -325t263 -130z" />
    <glyph glyph-name="Itilde" unicode="&#x128;" horiz-adv-x="300" vert-adv-y="2130" 
d="M280 1698l-41 -36l-29 35l41 35q110 95 190 0q52 -60 122 0l41 36l29 -35l-41 -35q-110 -95 -190 0q-52 60 -122 0zM395 1390l-220 -1390h-50l220 1390h50z" />
    <glyph glyph-name="itilde" unicode="&#x129;" horiz-adv-x="346" vert-adv-y="2130" 
d="M236 1278l-40 -36l-30 35l42 35q109 96 190 0q51 -60 122 0l41 36l29 -35l-42 -35q-109 -96 -190 0q-51 60 -122 0zM352 970l-154 -970h-50l154 970h50z" />
    <glyph glyph-name="Imacron" unicode="&#x12a;" horiz-adv-x="300" vert-adv-y="2130" 
d="M613 1695l-7 -50h-390l7 50h390zM395 1390l-220 -1390h-50l220 1390h50z" />
    <glyph glyph-name="imacron" unicode="&#x12b;" horiz-adv-x="346" vert-adv-y="2130" 
d="M570 1275l-8 -50h-390l8 50h390zM352 970l-154 -970h-50l154 970h50z" />
    <glyph glyph-name="Idotaccent" unicode="&#x130;" horiz-adv-x="300" vert-adv-y="2130" 
d="M415 1674q-19 0 -31 14t-9 34t19.5 34t35.5 14q20 0 32 -14.5t9 -33.5t-19.5 -33.5t-36.5 -14.5zM395 1390l-220 -1390h-50l220 1390h50z" />
    <glyph glyph-name="dotlessi" unicode="&#x131;" horiz-adv-x="346" vert-adv-y="2130" 
d="M352 970l-154 -970h-50l154 970h50z" />
    <glyph glyph-name="Nacute" unicode="&#x143;" vert-adv-y="2130" 
d="M1094 1867l26 -38l-290 -208l-25 38zM373 1251l-198 -1251h-50l220 1388l872 -1260l200 1262h50l-220 -1390z" />
    <glyph glyph-name="nacute" unicode="&#x144;" horiz-adv-x="973" vert-adv-y="2130" 
d="M828 1447l26 -38l-290 -208l-25 38zM276 629l-100 -629h-51l153 968h50l-24 -155q61 81 151 129t188 48q151 0 239.5 -105.5t65.5 -255.5l-100 -629h-50l100 629q20 129 -56.5 220t-205.5 91q-130 0 -235 -91t-125 -220z" />
    <glyph glyph-name="Ncaron" unicode="&#x147;" vert-adv-y="2130" 
d="M1169 1832l26 -38l-252 -170l-198 170l38 38l170 -146zM373 1251l-198 -1251h-50l220 1388l872 -1260l200 1262h50l-220 -1390z" />
    <glyph glyph-name="ncaron" unicode="&#x148;" horiz-adv-x="973" vert-adv-y="2130" 
d="M904 1412l26 -38l-252 -170l-198 170l38 38l170 -146zM276 629l-100 -629h-51l153 968h50l-24 -155q61 81 151 129t188 48q151 0 239.5 -105.5t65.5 -255.5l-100 -629h-50l100 629q20 129 -56.5 220t-205.5 91q-130 0 -235 -91t-125 -220z" />
    <glyph glyph-name="Omacron" unicode="&#x14c;" horiz-adv-x="1704" vert-adv-y="2130" 
d="M1315 1695l-7 -50h-390l7 50h390zM847 -32q-148 0 -273.5 57.5t-207.5 155t-118.5 232t-12.5 282.5t102.5 282.5t191.5 232t256.5 155t291.5 57.5t273.5 -57.5t207.5 -155t118.5 -232t12.5 -282.5t-102.5 -282.5t-191.5 -232t-256.5 -155t-291.5 -57.5zM855 18
q138 0 271.5 53.5t238.5 144t178.5 216t95.5 263.5t-12 263.5t-110 216t-193 144t-255 53.5t-271.5 -53.5t-238.5 -144t-178.5 -216t-95.5 -263.5t12 -263.5t110 -216t193 -144t255 -53.5z" />
    <glyph glyph-name="omacron" unicode="&#x14d;" horiz-adv-x="1200" vert-adv-y="2130" 
d="M997 1275l-8 -50h-390l8 50h390zM597 -20q-204 0 -316.5 144t-78.5 361q35 217 193 361t362 144t316.5 -144t78.5 -361q-35 -217 -193 -361t-362 -144zM605 30q182 0 324 130t173 325t-70 325t-283 130t-324 -130t-173 -325t70 -325t283 -130z" />
    <glyph glyph-name="Obreve" unicode="&#x14e;" horiz-adv-x="1704" vert-adv-y="2130" 
d="M1109 1620q-91 0 -148 62.5t-49 153.5h50q-5 -71 39.5 -118.5t115.5 -47.5t130.5 47.5t76.5 118.5h50q-20 -91 -97 -153.5t-168 -62.5zM847 -32q-148 0 -273.5 57.5t-207.5 155t-118.5 232t-12.5 282.5t102.5 282.5t191.5 232t256.5 155t291.5 57.5t273.5 -57.5
t207.5 -155t118.5 -232t12.5 -282.5t-102.5 -282.5t-191.5 -232t-256.5 -155t-291.5 -57.5zM855 18q138 0 271.5 53.5t238.5 144t178.5 216t95.5 263.5t-12 263.5t-110 216t-193 144t-255 53.5t-271.5 -53.5t-238.5 -144t-178.5 -216t-95.5 -263.5t12 -263.5t110 -216
t193 -144t255 -53.5z" />
    <glyph glyph-name="obreve" unicode="&#x14f;" horiz-adv-x="1200" vert-adv-y="2130" 
d="M790 1200q-91 0 -148 62.5t-49 153.5h50q-5 -71 39.5 -118.5t115.5 -47.5t130.5 47.5t76.5 118.5h50q-20 -91 -97 -153.5t-168 -62.5zM597 -20q-204 0 -316.5 144t-78.5 361q35 217 193 361t362 144t316.5 -144t78.5 -361q-35 -217 -193 -361t-362 -144zM605 30
q182 0 324 130t173 325t-70 325t-283 130t-324 -130t-173 -325t70 -325t283 -130z" />
    <glyph glyph-name="Ohungarumlaut" unicode="&#x150;" horiz-adv-x="1704" vert-adv-y="2130" 
d="M1089 1953l37 -26l-232 -272l-37 27zM1381 1953l37 -26l-232 -272l-37 27zM847 -32q-148 0 -273.5 57.5t-207.5 155t-118.5 232t-12.5 282.5t102.5 282.5t191.5 232t256.5 155t291.5 57.5t273.5 -57.5t207.5 -155t118.5 -232t12.5 -282.5t-102.5 -282.5t-191.5 -232
t-256.5 -155t-291.5 -57.5zM855 18q138 0 271.5 53.5t238.5 144t178.5 216t95.5 263.5t-12 263.5t-110 216t-193 144t-255 53.5t-271.5 -53.5t-238.5 -144t-178.5 -216t-95.5 -263.5t12 -263.5t110 -216t193 -144t255 -53.5z" />
    <glyph glyph-name="ohungarumlaut" unicode="&#x151;" horiz-adv-x="1200" vert-adv-y="2130" 
d="M771 1533l37 -26l-232 -272l-37 27zM1063 1533l37 -26l-232 -272l-37 27zM597 -20q-204 0 -316.5 144t-78.5 361q35 217 193 361t362 144t316.5 -144t78.5 -361q-35 -217 -193 -361t-362 -144zM605 30q182 0 324 130t173 325t-70 325t-283 130t-324 -130t-173 -325
t70 -325t283 -130z" />
    <glyph glyph-name="OE" unicode="&#x152;" horiz-adv-x="2690" vert-adv-y="2130" 
d="M847 -32q-148 0 -273.5 57.5t-207.5 155t-118.5 232t-12.5 282.5t102.5 282.5t191.5 232t256.5 155t291.5 57.5q227 0 391 -127t213 -332l67 427h1037l-8 -50h-987l-96 -606q-1 -5 -1 -14h926l-8 -50h-926q0 -1 -3 -14l-96 -606h987l-8 -50h-1037l68 427
q-114 -205 -318 -332t-431 -127zM855 18q178 0 343.5 85t281 232t152.5 323l12 74q18 176 -51 323t-207.5 232t-316.5 85q-138 0 -271.5 -53.5t-238.5 -144t-178.5 -216t-95.5 -263.5t12 -263.5t110 -216t193 -144t255 -53.5z" />
    <glyph glyph-name="oe" unicode="&#x153;" horiz-adv-x="2098" vert-adv-y="2130" 
d="M597 -20q-204 0 -316.5 144t-78.5 361q35 217 193 361t362 144q159 0 265.5 -91.5t130.5 -242.5q72 151 209 242.5t295 91.5q200 -1 311.5 -140t83.5 -350h-898l-2 -15l-5 -26q-20 -186 80.5 -307.5t276.5 -121.5q140 0 261.5 80.5t186.5 217.5l45 -16
q-72 -152 -208 -242t-293 -90q-160 0 -266.5 91.5t-129.5 242.5q-72 -151 -208 -242.5t-295 -91.5zM605 30q177 0 316 123.5t174 307.5l9 48q22 121 -19.5 220.5t-130 155t-205.5 55.5q-182 0 -324 -130t-173 -325t70 -325t283 -130zM1165 550h841q7 172 -93 281t-265 109
q-166 0 -301.5 -109t-181.5 -281z" />
    <glyph glyph-name="Racute" unicode="&#x154;" horiz-adv-x="1382" vert-adv-y="2130" 
d="M1099 1867l26 -38l-290 -208l-25 38zM256 510l-81 -510h-50l220 1390h691q183 0 291.5 -129t79.5 -312q-26 -166 -155 -290t-297 -145l269 -514h-60l-267 510h-641zM1028 1340h-641l-123 -780h675q155 14 274.5 125.5t143.5 263.5q26 162 -70.5 276.5t-258.5 114.5z" />
    <glyph glyph-name="racute" unicode="&#x155;" horiz-adv-x="685" vert-adv-y="2130" 
d="M684 1447l26 -38l-290 -208l-25 38zM276 629l-100 -629h-51l153 968h50l-24 -155q61 81 151 129t188 48q35 0 73 -8l-9 -51q-33 9 -71 9q-130 0 -235 -91t-125 -220z" />
    <glyph glyph-name="Rcaron" unicode="&#x158;" horiz-adv-x="1382" vert-adv-y="2130" 
d="M1174 1832l26 -38l-252 -170l-198 170l38 38l170 -146zM256 510l-81 -510h-50l220 1390h691q183 0 291.5 -129t79.5 -312q-26 -166 -155 -290t-297 -145l269 -514h-60l-267 510h-641zM1028 1340h-641l-123 -780h675q155 14 274.5 125.5t143.5 263.5q26 162 -70.5 276.5
t-258.5 114.5z" />
    <glyph glyph-name="rcaron" unicode="&#x159;" horiz-adv-x="700" vert-adv-y="2130" 
d="M767 1412l26 -38l-252 -170l-198 170l38 38l170 -146zM283 629l-100 -629h-51l153 968h50l-24 -155q61 81 151 129t188 48q35 0 73 -8l-9 -51q-33 9 -71 9q-130 0 -235 -91t-125 -220z" />
    <glyph glyph-name="Sacute" unicode="&#x15a;" horiz-adv-x="1369" vert-adv-y="2130" 
d="M1093 1867l26 -38l-290 -208l-25 38zM687 -32q-153 0 -273 48.5t-182.5 134t-52.5 189.5h54q-11 -138 120.5 -230t340.5 -92q140 0 261 43t199 120.5t93 173.5q21 130 -92.5 214.5t-357.5 122.5q-253 39 -369.5 130.5t-93.5 234.5q17 104 97 188t204 130.5t267 46.5
q141 0 252 -45.5t168.5 -126t49.5 -178.5h-53q10 129 -111 214.5t-313 85.5q-195 0 -340.5 -89t-166.5 -224q-19 -123 87 -204t326 -113q271 -40 397 -137.5t102 -248.5q-26 -167 -201.5 -277.5t-411.5 -110.5z" />
    <glyph glyph-name="sacute" unicode="&#x15b;" horiz-adv-x="1052" vert-adv-y="2130" 
d="M867 1447l26 -38l-290 -208l-25 38zM525 -20q-168 0 -270 73t-92 185h52q-5 -67 44 -116t121 -70.5t152 -21.5q61 0 123 13.5t118 40t95 71.5t48 102q5 35 -1 63t-32.5 50t-44 35.5t-69.5 29t-71.5 20.5t-85.5 19q-5 1 -8 2q-75 16 -118 27.5t-94.5 32.5t-76.5 44.5
t-39.5 60t-6.5 84.5q19 119 135 192t277 73q156 0 250.5 -68.5t85.5 -173.5h-52q5 84 -76 138t-210 54q-81 0 -155.5 -21t-133 -71t-69.5 -120q-5 -29 1 -53t16.5 -41.5t34.5 -32.5t43.5 -24.5t57.5 -20t62 -16t70 -14.5q53 -11 87.5 -19t78.5 -21.5t72 -27t57 -33.5t44 -43
t22 -54t1 -68q-19 -124 -144.5 -202t-298.5 -78z" />
    <glyph glyph-name="Scircumflex" unicode="&#x15c;" horiz-adv-x="1369" vert-adv-y="2130" 
d="M1138 1643l-170 145l-216 -145l-26 38l252 170l198 -170zM687 -32q-153 0 -273 48.5t-182.5 134t-52.5 189.5h54q-11 -138 120.5 -230t340.5 -92q140 0 261 43t199 120.5t93 173.5q21 130 -92.5 214.5t-357.5 122.5q-253 39 -369.5 130.5t-93.5 234.5q17 104 97 188
t204 130.5t267 46.5q141 0 252 -45.5t168.5 -126t49.5 -178.5h-53q10 129 -111 214.5t-313 85.5q-195 0 -340.5 -89t-166.5 -224q-19 -123 87 -204t326 -113q271 -40 397 -137.5t102 -248.5q-26 -167 -201.5 -277.5t-411.5 -110.5z" />
    <glyph glyph-name="scircumflex" unicode="&#x15d;" horiz-adv-x="1052" vert-adv-y="2130" 
d="M913 1223l-170 145l-216 -145l-26 38l252 170l198 -170zM525 -20q-168 0 -270 73t-92 185h52q-5 -67 44 -116t121 -70.5t152 -21.5q61 0 123 13.5t118 40t95 71.5t48 102q5 35 -1 63t-32.5 50t-44 35.5t-69.5 29t-71.5 20.5t-85.5 19q-5 1 -8 2q-75 16 -118 27.5
t-94.5 32.5t-76.5 44.5t-39.5 60t-6.5 84.5q19 119 135 192t277 73q156 0 250.5 -68.5t85.5 -173.5h-52q5 84 -76 138t-210 54q-81 0 -155.5 -21t-133 -71t-69.5 -120q-5 -29 1 -53t16.5 -41.5t34.5 -32.5t43.5 -24.5t57.5 -20t62 -16t70 -14.5q53 -11 87.5 -19t78.5 -21.5
t72 -27t57 -33.5t44 -43t22 -54t1 -68q-19 -124 -144.5 -202t-298.5 -78z" />
    <glyph glyph-name="Scedilla" unicode="&#x15e;" horiz-adv-x="1369" vert-adv-y="2130" 
d="M687 -32q-153 0 -273 48.5t-182.5 134t-52.5 189.5h54q-11 -138 120.5 -230t340.5 -92q140 0 261 43t199 120.5t93 173.5q21 130 -92.5 214.5t-357.5 122.5q-253 39 -369.5 130.5t-93.5 234.5q17 104 97 188t204 130.5t267 46.5q141 0 252 -45.5t168.5 -126t49.5 -178.5
h-53q10 129 -111 214.5t-313 85.5q-195 0 -340.5 -89t-166.5 -224q-19 -123 87 -204t326 -113q271 -40 397 -137.5t102 -248.5q-26 -167 -201.5 -277.5t-411.5 -110.5zM559 -320l5 30q56 7 98 50.5t46 99.5h-120l16 100h30l-11 -70h120l-8 -45q-10 -64 -60.5 -111.5
t-115.5 -53.5z" />
    <glyph glyph-name="scedilla" unicode="&#x15f;" horiz-adv-x="1052" vert-adv-y="2130" 
d="M525 -20q-168 0 -270 73t-92 185h52q-5 -67 44 -116t121 -70.5t152 -21.5q61 0 123 13.5t118 40t95 71.5t48 102q5 35 -1 63t-32.5 50t-44 35.5t-69.5 29t-71.5 20.5t-85.5 19q-5 1 -8 2q-75 16 -118 27.5t-94.5 32.5t-76.5 44.5t-39.5 60t-6.5 84.5q19 119 135 192
t277 73q156 0 250.5 -68.5t85.5 -173.5h-52q5 84 -76 138t-210 54q-81 0 -155.5 -21t-133 -71t-69.5 -120q-5 -29 1 -53t16.5 -41.5t34.5 -32.5t43.5 -24.5t57.5 -20t62 -16t70 -14.5q53 -11 87.5 -19t78.5 -21.5t72 -27t57 -33.5t44 -43t22 -54t1 -68q-19 -124 -144.5 -202
t-298.5 -78zM400 -320l5 30q56 7 98 50.5t46 99.5h-120l16 100h30l-11 -70h120l-8 -45q-10 -64 -60.5 -111.5t-115.5 -53.5z" />
    <glyph glyph-name="Scaron" unicode="&#x160;" horiz-adv-x="1369" vert-adv-y="2130" 
d="M1168 1832l26 -38l-252 -170l-198 170l38 38l170 -146zM687 -32q-153 0 -273 48.5t-182.5 134t-52.5 189.5h54q-11 -138 120.5 -230t340.5 -92q140 0 261 43t199 120.5t93 173.5q21 130 -92.5 214.5t-357.5 122.5q-253 39 -369.5 130.5t-93.5 234.5q17 104 97 188
t204 130.5t267 46.5q141 0 252 -45.5t168.5 -126t49.5 -178.5h-53q10 129 -111 214.5t-313 85.5q-195 0 -340.5 -89t-166.5 -224q-19 -123 87 -204t326 -113q271 -40 397 -137.5t102 -248.5q-26 -167 -201.5 -277.5t-411.5 -110.5z" />
    <glyph glyph-name="scaron" unicode="&#x161;" horiz-adv-x="1052" vert-adv-y="2130" 
d="M943 1412l26 -38l-252 -170l-198 170l38 38l170 -146zM525 -20q-168 0 -270 73t-92 185h52q-5 -67 44 -116t121 -70.5t152 -21.5q61 0 123 13.5t118 40t95 71.5t48 102q5 35 -1 63t-32.5 50t-44 35.5t-69.5 29t-71.5 20.5t-85.5 19q-5 1 -8 2q-75 16 -118 27.5
t-94.5 32.5t-76.5 44.5t-39.5 60t-6.5 84.5q19 119 135 192t277 73q156 0 250.5 -68.5t85.5 -173.5h-52q5 84 -76 138t-210 54q-81 0 -155.5 -21t-133 -71t-69.5 -120q-5 -29 1 -53t16.5 -41.5t34.5 -32.5t43.5 -24.5t57.5 -20t62 -16t70 -14.5q53 -11 87.5 -19t78.5 -21.5
t72 -27t57 -33.5t44 -43t22 -54t1 -68q-19 -124 -144.5 -202t-298.5 -78z" />
    <glyph glyph-name="Utilde" unicode="&#x168;" vert-adv-y="2130" 
d="M816 1698l-41 -36l-29 35l41 35q110 95 190 0q52 -60 122 0l41 36l29 -35l-41 -35q-110 -95 -190 0q-52 60 -122 0zM681 -32q-152 0 -269.5 75t-172 204.5t-30.5 281.5l136 861h50l-136 -861q-22 -139 27.5 -256.5t156.5 -186t246 -68.5t267.5 68.5t215.5 186t109 256.5
l136 861h50l-136 -861q-24 -152 -119.5 -281.5t-237 -204.5t-293.5 -75z" />
    <glyph glyph-name="utilde" unicode="&#x169;" horiz-adv-x="973" vert-adv-y="2130" 
d="M550 1278l-40 -36l-30 35l42 35q109 96 190 0q51 -60 122 0l41 36l29 -35l-42 -35q-109 -96 -190 0q-51 60 -122 0zM484 -21q-151 0 -240 105.5t-65 255.5l99 629h50l-99 -629q-20 -129 56.5 -220t205.5 -91q130 0 235.5 91t125.5 220l99 629h50l-153 -968h-50l25 155
q-61 -81 -151 -129t-188 -48z" />
    <glyph glyph-name="Umacron" unicode="&#x16a;" vert-adv-y="2130" 
d="M1149 1695l-7 -50h-390l7 50h390zM681 -32q-152 0 -269.5 75t-172 204.5t-30.5 281.5l136 861h50l-136 -861q-22 -139 27.5 -256.5t156.5 -186t246 -68.5t267.5 68.5t215.5 186t109 256.5l136 861h50l-136 -861q-24 -152 -119.5 -281.5t-237 -204.5t-293.5 -75z" />
    <glyph glyph-name="umacron" unicode="&#x16b;" horiz-adv-x="973" vert-adv-y="2130" 
d="M884 1275l-8 -50h-390l8 50h390zM484 -21q-151 0 -240 105.5t-65 255.5l99 629h50l-99 -629q-20 -129 56.5 -220t205.5 -91q130 0 235.5 91t125.5 220l99 629h50l-153 -968h-50l25 155q-61 -81 -151 -129t-188 -48z" />
    <glyph glyph-name="Ubreve" unicode="&#x16c;" vert-adv-y="2130" 
d="M943 1620q-91 0 -148 62.5t-49 153.5h50q-5 -71 39.5 -118.5t115.5 -47.5t130.5 47.5t76.5 118.5h50q-20 -91 -97 -153.5t-168 -62.5zM681 -32q-152 0 -269.5 75t-172 204.5t-30.5 281.5l136 861h50l-136 -861q-22 -139 27.5 -256.5t156.5 -186t246 -68.5t267.5 68.5
t215.5 186t109 256.5l136 861h50l-136 -861q-24 -152 -119.5 -281.5t-237 -204.5t-293.5 -75z" />
    <glyph glyph-name="ubreve" unicode="&#x16d;" horiz-adv-x="973" vert-adv-y="2130" 
d="M677 1200q-91 0 -148 62.5t-49 153.5h50q-5 -71 39.5 -118.5t115.5 -47.5t130.5 47.5t76.5 118.5h50q-20 -91 -97 -153.5t-168 -62.5zM484 -21q-151 0 -240 105.5t-65 255.5l99 629h50l-99 -629q-20 -129 56.5 -220t205.5 -91q130 0 235.5 91t125.5 220l99 629h50
l-153 -968h-50l25 155q-61 -81 -151 -129t-188 -48z" />
    <glyph glyph-name="Uring" unicode="&#x16e;" vert-adv-y="2130" 
d="M941 1608q-60 0 -96 42.5t-26 102.5q9 60 58.5 102.5t109.5 42.5t95.5 -42.5t26.5 -102.5q-10 -60 -59 -102.5t-109 -42.5zM949 1658q39 0 71 28t39 67q6 39 -17.5 67t-62.5 28t-71.5 -28t-38.5 -67q-7 -39 17 -67t63 -28zM681 -32q-152 0 -269.5 75t-172 204.5
t-30.5 281.5l136 861h50l-136 -861q-22 -139 27.5 -256.5t156.5 -186t246 -68.5t267.5 68.5t215.5 186t109 256.5l136 861h50l-136 -861q-24 -152 -119.5 -281.5t-237 -204.5t-293.5 -75z" />
    <glyph glyph-name="uring" unicode="&#x16f;" horiz-adv-x="973" vert-adv-y="2130" 
d="M675 1188q-60 0 -96 42.5t-26 102.5t59 102.5t109 42.5t96 -42.5t26 -102.5t-59 -102.5t-109 -42.5zM683 1238q39 0 71.5 28t38.5 67t-17.5 67t-62.5 28t-71.5 -28t-38.5 -67t17.5 -67t62.5 -28zM484 -21q-151 0 -240 105.5t-65 255.5l99 629h50l-99 -629
q-20 -129 56.5 -220t205.5 -91q130 0 235.5 91t125.5 220l99 629h50l-153 -968h-50l25 155q-61 -81 -151 -129t-188 -48z" />
    <glyph glyph-name="Uhungarumlaut" unicode="&#x170;" vert-adv-y="2130" 
d="M923 1953l37 -26l-232 -272l-37 27zM1215 1953l37 -26l-232 -272l-37 27zM681 -32q-152 0 -269.5 75t-172 204.5t-30.5 281.5l136 861h50l-136 -861q-22 -139 27.5 -256.5t156.5 -186t246 -68.5t267.5 68.5t215.5 186t109 256.5l136 861h50l-136 -861
q-24 -152 -119.5 -281.5t-237 -204.5t-293.5 -75z" />
    <glyph glyph-name="uhungarumlaut" unicode="&#x171;" horiz-adv-x="973" vert-adv-y="2130" 
d="M658 1533l37 -26l-232 -272l-37 27zM950 1533l37 -26l-232 -272l-37 27zM484 -21q-151 0 -240 105.5t-65 255.5l99 629h50l-99 -629q-20 -129 56.5 -220t205.5 -91q130 0 235.5 91t125.5 220l99 629h50l-153 -968h-50l25 155q-61 -81 -151 -129t-188 -48z" />
    <glyph glyph-name="Wcircumflex" unicode="&#x174;" horiz-adv-x="2221" vert-adv-y="2130" 
d="M1559 1643l-170 145l-216 -145l-26 38l252 170l198 -170zM1584 0l-265 1315l-682 -1315l-283 1388h50l256 -1242l648 1242h45l254 -1242l650 1242h50z" />
    <glyph glyph-name="wcircumflex" unicode="&#x175;" horiz-adv-x="1546" vert-adv-y="2130" 
d="M1160 1223l-170 145l-216 -145l-26 38l252 170l198 -170zM1086 0l-166 922l-459 -922l-176 970h43l152 -850l426 850h43l156 -850l422 850h42z" />
    <glyph glyph-name="Ycircumflex" unicode="&#x176;" horiz-adv-x="1456" vert-adv-y="2130" 
d="M1211 1643l-170 145l-216 -145l-26 38l252 170l198 -170zM869 542l-86 -542h-50l86 542l-460 848h63l429 -802l683 802h63z" />
    <glyph glyph-name="ycircumflex" unicode="&#x177;" horiz-adv-x="1148" vert-adv-y="2130" 
d="M961 1223l-170 145l-216 -145l-26 38l252 170l198 -170zM1168 970l-872 -1400h-42l310 494l-276 906h55l249 -855l521 855h55z" />
    <glyph glyph-name="Ydieresis" unicode="&#x178;" horiz-adv-x="1456" vert-adv-y="2130" 
d="M878 1641q-20 0 -32 14.5t-8 33.5q3 20 19.5 34t35.5 14q20 0 32 -14.5t9 -33.5q-4 -20 -20.5 -34t-35.5 -14zM1159 1641q-20 0 -32 14.5t-8 33.5q3 20 19.5 34t35.5 14q20 0 32 -14.5t9 -33.5q-4 -20 -20.5 -34t-35.5 -14zM869 542l-86 -542h-50l86 542l-460 848h63
l429 -802l683 802h63z" />
    <glyph glyph-name="Zacute" unicode="&#x179;" horiz-adv-x="1504" vert-adv-y="2130" 
d="M1160 1867l26 -38l-290 -208l-25 38zM1321 50l-8 -50h-1171l1326 1340h-1045l8 50h1151l-1326 -1340h1065z" />
    <glyph glyph-name="zacute" unicode="&#x17a;" horiz-adv-x="1012" vert-adv-y="2130" 
d="M847 1447l26 -38l-290 -208l-25 38zM895 50l-8 -50h-762l9 59l844 861h-667l8 50h722l-10 -59l-843 -861h707z" />
    <glyph glyph-name="Zdotaccent" unicode="&#x17b;" horiz-adv-x="1504" vert-adv-y="2130" 
d="M1017 1674q-19 0 -31 14t-9 34t19.5 34t35.5 14q20 0 32 -14.5t9 -33.5t-19.5 -33.5t-36.5 -14.5zM1321 50l-8 -50h-1171l1326 1340h-1045l8 50h1151l-1326 -1340h1065z" />
    <glyph glyph-name="zdotaccent" unicode="&#x17c;" horiz-adv-x="1012" vert-adv-y="2130" 
d="M705 1254q-20 0 -32 14.5t-9 33.5t19.5 33.5t36.5 14.5q19 0 31 -14t9 -34t-19.5 -34t-35.5 -14zM895 50l-8 -50h-762l9 59l844 861h-667l8 50h722l-10 -59l-843 -861h707z" />
    <glyph glyph-name="Zcaron" unicode="&#x17d;" horiz-adv-x="1504" vert-adv-y="2130" 
d="M1235 1832l26 -38l-252 -170l-198 170l38 38l170 -146zM1321 50l-8 -50h-1171l1326 1340h-1045l8 50h1151l-1326 -1340h1065z" />
    <glyph glyph-name="zcaron" unicode="&#x17e;" horiz-adv-x="1012" vert-adv-y="2130" 
d="M923 1412l26 -38l-252 -170l-198 170l38 38l170 -146zM895 50l-8 -50h-762l9 59l844 861h-667l8 50h722l-10 -59l-843 -861h707z" />
    <glyph glyph-name="circumflex" unicode="&#x2c6;" horiz-adv-x="952" vert-adv-y="2130" 
d="M863 1223l-170 145l-216 -145l-26 38l252 170l198 -170z" />
    <glyph glyph-name="caron" unicode="&#x2c7;" horiz-adv-x="952" vert-adv-y="2130" 
d="M893 1412l26 -38l-252 -170l-198 170l38 38l170 -146z" />
    <glyph glyph-name="breve" unicode="&#x2d8;" horiz-adv-x="952" vert-adv-y="2130" 
d="M666 1200q-91 0 -148 62.5t-49 153.5h50q-5 -71 39.5 -118.5t115.5 -47.5t130.5 47.5t76.5 118.5h50q-20 -91 -97 -153.5t-168 -62.5z" />
    <glyph glyph-name="dotaccent" unicode="&#x2d9;" horiz-adv-x="400" vert-adv-y="2130" 
d="M399 1254q-20 0 -32 14.5t-9 33.5t19.5 33.5t36.5 14.5q19 0 31 -14t9 -34t-19.5 -34t-35.5 -14z" />
    <glyph glyph-name="ring" unicode="&#x2da;" horiz-adv-x="780" vert-adv-y="2130" 
d="M578 1188q-60 0 -96 42.5t-26 102.5t59 102.5t109 42.5t96 -42.5t26 -102.5t-59 -102.5t-109 -42.5zM586 1238q39 0 71.5 28t38.5 67t-17.5 67t-62.5 28t-71.5 -28t-38.5 -67t17.5 -67t62.5 -28z" />
    <glyph glyph-name="tilde" unicode="&#x2dc;" horiz-adv-x="920" vert-adv-y="2130" 
d="M523 1278l-40 -36l-30 35l42 35q109 96 190 0q51 -60 122 0l41 36l29 -35l-42 -35q-109 -96 -190 0q-51 60 -122 0z" />
    <glyph glyph-name="hungarumlaut" unicode="&#x2dd;" horiz-adv-x="864" vert-adv-y="2130" 
d="M603 1533l37 -26l-232 -272l-37 27zM895 1533l37 -26l-232 -272l-37 27z" />
    <glyph glyph-name="Wgrave" unicode="&#x1e80;" horiz-adv-x="2221" vert-adv-y="2130" 
d="M1301 1867l224 -208l-38 -38l-223 208zM1584 0l-265 1315l-682 -1315l-283 1388h50l256 -1242l648 1242h45l254 -1242l650 1242h50z" />
    <glyph glyph-name="wgrave" unicode="&#x1e81;" horiz-adv-x="1546" vert-adv-y="2130" 
d="M889 1447l224 -208l-38 -38l-223 208zM1086 0l-166 922l-459 -922l-176 970h43l152 -850l426 850h43l156 -850l422 850h42z" />
    <glyph glyph-name="Wacute" unicode="&#x1e82;" horiz-adv-x="2221" vert-adv-y="2130" 
d="M1482 1867l26 -38l-290 -208l-25 38zM1586 15l-268 1292l-679 -1292l-287 1364h50l260 -1221l644 1221h45l258 -1221l646 1221h50z" />
    <glyph glyph-name="wacute" unicode="&#x1e83;" horiz-adv-x="1546" vert-adv-y="2130" 
d="M1114 1447l26 -38l-290 -208l-25 38zM1086 0l-166 922l-459 -922l-176 970h43l152 -850l426 850h43l156 -850l422 850h42z" />
    <glyph glyph-name="Wdieresis" unicode="&#x1e84;" horiz-adv-x="2221" vert-adv-y="2130" 
d="M1233 1641q-20 0 -32 14.5t-8 33.5q3 20 19.5 34t35.5 14q20 0 32 -14.5t9 -33.5q-4 -20 -20.5 -34t-35.5 -14zM1514 1641q-20 0 -32 14.5t-8 33.5q3 20 19.5 34t35.5 14q20 0 32 -14.5t9 -33.5q-4 -20 -20.5 -34t-35.5 -14zM1584 0l-265 1315l-682 -1315l-283 1388h50
l256 -1242l648 1242h45l254 -1242l650 1242h50z" />
    <glyph glyph-name="wdieresis" unicode="&#x1e85;" horiz-adv-x="1546" vert-adv-y="2130" 
d="M826 1221q-19 0 -31 14t-9 34q3 19 19.5 33.5t36.5 14.5q19 0 31 -14t9 -34q-3 -19 -19.5 -33.5t-36.5 -14.5zM1107 1221q-19 0 -31 14t-9 34q3 19 19.5 33.5t36.5 14.5q19 0 31 -14t9 -34q-3 -19 -19.5 -33.5t-36.5 -14.5zM1086 0l-166 922l-459 -922l-176 970h43
l152 -850l426 850h43l156 -850l422 850h42z" />
    <glyph glyph-name="endash" unicode="&#x2013;" horiz-adv-x="1132" vert-adv-y="2130" 
d="M1044 560l-8 -50h-778l8 50h778z" />
    <glyph glyph-name="emdash" unicode="&#x2014;" horiz-adv-x="1732" vert-adv-y="2130" 
d="M1644 560l-8 -50h-1378l8 50h1378z" />
    <glyph glyph-name="quoteleft" unicode="&#x2018;" horiz-adv-x="418" vert-adv-y="2130" 
d="M467 1389l32 -227h-55l-55 227h78z" />
    <glyph glyph-name="quoteright" unicode="&#x2019;" horiz-adv-x="402" vert-adv-y="2130" 
d="M475 1389l-127 -227h-55l104 227h78z" />
    <glyph glyph-name="quotesinglbase" unicode="&#x201a;" horiz-adv-x="426" vert-adv-y="2130" 
d="M295 250l-127 -227h-55l104 227h78z" />
    <glyph glyph-name="quotedblleft" unicode="&#x201c;" horiz-adv-x="590" vert-adv-y="2130" 
d="M384 1389l55 -227h-78l-32 227h55zM564 1389l55 -227h-78l-32 227h55z" />
    <glyph glyph-name="quotedblright" unicode="&#x201d;" horiz-adv-x="574" vert-adv-y="2130" 
d="M475 1389l-127 -227h-55l104 227h78zM655 1389l-127 -227h-55l104 227h78z" />
    <glyph glyph-name="quotedblbase" unicode="&#x201e;" horiz-adv-x="600" vert-adv-y="2130" 
d="M295 250l-127 -227h-55l104 227h78zM475 250l-127 -227h-55l104 227h78z" />
    <glyph glyph-name="dagger" unicode="&#x2020;" horiz-adv-x="776" vert-adv-y="2130" 
d="M584 1080l-76 -480h-50l76 480h-204l8 50h204l41 260h50l-41 -260h204l-8 -50h-204z" />
    <glyph glyph-name="daggerdbl" unicode="&#x2021;" horiz-adv-x="784" vert-adv-y="2130" 
d="M458 260l-41 -260h-50l41 260h-204l8 50h204l122 770h-204l8 50h204l41 260h50l-41 -260h204l-8 -50h-204l-122 -770h204l-8 -50h-204z" />
    <glyph glyph-name="bullet" unicode="&#x2022;" horiz-adv-x="684" vert-adv-y="2130" 
d="M435 590q-43 0 -69 30.5t-19 74.5q7 43 42.5 74t79.5 31q43 0 69 -30.5t19 -74.5q-7 -43 -42.5 -74t-79.5 -31z" />
    <glyph glyph-name="ellipsis" unicode="&#x2026;" horiz-adv-x="1056" vert-adv-y="2130" 
d="M207 0q-20 0 -32 14.5t-8 33.5q3 20 19.5 34t35.5 14q20 0 32 -14.5t9 -33.5q-4 -20 -20.5 -34t-35.5 -14zM528 0q-20 0 -32 14.5t-8 33.5q3 20 19.5 34t35.5 14q20 0 32 -14.5t9 -33.5q-4 -20 -20.5 -34t-35.5 -14zM845 0q-20 0 -32 14.5t-8 33.5q3 20 19.5 34t35.5 14
q20 0 32 -14.5t9 -33.5q-4 -20 -20.5 -34t-35.5 -14z" />
    <glyph glyph-name="guilsinglleft" unicode="&#x2039;" horiz-adv-x="724" vert-adv-y="2130" 
d="M287 493l293 -348l-41 -35l-322 383l444 383l29 -35z" />
    <glyph glyph-name="guilsinglright" unicode="&#x203a;" horiz-adv-x="724" vert-adv-y="2130" 
d="M341 876l322 -383l-444 -383l-29 35l403 348l-293 348z" />
    <glyph glyph-name="fraction" unicode="&#x2044;" horiz-adv-x="1496" vert-adv-y="2130" 
d="M1639 1394l24 -29l-1586 -1369l-24 29z" />
    <glyph glyph-name="Euro" unicode="&#x20ac;" horiz-adv-x="1378" vert-adv-y="1700" 
d="M797 -32q-205 0 -329 133t-140 369h-117l8 50h109q0 94 13 175q15 92 43 175h-109l8 50h117q91 239 258 370.5t370 131.5q256 0 386 -208l-40 -34q-120 192 -355 192q-185 0 -335 -118.5t-233 -333.5h610l-8 -50h-620q-27 -81 -42 -175q-16 -103 -13 -175h619l-8 -50
h-610q16 -215 129 -333.5t297 -118.5q234 0 415 192l30 -34q-200 -208 -453 -208z" />
    <glyph glyph-name="trademark" unicode="&#x2122;" horiz-adv-x="1262" vert-adv-y="2130" 
d="M1063 972l54 335l-241 -336l-135 336l-52 -335h-28l66 414l12 3l145 -365l260 365l13 -3l-66 -414h-28zM529 1355l-61 -383h-32l61 383h-159l5 32h350l-5 -32h-159z" />
    <glyph glyph-name="minus" unicode="&#x2212;" horiz-adv-x="1124" vert-adv-y="2130" 
d="M1036 660l-8 -50h-738l8 50h738z" />
    <glyph glyph-name="uniF8FF" unicode="&#xf8ff;" horiz-adv-x="1980" vert-adv-y="2130" 
d="M1860 1615v-1869h-1740v1869h1740zM1266 1384h-890v-1194h203v344h687v183h-687v491h687v176zM1398 375h-685v-185h888v1194h-203v-334h-685v-190h685v-485zM559 -2q30 0 50.5 19.5t20.5 49.5t-20.5 49.5t-50.5 19.5t-51 -19.5t-21 -49.5t21 -49.5t51 -19.5zM1095 -2
q22 0 37.5 11t15.5 30q0 14 -6 22q-4 6 -15 13q-9 5 -24 8q-25 5 -25 16q0 9 14 9q17 0 43 -14l13 28q-28 15 -53 15q-22 0 -37.5 -10.5t-15.5 -31.5q0 -13 6 -20q3 -6 15 -12l24 -8l9 -3q8 -3 13 -5q3 -3 3 -8q0 -6 -6 -8q-6 -3 -11 -3q-27 0 -48 21l-14 -28q27 -22 62 -22
zM1402 -2q29 0 56 25l-21 21q-15 -15 -32 -15q-21 0 -31 19q-5 6 -5 16q0 20 10 31t25 11q22 0 33 -18l20 25q-20 23 -52 23q-31 0 -51.5 -19.5t-20.5 -49.5q0 -29 20 -49t49 -20zM480 134h-99v-134h35v48h58v28h-58v30h64v28zM678 134h-31v-134h33v80l60 -80h29v134h-32
l1 -81zM785 105h39v-105h33v105h41v29h-113v-29zM976 134h-35l-56 -134h34l10 23h57l9 -23h37zM1154 105h39v-105h35v105h40v29h-114v-29zM1316 134h-34v-134h34v134zM1550 134h-36l-57 -134h36l8 23h59l8 -23h37zM559 28q-16 0 -26 11.5t-10 27.5t10 27.5t26 11.5
q23 0 31 -20q4 -10 4 -19q0 -16 -10 -27.5t-25 -11.5zM959 98l17 -48h-37zM1530 98l19 -48h-37zM671 -342v-69h-23v69h-13v12l13 6v6q0 15 7 22q7 6 23 6q13 0 22 -3l-6 -18q-4 2 -13 2q-5 0 -7 -3q-3 -2 -3 -7v-5h21v-18h-21zM1233 -314q-12 0 -12 12t12 12q13 0 13 -12
q0 -6 -3 -9t-10 -3zM938 -412q-14 0 -21 6q-6 8 -6 22v42h-11v10l12 8l7 19h16v-19h24v-18h-24v-42q0 -3 2 -7q4 -2 8 -2q3 0 15 2v-18q-9 -3 -22 -3zM1183 -412q-15 0 -21 6q-7 7 -7 22v42h-12v10l14 8l7 19h14v-19h25v-18h-25v-42q0 -4 4 -7q4 -2 7 -2t15 2v-18
q-9 -3 -21 -3zM998 -412q-12 0 -19 6q-8 8 -8 21q0 14 11 21q8 6 29 7h14v4q0 13 -13 13q-10 0 -24 -6l-8 16q16 8 33 8q16 0 27 -8q9 -8 9 -23v-58h-17l-4 11h-1q-8 -8 -12 -10t-17 -2zM1373 -412q-13 0 -20 6q-7 7 -7 21t10 21q8 5 29 7h15v4q0 13 -13 13q-11 0 -25 -6
l-8 16q16 8 34 8q15 0 26 -8q9 -8 9 -23v-58h-17l-4 11h-1q-5 -7 -11 -10q-4 -2 -17 -2zM742 -412q-13 0 -22 5q-9 4 -15 16q-5 12 -5 23q0 20 11 34q11 11 31 11q14 0 22 -5q10 -4 16 -16q5 -10 5 -24q0 -20 -12 -33q-10 -11 -31 -11zM827 -371v-40h-24v87h19l3 -11h1
q5 7 12 9q6 3 15 3q16 0 23 -8q8 -8 8 -23v-57h-24v51q0 10 -3 14t-11 4q-10 0 -14 -6q-5 -8 -5 -23zM1097 -412q-12 0 -16 1l-12 3v20q2 -1 7 -2.5t7 -2.5l15 -3q13 0 13 8q0 3 -2 5l-6 4q-1 0 -5 2t-7 3q-7 2 -14 7q-5 5 -6 9q-2 3 -2 11q0 13 8 18q9 6 26 6t30 -6l-7 -18
l-12 5q-4 1 -12 1q-11 0 -11 -5q0 -4 4 -5q5 -3 15 -7l15 -7l7 -9q2 -6 2 -11q0 -13 -9 -21q-11 -6 -28 -6zM1305 -412q-41 0 -41 43q0 21 12 35q10 11 31 11q15 0 27 -5l-6 -19q-3 1 -7 3l-4 1q-1 0 -4.5 0.5t-5.5 0.5q-18 0 -18 -26q0 -25 18 -25q5 0 13 2q6 2 12 5v-20
q-2 -2 -12 -5q-4 -1 -15 -1zM1528 -412q-40 0 -40 43q0 24 10 35q11 11 33 11q13 0 26 -5l-7 -19l-10 4q-2 0 -5 0.5t-4 0.5q-19 0 -19 -26q0 -25 19 -25q4 0 12 2q6 1 11 5v-20q-3 -3 -11 -5q-4 -1 -15 -1zM1611 -412q-13 0 -21 5q-11 5 -15 16q-5 9 -5 23q0 21 10 34
q11 11 31 11q15 0 23 -5q11 -6 15 -16q5 -10 5 -24q0 -20 -12 -33q-10 -11 -31 -11zM1697 -371v-40h-24v87h18l3 -11h2q3 7 10 9q6 3 15 3q20 0 26 -12h2q5 6 10 9q7 3 18 3q14 0 21 -7t7 -24v-57h-24v51q0 10 -3 14t-10 4q-8 0 -13 -6q-4 -5 -4 -20v-43h-24v51q0 10 -3 14
t-10 4q-9 0 -13 -6q-4 -7 -4 -23zM245 -343l-15 -68h-26l-24 87h23l10 -38q1 -2 5 -29q0 6 3 18l1 8l11 41h27l9 -41q1 -2 1 -6q0 -1 1 -3.5t1 -3.5q0 -5 1 -7v-6h1q0 3 2 15l2 14l12 38h23l-25 -87h-26l-7 30l-9 38h-1zM382 -343l-17 -68h-24l-25 87h23l10 -38q4 -16 5 -29
h1q0 2 2 18l1 8l12 41h25l11 -41q0 -4 1 -6l1 -7q0 -2 0.5 -4t0.5 -3q0 -2 0.5 -3.5t0.5 -2.5q0 3 2 15q1 3 2 8t1 6l10 38h23l-25 -87h-26l-6 30zM518 -343l-16 -68h-26l-25 87h24l11 -38q0 -2 1.5 -12t2.5 -17h1q0 6 3 18l1 8l10 41h26l10 -41q0 -1 0.5 -3t0.5 -3t1 -3.5
t1 -3.5q1 -3 1 -7q1 -3 1 -6l3 15l2 14l10 38h24l-25 -87h-26l-7 30l-8 38h-1zM1245 -324v-87h-23v87h23zM742 -393q10 0 14 6q4 5 4 19q0 15 -4 20q-4 6 -14 6t-13 -6q-4 -5 -4 -20q0 -12 4 -19q3 -6 13 -6zM1611 -393q11 0 14 6q4 5 4 19q0 15 -4 20q-3 6 -14 6
q-9 0 -13 -6q-4 -5 -4 -20q0 -12 4 -19q4 -6 13 -6zM1008 -396q5 0 13 6q4 4 4 12v7h-8q-13 -2 -16 -4q-5 -3 -5 -10q0 -11 12 -11zM1381 -396q8 0 14 6q5 5 5 12v7h-9q-12 -2 -16 -4q-5 -3 -5 -10q0 -11 11 -11zM609 -413q-5 0 -11 3q-3 4 -3 10q0 7 3 10q6 3 11 3
q7 0 10 -3t3 -10q0 -6 -3 -10q-5 -3 -10 -3zM1458 -413q-6 0 -10 3q-3 5 -3 10q0 7 3 10t10 3q6 0 10 -3q4 -4 4 -10q0 -4 -4 -10q-5 -3 -10 -3z" />
    <glyph glyph-name="_Fontastica" horiz-adv-x="1458" vert-adv-y="2130" 
d="M322 521v-340h-196q-3 0 -4.5 2t-1.5 4v2v1178h884v-174h-682v-490h682v-182h-682zM1338 1367v-1186h-884v184h682v482h-682v188h682v332h202zM836 -1q-35 0 -61 21l14 28q7 -8 21.5 -14.5t24.5 -6.5q8 0 14 3q5 2 5 8q0 5 -4 8q-11 6 -22 9q-18 5 -24 8q-9 3 -14 10
q-6 8 -6 20q0 22 15.5 32.5t36.5 10.5q26 0 53 -15l-13 -28q-23 14 -41 14q-15 0 -15 -9q0 -10 24 -17q19 -4 24 -7q11 -7 15 -12q6 -9 6 -22q0 -20 -15.5 -30.5t-37.5 -10.5zM302 -2q-30 0 -50.5 19.5t-20.5 49.5t20.5 49t50.5 19t50.5 -19t20.5 -49t-20 -49.5t-51 -19.5z
M1143 -2q-29 0 -48.5 20t-19.5 49q0 30 20 49t50 19q33 0 53 -23l-20 -24q-13 18 -33 18q-15 0 -25.5 -10.5t-10.5 -29.5q0 -10 5 -18q12 -19 32 -19q19 0 32 15l21 -21q-27 -25 -56 -25zM159 48v-47h-34v132h99v-27h-65v-30h59v-28h-59zM423 80v-79h-33v132h30l61 -79
l-1 79h33v-132h-30zM600 105v-104h-33v104h-40v28h114v-28h-41zM671 24l-9 -23h-35l56 132h35l56 -132h-36l-10 23h-57zM970 105v-104h-36v104h-38v28h112v-28h-38zM1057 133v-132h-34v132h34zM1242 24l-9 -23h-35l56 132h36l55 -132h-37l-9 23h-57zM302 27q16 0 26 12
t10 27q0 5 -5 20q-7 20 -30 20q-16 0 -26.5 -11.5t-10.5 -27.5t10.5 -28t25.5 -12zM717 50l-16 48l-20 -48h36zM1289 50l-18 48l-18 -48h36z" />
    <glyph glyph-name="_VendorID" horiz-adv-x="1123" vert-adv-y="2130" 
d="M779 772q-104 0 -168 53.5t-53 127.5h73q-16 -44 29.5 -78.5t118.5 -34.5q62 0 105 26.5t43 65.5q0 68 -155 91q-99 15 -150 54.5t-51 98.5q0 66 58 109.5t145 43.5q96 0 158 -51.5t50 -122.5h-74q17 40 -24.5 72.5t-109.5 32.5q-56 0 -94.5 -24t-38.5 -58q0 -66 140 -86
q106 -15 161.5 -56t55.5 -104q0 -69 -62.5 -114.5t-156.5 -45.5zM190 1016v-233h-70v535h413v-69h-343v-164h323v-69h-323zM780 143q-103 0 -168 53t-54 128h73q-16 -43 29.5 -77t118.5 -34q62 0 105 25.5t43 63.5q0 70 -152 93q-100 14 -152 53.5t-52 99.5q0 66 58.5 109.5
t145.5 43.5q96 0 157 -51.5t50 -122.5h-74q17 40 -24.5 72.5t-108.5 32.5q-56 0 -95 -24t-39 -59q0 -64 139 -84q218 -32 218 -162q0 -69 -62 -114.5t-156 -45.5zM190 387v-233h-70v535h413v-68h-343v-164h323v-70h-323zM392 98v-37h-12v37h-7v7l7 3v3q0 8 5 11q0 4 11 4
q9 0 13 -2l-4 -10q-3 1 -8 1q-3 0 -4 -1q-1 -2 -1 -4v-2h11v-10h-11zM695 113q-7 0 -7 6q0 7 7 7t7 -7q0 -4 -1 -5q-1 0 -3 -0.5t-3 -0.5zM536 60q-6 0 -12 4q-4 4 -4 12v22h-4v5l5 5l5 9h8v-9h13v-10h-13v-22q0 -2 2 -4q2 -1 4 -1q1 0 3.5 0.5t4.5 0.5v-10q-8 -2 -12 -2z
M668 60q-8 0 -12 4q-3 2 -3 12v22h-7v5l7 5l4 9h8v-9h14v-10h-14v-22q0 -3 2 -4l4 -1l8 1v-10q-4 -2 -11 -2zM568 60q-4 0 -10 4q-5 3 -5 11q0 7 7 11q2 2 16 4h6v2q0 7 -6 7t-13 -3l-5 9q12 4 19 4q4 0 14 -4q4 -4 4 -13v-31h-9l-2 5h-1q-1 0 -2.5 -2t-2.5 -2q-2 -2 -10 -2
zM771 60q-4 0 -12 4q-4 3 -4 11q0 7 6 11q1 2 16 4h8v2q0 7 -7 7q-6 0 -15 -3l-3 9q10 4 18 4q4 0 14 -4q5 -4 5 -13v-31h-10l-1 5h-1l-6 -4q-2 -2 -8 -2zM944 82v-21h-12v47h9l2 -6h1q1 2 4 4t9 2q12 0 15 -6h1q2 4 5 4q6 2 8 2q9 0 12 -3q5 -4 5 -14v-30h-13v28q0 3 -2 7
q-2 2 -6 2t-7 -3q-2 -4 -2 -11v-23h-13v28q0 3 -2 7q-1 2 -4 2q-6 0 -8 -3q-2 -6 -2 -13zM163 97l-8 -36h-14l-13 47h13l5 -20l3 -16q0 5 1 8l1 6l5 22h15l5 -22q1 -2 1 -4v-4q0 -1 1 -3v-3q0 3 2 7q0 2 0.5 5t0.5 4l7 20h12l-13 -47h-15l-4 16l-4 20h-1zM237 97l-10 -36
h-12l-14 47h13l5 -20q2 -12 2 -16h1q0 1 0.5 3.5t0.5 4.5l1 6l6 22h13l7 -22v-8v-1q1 -1 1 -2v-3q0 3 2 7q0 7 1 9l5 20h14l-15 -47h-13l-4 16zM310 97l-10 -36h-13l-12 47h12l5 -20q0 -3 1 -8t1 -8h1q0 2 2 8l1 6l4 22h16l4 -22v-2l1 -2q0 -1 1 -2v-2v-3q1 -2 1 -3q0 5 1 7
q0 2 0.5 5t0.5 4l7 20h12l-13 -47h-14l-4 16l-4 20h-1zM430 60q-7 0 -12 4q-4 1 -8 8q-1 4 -1 12q0 13 5 19q7 5 16 5t13 -2q6 -4 8 -9q2 -8 2 -13q0 -9 -6 -18q-5 -6 -17 -6zM477 82v-21h-14v47h10l2 -6h1q2 4 6 4q2 2 8 2q9 0 12 -4q5 -2 5 -13v-30h-13v28q0 5 -1 7
q-4 2 -8 2q-3 0 -6 -3q-2 -3 -2 -13zM621 60q-6 0 -8 1q-1 1 -3.5 1t-3.5 1v10q1 0 4 -0.5t4 -1.5q4 -2 7 -2q8 0 8 4v4q-2 0 -4 1q-1 0 -7 2t-6 4q-4 4 -4 5q-2 2 -2 6q0 7 6 10q3 3 13 3t16 -3l-4 -10q-1 1 -4 2l-3 1h-6q-6 0 -6 -2q0 -3 1 -3l10 -4l8 -3q1 -2 2.5 -3.5
t1.5 -2.5v-5q0 -8 -4 -11q-8 -4 -16 -4zM702 108v-47h-13v47h13zM734 60q-22 0 -22 23q0 12 5 20q7 5 18 5q8 0 14 -2l-3 -11q-4 2 -6 2q-1 0 -2 0.5t-3 0.5q-10 0 -10 -14q0 -13 10 -13q1 0 3 0.5t4 0.5q3 0 6 3v-11l-6 -3q-3 -1 -8 -1zM853 60q-21 0 -21 23q0 13 6 20
q7 5 17 5q3 0 15 -2l-5 -11q-2 2 -5 2q-1 0 -3 1h-2q-10 0 -10 -14q0 -13 10 -13q1 0 3 1h3q4 0 7 3v-11q-1 -1 -7 -3q-1 -1 -8 -1zM897 60q-7 0 -10 4q-7 2 -8 8q-3 6 -3 12q0 11 5 19q7 5 16 5q11 0 13 -2q7 -3 9 -9q2 -4 2 -13q0 -10 -7 -18q-6 -6 -17 -6zM430 71
q5 0 8 3q2 3 2 10q0 8 -2 11q-3 3 -8 3q-6 0 -7 -3q-2 -3 -2 -11q0 -7 2 -10q1 -3 7 -3zM897 71q7 0 9 3t2 10q0 8 -2 11t-9 3q-3 0 -6 -3q-2 -3 -2 -11q0 -7 2 -10q3 -3 6 -3zM574 69q3 0 6 3q2 4 2 6v4h-3q-8 -2 -10 -3q-1 0 -1 -4q0 -6 6 -6zM775 69l6 3q4 4 4 6v4h-6
q-5 -1 -7 -3q-3 0 -3 -4q0 -6 6 -6zM359 60q-4 0 -7 2v2l-1 2l1 6q6 2 7 2q3 0 5 -2q2 0 2 -6l-2 -4q-2 -2 -5 -2zM815 60q-3 0 -4 2l-2 4q0 6 2 6q2 2 4 2q3 0 7 -2q1 -3 1 -6l-1 -2v-2q-2 -2 -7 -2z" />
    </font>
</defs>
</svg>
