<?xml version="1.0" standalone="no"?>
<!DOCTYPE svg PUBLIC "-//W3C//DTD SVG 1.1//EN" "http://www.w3.org/Graphics/SVG/1.1/DTD/svg11.dtd" >
<svg xmlns="http://www.w3.org/2000/svg" xmlns:xlink="http://www.w3.org/1999/xlink" version="1.1">
<metadata>
Created by FontForge 20170731 at Wed Oct 20 22:56:52 2021
 By Aleksey,,,
Copyright (c) 2021 by Fontastica. All rights reserved.
</metadata>
<defs>
<font id="EinerGrotesk-Hairline" horiz-adv-x="1367" vert-adv-y="2048" >
  <font-face 
    font-family="Einer Grotesk Hairline"
    font-weight="100"
    font-stretch="normal"
    units-per-em="2048"
    panose-1="0 0 2 0 0 0 0 0 0 0"
    ascent="1638"
    descent="-410"
    x-height="969"
    cap-height="1390"
    bbox="-75 -441 2583 1958"
    underline-thickness="50"
    underline-position="-150"
    unicode-range="U+000D-F8FF"
  />
<missing-glyph horiz-adv-x="1421" vert-adv-y="2130" 
d="M1187 1396v-1402h-953v1402h953zM1126 1363h-832l416 -628zM1097 1237l-357 -542l357 -544l42 12v1062zM281 1221v-1056l43 -12l357 542l-357 539zM1126 29l-414 626l-416 -626h830z" />
    <glyph glyph-name="t_t.liga" unicode="tt" horiz-adv-x="1198" vert-adv-y="2130" 
d="M562 28v-27q-106 12 -179.5 92t-73.5 187v663h-184v27h184v430h28v-430h484v430h27v-430h205v-27h-205v-663q0 -96 65 -168t160 -84v-27q-106 12 -179 92t-73 187v663h-484v-663q0 -96 65 -168t160 -84z" />
    <glyph glyph-name=".notdef" horiz-adv-x="1421" vert-adv-y="2130" 
d="M1187 1396v-1402h-953v1402h953zM1126 1363h-832l416 -628zM1097 1237l-357 -542l357 -544l42 12v1062zM281 1221v-1056l43 -12l357 542l-357 539zM1126 29l-414 626l-416 -626h830z" />
    <glyph glyph-name=".null" horiz-adv-x="0" vert-adv-y="0" 
 />
    <glyph glyph-name="nonmarkingreturn" horiz-adv-x="682" 
 />
    <glyph glyph-name="CR" unicode="&#xd;" horiz-adv-x="334" vert-adv-y="2130" 
 />
    <glyph glyph-name="space" unicode=" " horiz-adv-x="574" vert-adv-y="2130" 
 />
    <glyph glyph-name="exclam" unicode="!" horiz-adv-x="442" vert-adv-y="2130" 
d="M241 866l-16 -497h-8l-16 497v534h40v-534zM221 0q-15 0 -26 11t-11 26t11 26t26 11t26 -11t11 -26t-11 -26t-26 -11z" />
    <glyph glyph-name="quotedbl" unicode="&#x22;" horiz-adv-x="549" vert-adv-y="2130" 
d="M206 1400v-232h-27v232h27zM370 1400v-232h-27v232h27z" />
    <glyph glyph-name="numbersign" unicode="#" horiz-adv-x="1678" vert-adv-y="2130" 
d="M574 430l-47 -430h-27l47 430h-408l3 28h408l54 483h-408l3 27h409l49 432h27l-49 -432h465l49 432h27l-49 -432h410l-3 -27h-411l-54 -483h410l-2 -28h-411l-47 -430h-27l47 430h-465zM1096 941h-465l-53 -483h464z" />
    <glyph glyph-name="dollar" unicode="$" horiz-adv-x="1293" vert-adv-y="2130" 
d="M658 -32v-199h-27v199q-220 4 -378.5 107t-174.5 249h31q17 -136 166 -230.5t356 -98.5v714q-511 86 -511 362q0 154 143.5 255.5t367.5 105.5v198h27v-196q203 -10 344.5 -105t152.5 -231h-30q-13 126 -145 212.5t-322 94.5v-671q268 -43 405 -140t137 -242
q0 -161 -152 -269t-390 -115zM631 736v669q-210 -4 -345.5 -98t-135.5 -236q0 -126 123 -212t358 -123zM658 707v-713q224 8 367.5 108.5t143.5 249.5q0 270 -511 355z" />
    <glyph glyph-name="percent" unicode="%" horiz-adv-x="1533" vert-adv-y="2130" 
d="M364 963q-91 0 -155 64t-64 155q0 90 64 154t155 64q90 0 154 -64t64 -154q0 -91 -64 -155t-154 -64zM1376 1400l-1183 -1400h-36l1183 1400h36zM364 990q79 0 135 56.5t56 135.5t-56 135t-135 56t-135.5 -56t-56.5 -135t56.5 -135.5t135.5 -56.5zM1169 0
q-90 0 -154.5 64t-64.5 155q0 90 64.5 154t154.5 64t154.5 -64t64.5 -154q0 -91 -64.5 -155t-154.5 -64zM1169 27q79 0 135 56.5t56 135.5t-56 135t-135 56t-135 -56t-56 -135t56 -135.5t135 -56.5z" />
    <glyph glyph-name="ampersand" unicode="&#x26;" horiz-adv-x="1353" vert-adv-y="2130" 
d="M647 -11q-63 0 -123 12t-116.5 38t-99 64t-68 94.5t-25.5 124.5q0 232 312 390l7 33q-105 104 -150.5 184t-45.5 162q0 133 97.5 220.5t250.5 87.5q135 0 236 -79.5t101 -209.5q0 -64 -27.5 -120t-67.5 -94.5t-100.5 -74t-110 -56t-112.5 -42.5l524 -470q27 27 64.5 98
t53.5 139h30q-32 -139 -123 -260l210 -188l-45 -2l-181 167q-92 -106 -220 -162t-271 -56zM585 728l176 80q112 51 166 123t54 170q0 127 -82 202t-217 75q-138 0 -220.5 -78t-82.5 -216q0 -64 23 -118t85 -128q39 -47 98 -110zM635 10q139 0 266 57.5t213 159.5l-531 483
q-168 -70 -248 -161.5t-80 -216.5q0 -148 101.5 -235t278.5 -87z" />
    <glyph glyph-name="quotesingle" unicode="'" horiz-adv-x="372" vert-adv-y="2130" 
d="M225 1399l-84 -208h-32l62 208h54z" />
    <glyph glyph-name="parenleft" unicode="(" horiz-adv-x="547" vert-adv-y="2130" 
d="M304 -111q-68 127 -108.5 343.5t-40.5 467.5t41 468t108 345q-57 -127 -89.5 -342t-32.5 -471q0 -255 32.5 -469t89.5 -342z" />
    <glyph glyph-name="parenright" unicode=")" horiz-adv-x="547" vert-adv-y="2130" 
d="M243 -113q57 128 89.5 342.5t32.5 470.5q0 255 -32.5 469t-89.5 342q68 -127 108.5 -343.5t40.5 -467.5t-41 -468t-108 -345z" />
    <glyph glyph-name="asterisk" unicode="*" horiz-adv-x="684" vert-adv-y="2130" 
d="M347 1209v-172h-11v172l-148 -86l-5 9l148 87l-148 86l5 9l148 -85v171h11v-171l148 85l6 -9l-148 -86l148 -87l-6 -9z" />
    <glyph glyph-name="plus" unicode="+" horiz-adv-x="1059" vert-adv-y="2130" 
d="M543 605v-373h-27v373h-373v27h373v373h27v-373h373v-27h-373z" />
    <glyph glyph-name="comma" unicode="," horiz-adv-x="398" vert-adv-y="2130" 
d="M238 86l-84 -209h-32l62 209h54z" />
    <glyph glyph-name="hyphen" unicode="-" horiz-adv-x="979" vert-adv-y="2130" 
d="M794 560v-27h-609v27h609z" />
    <glyph glyph-name="period" unicode="." horiz-adv-x="406" vert-adv-y="2130" 
d="M202 7q-15 0 -26 11t-11 26q0 16 11 27t26 11t26 -11t11 -27q0 -15 -11 -26t-26 -11z" />
    <glyph glyph-name="slash" unicode="/" horiz-adv-x="849" vert-adv-y="2130" 
d="M716 1482l-555 -1564h-30l555 1564h30z" />
    <glyph glyph-name="zero" unicode="0" horiz-adv-x="1404" vert-adv-y="2130" 
d="M702 0q-137 0 -247.5 55t-182 150t-109.5 220t-38 269t38 269t109.5 220t182 150t247.5 55t248 -55t182 -150t109 -220t38 -269t-38 -269t-109 -220t-182 -150t-248 -55zM702 26q132 0 238.5 54t173.5 146.5t102.5 212t35.5 255.5t-35.5 255.5t-102.5 212.5t-173 146.5
t-239 53.5q-106 0 -196 -35t-154.5 -97t-110 -146t-67.5 -183t-22 -207q0 -136 35.5 -255.5t102.5 -212t173.5 -146.5t238.5 -54z" />
    <glyph glyph-name="one" unicode="1" horiz-adv-x="591" vert-adv-y="2130" 
d="M466 1388v-1388h-27v1373l-288 -225l-18 18l287 222h46z" />
    <glyph glyph-name="two" unicode="2" horiz-adv-x="1238" vert-adv-y="2130" 
d="M1113 26v-26h-988v54q0 62 19 121t47.5 106t78 96.5t93.5 84.5t112.5 78t116 70t122.5 67q30 16 44 24q54 29 78.5 42.5t65 37t58 37t44.5 35.5t37.5 39t23.5 40.5t17 48t4 54.5q0 84 -40.5 150.5t-107.5 106t-148 60t-169 20.5q-116 0 -216 -32t-170.5 -101t-79.5 -165
h-27q9 101 82 175.5t178.5 110t228.5 37.5h7q131 -2 239 -40t179 -121.5t71 -199.5q0 -120 -82.5 -191.5t-319.5 -199.5l-7.5 -4.5t-7 -3.5t-7.5 -4q-62 -34 -102 -56.5t-102.5 -62.5t-103 -72.5t-88 -80t-75.5 -92.5t-47 -101t-19 -115q0 -22 1 -27h960z" />
    <glyph glyph-name="three" unicode="3" horiz-adv-x="1322" vert-adv-y="2130" 
d="M660 0q-227 0 -374 94t-161 246h27q14 -143 153 -230t354 -87q227 0 368.5 95t141.5 244q0 67 -31 128t-88.5 109.5t-148.5 76.5t-202 27h-16l-94 -2v22l93 -4h16q106 -1 193.5 26t142.5 73.5t84.5 105.5t29.5 123q0 142 -135.5 232.5t-352.5 90.5q-207 0 -340 -82.5
t-146 -218.5h-24q13 144 153 233t356 89q227 0 370 -96.5t143 -245.5q0 -125 -95.5 -219.5t-248.5 -116.5q149 -14 259 -114t110 -231q0 -164 -149.5 -266t-387.5 -102z" />
    <glyph glyph-name="four" unicode="4" horiz-adv-x="1380" vert-adv-y="2130" 
d="M1013 353v-353h-27v353h-861v44l846 991h42v-1008h242v-27h-242zM986 380v988l-836 -988h836z" />
    <glyph glyph-name="five" unicode="5" horiz-adv-x="1284" vert-adv-y="2130" 
d="M623 0h-27q-183 16 -308.5 107.5t-159.5 239.5h29q37 -130 153 -211t285 -95h28q228 0 368.5 115t140.5 301q0 185 -140 300t-367 116q-132 0 -239 -41.5t-174 -120.5h-58l89 677h822v-26h-802l-68 -619q77 78 189 121.5t234 45.5h5q85 -2 163 -20t146 -55t118.5 -89
t79.5 -125t29 -159q0 -207 -148.5 -334.5t-387.5 -127.5z" />
    <glyph glyph-name="six" unicode="6" horiz-adv-x="1310" vert-adv-y="2130" 
d="M656 0h-7q-231 5 -377.5 130.5t-146.5 316.5v247q0 350 128.5 522t389.5 172h1q328 0 468 -248h-28q-136 223 -440 223h-1q-116 0 -203.5 -36t-141 -95.5t-87 -148t-46 -180.5t-13.5 -207l-1 -89q71 141 195 210t310 69q237 0 383 -122t146 -317q0 -193 -149 -318.5
t-380 -128.5zM655 38q221 0 362 114t141 295q0 180 -139.5 293t-365.5 113q-219 0 -360 -113.5t-141 -293.5t139.5 -294t363.5 -114z" />
    <glyph glyph-name="seven" unicode="7" horiz-adv-x="1281" vert-adv-y="2130" 
d="M1156 1339l-595 -1339h-30l605 1361h-1011v27h1031v-49z" />
    <glyph glyph-name="eight" unicode="8" horiz-adv-x="1322" vert-adv-y="2130" 
d="M659 0q-235 0 -381 103t-146 268q0 125 89 214t251 123l41 7l-41 7q-148 28 -232 112t-84 203q0 156 139.5 253.5t363.5 97.5t364.5 -96.5t140.5 -251.5q0 -119 -88.5 -206t-234.5 -113l-45 -7l45 -7q159 -30 253 -122t94 -217q0 -163 -147 -265.5t-382 -102.5zM660 727
q217 0 344 84t127 226q0 143 -130.5 232t-340.5 89t-340.5 -89t-130.5 -232q0 -140 129.5 -225t341.5 -85zM660 33q219 0 355.5 93t136.5 242q0 147 -130.5 238.5t-339.5 91.5h-22q-221 0 -356.5 -91t-135.5 -239q0 -149 136.5 -242t355.5 -93z" />
    <glyph glyph-name="nine" unicode="9" horiz-adv-x="1310" vert-adv-y="2130" 
d="M667 0h-1q-328 0 -468 250h28q137 -225 440 -225h1q116 0 203.5 36.5t141 96t87 148.5t46 182t13.5 208l1 90q-71 -142 -195 -211.5t-310 -69.5q-237 0 -383 123t-146 319q0 195 149 321t380 129h7q231 -5 377.5 -131t146.5 -319v-249q0 -352 -128.5 -525t-389.5 -173z
M657 533q218 0 359.5 117t141.5 298q0 183 -140 301t-363 118q-221 0 -362 -118.5t-141 -301.5q0 -182 140 -298t365 -116z" />
    <glyph glyph-name="colon" unicode=":" horiz-adv-x="406" vert-adv-y="2130" 
d="M201 731q-15 0 -26 11t-11 26t11 26t26 11t26 -11t11 -26t-11 -26t-26 -11zM201 0q-15 0 -26 11t-11 26t11 26t26 11t26 -11t11 -26t-11 -26t-26 -11z" />
    <glyph glyph-name="semicolon" unicode=";" horiz-adv-x="404" vert-adv-y="2130" 
d="M198 731q-15 0 -26 11t-11 26t11 26t26 11q16 0 27 -11t11 -26t-11 -26t-27 -11zM225 86l-84 -209h-32l62 209h54z" />
    <glyph glyph-name="less" unicode="&#x3c;" horiz-adv-x="987" vert-adv-y="2130" 
d="M810 1023v-30l-691 -381v31zM119 612l691 -379v-30l-691 380v29z" />
    <glyph glyph-name="equal" unicode="=" horiz-adv-x="1077" vert-adv-y="2130" 
d="M884 796v-27h-691v27h691zM884 468v-27h-691v27h691z" />
    <glyph glyph-name="greater" unicode="&#x3e;" horiz-adv-x="987" vert-adv-y="2130" 
d="M177 1023l691 -380v-31l-691 381v30zM868 612v-29l-691 -380v30z" />
    <glyph glyph-name="question" unicode="?" horiz-adv-x="1189" vert-adv-y="2130" 
d="M514 384v-104h-29l1 103q0 47 5 76.5t11 50.5t27.5 40t39.5 31.5t62 37.5q48 28 75 44.5t76.5 49.5t79 58t67.5 62.5t59.5 71.5t36.5 77t15 86q0 147 -132.5 242.5t-333.5 95.5q-184 0 -300 -83.5t-128 -224.5h-27q12 151 136 243t317 92q212 0 354 -104t142 -260
q0 -53 -18 -104t-52 -95.5t-72.5 -82.5t-90 -74t-93.5 -61.5t-93 -53.5q-70 -37 -90 -57q-44 -50 -45 -157zM499 0q-15 0 -26.5 11t-11.5 26t11.5 26t26.5 11t26 -11t11 -26t-11 -26t-26 -11z" />
    <glyph glyph-name="at" unicode="@" horiz-adv-x="1746" vert-adv-y="2130" 
d="M882 -33h-2q-198 0 -366.5 98.5t-266.5 267t-98 367.5q0 149 58 285t156 234t233.5 156t283.5 58q151 0 287 -58t234 -156.5t156 -234t58 -284.5v-168q0 -93 -61.5 -160.5t-153.5 -67.5q-58 0 -104.5 33t-72.5 94l-36 3q-49 -65 -132.5 -101t-183.5 -37h-8
q-160 5 -269.5 90.5t-109.5 206.5v220q0 121 111 208.5t257 87.5q93 0 178.5 -39.5t141.5 -108.5l42 13v89h27l-2 -565q0 -76 43.5 -122.5t113.5 -46.5q82 0 137 60t55 143v168q0 190 -95 352.5t-258 258t-354 95.5t-353.5 -94.5t-257 -257t-94.5 -354.5q0 -143 56 -274
t150 -225.5t225 -150.5t275 -56q218 0 399 125v-32q-183 -120 -399 -120zM863 322h11q146 0 239.5 75t100.5 199v227q-7 109 -109 184t-243 75q-145 0 -248 -79t-103 -190v-220q0 -110 100 -188.5t252 -82.5z" />
    <glyph glyph-name="A" unicode="A" horiz-adv-x="1541" vert-adv-y="2130" 
d="M374 455l-210 -455h-30l636 1371l637 -1371h-30l-210 455h-793zM1157 481l-387 835l-387 -835h774z" />
    <glyph glyph-name="B" unicode="B" horiz-adv-x="1378" vert-adv-y="2130" 
d="M897 0h-772v1390h721q147 0 249 -103t102 -250q0 -124 -84 -226t-184 -110q144 -10 234 -110.5t90 -237.5q0 -147 -104 -250t-252 -103zM846 1363h-694v-655h694q136 0 232.5 96t96.5 233q0 136 -96 231t-233 95zM897 682h-745v-655h745q137 0 233 95t96 231
q0 137 -96 233t-233 96z" />
    <glyph glyph-name="C" unicode="C" horiz-adv-x="1584" vert-adv-y="2130" 
d="M853 -33q-148 0 -283 57.5t-232.5 155t-155 232.5t-57.5 283t57.5 283t155 232.5t232.5 155t283 57.5q181 0 340 -84t260 -233l-22 -16q-98 144 -251 225t-327 81q-143 0 -273 -55.5t-223.5 -149.5t-149 -223.5t-55.5 -272.5t55.5 -272.5t149 -223.5t223.5 -149.5
t273 -55.5q174 0 326.5 81t250.5 225l22 -16q-101 -149 -259.5 -233t-339.5 -84z" />
    <glyph glyph-name="D" unicode="D" horiz-adv-x="1437" vert-adv-y="2130" 
d="M617 0h-492v1390h492q141 0 270 -55t222 -148t148 -222t55 -270t-55 -270t-148 -222t-222 -148t-270 -55zM617 1363h-465v-1336h465q181 0 335 89.5t243.5 243.5t89.5 335t-89.5 335t-243.5 243.5t-335 89.5z" />
    <glyph glyph-name="E" unicode="E" horiz-adv-x="1281" vert-adv-y="2130" 
d="M1156 27v-27h-1031v1390h1031v-27h-1004v-655h943v-26h-943v-655h1004z" />
    <glyph glyph-name="F" unicode="F" horiz-adv-x="1281" vert-adv-y="2130" 
d="M152 682v-682h-27v1390h1031v-27h-1004v-655h943v-26h-943z" />
    <glyph glyph-name="G" unicode="G" horiz-adv-x="1588" vert-adv-y="2130" 
d="M853 -33q-148 0 -283 57.5t-232.5 155t-155 232.5t-57.5 283t57.5 283t155 232.5t232.5 155t283 57.5q181 0 340 -84t260 -233l-22 -16q-98 144 -251 225t-327 81q-143 0 -273 -55.5t-223.5 -149.5t-149 -223.5t-55.5 -272.5t55.5 -272.5t149 -223.5t223.5 -149.5
t273 -55.5q173 0 327.5 82.5t253.5 228.5v358h-624v27h651l1 -391q-100 -155 -261.5 -243.5t-347.5 -88.5z" />
    <glyph glyph-name="H" unicode="H" vert-adv-y="2130" 
d="M152 682v-682h-27v1390h27v-682h1064v682h26v-1390h-26v682h-1064z" />
    <glyph glyph-name="I" unicode="I" horiz-adv-x="277" vert-adv-y="2130" 
d="M152 1390v-1390h-27v1390h27z" />
    <glyph glyph-name="J" unicode="J" horiz-adv-x="1276" vert-adv-y="2130" 
d="M592 -33q-142 0 -262.5 63.5t-198.5 180.5l23 13q76 -108 191.5 -169t246.5 -61q145 0 267.5 71.5t193.5 194t71 266.5v864h27v-864q0 -114 -44 -217.5t-119 -178.5t-178.5 -119t-217.5 -44z" />
    <glyph glyph-name="K" unicode="K" horiz-adv-x="1327" vert-adv-y="2130" 
d="M152 483v-483h-27v1390h27v-871l956 871h43l-582 -528l619 -862h-32l-606 844z" />
    <glyph glyph-name="L" unicode="L" horiz-adv-x="1281" vert-adv-y="2130" 
d="M1156 27v-27h-1031v1390h27v-1363h1004z" />
    <glyph glyph-name="M" unicode="M" horiz-adv-x="1629" vert-adv-y="2130" 
d="M149 1260l3 -1260h-27v1352l690 -1312l689 1312v-1352h-27l2 1258l-664 -1258z" />
    <glyph glyph-name="N" unicode="N" vert-adv-y="2130" 
d="M152 1314v-1314h-27v1388l1091 -1323v1325h26v-1390z" />
    <glyph glyph-name="O" unicode="O" horiz-adv-x="1705" vert-adv-y="2130" 
d="M853 -33q-148 0 -283 57.5t-232.5 155t-155 232.5t-57.5 283t57.5 283t155 232.5t232.5 155t283 57.5t282.5 -57.5t232 -155t155 -232.5t57.5 -283t-57.5 -283t-155 -232.5t-232 -155t-282.5 -57.5zM853 -6q190 0 351.5 94t255 255.5t93.5 351.5t-93.5 351.5t-255 255.5
t-351.5 94q-143 0 -273 -55.5t-223.5 -149.5t-149 -223.5t-55.5 -272.5t55.5 -272.5t149 -223.5t223.5 -149.5t273 -55.5z" />
    <glyph glyph-name="P" unicode="P" horiz-adv-x="1378" vert-adv-y="2130" 
d="M152 518v-518h-27v1390h691q182 0 309.5 -127.5t127.5 -308.5t-127.5 -308.5t-309.5 -127.5h-664zM816 1363h-664v-818h664q170 0 290 120t120 289t-120 289t-290 120z" />
    <glyph glyph-name="Q" unicode="Q" horiz-adv-x="1705" vert-adv-y="2130" 
d="M853 -33q-148 0 -283 57.5t-232.5 155t-155 232.5t-57.5 283t57.5 283t155 232.5t232.5 155t283 57.5t282.5 -57.5t232 -155t155 -232.5t57.5 -283q0 -275 -192 -492l180 -177l-21 -21l-178 178q-107 -104 -240 -160t-276 -56zM853 -6q138 0 266.5 54t230.5 155l-178 177
l20 20l178 -178q89 100 136 222t47 251q0 190 -93.5 351.5t-255 255.5t-351.5 94q-143 0 -273 -55.5t-223.5 -149.5t-149 -223.5t-55.5 -272.5t55.5 -272.5t149 -223.5t223.5 -149.5t273 -55.5z" />
    <glyph glyph-name="R" unicode="R" horiz-adv-x="1378" vert-adv-y="2130" 
d="M152 519v-519h-27v1390h691q182 0 309.5 -128t127.5 -309q0 -164 -114 -287.5t-285 -145.5l354 -520h-32l-354 519h-670zM816 1363h-664v-817h699q160 15 267.5 131.5t107.5 275.5q0 170 -120 290t-290 120z" />
    <glyph glyph-name="S" unicode="S" horiz-adv-x="1363" vert-adv-y="2130" 
d="M689 -33q-227 0 -387 101.5t-177 253.5h31q11 -92 83.5 -167t190.5 -118t258 -43q145 0 264 45.5t187.5 127t68.5 182.5q0 276 -523 355q-518 78 -518 359q0 156 145 258t361 102q208 0 356 -95t165 -237h-30q-17 131 -156 218t-334 87q-134 0 -243 -42.5t-172 -118.5
t-63 -170q0 -129 124 -214.5t358 -119.5q560 -82 560 -381q0 -165 -157 -274t-392 -109z" />
    <glyph glyph-name="T" unicode="T" horiz-adv-x="1437" vert-adv-y="2130" 
d="M732 1363v-1363h-27v1363h-580v27h1187v-27h-580z" />
    <glyph glyph-name="U" unicode="U" vert-adv-y="2130" 
d="M684 -33q-114 0 -217.5 44t-178.5 119t-119 178.5t-44 217.5v864h27v-864q0 -144 71 -266.5t193.5 -194t267.5 -71.5q144 0 266.5 71.5t194 194t71.5 266.5v864h26v-864q0 -114 -44 -217.5t-119 -178.5t-178.5 -119t-216.5 -44z" />
    <glyph glyph-name="V" unicode="V" horiz-adv-x="1541" vert-adv-y="2130" 
d="M1377 1390h30l-637 -1369l-636 1369h30l606 -1298z" />
    <glyph glyph-name="W" unicode="W" horiz-adv-x="2221" vert-adv-y="2130" 
d="M1592 23l-481 1338l-482 -1338l-495 1365h25l470 -1287l467 1287h29l467 -1287l469 1287h26z" />
    <glyph glyph-name="X" unicode="X" horiz-adv-x="1482" vert-adv-y="2130" 
d="M741 671l-558 -671h-41l579 695l-579 695h41l558 -671l558 671h41l-579 -695l579 -695h-41z" />
    <glyph glyph-name="Y" unicode="Y" horiz-adv-x="1491" vert-adv-y="2130" 
d="M759 543v-543h-27v543l-593 847h35l572 -825l572 825h34z" />
    <glyph glyph-name="Z" unicode="Z" horiz-adv-x="1474" vert-adv-y="2130" 
d="M1296 27v-27h-1154l1133 1363h-1076v27h1133l-1133 -1363h1097z" />
    <glyph glyph-name="bracketleft" unicode="[" horiz-adv-x="549" vert-adv-y="2130" 
d="M468 -219v-27h-273v1892h273v-27h-246v-1838h246z" />
    <glyph glyph-name="backslash" unicode="\" horiz-adv-x="849" vert-adv-y="2130" 
d="M163 1482l555 -1564h-30l-555 1564h30z" />
    <glyph glyph-name="bracketright" unicode="]" horiz-adv-x="549" vert-adv-y="2130" 
d="M354 1646v-1892h-273v27h246v1838h-246v27h273z" />
    <glyph glyph-name="asciicircum" unicode="^" horiz-adv-x="1004" vert-adv-y="2130" 
d="M502 1399l-297 -526h-31l297 527h62l297 -527h-31z" />
    <glyph glyph-name="underscore" unicode="_" horiz-adv-x="1181" vert-adv-y="2130" 
d="M1018 -75v-27h-855v27h855z" />
    <glyph glyph-name="grave" unicode="`" horiz-adv-x="785" vert-adv-y="2130" 
d="M305 1454l244 -198l-17 -21l-244 199z" />
    <glyph glyph-name="a" unicode="a" horiz-adv-x="1008" vert-adv-y="2130" 
d="M509 -20q-160 0 -272 86t-112 206q0 82 56 151.5t152.5 109t210.5 39.5h311v100q-8 125 -93 199.5t-230 74.5q-78 0 -153.5 -26t-135.5 -83.5t-73 -133.5h-27q14 87 76.5 150t143.5 91t170 28q162 0 256 -88.5t94 -239.5v-644h-28v161q-148 -181 -346 -181zM504 7
q140 0 242 74.5t109 183.5v280h-311q-162 0 -277 -79t-115 -192q0 -109 103.5 -188t248.5 -79z" />
    <glyph glyph-name="b" unicode="b" horiz-adv-x="1139" vert-adv-y="2130" 
d="M574 -20q-134 0 -240.5 77.5t-159.5 209.5l-22 -4v-263h-27v1400h27v-693l22 -4q53 132 159.5 209.5t240.5 77.5q188 0 314 -144t126 -361t-126 -361t-314 -144zM574 7q180 0 299.5 136.5t119.5 341.5t-119.5 341.5t-299.5 136.5q-179 0 -299 -136.5t-120 -341.5
t120 -341.5t299 -136.5z" />
    <glyph glyph-name="c" unicode="c" horiz-adv-x="1113" vert-adv-y="2130" 
d="M600 -20q-204 0 -339.5 144t-135.5 361t135.5 361t339.5 144q115 0 215.5 -52t166.5 -144l-24 -16q-61 86 -156 135.5t-202 49.5q-192 0 -320 -136.5t-128 -341.5t128 -341.5t320 -136.5q107 0 202 49.5t156 135.5l24 -16q-66 -92 -166.5 -144t-215.5 -52z" />
    <glyph glyph-name="d" unicode="d" horiz-adv-x="1139" vert-adv-y="2130" 
d="M565 -20q-188 0 -314 144t-126 361t126 361t314 144q134 0 240.5 -77.5t159.5 -209.5l22 4v693h27v-1400h-27v263l-22 4q-53 -132 -159.5 -209.5t-240.5 -77.5zM565 7q179 0 299 136.5t120 341.5t-120 341.5t-299 136.5q-180 0 -299.5 -136.5t-119.5 -341.5t119.5 -341.5
t299.5 -136.5z" />
    <glyph glyph-name="e" unicode="e" horiz-adv-x="1198" vert-adv-y="2130" 
d="M600 -20q-204 0 -339.5 144t-135.5 361t135 361t340 144q198 0 331.5 -136.5t141.5 -341.5h-920l-1 -27q0 -205 127.5 -341.5t320.5 -136.5q144 0 257 82t161 220l27 -9q-50 -147 -170.5 -233.5t-274.5 -86.5zM155 540h889q-22 186 -146.5 304.5t-297.5 118.5
q-175 0 -299.5 -118.5t-145.5 -304.5z" />
    <glyph glyph-name="f" unicode="f" horiz-adv-x="667" vert-adv-y="2130" 
d="M316 943v-943h-27v943h-164v27h164v150q0 107 73.5 187.5t179.5 91.5v-27q-95 -11 -160.5 -83t-65.5 -169v-150h198v-27h-198z" />
    <glyph glyph-name="g" unicode="g" horiz-adv-x="1131" vert-adv-y="2130" 
d="M588 -441h-1q-140 0 -243 63t-149 176h29q46 -101 141 -156t223 -55q181 0 290 104.5t109 281.5v287l-22 4q-53 -132 -159.5 -210t-240.5 -78q-188 0 -314 144.5t-126 361.5t126 361t314 144q134 0 240.5 -77.5t159.5 -209.5l22 4v268h28v-989q0 -193 -116 -308.5
t-311 -115.5zM565 4q179 0 299 136.5t120 341.5t-120 341.5t-299 136.5q-180 0 -299.5 -136.5t-119.5 -341.5t119.5 -341.5t299.5 -136.5z" />
    <glyph glyph-name="h" unicode="h" horiz-adv-x="967" vert-adv-y="2130" 
d="M153 625v-625h-28v1400h27v-623q58 98 146 155.5t185 57.5q149 0 254 -104.5t105 -252.5v-633h-27v633q0 137 -97 233.5t-234 96.5q-138 0 -235 -96.5t-97 -233.5v-8h1zM153 633l23 -6l-3 -7l-20 5v8z" />
    <glyph glyph-name="i" unicode="i" horiz-adv-x="324" vert-adv-y="2130" 
d="M162 1326q-15 0 -26 11t-11 26t11 26t26 11t26 -11t11 -26t-11 -26t-26 -11zM176 970v-970h-27v970h27z" />
    <glyph glyph-name="j" unicode="j" horiz-adv-x="674" vert-adv-y="2130" 
d="M511 1326q-15 0 -26 11t-11 26t11 26t26 11t26.5 -11t11.5 -26t-11.5 -26t-26.5 -11zM125 -440l1 27q170 8 270 112t101 274v999h28v-989q0 -186 -108.5 -300.5t-291.5 -122.5z" />
    <glyph glyph-name="k" unicode="k" horiz-adv-x="969" vert-adv-y="2130" 
d="M152 315v-316h-27v1401h27v-1051l640 621h26l-403 -399l413 -572h-26l-400 561z" />
    <glyph glyph-name="l" unicode="l" horiz-adv-x="277" vert-adv-y="2130" 
d="M152 1400v-1400h-27v1400h27z" />
    <glyph glyph-name="m" unicode="m" horiz-adv-x="1501" vert-adv-y="2130" 
d="M144 633v-633h-19v970h19v-155l20 -5q48 86 120.5 133t162.5 47q103 0 180 -67t124 -196q42 121 123 192t182 71q134 0 227 -104t93 -253v-633h-19v633q0 137 -88 235.5t-210 98.5q-119 0 -205.5 -91.5t-92.5 -224.5v-651h-20v651q-7 133 -93.5 224.5t-204.5 91.5
q-123 0 -211 -98.5t-88 -235.5z" />
    <glyph glyph-name="n" unicode="n" horiz-adv-x="967" vert-adv-y="2130" 
d="M153 633v-633h-28v968h27v-191q58 98 146 155.5t185 57.5q149 0 254 -104.5t105 -252.5v-633h-27v633q0 137 -97 233.5t-234 96.5q-138 0 -234.5 -96.5t-96.5 -233.5z" />
    <glyph glyph-name="o" unicode="o" horiz-adv-x="1199" vert-adv-y="2130" 
d="M600 -20q-204 0 -339.5 144t-135.5 361t135.5 361t339.5 144t339 -144t135 -361t-135 -361t-339 -144zM600 7q192 0 319.5 136.5t127.5 341.5t-127.5 341.5t-319.5 136.5t-320 -136.5t-128 -341.5t128 -341.5t320 -136.5z" />
    <glyph glyph-name="p" unicode="p" horiz-adv-x="1139" vert-adv-y="2130" 
d="M152 260v-693h-27v1400h27v-263l22 -4q53 132 159.5 209.5t240.5 77.5q188 0 314 -144t126 -361t-126 -361.5t-314 -144.5q-134 0 -240.5 78t-159.5 210zM574 4q180 0 299.5 136.5t119.5 341.5t-119.5 341.5t-299.5 136.5q-179 0 -299 -136.5t-120 -341.5t120 -341.5
t299 -136.5z" />
    <glyph glyph-name="q" unicode="q" horiz-adv-x="1139" vert-adv-y="2130" 
d="M1014 967v-1400h-27v693l-22 4q-53 -132 -159.5 -210t-240.5 -78q-188 0 -314 144.5t-126 361.5t126 361t314 144q134 0 240.5 -77.5t159.5 -209.5l22 4v263h27zM565 4q179 0 299 136.5t120 341.5t-120 341.5t-299 136.5q-180 0 -299.5 -136.5t-119.5 -341.5
t119.5 -341.5t299.5 -136.5z" />
    <glyph glyph-name="r" unicode="r" horiz-adv-x="672" vert-adv-y="2130" 
d="M153 633v-633h-28v968h27v-191q58 98 146 155.5t185 57.5q33 0 64 -6v-27q-31 6 -63 6q-138 0 -234.5 -96.5t-96.5 -233.5z" />
    <glyph glyph-name="s" unicode="s" horiz-adv-x="1046" vert-adv-y="2130" 
d="M525 -20q-163 0 -274.5 67.5t-125.5 172.5h29q7 -53 43 -95.5t90 -67.5t114.5 -37.5t122.5 -12.5q65 0 128 14.5t117.5 43t88.5 77t34 109.5q0 26 -7 49.5t-16.5 41t-30 34t-35.5 27.5t-46.5 23t-50 18.5t-57.5 16t-58 13.5t-63 13q-77 16 -122.5 27.5t-100 32
t-83.5 43.5t-49 59t-20 82q0 116 103.5 187.5t263.5 71.5q150 0 253 -63t118 -161h-29q-14 87 -108 142t-227 55q-86 0 -161.5 -22.5t-129 -76.5t-53.5 -130q0 -31 10 -57t24.5 -45t42 -35.5t50.5 -27t64 -21.5t68 -17t75 -16q75 -15 124 -27t107.5 -34t92.5 -47.5t57 -64.5
t23 -88q0 -122 -112 -198t-284 -76z" />
    <glyph glyph-name="t" unicode="t" horiz-adv-x="687" vert-adv-y="2130" 
d="M562 28v-27q-106 12 -179.5 92t-73.5 187v663h-184v27h184v430h28v-430h205v-27h-205v-663q0 -96 65 -168t160 -84z" />
    <glyph glyph-name="u" unicode="u" horiz-adv-x="967" vert-adv-y="2130" 
d="M484 -22q-149 0 -254 104.5t-105 253.5v633h27v-633q0 -137 97 -233.5t234 -96.5q138 0 235 96.5t97 233.5v633h27v-968h-27v191q-58 -98 -146 -156t-185 -58z" />
    <glyph glyph-name="v" unicode="v" horiz-adv-x="1132" vert-adv-y="2130" 
d="M969 970h29l-432 -953l-432 953h30l402 -913z" />
    <glyph glyph-name="w" unicode="w" horiz-adv-x="1544" vert-adv-y="2130" 
d="M759 970h14l-321 -945l-321 945h19l302 -896zM1396 970h17l-320 -945l-320 945h13l307 -896z" />
    <glyph glyph-name="x" unicode="x" horiz-adv-x="1067" vert-adv-y="2130" 
d="M532 464l-353 -464h-39l378 485l-378 485h39l353 -464l356 464h39l-378 -485l378 -485h-39z" />
    <glyph glyph-name="y" unicode="y" horiz-adv-x="1132" vert-adv-y="2130" 
d="M998 970l-655 -1411h-16l232 495l-425 916h30l402 -893l402 893h30z" />
    <glyph glyph-name="z" unicode="z" horiz-adv-x="1007" vert-adv-y="2130" 
d="M882 27v-27h-757v44l738 899h-697v27h716v-44l-738 -899h738z" />
    <glyph glyph-name="braceleft" unicode="{" horiz-adv-x="617" vert-adv-y="2130" 
d="M536 -219v-27h-95q-73 0 -125.5 52t-52.5 126v604q0 60 -45 105.5t-105 45.5h-14v27h14q61 0 105.5 44t44.5 106v605q0 73 52 125t126 52h95v-27h-95q-62 0 -106.5 -44t-44.5 -106v-605q0 -90 -78 -146v-34q78 -62 78 -148v-604q0 -62 44.5 -106.5t106.5 -44.5h95z" />
    <glyph glyph-name="bar" unicode="|" horiz-adv-x="417" vert-adv-y="2130" 
d="M222 1687v-2015h-27v2015h27z" />
    <glyph glyph-name="braceright" unicode="}" horiz-adv-x="617" vert-adv-y="2130" 
d="M177 -246h-96v27h96q62 0 106 44.5t44 106.5v604q0 86 78 148v34q-37 25 -57.5 64t-20.5 82v605q0 61 -44.5 105.5t-105.5 44.5h-96v27h96q73 0 125 -52t52 -125v-605q0 -62 44 -106t106 -44h14v-27h-14q-60 0 -105 -45.5t-45 -105.5v-604q0 -73 -52 -125.5t-125 -52.5z
" />
    <glyph glyph-name="asciitilde" unicode="~" horiz-adv-x="1139" vert-adv-y="2130" 
d="M741 802q-92 0 -174 80q-73 73 -153 73q-79 0 -153 -73l-37 -39l-19 19l39 38q79 80 168 80q93 0 173 -80q76 -74 153 -74q79 0 153 74l38 38l19 -18l-39 -38q-80 -80 -168 -80z" />
    <glyph glyph-name="exclamdown" unicode="&#xa1;" horiz-adv-x="442" vert-adv-y="2130" 
d="M221 1326q-15 0 -26 11t-11 26t11 26t26 11t26 -11t11 -26t-11 -26t-26 -11zM241 534v-534h-40v534l16 497h8z" />
    <glyph glyph-name="cent" unicode="&#xa2;" horiz-adv-x="1087" vert-adv-y="2130" 
d="M581 -20v-123h-27v124q-197 15 -322.5 156.5t-125.5 347.5t125.5 347.5t322.5 156.5v124h27v-123q116 -1 217 -53.5t165 -142.5l-23 -16q-61 84 -155.5 133.5t-203.5 50.5v-954q108 1 202.5 50.5t155.5 133.5l24 -16q-64 -90 -164.5 -142.5t-217.5 -53.5zM554 7v956
q-185 -16 -303 -150.5t-118 -327.5t118 -327.5t303 -150.5z" />
    <glyph glyph-name="sterling" unicode="&#xa3;" horiz-adv-x="1114" vert-adv-y="2130" 
d="M963 27v-27h-806v44q86 96 145.5 217.5t59.5 237.5q0 34 -7 86l-5 30h-193v27h188q-7 13 -20 50l-31 89q-55 154 -55 247q0 169 117.5 287t285.5 118q176 0 294 -127l-20 -19q-53 56 -125 87.5t-149 31.5q-156 0 -266 -110t-110 -267q0 -41 9.5 -86.5t18.5 -72.5t28 -80
q32 -81 48 -148h417v-27h-409q11 -69 11 -111q0 -130 -64 -257.5t-152 -219.5h790z" />
    <glyph glyph-name="yen" unicode="&#xa5;" horiz-adv-x="1450" vert-adv-y="2130" 
d="M739 303v-303h-27v303h-291v28h291v298h-291v27h257l-562 744h34l575 -762l575 762h34l-561 -744h257v-27h-291v-298h291v-28h-291z" />
    <glyph glyph-name="brokenbar" unicode="&#xa6;" horiz-adv-x="445" vert-adv-y="2130" 
d="M236 1687v-785h-27v785h27zM236 458v-786h-27v786h27z" />
    <glyph glyph-name="dieresis" unicode="&#xa8;" horiz-adv-x="825" vert-adv-y="2130" 
d="M268 1251q-15 0 -26 11t-11 26t11 26.5t26 11.5t26 -11.5t11 -26.5t-11 -26t-26 -11zM556 1251q-15 0 -26 11t-11 26t11 26.5t26 11.5t26 -11.5t11 -26.5t-11 -26t-26 -11z" />
    <glyph glyph-name="copyright" unicode="&#xa9;" horiz-adv-x="1640" vert-adv-y="2130" 
d="M820 -4q-191 0 -353 94.5t-256.5 256.5t-94.5 353t94.5 353t256.5 256.5t353 94.5t353 -94.5t256.5 -256.5t94.5 -353t-94.5 -353t-256.5 -256.5t-353 -94.5zM820 14q186 0 344.5 92t250.5 250t92 344q0 187 -92 345t-250.5 250t-344.5 92t-344 -92t-250 -250.5
t-92 -344.5q0 -187 92 -345t249.5 -249.5t344.5 -91.5zM833 289q-170 0 -290.5 120t-120.5 291t120 291t291 120q100 0 191.5 -48t148.5 -131l-14 -12q-56 81 -142 127t-184 46q-164 0 -279 -115t-115 -278t115.5 -278t278.5 -115q98 0 183 45t142 128l15 -12
q-57 -83 -148.5 -131t-191.5 -48z" />
    <glyph glyph-name="ordfeminine" unicode="&#xaa;" horiz-adv-x="598" vert-adv-y="2130" 
d="M295 978q-71 0 -132 41t-61 109q0 73 69.5 113.5t148.5 40.5h174v60q0 21 -9 44q-36 109 -172 109q-79 0 -133.5 -36.5t-65.5 -93.5h-1q10 64 68.5 97.5t133.5 33.5q83 0 132 -45t49 -124v-338h-2v68l-20 7q3 4 7 12q13 26 13 48v157h-174q-45 0 -92.5 -15t-86 -51.5
t-38.5 -84.5q0 -62 58 -106.5t138 -44.5q10 0 28 2q-16 -3 -32 -3zM89 1356h10l-5 -5zM125 1356h10l-5 -5zM87 1353l5 -4l-5 -5v9zM97 1349l4 4v-9zM123 1353l5 -4l-5 -5v9zM133 1349l4 4v-9zM94 1351l3 -2l-3 -3l-2 3zM130 1351l3 -2l-3 -3l-2 3zM94 1346l5 -5h-10z
M130 1346l5 -5h-10zM327 981q88 13 142 85l5 -2q-22 -34 -61 -56t-86 -27zM508 980h10l-5 -5zM506 977l5 -4l-5 -5v9zM516 973l4 4v-9zM513 975l3 -2l-3 -3l-2 3zM513 970l5 -5h-10z" />
    <glyph glyph-name="guillemotleft" unicode="&#xab;" horiz-adv-x="1024" vert-adv-y="1700" 
d="M177 493l356 -356l-19 -19l-375 375l375 376l19 -19zM501 493l356 -356l-19 -19l-375 375l375 376l19 -19z" />
    <glyph glyph-name="logicalnot" unicode="&#xac;" horiz-adv-x="1245" vert-adv-y="2130" 
d="M1052 632v-396h-27v369h-828v27h855z" />
    <glyph glyph-name="registered" unicode="&#xae;" horiz-adv-x="1640" vert-adv-y="2130" 
d="M820 -2q-114 0 -221 35.5t-193.5 100.5t-151.5 151.5t-100.5 193.5t-35.5 221t35.5 221t100.5 193.5t151.5 151.5t193.5 100.5t221 35.5t221 -35.5t193.5 -100.5t151.5 -151.5t100.5 -193.5t35.5 -221t-35.5 -221t-100.5 -193.5t-151.5 -151.5t-193.5 -100.5t-221 -35.5z
M820 12q187 0 346 92t251 250.5t92 345.5q0 140 -54.5 268t-146.5 220t-220 146.5t-268 54.5q-187 0 -345.5 -92t-250.5 -251t-92 -346t92 -345.5t250.5 -250.5t345.5 -92zM541 594v-301h-13v804h400q104 0 178 -73.5t74 -178.5q0 -95 -66 -166.5t-166 -84.5l205 -301h-15
l-206 301h-391zM928 1082h-385v-473h405q95 14 155.5 80t60.5 156q0 98 -69 167.5t-167 69.5z" />
    <glyph glyph-name="macron" unicode="&#xaf;" horiz-adv-x="826" vert-adv-y="2130" 
d="M601 1282v-27h-376v27h376z" />
    <glyph glyph-name="degree" unicode="&#xb0;" horiz-adv-x="658" vert-adv-y="2130" 
d="M329 1045q-78 0 -133 55t-55 133t55 133t133 55t133 -55t55 -133t-55 -133t-133 -55zM329 1072q66 0 113 47t47 114t-47 114t-113 47q-67 0 -114 -47t-47 -114t47 -114t114 -47z" />
    <glyph glyph-name="plusminus" unicode="&#xb1;" horiz-adv-x="1023" vert-adv-y="2130" 
d="M525 769v-291h-27v291h-291v27h291v291h27v-291h291v-27h-291zM816 259v-27h-609v27h609z" />
    <glyph glyph-name="uni00B2" unicode="&#xb2;" horiz-adv-x="493" vert-adv-y="1700" 
d="M417 1001v-19h-338v23q0 80 88 145q35 26 83 54q16 8 18 10q1 0 15 8l33 18l4 2q10 5 15 8q12 8 14 9t13 9t14.5 13t10 14t9 19t2.5 22q0 48 -41.5 77t-109.5 29q-63 0 -101.5 -26.5t-44.5 -73.5h-21q2 59 51.5 88.5t117.5 29.5q69 0 118.5 -31t49.5 -95q0 -36 -16.5 -56
t-57.5 -45q-2 -1 -6.5 -3.5t-6.5 -4.5q-7 -4 -18 -10.5t-15 -8.5q-74 -40 -97 -55q-102 -68 -101 -150h318z" />
    <glyph glyph-name="uni00B3" unicode="&#xb3;" horiz-adv-x="522" vert-adv-y="1700" 
d="M262 982q-70 0 -121 30.5t-53 91.5h19q6 -50 47 -76.5t108 -26.5q73 0 118.5 31.5t45.5 81.5q0 49 -42.5 81t-108.5 32h-42v14h42q63 0 103 30.5t40 77.5q0 49 -43.5 79t-114.5 30q-67 0 -107 -27.5t-46 -77.5h-19q2 61 53 91.5t121 30.5q71 0 123 -31.5t52 -92.5
q0 -47 -32.5 -79t-71.5 -37q49 -6 80.5 -40t31.5 -84q0 -64 -54.5 -96.5t-128.5 -32.5z" />
    <glyph glyph-name="acute" unicode="&#xb4;" horiz-adv-x="785" vert-adv-y="2130" 
d="M532 1454l17 -21l-244 -197l-17 20z" />
    <glyph glyph-name="paragraph" unicode="&#xb6;" horiz-adv-x="1195" vert-adv-y="2130" 
d="M782 1373v-1373h-28v523h-195q-182 0 -311 128t-129 309q0 183 129 311.5t311 128.5h427v-1400h-27v1373h-177zM559 550h195v823h-195q-171 0 -292 -121t-121 -292t120.5 -290.5t292.5 -119.5z" />
    <glyph glyph-name="periodcentered" unicode="&#xb7;" horiz-adv-x="406" vert-adv-y="2130" 
d="M202 670q-15 0 -26 11t-11 26t11 26.5t26 11.5t26 -11.5t11 -26.5t-11 -26t-26 -11z" />
    <glyph glyph-name="cedilla" unicode="&#xb8;" horiz-adv-x="1140" vert-adv-y="2130" 
d="M510 -314v20q57 8 92 54.5t27 104.5h-119v135h20v-115h120v-40q0 -61 -40 -106t-100 -53z" />
    <glyph glyph-name="uni00B9" unicode="&#xb9;" horiz-adv-x="268" vert-adv-y="1700" 
d="M214 1453v-469h-19v448l-91 -70l-13 13l101 78h22z" />
    <glyph glyph-name="ordmasculine" unicode="&#xba;" horiz-adv-x="674" vert-adv-y="2130" 
d="M336 941q-106 0 -177 75.5t-71 188.5t71 188.5t177 75.5q107 0 178.5 -75.5t71.5 -188.5q0 -114 -71.5 -189t-178.5 -75zM336 942q106 0 176.5 75t70.5 188t-70.5 187.5t-176.5 74.5q-105 0 -175.5 -75t-70.5 -187q0 -113 70 -188t176 -75z" />
    <glyph glyph-name="guillemotright" unicode="&#xbb;" horiz-adv-x="1024" vert-adv-y="1700" 
d="M186 869l375 -376l-375 -375l-19 19l357 356l-357 357zM510 869l375 -376l-375 -375l-19 19l356 356l-356 357z" />
    <glyph glyph-name="questiondown" unicode="&#xbf;" horiz-adv-x="1189" vert-adv-y="2130" 
d="M688 1359q-15 0 -26 11t-11 26t11 26t26 11t26 -11t11 -26t-11 -26t-26 -11zM614 0q-212 0 -353.5 104t-141.5 260q0 53 18 104t52 95.5t72.5 82.5t90 74t93.5 61.5t93 53.5q70 37 90 57q43 49 44 158v103h30l-1 -103q0 -47 -5 -76.5t-11 -50.5t-27.5 -40t-39.5 -31.5
t-62 -37.5q-49 -29 -75.5 -45t-76 -49t-79 -58t-68 -62.5t-59.5 -71.5t-36.5 -77t-15.5 -86q0 -146 133 -242t333 -96q185 0 300.5 83.5t127.5 224.5h28q-12 -151 -136.5 -243t-317.5 -92z" />
    <glyph glyph-name="Agrave" unicode="&#xc0;" horiz-adv-x="1541" vert-adv-y="2130" 
d="M684 1870l242 -196l-17 -20l-242 196zM374 455l-210 -455h-30l636 1371l637 -1371h-30l-210 455h-793zM1157 481l-387 835l-387 -835h774z" />
    <glyph glyph-name="Aacute" unicode="&#xc1;" horiz-adv-x="1541" vert-adv-y="2130" 
d="M883 1871l17 -21l-243 -196l-16 20zM371 438l-207 -438h-30l636 1371l637 -1371h-30l-207 438h-799zM1157 481l-387 835l-387 -835h774z" />
    <glyph glyph-name="Acircumflex" unicode="&#xc2;" horiz-adv-x="1541" vert-adv-y="2130" 
d="M965 1676l-195 146l-194 -146l-17 20l211 160l212 -160zM374 455l-210 -455h-30l636 1371l637 -1371h-30l-210 455h-793zM1157 481l-387 835l-387 -835h774z" />
    <glyph glyph-name="Atilde" unicode="&#xc3;" horiz-adv-x="1541" vert-adv-y="2130" 
d="M850 1678q-41 0 -89 46q-35 35 -70 35q-34 0 -71 -35l-27 -28l-18 18l28 27q46 47 88 47q43 0 88 -47q35 -34 71 -34q35 0 70 34l27 28l19 -18l-28 -27q-46 -46 -88 -46zM374 455l-210 -455h-30l636 1371l637 -1371h-30l-210 455h-793zM1157 481l-387 835l-387 -835h774z
" />
    <glyph glyph-name="Adieresis" unicode="&#xc4;" horiz-adv-x="1541" vert-adv-y="2130" 
d="M628 1669q-15 0 -26 11t-11 26t11 26t26 11t26 -11t11 -26t-11 -26t-26 -11zM914 1669q-15 0 -26 11t-11 26t11 26t26 11t26 -11t11 -26t-11 -26t-26 -11zM374 455l-210 -455h-30l636 1371l637 -1371h-30l-210 455h-793zM1157 481l-387 835l-387 -835h774z" />
    <glyph glyph-name="Aring" unicode="&#xc5;" horiz-adv-x="1541" vert-adv-y="2130" 
d="M770 1636q-56 0 -95.5 40t-39.5 95q0 56 39.5 96t95.5 40t96 -40t40 -96t-40 -95.5t-96 -39.5zM770 1663q45 0 77 32t32 76q0 45 -32 77t-77 32q-44 0 -76 -32t-32 -77q0 -44 32 -76t76 -32zM374 455l-210 -455h-30l636 1371l637 -1371h-30l-210 455h-793zM1157 481
l-387 835l-387 -835h774z" />
    <glyph glyph-name="AE" unicode="&#xc6;" horiz-adv-x="1953" vert-adv-y="2130" 
d="M371 438l-208 -438h-29l653 1390h1041v-27h-1004v-655h943v-26h-943v-655h1004v-27h-1031v438h-426zM797 465v875l-414 -875h414z" />
    <glyph glyph-name="Ccedilla" unicode="&#xc7;" horiz-adv-x="1584" vert-adv-y="2130" 
d="M726 -326v20q57 8 92 54.5t27 104.5h-119v126q-172 32 -309.5 135t-214.5 255.5t-77 325.5q0 148 57.5 283t155 232.5t232.5 155t283 57.5q181 0 340 -84t260 -233l-22 -16q-98 144 -251 225t-327 81q-143 0 -273 -55.5t-223.5 -149.5t-149 -223.5t-55.5 -272.5
t55.5 -272.5t149 -223.5t223.5 -149.5t273 -55.5q174 0 326.5 81t250.5 225l22 -16q-101 -149 -259.5 -233t-341.5 -84q-47 0 -105 9v-103h120v-40q0 -61 -40 -106t-100 -53z" />
    <glyph glyph-name="Egrave" unicode="&#xc8;" horiz-adv-x="1281" vert-adv-y="2130" 
d="M528 1870l242 -196l-17 -20l-242 196zM1156 27v-27h-1031v1390h1031v-27h-1004v-655h943v-26h-943v-655h1004z" />
    <glyph glyph-name="Eacute" unicode="&#xc9;" horiz-adv-x="1281" vert-adv-y="2130" 
d="M753 1871l17 -21l-242 -196l-17 20zM1156 27v-27h-1031v1390h1031v-27h-1004v-655h943v-26h-943v-655h1004z" />
    <glyph glyph-name="Ecircumflex" unicode="&#xca;" horiz-adv-x="1281" vert-adv-y="2130" 
d="M835 1676l-194 146l-194 -146l-18 20l212 160l212 -160zM1156 27v-27h-1031v1390h1031v-27h-1004v-655h943v-26h-943v-655h1004z" />
    <glyph glyph-name="Edieresis" unicode="&#xcb;" horiz-adv-x="1281" vert-adv-y="2130" 
d="M498 1669q-15 0 -26 11t-11 26t11 26t26 11q14 0 25 -11t11 -26t-11 -26t-25 -11zM783 1669q-15 0 -25.5 11t-10.5 26t10.5 26t25.5 11t26 -11t11 -26t-11 -26t-26 -11zM1156 27v-27h-1031v1390h1031v-27h-1004v-655h943v-26h-943v-655h1004z" />
    <glyph glyph-name="Igrave" unicode="&#xcc;" horiz-adv-x="271" vert-adv-y="2130" 
d="M22 1870l243 -196l-17 -20l-242 196zM149 1390v-1390h-27v1390h27z" />
    <glyph glyph-name="Iacute" unicode="&#xcd;" horiz-adv-x="271" vert-adv-y="2130" 
d="M248 1871l17 -21l-243 -196l-16 20zM149 1390v-1390h-27v1390h27z" />
    <glyph glyph-name="Icircumflex" unicode="&#xce;" horiz-adv-x="273" vert-adv-y="2130" 
d="M331 1676l-194 146l-195 -146l-17 20l212 160l211 -160zM150 1390v-1390h-27v1390h27z" />
    <glyph glyph-name="Idieresis" unicode="&#xcf;" horiz-adv-x="282" vert-adv-y="2130" 
d="M-2 1669q-15 0 -26 11t-11 26t11 26t26 11t26 -11t11 -26t-11 -26t-26 -11zM284 1669q-15 0 -26 11t-11 26t11 26t26 11t26 -11t11 -26t-11 -26t-26 -11zM155 1390v-1390h-27v1390h27z" />
    <glyph glyph-name="Ntilde" unicode="&#xd1;" vert-adv-y="2130" 
d="M763 1678q-42 0 -88 46q-37 35 -71 35q-33 0 -70 -35l-27 -28l-19 18l28 27q46 47 88 47t89 -47q34 -34 70 -34t71 34l27 28l18 -18l-28 -27q-45 -46 -88 -46zM152 1314v-1314h-27v1388l1091 -1323v1325h26v-1390z" />
    <glyph glyph-name="Ograve" unicode="&#xd2;" horiz-adv-x="1705" vert-adv-y="2130" 
d="M739 1870l243 -196l-17 -20l-242 196zM853 -33q-148 0 -283 57.5t-232.5 155t-155 232.5t-57.5 283t57.5 283t155 232.5t232.5 155t283 57.5t282.5 -57.5t232 -155t155 -232.5t57.5 -283t-57.5 -283t-155 -232.5t-232 -155t-282.5 -57.5zM853 -6q190 0 351.5 94
t255 255.5t93.5 351.5t-93.5 351.5t-255 255.5t-351.5 94q-143 0 -273 -55.5t-223.5 -149.5t-149 -223.5t-55.5 -272.5t55.5 -272.5t149 -223.5t223.5 -149.5t273 -55.5z" />
    <glyph glyph-name="Oacute" unicode="&#xd3;" horiz-adv-x="1705" vert-adv-y="2130" 
d="M965 1871l17 -21l-243 -196l-16 20zM853 -33q-148 0 -283 57.5t-232.5 155t-155 232.5t-57.5 283t57.5 283t155 232.5t232.5 155t283 57.5t282.5 -57.5t232 -155t155 -232.5t57.5 -283t-57.5 -283t-155 -232.5t-232 -155t-282.5 -57.5zM853 -6q190 0 351.5 94t255 255.5
t93.5 351.5t-93.5 351.5t-255 255.5t-351.5 94q-143 0 -273 -55.5t-223.5 -149.5t-149 -223.5t-55.5 -272.5t55.5 -272.5t149 -223.5t223.5 -149.5t273 -55.5z" />
    <glyph glyph-name="Ocircumflex" unicode="&#xd4;" horiz-adv-x="1705" vert-adv-y="2130" 
d="M1047 1676l-194 146l-195 -146l-17 20l212 160l211 -160zM853 -33q-148 0 -283 57.5t-232.5 155t-155 232.5t-57.5 283t57.5 283t155 232.5t232.5 155t283 57.5t282.5 -57.5t232 -155t155 -232.5t57.5 -283t-57.5 -283t-155 -232.5t-232 -155t-282.5 -57.5zM853 -6
q190 0 351.5 94t255 255.5t93.5 351.5t-93.5 351.5t-255 255.5t-351.5 94q-143 0 -273 -55.5t-223.5 -149.5t-149 -223.5t-55.5 -272.5t55.5 -272.5t149 -223.5t223.5 -149.5t273 -55.5z" />
    <glyph glyph-name="Otilde" unicode="&#xd5;" horiz-adv-x="1705" vert-adv-y="2130" 
d="M932 1678q-42 0 -88 46q-37 35 -71 35q-35 0 -70 -35l-28 -28l-18 18l28 27q46 47 88 47q43 0 88 -47q35 -34 71 -34t70 34l28 28l18 -18l-28 -27q-46 -46 -88 -46zM853 -33q-148 0 -283 57.5t-232.5 155t-155 232.5t-57.5 283t57.5 283t155 232.5t232.5 155t283 57.5
t282.5 -57.5t232 -155t155 -232.5t57.5 -283t-57.5 -283t-155 -232.5t-232 -155t-282.5 -57.5zM853 -6q190 0 351.5 94t255 255.5t93.5 351.5t-93.5 351.5t-255 255.5t-351.5 94q-143 0 -273 -55.5t-223.5 -149.5t-149 -223.5t-55.5 -272.5t55.5 -272.5t149 -223.5
t223.5 -149.5t273 -55.5z" />
    <glyph glyph-name="Odieresis" unicode="&#xd6;" horiz-adv-x="1705" vert-adv-y="2130" 
d="M710 1669q-15 0 -26 11t-11 26t11 26t26 11t26 -11t11 -26t-11 -26t-26 -11zM996 1669q-15 0 -26 11t-11 26t11 26t26 11t26 -11t11 -26t-11 -26t-26 -11zM853 -33q-148 0 -283 57.5t-232.5 155t-155 232.5t-57.5 283t57.5 283t155 232.5t232.5 155t283 57.5t282.5 -57.5
t232 -155t155 -232.5t57.5 -283t-57.5 -283t-155 -232.5t-232 -155t-282.5 -57.5zM853 -6q190 0 351.5 94t255 255.5t93.5 351.5t-93.5 351.5t-255 255.5t-351.5 94q-143 0 -273 -55.5t-223.5 -149.5t-149 -223.5t-55.5 -272.5t55.5 -272.5t149 -223.5t223.5 -149.5
t273 -55.5z" />
    <glyph glyph-name="multiply" unicode="&#xd7;" horiz-adv-x="949" vert-adv-y="2130" 
d="M739 335l-265 264l-264 -264l-19 19l264 264l-264 265l19 18l264 -264l265 264l19 -18l-265 -265l265 -264z" />
    <glyph glyph-name="Oslash" unicode="&#xd8;" horiz-adv-x="1705" vert-adv-y="2130" 
d="M622 4l-30 -85h-30l34 95q-214 84 -342.5 270.5t-128.5 410.5q0 148 57.5 283t155 232.5t232.5 155t283 57.5q107 0 230 -37l30 85h30l-34 -95q214 -84 342.5 -270.5t128.5 -410.5q0 -148 -57.5 -283t-155 -232.5t-232 -155t-282.5 -57.5q-108 0 -231 37zM605 38
l469 1322q-117 36 -221 36q-143 0 -273 -55.5t-223.5 -149.5t-149 -223.5t-55.5 -272.5q0 -216 123.5 -395t329.5 -262zM853 -6q190 0 351.5 94t255 255.5t93.5 351.5q0 216 -123.5 395t-329.5 262l-468 -1322q117 -36 221 -36z" />
    <glyph glyph-name="Ugrave" unicode="&#xd9;" vert-adv-y="2130" 
d="M570 1870l243 -196l-17 -20l-242 196zM684 -33q-114 0 -217.5 44t-178.5 119t-119 178.5t-44 217.5v864h27v-864q0 -144 71 -266.5t193.5 -194t267.5 -71.5q144 0 266.5 71.5t194 194t71.5 266.5v864h26v-864q0 -114 -44 -217.5t-119 -178.5t-178.5 -119t-216.5 -44z" />
    <glyph glyph-name="Uacute" unicode="&#xda;" vert-adv-y="2130" 
d="M796 1871l17 -21l-243 -196l-16 20zM684 -33q-114 0 -217.5 44t-178.5 119t-119 178.5t-44 217.5v864h27v-864q0 -144 71 -266.5t193.5 -194t267.5 -71.5q144 0 266.5 71.5t194 194t71.5 266.5v864h26v-864q0 -114 -44 -217.5t-119 -178.5t-178.5 -119t-216.5 -44z" />
    <glyph glyph-name="Ucircumflex" unicode="&#xdb;" vert-adv-y="2130" 
d="M878 1676l-194 146l-195 -146l-17 20l212 160l211 -160zM684 -33q-114 0 -217.5 44t-178.5 119t-119 178.5t-44 217.5v864h27v-864q0 -144 71 -266.5t193.5 -194t267.5 -71.5q144 0 266.5 71.5t194 194t71.5 266.5v864h26v-864q0 -114 -44 -217.5t-119 -178.5
t-178.5 -119t-216.5 -44z" />
    <glyph glyph-name="Udieresis" unicode="&#xdc;" vert-adv-y="2130" 
d="M541 1669q-15 0 -26 11t-11 26t11 26t26 11t26 -11t11 -26t-11 -26t-26 -11zM827 1669q-15 0 -26 11t-11 26t11 26t26 11t26 -11t11 -26t-11 -26t-26 -11zM684 -33q-114 0 -217.5 44t-178.5 119t-119 178.5t-44 217.5v864h27v-864q0 -144 71 -266.5t193.5 -194
t267.5 -71.5q144 0 266.5 71.5t194 194t71.5 266.5v864h26v-864q0 -114 -44 -217.5t-119 -178.5t-178.5 -119t-216.5 -44z" />
    <glyph glyph-name="Yacute" unicode="&#xdd;" horiz-adv-x="1431" vert-adv-y="2130" 
d="M858 1871l17 -21l-243 -196l-16 20zM759 543v-543h-27v543l-593 847h35l572 -825l572 825h34z" />
    <glyph glyph-name="germandbls" unicode="&#xdf;" horiz-adv-x="1322" vert-adv-y="1700" 
d="M173 1070v-1403h-27v1427q14 152 157 249t358 97q227 0 369 -102.5t142 -264.5q0 -108 -68.5 -195.5t-190.5 -134.5l1 -42q132 -48 207.5 -141t75.5 -209q0 -166 -143 -272.5t-366 -114.5v28q212 7 347 105.5t135 251.5q0 71 -31 136t-88.5 116.5t-149 82t-202.5 30.5
h-16l-94 -2v14l93 -2h16q107 0 194 29.5t142 79t84.5 112t29.5 130.5q0 151 -135 246.5t-353 95.5t-352.5 -96t-134.5 -251z" />
    <glyph glyph-name="agrave" unicode="&#xe0;" horiz-adv-x="1008" vert-adv-y="2130" 
d="M417 1454l245 -198l-18 -21l-244 199zM509 -20q-160 0 -272 86t-112 206q0 82 56 151.5t152.5 109t210.5 39.5h311v100q-8 125 -93 199.5t-230 74.5q-78 0 -153.5 -26t-135.5 -83.5t-73 -133.5h-27q14 87 76.5 150t144 91t169.5 28q162 0 256 -88.5t94 -239.5v-644h-28
v161q-148 -181 -346 -181zM504 7q140 0 242 74.5t109 183.5v280h-311q-162 0 -277 -79t-115 -192q0 -109 103.5 -188t248.5 -79z" />
    <glyph glyph-name="aacute" unicode="&#xe1;" horiz-adv-x="1008" vert-adv-y="2130" 
d="M618 1454l17 -21l-245 -197l-16 20zM509 -20q-160 0 -272 86t-112 206q0 82 56 151.5t152.5 109t210.5 39.5h311v100q-8 125 -93 199.5t-230 74.5q-78 0 -153.5 -26t-135.5 -83.5t-73 -133.5h-27q14 87 76.5 150t144 91t169.5 28q162 0 256 -88.5t94 -239.5v-644h-28v161
q-148 -181 -346 -181zM504 7q140 0 242 74.5t109 183.5v280h-311q-162 0 -277 -79t-115 -192q0 -109 103.5 -188t248.5 -79z" />
    <glyph glyph-name="acircumflex" unicode="&#xe2;" horiz-adv-x="1008" vert-adv-y="2130" 
d="M700 1258l-196 147l-195 -147l-18 20l213 161l214 -161zM509 -20q-160 0 -272 86t-112 206q0 82 56 151.5t152.5 109t210.5 39.5h311v100q-8 125 -93 199.5t-230 74.5q-78 0 -153.5 -26t-135.5 -83.5t-73 -133.5h-27q14 87 76.5 150t144 91t169.5 28q162 0 256 -88.5
t94 -239.5v-644h-28v161q-148 -181 -346 -181zM504 7q140 0 242 74.5t109 183.5v280h-311q-162 0 -277 -79t-115 -192q0 -109 103.5 -188t248.5 -79z" />
    <glyph glyph-name="atilde" unicode="&#xe3;" horiz-adv-x="1008" vert-adv-y="2130" 
d="M585 1260q-42 0 -90 46q-35 35 -70 35q-36 0 -71 -35l-28 -28l-19 18l29 28q46 46 88 46q43 0 89 -46q37 -35 71 -35t71 35l28 28l19 -18l-29 -28q-46 -46 -88 -46zM509 -20q-160 0 -272 86t-112 206q0 82 56 151.5t152.5 109t210.5 39.5h311v100q-8 125 -93 199.5
t-230 74.5q-78 0 -153.5 -26t-135.5 -83.5t-73 -133.5h-27q14 87 76.5 150t144 91t169.5 28q162 0 256 -88.5t94 -239.5v-644h-28v161q-148 -181 -346 -181zM504 7q140 0 242 74.5t109 183.5v280h-311q-162 0 -277 -79t-115 -192q0 -109 103.5 -188t248.5 -79z" />
    <glyph glyph-name="adieresis" unicode="&#xe4;" horiz-adv-x="1008" vert-adv-y="2130" 
d="M360 1251q-15 0 -26 11t-11 26t11 26.5t26 11.5t26 -11.5t11 -26.5t-11 -26t-26 -11zM648 1251q-15 0 -26 11t-11 26t11 26.5t26 11.5t26 -11.5t11 -26.5t-11 -26t-26 -11zM509 -20q-160 0 -272 86t-112 206q0 82 56 151.5t152.5 109t210.5 39.5h311v100
q-8 125 -93 199.5t-230 74.5q-78 0 -153.5 -26t-135.5 -83.5t-73 -133.5h-27q14 87 76.5 150t144 91t169.5 28q162 0 256 -88.5t94 -239.5v-644h-28v161q-148 -181 -346 -181zM504 7q140 0 242 74.5t109 183.5v280h-311q-162 0 -277 -79t-115 -192q0 -109 103.5 -188
t248.5 -79z" />
    <glyph glyph-name="aring" unicode="&#xe5;" horiz-adv-x="1008" vert-adv-y="2130" 
d="M504 1217q-56 0 -96 40.5t-40 96.5t40 96t96 40q57 0 97 -40t40 -96t-40 -96.5t-97 -40.5zM504 1245q45 0 77.5 32t32.5 77t-32.5 77t-77.5 32q-44 0 -76.5 -32t-32.5 -77t32.5 -77t76.5 -32zM509 -20q-160 0 -272 86t-112 206q0 82 56 151.5t152.5 109t210.5 39.5h311
v100q-8 125 -93 199.5t-230 74.5q-78 0 -153.5 -26t-135.5 -83.5t-73 -133.5h-27q14 87 76.5 150t144 91t169.5 28q162 0 256 -88.5t94 -239.5v-644h-28v161q-148 -181 -346 -181zM504 7q140 0 242 74.5t109 183.5v280h-311q-162 0 -277 -79t-115 -192q0 -109 103.5 -188
t248.5 -79z" />
    <glyph glyph-name="ae" unicode="&#xe6;" horiz-adv-x="1927" vert-adv-y="2130" 
d="M509 -20q-160 0 -272 86t-112 206q0 82 56 151.5t152.5 109t210.5 39.5h311v100q-8 125 -93 199.5t-230 74.5q-78 0 -153.5 -26t-135.5 -83.5t-73 -133.5h-27q14 87 76.5 150t143.5 91t168 28q143 0 237 -80.5t116 -220.5q61 140 181 228.5t265 90.5q194 -5 328.5 -139.5
t143.5 -338.5h-919v-59q11 -193 137 -319.5t309 -126.5q144 0 257.5 82t161.5 220l26 -9q-49 -147 -169.5 -233.5t-275.5 -86.5q-141 0 -254 74t-173 200l-20 -5v-249h-27v161q-148 -181 -346 -181zM884 540h889q-21 186 -145.5 304.5t-298.5 118.5t-298.5 -118.5
t-146.5 -304.5zM504 7q140 0 242 74.5t109 183.5v280h-311q-162 0 -277 -79t-115 -192q0 -109 103.5 -188t248.5 -79z" />
    <glyph glyph-name="ccedilla" unicode="&#xe7;" horiz-adv-x="1113" vert-adv-y="2130" 
d="M490 -314v20q57 8 92 54.5t27 104.5h-119v127q-165 42 -265 177t-100 316q0 217 135.5 361t339.5 144q115 0 215.5 -52t166.5 -144l-24 -16q-61 86 -156 135.5t-202 49.5q-192 0 -320 -136.5t-128 -341.5t128 -341.5t320 -136.5q107 0 202 49.5t156 135.5l24 -16
q-66 -92 -166.5 -144t-215.5 -52q-32 0 -90 7v-102h120v-40q0 -61 -40 -106t-100 -53z" />
    <glyph glyph-name="egrave" unicode="&#xe8;" horiz-adv-x="1198" vert-adv-y="2130" 
d="M486 1454l244 -198l-17 -21l-244 199zM600 -20q-204 0 -339.5 144t-135.5 361q0 213 136.5 356.5t338.5 148.5q195 -4 330 -140.5t143 -337.5h-920l-1 -27q0 -205 127.5 -341.5t320.5 -136.5q144 0 257 82t161 220l27 -9q-50 -147 -170.5 -233.5t-274.5 -86.5zM155 540
h889q-22 186 -146.5 304.5t-297.5 118.5q-175 0 -299.5 -118.5t-145.5 -304.5z" />
    <glyph glyph-name="eacute" unicode="&#xe9;" horiz-adv-x="1198" vert-adv-y="2130" 
d="M713 1454l17 -21l-244 -197l-17 20zM600 -20q-204 0 -339.5 144t-135.5 361q0 213 136.5 356.5t338.5 148.5q195 -4 330 -140.5t143 -337.5h-920l-1 -27q0 -205 127.5 -341.5t320.5 -136.5q144 0 257 82t161 220l27 -9q-50 -147 -170.5 -233.5t-274.5 -86.5zM155 540h889
q-22 186 -146.5 304.5t-297.5 118.5q-175 0 -299.5 -118.5t-145.5 -304.5z" />
    <glyph glyph-name="ecircumflex" unicode="&#xea;" horiz-adv-x="1198" vert-adv-y="2130" 
d="M796 1258l-196 147l-196 -147l-17 20l213 161l213 -161zM600 -20q-204 0 -339.5 144t-135.5 361q0 213 136.5 356.5t338.5 148.5q195 -4 330 -140.5t143 -337.5h-920l-1 -27q0 -205 127.5 -341.5t320.5 -136.5q144 0 257 82t161 220l27 -9q-50 -147 -170.5 -233.5
t-274.5 -86.5zM155 540h889q-22 186 -146.5 304.5t-297.5 118.5q-175 0 -299.5 -118.5t-145.5 -304.5z" />
    <glyph glyph-name="edieresis" unicode="&#xeb;" horiz-adv-x="1198" vert-adv-y="2130" 
d="M455 1251q-15 0 -26 11t-11 26t11 26.5t26 11.5t26 -11.5t11 -26.5t-11 -26t-26 -11zM743 1251q-15 0 -26 11t-11 26t11 26.5t26 11.5t26 -11.5t11 -26.5t-11 -26t-26 -11zM600 -20q-204 0 -339.5 144t-135.5 361q0 213 136.5 356.5t338.5 148.5q195 -4 330 -140.5
t143 -337.5h-920l-1 -27q0 -205 127.5 -341.5t320.5 -136.5q144 0 257 82t161 220l27 -9q-50 -147 -170.5 -233.5t-274.5 -86.5zM155 540h889q-22 186 -146.5 304.5t-297.5 118.5q-175 0 -299.5 -118.5t-145.5 -304.5z" />
    <glyph glyph-name="igrave" unicode="&#xec;" horiz-adv-x="319" vert-adv-y="2130" 
d="M46 1454l244 -198l-17 -21l-244 199zM173 970v-970h-27v970h27z" />
    <glyph glyph-name="iacute" unicode="&#xed;" horiz-adv-x="319" vert-adv-y="2130" 
d="M273 1454l17 -21l-244 -197l-17 20zM173 970v-970h-27v970h27z" />
    <glyph glyph-name="icircumflex" unicode="&#xee;" horiz-adv-x="322" vert-adv-y="2130" 
d="M357 1258l-196 147l-196 -147l-17 20l213 161l213 -161zM175 970v-970h-27v970h27z" />
    <glyph glyph-name="idieresis" unicode="&#xef;" horiz-adv-x="331" vert-adv-y="2130" 
d="M21 1251q-15 0 -26 11t-11 26t11 26.5t26 11.5t26 -11.5t11 -26.5t-11 -26t-26 -11zM309 1251q-15 0 -26 11t-11 26t11 26.5t26 11.5t26 -11.5t11 -26.5t-11 -26t-26 -11zM179 970v-970h-27v970h27z" />
    <glyph glyph-name="ntilde" unicode="&#xf1;" horiz-adv-x="967" vert-adv-y="2130" 
d="M564 1260q-43 0 -89 46q-37 35 -71 35t-71 -35l-27 -28l-19 18l28 28q46 46 89 46q41 0 89 -46q37 -35 71 -35t71 35l27 28l19 -18l-28 -28q-46 -46 -89 -46zM153 633v-633h-28v968h27v-191q58 98 146 155.5t185 57.5q149 0 254 -104.5t105 -252.5v-633h-27v633
q0 137 -97 233.5t-234 96.5q-138 0 -234.5 -96.5t-96.5 -233.5z" />
    <glyph glyph-name="ograve" unicode="&#xf2;" horiz-adv-x="1199" vert-adv-y="2130" 
d="M486 1454l244 -198l-17 -21l-244 199zM600 -20q-204 0 -339.5 144t-135.5 361t135.5 361t339.5 144t339 -144t135 -361t-135 -361t-339 -144zM600 7q192 0 319.5 136.5t127.5 341.5t-127.5 341.5t-319.5 136.5t-320 -136.5t-128 -341.5t128 -341.5t320 -136.5z" />
    <glyph glyph-name="oacute" unicode="&#xf3;" horiz-adv-x="1199" vert-adv-y="2130" 
d="M713 1454l17 -21l-244 -197l-17 20zM600 -20q-204 0 -339.5 144t-135.5 361t135.5 361t339.5 144t339 -144t135 -361t-135 -361t-339 -144zM600 7q192 0 319.5 136.5t127.5 341.5t-127.5 341.5t-319.5 136.5t-320 -136.5t-128 -341.5t128 -341.5t320 -136.5z" />
    <glyph glyph-name="ocircumflex" unicode="&#xf4;" horiz-adv-x="1199" vert-adv-y="2130" 
d="M796 1258l-196 147l-196 -147l-17 20l213 161l213 -161zM600 -20q-204 0 -339.5 144t-135.5 361t135.5 361t339.5 144t339 -144t135 -361t-135 -361t-339 -144zM600 7q192 0 319.5 136.5t127.5 341.5t-127.5 341.5t-319.5 136.5t-320 -136.5t-128 -341.5t128 -341.5
t320 -136.5z" />
    <glyph glyph-name="otilde" unicode="&#xf5;" horiz-adv-x="1199" vert-adv-y="2130" 
d="M680 1260q-43 0 -89 46q-37 35 -71 35t-71 -35l-28 -28l-18 18l28 28q46 46 88 46t90 -46q37 -35 71 -35t71 35l27 28l19 -18l-28 -28q-46 -46 -89 -46zM600 -20q-204 0 -339.5 144t-135.5 361t135.5 361t339.5 144t339 -144t135 -361t-135 -361t-339 -144zM600 7
q192 0 319.5 136.5t127.5 341.5t-127.5 341.5t-319.5 136.5t-320 -136.5t-128 -341.5t128 -341.5t320 -136.5z" />
    <glyph glyph-name="odieresis" unicode="&#xf6;" horiz-adv-x="1199" vert-adv-y="2130" 
d="M456 1251q-15 0 -26 11t-11 26t11 26.5t26 11.5t26 -11.5t11 -26.5t-11 -26t-26 -11zM744 1251q-15 0 -26 11t-11 26t11 26.5t26 11.5t26 -11.5t11 -26.5t-11 -26t-26 -11zM600 -20q-204 0 -339.5 144t-135.5 361t135.5 361t339.5 144t339 -144t135 -361t-135 -361
t-339 -144zM600 7q192 0 319.5 136.5t127.5 341.5t-127.5 341.5t-319.5 136.5t-320 -136.5t-128 -341.5t128 -341.5t320 -136.5z" />
    <glyph glyph-name="divide" unicode="&#xf7;" horiz-adv-x="1159" vert-adv-y="2130" 
d="M579 896q-16 0 -27 11t-11 26t11 26t27 11q15 0 26 -11t11 -26t-11 -26t-26 -11zM966 632v-27h-773v27h773zM579 291q-16 0 -27 11t-11 26t11 26t27 11q15 0 26 -11t11 -26t-11 -26t-26 -11z" />
    <glyph glyph-name="oslash" unicode="&#xf8;" horiz-adv-x="1199" vert-adv-y="2130" 
d="M378 33l-41 -115h-30l46 129q-106 69 -167 184t-61 254q0 217 135.5 361t339.5 144q41 0 86 -7l49 142h30l-52 -147q161 -44 261 -178.5t100 -314.5q0 -217 -135 -361t-339 -144q-113 0 -222 53zM363 75l312 882q-37 6 -75 6q-192 0 -320 -136.5t-128 -341.5
q0 -127 56.5 -235t154.5 -175zM600 7q192 0 319.5 136.5t127.5 341.5q0 171 -95 299t-248 167l-317 -891q100 -53 213 -53z" />
    <glyph glyph-name="ugrave" unicode="&#xf9;" horiz-adv-x="967" vert-adv-y="2130" 
d="M370 1454l244 -198l-17 -21l-244 199zM484 -22q-149 0 -254 104.5t-105 253.5v633h27v-633q0 -137 97 -233.5t234 -96.5q138 0 235 96.5t97 233.5v633h27v-968h-27v191q-58 -98 -146 -156t-185 -58z" />
    <glyph glyph-name="uacute" unicode="&#xfa;" horiz-adv-x="967" vert-adv-y="2130" 
d="M597 1454l17 -21l-244 -197l-17 20zM484 -22q-149 0 -254 104.5t-105 253.5v633h27v-633q0 -137 97 -233.5t234 -96.5q138 0 235 96.5t97 233.5v633h27v-968h-27v191q-58 -98 -146 -156t-185 -58z" />
    <glyph glyph-name="ucircumflex" unicode="&#xfb;" horiz-adv-x="967" vert-adv-y="2130" 
d="M680 1258l-196 147l-196 -147l-17 20l213 161l213 -161zM484 -22q-149 0 -254 104.5t-105 253.5v633h27v-633q0 -137 97 -233.5t234 -96.5q138 0 235 96.5t97 233.5v633h27v-968h-27v191q-58 -98 -146 -156t-185 -58z" />
    <glyph glyph-name="udieresis" unicode="&#xfc;" horiz-adv-x="967" vert-adv-y="2130" 
d="M339 1251q-15 0 -26 11t-11 26t11 26.5t26 11.5q16 0 27 -11.5t11 -26.5t-11 -26t-27 -11zM627 1251q-15 0 -26 11t-11 26t11 26.5t26 11.5q16 0 27 -11.5t11 -26.5t-11 -26t-27 -11zM484 -22q-149 0 -254 104.5t-105 253.5v633h27v-633q0 -137 97 -233.5t234 -96.5
q138 0 235 96.5t97 233.5v633h27v-968h-27v191q-58 -98 -146 -156t-185 -58z" />
    <glyph glyph-name="yacute" unicode="&#xfd;" horiz-adv-x="1132" vert-adv-y="2130" 
d="M679 1454l18 -21l-245 -197l-17 20zM998 970l-655 -1411h-16l232 495l-425 916h30l402 -893l402 893h30z" />
    <glyph glyph-name="ydieresis" unicode="&#xff;" horiz-adv-x="1132" vert-adv-y="2130" 
d="M423 1251q-16 0 -27 11t-11 26t11 26.5t27 11.5q15 0 26 -11.5t11 -26.5t-11 -26t-26 -11zM711 1251q-16 0 -27 11t-11 26t11 26.5t27 11.5q15 0 26 -11.5t11 -26.5t-11 -26t-26 -11zM998 970l-655 -1411h-16l232 495l-425 916h30l402 -893l402 893h30z" />
    <glyph glyph-name="Amacron" unicode="&#x100;" horiz-adv-x="1541" vert-adv-y="2130" 
d="M957 1700v-27h-373v27h373zM374 455l-210 -455h-30l636 1371l637 -1371h-30l-210 455h-793zM1157 481l-387 835l-387 -835h774z" />
    <glyph glyph-name="amacron" unicode="&#x101;" horiz-adv-x="1008" vert-adv-y="2130" 
d="M692 1282v-27h-375v27h375zM509 -20q-160 0 -272 86t-112 206q0 82 56 151.5t152.5 109t210.5 39.5h311v100q-8 125 -93 199.5t-230 74.5q-78 0 -153.5 -26t-135.5 -83.5t-73 -133.5h-27q14 87 76.5 150t144 91t169.5 28q162 0 256 -88.5t94 -239.5v-644h-28v161
q-148 -181 -346 -181zM504 7q140 0 242 74.5t109 183.5v280h-311q-162 0 -277 -79t-115 -192q0 -109 103.5 -188t248.5 -79z" />
    <glyph glyph-name="Abreve" unicode="&#x102;" horiz-adv-x="1541" vert-adv-y="2130" 
d="M770 1648q-86 0 -149 56t-72 140h27q9 -73 64.5 -121t129.5 -48q75 0 130 48t65 121h27q-10 -84 -73.5 -140t-148.5 -56zM374 455l-210 -455h-30l636 1371l637 -1371h-30l-210 455h-793zM1157 481l-387 835l-387 -835h774z" />
    <glyph glyph-name="abreve" unicode="&#x103;" horiz-adv-x="1008" vert-adv-y="2130" 
d="M504 1230q-86 0 -149.5 56.5t-73.5 140.5h27q10 -74 65.5 -122t130.5 -48q76 0 131.5 48t65.5 122h27q-10 -84 -74 -140.5t-150 -56.5zM509 -20q-160 0 -272 86t-112 206q0 82 56 151.5t152.5 109t210.5 39.5h311v100q-8 125 -93 199.5t-230 74.5q-78 0 -153.5 -26
t-135.5 -83.5t-73 -133.5h-27q14 87 76.5 150t144 91t169.5 28q162 0 256 -88.5t94 -239.5v-644h-28v161q-148 -181 -346 -181zM504 7q140 0 242 74.5t109 183.5v280h-311q-162 0 -277 -79t-115 -192q0 -109 103.5 -188t248.5 -79z" />
    <glyph glyph-name="Cacute" unicode="&#x106;" horiz-adv-x="1584" vert-adv-y="2130" 
d="M907 1871l17 -21l-243 -196l-16 20zM853 -33q-148 0 -283 57.5t-232.5 155t-155 232.5t-57.5 283t57.5 283t155 232.5t232.5 155t283 57.5q181 0 340 -84t260 -233l-22 -16q-98 144 -251 225t-327 81q-143 0 -273 -55.5t-223.5 -149.5t-149 -223.5t-55.5 -272.5
t55.5 -272.5t149 -223.5t223.5 -149.5t273 -55.5q174 0 326.5 81t250.5 225l22 -16q-101 -149 -259.5 -233t-339.5 -84z" />
    <glyph glyph-name="cacute" unicode="&#x107;" horiz-adv-x="1113" vert-adv-y="2130" 
d="M672 1454l17 -21l-244 -197l-17 20zM600 -20q-204 0 -339.5 144t-135.5 361t135.5 361t339.5 144q115 0 215.5 -52t166.5 -144l-24 -16q-61 86 -156 135.5t-202 49.5q-192 0 -320 -136.5t-128 -341.5t128 -341.5t320 -136.5q107 0 202 49.5t156 135.5l24 -16
q-66 -92 -166.5 -144t-215.5 -52z" />
    <glyph glyph-name="Ccircumflex" unicode="&#x108;" horiz-adv-x="1584" vert-adv-y="2130" 
d="M989 1676l-194 146l-195 -146l-17 20l212 160l211 -160zM853 -33q-148 0 -283 57.5t-232.5 155t-155 232.5t-57.5 283t57.5 283t155 232.5t232.5 155t283 57.5q181 0 340 -84t260 -233l-22 -16q-98 144 -251 225t-327 81q-143 0 -273 -55.5t-223.5 -149.5t-149 -223.5
t-55.5 -272.5t55.5 -272.5t149 -223.5t223.5 -149.5t273 -55.5q174 0 326.5 81t250.5 225l22 -16q-101 -149 -259.5 -233t-339.5 -84z" />
    <glyph glyph-name="ccircumflex" unicode="&#x109;" horiz-adv-x="1113" vert-adv-y="2130" 
d="M755 1258l-196 147l-196 -147l-17 20l213 161l213 -161zM600 -20q-204 0 -339.5 144t-135.5 361t135.5 361t339.5 144q115 0 215.5 -52t166.5 -144l-24 -16q-61 86 -156 135.5t-202 49.5q-192 0 -320 -136.5t-128 -341.5t128 -341.5t320 -136.5q107 0 202 49.5t156 135.5
l24 -16q-66 -92 -166.5 -144t-215.5 -52z" />
    <glyph glyph-name="Cdotaccent" unicode="&#x10a;" horiz-adv-x="1584" vert-adv-y="2130" 
d="M795 1703q-15 0 -26 11t-11 26t11 26t26 11t25.5 -11t10.5 -26t-10.5 -26t-25.5 -11zM853 -33q-148 0 -283 57.5t-232.5 155t-155 232.5t-57.5 283t57.5 283t155 232.5t232.5 155t283 57.5q181 0 340 -84t260 -233l-22 -16q-98 144 -251 225t-327 81q-143 0 -273 -55.5
t-223.5 -149.5t-149 -223.5t-55.5 -272.5t55.5 -272.5t149 -223.5t223.5 -149.5t273 -55.5q174 0 326.5 81t250.5 225l22 -16q-101 -149 -259.5 -233t-339.5 -84z" />
    <glyph glyph-name="cdotaccent" unicode="&#x10b;" horiz-adv-x="1113" vert-adv-y="2130" 
d="M559 1285q-15 0 -26 11t-11 26t11 26t26 11t26 -11t11 -26t-11 -26t-26 -11zM600 -20q-204 0 -339.5 144t-135.5 361t135.5 361t339.5 144q115 0 215.5 -52t166.5 -144l-24 -16q-61 86 -156 135.5t-202 49.5q-192 0 -320 -136.5t-128 -341.5t128 -341.5t320 -136.5
q107 0 202 49.5t156 135.5l24 -16q-66 -92 -166.5 -144t-215.5 -52z" />
    <glyph glyph-name="Ccaron" unicode="&#x10c;" horiz-adv-x="1584" vert-adv-y="2130" 
d="M989 1835l17 -20l-211 -160l-212 160l17 20l195 -147zM853 -33q-148 0 -283 57.5t-232.5 155t-155 232.5t-57.5 283t57.5 283t155 232.5t232.5 155t283 57.5q181 0 340 -84t260 -233l-22 -16q-98 144 -251 225t-327 81q-143 0 -273 -55.5t-223.5 -149.5t-149 -223.5
t-55.5 -272.5t55.5 -272.5t149 -223.5t223.5 -149.5t273 -55.5q174 0 326.5 81t250.5 225l22 -16q-101 -149 -259.5 -233t-339.5 -84z" />
    <glyph glyph-name="ccaron" unicode="&#x10d;" horiz-adv-x="1113" vert-adv-y="2130" 
d="M755 1418l17 -20l-213 -161l-213 161l17 20l196 -148zM600 -20q-204 0 -339.5 144t-135.5 361t135.5 361t339.5 144q115 0 215.5 -52t166.5 -144l-24 -16q-61 86 -156 135.5t-202 49.5q-192 0 -320 -136.5t-128 -341.5t128 -341.5t320 -136.5q107 0 202 49.5t156 135.5
l24 -16q-66 -92 -166.5 -144t-215.5 -52z" />
    <glyph glyph-name="Emacron" unicode="&#x112;" horiz-adv-x="1281" vert-adv-y="2130" 
d="M827 1700v-27h-372v27h372zM1156 27v-27h-1031v1390h1031v-27h-1004v-655h943v-26h-943v-655h1004z" />
    <glyph glyph-name="emacron" unicode="&#x113;" horiz-adv-x="1198" vert-adv-y="2130" 
d="M788 1282v-27h-376v27h376zM600 -20q-204 0 -339.5 144t-135.5 361q0 213 136.5 356.5t338.5 148.5q195 -4 330 -140.5t143 -337.5h-920l-1 -27q0 -205 127.5 -341.5t320.5 -136.5q144 0 257 82t161 220l27 -9q-50 -147 -170.5 -233.5t-274.5 -86.5zM155 540h889
q-22 186 -146.5 304.5t-297.5 118.5q-175 0 -299.5 -118.5t-145.5 -304.5z" />
    <glyph glyph-name="Ebreve" unicode="&#x114;" horiz-adv-x="1281" vert-adv-y="2130" 
d="M641 1648q-85 0 -148.5 56t-73.5 140h27q10 -73 65 -121t130 -48t130 48t65 121h27q-10 -84 -73.5 -140t-148.5 -56zM1156 27v-27h-1031v1390h1031v-27h-1004v-655h943v-26h-943v-655h1004z" />
    <glyph glyph-name="ebreve" unicode="&#x115;" horiz-adv-x="1198" vert-adv-y="2130" 
d="M600 1230q-86 0 -150 56.5t-74 140.5h28q10 -74 65 -122t131 -48q75 0 130.5 48t65.5 122h27q-10 -84 -73.5 -140.5t-149.5 -56.5zM600 -20q-204 0 -339.5 144t-135.5 361q0 213 136.5 356.5t338.5 148.5q195 -4 330 -140.5t143 -337.5h-920l-1 -27q0 -205 127.5 -341.5
t320.5 -136.5q144 0 257 82t161 220l27 -9q-50 -147 -170.5 -233.5t-274.5 -86.5zM155 540h889q-22 186 -146.5 304.5t-297.5 118.5q-175 0 -299.5 -118.5t-145.5 -304.5z" />
    <glyph glyph-name="Edotaccent" unicode="&#x116;" horiz-adv-x="1281" vert-adv-y="2130" 
d="M641 1703q-15 0 -26 11t-11 26t11 26t26 11t26 -11t11 -26t-11 -26t-26 -11zM1156 27v-27h-1031v1390h1031v-27h-1004v-655h943v-26h-943v-655h1004z" />
    <glyph glyph-name="edotaccent" unicode="&#x117;" horiz-adv-x="1198" vert-adv-y="2130" 
d="M600 1285q-15 0 -26 11t-11 26t11 26t26 11t26 -11t11 -26t-11 -26t-26 -11zM600 -20q-204 0 -339.5 144t-135.5 361q0 213 136.5 356.5t338.5 148.5q195 -4 330 -140.5t143 -337.5h-920l-1 -27q0 -205 127.5 -341.5t320.5 -136.5q144 0 257 82t161 220l27 -9
q-50 -147 -170.5 -233.5t-274.5 -86.5zM155 540h889q-22 186 -146.5 304.5t-297.5 118.5q-175 0 -299.5 -118.5t-145.5 -304.5z" />
    <glyph glyph-name="Ecaron" unicode="&#x11a;" horiz-adv-x="1281" vert-adv-y="2130" 
d="M835 1835l18 -20l-212 -160l-212 160l17 20l195 -147zM1156 27v-27h-1031v1390h1031v-27h-1004v-655h943v-26h-943v-655h1004z" />
    <glyph glyph-name="ecaron" unicode="&#x11b;" horiz-adv-x="1198" vert-adv-y="2130" 
d="M796 1418l17 -20l-213 -161l-213 161l17 20l196 -148zM600 -20q-204 0 -339.5 144t-135.5 361q0 213 136.5 356.5t338.5 148.5q195 -4 330 -140.5t143 -337.5h-920l-1 -27q0 -205 127.5 -341.5t320.5 -136.5q144 0 257 82t161 220l27 -9q-50 -147 -170.5 -233.5
t-274.5 -86.5zM155 540h889q-22 186 -146.5 304.5t-297.5 118.5q-175 0 -299.5 -118.5t-145.5 -304.5z" />
    <glyph glyph-name="Gcircumflex" unicode="&#x11c;" horiz-adv-x="1588" vert-adv-y="2130" 
d="M989 1676l-194 146l-195 -146l-17 20l212 160l211 -160zM853 -33q-148 0 -283 57.5t-232.5 155t-155 232.5t-57.5 283t57.5 283t155 232.5t232.5 155t283 57.5q181 0 340 -84t260 -233l-22 -16q-98 144 -251 225t-327 81q-143 0 -273 -55.5t-223.5 -149.5t-149 -223.5
t-55.5 -272.5t55.5 -272.5t149 -223.5t223.5 -149.5t273 -55.5q173 0 327.5 82.5t253.5 228.5v358h-624v27h651l1 -391q-100 -155 -261.5 -243.5t-347.5 -88.5z" />
    <glyph glyph-name="gcircumflex" unicode="&#x11d;" horiz-adv-x="1131" vert-adv-y="2130" 
d="M765 1258l-196 147l-196 -147l-17 20l213 161l213 -161zM588 -441h-1q-140 0 -243 63t-149 176h29q46 -101 141 -156t223 -55q181 0 290 104.5t109 281.5v287l-22 4q-53 -132 -159.5 -210t-240.5 -78q-188 0 -314 144.5t-126 361.5t126 361t314 144q134 0 240.5 -77.5
t159.5 -209.5l22 4v268h28v-989q0 -193 -116 -308.5t-311 -115.5zM565 4q179 0 299 136.5t120 341.5t-120 341.5t-299 136.5q-180 0 -299.5 -136.5t-119.5 -341.5t119.5 -341.5t299.5 -136.5z" />
    <glyph glyph-name="Gbreve" unicode="&#x11e;" horiz-adv-x="1588" vert-adv-y="2130" 
d="M795 1648q-86 0 -149 56t-73 140h27q10 -73 65 -121t130 -48q74 0 129 48t65 121h27q-9 -84 -72 -140t-149 -56zM853 -33q-148 0 -283 57.5t-232.5 155t-155 232.5t-57.5 283t57.5 283t155 232.5t232.5 155t283 57.5q181 0 340 -84t260 -233l-22 -16q-98 144 -251 225
t-327 81q-143 0 -273 -55.5t-223.5 -149.5t-149 -223.5t-55.5 -272.5t55.5 -272.5t149 -223.5t223.5 -149.5t273 -55.5q173 0 327.5 82.5t253.5 228.5v358h-624v27h651l1 -391q-100 -155 -261.5 -243.5t-347.5 -88.5z" />
    <glyph glyph-name="gbreve" unicode="&#x11f;" horiz-adv-x="1131" vert-adv-y="2130" 
d="M569 1230q-86 0 -150 56.5t-73 140.5h27q10 -74 65.5 -122t130.5 -48t130.5 48t65.5 122h27q-9 -84 -73 -140.5t-150 -56.5zM588 -441h-1q-140 0 -243 63t-149 176h29q46 -101 141 -156t223 -55q181 0 290 104.5t109 281.5v287l-22 4q-53 -132 -159.5 -210t-240.5 -78
q-188 0 -314 144.5t-126 361.5t126 361t314 144q134 0 240.5 -77.5t159.5 -209.5l22 4v268h28v-989q0 -193 -116 -308.5t-311 -115.5zM565 4q179 0 299 136.5t120 341.5t-120 341.5t-299 136.5q-180 0 -299.5 -136.5t-119.5 -341.5t119.5 -341.5t299.5 -136.5z" />
    <glyph glyph-name="Gdotaccent" unicode="&#x120;" horiz-adv-x="1588" vert-adv-y="2130" 
d="M795 1703q-15 0 -26 11t-11 26t11 26t26 11t25.5 -11t10.5 -26t-10.5 -26t-25.5 -11zM853 -33q-148 0 -283 57.5t-232.5 155t-155 232.5t-57.5 283t57.5 283t155 232.5t232.5 155t283 57.5q181 0 340 -84t260 -233l-22 -16q-98 144 -251 225t-327 81q-143 0 -273 -55.5
t-223.5 -149.5t-149 -223.5t-55.5 -272.5t55.5 -272.5t149 -223.5t223.5 -149.5t273 -55.5q173 0 327.5 82.5t253.5 228.5v358h-624v27h651l1 -391q-100 -155 -261.5 -243.5t-347.5 -88.5z" />
    <glyph glyph-name="gdotaccent" unicode="&#x121;" horiz-adv-x="1131" vert-adv-y="2130" 
d="M569 1285q-15 0 -26 11t-11 26t11 26t26 11t26 -11t11 -26t-11 -26t-26 -11zM588 -441h-1q-140 0 -243 63t-149 176h29q46 -101 141 -156t223 -55q181 0 290 104.5t109 281.5v287l-22 4q-53 -132 -159.5 -210t-240.5 -78q-188 0 -314 144.5t-126 361.5t126 361t314 144
q134 0 240.5 -77.5t159.5 -209.5l22 4v268h28v-989q0 -193 -116 -308.5t-311 -115.5zM565 4q179 0 299 136.5t120 341.5t-120 341.5t-299 136.5q-180 0 -299.5 -136.5t-119.5 -341.5t119.5 -341.5t299.5 -136.5z" />
    <glyph glyph-name="Itilde" unicode="&#x128;" horiz-adv-x="273" vert-adv-y="2130" 
d="M216 1678q-42 0 -88 46q-37 35 -71 35q-35 0 -70 -35l-28 -28l-18 18l28 27q46 47 88 47q43 0 88 -47q35 -34 71 -34t70 34l28 28l18 -18l-28 -27q-46 -46 -88 -46zM150 1390v-1390h-27v1390h27z" />
    <glyph glyph-name="itilde" unicode="&#x129;" horiz-adv-x="322" vert-adv-y="2130" 
d="M241 1260q-41 0 -89 46q-37 35 -71 35t-71 -35l-27 -28l-19 18l28 28q46 46 89 46t89 -46q37 -35 71 -35t71 35l27 28l19 -18l-28 -28q-46 -46 -89 -46zM175 970v-970h-28v970h28z" />
    <glyph glyph-name="Imacron" unicode="&#x12a;" horiz-adv-x="283" vert-adv-y="2130" 
d="M328 1700v-27h-373v27h373zM155 1390v-1390h-27v1390h27z" />
    <glyph glyph-name="imacron" unicode="&#x12b;" horiz-adv-x="332" vert-adv-y="2130" 
d="M354 1282v-27h-376v27h376zM179 970v-970h-27v970h27z" />
    <glyph glyph-name="Idotaccent" unicode="&#x130;" horiz-adv-x="278" vert-adv-y="2130" 
d="M139 1703q-15 0 -26 11t-11 26t11 26t26 11t26 -11t11 -26t-11 -26t-26 -11zM152 1390v-1390h-27v1390h27z" />
    <glyph glyph-name="dotlessi" unicode="&#x131;" horiz-adv-x="323" vert-adv-y="2130" 
d="M175 970v-970h-27v970h27z" />
    <glyph glyph-name="Nacute" unicode="&#x143;" vert-adv-y="2130" 
d="M796 1871l17 -21l-243 -196l-16 20zM152 1314v-1314h-27v1388l1091 -1323v1325h26v-1390z" />
    <glyph glyph-name="nacute" unicode="&#x144;" horiz-adv-x="967" vert-adv-y="2130" 
d="M597 1454l17 -21l-244 -197l-17 20zM153 633v-633h-28v968h27v-191q58 98 146 155.5t185 57.5q149 0 254 -104.5t105 -252.5v-633h-27v633q0 137 -97 233.5t-234 96.5q-138 0 -234.5 -96.5t-96.5 -233.5z" />
    <glyph glyph-name="Ncaron" unicode="&#x147;" vert-adv-y="2130" 
d="M878 1835l17 -20l-211 -160l-212 160l17 20l195 -147zM152 1314v-1314h-27v1388l1091 -1323v1325h26v-1390z" />
    <glyph glyph-name="ncaron" unicode="&#x148;" horiz-adv-x="967" vert-adv-y="2130" 
d="M680 1418l17 -20l-213 -161l-213 161l17 20l196 -148zM153 633v-633h-28v968h27v-191q58 98 146 155.5t185 57.5q149 0 254 -104.5t105 -252.5v-633h-27v633q0 137 -97 233.5t-234 96.5q-138 0 -234.5 -96.5t-96.5 -233.5z" />
    <glyph glyph-name="Omacron" unicode="&#x14c;" horiz-adv-x="1705" vert-adv-y="2130" 
d="M1039 1700v-27h-373v27h373zM853 -33q-148 0 -283 57.5t-232.5 155t-155 232.5t-57.5 283t57.5 283t155 232.5t232.5 155t283 57.5t282.5 -57.5t232 -155t155 -232.5t57.5 -283t-57.5 -283t-155 -232.5t-232 -155t-282.5 -57.5zM853 -6q190 0 351.5 94t255 255.5
t93.5 351.5t-93.5 351.5t-255 255.5t-351.5 94q-143 0 -273 -55.5t-223.5 -149.5t-149 -223.5t-55.5 -272.5t55.5 -272.5t149 -223.5t223.5 -149.5t273 -55.5z" />
    <glyph glyph-name="omacron" unicode="&#x14d;" horiz-adv-x="1199" vert-adv-y="2130" 
d="M788 1282v-27h-376v27h376zM600 -20q-204 0 -339.5 144t-135.5 361t135.5 361t339.5 144t339 -144t135 -361t-135 -361t-339 -144zM600 7q192 0 319.5 136.5t127.5 341.5t-127.5 341.5t-319.5 136.5t-320 -136.5t-128 -341.5t128 -341.5t320 -136.5z" />
    <glyph glyph-name="Obreve" unicode="&#x14e;" horiz-adv-x="1705" vert-adv-y="2130" 
d="M853 1648q-86 0 -149 56t-73 140h27q10 -73 65 -121t130 -48q74 0 129 48t65 121h27q-10 -84 -73 -140t-148 -56zM853 -33q-148 0 -283 57.5t-232.5 155t-155 232.5t-57.5 283t57.5 283t155 232.5t232.5 155t283 57.5t282.5 -57.5t232 -155t155 -232.5t57.5 -283
t-57.5 -283t-155 -232.5t-232 -155t-282.5 -57.5zM853 -6q190 0 351.5 94t255 255.5t93.5 351.5t-93.5 351.5t-255 255.5t-351.5 94q-143 0 -273 -55.5t-223.5 -149.5t-149 -223.5t-55.5 -272.5t55.5 -272.5t149 -223.5t223.5 -149.5t273 -55.5z" />
    <glyph glyph-name="obreve" unicode="&#x14f;" horiz-adv-x="1199" vert-adv-y="2130" 
d="M600 1230q-86 0 -150 56.5t-74 140.5h28q10 -74 65 -122t131 -48q75 0 130.5 48t65.5 122h27q-10 -84 -73.5 -140.5t-149.5 -56.5zM600 -20q-204 0 -339.5 144t-135.5 361t135.5 361t339.5 144t339 -144t135 -361t-135 -361t-339 -144zM600 7q192 0 319.5 136.5
t127.5 341.5t-127.5 341.5t-319.5 136.5t-320 -136.5t-128 -341.5t128 -341.5t320 -136.5z" />
    <glyph glyph-name="Ohungarumlaut" unicode="&#x150;" horiz-adv-x="1705" vert-adv-y="2130" 
d="M783 1958l21 -13l-178 -257l-22 14zM1080 1958l21 -13l-178 -257l-22 14zM853 -33q-148 0 -283 57.5t-232.5 155t-155 232.5t-57.5 283t57.5 283t155 232.5t232.5 155t283 57.5t282.5 -57.5t232 -155t155 -232.5t57.5 -283t-57.5 -283t-155 -232.5t-232 -155
t-282.5 -57.5zM853 -6q190 0 351.5 94t255 255.5t93.5 351.5t-93.5 351.5t-255 255.5t-351.5 94q-143 0 -273 -55.5t-223.5 -149.5t-149 -223.5t-55.5 -272.5t55.5 -272.5t149 -223.5t223.5 -149.5t273 -55.5z" />
    <glyph glyph-name="ohungarumlaut" unicode="&#x151;" horiz-adv-x="1199" vert-adv-y="2130" 
d="M529 1543l22 -14l-180 -259l-22 14zM828 1543l22 -14l-180 -259l-22 14zM600 -20q-204 0 -339.5 144t-135.5 361t135.5 361t339.5 144t339 -144t135 -361t-135 -361t-339 -144zM600 7q192 0 319.5 136.5t127.5 341.5t-127.5 341.5t-319.5 136.5t-320 -136.5t-128 -341.5
t128 -341.5t320 -136.5z" />
    <glyph glyph-name="OE" unicode="&#x152;" horiz-adv-x="2708" vert-adv-y="2130" 
d="M853 -33q-148 0 -283 57.5t-232.5 155t-155 232.5t-57.5 283t57.5 283t155 232.5t232.5 155t283 57.5q246 0 439.5 -148t259.5 -379v494h1031v-27h-1004v-655h943v-26h-943v-655h1004v-27h-1031v494q-66 -231 -259.5 -379t-439.5 -148zM853 -6q184 0 341.5 88.5
t252.5 240.5t105 334v76q-10 182 -105 334t-252.5 240.5t-341.5 88.5q-143 0 -273 -55.5t-223.5 -149.5t-149 -223.5t-55.5 -272.5t55.5 -272.5t149 -223.5t223.5 -149.5t273 -55.5z" />
    <glyph glyph-name="oe" unicode="&#x153;" horiz-adv-x="2119" vert-adv-y="2130" 
d="M600 -20q-204 0 -339.5 144t-135.5 361t135.5 361t339.5 144q160 0 284 -101t176 -269q52 165 179 266.5t283 103.5q194 -5 328.5 -139.5t143.5 -338.5h-920v-27q0 -17 -1 -26q10 -196 136 -324t312 -128q144 0 257 82t161 220l27 -9q-50 -147 -170.5 -233.5
t-274.5 -86.5q-160 0 -284 101t-176 269q-53 -168 -177 -269t-284 -101zM600 7q187 0 313 129.5t131 323.5l1 59q0 190 -130 317t-315 127q-192 0 -320 -136.5t-128 -341.5t128 -341.5t320 -136.5zM1076 540h889q-22 186 -146 304.5t-298 118.5q-175 0 -299.5 -118.5
t-145.5 -304.5z" />
    <glyph glyph-name="Racute" unicode="&#x154;" horiz-adv-x="1378" vert-adv-y="2130" 
d="M801 1871l17 -21l-242 -196l-17 20zM152 519v-519h-27v1390h691q182 0 309.5 -128t127.5 -309q0 -164 -114 -287.5t-285 -145.5l354 -520h-32l-354 519h-670zM816 1363h-664v-817h699q160 15 267.5 131.5t107.5 275.5q0 170 -120 290t-290 120z" />
    <glyph glyph-name="racute" unicode="&#x155;" horiz-adv-x="672" vert-adv-y="2130" 
d="M450 1454l17 -21l-245 -197l-16 20zM153 633v-633h-28v968h27v-191q58 98 146 155.5t185 57.5q33 0 64 -6v-27q-31 6 -63 6q-138 0 -234.5 -96.5t-96.5 -233.5z" />
    <glyph glyph-name="Rcaron" unicode="&#x158;" horiz-adv-x="1378" vert-adv-y="2130" 
d="M883 1835l17 -20l-211 -160l-212 160l17 20l195 -147zM152 519v-519h-27v1390h691q182 0 309.5 -128t127.5 -309q0 -164 -114 -287.5t-285 -145.5l354 -520h-32l-354 519h-670zM816 1363h-664v-817h699q160 15 267.5 131.5t107.5 275.5q0 170 -120 290t-290 120z" />
    <glyph glyph-name="rcaron" unicode="&#x159;" horiz-adv-x="676" vert-adv-y="2130" 
d="M534 1418l17 -20l-213 -161l-213 161l17 20l196 -148zM155 633v-633h-28v968h27v-191q58 98 146 155.5t185 57.5q33 0 64 -6v-27q-31 6 -63 6q-138 0 -234.5 -96.5t-96.5 -233.5z" />
    <glyph glyph-name="Sacute" unicode="&#x15a;" horiz-adv-x="1363" vert-adv-y="2130" 
d="M794 1871l17 -21l-243 -196l-16 20zM689 -33q-227 0 -387 101.5t-177 253.5h31q11 -92 83.5 -167t190.5 -118t258 -43q145 0 264 45.5t187.5 127t68.5 182.5q0 276 -523 355q-518 78 -518 359q0 156 145 258t361 102q208 0 356 -95t165 -237h-30q-17 131 -156 218
t-334 87q-134 0 -243 -42.5t-172 -118.5t-63 -170q0 -129 124 -214.5t358 -119.5q560 -82 560 -381q0 -165 -157 -274t-392 -109z" />
    <glyph glyph-name="sacute" unicode="&#x15b;" horiz-adv-x="1046" vert-adv-y="2130" 
d="M636 1454l17 -21l-245 -197l-16 20zM525 -20q-163 0 -274.5 67.5t-125.5 172.5h29q7 -53 43 -95.5t90 -67.5t114.5 -37.5t122.5 -12.5q65 0 128 14.5t117.5 43t88.5 77t34 109.5q0 26 -7 49.5t-16.5 41t-30 34t-35.5 27.5t-46.5 23t-50 18.5t-57.5 16t-58 13.5t-63 13
q-77 16 -122.5 27.5t-100 32t-83.5 43.5t-49 59t-20 82q0 116 103.5 187.5t263.5 71.5q150 0 253 -63t118 -161h-29q-14 87 -108 142t-227 55q-86 0 -161.5 -22.5t-129 -76.5t-53.5 -130q0 -31 10 -57t24.5 -45t42 -35.5t50.5 -27t64 -21.5t68 -17t75 -16q75 -15 124 -27
t107.5 -34t92.5 -47.5t57 -64.5t23 -88q0 -122 -112 -198t-284 -76z" />
    <glyph glyph-name="Scircumflex" unicode="&#x15c;" horiz-adv-x="1363" vert-adv-y="2130" 
d="M876 1676l-194 146l-195 -146l-17 20l212 160l211 -160zM689 -33q-227 0 -387 101.5t-177 253.5h31q11 -92 83.5 -167t190.5 -118t258 -43q145 0 264 45.5t187.5 127t68.5 182.5q0 276 -523 355q-518 78 -518 359q0 156 145 258t361 102q208 0 356 -95t165 -237h-30
q-17 131 -156 218t-334 87q-134 0 -243 -42.5t-172 -118.5t-63 -170q0 -129 124 -214.5t358 -119.5q560 -82 560 -381q0 -165 -157 -274t-392 -109z" />
    <glyph glyph-name="scircumflex" unicode="&#x15d;" horiz-adv-x="1046" vert-adv-y="2130" 
d="M718 1258l-195 147l-196 -147l-18 20l214 161l213 -161zM525 -20q-163 0 -274.5 67.5t-125.5 172.5h29q7 -53 43 -95.5t90 -67.5t114.5 -37.5t122.5 -12.5q65 0 128 14.5t117.5 43t88.5 77t34 109.5q0 26 -7 49.5t-16.5 41t-30 34t-35.5 27.5t-46.5 23t-50 18.5t-57.5 16
t-58 13.5t-63 13q-77 16 -122.5 27.5t-100 32t-83.5 43.5t-49 59t-20 82q0 116 103.5 187.5t263.5 71.5q150 0 253 -63t118 -161h-29q-14 87 -108 142t-227 55q-86 0 -161.5 -22.5t-129 -76.5t-53.5 -130q0 -31 10 -57t24.5 -45t42 -35.5t50.5 -27t64 -21.5t68 -17t75 -16
q75 -15 124 -27t107.5 -34t92.5 -47.5t57 -64.5t23 -88q0 -122 -112 -198t-284 -76z" />
    <glyph glyph-name="Scedilla" unicode="&#x15e;" horiz-adv-x="1363" vert-adv-y="2130" 
d="M612 -314v20q57 8 92 54.5t27 104.5h-119v105q-200 18 -335.5 116t-151.5 236h31q11 -92 83.5 -167t190.5 -118t258 -43q145 0 264 45.5t187.5 127t68.5 182.5q0 276 -523 355q-518 78 -518 359q0 156 145 258t361 102q208 0 356 -95t165 -237h-30q-17 131 -156 218
t-334 87q-134 0 -243 -42.5t-172 -118.5t-63 -170q0 -129 124 -214.5t358 -119.5q560 -82 560 -381q0 -165 -157 -274t-392 -109q-19 0 -57 2v-84h120v-40q0 -61 -40 -106t-100 -53z" />
    <glyph glyph-name="scedilla" unicode="&#x15f;" horiz-adv-x="1046" vert-adv-y="2130" 
d="M452 -314v20q57 8 92 54.5t27 104.5h-119v119q-136 15 -225 79t-102 157h29q7 -53 43 -95.5t90 -67.5t114.5 -37.5t122.5 -12.5q65 0 128 14.5t117.5 43t88.5 77t34 109.5q0 26 -7 49.5t-16.5 41t-30 34t-35.5 27.5t-46.5 23t-50 18.5t-57.5 16t-58 13.5t-63 13
q-77 16 -122.5 27.5t-100 32t-83.5 43.5t-49 59t-20 82q0 116 103.5 187.5t263.5 71.5q150 0 253 -63t118 -161h-29q-14 87 -108 142t-227 55q-86 0 -161.5 -22.5t-129 -76.5t-53.5 -130q0 -31 10 -57t24.5 -45t42 -35.5t50.5 -27t64 -21.5t68 -17t75 -16q75 -15 124 -27
t107.5 -34t92.5 -47.5t57 -64.5t23 -88q0 -122 -112 -198t-284 -76q-19 0 -53 2v-97h120v-40q0 -61 -40 -106t-100 -53z" />
    <glyph glyph-name="Scaron" unicode="&#x160;" horiz-adv-x="1363" vert-adv-y="2130" 
d="M876 1835l17 -20l-211 -160l-212 160l17 20l195 -147zM689 -33q-227 0 -387 101.5t-177 253.5h31q11 -92 83.5 -167t190.5 -118t258 -43q145 0 264 45.5t187.5 127t68.5 182.5q0 276 -523 355q-518 78 -518 359q0 156 145 258t361 102q208 0 356 -95t165 -237h-30
q-17 131 -156 218t-334 87q-134 0 -243 -42.5t-172 -118.5t-63 -170q0 -129 124 -214.5t358 -119.5q560 -82 560 -381q0 -165 -157 -274t-392 -109z" />
    <glyph glyph-name="scaron" unicode="&#x161;" horiz-adv-x="1046" vert-adv-y="2130" 
d="M718 1418l18 -20l-213 -161l-214 161l18 20l196 -148zM525 -20q-163 0 -274.5 67.5t-125.5 172.5h29q7 -53 43 -95.5t90 -67.5t114.5 -37.5t122.5 -12.5q65 0 128 14.5t117.5 43t88.5 77t34 109.5q0 26 -7 49.5t-16.5 41t-30 34t-35.5 27.5t-46.5 23t-50 18.5t-57.5 16
t-58 13.5t-63 13q-77 16 -122.5 27.5t-100 32t-83.5 43.5t-49 59t-20 82q0 116 103.5 187.5t263.5 71.5q150 0 253 -63t118 -161h-29q-14 87 -108 142t-227 55q-86 0 -161.5 -22.5t-129 -76.5t-53.5 -130q0 -31 10 -57t24.5 -45t42 -35.5t50.5 -27t64 -21.5t68 -17t75 -16
q75 -15 124 -27t107.5 -34t92.5 -47.5t57 -64.5t23 -88q0 -122 -112 -198t-284 -76z" />
    <glyph glyph-name="Utilde" unicode="&#x168;" vert-adv-y="2130" 
d="M763 1678q-42 0 -88 46q-37 35 -71 35q-33 0 -70 -35l-27 -28l-19 18l28 27q46 47 88 47t89 -47q34 -34 70 -34t71 34l27 28l18 -18l-28 -27q-45 -46 -88 -46zM684 -33q-114 0 -217.5 44t-178.5 119t-119 178.5t-44 217.5v864h27v-864q0 -144 71 -266.5t193.5 -194
t267.5 -71.5q144 0 266.5 71.5t194 194t71.5 266.5v864h26v-864q0 -114 -44 -217.5t-119 -178.5t-178.5 -119t-216.5 -44z" />
    <glyph glyph-name="utilde" unicode="&#x169;" horiz-adv-x="967" vert-adv-y="2130" 
d="M564 1260q-43 0 -89 46q-37 35 -71 35t-71 -35l-27 -28l-19 18l28 28q46 46 89 46q41 0 89 -46q37 -35 71 -35t71 35l27 28l19 -18l-28 -28q-46 -46 -89 -46zM484 -22q-149 0 -254 104.5t-105 253.5v633h27v-633q0 -137 97 -233.5t234 -96.5q138 0 235 96.5t97 233.5v633
h27v-968h-27v191q-58 -98 -146 -156t-185 -58z" />
    <glyph glyph-name="Umacron" unicode="&#x16a;" vert-adv-y="2130" 
d="M870 1700v-27h-373v27h373zM684 -33q-114 0 -217.5 44t-178.5 119t-119 178.5t-44 217.5v864h27v-864q0 -144 71 -266.5t193.5 -194t267.5 -71.5q144 0 266.5 71.5t194 194t71.5 266.5v864h26v-864q0 -114 -44 -217.5t-119 -178.5t-178.5 -119t-216.5 -44z" />
    <glyph glyph-name="umacron" unicode="&#x16b;" horiz-adv-x="967" vert-adv-y="2130" 
d="M672 1282v-27h-376v27h376zM484 -22q-149 0 -254 104.5t-105 253.5v633h27v-633q0 -137 97 -233.5t234 -96.5q138 0 235 96.5t97 233.5v633h27v-968h-27v191q-58 -98 -146 -156t-185 -58z" />
    <glyph glyph-name="Ubreve" unicode="&#x16c;" vert-adv-y="2130" 
d="M684 1648q-85 0 -148.5 56t-73.5 140h27q10 -73 65 -121t130 -48q74 0 129.5 48t65.5 121h26q-9 -84 -72 -140t-149 -56zM684 -33q-114 0 -217.5 44t-178.5 119t-119 178.5t-44 217.5v864h27v-864q0 -144 71 -266.5t193.5 -194t267.5 -71.5q144 0 266.5 71.5t194 194
t71.5 266.5v864h26v-864q0 -114 -44 -217.5t-119 -178.5t-178.5 -119t-216.5 -44z" />
    <glyph glyph-name="ubreve" unicode="&#x16d;" horiz-adv-x="967" vert-adv-y="2130" 
d="M484 1230q-86 0 -150 56.5t-74 140.5h28q10 -74 65.5 -122t130.5 -48t130.5 48t65.5 122h27q-10 -84 -73.5 -140.5t-149.5 -56.5zM484 -22q-149 0 -254 104.5t-105 253.5v633h27v-633q0 -137 97 -233.5t234 -96.5q138 0 235 96.5t97 233.5v633h27v-968h-27v191
q-58 -98 -146 -156t-185 -58z" />
    <glyph glyph-name="Uring" unicode="&#x16e;" vert-adv-y="2130" 
d="M684 1636q-56 0 -96 39.5t-40 95.5t40 96t96 40t95.5 -40t39.5 -96q0 -55 -39.5 -95t-95.5 -40zM684 1663q44 0 76 32t32 76q0 45 -32 77t-76 32q-45 0 -77 -32t-32 -77q0 -44 32 -76t77 -32zM684 -33q-114 0 -217.5 44t-178.5 119t-119 178.5t-44 217.5v864h27v-864
q0 -144 71 -266.5t193.5 -194t267.5 -71.5q144 0 266.5 71.5t194 194t71.5 266.5v864h26v-864q0 -114 -44 -217.5t-119 -178.5t-178.5 -119t-216.5 -44z" />
    <glyph glyph-name="uring" unicode="&#x16f;" horiz-adv-x="967" vert-adv-y="2130" 
d="M484 1217q-56 0 -96.5 40.5t-40.5 96.5t40.5 96t96.5 40t96.5 -40t40.5 -96t-40.5 -96.5t-96.5 -40.5zM484 1245q45 0 77 32t32 77t-32 77t-77 32t-77 -32t-32 -77t32 -77t77 -32zM484 -22q-149 0 -254 104.5t-105 253.5v633h27v-633q0 -137 97 -233.5t234 -96.5
q138 0 235 96.5t97 233.5v633h27v-968h-27v191q-58 -98 -146 -156t-185 -58z" />
    <glyph glyph-name="Uhungarumlaut" unicode="&#x170;" vert-adv-y="2130" 
d="M614 1958l21 -13l-178 -257l-22 14zM911 1958l21 -13l-178 -257l-22 14zM684 -33q-114 0 -217.5 44t-178.5 119t-119 178.5t-44 217.5v864h27v-864q0 -144 71 -266.5t193.5 -194t267.5 -71.5q144 0 266.5 71.5t194 194t71.5 266.5v864h26v-864q0 -114 -44 -217.5
t-119 -178.5t-178.5 -119t-216.5 -44z" />
    <glyph glyph-name="uhungarumlaut" unicode="&#x171;" horiz-adv-x="967" vert-adv-y="2130" 
d="M413 1543l22 -14l-180 -259l-22 14zM713 1543l21 -14l-179 -259l-22 14zM484 -22q-149 0 -254 104.5t-105 253.5v633h27v-633q0 -137 97 -233.5t234 -96.5q138 0 235 96.5t97 233.5v633h27v-968h-27v191q-58 -98 -146 -156t-185 -58z" />
    <glyph glyph-name="Wcircumflex" unicode="&#x174;" horiz-adv-x="2221" vert-adv-y="2130" 
d="M1300 1676l-194 146l-195 -146l-17 20l212 160l211 -160zM1592 23l-481 1338l-482 -1338l-495 1365h25l470 -1287l467 1287h29l467 -1287l469 1287h26z" />
    <glyph glyph-name="wcircumflex" unicode="&#x175;" horiz-adv-x="1544" vert-adv-y="2130" 
d="M968 1258l-196 147l-196 -147l-17 20l213 161l213 -161zM759 970h14l-321 -945l-321 945h19l302 -896zM1396 970h17l-320 -945l-320 945h13l307 -896z" />
    <glyph glyph-name="Ycircumflex" unicode="&#x176;" horiz-adv-x="1431" vert-adv-y="2130" 
d="M940 1676l-194 146l-195 -146l-17 20l212 160l211 -160zM759 543v-543h-27v543l-593 847h35l572 -825l572 825h34z" />
    <glyph glyph-name="ycircumflex" unicode="&#x177;" horiz-adv-x="1132" vert-adv-y="2130" 
d="M762 1258l-196 147l-196 -147l-17 20l213 161l213 -161zM998 970l-655 -1411h-16l232 495l-425 916h30l402 -893l402 893h30z" />
    <glyph glyph-name="Ydieresis" unicode="&#x178;" horiz-adv-x="1431" vert-adv-y="2130" 
d="M603 1669q-15 0 -26 11t-11 26t11 26t26 11t26 -11t11 -26t-11 -26t-26 -11zM889 1669q-15 0 -26 11t-11 26t11 26t26 11t26 -11t11 -26t-11 -26t-26 -11zM759 543v-543h-27v543l-593 847h35l572 -825l572 825h34z" />
    <glyph glyph-name="Zacute" unicode="&#x179;" horiz-adv-x="1474" vert-adv-y="2130" 
d="M849 1871l17 -21l-242 -196l-17 20zM1296 27v-27h-1154l1133 1363h-1076v27h1133l-1133 -1363h1097z" />
    <glyph glyph-name="zacute" unicode="&#x17a;" horiz-adv-x="1007" vert-adv-y="2130" 
d="M617 1454l17 -21l-245 -197l-16 20zM882 27v-27h-757v44l738 899h-697v27h716v-44l-738 -899h738z" />
    <glyph glyph-name="Zdotaccent" unicode="&#x17b;" horiz-adv-x="1474" vert-adv-y="2130" 
d="M737 1703q-15 0 -26 11t-11 26t11 26t26 11t26 -11t11 -26t-11 -26t-26 -11zM1296 27v-27h-1154l1133 1363h-1076v27h1133l-1133 -1363h1097z" />
    <glyph glyph-name="zdotaccent" unicode="&#x17c;" horiz-adv-x="1007" vert-adv-y="2130" 
d="M503 1285q-15 0 -26 11t-11 26t11 26t26 11q16 0 27 -11t11 -26t-11 -26t-27 -11zM882 27v-27h-757v44l738 899h-697v27h716v-44l-738 -899h738z" />
    <glyph glyph-name="Zcaron" unicode="&#x17d;" horiz-adv-x="1474" vert-adv-y="2130" 
d="M931 1835l18 -20l-212 -160l-212 160l17 20l195 -147zM1296 27v-27h-1154l1133 1363h-1076v27h1133l-1133 -1363h1097z" />
    <glyph glyph-name="zcaron" unicode="&#x17e;" horiz-adv-x="1007" vert-adv-y="2130" 
d="M699 1418l18 -20l-214 -161l-213 161l17 20l196 -148zM882 27v-27h-757v44l738 899h-697v27h716v-44l-738 -899h738z" />
    <glyph glyph-name="circumflex" unicode="&#x2c6;" horiz-adv-x="928" vert-adv-y="2130" 
d="M660 1258l-196 147l-196 -147l-17 20l213 161l213 -161z" />
    <glyph glyph-name="caron" unicode="&#x2c7;" horiz-adv-x="928" vert-adv-y="2130" 
d="M660 1418l17 -20l-213 -161l-213 161l17 20l196 -148z" />
    <glyph glyph-name="breve" unicode="&#x2d8;" horiz-adv-x="937" vert-adv-y="2130" 
d="M468 1230q-86 0 -149.5 56.5t-73.5 140.5h27q10 -74 65.5 -122t130.5 -48q76 0 131.5 48t65.5 122h27q-10 -84 -74 -140.5t-150 -56.5z" />
    <glyph glyph-name="dotaccent" unicode="&#x2d9;" horiz-adv-x="378" vert-adv-y="2130" 
d="M189 1285q-15 0 -26 11t-11 26t11 26t26 11t26 -11t11 -26t-11 -26t-26 -11z" />
    <glyph glyph-name="ring" unicode="&#x2da;" horiz-adv-x="763" vert-adv-y="2130" 
d="M382 1217q-57 0 -97 40.5t-40 96.5t40 96t97 40q56 0 96 -40t40 -96t-40 -96.5t-96 -40.5zM382 1245q44 0 76.5 32t32.5 77t-32.5 77t-76.5 32q-45 0 -77.5 -32t-32.5 -77t32.5 -77t77.5 -32z" />
    <glyph glyph-name="tilde" unicode="&#x2dc;" horiz-adv-x="896" vert-adv-y="2130" 
d="M528 1260q-41 0 -89 46q-37 35 -71 35t-71 -35l-27 -28l-19 18l28 28q46 46 89 46t89 -46q37 -35 71 -35t71 35l27 28l19 -18l-28 -28q-46 -46 -89 -46z" />
    <glyph glyph-name="hungarumlaut" unicode="&#x2dd;" horiz-adv-x="843" vert-adv-y="2130" 
d="M351 1543l22 -14l-180 -259l-22 14zM650 1543l22 -14l-180 -259l-22 14z" />
    <glyph glyph-name="Wgrave" unicode="&#x1e80;" horiz-adv-x="2221" vert-adv-y="2130" 
d="M1005 1870l242 -196l-17 -20l-242 196zM1592 23l-481 1338l-482 -1338l-495 1365h25l470 -1287l467 1287h29l467 -1287l469 1287h26z" />
    <glyph glyph-name="wgrave" unicode="&#x1e81;" horiz-adv-x="1544" vert-adv-y="2130" 
d="M658 1454l245 -198l-18 -21l-244 199zM759 970h14l-321 -945l-321 945h19l302 -896zM1396 970h17l-320 -945l-320 945h13l307 -896z" />
    <glyph glyph-name="Wacute" unicode="&#x1e82;" horiz-adv-x="2220" vert-adv-y="2130" 
d="M1185 1871l17 -21l-242 -196l-17 20zM1592 38l-481 1314l-483 -1314l-494 1341h25l470 -1265l467 1265h29l467 -1265l469 1265h25z" />
    <glyph glyph-name="wacute" unicode="&#x1e83;" horiz-adv-x="1544" vert-adv-y="2130" 
d="M885 1454l18 -21l-245 -197l-17 20zM759 970h14l-321 -945l-321 945h19l302 -896zM1396 970h17l-320 -945l-320 945h13l307 -896z" />
    <glyph glyph-name="Wdieresis" unicode="&#x1e84;" horiz-adv-x="2221" vert-adv-y="2130" 
d="M970 1669q-15 0 -25.5 11t-10.5 26t10.5 26t25.5 11t26 -11t11 -26t-11 -26t-26 -11zM1256 1669q-15 0 -26 11t-11 26t11 26t26 11t26 -11t11 -26t-11 -26t-26 -11zM1592 23l-481 1338l-482 -1338l-495 1365h25l470 -1287l467 1287h29l467 -1287l469 1287h26z" />
    <glyph glyph-name="wdieresis" unicode="&#x1e85;" horiz-adv-x="1544" vert-adv-y="2130" 
d="M629 1251q-16 0 -27 11t-11 26t11 26.5t27 11.5q15 0 26 -11.5t11 -26.5t-11 -26t-26 -11zM917 1251q-16 0 -27 11t-11 26t11 26.5t27 11.5q15 0 26 -11.5t11 -26.5t-11 -26t-26 -11zM759 970h14l-321 -945l-321 945h19l302 -896zM1396 970h17l-320 -945l-320 945h13
l307 -896z" />
    <glyph glyph-name="endash" unicode="&#x2013;" horiz-adv-x="1127" vert-adv-y="2130" 
d="M950 550v-27h-773v27h773z" />
    <glyph glyph-name="emdash" unicode="&#x2014;" horiz-adv-x="1742" vert-adv-y="2130" 
d="M1565 550v-27h-1388v27h1388z" />
    <glyph glyph-name="quoteleft" unicode="&#x2018;" horiz-adv-x="388" vert-adv-y="2130" 
d="M222 1399l63 -208h-32l-84 208h53z" />
    <glyph glyph-name="quoteright" unicode="&#x2019;" horiz-adv-x="372" vert-adv-y="2130" 
d="M225 1399l-84 -208h-32l62 208h54z" />
    <glyph glyph-name="quotesinglbase" unicode="&#x201a;" horiz-adv-x="396" vert-adv-y="2130" 
d="M225 232l-84 -208h-32l62 208h54z" />
    <glyph glyph-name="quotedblleft" unicode="&#x201c;" horiz-adv-x="564" vert-adv-y="2130" 
d="M141 1399l84 -208h-54l-62 208h32zM326 1399l83 -208h-53l-63 208h33z" />
    <glyph glyph-name="quotedblright" unicode="&#x201d;" horiz-adv-x="548" vert-adv-y="2130" 
d="M225 1399l-84 -208h-32l62 208h54zM409 1399l-83 -208h-33l63 208h53z" />
    <glyph glyph-name="quotedblbase" unicode="&#x201e;" horiz-adv-x="574" vert-adv-y="2130" 
d="M225 232l-84 -208h-32l62 208h54zM409 232l-83 -208h-33l63 208h53z" />
    <glyph glyph-name="dagger" unicode="&#x2020;" horiz-adv-x="763" vert-adv-y="2130" 
d="M395 1107v-492h-27v492h-209v27h209v266h27v-266h209v-27h-209z" />
    <glyph glyph-name="daggerdbl" unicode="&#x2021;" horiz-adv-x="771" vert-adv-y="2130" 
d="M399 266v-266h-27v266h-209v28h209v813h-209v27h209v266h27v-266h209v-27h-209v-813h209v-28h-209z" />
    <glyph glyph-name="bullet" unicode="&#x2022;" horiz-adv-x="665" vert-adv-y="2130" 
d="M333 605q-40 0 -68 27.5t-28 67.5t28 68t68 28q39 0 67 -28t28 -68t-28 -67.5t-67 -27.5z" />
    <glyph glyph-name="ellipsis" unicode="&#x2026;" horiz-adv-x="1050" vert-adv-y="2130" 
d="M196 0q-15 0 -26 11t-11 26t11 26t26 11t26 -11t11 -26t-11 -26t-26 -11zM525 0q-15 0 -26 11t-11 26t11 26t26 11t26 -11t11 -26t-11 -26t-26 -11zM850 0q-15 0 -26 11t-11 26t11 26t26 11t26 -11t11 -26t-11 -26t-26 -11z" />
    <glyph glyph-name="guilsinglleft" unicode="&#x2039;" horiz-adv-x="700" vert-adv-y="2130" 
d="M177 493l356 -356l-19 -19l-375 375l375 376l19 -19z" />
    <glyph glyph-name="guilsinglright" unicode="&#x203a;" horiz-adv-x="700" vert-adv-y="2130" 
d="M186 869l375 -376l-375 -375l-19 19l357 356l-357 357z" />
    <glyph glyph-name="fraction" unicode="&#x2044;" horiz-adv-x="1497" vert-adv-y="2130" 
d="M1435 1399l13 -12l-1386 -1386l-13 13z" />
    <glyph glyph-name="Euro" unicode="&#x20ac;" horiz-adv-x="1377" vert-adv-y="1700" 
d="M806 -33q-205 0 -351.5 136.5t-199.5 378.5h-118v27h114q-18 102 -18 191q0 90 18 191h-114v28h117q55 244 202.5 379t350.5 135q251 0 414 -200l-19 -18q-158 191 -396 191q-193 0 -332 -127.5t-192 -359.5h628v-28h-633q-16 -92 -16 -191q0 -107 17 -191h632v-27h-628
q53 -232 192 -360t332 -128q237 0 396 191l19 -18q-168 -200 -415 -200z" />
    <glyph glyph-name="trademark" unicode="&#x2122;" horiz-adv-x="1280" vert-adv-y="2130" 
d="M527 1337l1 -365h-15v421l215 -388l215 388v-421h-15l1 365l-201 -359zM300 1368v-396h-19v396h-164v19h347v-19h-164z" />
    <glyph glyph-name="minus" unicode="&#x2212;" horiz-adv-x="1118" vert-adv-y="2130" 
d="M925 652v-27h-732v27h732z" />
    <glyph glyph-name="uniF8FF" unicode="&#xf8ff;" horiz-adv-x="1980" vert-adv-y="2130" 
d="M1860 1615v-1869h-1740v1869h1740zM1266 1384h-890v-1194h203v344h687v183h-687v491h687v176zM1398 375h-685v-185h888v1194h-203v-334h-685v-190h685v-485zM559 -2q30 0 50.5 19.5t20.5 49.5t-20.5 49.5t-50.5 19.5t-51 -19.5t-21 -49.5t21 -49.5t51 -19.5zM1095 -2
q22 0 37.5 11t15.5 30q0 14 -6 22q-4 6 -15 13q-9 5 -24 8q-25 5 -25 16q0 9 14 9q17 0 43 -14l13 28q-28 15 -53 15q-22 0 -37.5 -10.5t-15.5 -31.5q0 -13 6 -20q3 -6 15 -12l24 -8l9 -3q8 -3 13 -5q3 -3 3 -8q0 -6 -6 -8q-6 -3 -11 -3q-27 0 -48 21l-14 -28q27 -22 62 -22
zM1402 -2q29 0 56 25l-21 21q-15 -15 -32 -15q-21 0 -31 19q-5 6 -5 16q0 20 10 31t25 11q22 0 33 -18l20 25q-20 23 -52 23q-31 0 -51.5 -19.5t-20.5 -49.5q0 -29 20 -49t49 -20zM480 134h-99v-134h35v48h58v28h-58v30h64v28zM678 134h-31v-134h33v80l60 -80h29v134h-32
l1 -81zM785 105h39v-105h33v105h41v29h-113v-29zM976 134h-35l-56 -134h34l10 23h57l9 -23h37zM1154 105h39v-105h35v105h40v29h-114v-29zM1316 134h-34v-134h34v134zM1550 134h-36l-57 -134h36l8 23h59l8 -23h37zM559 28q-16 0 -26 11.5t-10 27.5t10 27.5t26 11.5
q23 0 31 -20q4 -10 4 -19q0 -16 -10 -27.5t-25 -11.5zM959 98l17 -48h-37zM1530 98l19 -48h-37zM671 -342v-69h-23v69h-13v12l13 6v6q0 15 7 22q7 6 23 6q13 0 22 -3l-6 -18q-4 2 -13 2q-5 0 -7 -3q-3 -2 -3 -7v-5h21v-18h-21zM1233 -314q-12 0 -12 12t12 12q13 0 13 -12
q0 -6 -3 -9t-10 -3zM938 -412q-14 0 -21 6q-6 8 -6 22v42h-11v10l12 8l7 19h16v-19h24v-18h-24v-42q0 -3 2 -7q4 -2 8 -2q3 0 15 2v-18q-9 -3 -22 -3zM1183 -412q-15 0 -21 6q-7 7 -7 22v42h-12v10l14 8l7 19h14v-19h25v-18h-25v-42q0 -4 4 -7q4 -2 7 -2t15 2v-18
q-9 -3 -21 -3zM998 -412q-12 0 -19 6q-8 8 -8 21q0 14 11 21q8 6 29 7h14v4q0 13 -13 13q-10 0 -24 -6l-8 16q16 8 33 8q16 0 27 -8q9 -8 9 -23v-58h-17l-4 11h-1q-8 -8 -12 -10t-17 -2zM1373 -412q-13 0 -20 6q-7 7 -7 21t10 21q8 5 29 7h15v4q0 13 -13 13q-11 0 -25 -6
l-8 16q16 8 34 8q15 0 26 -8q9 -8 9 -23v-58h-17l-4 11h-1q-5 -7 -11 -10q-4 -2 -17 -2zM742 -412q-13 0 -22 5q-9 4 -15 16q-5 12 -5 23q0 20 11 34q11 11 31 11q14 0 22 -5q10 -4 16 -16q5 -10 5 -24q0 -20 -12 -33q-10 -11 -31 -11zM827 -371v-40h-24v87h19l3 -11h1
q5 7 12 9q6 3 15 3q16 0 23 -8q8 -8 8 -23v-57h-24v51q0 10 -3 14t-11 4q-10 0 -14 -6q-5 -8 -5 -23zM1097 -412q-12 0 -16 1l-12 3v20q2 -1 7 -2.5t7 -2.5l15 -3q13 0 13 8q0 3 -2 5l-6 4q-1 0 -5 2t-7 3q-7 2 -14 7q-5 5 -6 9q-2 3 -2 11q0 13 8 18q9 6 26 6t30 -6l-7 -18
l-12 5q-4 1 -12 1q-11 0 -11 -5q0 -4 4 -5q5 -3 15 -7l15 -7l7 -9q2 -6 2 -11q0 -13 -9 -21q-11 -6 -28 -6zM1305 -412q-41 0 -41 43q0 21 12 35q10 11 31 11q15 0 27 -5l-6 -19q-3 1 -7 3l-4 1q-1 0 -4.5 0.5t-5.5 0.5q-18 0 -18 -26q0 -25 18 -25q5 0 13 2q6 2 12 5v-20
q-2 -2 -12 -5q-4 -1 -15 -1zM1528 -412q-40 0 -40 43q0 24 10 35q11 11 33 11q13 0 26 -5l-7 -19l-10 4q-2 0 -5 0.5t-4 0.5q-19 0 -19 -26q0 -25 19 -25q4 0 12 2q6 1 11 5v-20q-3 -3 -11 -5q-4 -1 -15 -1zM1611 -412q-13 0 -21 5q-11 5 -15 16q-5 9 -5 23q0 21 10 34
q11 11 31 11q15 0 23 -5q11 -6 15 -16q5 -10 5 -24q0 -20 -12 -33q-10 -11 -31 -11zM1697 -371v-40h-24v87h18l3 -11h2q3 7 10 9q6 3 15 3q20 0 26 -12h2q5 6 10 9q7 3 18 3q14 0 21 -7t7 -24v-57h-24v51q0 10 -3 14t-10 4q-8 0 -13 -6q-4 -5 -4 -20v-43h-24v51q0 10 -3 14
t-10 4q-9 0 -13 -6q-4 -7 -4 -23zM245 -343l-15 -68h-26l-24 87h23l10 -38q1 -2 5 -29q0 6 3 18l1 8l11 41h27l9 -41q1 -2 1 -6q0 -1 1 -3.5t1 -3.5q0 -5 1 -7v-6h1q0 3 2 15l2 14l12 38h23l-25 -87h-26l-7 30l-9 38h-1zM382 -343l-17 -68h-24l-25 87h23l10 -38q4 -16 5 -29
h1q0 2 2 18l1 8l12 41h25l11 -41q0 -4 1 -6l1 -7q0 -2 0.5 -4t0.5 -3q0 -2 0.5 -3.5t0.5 -2.5q0 3 2 15q1 3 2 8t1 6l10 38h23l-25 -87h-26l-6 30zM518 -343l-16 -68h-26l-25 87h24l11 -38q0 -2 1.5 -12t2.5 -17h1q0 6 3 18l1 8l10 41h26l10 -41q0 -1 0.5 -3t0.5 -3t1 -3.5
t1 -3.5q1 -3 1 -7q1 -3 1 -6l3 15l2 14l10 38h24l-25 -87h-26l-7 30l-8 38h-1zM1245 -324v-87h-23v87h23zM742 -393q10 0 14 6q4 5 4 19q0 15 -4 20q-4 6 -14 6t-13 -6q-4 -5 -4 -20q0 -12 4 -19q3 -6 13 -6zM1611 -393q11 0 14 6q4 5 4 19q0 15 -4 20q-3 6 -14 6
q-9 0 -13 -6q-4 -5 -4 -20q0 -12 4 -19q4 -6 13 -6zM1008 -396q5 0 13 6q4 4 4 12v7h-8q-13 -2 -16 -4q-5 -3 -5 -10q0 -11 12 -11zM1381 -396q8 0 14 6q5 5 5 12v7h-9q-12 -2 -16 -4q-5 -3 -5 -10q0 -11 11 -11zM609 -413q-5 0 -11 3q-3 4 -3 10q0 7 3 10q6 3 11 3
q7 0 10 -3t3 -10q0 -6 -3 -10q-5 -3 -10 -3zM1458 -413q-6 0 -10 3q-3 5 -3 10q0 7 3 10t10 3q6 0 10 -3q4 -4 4 -10q0 -4 -4 -10q-5 -3 -10 -3z" />
    <glyph glyph-name="_Fontastica" horiz-adv-x="1458" vert-adv-y="2130" 
d="M322 181h-196q-3 0 -4.5 2t-1.5 4v2v1178h884v-174h-682v-490h682v-182h-682v-340zM1338 181h-884v184h682v482h-682v188h682v332h202v-1186zM836 -1q-35 0 -61 21l14 28q7 -8 21.5 -14.5t24.5 -6.5q8 0 14 3q5 2 5 8q0 5 -4 8q-11 6 -22 9q-18 5 -24 8q-9 3 -14 10
q-6 8 -6 20q0 22 15.5 32.5t36.5 10.5q26 0 53 -15l-13 -28q-23 14 -41 14q-15 0 -15 -9q0 -10 24 -17q19 -4 24 -7q11 -7 15 -12q6 -9 6 -22q0 -20 -15.5 -30.5t-37.5 -10.5zM302 -2q-30 0 -50.5 19.5t-20.5 49.5t20.5 49t50.5 19t50.5 -19t20.5 -49t-20 -49.5t-51 -19.5z
M1143 -2q-29 0 -48.5 20t-19.5 49q0 30 20 49t50 19q33 0 53 -23l-20 -24q-13 18 -33 18q-15 0 -25.5 -10.5t-10.5 -29.5q0 -10 5 -18q12 -19 32 -19q19 0 32 15l21 -21q-27 -25 -56 -25zM159 1h-34v132h99v-27h-65v-30h59v-28h-59v-47zM423 1h-33v132h30l61 -79l-1 79h33
v-132h-30l-60 79v-79zM600 1h-33v104h-40v28h114v-28h-41v-104zM662 1h-35l56 132h35l56 -132h-36l-10 23h-57zM970 1h-36v104h-38v28h112v-28h-38v-104zM1057 1h-34v132h34v-132zM1233 1h-35l56 132h36l55 -132h-37l-9 23h-57zM302 27q16 0 26 12t10 27q0 5 -5 20
q-7 20 -30 20q-16 0 -26.5 -11.5t-10.5 -27.5t10.5 -28t25.5 -12zM701 98l-20 -48h36zM1271 98l-18 -48h36z" />
    <glyph glyph-name="_VendorID" horiz-adv-x="1123" vert-adv-y="2130" 
d="M779 772q-104 0 -168 53.5t-53 127.5h73q-16 -44 29.5 -78.5t118.5 -34.5q62 0 105 26.5t43 65.5q0 68 -155 91q-99 15 -150 54.5t-51 98.5q0 66 58 109.5t145 43.5q96 0 158 -51.5t50 -122.5h-74q17 40 -24.5 72.5t-109.5 32.5q-56 0 -94.5 -24t-38.5 -58q0 -66 140 -86
q106 -15 161.5 -56t55.5 -104q0 -69 -62.5 -114.5t-156.5 -45.5zM190 783h-70v535h413v-69h-343v-164h323v-69h-323v-233zM780 143q-103 0 -168 53t-54 128h73q-16 -43 29.5 -77t118.5 -34q62 0 105 25.5t43 63.5q0 70 -152 93q-100 14 -152 53.5t-52 99.5q0 66 58.5 109.5
t145.5 43.5q96 0 157 -51.5t50 -122.5h-74q17 40 -24.5 72.5t-108.5 32.5q-56 0 -95 -24t-39 -59q0 -64 139 -84q218 -32 218 -162q0 -69 -62 -114.5t-156 -45.5zM190 154h-70v535h413v-68h-343v-164h323v-70h-323v-233zM392 61h-12v37h-7v7l7 3v3q0 8 5 11q0 4 11 4
q9 0 13 -2l-4 -10q-3 1 -8 1q-3 0 -4 -1q-1 -2 -1 -4v-2h11v-10h-11v-37zM695 113q-7 0 -7 6q0 7 7 7t7 -7q0 -4 -1 -5q-1 0 -3 -0.5t-3 -0.5zM536 60q-6 0 -12 4q-4 4 -4 12v22h-4v5l5 5l5 9h8v-9h13v-10h-13v-22q0 -2 2 -4q2 -1 4 -1q1 0 3.5 0.5t4.5 0.5v-10
q-8 -2 -12 -2zM668 60q-8 0 -12 4q-3 2 -3 12v22h-7v5l7 5l4 9h8v-9h14v-10h-14v-22q0 -3 2 -4l4 -1l8 1v-10q-4 -2 -11 -2zM568 60q-4 0 -10 4q-5 3 -5 11q0 7 7 11q2 2 16 4h6v2q0 7 -6 7t-13 -3l-5 9q12 4 19 4q4 0 14 -4q4 -4 4 -13v-31h-9l-2 5h-1q-1 0 -2.5 -2
t-2.5 -2q-2 -2 -10 -2zM771 60q-4 0 -12 4q-4 3 -4 11q0 7 6 11q1 2 16 4h8v2q0 7 -7 7q-6 0 -15 -3l-3 9q10 4 18 4q4 0 14 -4q5 -4 5 -13v-31h-10l-1 5h-1l-6 -4q-2 -2 -8 -2zM944 61h-12v47h9l2 -6h1q1 2 4 4t9 2q12 0 15 -6h1q2 4 5 4q6 2 8 2q9 0 12 -3q5 -4 5 -14v-30
h-13v28q0 3 -2 7q-2 2 -6 2t-7 -3q-2 -4 -2 -11v-23h-13v28q0 3 -2 7q-1 2 -4 2q-6 0 -8 -3q-2 -6 -2 -13v-21zM155 61h-14l-13 47h13l5 -20l3 -16q0 5 1 8l1 6l5 22h15l5 -22q1 -2 1 -4v-4q0 -1 1 -3v-3q0 3 2 7q0 2 0.5 5t0.5 4l7 20h12l-13 -47h-15l-4 16l-4 20h-1z
M227 61h-12l-14 47h13l5 -20q2 -12 2 -16h1q0 1 0.5 3.5t0.5 4.5l1 6l6 22h13l7 -22v-8v-1q1 -1 1 -2v-3q0 3 2 7q0 7 1 9l5 20h14l-15 -47h-13l-4 16l-4 20zM300 61h-13l-12 47h12l5 -20q0 -3 1 -8t1 -8h1q0 2 2 8l1 6l4 22h16l4 -22v-2l1 -2q0 -1 1 -2v-2v-3q1 -2 1 -3
q0 5 1 7q0 2 0.5 5t0.5 4l7 20h12l-13 -47h-14l-4 16l-4 20h-1zM430 60q-7 0 -12 4q-4 1 -8 8q-1 4 -1 12q0 13 5 19q7 5 16 5t13 -2q6 -4 8 -9q2 -8 2 -13q0 -9 -6 -18q-5 -6 -17 -6zM477 61h-14v47h10l2 -6h1q2 4 6 4q2 2 8 2q9 0 12 -4q5 -2 5 -13v-30h-13v28q0 5 -1 7
q-4 2 -8 2q-3 0 -6 -3q-2 -3 -2 -13v-21zM621 60q-6 0 -8 1q-1 1 -3.5 1t-3.5 1v10q1 0 4 -0.5t4 -1.5q4 -2 7 -2q8 0 8 4v4q-2 0 -4 1q-1 0 -7 2t-6 4q-4 4 -4 5q-2 2 -2 6q0 7 6 10q3 3 13 3t16 -3l-4 -10q-1 1 -4 2l-3 1h-6q-6 0 -6 -2q0 -3 1 -3l10 -4l8 -3
q1 -2 2.5 -3.5t1.5 -2.5v-5q0 -8 -4 -11q-8 -4 -16 -4zM702 61h-13v47h13v-47zM734 60q-22 0 -22 23q0 12 5 20q7 5 18 5q8 0 14 -2l-3 -11q-4 2 -6 2q-1 0 -2 0.5t-3 0.5q-10 0 -10 -14q0 -13 10 -13q1 0 3 0.5t4 0.5q3 0 6 3v-11l-6 -3q-3 -1 -8 -1zM853 60q-21 0 -21 23
q0 13 6 20q7 5 17 5q3 0 15 -2l-5 -11q-2 2 -5 2q-1 0 -3 1h-2q-10 0 -10 -14q0 -13 10 -13q1 0 3 1h3q4 0 7 3v-11q-1 -1 -7 -3q-1 -1 -8 -1zM897 60q-7 0 -10 4q-7 2 -8 8q-3 6 -3 12q0 11 5 19q7 5 16 5q11 0 13 -2q7 -3 9 -9q2 -4 2 -13q0 -10 -7 -18q-6 -6 -17 -6z
M430 71q5 0 8 3q2 3 2 10q0 8 -2 11q-3 3 -8 3q-6 0 -7 -3q-2 -3 -2 -11q0 -7 2 -10q1 -3 7 -3zM897 71q7 0 9 3t2 10q0 8 -2 11t-9 3q-3 0 -6 -3q-2 -3 -2 -11q0 -7 2 -10q3 -3 6 -3zM574 69q3 0 6 3q2 4 2 6v4h-3q-8 -2 -10 -3q-1 0 -1 -4q0 -6 6 -6zM775 69l6 3q4 4 4 6
v4h-6q-5 -1 -7 -3q-3 0 -3 -4q0 -6 6 -6zM359 60q-4 0 -7 2v2l-1 2l1 6q6 2 7 2q3 0 5 -2q2 0 2 -6l-2 -4q-2 -2 -5 -2zM815 60q-3 0 -4 2l-2 4q0 6 2 6q2 2 4 2q3 0 7 -2q1 -3 1 -6l-1 -2v-2q-2 -2 -7 -2z" />
    </font>
</defs>
</svg>
