<?xml version="1.0" standalone="no"?>
<!DOCTYPE svg PUBLIC "-//W3C//DTD SVG 1.1//EN" "http://www.w3.org/Graphics/SVG/1.1/DTD/svg11.dtd" >
<svg xmlns="http://www.w3.org/2000/svg" xmlns:xlink="http://www.w3.org/1999/xlink" version="1.1">
<metadata>
Created by FontForge 20170731 at Wed Oct 20 22:56:52 2021
 By Aleksey,,,
Copyright (c) 2021 by Fontastica. All rights reserved.
</metadata>
<defs>
<font id="EinerGrotesk-Regular" horiz-adv-x="1202" vert-adv-y="2048" >
  <font-face 
    font-family="Einer Grotesk"
    font-weight="400"
    font-stretch="normal"
    units-per-em="2048"
    panose-1="0 0 5 0 0 0 0 0 0 0"
    ascent="1638"
    descent="-410"
    x-height="969"
    cap-height="1390"
    bbox="-75 -430 2488 1929"
    underline-thickness="50"
    underline-position="-150"
    unicode-range="U+000D-F8FF"
  />
<missing-glyph horiz-adv-x="1459" vert-adv-y="2130" 
d="M1225 1396v-1402h-991v1402h991zM994 1242h-529l264 -399zM1060 1042l-230 -347l230 -349v696zM630 695l-231 346v-693zM994 150l-263 397l-264 -397h527z" />
    <glyph glyph-name="t_t.liga" unicode="tt" horiz-adv-x="1201" vert-adv-y="2130" 
d="M629 143v-146q-144 8 -243 97.5t-99 211.5v519h-162v145h162v418h145v-418h302v418h145v-418h179v-145h-179v-519q0 -64 57 -111t141 -52v-146q-144 8 -243.5 97.5t-99.5 211.5v519h-302v-519q0 -64 56.5 -111t140.5 -52z" />
    <glyph glyph-name=".notdef" horiz-adv-x="1459" vert-adv-y="2130" 
d="M1225 1396v-1402h-991v1402h991zM994 1242h-529l264 -399zM1060 1042l-230 -347l230 -349v696zM630 695l-231 346v-693zM994 150l-263 397l-264 -397h527z" />
    <glyph glyph-name=".null" horiz-adv-x="0" vert-adv-y="0" 
 />
    <glyph glyph-name="nonmarkingreturn" horiz-adv-x="682" 
 />
    <glyph glyph-name="CR" unicode="&#xd;" horiz-adv-x="304" vert-adv-y="2130" 
 />
    <glyph glyph-name="space" unicode=" " horiz-adv-x="502" vert-adv-y="2130" 
 />
    <glyph glyph-name="exclam" unicode="!" horiz-adv-x="554" vert-adv-y="2130" 
d="M356 818l-16 -495h-126l-14 495v530h156v-530zM278 0q-38 0 -66 28t-28 66q0 37 28 64t66 27t64.5 -26.5t26.5 -64.5t-27 -66t-64 -28z" />
    <glyph glyph-name="quotedbl" unicode="&#x22;" horiz-adv-x="636" vert-adv-y="2130" 
d="M312 1353v-315h-133v315h133zM458 1353v-315h-134v315h134z" />
    <glyph glyph-name="numbersign" unicode="#" horiz-adv-x="1638" vert-adv-y="2130" 
d="M641 376l-40 -376h-147l42 376h-357l15 146h358l34 302h-358l16 144h358l44 380h145l-42 -380h284l43 380h145l-42 -380h358l-15 -144h-359l-35 -302h359l-16 -146h-360l-40 -376h-146l41 376h-285zM977 824h-286l-34 -302h286z" />
    <glyph glyph-name="dollar" unicode="$" horiz-adv-x="1278" vert-adv-y="2130" 
d="M711 -24v-177h-145v176q-201 18 -340 140t-148 290h147q9 -109 106 -189t235 -96v511q-217 45 -331.5 138t-114.5 229q0 152 123 255t323 120v175h145v-177q182 -20 305.5 -135.5t134.5 -273.5h-149q-6 99 -87.5 172.5t-203.5 91.5v-472q473 -87 473 -385
q0 -156 -132 -265.5t-341 -127.5zM566 777v449q-133 -14 -216.5 -76.5t-83.5 -151.5q0 -77 77 -133.5t223 -87.5zM711 607v-487q142 18 234 87t92 162q0 82 -84.5 142.5t-241.5 95.5z" />
    <glyph glyph-name="percent" unicode="%" horiz-adv-x="1618" vert-adv-y="2130" 
d="M1473 1348l-1138 -1348h-190l1137 1348h191zM457 844q-104 0 -178.5 73.5t-74.5 177.5t74.5 178.5t178.5 74.5t177 -74.5t73 -178.5t-73 -177.5t-177 -73.5zM457 988q43 0 75 32t32 75q0 44 -31.5 75.5t-75.5 31.5q-45 0 -76.5 -31.5t-31.5 -75.5t31.5 -75.5t76.5 -31.5z
M1161 0q-103 0 -177.5 74.5t-74.5 177.5t74.5 177.5t177.5 74.5q104 0 178.5 -74.5t74.5 -177.5t-74.5 -177.5t-178.5 -74.5zM1161 145q44 0 76 31.5t32 75.5t-32 75.5t-76 31.5t-75.5 -31.5t-31.5 -75.5t31.5 -75.5t75.5 -31.5z" />
    <glyph glyph-name="ampersand" unicode="&#x26;" horiz-adv-x="1422" vert-adv-y="2130" 
d="M655 -11q-83 0 -159 21t-140 62t-102.5 111t-38.5 160q0 221 257 368q-78 84 -114 156.5t-36 147.5q0 143 102 237.5t262 94.5q93 0 174 -37t132.5 -110t51.5 -168q0 -69 -26 -127.5t-73 -101.5t-98 -73.5t-115 -57.5l334 -300q45 83 66 179h149q-38 -177 -103 -280
l255 -229l-213 -7l-134 122q-85 -81 -197 -124.5t-234 -43.5zM615 770l114 53q157 72 157 201q0 83 -55.5 132.5t-145.5 49.5q-94 0 -150 -52t-56 -144q0 -44 17.5 -82.5t64.5 -94.5l5 -6q28 -35 49 -57zM644 129q95 0 181.5 33t151.5 94l-391 355q-110 -51 -163 -114.5
t-53 -145.5q0 -102 73.5 -162t200.5 -60z" />
    <glyph glyph-name="quotesingle" unicode="'" horiz-adv-x="528" vert-adv-y="2130" 
d="M381 1347l-121 -305h-151l91 305h181z" />
    <glyph glyph-name="parenleft" unicode="(" horiz-adv-x="620" vert-adv-y="2130" 
d="M515 -114v-107q-97 14 -180 139t-131.5 326.5t-48.5 429.5t48.5 429.5t131.5 326t180 138.5v-107q-60 -12 -109.5 -119t-77.5 -283.5t-28 -384.5q0 -209 28 -385.5t77.5 -283.5t109.5 -119z" />
    <glyph glyph-name="parenright" unicode=")" horiz-adv-x="620" vert-adv-y="2130" 
d="M105 -221v107q92 18 154 244t62 544q0 317 -62 542.5t-154 244.5v107q97 -14 180 -138.5t131.5 -325.5t48.5 -430t-48.5 -430t-131.5 -326t-180 -139z" />
    <glyph glyph-name="asterisk" unicode="*" horiz-adv-x="810" vert-adv-y="2130" 
d="M471 1014v-105h-131v105l-91 -53l-66 113l92 54l-92 53l66 112l91 -52v107h131v-107l90 52l67 -112l-93 -53l93 -54l-67 -113z" />
    <glyph glyph-name="plus" unicode="+" horiz-adv-x="1084" vert-adv-y="2130" 
d="M614 529v-327h-145v327h-326v145h326v327h145v-327h328v-145h-328z" />
    <glyph glyph-name="comma" unicode="," horiz-adv-x="554" vert-adv-y="2130" 
d="M395 196l-122 -303h-151l92 303h181z" />
    <glyph glyph-name="hyphen" unicode="-" horiz-adv-x="1024" vert-adv-y="2130" 
d="M840 611v-145h-655v145h655z" />
    <glyph glyph-name="period" unicode="." horiz-adv-x="518" vert-adv-y="2130" 
d="M259 7q-38 0 -66 27.5t-28 65.5q0 37 28 64.5t66 27.5q37 0 64 -27t27 -65t-27 -65.5t-64 -27.5z" />
    <glyph glyph-name="slash" unicode="/" horiz-adv-x="947" vert-adv-y="2130" 
d="M814 1419l-529 -1492h-154l529 1492h154z" />
    <glyph glyph-name="zero" unicode="0" horiz-adv-x="1382" vert-adv-y="2130" 
d="M690 0q-134 0 -242.5 55t-178 150t-107 220.5t-37.5 268.5q0 144 37.5 269t107 220t178 150t242.5 55t243 -55t179.5 -150t108 -220t37.5 -269q0 -143 -37.5 -268.5t-108 -220.5t-179.5 -150t-243 -55zM690 144q82 0 151 29t118.5 80t84 120t51.5 150.5t17 170.5
q0 112 -27 210.5t-78.5 175t-133 121t-183.5 44.5q-101 0 -182 -44.5t-132.5 -121t-78.5 -175t-27 -210.5q0 -151 46 -273.5t143 -199.5t231 -77z" />
    <glyph glyph-name="one" unicode="1" horiz-adv-x="700" vert-adv-y="2130" 
d="M575 1388v-1388h-145v1182l-197 -161l-100 109l321 258h121z" />
    <glyph glyph-name="two" unicode="2" horiz-adv-x="1237" vert-adv-y="2130" 
d="M1113 149v-149h-987v111q0 64 18 123.5t44 107t73 96.5t86.5 83t104.5 76.5t107.5 67.5t113.5 65l40 20q72 41 109.5 64t76 54.5t54 62t15.5 66.5q0 80 -52.5 136.5t-129 81t-165.5 24.5q-88 0 -164 -28.5t-129 -91t-58 -148.5h-145q5 101 47.5 181.5t111.5 131t154 77
t179 27.5h6q98 0 184.5 -24t155.5 -71t109.5 -123t40.5 -172q0 -57 -16.5 -103t-46.5 -83t-80.5 -74t-109 -72t-141.5 -81q-7 -3 -10 -5q-53 -30 -79 -45t-78.5 -48t-81.5 -56t-69.5 -59.5t-63 -68t-41 -72.5t-23.5 -82h840z" />
    <glyph glyph-name="three" unicode="3" horiz-adv-x="1312" vert-adv-y="2130" 
d="M657 13q-230 0 -377.5 119t-154.5 311h144q7 -129 113.5 -207.5t273.5 -78.5q171 0 278.5 67.5t107.5 173.5q0 96 -97.5 170t-253.5 81l-12 -1l-146 -2v137l144 -4h13q155 0 244.5 70t89.5 166q0 102 -101.5 165.5t-265.5 63.5q-159 0 -260.5 -74.5t-107.5 -195.5h-143
q9 184 150.5 299t359.5 115q225 0 366.5 -104.5t141.5 -266.5q0 -89 -48.5 -169t-125.5 -130q93 -52 145.5 -134t52.5 -180q0 -175 -148.5 -283t-382.5 -108z" />
    <glyph glyph-name="four" unicode="4" horiz-adv-x="1360" vert-adv-y="2130" 
d="M1023 321v-321h-144v321h-754v125l773 942h125v-916h212v-151h-212zM879 472v663l-542 -663h542z" />
    <glyph glyph-name="five" unicode="5" horiz-adv-x="1291" vert-adv-y="2130" 
d="M636 0h-27q-184 14 -313.5 132t-167.5 308h148q27 -112 121 -187t218 -92h21q173 0 279.5 88t106.5 230q0 130 -110.5 217.5t-273.5 96.5q-101 -3 -190.5 -41.5t-142.5 -105.5h-148l95 742h831v-149h-708l-38 -359q128 74 295 74h4q143 -1 261.5 -52.5t194 -160
t75.5 -257.5q0 -217 -147.5 -350.5t-383.5 -133.5z" />
    <glyph glyph-name="six" unicode="6" horiz-adv-x="1299" vert-adv-y="2130" 
d="M651 1h-7q-232 2 -375.5 132.5t-143.5 335.5v226q0 349 128 521t387 172q332 0 510 -352h-160q-114 204 -351 204q-169 0 -256.5 -105t-107.5 -329q143 124 368 124h7q237 -2 380.5 -127.5t143.5 -332.5q0 -208 -146 -338.5t-377 -130.5zM650 160q167 0 273.5 86.5
t106.5 222.5q0 137 -106 223t-276 86q-166 0 -272 -86.5t-106 -223.5q0 -136 105 -222t275 -86z" />
    <glyph glyph-name="seven" unicode="7" horiz-adv-x="1274" vert-adv-y="2130" 
d="M1148 1269l-541 -1269h-159l530 1238h-853v150h1023v-119z" />
    <glyph glyph-name="eight" unicode="8" horiz-adv-x="1310" vert-adv-y="2130" 
d="M655 1q-236 0 -383 109.5t-147 286.5q0 214 204 317q-88 46 -135.5 121t-47.5 173q0 170 141.5 275t367.5 105q225 0 367 -105t142 -271q0 -99 -50 -175t-137 -124q98 -48 153 -129.5t55 -187.5q0 -176 -147 -285.5t-383 -109.5zM655 778h19q155 0 251 64.5t96 165.5
q0 106 -101 170.5t-265 64.5t-265 -64.5t-101 -170.5q0 -103 101 -166.5t265 -63.5zM655 149q173 0 279 68t106 179q0 109 -101.5 176t-263.5 67h-20q-174 0 -279.5 -66.5t-105.5 -176.5q0 -111 106 -179t279 -68z" />
    <glyph glyph-name="nine" unicode="9" horiz-adv-x="1299" vert-adv-y="2130" 
d="M658 0q-333 0 -509 350h160q112 -201 350 -201q79 0 140 22t101 59.5t67 93.5t40.5 118t18.5 140q-144 -125 -377 -125q-235 0 -379.5 128t-144.5 333q0 207 145.5 338.5t377.5 131.5h8q232 -2 375 -133.5t143 -336.5v-225q0 -350 -127.5 -521.5t-388.5 -171.5zM652 611
q165 0 271.5 86.5t106.5 221.5q0 136 -105.5 222.5t-274.5 86.5q-167 0 -273.5 -87t-106.5 -223t105.5 -221.5t276.5 -85.5z" />
    <glyph glyph-name="colon" unicode=":" horiz-adv-x="518" vert-adv-y="2130" 
d="M258 640q-38 0 -66 27.5t-28 65.5t28 65.5t66 27.5q37 0 64 -27.5t27 -65.5t-27 -65.5t-64 -27.5zM258 0q-38 0 -66 28t-28 66q0 37 28 64t66 27t64.5 -26.5t26.5 -64.5t-27 -66t-64 -28z" />
    <glyph glyph-name="semicolon" unicode=";" horiz-adv-x="549" vert-adv-y="2130" 
d="M268 640q-38 0 -65.5 27.5t-27.5 65.5q0 37 27.5 65t65.5 28t66 -27.5t28 -65.5t-28 -65.5t-66 -27.5zM382 196l-122 -303h-151l92 303h181z" />
    <glyph glyph-name="less" unicode="&#x3c;" horiz-adv-x="1022" vert-adv-y="2130" 
d="M305 596l540 -296v-164l-726 399v125l726 399v-164z" />
    <glyph glyph-name="equal" unicode="=" horiz-adv-x="1112" vert-adv-y="2130" 
d="M919 817v-144h-726v144h726zM919 530v-144h-726v144h726z" />
    <glyph glyph-name="greater" unicode="&#x3e;" horiz-adv-x="1022" vert-adv-y="2130" 
d="M903 660v-125l-726 -399v164l540 296l-540 299v164z" />
    <glyph glyph-name="question" unicode="?" horiz-adv-x="1194" vert-adv-y="2130" 
d="M589 396v-151h-148l3 151q1 59 8 96t27.5 66.5t46 49t74.5 47.5q49 29 83.5 50.5t84.5 59t81.5 71t55 76.5t23.5 84q0 102 -98.5 168.5t-248.5 66.5q-139 0 -225.5 -73t-92.5 -196h-144q7 186 134 300t327 114q206 0 347 -109.5t146 -269.5q-2 -62 -28.5 -122.5t-66 -108
t-94.5 -94t-104 -78.5t-105 -63l-10 -6q-31 -17 -43.5 -26.5t-22.5 -34.5t-10 -68zM516 0q-38 0 -66 28t-28 66q0 37 28 64t66 27q37 0 64 -27t27 -64q0 -38 -27 -66t-64 -28z" />
    <glyph glyph-name="at" unicode="@" horiz-adv-x="1684" vert-adv-y="2130" 
d="M852 -29h-2q-190 0 -351.5 94.5t-255.5 256.5t-94 352q0 191 94.5 352.5t256 255.5t350.5 94t351.5 -95t257.5 -257t95 -350v-147q0 -106 -71.5 -184t-177.5 -78q-17 0 -45 4v-165q-196 -133 -408 -133zM852 117q180 0 392 156q-74 21 -119 85q-53 -47 -127.5 -73
t-156.5 -26h-8q-166 3 -278 95.5t-112 225.5v192q0 131 114.5 225.5t267.5 94.5q141 0 256 -84v43h145l-2 -553q2 -35 24 -60.5t53 -28.5q45 3 76.5 37.5t31.5 80.5v147q0 113 -44 216t-118.5 178t-178 119t-217.5 44q-152 0 -280 -74.5t-202.5 -202.5t-74.5 -280
q0 -151 74.5 -279.5t203 -203t280.5 -74.5zM838 403l8 -1q91 4 157.5 56.5t77.5 126.5v193q-11 68 -82 118t-165 50q-101 0 -174 -51t-73 -123v-192q0 -70 72 -121.5t179 -55.5z" />
    <glyph glyph-name="A" unicode="A" horiz-adv-x="1622" vert-adv-y="2130" 
d="M485 383l-188 -383h-163l677 1397l677 -1397h-163l-188 383h-652zM1067 540l-257 528l-255 -528h512z" />
    <glyph glyph-name="B" unicode="B" horiz-adv-x="1401" vert-adv-y="2130" 
d="M889 0h-764v1390h718q160 0 273 -112t113 -271q0 -89 -37 -165t-100 -126q82 -50 132.5 -140t50.5 -193q0 -160 -112.5 -271.5t-273.5 -111.5zM843 1242h-570v-474h570q99 0 169 70t70 169q0 98 -69.5 166.5t-169.5 68.5zM889 622h-616v-474h616q101 0 170.5 68t69.5 167
t-70.5 169t-169.5 70z" />
    <glyph glyph-name="C" unicode="C" horiz-adv-x="1611" vert-adv-y="2130" 
d="M849 -29q-147 0 -281 57t-231 153.5t-154.5 231t-57.5 282.5t57.5 282.5t154.5 231t231 153.5t281 57q185 0 352.5 -96.5t278.5 -267.5l-118 -87q-95 142 -231 223t-282 81q-117 0 -223.5 -45.5t-184 -123t-123 -184t-45.5 -224.5t45.5 -224.5t123 -184t184 -123
t223.5 -45.5q145 0 281.5 81t230.5 223l118 -87q-111 -171 -278 -267.5t-352 -96.5z" />
    <glyph glyph-name="D" unicode="D" horiz-adv-x="1454" vert-adv-y="2130" 
d="M634 0h-509v1390h509q141 0 270 -55t222 -148t148 -222t55 -270t-55 -270t-148 -222t-222 -148t-270 -55zM634 1242h-361v-1094h361q112 0 213 43.5t174.5 116.5t116.5 174.5t43 212.5t-43 212.5t-116.5 174.5t-174.5 116.5t-213 43.5z" />
    <glyph glyph-name="E" unicode="E" horiz-adv-x="1313" vert-adv-y="2130" 
d="M1187 148v-148h-1062v1390h1062v-148h-914v-474h859v-146h-859v-474h914z" />
    <glyph glyph-name="F" unicode="F" horiz-adv-x="1313" vert-adv-y="2130" 
d="M273 622v-622h-148v1390h1062v-148h-914v-474h859v-146h-859z" />
    <glyph glyph-name="G" unicode="G" horiz-adv-x="1606" vert-adv-y="2130" 
d="M849 -29q-147 0 -281 57t-231 153.5t-154.5 231t-57.5 282.5t57.5 282.5t154.5 231t231 153.5t281 57q185 0 352.5 -96.5t278.5 -267.5l-118 -87q-95 142 -231 223t-282 81q-117 0 -223.5 -45.5t-184 -123t-123 -184t-45.5 -224.5t45.5 -224.5t123 -184t184 -123
t223.5 -45.5q138 0 262 64t207 178v245h-569v147h716l1 -436q-102 -161 -266 -253t-351 -92z" />
    <glyph glyph-name="H" unicode="H" horiz-adv-x="1391" vert-adv-y="2130" 
d="M273 622v-622h-148v1390h148v-622h846v622h148v-1390h-148v622h-846z" />
    <glyph glyph-name="I" unicode="I" horiz-adv-x="398" vert-adv-y="2130" 
d="M273 1390v-1390h-148v1390h148z" />
    <glyph glyph-name="J" unicode="J" horiz-adv-x="1334" vert-adv-y="2130" 
d="M639 -29q-146 0 -280 80.5t-228 223.5l127 73q72 -108 173 -169t208 -61q175 0 298.5 124t123.5 299v849h148v-849q0 -116 -45 -221.5t-121.5 -182t-182 -121.5t-221.5 -45z" />
    <glyph glyph-name="K" unicode="K" horiz-adv-x="1420" vert-adv-y="2130" 
d="M273 474v-474h-148v1390h148v-716l786 716h222l-608 -551l602 -839h-180l-532 739z" />
    <glyph glyph-name="L" unicode="L" horiz-adv-x="1313" vert-adv-y="2130" 
d="M1187 148v-148h-1062v1390h148v-1242h914z" />
    <glyph glyph-name="M" unicode="M" horiz-adv-x="1630" vert-adv-y="2130" 
d="M1356 0l2 964l-543 -971l-544 971l2 -964h-148v1388h80l610 -1099l610 1099h79v-1388h-148z" />
    <glyph glyph-name="N" unicode="N" horiz-adv-x="1391" vert-adv-y="2130" 
d="M1119 1390h148v-1400l-994 1017v-1007h-148v1398l994 -1027v1019z" />
    <glyph glyph-name="O" unicode="O" horiz-adv-x="1699" vert-adv-y="2130" 
d="M849 -29q-147 0 -281 57t-231 153.5t-154.5 231t-57.5 282.5t57.5 282.5t154.5 231t231 153.5t281 57q148 0 282.5 -57t231.5 -154t154.5 -231t57.5 -282t-57.5 -282t-154.5 -231t-231.5 -154t-282.5 -57zM849 118q118 0 225 45.5t184.5 123t123 184t45.5 224.5
t-45.5 224.5t-123 184t-184.5 123t-225 45.5q-117 0 -223.5 -45.5t-184 -123t-123 -184t-45.5 -224.5t45.5 -224.5t123 -184t184 -123t223.5 -45.5z" />
    <glyph glyph-name="P" unicode="P" horiz-adv-x="1401" vert-adv-y="2130" 
d="M273 471v-471h-148v1390h691q191 0 325 -133.5t134 -324.5q0 -126 -61.5 -232t-167 -167.5t-230.5 -61.5h-543zM816 1242h-543v-622h543q129 0 221 91t92 221q0 128 -92 219t-221 91z" />
    <glyph glyph-name="Q" unicode="Q" horiz-adv-x="1713" vert-adv-y="2130" 
d="M849 -29q-147 0 -281 57t-231 153.5t-154.5 231t-57.5 282.5t57.5 282.5t154.5 231t231 153.5t281 57q148 0 282.5 -57t231.5 -154t154.5 -231t57.5 -282q0 -114 -41 -230.5t-113 -214.5l168 -165l-106 -106l-165 164q-99 -81 -221 -126.5t-248 -45.5zM849 118
q208 0 365 131l-159 157l102 108l159 -159q111 151 111 340q0 118 -45.5 224.5t-123 184t-184.5 123t-225 45.5q-117 0 -223.5 -45.5t-184 -123t-123 -184t-45.5 -224.5t45.5 -224.5t123 -184t184 -123t223.5 -45.5z" />
    <glyph glyph-name="R" unicode="R" horiz-adv-x="1415" vert-adv-y="2130" 
d="M273 472v-472h-148v1390h691q191 0 325 -134t134 -325q0 -154 -88.5 -274.5t-232.5 -162.5l337 -494h-179l-322 472h-517zM816 1242h-543v-621h571q117 19 201 108t84 202q0 129 -92 220t-221 91z" />
    <glyph glyph-name="S" unicode="S" horiz-adv-x="1392" vert-adv-y="2130" 
d="M706 -29q-238 0 -403 127.5t-178 318.5h152q9 -128 131 -213.5t297 -85.5t293 74t118 187q0 200 -422 264q-527 79 -527 388q0 167 150.5 277.5t373.5 110.5q220 0 374 -121.5t167 -303.5h-150q-11 120 -121.5 199t-268.5 79q-160 0 -267 -68t-107 -172q0 -92 99 -154.5
t287 -88.5q279 -41 421.5 -144t142.5 -265q0 -117 -74 -210.5t-202.5 -146t-285.5 -52.5z" />
    <glyph glyph-name="T" unicode="T" horiz-adv-x="1454" vert-adv-y="2130" 
d="M801 1242v-1242h-147v1242h-529v148h1204v-148h-528z" />
    <glyph glyph-name="U" unicode="U" horiz-adv-x="1391" vert-adv-y="2130" 
d="M696 -29q-155 0 -286.5 76t-208 207.5t-76.5 286.5v849h148v-849q0 -175 124 -299t299 -124t299 124t124 299v849h148v-849q0 -116 -45.5 -221.5t-122 -182t-182 -121.5t-221.5 -45z" />
    <glyph glyph-name="V" unicode="V" horiz-adv-x="1622" vert-adv-y="2130" 
d="M1325 1390h163l-677 -1390l-677 1390h163l513 -1050z" />
    <glyph glyph-name="W" unicode="W" horiz-adv-x="2225" vert-adv-y="2130" 
d="M1551 0l-439 1136l-439 -1136l-539 1388h155l384 -984l383 984h112l383 -984l386 984h154z" />
    <glyph glyph-name="X" unicode="X" horiz-adv-x="1638" vert-adv-y="2130" 
d="M819 576l-479 -576h-198l579 695l-579 695h198l479 -576l480 576h198l-579 -695l579 -695h-198z" />
    <glyph glyph-name="Y" unicode="Y" horiz-adv-x="1620" vert-adv-y="2130" 
d="M884 538v-538h-148v538l-597 852h182l489 -705l490 705h182z" />
    <glyph glyph-name="Z" unicode="Z" horiz-adv-x="1631" vert-adv-y="2130" 
d="M1386 148v-148h-1244l1032 1242h-911v148h1226l-1033 -1242h930z" />
    <glyph glyph-name="bracketleft" unicode="[" horiz-adv-x="636" vert-adv-y="2130" 
d="M555 -70v-146h-360v1778h360v-145h-215v-1487h215z" />
    <glyph glyph-name="backslash" unicode="\" horiz-adv-x="947" vert-adv-y="2130" 
d="M287 1419l529 -1492h-154l-529 1492h154z" />
    <glyph glyph-name="bracketright" unicode="]" horiz-adv-x="636" vert-adv-y="2130" 
d="M441 1562v-1778h-360v146h216v1487h-216v145h360z" />
    <glyph glyph-name="asciicircum" unicode="^" horiz-adv-x="1129" vert-adv-y="2130" 
d="M564 1163l-223 -398h-167l328 583h125l328 -583h-165z" />
    <glyph glyph-name="underscore" unicode="_" horiz-adv-x="1196" vert-adv-y="2130" 
d="M1033 56v-146h-870v146h870z" />
    <glyph glyph-name="grave" unicode="`" horiz-adv-x="924" vert-adv-y="2130" 
d="M379 1418l309 -250l-93 -110l-307 249z" />
    <glyph glyph-name="a" unicode="a" horiz-adv-x="1035" vert-adv-y="2130" 
d="M521 -17q-165 0 -280.5 92.5t-115.5 222.5q0 136 125 230t303 94h211v24q-9 78 -69 130t-154 52q-95 0 -173.5 -56t-87.5 -157h-146q8 84 46.5 153t96 113t126 67.5t139.5 23.5q171 0 269 -94t98 -254v-624h-145v57q-100 -74 -243 -74zM517 126q93 0 164.5 50t82.5 119
v183h-211q-117 0 -200 -51.5t-83 -126.5q0 -70 73 -122t174 -52z" />
    <glyph glyph-name="b" unicode="b" horiz-adv-x="1149" vert-adv-y="2130" 
d="M578 -17q-183 0 -308 131v-114h-145v1348h145v-492q126 132 308 132q192 0 319 -143t127 -360t-127 -359.5t-319 -142.5zM578 126q132 0 219.5 103t87.5 256t-87.5 256t-219.5 103q-130 0 -217.5 -103t-87.5 -256t87.5 -256t217.5 -103z" />
    <glyph glyph-name="c" unicode="c" horiz-adv-x="1150" vert-adv-y="2130" 
d="M600 -17q-204 0 -339.5 143t-135.5 359q0 217 135.5 360t339.5 143q121 0 231.5 -65.5t187.5 -184.5l-121 -79q-58 87 -137 136t-161 49q-141 0 -235.5 -103t-94.5 -256t94.5 -256t235.5 -103q82 0 161 49t137 136l121 -79q-77 -119 -187.5 -184t-231.5 -65z" />
    <glyph glyph-name="d" unicode="d" horiz-adv-x="1149" vert-adv-y="2130" 
d="M570 -17q-190 0 -317.5 143t-127.5 359t127.5 359.5t317.5 143.5q183 0 310 -132v492h144v-1348h-144v114q-126 -131 -310 -131zM570 126q132 0 219.5 103t87.5 256t-87.5 256t-219.5 103q-131 0 -218 -103t-87 -256t87 -256t218 -103z" />
    <glyph glyph-name="e" unicode="e" vert-adv-y="2130" 
d="M600 -17q-204 0 -339.5 143t-135.5 359q0 217 135 360t340 143q203 0 337.5 -155t139.5 -385h-806q15 -137 107.5 -229.5t221.5 -92.5q102 0 187 66.5t130 181.5l137 -47q-60 -158 -182 -251t-272 -93zM285 594h631q-30 111 -117 180.5t-199 69.5t-198 -69.5t-117 -180.5
z" />
    <glyph glyph-name="f" unicode="f" horiz-adv-x="736" vert-adv-y="2130" 
d="M414 825v-825h-146v825h-143v145h143v109q0 123 99.5 212t243.5 97v-144q-83 -5 -140 -53t-57 -112v-109h172v-145h-172z" />
    <glyph glyph-name="g" unicode="g" horiz-adv-x="1141" vert-adv-y="2130" 
d="M591 -386q-148 0 -261.5 86.5t-169.5 242.5h152q37 -88 110.5 -136t169.5 -48q130 0 209 75.5t79 202.5v74q-126 -131 -310 -131q-190 0 -317.5 143t-127.5 359t127.5 360.5t317.5 144.5q182 0 310 -134v119h144v-927q0 -196 -117.5 -313.5t-315.5 -117.5zM570 123
q132 0 219.5 103t87.5 256q0 154 -87.5 256.5t-219.5 102.5q-131 0 -218 -102.5t-87 -256.5q0 -153 87 -256t218 -103z" />
    <glyph glyph-name="h" unicode="h" horiz-adv-x="999" vert-adv-y="2130" 
d="M270 634l1 -634h-146v1388h145v-478q98 78 230 78q156 0 264.5 -109t108.5 -264v-615h-145v615q0 95 -66.5 162t-160.5 67q-89 0 -155 -62t-76 -148z" />
    <glyph glyph-name="i" unicode="i" horiz-adv-x="436" vert-adv-y="2130" 
d="M219 1161q-38 0 -66 27.5t-28 65.5t28 66t66 28q37 0 64 -28t27 -66t-27 -65.5t-64 -27.5zM291 970v-970h-146v970h146z" />
    <glyph glyph-name="j" unicode="j" horiz-adv-x="743" vert-adv-y="2130" 
d="M524 1161q-37 0 -64 27.5t-27 65.5t27 66t64 28q39 0 66.5 -28t27.5 -66t-27.5 -65.5t-66.5 -27.5zM125 -424l4 144q138 4 226 83t97 197v972h147v-964q0 -192 -129 -310t-345 -122z" />
    <glyph glyph-name="k" unicode="k" horiz-adv-x="1080" vert-adv-y="2130" 
d="M270 311v-312h-145v1383h145v-874l475 462h193l-419 -416l400 -555h-172l-328 459z" />
    <glyph glyph-name="l" unicode="l" horiz-adv-x="395" vert-adv-y="2130" 
d="M270 1388v-1388h-145v1388h145z" />
    <glyph glyph-name="m" unicode="m" horiz-adv-x="1466" vert-adv-y="2130" 
d="M263 615v-615h-138v970h138v-53q88 71 205 71q175 0 266 -147q46 70 114.5 108.5t151.5 38.5q144 0 242.5 -108.5t98.5 -264.5v-615h-138v615q0 95 -59 164t-141 69q-74 0 -132 -65t-68 -153v-630h-139v630q-9 87 -67.5 152.5t-132.5 65.5q-82 0 -141.5 -69t-59.5 -164z
" />
    <glyph glyph-name="n" unicode="n" horiz-adv-x="999" vert-adv-y="2130" 
d="M271 615v-615h-146v968h145v-58q98 78 230 78q156 0 264.5 -109t108.5 -264v-615h-145v615q0 95 -66.5 162t-160.5 67q-96 0 -163 -67t-67 -162z" />
    <glyph glyph-name="o" unicode="o" vert-adv-y="2130" 
d="M600 -17q-204 0 -339.5 143t-135.5 359q0 217 135.5 360t339.5 143q206 0 342 -143t136 -360t-136 -359.5t-342 -142.5zM600 126q142 0 237 103t95 256t-95 256t-237 103q-141 0 -235.5 -103t-94.5 -256t94.5 -256t235.5 -103z" />
    <glyph glyph-name="p" unicode="p" horiz-adv-x="1149" vert-adv-y="2130" 
d="M270 111v-490h-145v1346h145v-114q124 134 308 134q192 0 319 -144t127 -361t-127 -359.5t-319 -142.5q-183 0 -308 131zM578 123q132 0 219.5 103t87.5 256q0 154 -87.5 256.5t-219.5 102.5q-131 0 -218 -102.5t-87 -256.5q0 -153 87.5 -256t217.5 -103z" />
    <glyph glyph-name="q" unicode="q" horiz-adv-x="1149" vert-adv-y="2130" 
d="M1024 967v-1346h-144v490q-126 -131 -310 -131q-190 0 -317.5 143t-127.5 359t127.5 360.5t317.5 144.5q182 0 310 -134v114h144zM570 123q132 0 219.5 103t87.5 256q0 154 -87.5 256.5t-219.5 102.5q-131 0 -218 -102.5t-87 -256.5q0 -153 87 -256t218 -103z" />
    <glyph glyph-name="r" unicode="r" horiz-adv-x="740" vert-adv-y="2130" 
d="M271 615v-615h-146v968h145v-58q98 78 230 78q36 0 116 -16v-151q-88 23 -115 23q-96 0 -163 -67t-67 -162z" />
    <glyph glyph-name="s" unicode="s" horiz-adv-x="1073" vert-adv-y="2130" 
d="M541 -17q-173 0 -289 93t-127 238h145q6 -61 50 -105t101.5 -63.5t119.5 -19.5t119.5 15.5t99.5 52.5t42 87q0 21 -9.5 39t-32 32t-42 24t-58 21t-61 16.5t-67.5 15.5q-72 15 -119 27.5t-101 35t-85 49t-52 67.5t-21 93q0 129 108.5 208t275.5 79q159 0 268.5 -89.5
t120.5 -227.5h-146q-7 75 -74.5 124t-163.5 49q-60 0 -113 -14t-90.5 -47t-37.5 -79q0 -24 14 -43.5t33 -31.5t56.5 -24t64 -18t76.5 -16q74 -15 123.5 -27.5t107 -36t91.5 -51.5t57 -72t23 -100q0 -134 -115 -217.5t-292 -83.5z" />
    <glyph glyph-name="t" unicode="t" horiz-adv-x="754" vert-adv-y="2130" 
d="M629 143v-146q-144 8 -243 97.5t-99 211.5v519h-162v145h162v419h145v-419h179v-145h-179v-519q0 -64 56.5 -111t140.5 -52z" />
    <glyph glyph-name="u" unicode="u" horiz-adv-x="999" vert-adv-y="2130" 
d="M501 -18q-156 0 -266 108.5t-110 264.5v614h145v-614q0 -95 67 -162.5t163 -67.5q95 0 161.5 67.5t66.5 162.5v614h145v-968h-145v58q-95 -77 -227 -77z" />
    <glyph glyph-name="v" unicode="v" horiz-adv-x="1215" vert-adv-y="2130" 
d="M920 970h161l-473 -970l-474 970h161l312 -661z" />
    <glyph glyph-name="w" unicode="w" horiz-adv-x="1556" vert-adv-y="2130" 
d="M1059 0l-280 743l-280 -743l-368 970h145l223 -593l225 593h109l226 -593l221 593h146z" />
    <glyph glyph-name="x" unicode="x" horiz-adv-x="1217" vert-adv-y="2130" 
d="M608 367l-280 -367h-188l378 485l-378 485h188l280 -366l280 366h188l-378 -485l378 -485h-188z" />
    <glyph glyph-name="y" unicode="y" horiz-adv-x="1214" vert-adv-y="2130" 
d="M1080 970l-651 -1400h-148l252 538l-399 862h160l313 -696l313 696h160z" />
    <glyph glyph-name="z" unicode="z" horiz-adv-x="1034" vert-adv-y="2130" 
d="M908 145v-145h-783v121l579 704h-543v145h747v-120l-578 -705h578z" />
    <glyph glyph-name="braceleft" unicode="{" horiz-adv-x="684" vert-adv-y="2130" 
d="M603 -70v-146h-145q-89 0 -152.5 64t-63.5 153v529q0 29 -21 50t-50 21h-72v145h72q30 0 50.5 21t20.5 50v528q0 91 63 154t153 63h145v-145h-145q-29 0 -49.5 -21t-20.5 -51v-528q0 -84 -56 -143q56 -66 56 -144v-529q0 -29 20.5 -50t49.5 -21h145z" />
    <glyph glyph-name="bar" unicode="|" horiz-adv-x="535" vert-adv-y="2130" 
d="M340 1598v-1885h-145v1885h145z" />
    <glyph glyph-name="braceright" unicode="}" horiz-adv-x="684" vert-adv-y="2130" 
d="M225 -216h-144v146h144q29 0 50.5 21t21.5 50v529q0 81 54 143q-54 57 -54 144v528q0 30 -21.5 51t-50.5 21h-144v145h144q89 0 152.5 -63t63.5 -154v-528q0 -29 21 -50t51 -21h72v-145h-72q-29 0 -50.5 -21t-21.5 -50v-529q0 -89 -63.5 -153t-152.5 -64z" />
    <glyph glyph-name="asciitilde" unicode="~" horiz-adv-x="1218" vert-adv-y="2130" 
d="M759 702q-108 0 -194 88q-45 46 -90 46q-42 0 -93 -46l-74 -78l-103 104l77 75q87 88 190 88q108 0 194 -88q49 -47 91 -47q43 0 92 47l76 77l102 -103l-78 -75q-87 -88 -190 -88z" />
    <glyph glyph-name="exclamdown" unicode="&#xa1;" horiz-adv-x="554" vert-adv-y="2130" 
d="M278 1161q-38 0 -66 27.5t-28 65.5t28 66t66 28q37 0 64 -28t27 -66t-27 -65.5t-64 -27.5zM356 529v-529h-156v529l14 494h126z" />
    <glyph glyph-name="cent" unicode="&#xa2;" horiz-adv-x="1124" vert-adv-y="2130" 
d="M643 -14v-112h-145v115q-175 28 -283.5 165.5t-108.5 330.5t108.5 330.5t283.5 165.5v115h145v-112q102 -14 196 -78.5t162 -167.5l-122 -79q-100 151 -236 178v-704q65 14 126.5 60t109.5 118l122 -79q-69 -104 -162.5 -168.5t-195.5 -77.5zM498 138v694
q-110 -29 -178.5 -124t-68.5 -223q0 -127 68.5 -222t178.5 -125z" />
    <glyph glyph-name="sterling" unicode="&#xa3;" horiz-adv-x="1135" vert-adv-y="2130" 
d="M984 145v-145h-827v122q75 84 127 185t52 192q0 15 -3 39h-176v145h138l-14 41q-51 144 -51 237q0 173 120.5 294t291.5 121q90 0 179 -45.5t162 -129.5l-105 -101q-54 63 -115.5 97t-120.5 34q-111 0 -190 -79t-79 -190q0 -69 46 -189l5 -14q17 -41 27 -76h378v-145
h-349q1 -12 1 -36q0 -183 -120 -357h623z" />
    <glyph glyph-name="yen" unicode="&#xa5;" horiz-adv-x="1542" vert-adv-y="2130" 
d="M844 265v-265h-145v265h-256v145h256v141h-256v145h165l-492 652h182l473 -628l472 628h182l-490 -652h163v-145h-254v-141h254v-145h-254z" />
    <glyph glyph-name="brokenbar" unicode="&#xa6;" horiz-adv-x="563" vert-adv-y="2130" 
d="M354 1598v-809h-145v809h145zM354 522v-809h-145v809h145z" />
    <glyph glyph-name="dieresis" unicode="&#xa8;" horiz-adv-x="901" vert-adv-y="2130" 
d="M324 1095q-38 0 -65.5 27.5t-27.5 65.5t27.5 66t65.5 28t65.5 -28t27.5 -66t-27.5 -65.5t-65.5 -27.5zM576 1095q-38 0 -65.5 27.5t-27.5 65.5t27.5 66t65.5 28t65.5 -28t27.5 -66t-27.5 -65.5t-65.5 -27.5z" />
    <glyph glyph-name="copyright" unicode="&#xa9;" horiz-adv-x="1587" vert-adv-y="2130" 
d="M793 0q-137 0 -261.5 53.5t-214.5 143.5t-143.5 214.5t-53.5 261.5t53.5 262t143.5 215t214.5 143.5t261.5 53.5t262 -53.5t215 -143.5t143.5 -215t53.5 -262t-53.5 -261.5t-143.5 -214.5t-215 -143.5t-262 -53.5zM793 130q111 0 211.5 43t173.5 115.5t116 173t43 211.5
t-43 211.5t-116 173.5t-173.5 116t-211.5 43t-211.5 -43t-173 -116t-115.5 -173.5t-43 -211.5t43 -211.5t115.5 -173t173 -115.5t211.5 -43zM805 257q-173 0 -295 121.5t-122 294.5q0 174 122 295.5t295 121.5q105 0 205 -61t170 -167l-105 -77q-53 82 -125 129t-145 47
q-120 0 -204 -84.5t-84 -203.5t84 -203t204 -84q73 0 144 46.5t124 129.5l107 -77q-70 -106 -170 -167t-205 -61z" />
    <glyph glyph-name="ordfeminine" unicode="&#xaa;" horiz-adv-x="641" vert-adv-y="2130" 
d="M318 855q-84 0 -157 53.5t-73 140.5q0 83 72 138h-73v108h22q27 65 90 100t136 35q100 0 159 -55t59 -153v-257h10v-109h-109v9h-22v18q-59 -28 -114 -28zM228 1261v-37q57 20 112 20h91q-5 30 -34.5 47.5t-62.5 17.5q-75 0 -106 -48zM321 979q33 0 62.5 14t43.5 36
q5 15 5 16v77h-92q-44 0 -87.5 -19.5t-43.5 -52.5q0 -30 33 -50.5t79 -20.5z" />
    <glyph glyph-name="guillemotleft" unicode="&#xab;" horiz-adv-x="1106" vert-adv-y="1700" 
d="M343 493l314 -313l-104 -102l-414 415l414 414l104 -103zM628 493l310 -312l-100 -103l-415 415l415 414l100 -103z" />
    <glyph glyph-name="logicalnot" unicode="&#xac;" horiz-adv-x="1260" vert-adv-y="2130" 
d="M1067 674v-468h-145v323h-725v145h870z" />
    <glyph glyph-name="registered" unicode="&#xae;" horiz-adv-x="1559" vert-adv-y="2130" 
d="M782 0q-137 0 -261.5 53.5t-215 143.5t-144 214.5t-53.5 261.5t53.5 262t144 215t215 143.5t261.5 53.5t261.5 -53.5t214.5 -143.5t143.5 -215t53.5 -262t-53.5 -261.5t-143.5 -214.5t-214.5 -143.5t-261.5 -53.5zM782 130q111 0 211.5 43t173.5 115.5t116 173t43 211.5
t-43 211.5t-116 173.5t-173.5 116t-211.5 43t-211.5 -43t-173.5 -116t-116 -173.5t-43 -211.5t43 -211.5t116 -173t173.5 -115.5t211.5 -43zM592 527v-233h-131v789h408q116 0 197.5 -81t81.5 -197q0 -84 -45.5 -152.5t-119.5 -101.5l175 -257h-157l-161 233h-248zM869 968
h-291v-325h307q61 9 103.5 55t42.5 107q0 68 -47 115.5t-115 47.5z" />
    <glyph glyph-name="macron" unicode="&#xaf;" horiz-adv-x="900" vert-adv-y="2130" 
d="M675 1244v-145h-450v145h450z" />
    <glyph glyph-name="degree" unicode="&#xb0;" horiz-adv-x="732" vert-adv-y="2130" 
d="M366 915q-94 0 -159.5 65.5t-65.5 159.5t65.5 159.5t159.5 65.5t159.5 -65.5t65.5 -159.5t-65.5 -159.5t-159.5 -65.5zM366 1060q33 0 56.5 23.5t23.5 56.5t-23.5 56.5t-56.5 23.5t-56.5 -23.5t-23.5 -56.5t23.5 -56.5t56.5 -23.5z" />
    <glyph glyph-name="plusminus" unicode="&#xb1;" horiz-adv-x="1068" vert-adv-y="2130" 
d="M606 673v-255h-144v255h-255v144h255v257h144v-257h256v-144h-256zM862 347v-145h-655v145h655z" />
    <glyph glyph-name="uni00B2" unicode="&#xb2;" horiz-adv-x="561" vert-adv-y="1700" 
d="M488 1005v-130h-416v76q0 41 15.5 77t45.5 64t56.5 46.5t64.5 40.5l66 35q38 20 38 35q0 18 -22 28t-57 10q-34 0 -54.5 -23.5t-24.5 -65.5h-127v53q0 82 62.5 124t145.5 42q52 0 97 -16t77.5 -56t32.5 -98q0 -51 -22 -79.5t-72 -60.5l-66 -37q-70 -35 -99 -65h259z" />
    <glyph glyph-name="uni00B3" unicode="&#xb3;" horiz-adv-x="578" vert-adv-y="1700" 
d="M289 888q-40 0 -76.5 9.5t-69 28.5t-52 53.5t-19.5 78.5v47h118v-47q0 -24 27.5 -38.5t71.5 -14.5t71.5 14.5t27.5 38.5q0 23 -24.5 38t-63.5 15h-88v112h88q36 0 58.5 13.5t22.5 34.5q0 23 -25.5 36.5t-68.5 13.5q-41 0 -65 -25t-28 -71h-113v46q0 56 32.5 95t77.5 54.5
t98 15.5q52 0 98 -16t78.5 -54t32.5 -93q0 -60 -41 -103l-6 5q54 -48 54 -120q0 -56 -34 -95.5t-81 -55.5t-101 -16z" />
    <glyph glyph-name="acute" unicode="&#xb4;" horiz-adv-x="924" vert-adv-y="2130" 
d="M595 1418l93 -111l-309 -250l-91 112z" />
    <glyph glyph-name="paragraph" unicode="&#xb6;" horiz-adv-x="1209" vert-adv-y="2130" 
d="M820 1202v-1202h-145v457h-111q-184 0 -314.5 130.5t-130.5 314.5q0 121 59.5 223.5t162.5 162.5t223 60h435v-1348h-145v1202h-34zM564 602h111v600h-111q-125 0 -212.5 -87.5t-87.5 -212.5t87.5 -212.5t212.5 -87.5z" />
    <glyph glyph-name="periodcentered" unicode="&#xb7;" horiz-adv-x="518" vert-adv-y="2130" 
d="M259 586q-38 0 -66 28t-28 66t28 65.5t66 27.5q37 0 64 -27.5t27 -65.5t-27 -66t-64 -28z" />
    <glyph glyph-name="cedilla" unicode="&#xb8;" horiz-adv-x="1261" vert-adv-y="2130" 
d="M491 -387v121q36 -4 66.5 12.5t43.5 45.5h-110v226h119v-107h118v-89q0 -89 -69.5 -150t-167.5 -59z" />
    <glyph glyph-name="uni00B9" unicode="&#xb9;" horiz-adv-x="404" vert-adv-y="1700" 
d="M331 1416v-534h-129v344l-31 -24l-90 94l155 120h95z" />
    <glyph glyph-name="ordmasculine" unicode="&#xba;" horiz-adv-x="733" vert-adv-y="2130" 
d="M366 824q-119 0 -198.5 83.5t-79.5 208.5t79.5 208t198.5 83q120 0 199 -83t79 -208q0 -126 -79 -209t-199 -83zM366 946q67 0 111.5 48.5t44.5 121.5q0 72 -44.5 120t-111.5 48t-112 -48t-45 -120q0 -73 45 -121.5t112 -48.5z" />
    <glyph glyph-name="guillemotright" unicode="&#xbb;" horiz-adv-x="1106" vert-adv-y="1700" 
d="M270 907l415 -414l-416 -415l-102 102l312 313l-312 311zM552 907l415 -414l-415 -415l-101 102l312 313l-312 311z" />
    <glyph glyph-name="questiondown" unicode="&#xbf;" horiz-adv-x="1194" vert-adv-y="2130" 
d="M679 1190q-39 0 -67 27t-28 65t28 66t67 28q37 0 64.5 -28t27.5 -66t-27.5 -65t-64.5 -27zM614 0q-139 0 -252.5 49.5t-178 136.5t-64.5 194q0 250 398 464q37 19 50.5 29t24.5 36t11 71v152h147l-1 -153q0 -51 -5.5 -83.5t-13 -56t-29.5 -44t-42.5 -34.5t-65.5 -41
q-51 -30 -84 -50t-84.5 -58t-82.5 -70.5t-54.5 -75.5t-23.5 -85q0 -102 99 -169t249 -67q139 0 225 73.5t93 195.5h143q-7 -186 -134 -300t-325 -114z" />
    <glyph glyph-name="Agrave" unicode="&#xc0;" horiz-adv-x="1622" vert-adv-y="2130" 
d="M722 1853l318 -257l-93 -113l-317 255zM485 383l-188 -383h-163l677 1397l677 -1397h-163l-188 383h-652zM1067 540l-257 528l-255 -528h512z" />
    <glyph glyph-name="Aacute" unicode="&#xc1;" horiz-adv-x="1622" vert-adv-y="2130" 
d="M921 1853l95 -114l-316 -256l-94 113zM485 383l-188 -383h-163l677 1397l677 -1397h-163l-188 383h-652zM1067 540l-257 528l-255 -528h512z" />
    <glyph glyph-name="Acircumflex" unicode="&#xc2;" horiz-adv-x="1622" vert-adv-y="2130" 
d="M999 1505l-189 140l-187 -140l-94 113l282 212l281 -212zM485 383l-188 -383h-163l677 1397l677 -1397h-163l-188 383h-652zM1067 540l-257 528l-255 -528h512z" />
    <glyph glyph-name="Atilde" unicode="&#xc3;" horiz-adv-x="1622" vert-adv-y="2130" 
d="M718 1589l-69 -68l-104 103l70 68q62 60 123 60q62 0 124 -59q17 -15 22 -15q6 0 19 15l70 68l104 -105l-71 -67q-62 -60 -122 -60q-61 0 -124 60q-15 13 -22 13t-20 -13zM485 383l-188 -383h-163l677 1397l677 -1397h-163l-188 383h-652zM1067 540l-257 528l-255 -528
h512z" />
    <glyph glyph-name="Adieresis" unicode="&#xc4;" horiz-adv-x="1622" vert-adv-y="2130" 
d="M681 1522q-39 0 -66.5 28t-27.5 66q0 39 27.5 67.5t66.5 28.5t67.5 -28.5t28.5 -67.5q0 -38 -28.5 -66t-67.5 -28zM943 1522q-40 0 -68 28t-28 66q0 39 28 67.5t68 28.5q38 0 65.5 -28.5t27.5 -67.5q0 -38 -27.5 -66t-65.5 -28zM485 383l-188 -383h-163l677 1397
l677 -1397h-163l-188 383h-652zM1067 540l-257 528l-255 -528h512z" />
    <glyph glyph-name="Aring" unicode="&#xc5;" horiz-adv-x="1622" vert-adv-y="2130" 
d="M811 1497q-74 0 -127 53t-53 127t53 126.5t127 52.5t126.5 -52.5t52.5 -126.5t-52.5 -127t-126.5 -53zM811 1617q25 0 42 17.5t17 42.5t-17 42.5t-42 17.5t-42.5 -17.5t-17.5 -42.5t17.5 -42.5t42.5 -17.5zM485 383l-188 -383h-163l677 1397l677 -1397h-163l-188 383
h-652zM1067 540l-257 528l-255 -528h512z" />
    <glyph glyph-name="AE" unicode="&#xc6;" horiz-adv-x="1962" vert-adv-y="2130" 
d="M486 400l-189 -400h-163l653 1390h1050v-148h-916v-474h859v-146h-859v-474h916v-148h-1062v400h-289zM775 548v461l-220 -461h220z" />
    <glyph glyph-name="Ccedilla" unicode="&#xc7;" horiz-adv-x="1611" vert-adv-y="2130" 
d="M680 -395v121q36 -4 66.5 12.5t43.5 45.5h-110v207q-241 58 -398 253.5t-157 450.5q0 148 57.5 282.5t154.5 231t231 153.5t281 57q185 0 352.5 -96.5t278.5 -267.5l-118 -87q-95 142 -231 223t-282 81q-117 0 -223.5 -45.5t-184 -123t-123 -184t-45.5 -224.5
t45.5 -224.5t123 -184t184 -123t223.5 -45.5q145 0 281.5 81t230.5 223l118 -87q-111 -171 -278 -267.5t-352 -96.5q-16 0 -50 2v-70h118v-89q0 -89 -69.5 -150t-167.5 -59z" />
    <glyph glyph-name="Egrave" unicode="&#xc8;" horiz-adv-x="1313" vert-adv-y="2130" 
d="M545 1853l318 -257l-97 -113l-314 255zM1187 148v-148h-1062v1390h1062v-148h-914v-474h859v-146h-859v-474h914z" />
    <glyph glyph-name="Eacute" unicode="&#xc9;" horiz-adv-x="1313" vert-adv-y="2130" 
d="M766 1853l96 -114l-317 -256l-93 113zM1187 148v-148h-1062v1390h1062v-148h-914v-474h859v-146h-859v-474h914z" />
    <glyph glyph-name="Ecircumflex" unicode="&#xca;" horiz-adv-x="1313" vert-adv-y="2130" 
d="M844 1505l-186 139l-186 -139l-98 112l284 213l281 -213zM1187 148v-148h-1062v1390h1062v-148h-914v-474h859v-146h-859v-474h914z" />
    <glyph glyph-name="Edieresis" unicode="&#xcb;" horiz-adv-x="1313" vert-adv-y="2130" 
d="M527 1522q-40 0 -68 28t-28 66q0 39 28 67.5t68 28.5q38 0 66 -28.5t28 -67.5q0 -38 -28 -66t-66 -28zM787 1522q-40 0 -68 28t-28 66q0 39 28 67.5t68 28.5q38 0 66 -28.5t28 -67.5q0 -38 -28 -66t-66 -28zM1187 148v-148h-1062v1390h1062v-148h-914v-474h859v-146h-859
v-474h914z" />
    <glyph glyph-name="Igrave" unicode="&#xcc;" horiz-adv-x="422" vert-adv-y="2130" 
d="M98 1853l318 -257l-94 -113l-316 255zM284 1390v-1390h-147v1390h147z" />
    <glyph glyph-name="Iacute" unicode="&#xcd;" horiz-adv-x="422" vert-adv-y="2130" 
d="M322 1853l94 -115l-318 -255l-92 113zM284 1390v-1390h-147v1390h147z" />
    <glyph glyph-name="Icircumflex" unicode="&#xce;" horiz-adv-x="414" vert-adv-y="2130" 
d="M394 1505l-188 139l-186 -139l-95 112l281 213l283 -213zM281 1390v-1390h-149v1390h149z" />
    <glyph glyph-name="Idieresis" unicode="&#xcf;" horiz-adv-x="373" vert-adv-y="2130" 
d="M56 1522q-39 0 -67 28t-28 66q0 39 28 67.5t67 28.5t67 -28.5t28 -67.5q0 -38 -28 -66t-67 -28zM317 1522q-40 0 -68 28t-28 66q0 39 28 67.5t68 28.5q38 0 66.5 -28.5t28.5 -67.5q0 -38 -28.5 -66t-66.5 -28zM260 1390v-1390h-147v1390h147z" />
    <glyph glyph-name="Ntilde" unicode="&#xd1;" horiz-adv-x="1391" vert-adv-y="2130" 
d="M602 1589l-66 -68l-107 103l70 68q62 60 123 60q63 0 125 -59q17 -15 21 -15t21 15l68 68l105 -105l-71 -67q-62 -60 -122 -60q-62 0 -124 60q-15 13 -22 13q-6 0 -21 -13zM1119 1390h148v-1400l-994 1017v-1007h-148v1398l994 -1027v1019z" />
    <glyph glyph-name="Ograve" unicode="&#xd2;" horiz-adv-x="1699" vert-adv-y="2130" 
d="M739 1853l317 -257l-96 -113l-315 255zM849 -29q-147 0 -281 57t-231 153.5t-154.5 231t-57.5 282.5t57.5 282.5t154.5 231t231 153.5t281 57q148 0 282.5 -57t231.5 -154t154.5 -231t57.5 -282t-57.5 -282t-154.5 -231t-231.5 -154t-282.5 -57zM849 118q118 0 225 45.5
t184.5 123t123 184t45.5 224.5t-45.5 224.5t-123 184t-184.5 123t-225 45.5q-117 0 -223.5 -45.5t-184 -123t-123 -184t-45.5 -224.5t45.5 -224.5t123 -184t184 -123t223.5 -45.5z" />
    <glyph glyph-name="Oacute" unicode="&#xd3;" horiz-adv-x="1699" vert-adv-y="2130" 
d="M961 1853l95 -114l-317 -256l-94 113zM849 -29q-147 0 -281 57t-231 153.5t-154.5 231t-57.5 282.5t57.5 282.5t154.5 231t231 153.5t281 57q148 0 282.5 -57t231.5 -154t154.5 -231t57.5 -282t-57.5 -282t-154.5 -231t-231.5 -154t-282.5 -57zM849 118q118 0 225 45.5
t184.5 123t123 184t45.5 224.5t-45.5 224.5t-123 184t-184.5 123t-225 45.5q-117 0 -223.5 -45.5t-184 -123t-123 -184t-45.5 -224.5t45.5 -224.5t123 -184t184 -123t223.5 -45.5z" />
    <glyph glyph-name="Ocircumflex" unicode="&#xd4;" horiz-adv-x="1699" vert-adv-y="2130" 
d="M1035 1505l-186 139l-186 -139l-96 112l282 213l283 -213zM849 -29q-147 0 -281 57t-231 153.5t-154.5 231t-57.5 282.5t57.5 282.5t154.5 231t231 153.5t281 57q148 0 282.5 -57t231.5 -154t154.5 -231t57.5 -282t-57.5 -282t-154.5 -231t-231.5 -154t-282.5 -57z
M849 118q118 0 225 45.5t184.5 123t123 184t45.5 224.5t-45.5 224.5t-123 184t-184.5 123t-225 45.5q-117 0 -223.5 -45.5t-184 -123t-123 -184t-45.5 -224.5t45.5 -224.5t123 -184t184 -123t223.5 -45.5z" />
    <glyph glyph-name="Otilde" unicode="&#xd5;" horiz-adv-x="1699" vert-adv-y="2130" 
d="M755 1589l-67 -68l-105 103l72 69q59 59 122 59q61 0 123 -59q17 -15 23 -15q3 0 20 15l66 68l107 -105l-70 -67q-62 -60 -123 -60q-62 0 -124 60q-17 13 -22 13q-3 0 -22 -13zM849 -29q-147 0 -281 57t-231 153.5t-154.5 231t-57.5 282.5t57.5 282.5t154.5 231
t231 153.5t281 57q148 0 282.5 -57t231.5 -154t154.5 -231t57.5 -282t-57.5 -282t-154.5 -231t-231.5 -154t-282.5 -57zM849 118q118 0 225 45.5t184.5 123t123 184t45.5 224.5t-45.5 224.5t-123 184t-184.5 123t-225 45.5q-117 0 -223.5 -45.5t-184 -123t-123 -184
t-45.5 -224.5t45.5 -224.5t123 -184t184 -123t223.5 -45.5z" />
    <glyph glyph-name="Odieresis" unicode="&#xd6;" horiz-adv-x="1699" vert-adv-y="2130" 
d="M719 1522q-38 0 -66 28t-28 66q0 39 28 67.5t66 28.5q40 0 68 -28.5t28 -67.5q0 -38 -28 -66t-68 -28zM979 1522q-38 0 -66 28t-28 66q0 39 28 67.5t66 28.5q40 0 68 -28.5t28 -67.5t-28 -66.5t-68 -27.5zM849 -29q-147 0 -281 57t-231 153.5t-154.5 231t-57.5 282.5
t57.5 282.5t154.5 231t231 153.5t281 57q148 0 282.5 -57t231.5 -154t154.5 -231t57.5 -282t-57.5 -282t-154.5 -231t-231.5 -154t-282.5 -57zM849 118q118 0 225 45.5t184.5 123t123 184t45.5 224.5t-45.5 224.5t-123 184t-184.5 123t-225 45.5q-117 0 -223.5 -45.5
t-184 -123t-123 -184t-45.5 -224.5t45.5 -224.5t123 -184t184 -123t223.5 -45.5z" />
    <glyph glyph-name="multiply" unicode="&#xd7;" horiz-adv-x="1049" vert-adv-y="2130" 
d="M756 268l-232 232l-230 -232l-103 103l232 230l-232 232l103 102l230 -231l232 231l102 -102l-232 -232l232 -230z" />
    <glyph glyph-name="Oslash" unicode="&#xd8;" horiz-adv-x="1699" vert-adv-y="2130" 
d="M678 -9l-22 -64h-158l41 113q-188 90 -301 267.5t-113 387.5q0 148 57.5 282.5t154.5 231t231 153.5t281 57q90 0 171 -20l24 64h158l-42 -114q188 -90 301.5 -267t113.5 -387q0 -148 -57.5 -282t-154.5 -231t-231.5 -154t-282.5 -57q-88 0 -171 20zM588 180l383 1078
q-62 14 -122 14q-117 0 -223.5 -45.5t-184 -123t-123 -184t-45.5 -224.5q0 -168 83.5 -305.5t231.5 -209.5zM849 118q118 0 225 45.5t184.5 123t123 184t45.5 224.5q0 167 -84 304.5t-232 210.5l-383 -1078q62 -14 121 -14z" />
    <glyph glyph-name="Ugrave" unicode="&#xd9;" horiz-adv-x="1391" vert-adv-y="2130" 
d="M583 1853l318 -257l-96 -113l-314 255zM696 -29q-155 0 -286.5 76t-208 207.5t-76.5 286.5v849h148v-849q0 -175 124 -299t299 -124t299 124t124 299v849h148v-849q0 -116 -45.5 -221.5t-122 -182t-182 -121.5t-221.5 -45z" />
    <glyph glyph-name="Uacute" unicode="&#xda;" horiz-adv-x="1391" vert-adv-y="2130" 
d="M805 1853l96 -114l-318 -256l-92 113zM696 -29q-155 0 -286.5 76t-208 207.5t-76.5 286.5v849h148v-849q0 -175 124 -299t299 -124t299 124t124 299v849h148v-849q0 -116 -45.5 -221.5t-122 -182t-182 -121.5t-221.5 -45z" />
    <glyph glyph-name="Ucircumflex" unicode="&#xdb;" horiz-adv-x="1391" vert-adv-y="2130" 
d="M882 1505l-186 139l-186 -139l-96 112l282 213l282 -213zM696 -29q-155 0 -286.5 76t-208 207.5t-76.5 286.5v849h148v-849q0 -175 124 -299t299 -124t299 124t124 299v849h148v-849q0 -116 -45.5 -221.5t-122 -182t-182 -121.5t-221.5 -45z" />
    <glyph glyph-name="Udieresis" unicode="&#xdc;" horiz-adv-x="1391" vert-adv-y="2130" 
d="M567 1522q-40 0 -68.5 28t-28.5 66q0 39 28.5 67.5t68.5 28.5q38 0 66 -28.5t28 -67.5q0 -38 -28 -66t-66 -28zM827 1522q-40 0 -68 28t-28 66q0 39 28 67.5t68 28.5q38 0 66 -28.5t28 -67.5q0 -38 -28 -66t-66 -28zM696 -29q-155 0 -286.5 76t-208 207.5t-76.5 286.5
v849h148v-849q0 -175 124 -299t299 -124t299 124t124 299v849h148v-849q0 -116 -45.5 -221.5t-122 -182t-182 -121.5t-221.5 -45z" />
    <glyph glyph-name="Yacute" unicode="&#xdd;" horiz-adv-x="1560" vert-adv-y="2130" 
d="M921 1853l95 -115l-318 -255l-94 113zM884 538v-538h-148v538l-597 852h182l489 -705l490 705h182z" />
    <glyph glyph-name="germandbls" unicode="&#xdf;" horiz-adv-x="1312" vert-adv-y="1700" 
d="M291 997v-1289h-145v1312q11 161 152.5 261.5t358.5 100.5q226 0 366.5 -107t140.5 -276q0 -93 -47.5 -172.5t-133.5 -133.5q97 -53 151 -138t54 -187q0 -175 -159 -286t-408 -114v144q185 2 303 72.5t118 181.5q0 99 -97.5 176t-253.5 84l-12 -1l-146 -2v135l144 -4h12
q156 0 245.5 73t89.5 174q0 106 -101.5 173t-266.5 67q-162 0 -263.5 -68t-101.5 -176z" />
    <glyph glyph-name="agrave" unicode="&#xe0;" horiz-adv-x="1035" vert-adv-y="2130" 
d="M433 1418l308 -249l-93 -111l-306 248zM521 -17q-165 0 -280.5 92.5t-115.5 222.5q0 136 125 230t303 94h211v24q-9 78 -69 130t-154 52q-95 0 -173.5 -56t-87.5 -157h-146q8 84 46.5 153t96 113t126 67.5t139.5 23.5q171 0 269 -94t98 -254v-624h-145v57
q-100 -74 -243 -74zM517 126q93 0 164.5 50t82.5 119v183h-211q-117 0 -200 -51.5t-83 -126.5q0 -70 73 -122t174 -52z" />
    <glyph glyph-name="aacute" unicode="&#xe1;" horiz-adv-x="1035" vert-adv-y="2130" 
d="M626 1418l91 -112l-308 -249l-91 112zM521 -17q-165 0 -280.5 92.5t-115.5 222.5q0 136 125 230t303 94h211v24q-9 78 -69 130t-154 52q-95 0 -173.5 -56t-87.5 -157h-146q8 84 46.5 153t96 113t126 67.5t139.5 23.5q171 0 269 -94t98 -254v-624h-145v57
q-100 -74 -243 -74zM517 126q93 0 164.5 50t82.5 119v183h-211q-117 0 -200 -51.5t-83 -126.5q0 -70 73 -122t174 -52z" />
    <glyph glyph-name="acircumflex" unicode="&#xe2;" horiz-adv-x="1035" vert-adv-y="2130" 
d="M700 1079l-183 135l-180 -135l-94 111l274 207l275 -207zM521 -17q-165 0 -280.5 92.5t-115.5 222.5q0 136 125 230t303 94h211v24q-9 78 -69 130t-154 52q-95 0 -173.5 -56t-87.5 -157h-146q8 84 46.5 153t96 113t126 67.5t139.5 23.5q171 0 269 -94t98 -254v-624h-145
v57q-100 -74 -243 -74zM517 126q93 0 164.5 50t82.5 119v183h-211q-117 0 -200 -51.5t-83 -126.5q0 -70 73 -122t174 -52z" />
    <glyph glyph-name="atilde" unicode="&#xe3;" horiz-adv-x="1035" vert-adv-y="2130" 
d="M428 1161l-65 -68l-104 104l68 66q61 58 119 58q61 0 121 -58q17 -13 21 -13q6 0 19 13l67 68l103 -104l-69 -66q-61 -59 -120 -59q-58 0 -120 59q-14 12 -19 13q-7 -1 -21 -13zM521 -17q-165 0 -280.5 92.5t-115.5 222.5q0 136 125 230t303 94h211v24q-9 78 -69 130
t-154 52q-95 0 -173.5 -56t-87.5 -157h-146q8 84 46.5 153t96 113t126 67.5t139.5 23.5q171 0 269 -94t98 -254v-624h-145v57q-100 -74 -243 -74zM517 126q93 0 164.5 50t82.5 119v183h-211q-117 0 -200 -51.5t-83 -126.5q0 -70 73 -122t174 -52z" />
    <glyph glyph-name="adieresis" unicode="&#xe4;" horiz-adv-x="1035" vert-adv-y="2130" 
d="M391 1095q-38 0 -66 28.5t-28 65.5t28 64.5t66 27.5t65.5 -27.5t27.5 -64.5t-28 -65.5t-65 -28.5zM644 1095q-38 0 -66 28.5t-28 65.5t28 64.5t66 27.5t65 -27.5t27 -64.5t-27.5 -65.5t-64.5 -28.5zM521 -17q-165 0 -280.5 92.5t-115.5 222.5q0 136 125 230t303 94h211
v24q-9 78 -69 130t-154 52q-95 0 -173.5 -56t-87.5 -157h-146q8 84 46.5 153t96 113t126 67.5t139.5 23.5q171 0 269 -94t98 -254v-624h-145v57q-100 -74 -243 -74zM517 126q93 0 164.5 50t82.5 119v183h-211q-117 0 -200 -51.5t-83 -126.5q0 -70 73 -122t174 -52z" />
    <glyph glyph-name="aring" unicode="&#xe5;" horiz-adv-x="1035" vert-adv-y="2130" 
d="M518 1066q-74 0 -127 53t-53 127t53 126.5t127 52.5t126.5 -52.5t52.5 -126.5t-52.5 -127t-126.5 -53zM518 1186q25 0 42 17.5t17 42.5t-17 42.5t-42 17.5t-42.5 -17.5t-17.5 -42.5t17.5 -42.5t42.5 -17.5zM521 -17q-165 0 -280.5 92.5t-115.5 222.5q0 136 125 230
t303 94h211v24q-9 78 -69 130t-154 52q-95 0 -173.5 -56t-87.5 -157h-146q8 84 46.5 153t96 113t126 67.5t139.5 23.5q171 0 269 -94t98 -254v-624h-145v57q-100 -74 -243 -74zM517 126q93 0 164.5 50t82.5 119v183h-211q-117 0 -200 -51.5t-83 -126.5q0 -70 73 -122
t174 -52z" />
    <glyph glyph-name="ae" unicode="&#xe6;" horiz-adv-x="1841" vert-adv-y="2130" 
d="M1245 126q102 0 187 66.5t130 181.5l137 -47q-60 -158 -182 -251t-272 -93q-202 0 -337 140v-123h-144v57q-100 -74 -243 -74q-165 0 -280.5 92.5t-115.5 222.5q0 136 125 230t303 94h211v24q-9 78 -69 130t-154 52q-95 0 -173.5 -56t-87.5 -157h-146q10 110 73.5 193.5
t151 123.5t182.5 40q114 0 198 -43t128 -124l1 -5q65 89 162.5 138.5t214.5 49.5q203 0 337.5 -155t139.5 -385h-806q15 -137 107.5 -229.5t221.5 -92.5zM1245 844q-112 0 -198 -69.5t-117 -180.5h631q-30 111 -117 180.5t-199 69.5zM764 295v183h-211q-117 0 -200 -51.5
t-83 -126.5q0 -70 73 -122t174 -52q93 0 164.5 50t82.5 119z" />
    <glyph glyph-name="ccedilla" unicode="&#xe7;" horiz-adv-x="1150" vert-adv-y="2130" 
d="M452 -368v121q36 -4 66.5 12.5t43.5 45.5h-110v195q-147 47 -237 176.5t-90 302.5q0 217 135.5 360t339.5 143q121 0 231.5 -65.5t187.5 -184.5l-121 -79q-58 87 -137 136t-161 49q-141 0 -235.5 -103t-94.5 -256t94.5 -256t235.5 -103q82 0 161 49t137 136l121 -79
q-77 -119 -187.5 -184t-231.5 -65q-19 0 -29 1v-54h118v-89q0 -89 -69.5 -150t-167.5 -59z" />
    <glyph glyph-name="egrave" unicode="&#xe8;" vert-adv-y="2130" 
d="M494 1418l307 -249l-92 -111l-307 248zM600 -17q-204 0 -339.5 143t-135.5 359q0 217 135 360t340 143q203 0 337.5 -155t139.5 -385h-806q15 -137 107.5 -229.5t221.5 -92.5q102 0 187 66.5t130 181.5l137 -47q-60 -158 -182 -251t-272 -93zM285 594h631
q-30 111 -117 180.5t-199 69.5t-198 -69.5t-117 -180.5z" />
    <glyph glyph-name="eacute" unicode="&#xe9;" vert-adv-y="2130" 
d="M709 1418l92 -112l-307 -248l-92 111zM600 -17q-204 0 -339.5 143t-135.5 359q0 217 135 360t340 143q203 0 337.5 -155t139.5 -385h-806q15 -137 107.5 -229.5t221.5 -92.5q102 0 187 66.5t130 181.5l137 -47q-60 -158 -182 -251t-272 -93zM285 594h631
q-30 111 -117 180.5t-199 69.5t-198 -69.5t-117 -180.5z" />
    <glyph glyph-name="ecircumflex" unicode="&#xea;" vert-adv-y="2130" 
d="M783 1079l-183 135l-179 -135l-93 111l272 207l275 -207zM600 -17q-204 0 -339.5 143t-135.5 359q0 217 135 360t340 143q203 0 337.5 -155t139.5 -385h-806q15 -137 107.5 -229.5t221.5 -92.5q102 0 187 66.5t130 181.5l137 -47q-60 -158 -182 -251t-272 -93zM285 594
h631q-30 111 -117 180.5t-199 69.5t-198 -69.5t-117 -180.5z" />
    <glyph glyph-name="edieresis" unicode="&#xeb;" vert-adv-y="2130" 
d="M475 1095q-38 0 -66 28.5t-28 65.5q0 38 27.5 65t66.5 27q38 0 65.5 -27.5t27.5 -64.5t-28 -65.5t-65 -28.5zM726 1095q-37 0 -64 28.5t-27 65.5q0 38 27 65t64 27q38 0 66 -27.5t28 -64.5t-28.5 -65.5t-65.5 -28.5zM600 -17q-204 0 -339.5 143t-135.5 359q0 217 135 360
t340 143q203 0 337.5 -155t139.5 -385h-806q15 -137 107.5 -229.5t221.5 -92.5q102 0 187 66.5t130 181.5l137 -47q-60 -158 -182 -251t-272 -93zM285 594h631q-30 111 -117 180.5t-199 69.5t-198 -69.5t-117 -180.5z" />
    <glyph glyph-name="igrave" unicode="&#xec;" horiz-adv-x="458" vert-adv-y="2130" 
d="M120 1418l310 -250l-95 -110l-306 248zM301 970v-970h-146v970h146z" />
    <glyph glyph-name="iacute" unicode="&#xed;" horiz-adv-x="458" vert-adv-y="2130" 
d="M335 1418l94 -112l-309 -249l-91 112zM301 970v-970h-146v970h146z" />
    <glyph glyph-name="icircumflex" unicode="&#xee;" horiz-adv-x="444" vert-adv-y="2130" 
d="M404 1079l-182 135l-181 -135l-93 111l274 207l273 -207zM294 970v-970h-146v970h146z" />
    <glyph glyph-name="idieresis" unicode="&#xef;" horiz-adv-x="407" vert-adv-y="2130" 
d="M78 1095q-38 0 -66 28.5t-28 65.5t28 64.5t66 27.5q37 0 64 -27t27 -65q0 -37 -27 -65.5t-64 -28.5zM330 1095q-37 0 -65.5 28.5t-28.5 65.5t28 64.5t66 27.5q37 0 64.5 -27.5t27.5 -64.5t-27.5 -65.5t-64.5 -28.5zM276 970v-970h-145v970h145z" />
    <glyph glyph-name="ntilde" unicode="&#xf1;" horiz-adv-x="999" vert-adv-y="2130" 
d="M410 1161l-66 -68l-103 104l69 66q60 58 120 58q57 0 120 -58q13 -13 19 -13q5 0 20 13l65 68l105 -104l-69 -66q-61 -59 -120 -59q-58 0 -120 59q-17 13 -20 13q-5 0 -20 -13zM271 615v-615h-146v968h145v-58q98 78 230 78q156 0 264.5 -109t108.5 -264v-615h-145v615
q0 95 -66.5 162t-160.5 67q-96 0 -163 -67t-67 -162z" />
    <glyph glyph-name="ograve" unicode="&#xf2;" vert-adv-y="2130" 
d="M494 1418l307 -249l-92 -111l-307 248zM600 -17q-204 0 -339.5 143t-135.5 359q0 217 135.5 360t339.5 143q206 0 342 -143t136 -360t-136 -359.5t-342 -142.5zM600 126q142 0 237 103t95 256t-95 256t-237 103q-141 0 -235.5 -103t-94.5 -256t94.5 -256t235.5 -103z" />
    <glyph glyph-name="oacute" unicode="&#xf3;" vert-adv-y="2130" 
d="M709 1418l92 -112l-307 -248l-92 111zM600 -17q-204 0 -339.5 143t-135.5 359q0 217 135.5 360t339.5 143q206 0 342 -143t136 -360t-136 -359.5t-342 -142.5zM600 126q142 0 237 103t95 256t-95 256t-237 103q-141 0 -235.5 -103t-94.5 -256t94.5 -256t235.5 -103z" />
    <glyph glyph-name="ocircumflex" unicode="&#xf4;" vert-adv-y="2130" 
d="M783 1079l-183 135l-179 -135l-93 111l272 207l275 -207zM600 -17q-204 0 -339.5 143t-135.5 359q0 217 135.5 360t339.5 143q206 0 342 -143t136 -360t-136 -359.5t-342 -142.5zM600 126q142 0 237 103t95 256t-95 256t-237 103q-141 0 -235.5 -103t-94.5 -256
t94.5 -256t235.5 -103z" />
    <glyph glyph-name="otilde" unicode="&#xf5;" vert-adv-y="2130" 
d="M511 1161l-64 -68l-105 104l69 66q58 58 120 58q59 0 119 -58q17 -13 21 -13q6 0 19 13l67 68l102 -104l-68 -66q-59 -59 -120 -59q-59 0 -120 59q-13 11 -18 13q-6 -1 -22 -13zM600 -17q-204 0 -339.5 143t-135.5 359q0 217 135.5 360t339.5 143q206 0 342 -143
t136 -360t-136 -359.5t-342 -142.5zM600 126q142 0 237 103t95 256t-95 256t-237 103q-141 0 -235.5 -103t-94.5 -256t94.5 -256t235.5 -103z" />
    <glyph glyph-name="odieresis" unicode="&#xf6;" vert-adv-y="2130" 
d="M476 1095q-38 0 -66 28.5t-28 65.5q0 38 27.5 65t66.5 27q38 0 65.5 -27.5t27.5 -64.5t-28 -65.5t-65 -28.5zM727 1095q-37 0 -64.5 28.5t-27.5 65.5t27.5 64.5t64.5 27.5q38 0 66 -27.5t28 -64.5t-28.5 -65.5t-65.5 -28.5zM600 -17q-204 0 -339.5 143t-135.5 359
q0 217 135.5 360t339.5 143q206 0 342 -143t136 -360t-136 -359.5t-342 -142.5zM600 126q142 0 237 103t95 256t-95 256t-237 103q-141 0 -235.5 -103t-94.5 -256t94.5 -256t235.5 -103z" />
    <glyph glyph-name="divide" unicode="&#xf7;" horiz-adv-x="1184" vert-adv-y="2130" 
d="M591 785q-38 0 -65 27t-27 65t27.5 65.5t64.5 27.5q38 0 66 -28t28 -65q0 -38 -28 -65t-66 -27zM992 674v-145h-799v145h799zM591 255q-38 0 -65 27t-27 66q0 38 27.5 65.5t64.5 27.5q38 0 66 -28t28 -65q0 -39 -28 -66t-66 -27z" />
    <glyph glyph-name="oslash" unicode="&#xf8;" vert-adv-y="2130" 
d="M444 9l-29 -82h-156l54 151q-89 68 -138.5 173.5t-49.5 233.5q0 217 135.5 360t339.5 143q9 0 35 -2l42 120h155l-53 -152q137 -52 218 -178t81 -291q0 -217 -136 -359.5t-342 -142.5q-83 0 -156 26zM366 228l218 615q-136 -5 -225 -106.5t-89 -251.5q0 -156 96 -257z
M600 126q142 0 237 103t95 256q0 115 -55 204t-148 129l-237 -674q51 -18 108 -18z" />
    <glyph glyph-name="ugrave" unicode="&#xf9;" horiz-adv-x="999" vert-adv-y="2130" 
d="M391 1418l310 -250l-95 -110l-305 248zM501 -18q-156 0 -266 108.5t-110 264.5v614h145v-614q0 -95 67 -162.5t163 -67.5q95 0 161.5 67.5t66.5 162.5v614h145v-968h-145v58q-95 -77 -227 -77z" />
    <glyph glyph-name="uacute" unicode="&#xfa;" horiz-adv-x="999" vert-adv-y="2130" 
d="M606 1418l94 -112l-309 -249l-90 112zM501 -18q-156 0 -266 108.5t-110 264.5v614h145v-614q0 -95 67 -162.5t163 -67.5q95 0 161.5 67.5t66.5 162.5v614h145v-968h-145v58q-95 -77 -227 -77z" />
    <glyph glyph-name="ucircumflex" unicode="&#xfb;" horiz-adv-x="999" vert-adv-y="2130" 
d="M680 1079l-179 135l-183 -135l-92 111l275 207l273 -207zM501 -18q-156 0 -266 108.5t-110 264.5v614h145v-614q0 -95 67 -162.5t163 -67.5q95 0 161.5 67.5t66.5 162.5v614h145v-968h-145v58q-95 -77 -227 -77z" />
    <glyph glyph-name="udieresis" unicode="&#xfc;" horiz-adv-x="999" vert-adv-y="2130" 
d="M373 1095q-37 0 -64.5 28.5t-27.5 65.5t27.5 64.5t64.5 27.5q39 0 66 -27t27 -65q0 -37 -27.5 -65.5t-65.5 -28.5zM627 1095q-39 0 -67 28.5t-28 65.5q0 38 28 65t67 27q37 0 64.5 -27.5t27.5 -64.5t-27.5 -65.5t-64.5 -28.5zM501 -18q-156 0 -266 108.5t-110 264.5v614
h145v-614q0 -95 67 -162.5t163 -67.5q95 0 161.5 67.5t66.5 162.5v614h145v-968h-145v58q-95 -77 -227 -77z" />
    <glyph glyph-name="yacute" unicode="&#xfd;" horiz-adv-x="1214" vert-adv-y="2130" 
d="M714 1418l93 -112l-308 -248l-92 111zM1080 970l-651 -1400h-148l252 538l-399 862h160l313 -696l313 696h160z" />
    <glyph glyph-name="ydieresis" unicode="&#xff;" horiz-adv-x="1214" vert-adv-y="2130" 
d="M481 1095q-37 0 -64.5 28.5t-27.5 65.5t27.5 64.5t64.5 27.5q38 0 66 -27.5t28 -64.5t-28 -65.5t-66 -28.5zM733 1095q-38 0 -65 28.5t-27 65.5q0 38 27 65t65 27t65.5 -27.5t27.5 -64.5t-28 -65.5t-65 -28.5zM1080 970l-650 -1400h-149l252 538l-399 862h160l313 -696
l313 696h160z" />
    <glyph glyph-name="Amacron" unicode="&#x100;" horiz-adv-x="1622" vert-adv-y="2130" 
d="M1042 1673v-149h-462v149h462zM485 383l-188 -383h-163l677 1397l677 -1397h-163l-188 383h-652zM1067 540l-257 528l-255 -528h512z" />
    <glyph glyph-name="amacron" unicode="&#x101;" horiz-adv-x="1035" vert-adv-y="2130" 
d="M742 1244v-145h-449v145h449zM521 -17q-165 0 -280.5 92.5t-115.5 222.5q0 136 125 230t303 94h211v24q-9 78 -69 130t-154 52q-95 0 -173.5 -56t-87.5 -157h-146q8 84 46.5 153t96 113t126 67.5t139.5 23.5q171 0 269 -94t98 -254v-624h-145v57q-100 -74 -243 -74z
M517 126q93 0 164.5 50t82.5 119v183h-211q-117 0 -200 -51.5t-83 -126.5q0 -70 73 -122t174 -52z" />
    <glyph glyph-name="Abreve" unicode="&#x102;" horiz-adv-x="1622" vert-adv-y="2130" 
d="M811 1502q-105 0 -182 87.5t-85 214.5h145q6 -66 41 -110.5t81 -44.5t81 44.5t41 110.5h146q-8 -127 -85.5 -214.5t-182.5 -87.5zM485 383l-188 -383h-163l677 1397l677 -1397h-163l-188 383h-652zM1067 540l-257 528l-255 -528h512z" />
    <glyph glyph-name="abreve" unicode="&#x103;" horiz-adv-x="1035" vert-adv-y="2130" 
d="M517 1076q-101 0 -177 85.5t-83 208.5h145q5 -63 38.5 -106t76.5 -43q45 0 78.5 43t38.5 106h144q-8 -123 -83.5 -208.5t-177.5 -85.5zM521 -17q-165 0 -280.5 92.5t-115.5 222.5q0 136 125 230t303 94h211v24q-9 78 -69 130t-154 52q-95 0 -173.5 -56t-87.5 -157h-146
q8 84 46.5 153t96 113t126 67.5t139.5 23.5q171 0 269 -94t98 -254v-624h-145v57q-100 -74 -243 -74zM517 126q93 0 164.5 50t82.5 119v183h-211q-117 0 -200 -51.5t-83 -126.5q0 -70 73 -122t174 -52z" />
    <glyph glyph-name="Cacute" unicode="&#x106;" horiz-adv-x="1611" vert-adv-y="2130" 
d="M907 1853l95 -114l-317 -256l-93 113zM849 -29q-147 0 -281 57t-231 153.5t-154.5 231t-57.5 282.5t57.5 282.5t154.5 231t231 153.5t281 57q185 0 352.5 -96.5t278.5 -267.5l-118 -87q-95 142 -231 223t-282 81q-117 0 -223.5 -45.5t-184 -123t-123 -184t-45.5 -224.5
t45.5 -224.5t123 -184t184 -123t223.5 -45.5q145 0 281.5 81t230.5 223l118 -87q-111 -171 -278 -267.5t-352 -96.5z" />
    <glyph glyph-name="cacute" unicode="&#x107;" horiz-adv-x="1150" vert-adv-y="2130" 
d="M672 1418l93 -112l-308 -248l-91 111zM600 -17q-204 0 -339.5 143t-135.5 359q0 217 135.5 360t339.5 143q121 0 231.5 -65.5t187.5 -184.5l-121 -79q-58 87 -137 136t-161 49q-141 0 -235.5 -103t-94.5 -256t94.5 -256t235.5 -103q82 0 161 49t137 136l121 -79
q-77 -119 -187.5 -184t-231.5 -65z" />
    <glyph glyph-name="Ccircumflex" unicode="&#x108;" horiz-adv-x="1611" vert-adv-y="2130" 
d="M984 1505l-188 140l-187 -140l-94 113l283 212l280 -212zM849 -29q-147 0 -281 57t-231 153.5t-154.5 231t-57.5 282.5t57.5 282.5t154.5 231t231 153.5t281 57q185 0 352.5 -96.5t278.5 -267.5l-118 -87q-95 142 -231 223t-282 81q-117 0 -223.5 -45.5t-184 -123
t-123 -184t-45.5 -224.5t45.5 -224.5t123 -184t184 -123t223.5 -45.5q145 0 281.5 81t230.5 223l118 -87q-111 -171 -278 -267.5t-352 -96.5z" />
    <glyph glyph-name="ccircumflex" unicode="&#x109;" horiz-adv-x="1150" vert-adv-y="2130" 
d="M746 1079l-181 135l-181 -135l-93 111l275 207l273 -207zM600 -17q-204 0 -339.5 143t-135.5 359q0 217 135.5 360t339.5 143q121 0 231.5 -65.5t187.5 -184.5l-121 -79q-58 87 -137 136t-161 49q-141 0 -235.5 -103t-94.5 -256t94.5 -256t235.5 -103q82 0 161 49
t137 136l121 -79q-77 -119 -187.5 -184t-231.5 -65z" />
    <glyph glyph-name="Cdotaccent" unicode="&#x10a;" horiz-adv-x="1611" vert-adv-y="2130" 
d="M796 1552q-38 0 -66 28t-28 67t28 67t66 28q40 0 67.5 -28t27.5 -67t-27.5 -67t-67.5 -28zM849 -29q-147 0 -281 57t-231 153.5t-154.5 231t-57.5 282.5t57.5 282.5t154.5 231t231 153.5t281 57q185 0 352.5 -96.5t278.5 -267.5l-118 -87q-95 142 -231 223t-282 81
q-117 0 -223.5 -45.5t-184 -123t-123 -184t-45.5 -224.5t45.5 -224.5t123 -184t184 -123t223.5 -45.5q145 0 281.5 81t230.5 223l118 -87q-111 -171 -278 -267.5t-352 -96.5z" />
    <glyph glyph-name="cdotaccent" unicode="&#x10b;" horiz-adv-x="1150" vert-adv-y="2130" 
d="M566 1126q-40 0 -67 26.5t-27 65.5q0 38 27.5 65.5t66.5 27.5q37 0 64.5 -27.5t27.5 -65.5q0 -39 -27 -65.5t-65 -26.5zM600 -17q-204 0 -339.5 143t-135.5 359q0 217 135.5 360t339.5 143q121 0 231.5 -65.5t187.5 -184.5l-121 -79q-58 87 -137 136t-161 49
q-141 0 -235.5 -103t-94.5 -256t94.5 -256t235.5 -103q82 0 161 49t137 136l121 -79q-77 -119 -187.5 -184t-231.5 -65z" />
    <glyph glyph-name="Ccaron" unicode="&#x10c;" horiz-adv-x="1611" vert-adv-y="2130" 
d="M984 1818l94 -112l-280 -213l-283 213l94 112l187 -141zM849 -29q-147 0 -281 57t-231 153.5t-154.5 231t-57.5 282.5t57.5 282.5t154.5 231t231 153.5t281 57q185 0 352.5 -96.5t278.5 -267.5l-118 -87q-95 142 -231 223t-282 81q-117 0 -223.5 -45.5t-184 -123
t-123 -184t-45.5 -224.5t45.5 -224.5t123 -184t184 -123t223.5 -45.5q145 0 281.5 81t230.5 223l118 -87q-111 -171 -278 -267.5t-352 -96.5z" />
    <glyph glyph-name="ccaron" unicode="&#x10d;" horiz-adv-x="1150" vert-adv-y="2130" 
d="M746 1385l93 -111l-273 -206l-275 206l93 111l181 -136zM600 -17q-204 0 -339.5 143t-135.5 359q0 217 135.5 360t339.5 143q121 0 231.5 -65.5t187.5 -184.5l-121 -79q-58 87 -137 136t-161 49q-141 0 -235.5 -103t-94.5 -256t94.5 -256t235.5 -103q82 0 161 49t137 136
l121 -79q-77 -119 -187.5 -184t-231.5 -65z" />
    <glyph glyph-name="Emacron" unicode="&#x112;" horiz-adv-x="1313" vert-adv-y="2130" 
d="M888 1673v-149h-463v149h463zM1187 148v-148h-1062v1390h1062v-148h-914v-474h859v-146h-859v-474h914z" />
    <glyph glyph-name="emacron" unicode="&#x113;" vert-adv-y="2130" 
d="M826 1244v-145h-450v145h450zM600 -17q-204 0 -339.5 143t-135.5 359q0 217 135 360t340 143q203 0 337.5 -155t139.5 -385h-806q15 -137 107.5 -229.5t221.5 -92.5q102 0 187 66.5t130 181.5l137 -47q-60 -158 -182 -251t-272 -93zM285 594h631q-30 111 -117 180.5
t-199 69.5t-198 -69.5t-117 -180.5z" />
    <glyph glyph-name="Ebreve" unicode="&#x114;" horiz-adv-x="1313" vert-adv-y="2130" 
d="M658 1502q-105 0 -183 87.5t-86 214.5h146q5 -65 40.5 -110t82.5 -45q45 0 80 45t40 110h146q-8 -127 -85 -214.5t-181 -87.5zM1187 148v-148h-1062v1390h1062v-148h-914v-474h859v-146h-859v-474h914z" />
    <glyph glyph-name="ebreve" unicode="&#x115;" vert-adv-y="2130" 
d="M600 1076q-101 0 -176 85t-84 209h145q4 -63 37.5 -106t77.5 -43q45 0 78.5 42.5t39.5 106.5h144q-8 -123 -84 -208.5t-178 -85.5zM600 -17q-204 0 -339.5 143t-135.5 359q0 217 135 360t340 143q203 0 337.5 -155t139.5 -385h-806q15 -137 107.5 -229.5t221.5 -92.5
q102 0 187 66.5t130 181.5l137 -47q-60 -158 -182 -251t-272 -93zM285 594h631q-30 111 -117 180.5t-199 69.5t-198 -69.5t-117 -180.5z" />
    <glyph glyph-name="Edotaccent" unicode="&#x116;" horiz-adv-x="1313" vert-adv-y="2130" 
d="M658 1552q-40 0 -68 28t-28 67t28 67t68 28q38 0 66 -28t28 -67t-28 -67t-66 -28zM1187 148v-148h-1062v1390h1062v-148h-914v-474h859v-146h-859v-474h914z" />
    <glyph glyph-name="edotaccent" unicode="&#x117;" vert-adv-y="2130" 
d="M600 1126q-38 0 -65 26.5t-27 65.5q0 38 27.5 65.5t64.5 27.5q39 0 66.5 -27.5t27.5 -65.5q0 -39 -27.5 -65.5t-66.5 -26.5zM600 -17q-204 0 -339.5 143t-135.5 359q0 217 135 360t340 143q203 0 337.5 -155t139.5 -385h-806q15 -137 107.5 -229.5t221.5 -92.5
q102 0 187 66.5t130 181.5l137 -47q-60 -158 -182 -251t-272 -93zM285 594h631q-30 111 -117 180.5t-199 69.5t-198 -69.5t-117 -180.5z" />
    <glyph glyph-name="Ecaron" unicode="&#x11a;" horiz-adv-x="1313" vert-adv-y="2130" 
d="M844 1818l95 -112l-281 -213l-284 213l97 112l187 -141zM1187 148v-148h-1062v1390h1062v-148h-914v-474h859v-146h-859v-474h914z" />
    <glyph glyph-name="ecaron" unicode="&#x11b;" vert-adv-y="2130" 
d="M783 1385l92 -111l-275 -206l-272 206l93 111l179 -136zM600 -17q-204 0 -339.5 143t-135.5 359q0 217 135 360t340 143q203 0 337.5 -155t139.5 -385h-806q15 -137 107.5 -229.5t221.5 -92.5q102 0 187 66.5t130 181.5l137 -47q-60 -158 -182 -251t-272 -93zM285 594
h631q-30 111 -117 180.5t-199 69.5t-198 -69.5t-117 -180.5z" />
    <glyph glyph-name="Gcircumflex" unicode="&#x11c;" horiz-adv-x="1606" vert-adv-y="2130" 
d="M984 1505l-188 140l-187 -140l-94 113l283 212l280 -212zM849 -29q-147 0 -281 57t-231 153.5t-154.5 231t-57.5 282.5t57.5 282.5t154.5 231t231 153.5t281 57q185 0 352.5 -96.5t278.5 -267.5l-118 -87q-95 142 -231 223t-282 81q-117 0 -223.5 -45.5t-184 -123
t-123 -184t-45.5 -224.5t45.5 -224.5t123 -184t184 -123t223.5 -45.5q138 0 262 64t207 178v245h-569v147h716l1 -436q-102 -161 -266 -253t-351 -92z" />
    <glyph glyph-name="gcircumflex" unicode="&#x11d;" horiz-adv-x="1141" vert-adv-y="2130" 
d="M756 1079l-182 135l-180 -135l-94 111l274 207l274 -207zM591 -386q-148 0 -261.5 86.5t-169.5 242.5h152q37 -88 110.5 -136t169.5 -48q130 0 209 75.5t79 202.5v74q-126 -131 -310 -131q-190 0 -317.5 143t-127.5 359t127.5 360.5t317.5 144.5q182 0 310 -134v119h144
v-927q0 -196 -117.5 -313.5t-315.5 -117.5zM570 123q132 0 219.5 103t87.5 256q0 154 -87.5 256.5t-219.5 102.5q-131 0 -218 -102.5t-87 -256.5q0 -153 87 -256t218 -103z" />
    <glyph glyph-name="Gbreve" unicode="&#x11e;" horiz-adv-x="1606" vert-adv-y="2130" 
d="M796 1502q-105 0 -182 87.5t-86 214.5h147q6 -66 40.5 -110.5t80.5 -44.5q47 0 82 44.5t41 110.5h146q-8 -127 -85.5 -214.5t-183.5 -87.5zM849 -29q-147 0 -281 57t-231 153.5t-154.5 231t-57.5 282.5t57.5 282.5t154.5 231t231 153.5t281 57q185 0 352.5 -96.5
t278.5 -267.5l-118 -87q-95 142 -231 223t-282 81q-117 0 -223.5 -45.5t-184 -123t-123 -184t-45.5 -224.5t45.5 -224.5t123 -184t184 -123t223.5 -45.5q138 0 262 64t207 178v245h-569v147h716l1 -436q-102 -161 -266 -253t-351 -92z" />
    <glyph glyph-name="gbreve" unicode="&#x11f;" horiz-adv-x="1141" vert-adv-y="2130" 
d="M574 1076q-102 0 -177 85.5t-83 208.5h144q5 -63 38.5 -106t77.5 -43t77.5 43t38.5 106h145q-8 -123 -84 -208.5t-177 -85.5zM591 -386q-148 0 -261.5 86.5t-169.5 242.5h152q37 -88 110.5 -136t169.5 -48q130 0 209 75.5t79 202.5v74q-126 -131 -310 -131
q-190 0 -317.5 143t-127.5 359t127.5 360.5t317.5 144.5q182 0 310 -134v119h144v-927q0 -196 -117.5 -313.5t-315.5 -117.5zM570 123q132 0 219.5 103t87.5 256q0 154 -87.5 256.5t-219.5 102.5q-131 0 -218 -102.5t-87 -256.5q0 -153 87 -256t218 -103z" />
    <glyph glyph-name="Gdotaccent" unicode="&#x120;" horiz-adv-x="1606" vert-adv-y="2130" 
d="M796 1552q-38 0 -66 28t-28 67t28 67t66 28q40 0 67.5 -28t27.5 -67t-27.5 -67t-67.5 -28zM849 -29q-147 0 -281 57t-231 153.5t-154.5 231t-57.5 282.5t57.5 282.5t154.5 231t231 153.5t281 57q185 0 352.5 -96.5t278.5 -267.5l-118 -87q-95 142 -231 223t-282 81
q-117 0 -223.5 -45.5t-184 -123t-123 -184t-45.5 -224.5t45.5 -224.5t123 -184t184 -123t223.5 -45.5q138 0 262 64t207 178v245h-569v147h716l1 -436q-102 -161 -266 -253t-351 -92z" />
    <glyph glyph-name="gdotaccent" unicode="&#x121;" horiz-adv-x="1141" vert-adv-y="2130" 
d="M574 1126q-39 0 -66 26.5t-27 65.5q0 38 27.5 65.5t65.5 27.5t65.5 -27.5t27.5 -65.5q0 -39 -27 -65.5t-66 -26.5zM591 -386q-148 0 -261.5 86.5t-169.5 242.5h152q37 -88 110.5 -136t169.5 -48q130 0 209 75.5t79 202.5v74q-126 -131 -310 -131q-190 0 -317.5 143
t-127.5 359t127.5 360.5t317.5 144.5q182 0 310 -134v119h144v-927q0 -196 -117.5 -313.5t-315.5 -117.5zM570 123q132 0 219.5 103t87.5 256q0 154 -87.5 256.5t-219.5 102.5q-131 0 -218 -102.5t-87 -256.5q0 -153 87 -256t218 -103z" />
    <glyph glyph-name="Itilde" unicode="&#x128;" horiz-adv-x="414" vert-adv-y="2130" 
d="M113 1589l-66 -68l-106 103l71 68q60 60 122 60t124 -59q17 -15 22 -15t20 15l69 68l104 -105l-70 -67q-62 -60 -123 -60t-123 60q-17 13 -22 13t-22 -13zM281 1390v-1390h-149v1390h149z" />
    <glyph glyph-name="itilde" unicode="&#x129;" horiz-adv-x="446" vert-adv-y="2130" 
d="M134 1161l-67 -68l-103 104l68 66q61 58 120 58q60 0 120 -58q17 -13 21 -13q6 0 19 13l66 68l104 -104l-70 -66q-59 -59 -119 -59q-59 0 -120 59q-15 13 -21 13q-5 0 -18 -13zM294 970v-970h-143v970h143z" />
    <glyph glyph-name="Imacron" unicode="&#x12a;" horiz-adv-x="373" vert-adv-y="2130" 
d="M418 1673v-149h-463v149h463zM260 1390v-1390h-149v1390h149z" />
    <glyph glyph-name="imacron" unicode="&#x12b;" horiz-adv-x="406" vert-adv-y="2130" 
d="M428 1244v-145h-450v145h450zM276 970v-970h-145v970h145z" />
    <glyph glyph-name="Idotaccent" unicode="&#x130;" horiz-adv-x="394" vert-adv-y="2130" 
d="M197 1552q-39 0 -67 28t-28 67t28 67t67 28t67 -28t28 -67t-28 -67t-67 -28zM270 1390v-1390h-145v1390h145z" />
    <glyph glyph-name="dotlessi" unicode="&#x131;" horiz-adv-x="441" vert-adv-y="2130" 
d="M293 970v-970h-145v970h145z" />
    <glyph glyph-name="Nacute" unicode="&#x143;" horiz-adv-x="1391" vert-adv-y="2130" 
d="M805 1853l96 -114l-318 -256l-92 113zM1119 1390h148v-1400l-994 1017v-1007h-148v1398l994 -1027v1019z" />
    <glyph glyph-name="nacute" unicode="&#x144;" horiz-adv-x="999" vert-adv-y="2130" 
d="M606 1418l94 -112l-309 -249l-90 112zM271 615v-615h-146v968h145v-58q98 78 230 78q156 0 264.5 -109t108.5 -264v-615h-145v615q0 95 -66.5 162t-160.5 67q-96 0 -163 -67t-67 -162z" />
    <glyph glyph-name="Ncaron" unicode="&#x147;" horiz-adv-x="1391" vert-adv-y="2130" 
d="M882 1818l96 -112l-282 -213l-282 213l96 112l186 -141zM1119 1390h148v-1400l-994 1017v-1007h-148v1398l994 -1027v1019z" />
    <glyph glyph-name="ncaron" unicode="&#x148;" horiz-adv-x="999" vert-adv-y="2130" 
d="M680 1385l94 -111l-273 -206l-275 206l92 111l183 -136zM271 615v-615h-146v968h145v-58q98 78 230 78q156 0 264.5 -109t108.5 -264v-615h-145v615q0 95 -66.5 162t-160.5 67q-96 0 -163 -67t-67 -162z" />
    <glyph glyph-name="Omacron" unicode="&#x14c;" horiz-adv-x="1699" vert-adv-y="2130" 
d="M1081 1673v-149h-462v149h462zM849 -29q-147 0 -281 57t-231 153.5t-154.5 231t-57.5 282.5t57.5 282.5t154.5 231t231 153.5t281 57q148 0 282.5 -57t231.5 -154t154.5 -231t57.5 -282t-57.5 -282t-154.5 -231t-231.5 -154t-282.5 -57zM849 118q118 0 225 45.5
t184.5 123t123 184t45.5 224.5t-45.5 224.5t-123 184t-184.5 123t-225 45.5q-117 0 -223.5 -45.5t-184 -123t-123 -184t-45.5 -224.5t45.5 -224.5t123 -184t184 -123t223.5 -45.5z" />
    <glyph glyph-name="omacron" unicode="&#x14d;" vert-adv-y="2130" 
d="M826 1244v-145h-450v145h450zM600 -17q-204 0 -339.5 143t-135.5 359q0 217 135.5 360t339.5 143q206 0 342 -143t136 -360t-136 -359.5t-342 -142.5zM600 126q142 0 237 103t95 256t-95 256t-237 103q-141 0 -235.5 -103t-94.5 -256t94.5 -256t235.5 -103z" />
    <glyph glyph-name="Obreve" unicode="&#x14e;" horiz-adv-x="1699" vert-adv-y="2130" 
d="M849 1502q-105 0 -182 87.5t-85 214.5h146q5 -65 40 -110t81 -45t81.5 45t40.5 110h147q-9 -127 -86.5 -214.5t-182.5 -87.5zM849 -29q-147 0 -281 57t-231 153.5t-154.5 231t-57.5 282.5t57.5 282.5t154.5 231t231 153.5t281 57q148 0 282.5 -57t231.5 -154t154.5 -231
t57.5 -282t-57.5 -282t-154.5 -231t-231.5 -154t-282.5 -57zM849 118q118 0 225 45.5t184.5 123t123 184t45.5 224.5t-45.5 224.5t-123 184t-184.5 123t-225 45.5q-117 0 -223.5 -45.5t-184 -123t-123 -184t-45.5 -224.5t45.5 -224.5t123 -184t184 -123t223.5 -45.5z" />
    <glyph glyph-name="obreve" unicode="&#x14f;" vert-adv-y="2130" 
d="M600 1076q-101 0 -176 85t-84 209h145q4 -63 37.5 -106t77.5 -43q45 0 78.5 42.5t39.5 106.5h144q-8 -123 -84 -208.5t-178 -85.5zM600 -17q-204 0 -339.5 143t-135.5 359q0 217 135.5 360t339.5 143q206 0 342 -143t136 -360t-136 -359.5t-342 -142.5zM600 126
q142 0 237 103t95 256t-95 256t-237 103q-141 0 -235.5 -103t-94.5 -256t94.5 -256t235.5 -103z" />
    <glyph glyph-name="Ohungarumlaut" unicode="&#x150;" horiz-adv-x="1699" vert-adv-y="2130" 
d="M770 1929l122 -77l-232 -336l-124 81zM1040 1929l124 -77l-233 -336l-124 81zM849 -29q-147 0 -281 57t-231 153.5t-154.5 231t-57.5 282.5t57.5 282.5t154.5 231t231 153.5t281 57q148 0 282.5 -57t231.5 -154t154.5 -231t57.5 -282t-57.5 -282t-154.5 -231t-231.5 -154
t-282.5 -57zM849 118q118 0 225 45.5t184.5 123t123 184t45.5 224.5t-45.5 224.5t-123 184t-184.5 123t-225 45.5q-117 0 -223.5 -45.5t-184 -123t-123 -184t-45.5 -224.5t45.5 -224.5t123 -184t184 -123t223.5 -45.5z" />
    <glyph glyph-name="ohungarumlaut" unicode="&#x151;" vert-adv-y="2130" 
d="M521 1493l124 -75l-228 -329l-120 80zM784 1493l123 -75l-228 -329l-120 80zM600 -17q-204 0 -339.5 143t-135.5 359q0 217 135.5 360t339.5 143q206 0 342 -143t136 -360t-136 -359.5t-342 -142.5zM600 126q142 0 237 103t95 256t-95 256t-237 103q-141 0 -235.5 -103
t-94.5 -256t94.5 -256t235.5 -103z" />
    <glyph glyph-name="OE" unicode="&#x152;" horiz-adv-x="2613" vert-adv-y="2130" 
d="M849 -29q-147 0 -281 57t-231 153.5t-154.5 231t-57.5 282.5t57.5 282.5t154.5 231t231 153.5t281 57q175 0 326 -75.5t251 -208.5v255h1062v-148h-914v-474h859v-146h-859v-474h914v-148h-1062v255q-100 -133 -251 -208.5t-326 -75.5zM849 118q107 0 208.5 45t177 120.5
t126.5 174.5t65 205v64q-14 106 -65 205t-126.5 174.5t-177 120.5t-208.5 45q-117 0 -223.5 -45.5t-184 -123t-123 -184t-45.5 -224.5t45.5 -224.5t123 -184t184 -123t223.5 -45.5z" />
    <glyph glyph-name="oe" unicode="&#x153;" horiz-adv-x="2009" vert-adv-y="2130" 
d="M1409 126q102 0 187 66.5t130 181.5l137 -47q-60 -158 -182 -251t-272 -93q-130 0 -236.5 61.5t-168.5 168.5v-3q-61 -109 -166 -168t-238 -59q-204 0 -339.5 143t-135.5 359q0 217 135.5 360t339.5 143q133 0 238 -59.5t166 -168.5v-3q62 108 168.5 169.5t236.5 61.5
q203 0 337.5 -155t139.5 -385h-806q15 -137 107.5 -229.5t221.5 -92.5zM929 465l1 49q-10 134 -106 232t-224 98q-141 0 -235.5 -103t-94.5 -256t94.5 -256t235.5 -103q129 0 222.5 100.5t106.5 238.5zM1409 844q-112 0 -198 -69.5t-117 -180.5h631q-30 111 -117 180.5
t-199 69.5z" />
    <glyph glyph-name="Racute" unicode="&#x154;" horiz-adv-x="1415" vert-adv-y="2130" 
d="M810 1853l95 -114l-317 -256l-93 113zM273 472v-472h-148v1390h691q191 0 325 -134t134 -325q0 -154 -88.5 -274.5t-232.5 -162.5l337 -494h-179l-322 472h-517zM816 1242h-543v-621h571q117 19 201 108t84 202q0 129 -92 220t-221 91z" />
    <glyph glyph-name="racute" unicode="&#x155;" horiz-adv-x="740" vert-adv-y="2130" 
d="M479 1418l91 -112l-308 -249l-91 112zM271 615v-615h-146v968h145v-58q98 78 230 78q36 0 116 -16v-151q-88 23 -115 23q-96 0 -163 -67t-67 -162z" />
    <glyph glyph-name="Rcaron" unicode="&#x158;" horiz-adv-x="1415" vert-adv-y="2130" 
d="M887 1818l96 -112l-282 -213l-283 213l97 112l186 -141zM273 472v-472h-148v1390h691q191 0 325 -134t134 -325q0 -154 -88.5 -274.5t-232.5 -162.5l337 -494h-179l-322 472h-517zM816 1242h-543v-621h571q117 19 201 108t84 202q0 129 -92 220t-221 91z" />
    <glyph glyph-name="rcaron" unicode="&#x159;" horiz-adv-x="798" vert-adv-y="2130" 
d="M580 1386l92 -112l-273 -206l-274 206l93 111l181 -136zM300 615v-615h-147v968h146v-58q98 78 228 78q35 0 117 -16v-151q-86 23 -116 23q-96 0 -162 -67t-66 -162z" />
    <glyph glyph-name="Sacute" unicode="&#x15a;" horiz-adv-x="1392" vert-adv-y="2130" 
d="M808 1853l96 -114l-318 -256l-92 113zM706 -29q-238 0 -403 127.5t-178 318.5h152q9 -128 131 -213.5t297 -85.5t293 74t118 187q0 200 -422 264q-527 79 -527 388q0 167 150.5 277.5t373.5 110.5q220 0 374 -121.5t167 -303.5h-150q-11 120 -121.5 199t-268.5 79
q-160 0 -267 -68t-107 -172q0 -92 99 -154.5t287 -88.5q279 -41 421.5 -144t142.5 -265q0 -117 -74 -210.5t-202.5 -146t-285.5 -52.5z" />
    <glyph glyph-name="sacute" unicode="&#x15b;" horiz-adv-x="1073" vert-adv-y="2130" 
d="M645 1418l94 -112l-309 -248l-91 111zM541 -17q-173 0 -289 93t-127 238h145q6 -61 50 -105t101.5 -63.5t119.5 -19.5t119.5 15.5t99.5 52.5t42 87q0 21 -9.5 39t-32 32t-42 24t-58 21t-61 16.5t-67.5 15.5q-72 15 -119 27.5t-101 35t-85 49t-52 67.5t-21 93
q0 129 108.5 208t275.5 79q159 0 268.5 -89.5t120.5 -227.5h-146q-7 75 -74.5 124t-163.5 49q-60 0 -113 -14t-90.5 -47t-37.5 -79q0 -24 14 -43.5t33 -31.5t56.5 -24t64 -18t76.5 -16q74 -15 123.5 -27.5t107 -36t91.5 -51.5t57 -72t23 -100q0 -134 -115 -217.5t-292 -83.5
z" />
    <glyph glyph-name="Scircumflex" unicode="&#x15c;" horiz-adv-x="1392" vert-adv-y="2130" 
d="M885 1505l-186 139l-186 -139l-97 112l283 213l281 -213zM706 -29q-238 0 -403 127.5t-178 318.5h152q9 -128 131 -213.5t297 -85.5t293 74t118 187q0 200 -422 264q-527 79 -527 388q0 167 150.5 277.5t373.5 110.5q220 0 374 -121.5t167 -303.5h-150
q-11 120 -121.5 199t-268.5 79q-160 0 -267 -68t-107 -172q0 -92 99 -154.5t287 -88.5q279 -41 421.5 -144t142.5 -265q0 -117 -74 -210.5t-202.5 -146t-285.5 -52.5z" />
    <glyph glyph-name="scircumflex" unicode="&#x15d;" horiz-adv-x="1073" vert-adv-y="2130" 
d="M719 1079l-180 135l-182 -135l-93 111l276 207l272 -207zM541 -17q-173 0 -289 93t-127 238h145q6 -61 50 -105t101.5 -63.5t119.5 -19.5t119.5 15.5t99.5 52.5t42 87q0 21 -9.5 39t-32 32t-42 24t-58 21t-61 16.5t-67.5 15.5q-72 15 -119 27.5t-101 35t-85 49t-52 67.5
t-21 93q0 129 108.5 208t275.5 79q159 0 268.5 -89.5t120.5 -227.5h-146q-7 75 -74.5 124t-163.5 49q-60 0 -113 -14t-90.5 -47t-37.5 -79q0 -24 14 -43.5t33 -31.5t56.5 -24t64 -18t76.5 -16q74 -15 123.5 -27.5t107 -36t91.5 -51.5t57 -72t23 -100q0 -134 -115 -217.5
t-292 -83.5z" />
    <glyph glyph-name="Scedilla" unicode="&#x15e;" horiz-adv-x="1392" vert-adv-y="2130" 
d="M588 -395v121q36 -4 66.5 12.5t43.5 45.5h-110v196q-195 31 -323.5 151t-139.5 286h152q9 -128 131 -213.5t297 -85.5t293 74t118 187q0 200 -422 264q-527 79 -527 388q0 167 150.5 277.5t373.5 110.5q220 0 374 -121.5t167 -303.5h-150q-11 120 -121.5 199t-268.5 79
q-160 0 -267 -68t-107 -172q0 -92 99 -154.5t287 -88.5q279 -41 421.5 -144t142.5 -265q0 -117 -73.5 -210.5t-202 -146t-285.5 -52.5v-68h118v-89q0 -89 -69.5 -150t-167.5 -59z" />
    <glyph glyph-name="scedilla" unicode="&#x15f;" horiz-adv-x="1073" vert-adv-y="2130" 
d="M424 -368v121q36 -4 66.5 12.5t43.5 45.5h-110v185q-128 29 -209 114.5t-90 203.5h145q6 -61 50 -105t101.5 -63.5t119.5 -19.5t119.5 15.5t99.5 52.5t42 87q0 21 -9.5 39t-32 32t-42 24t-58 21t-61 16.5t-67.5 15.5q-72 15 -119 27.5t-101 35t-85 49t-52 67.5t-21 93
q0 129 108.5 208t275.5 79q159 0 268.5 -89.5t120.5 -227.5h-146q-7 75 -74.5 124t-163.5 49q-60 0 -113 -14t-90.5 -47t-37.5 -79q0 -24 14 -43.5t33 -31.5t56.5 -24t64 -18t76.5 -16q74 -15 123.5 -27.5t107 -36t91.5 -51.5t57 -72t23 -100q0 -133 -114.5 -216.5
t-290.5 -84.5v-53h118v-89q0 -89 -69.5 -150t-167.5 -59z" />
    <glyph glyph-name="Scaron" unicode="&#x160;" horiz-adv-x="1392" vert-adv-y="2130" 
d="M885 1818l95 -112l-281 -213l-283 213l97 112l186 -141zM706 -29q-238 0 -403 127.5t-178 318.5h152q9 -128 131 -213.5t297 -85.5t293 74t118 187q0 200 -422 264q-527 79 -527 388q0 167 150.5 277.5t373.5 110.5q220 0 374 -121.5t167 -303.5h-150q-11 120 -121.5 199
t-268.5 79q-160 0 -267 -68t-107 -172q0 -92 99 -154.5t287 -88.5q279 -41 421.5 -144t142.5 -265q0 -117 -74 -210.5t-202.5 -146t-285.5 -52.5z" />
    <glyph glyph-name="scaron" unicode="&#x161;" horiz-adv-x="1073" vert-adv-y="2130" 
d="M719 1385l93 -111l-272 -206l-276 206l93 111l182 -136zM541 -17q-173 0 -289 93t-127 238h145q6 -61 50 -105t101.5 -63.5t119.5 -19.5t119.5 15.5t99.5 52.5t42 87q0 21 -9.5 39t-32 32t-42 24t-58 21t-61 16.5t-67.5 15.5q-72 15 -119 27.5t-101 35t-85 49t-52 67.5
t-21 93q0 129 108.5 208t275.5 79q159 0 268.5 -89.5t120.5 -227.5h-146q-7 75 -74.5 124t-163.5 49q-60 0 -113 -14t-90.5 -47t-37.5 -79q0 -24 14 -43.5t33 -31.5t56.5 -24t64 -18t76.5 -16q74 -15 123.5 -27.5t107 -36t91.5 -51.5t57 -72t23 -100q0 -134 -115 -217.5
t-292 -83.5z" />
    <glyph glyph-name="Utilde" unicode="&#x168;" horiz-adv-x="1391" vert-adv-y="2130" 
d="M602 1589l-66 -68l-107 103l70 68q62 60 123 60q63 0 125 -59q17 -15 21 -15t21 15l68 68l105 -105l-71 -67q-62 -60 -122 -60q-62 0 -124 60q-15 13 -22 13q-6 0 -21 -13zM696 -29q-155 0 -286.5 76t-208 207.5t-76.5 286.5v849h148v-849q0 -175 124 -299t299 -124
t299 124t124 299v849h148v-849q0 -116 -45.5 -221.5t-122 -182t-182 -121.5t-221.5 -45z" />
    <glyph glyph-name="utilde" unicode="&#x169;" horiz-adv-x="999" vert-adv-y="2130" 
d="M410 1161l-66 -68l-103 104l69 66q60 58 120 58q57 0 120 -58q13 -13 19 -13q5 0 20 13l65 68l105 -104l-69 -66q-61 -59 -120 -59q-58 0 -120 59q-17 13 -20 13q-5 0 -20 -13zM501 -18q-156 0 -266 108.5t-110 264.5v614h145v-614q0 -95 67 -162.5t163 -67.5
q95 0 161.5 67.5t66.5 162.5v614h145v-968h-145v58q-95 -77 -227 -77z" />
    <glyph glyph-name="Umacron" unicode="&#x16a;" horiz-adv-x="1391" vert-adv-y="2130" 
d="M927 1673v-149h-463v149h463zM696 -29q-155 0 -286.5 76t-208 207.5t-76.5 286.5v849h148v-849q0 -175 124 -299t299 -124t299 124t124 299v849h148v-849q0 -116 -45.5 -221.5t-122 -182t-182 -121.5t-221.5 -45z" />
    <glyph glyph-name="umacron" unicode="&#x16b;" horiz-adv-x="999" vert-adv-y="2130" 
d="M724 1244v-145h-449v145h449zM501 -18q-156 0 -266 108.5t-110 264.5v614h145v-614q0 -95 67 -162.5t163 -67.5q95 0 161.5 67.5t66.5 162.5v614h145v-968h-145v58q-95 -77 -227 -77z" />
    <glyph glyph-name="Ubreve" unicode="&#x16c;" horiz-adv-x="1391" vert-adv-y="2130" 
d="M696 1502q-104 0 -182 87.5t-87 214.5h148q5 -66 40 -110.5t81 -44.5t81 45t41 110h146q-8 -127 -85.5 -214.5t-182.5 -87.5zM696 -29q-155 0 -286.5 76t-208 207.5t-76.5 286.5v849h148v-849q0 -175 124 -299t299 -124t299 124t124 299v849h148v-849
q0 -116 -45.5 -221.5t-122 -182t-182 -121.5t-221.5 -45z" />
    <glyph glyph-name="ubreve" unicode="&#x16d;" horiz-adv-x="999" vert-adv-y="2130" 
d="M501 1076q-102 0 -178 85.5t-84 208.5h144q5 -63 39 -106t79 -43q44 0 77 43t37 106h145q-8 -123 -83.5 -208.5t-175.5 -85.5zM501 -18q-156 0 -266 108.5t-110 264.5v614h145v-614q0 -95 67 -162.5t163 -67.5q95 0 161.5 67.5t66.5 162.5v614h145v-968h-145v58
q-95 -77 -227 -77z" />
    <glyph glyph-name="Uring" unicode="&#x16e;" horiz-adv-x="1391" vert-adv-y="2130" 
d="M694 1497q-74 0 -127 53t-53 127t53 126.5t127 52.5t126.5 -52.5t52.5 -126.5t-52.5 -127t-126.5 -53zM694 1617q25 0 42 17.5t17 42.5t-17 42.5t-42 17.5t-42.5 -17.5t-17.5 -42.5t17.5 -42.5t42.5 -17.5zM696 -29q-155 0 -286.5 76t-208 207.5t-76.5 286.5v849h148
v-849q0 -175 124 -299t299 -124t299 124t124 299v849h148v-849q0 -116 -45.5 -221.5t-122 -182t-182 -121.5t-221.5 -45z" />
    <glyph glyph-name="uring" unicode="&#x16f;" horiz-adv-x="999" vert-adv-y="2130" 
d="M500 1066q-74 0 -127 53t-53 127t53 126.5t127 52.5t126.5 -52.5t52.5 -126.5t-52.5 -127t-126.5 -53zM500 1186q25 0 42 17.5t17 42.5t-17 42.5t-42 17.5t-42.5 -17.5t-17.5 -42.5t17.5 -42.5t42.5 -17.5zM501 -18q-156 0 -266 108.5t-110 264.5v614h145v-614
q0 -95 67 -162.5t163 -67.5q95 0 161.5 67.5t66.5 162.5v614h145v-968h-145v58q-95 -77 -227 -77z" />
    <glyph glyph-name="Uhungarumlaut" unicode="&#x170;" horiz-adv-x="1391" vert-adv-y="2130" 
d="M614 1929l125 -77l-234 -336l-123 81zM885 1929l124 -77l-234 -336l-121 81zM696 -29q-155 0 -286.5 76t-208 207.5t-76.5 286.5v849h148v-849q0 -175 124 -299t299 -124t299 124t124 299v849h148v-849q0 -116 -45.5 -221.5t-122 -182t-182 -121.5t-221.5 -45z" />
    <glyph glyph-name="uhungarumlaut" unicode="&#x171;" horiz-adv-x="999" vert-adv-y="2130" 
d="M422 1493l120 -76l-226 -328l-121 80zM683 1493l121 -76l-227 -328l-120 80zM501 -18q-156 0 -266 108.5t-110 264.5v614h145v-614q0 -95 67 -162.5t163 -67.5q95 0 161.5 67.5t66.5 162.5v614h145v-968h-145v58q-95 -77 -227 -77z" />
    <glyph glyph-name="Wcircumflex" unicode="&#x174;" horiz-adv-x="2225" vert-adv-y="2130" 
d="M1301 1505l-189 140l-187 -140l-93 113l280 212l283 -212zM1551 0l-439 1136l-439 -1136l-539 1388h155l384 -984l383 984h112l383 -984l386 984h154z" />
    <glyph glyph-name="wcircumflex" unicode="&#x175;" horiz-adv-x="1556" vert-adv-y="2130" 
d="M959 1079l-181 135l-181 -135l-92 111l272 207l275 -207zM1059 0l-280 743l-280 -743l-368 970h145l223 -593l225 593h109l226 -593l221 593h146z" />
    <glyph glyph-name="Ycircumflex" unicode="&#x176;" horiz-adv-x="1560" vert-adv-y="2130" 
d="M997 1505l-187 140l-187 -140l-94 113l281 212l281 -212zM884 538v-538h-148v538l-597 852h182l489 -705l490 705h182z" />
    <glyph glyph-name="ycircumflex" unicode="&#x177;" horiz-adv-x="1214" vert-adv-y="2130" 
d="M788 1079l-181 135l-180 -135l-95 111l275 207l274 -207zM1080 970l-650 -1400h-149l252 538l-399 862h160l313 -696l313 696h160z" />
    <glyph glyph-name="Ydieresis" unicode="&#x178;" horiz-adv-x="1560" vert-adv-y="2130" 
d="M680 1522q-38 0 -66.5 28t-28.5 66q0 39 28.5 67.5t66.5 28.5q39 0 67 -28.5t28 -67.5q0 -38 -28 -66t-67 -28zM940 1522q-38 0 -66.5 28t-28.5 66q0 39 28.5 67.5t66.5 28.5q40 0 68 -28.5t28 -67.5q0 -38 -28 -66t-68 -28zM884 538v-538h-148v538l-597 852h182
l489 -705l490 705h182z" />
    <glyph glyph-name="Zacute" unicode="&#x179;" horiz-adv-x="1631" vert-adv-y="2130" 
d="M926 1853l94 -114l-317 -256l-92 113zM1386 148v-148h-1244l1032 1242h-911v148h1226l-1033 -1242h930z" />
    <glyph glyph-name="zacute" unicode="&#x17a;" horiz-adv-x="1034" vert-adv-y="2130" 
d="M625 1418l91 -112l-308 -249l-91 112zM908 145v-145h-783v121l579 704h-543v145h747v-120l-578 -705h578z" />
    <glyph glyph-name="Zdotaccent" unicode="&#x17b;" horiz-adv-x="1631" vert-adv-y="2130" 
d="M815 1552q-38 0 -66 28t-28 67t28 67t66 28q39 0 67 -28t28 -67t-28 -67t-67 -28zM1386 148v-148h-1244l1032 1242h-911v148h1226l-1033 -1242h930z" />
    <glyph glyph-name="zdotaccent" unicode="&#x17c;" horiz-adv-x="1034" vert-adv-y="2130" 
d="M516 1126q-38 0 -65 26.5t-27 65.5q0 38 27.5 65.5t64.5 27.5q39 0 66.5 -27.5t27.5 -65.5q0 -39 -27.5 -65.5t-66.5 -26.5zM908 145v-145h-783v121l579 704h-543v145h747v-120l-578 -705h578z" />
    <glyph glyph-name="Zcaron" unicode="&#x17d;" horiz-adv-x="1631" vert-adv-y="2130" 
d="M1001 1818l97 -112l-283 -213l-281 213l95 112l186 -141zM1386 148v-148h-1244l1032 1242h-911v148h1226l-1033 -1242h930z" />
    <glyph glyph-name="zcaron" unicode="&#x17e;" horiz-adv-x="1034" vert-adv-y="2130" 
d="M699 1385l92 -111l-275 -206l-273 206l93 111l180 -136zM908 145v-145h-783v121l579 704h-543v145h747v-120l-578 -705h578z" />
    <glyph glyph-name="circumflex" unicode="&#x2c6;" horiz-adv-x="1050" vert-adv-y="2130" 
d="M706 1079l-181 136l-181 -136l-93 110l274 207l274 -207z" />
    <glyph glyph-name="caron" unicode="&#x2c7;" horiz-adv-x="1050" vert-adv-y="2130" 
d="M706 1385l93 -110l-274 -208l-274 208l93 110l181 -137z" />
    <glyph glyph-name="breve" unicode="&#x2d8;" horiz-adv-x="1011" vert-adv-y="2130" 
d="M506 1077q-102 0 -177.5 85t-83.5 208h144q5 -63 39 -106t78 -43t77.5 43t38.5 106h144q-8 -123 -83.5 -208t-176.5 -85z" />
    <glyph glyph-name="dotaccent" unicode="&#x2d9;" horiz-adv-x="490" vert-adv-y="2130" 
d="M245 1125q-37 0 -65 27.5t-28 65.5t28 65.5t65 27.5t65 -27.5t28 -65.5t-28 -65.5t-65 -27.5z" />
    <glyph glyph-name="ring" unicode="&#x2da;" horiz-adv-x="850" vert-adv-y="2130" 
d="M425 1067q-74 0 -127 53t-53 127t53 126.5t127 52.5t126.5 -52.5t52.5 -126.5t-52.5 -127t-126.5 -53zM425 1187q25 0 42 17.5t17 42.5t-17 42.5t-42 17.5t-42.5 -17.5t-17.5 -42.5t17.5 -42.5t42.5 -17.5z" />
    <glyph glyph-name="tilde" unicode="&#x2dc;" horiz-adv-x="1019" vert-adv-y="2130" 
d="M420 1161l-66 -68l-103 103l69 67q56 56 119 58q59 -1 121 -58q16 -14 20 -14q5 0 19 14l66 68l103 -104l-68 -66q-58 -58 -120 -58q-60 0 -120 57q-14 14 -20 14q-5 0 -20 -13z" />
    <glyph glyph-name="hungarumlaut" unicode="&#x2dd;" horiz-adv-x="951" vert-adv-y="2130" 
d="M397 1493l122 -77l-228 -327l-120 80zM659 1493l121 -77l-227 -327l-120 80z" />
    <glyph glyph-name="Wgrave" unicode="&#x1e80;" horiz-adv-x="2225" vert-adv-y="2130" 
d="M1002 1853l317 -257l-95 -113l-316 255zM1551 0l-439 1136l-439 -1136l-539 1388h155l384 -984l383 984h112l383 -984l386 984h154z" />
    <glyph glyph-name="wgrave" unicode="&#x1e81;" horiz-adv-x="1556" vert-adv-y="2130" 
d="M670 1418l308 -249l-93 -111l-306 248zM1059 0l-280 743l-280 -743l-368 970h145l223 -593l225 593h109l226 -593l221 593h146z" />
    <glyph glyph-name="Wacute" unicode="&#x1e82;" horiz-adv-x="2224" vert-adv-y="2130" 
d="M1191 1853l96 -115l-319 -255l-91 113zM1551 0l-439 1136l-439 -1136l-539 1388h155l384 -984l383 984h112l383 -984l386 984h154z" />
    <glyph glyph-name="wacute" unicode="&#x1e83;" horiz-adv-x="1556" vert-adv-y="2130" 
d="M885 1418l93 -112l-308 -248l-91 111zM1059 0l-280 743l-280 -743l-368 970h145l223 -593l225 593h109l226 -593l221 593h146z" />
    <glyph glyph-name="Wdieresis" unicode="&#x1e84;" horiz-adv-x="2225" vert-adv-y="2130" 
d="M988 1522q-38 0 -66.5 28t-28.5 66q0 39 28.5 67.5t66.5 28.5q40 0 68 -28.5t28 -67.5q0 -38 -28 -66t-68 -28zM1249 1522q-38 0 -66.5 28t-28.5 66q0 39 28.5 67.5t66.5 28.5q39 0 67 -28.5t28 -67.5q0 -38 -28 -66t-67 -28zM1551 0l-439 1136l-439 -1136l-539 1388h155
l384 -984l383 984h112l383 -984l386 984h154z" />
    <glyph glyph-name="wdieresis" unicode="&#x1e85;" horiz-adv-x="1556" vert-adv-y="2130" 
d="M653 1095q-38 0 -66 28.5t-28 65.5q0 38 27.5 65t66.5 27q38 0 65 -27t27 -65q0 -37 -27 -65.5t-65 -28.5zM904 1095q-37 0 -65 28.5t-28 65.5t28 64.5t65 27.5q38 0 66 -27.5t28 -64.5t-28.5 -65.5t-65.5 -28.5zM1059 0l-280 743l-280 -743l-368 970h145l223 -593
l225 593h109l226 -593l221 593h146z" />
    <glyph glyph-name="endash" unicode="&#x2013;" horiz-adv-x="1152" vert-adv-y="2130" 
d="M976 602v-145h-799v145h799z" />
    <glyph glyph-name="emdash" unicode="&#x2014;" horiz-adv-x="1690" vert-adv-y="2130" 
d="M1513 602v-145h-1336v145h1336z" />
    <glyph glyph-name="quoteleft" unicode="&#x2018;" horiz-adv-x="544" vert-adv-y="2130" 
d="M350 1347l91 -305h-150l-122 305h181z" />
    <glyph glyph-name="quoteright" unicode="&#x2019;" horiz-adv-x="528" vert-adv-y="2130" 
d="M381 1347l-121 -305h-151l91 305h181z" />
    <glyph glyph-name="quotesinglbase" unicode="&#x201a;" horiz-adv-x="552" vert-adv-y="2130" 
d="M381 324l-121 -304h-151l91 304h181z" />
    <glyph glyph-name="quotedblleft" unicode="&#x201c;" horiz-adv-x="708" vert-adv-y="2130" 
d="M248 1355l116 -295h-167l-88 295h139zM436 1355l116 -295h-167l-88 295h139z" />
    <glyph glyph-name="quotedblright" unicode="&#x201d;" horiz-adv-x="692" vert-adv-y="2130" 
d="M364 1352l-116 -295h-139l88 295h167zM552 1352l-116 -295h-139l88 295h167z" />
    <glyph glyph-name="quotedblbase" unicode="&#x201e;" horiz-adv-x="718" vert-adv-y="2130" 
d="M364 317l-116 -295h-139l88 295h167zM552 317l-116 -295h-139l88 295h167z" />
    <glyph glyph-name="dagger" unicode="&#x2020;" horiz-adv-x="829" vert-adv-y="2130" 
d="M487 969v-431h-145v431h-183v145h183v233h145v-233h183v-145h-183z" />
    <glyph glyph-name="daggerdbl" unicode="&#x2021;" horiz-adv-x="837" vert-adv-y="2130" 
d="M491 233v-233h-145v233h-183v145h183v591h-183v145h183v233h145v-233h183v-145h-183v-591h183v-145h-183z" />
    <glyph glyph-name="bullet" unicode="&#x2022;" horiz-adv-x="762" vert-adv-y="2130" 
d="M381 529q-60 0 -102 42t-42 103q0 59 42 101t102 42t102.5 -42t42.5 -101q0 -61 -42.5 -103t-102.5 -42z" />
    <glyph glyph-name="ellipsis" unicode="&#x2026;" horiz-adv-x="1081" vert-adv-y="2130" 
d="M253 0q-38 0 -66 28t-28 66q0 37 28 64t66 27q37 0 64 -26.5t27 -64.5t-27 -66t-64 -28zM540 0q-39 0 -66 27.5t-27 66.5q0 38 27 64.5t66 26.5q38 0 65.5 -27t27.5 -64q0 -38 -27.5 -66t-65.5 -28zM824 0q-37 0 -64.5 28t-27.5 66q0 37 27 64t65 27t65.5 -27t27.5 -64
q0 -38 -27.5 -66t-65.5 -28z" />
    <glyph glyph-name="guilsinglleft" unicode="&#x2039;" horiz-adv-x="823" vert-adv-y="2130" 
d="M343 493l314 -313l-104 -102l-414 415l414 414l104 -103z" />
    <glyph glyph-name="guilsinglright" unicode="&#x203a;" horiz-adv-x="822" vert-adv-y="2130" 
d="M270 907l415 -414l-416 -415l-102 102l312 313l-312 311z" />
    <glyph glyph-name="fraction" unicode="&#x2044;" horiz-adv-x="1494" vert-adv-y="2130" 
d="M1348 1371l96 -96l-1298 -1300l-97 97z" />
    <glyph glyph-name="Euro" unicode="&#x20ac;" horiz-adv-x="1384" vert-adv-y="1700" 
d="M784 -29q-190 0 -330 120.5t-200 329.5h-117v146h90q-6 51 -6 107q0 53 6 107h-90v145h117q58 213 199 331.5t332 118.5q255 0 444 -241l-105 -101q-154 197 -340 197q-130 0 -230.5 -80.5t-150.5 -224.5h533v-145h-564q-5 -58 -5 -107q0 -59 6 -107h563v-146h-533
q50 -143 150.5 -223.5t230.5 -80.5q187 0 340 196l105 -100q-192 -242 -445 -242z" />
    <glyph glyph-name="trademark" unicode="&#x2122;" horiz-adv-x="1277" vert-adv-y="2130" 
d="M844 958l1 164l-130 -168l-130 168v-164h-113v313h-91v-313h-117v313h-147v109h432l166 -229l166 237h77v-430h-114z" />
    <glyph glyph-name="minus" unicode="&#x2212;" horiz-adv-x="1148" vert-adv-y="2130" 
d="M955 692v-145h-762v145h762z" />
    <glyph glyph-name="uniF8FF" unicode="&#xf8ff;" horiz-adv-x="1980" vert-adv-y="2130" 
d="M1860 1615v-1869h-1740v1869h1740zM1266 1384h-890v-1194h203v344h687v183h-687v491h687v176zM1398 375h-685v-185h888v1194h-203v-334h-685v-190h685v-485zM559 -2q30 0 50.5 19.5t20.5 49.5t-20.5 49.5t-50.5 19.5t-51 -19.5t-21 -49.5t21 -49.5t51 -19.5zM1095 -2
q22 0 37.5 11t15.5 30q0 14 -6 22q-4 6 -15 13q-9 5 -24 8q-25 5 -25 16q0 9 14 9q17 0 43 -14l13 28q-28 15 -53 15q-22 0 -37.5 -10.5t-15.5 -31.5q0 -13 6 -20q3 -6 15 -12l24 -8l9 -3q8 -3 13 -5q3 -3 3 -8q0 -6 -6 -8q-6 -3 -11 -3q-27 0 -48 21l-14 -28q27 -22 62 -22
zM1402 -2q29 0 56 25l-21 21q-15 -15 -32 -15q-21 0 -31 19q-5 6 -5 16q0 20 10 31t25 11q22 0 33 -18l20 25q-20 23 -52 23q-31 0 -51.5 -19.5t-20.5 -49.5q0 -29 20 -49t49 -20zM480 134h-99v-134h35v48h58v28h-58v30h64v28zM678 134h-31v-134h33v80l60 -80h29v134h-32
l1 -81zM785 105h39v-105h33v105h41v29h-113v-29zM976 134h-35l-56 -134h34l10 23h57l9 -23h37zM1154 105h39v-105h35v105h40v29h-114v-29zM1316 134h-34v-134h34v134zM1550 134h-36l-57 -134h36l8 23h59l8 -23h37zM559 28q-16 0 -26 11.5t-10 27.5t10 27.5t26 11.5
q23 0 31 -20q4 -10 4 -19q0 -16 -10 -27.5t-25 -11.5zM959 98l17 -48h-37zM1530 98l19 -48h-37zM671 -342v-69h-23v69h-13v12l13 6v6q0 15 7 22q7 6 23 6q13 0 22 -3l-6 -18q-4 2 -13 2q-5 0 -7 -3q-3 -2 -3 -7v-5h21v-18h-21zM1233 -314q-12 0 -12 12t12 12q13 0 13 -12
q0 -6 -3 -9t-10 -3zM938 -412q-14 0 -21 6q-6 8 -6 22v42h-11v10l12 8l7 19h16v-19h24v-18h-24v-42q0 -3 2 -7q4 -2 8 -2q3 0 15 2v-18q-9 -3 -22 -3zM1183 -412q-15 0 -21 6q-7 7 -7 22v42h-12v10l14 8l7 19h14v-19h25v-18h-25v-42q0 -4 4 -7q4 -2 7 -2t15 2v-18
q-9 -3 -21 -3zM998 -412q-12 0 -19 6q-8 8 -8 21q0 14 11 21q8 6 29 7h14v4q0 13 -13 13q-10 0 -24 -6l-8 16q16 8 33 8q16 0 27 -8q9 -8 9 -23v-58h-17l-4 11h-1q-8 -8 -12 -10t-17 -2zM1373 -412q-13 0 -20 6q-7 7 -7 21t10 21q8 5 29 7h15v4q0 13 -13 13q-11 0 -25 -6
l-8 16q16 8 34 8q15 0 26 -8q9 -8 9 -23v-58h-17l-4 11h-1q-5 -7 -11 -10q-4 -2 -17 -2zM742 -412q-13 0 -22 5q-9 4 -15 16q-5 12 -5 23q0 20 11 34q11 11 31 11q14 0 22 -5q10 -4 16 -16q5 -10 5 -24q0 -20 -12 -33q-10 -11 -31 -11zM827 -371v-40h-24v87h19l3 -11h1
q5 7 12 9q6 3 15 3q16 0 23 -8q8 -8 8 -23v-57h-24v51q0 10 -3 14t-11 4q-10 0 -14 -6q-5 -8 -5 -23zM1097 -412q-12 0 -16 1l-12 3v20q2 -1 7 -2.5t7 -2.5l15 -3q13 0 13 8q0 3 -2 5l-6 4q-1 0 -5 2t-7 3q-7 2 -14 7q-5 5 -6 9q-2 3 -2 11q0 13 8 18q9 6 26 6t30 -6l-7 -18
l-12 5q-4 1 -12 1q-11 0 -11 -5q0 -4 4 -5q5 -3 15 -7l15 -7l7 -9q2 -6 2 -11q0 -13 -9 -21q-11 -6 -28 -6zM1305 -412q-41 0 -41 43q0 21 12 35q10 11 31 11q15 0 27 -5l-6 -19q-3 1 -7 3l-4 1q-1 0 -4.5 0.5t-5.5 0.5q-18 0 -18 -26q0 -25 18 -25q5 0 13 2q6 2 12 5v-20
q-2 -2 -12 -5q-4 -1 -15 -1zM1528 -412q-40 0 -40 43q0 24 10 35q11 11 33 11q13 0 26 -5l-7 -19l-10 4q-2 0 -5 0.5t-4 0.5q-19 0 -19 -26q0 -25 19 -25q4 0 12 2q6 1 11 5v-20q-3 -3 -11 -5q-4 -1 -15 -1zM1611 -412q-13 0 -21 5q-11 5 -15 16q-5 9 -5 23q0 21 10 34
q11 11 31 11q15 0 23 -5q11 -6 15 -16q5 -10 5 -24q0 -20 -12 -33q-10 -11 -31 -11zM1697 -371v-40h-24v87h18l3 -11h2q3 7 10 9q6 3 15 3q20 0 26 -12h2q5 6 10 9q7 3 18 3q14 0 21 -7t7 -24v-57h-24v51q0 10 -3 14t-10 4q-8 0 -13 -6q-4 -5 -4 -20v-43h-24v51q0 10 -3 14
t-10 4q-9 0 -13 -6q-4 -7 -4 -23zM245 -343l-15 -68h-26l-24 87h23l10 -38q1 -2 5 -29q0 6 3 18l1 8l11 41h27l9 -41q1 -2 1 -6q0 -1 1 -3.5t1 -3.5q0 -5 1 -7v-6h1q0 3 2 15l2 14l12 38h23l-25 -87h-26l-7 30l-9 38h-1zM382 -343l-17 -68h-24l-25 87h23l10 -38q4 -16 5 -29
h1q0 2 2 18l1 8l12 41h25l11 -41q0 -4 1 -6l1 -7q0 -2 0.5 -4t0.5 -3q0 -2 0.5 -3.5t0.5 -2.5q0 3 2 15q1 3 2 8t1 6l10 38h23l-25 -87h-26l-6 30zM518 -343l-16 -68h-26l-25 87h24l11 -38q0 -2 1.5 -12t2.5 -17h1q0 6 3 18l1 8l10 41h26l10 -41q0 -1 0.5 -3t0.5 -3t1 -3.5
t1 -3.5q1 -3 1 -7q1 -3 1 -6l3 15l2 14l10 38h24l-25 -87h-26l-7 30l-8 38h-1zM1245 -324v-87h-23v87h23zM742 -393q10 0 14 6q4 5 4 19q0 15 -4 20q-4 6 -14 6t-13 -6q-4 -5 -4 -20q0 -12 4 -19q3 -6 13 -6zM1611 -393q11 0 14 6q4 5 4 19q0 15 -4 20q-3 6 -14 6
q-9 0 -13 -6q-4 -5 -4 -20q0 -12 4 -19q4 -6 13 -6zM1008 -396q5 0 13 6q4 4 4 12v7h-8q-13 -2 -16 -4q-5 -3 -5 -10q0 -11 12 -11zM1381 -396q8 0 14 6q5 5 5 12v7h-9q-12 -2 -16 -4q-5 -3 -5 -10q0 -11 11 -11zM609 -413q-5 0 -11 3q-3 4 -3 10q0 7 3 10q6 3 11 3
q7 0 10 -3t3 -10q0 -6 -3 -10q-5 -3 -10 -3zM1458 -413q-6 0 -10 3q-3 5 -3 10q0 7 3 10t10 3q6 0 10 -3q4 -4 4 -10q0 -4 -4 -10q-5 -3 -10 -3z" />
    <glyph glyph-name="_Fontastica" horiz-adv-x="1458" vert-adv-y="2130" 
d="M322 521v-340h-196q-3 0 -4.5 2t-1.5 4v2v1178h884v-174h-682v-490h682v-182h-682zM1338 1367v-1186h-884v184h682v482h-682v188h682v332h202zM836 -1q-35 0 -61 21l14 28q7 -8 21.5 -14.5t24.5 -6.5q8 0 14 3q5 2 5 8q0 5 -4 8q-11 6 -22 9q-18 5 -24 8q-9 3 -14 10
q-6 8 -6 20q0 22 15.5 32.5t36.5 10.5q26 0 53 -15l-13 -28q-23 14 -41 14q-15 0 -15 -9q0 -10 24 -17q19 -4 24 -7q11 -7 15 -12q6 -9 6 -22q0 -20 -15.5 -30.5t-37.5 -10.5zM302 -2q-30 0 -50.5 19.5t-20.5 49.5t20.5 49t50.5 19t50.5 -19t20.5 -49t-20 -49.5t-51 -19.5z
M1143 -2q-29 0 -48.5 20t-19.5 49q0 30 20 49t50 19q33 0 53 -23l-20 -24q-13 18 -33 18q-15 0 -25.5 -10.5t-10.5 -29.5q0 -10 5 -18q12 -19 32 -19q19 0 32 15l21 -21q-27 -25 -56 -25zM159 48v-47h-34v132h99v-27h-65v-30h59v-28h-59zM423 80v-79h-33v132h30l61 -79
l-1 79h33v-132h-30zM600 105v-104h-33v104h-40v28h114v-28h-41zM671 24l-9 -23h-35l56 132h35l56 -132h-36l-10 23h-57zM970 105v-104h-36v104h-38v28h112v-28h-38zM1057 133v-132h-34v132h34zM1242 24l-9 -23h-35l56 132h36l55 -132h-37l-9 23h-57zM302 27q16 0 26 12
t10 27q0 5 -5 20q-7 20 -30 20q-16 0 -26.5 -11.5t-10.5 -27.5t10.5 -28t25.5 -12zM717 50l-16 48l-20 -48h36zM1289 50l-18 48l-18 -48h36z" />
    <glyph glyph-name="_VendorID" horiz-adv-x="1123" vert-adv-y="2130" 
d="M779 772q-104 0 -168 53.5t-53 127.5h73q-16 -44 29.5 -78.5t118.5 -34.5q62 0 105 26.5t43 65.5q0 68 -155 91q-99 15 -150 54.5t-51 98.5q0 66 58 109.5t145 43.5q96 0 158 -51.5t50 -122.5h-74q17 40 -24.5 72.5t-109.5 32.5q-56 0 -94.5 -24t-38.5 -58q0 -66 140 -86
q106 -15 161.5 -56t55.5 -104q0 -69 -62.5 -114.5t-156.5 -45.5zM190 1016v-233h-70v535h413v-69h-343v-164h323v-69h-323zM780 143q-103 0 -168 53t-54 128h73q-16 -43 29.5 -77t118.5 -34q62 0 105 25.5t43 63.5q0 70 -152 93q-100 14 -152 53.5t-52 99.5q0 66 58.5 109.5
t145.5 43.5q96 0 157 -51.5t50 -122.5h-74q17 40 -24.5 72.5t-108.5 32.5q-56 0 -95 -24t-39 -59q0 -64 139 -84q218 -32 218 -162q0 -69 -62 -114.5t-156 -45.5zM190 387v-233h-70v535h413v-68h-343v-164h323v-70h-323zM392 98v-37h-12v37h-7v7l7 3v3q0 8 5 11q0 4 11 4
q9 0 13 -2l-4 -10q-3 1 -8 1q-3 0 -4 -1q-1 -2 -1 -4v-2h11v-10h-11zM695 113q-7 0 -7 6q0 7 7 7t7 -7q0 -4 -1 -5q-1 0 -3 -0.5t-3 -0.5zM536 60q-6 0 -12 4q-4 4 -4 12v22h-4v5l5 5l5 9h8v-9h13v-10h-13v-22q0 -2 2 -4q2 -1 4 -1q1 0 3.5 0.5t4.5 0.5v-10q-8 -2 -12 -2z
M668 60q-8 0 -12 4q-3 2 -3 12v22h-7v5l7 5l4 9h8v-9h14v-10h-14v-22q0 -3 2 -4l4 -1l8 1v-10q-4 -2 -11 -2zM568 60q-4 0 -10 4q-5 3 -5 11q0 7 7 11q2 2 16 4h6v2q0 7 -6 7t-13 -3l-5 9q12 4 19 4q4 0 14 -4q4 -4 4 -13v-31h-9l-2 5h-1q-1 0 -2.5 -2t-2.5 -2q-2 -2 -10 -2
zM771 60q-4 0 -12 4q-4 3 -4 11q0 7 6 11q1 2 16 4h8v2q0 7 -7 7q-6 0 -15 -3l-3 9q10 4 18 4q4 0 14 -4q5 -4 5 -13v-31h-10l-1 5h-1l-6 -4q-2 -2 -8 -2zM944 82v-21h-12v47h9l2 -6h1q1 2 4 4t9 2q12 0 15 -6h1q2 4 5 4q6 2 8 2q9 0 12 -3q5 -4 5 -14v-30h-13v28q0 3 -2 7
q-2 2 -6 2t-7 -3q-2 -4 -2 -11v-23h-13v28q0 3 -2 7q-1 2 -4 2q-6 0 -8 -3q-2 -6 -2 -13zM163 97l-8 -36h-14l-13 47h13l5 -20l3 -16q0 5 1 8l1 6l5 22h15l5 -22q1 -2 1 -4v-4q0 -1 1 -3v-3q0 3 2 7q0 2 0.5 5t0.5 4l7 20h12l-13 -47h-15l-4 16l-4 20h-1zM237 97l-10 -36
h-12l-14 47h13l5 -20q2 -12 2 -16h1q0 1 0.5 3.5t0.5 4.5l1 6l6 22h13l7 -22v-8v-1q1 -1 1 -2v-3q0 3 2 7q0 7 1 9l5 20h14l-15 -47h-13l-4 16zM310 97l-10 -36h-13l-12 47h12l5 -20q0 -3 1 -8t1 -8h1q0 2 2 8l1 6l4 22h16l4 -22v-2l1 -2q0 -1 1 -2v-2v-3q1 -2 1 -3q0 5 1 7
q0 2 0.5 5t0.5 4l7 20h12l-13 -47h-14l-4 16l-4 20h-1zM430 60q-7 0 -12 4q-4 1 -8 8q-1 4 -1 12q0 13 5 19q7 5 16 5t13 -2q6 -4 8 -9q2 -8 2 -13q0 -9 -6 -18q-5 -6 -17 -6zM477 82v-21h-14v47h10l2 -6h1q2 4 6 4q2 2 8 2q9 0 12 -4q5 -2 5 -13v-30h-13v28q0 5 -1 7
q-4 2 -8 2q-3 0 -6 -3q-2 -3 -2 -13zM621 60q-6 0 -8 1q-1 1 -3.5 1t-3.5 1v10q1 0 4 -0.5t4 -1.5q4 -2 7 -2q8 0 8 4v4q-2 0 -4 1q-1 0 -7 2t-6 4q-4 4 -4 5q-2 2 -2 6q0 7 6 10q3 3 13 3t16 -3l-4 -10q-1 1 -4 2l-3 1h-6q-6 0 -6 -2q0 -3 1 -3l10 -4l8 -3q1 -2 2.5 -3.5
t1.5 -2.5v-5q0 -8 -4 -11q-8 -4 -16 -4zM702 108v-47h-13v47h13zM734 60q-22 0 -22 23q0 12 5 20q7 5 18 5q8 0 14 -2l-3 -11q-4 2 -6 2q-1 0 -2 0.5t-3 0.5q-10 0 -10 -14q0 -13 10 -13q1 0 3 0.5t4 0.5q3 0 6 3v-11l-6 -3q-3 -1 -8 -1zM853 60q-21 0 -21 23q0 13 6 20
q7 5 17 5q3 0 15 -2l-5 -11q-2 2 -5 2q-1 0 -3 1h-2q-10 0 -10 -14q0 -13 10 -13q1 0 3 1h3q4 0 7 3v-11q-1 -1 -7 -3q-1 -1 -8 -1zM897 60q-7 0 -10 4q-7 2 -8 8q-3 6 -3 12q0 11 5 19q7 5 16 5q11 0 13 -2q7 -3 9 -9q2 -4 2 -13q0 -10 -7 -18q-6 -6 -17 -6zM430 71
q5 0 8 3q2 3 2 10q0 8 -2 11q-3 3 -8 3q-6 0 -7 -3q-2 -3 -2 -11q0 -7 2 -10q1 -3 7 -3zM897 71q7 0 9 3t2 10q0 8 -2 11t-9 3q-3 0 -6 -3q-2 -3 -2 -11q0 -7 2 -10q3 -3 6 -3zM574 69q3 0 6 3q2 4 2 6v4h-3q-8 -2 -10 -3q-1 0 -1 -4q0 -6 6 -6zM775 69l6 3q4 4 4 6v4h-6
q-5 -1 -7 -3q-3 0 -3 -4q0 -6 6 -6zM359 60q-4 0 -7 2v2l-1 2l1 6q6 2 7 2q3 0 5 -2q2 0 2 -6l-2 -4q-2 -2 -5 -2zM815 60q-3 0 -4 2l-2 4q0 6 2 6q2 2 4 2q3 0 7 -2q1 -3 1 -6l-1 -2v-2q-2 -2 -7 -2z" />
    </font>
</defs>
</svg>
