<?xml version="1.0" standalone="no"?>
<!DOCTYPE svg PUBLIC "-//W3C//DTD SVG 1.1//EN" "http://www.w3.org/Graphics/SVG/1.1/DTD/svg11.dtd" >
<svg xmlns="http://www.w3.org/2000/svg" xmlns:xlink="http://www.w3.org/1999/xlink" version="1.1">
<metadata>
Created by FontForge 20170731 at Wed Oct 20 22:56:53 2021
 By Aleksey,,,
Copyright (c) 2021 by Fontastica. All rights reserved.
</metadata>
<defs>
<font id="EinerGrotesk-Book" horiz-adv-x="1389" vert-adv-y="2048" >
  <font-face 
    font-family="Einer Grotesk Book"
    font-weight="400"
    font-stretch="normal"
    units-per-em="2048"
    panose-1="0 0 5 0 0 0 0 0 0 0"
    ascent="1638"
    descent="-410"
    x-height="969"
    cap-height="1390"
    bbox="-75 -430 2498 1932"
    underline-thickness="50"
    underline-position="-150"
    unicode-range="U+000D-F8FF"
  />
<missing-glyph horiz-adv-x="1455" vert-adv-y="2130" 
d="M1221 1396v-1402h-987v1402h987zM1008 1255h-561l280 -423zM1068 1069l-247 -374l247 -376v750zM635 695l-248 373v-747zM1008 137l-279 421l-280 -421h559z" />
    <glyph glyph-name="t_t.liga" unicode="tt" horiz-adv-x="1201" vert-adv-y="2130" 
d="M622 131v-134q-140 8 -236.5 96.5t-96.5 209.5v534h-164v133h164v418h133v-418h321v418h133v-418h181v-133h-181v-534q0 -68 57.5 -117.5t143.5 -54.5v-134q-140 8 -237 96.5t-97 209.5v534h-321v-534q0 -68 57.5 -117.5t142.5 -54.5z" />
    <glyph glyph-name=".notdef" horiz-adv-x="1455" vert-adv-y="2130" 
d="M1221 1396v-1402h-987v1402h987zM1008 1255h-561l280 -423zM1068 1069l-247 -374l247 -376v750zM635 695l-248 373v-747zM1008 137l-279 421l-280 -421h559z" />
    <glyph glyph-name=".null" horiz-adv-x="0" vert-adv-y="0" 
 />
    <glyph glyph-name="nonmarkingreturn" horiz-adv-x="682" 
 />
    <glyph glyph-name="CR" unicode="&#xd;" horiz-adv-x="307" vert-adv-y="2130" 
 />
    <glyph glyph-name="space" unicode=" " horiz-adv-x="510" vert-adv-y="2130" 
 />
    <glyph glyph-name="exclam" unicode="!" horiz-adv-x="543" vert-adv-y="2130" 
d="M344 823l-16 -495h-114l-14 495v530h144v-530zM272 0q-36 0 -62 26t-26 62q0 35 26 60.5t62 25.5q35 0 60.5 -25.5t25.5 -60.5q0 -36 -25.5 -62t-60.5 -26z" />
    <glyph glyph-name="quotedbl" unicode="&#x22;" horiz-adv-x="636" vert-adv-y="2130" 
d="M312 1353v-315h-133v315h133zM458 1353v-315h-134v315h134z" />
    <glyph glyph-name="numbersign" unicode="#" horiz-adv-x="1642" vert-adv-y="2130" 
d="M634 382l-41 -382h-134l42 382h-362l14 133h363l36 321h-363l14 132h364l44 385h133l-43 -385h303l44 385h132l-42 -385h363l-14 -132h-364l-37 -321h364l-14 -133h-366l-40 -382h-134l42 382h-304zM989 836h-304l-36 -321h304z" />
    <glyph glyph-name="dollar" unicode="$" horiz-adv-x="1279" vert-adv-y="2130" 
d="M706 -25v-179h-133v178q-204 16 -345 136t-150 287h135q9 -113 111 -194.5t249 -95.5v532q-221 45 -337 137.5t-116 228.5q0 153 125 256.5t328 117.5v177h133v-178q184 -19 309.5 -132.5t136.5 -269.5h-137q-7 102 -94 177t-215 92v-493q480 -88 480 -385
q0 -157 -134 -266t-346 -126zM573 773v472q-142 -12 -230.5 -78t-88.5 -162q0 -83 81.5 -142t237.5 -90zM706 618v-511q151 17 248 89t97 171q0 88 -89 151.5t-256 99.5z" />
    <glyph glyph-name="percent" unicode="%" horiz-adv-x="1607" vert-adv-y="2130" 
d="M1462 1353l-1143 -1353h-174l1142 1353h175zM446 856q-103 0 -176 72.5t-73 175.5q0 102 73 175.5t176 73.5q102 0 174.5 -73.5t72.5 -175.5q0 -103 -72 -175.5t-175 -72.5zM446 988q47 0 81.5 34.5t34.5 81.5q0 48 -34.5 82t-81.5 34q-49 0 -82.5 -34t-33.5 -82t34 -82
t82 -34zM1161 0q-102 0 -175.5 73t-73.5 176q0 102 73.5 175t175.5 73t175.5 -73t73.5 -175q0 -103 -73.5 -176t-175.5 -73zM1161 133q47 0 81.5 34t34.5 82q0 47 -34.5 81t-81.5 34q-48 0 -82 -34t-34 -81q0 -48 34 -82t82 -34z" />
    <glyph glyph-name="ampersand" unicode="&#x26;" horiz-adv-x="1415" vert-adv-y="2130" 
d="M654 -11q-65 0 -127 12.5t-119 40.5t-99.5 68t-68 99.5t-25.5 131.5q0 225 265 372q-81 86 -118.5 159.5t-37.5 150.5q0 142 101.5 235.5t260.5 93.5q144 0 250 -86t106 -226q0 -231 -323 -363l354 -318q48 84 71 186h137q-38 -176 -105 -278l250 -225l-196 -6l-138 126
q-86 -84 -199.5 -128.5t-238.5 -44.5zM612 766l120 55q164 75 164 211q0 88 -58 140t-153 52q-98 0 -157 -55t-59 -151q0 -46 18 -86.5t66 -97.5q35 -43 59 -68zM643 117q99 0 190.5 36t157.5 100l-405 368q-228 -104 -228 -272q0 -107 76.5 -169.5t208.5 -62.5z" />
    <glyph glyph-name="quotesingle" unicode="'" horiz-adv-x="512" vert-adv-y="2130" 
d="M365 1352l-117 -295h-139l88 295h168z" />
    <glyph glyph-name="parenleft" unicode="(" horiz-adv-x="611" vert-adv-y="2130" 
d="M506 -129v-94q-95 14 -175.5 139t-128 328t-47.5 433t47.5 432t128 327.5t175.5 139.5v-95q-93 -19 -155.5 -249.5t-62.5 -554.5q0 -325 62.5 -556t155.5 -250z" />
    <glyph glyph-name="parenright" unicode=")" horiz-adv-x="611" vert-adv-y="2130" 
d="M105 -223v94q94 19 156.5 249.5t62.5 556.5q0 324 -62.5 554.5t-156.5 249.5v95q95 -14 176 -139.5t128 -327.5t47 -432q0 -231 -47 -433.5t-128 -327.5t-176 -139z" />
    <glyph glyph-name="asterisk" unicode="*" horiz-adv-x="797" vert-adv-y="2130" 
d="M458 1034v-112h-118v112l-97 -56l-60 102l98 57l-98 57l60 101l97 -55v113h118v-113l96 55l61 -101l-99 -57l99 -57l-61 -102z" />
    <glyph glyph-name="plus" unicode="+" horiz-adv-x="1081" vert-adv-y="2130" 
d="M607 537v-332h-133v332h-331v133h331v331h133v-331h332v-133h-332z" />
    <glyph glyph-name="comma" unicode="," horiz-adv-x="538" vert-adv-y="2130" 
d="M379 185l-118 -294h-139l89 294h168z" />
    <glyph glyph-name="hyphen" unicode="-" horiz-adv-x="1020" vert-adv-y="2130" 
d="M835 606v-133h-650v133h650z" />
    <glyph glyph-name="period" unicode="." horiz-adv-x="507" vert-adv-y="2130" 
d="M253 7q-36 0 -62 26t-26 61t26 61t62 26q35 0 60.5 -26t25.5 -61t-25.5 -61t-60.5 -26z" />
    <glyph glyph-name="slash" unicode="/" horiz-adv-x="937" vert-adv-y="2130" 
d="M804 1426l-532 -1500h-141l532 1500h141z" />
    <glyph glyph-name="zero" unicode="0" horiz-adv-x="1384" vert-adv-y="2130" 
d="M691 0q-134 0 -242.5 55t-178.5 150t-107.5 220.5t-37.5 268.5t37.5 268.5t107.5 220.5t178.5 150t242.5 55q135 0 244 -55t179.5 -150t108 -220.5t37.5 -268.5t-37.5 -268.5t-108 -220.5t-179.5 -150t-244 -55zM691 131q105 0 189 45t137 123.5t81 179t28 215.5
q0 154 -47.5 279.5t-148 204.5t-239.5 79q-138 0 -238 -79t-147.5 -204.5t-47.5 -279.5q0 -115 28 -216t81 -178.5t136.5 -123t187.5 -45.5z" />
    <glyph glyph-name="one" unicode="1" horiz-adv-x="689" vert-adv-y="2130" 
d="M564 1388v-1388h-133v1202l-206 -167l-92 99l318 254h113z" />
    <glyph glyph-name="two" unicode="2" horiz-adv-x="1237" vert-adv-y="2130" 
d="M1113 136v-136h-987v105q0 50 11 97t28 87t46.5 80t57.5 71t71 66.5t77 60t85.5 56t86 51.5t88.5 50l40 20q63 36 93.5 54t70.5 45.5t57 48.5t29.5 48.5t12.5 59.5q0 83 -54.5 142.5t-133.5 85t-171 25.5q-91 0 -170 -29t-133.5 -92t-59.5 -150h-133q6 130 78.5 223.5
t179.5 137.5t234 45h6q132 0 240.5 -40.5t179 -130t70.5 -216.5q0 -47 -9 -85t-34 -73t-50.5 -60.5t-77.5 -59.5t-94.5 -59t-120.5 -68q-13 -7 -20 -11q-174 -98 -243 -149q-192 -142 -204 -300h853z" />
    <glyph glyph-name="three" unicode="3" horiz-adv-x="1313" vert-adv-y="2130" 
d="M657 13q-230 0 -377.5 116t-154.5 304h132q7 -130 117 -209.5t282 -79.5q178 0 288.5 70.5t110.5 181.5q0 102 -99.5 178.5t-263.5 81.5l-13 -1l-140 -2v124l139 -4h13q160 0 253 73t93 173q0 106 -105 172.5t-275 66.5q-165 0 -269.5 -75.5t-110.5 -197.5h-131
q9 179 150.5 291t359.5 112q226 0 367.5 -103.5t141.5 -263.5q0 -91 -52 -173t-132 -130q99 -51 153.5 -133t54.5 -183q0 -173 -148.5 -281t-383.5 -108z" />
    <glyph glyph-name="four" unicode="4" horiz-adv-x="1362" vert-adv-y="2130" 
d="M1022 325v-325h-132v325h-765v116l780 947h117v-926h215v-137h-215zM890 462v698l-572 -698h572z" />
    <glyph glyph-name="five" unicode="5" horiz-adv-x="1291" vert-adv-y="2130" 
d="M635 0h-27q-185 14 -314 128.5t-166 299.5h136q28 -114 123.5 -189.5t225.5 -90.5h22q178 0 288 90t110 236q0 136 -113 226t-283 97q-105 -2 -196 -40.5t-146 -107.5h-138l94 730h830v-135h-718l-40 -381q131 80 308 80h4q106 0 201 -30.5t169 -86.5t117.5 -146
t43.5 -201q0 -215 -147.5 -347t-383.5 -132z" />
    <glyph glyph-name="six" unicode="6" horiz-adv-x="1300" vert-adv-y="2130" 
d="M652 1h-7q-233 2 -376.5 132t-143.5 334v229q0 348 128 520t387 172q334 0 506 -340h-146q-115 205 -361 205q-179 0 -269 -111t-108 -351q149 135 381 135h8q237 -2 380.5 -127.5t143.5 -330.5q0 -207 -146 -337t-377 -130zM651 147q172 0 282 89.5t110 230.5t-109 230
t-285 89q-171 0 -281 -89.5t-110 -230.5t108.5 -230t284.5 -89z" />
    <glyph glyph-name="seven" unicode="7" horiz-adv-x="1275" vert-adv-y="2130" 
d="M1149 1276l-547 -1276h-145l537 1252h-869v136h1024v-112z" />
    <glyph glyph-name="eight" unicode="8" horiz-adv-x="1311" vert-adv-y="2130" 
d="M656 1q-237 0 -384 108t-147 283q0 108 55.5 188.5t160.5 128.5q-92 45 -143.5 121t-51.5 175q0 167 141.5 270.5t368.5 103.5q225 0 367 -103.5t142 -267.5q0 -100 -54 -177t-145 -123q104 -47 162 -128.5t58 -189.5q0 -173 -147 -281t-383 -108zM656 767h19
q160 0 259.5 66.5t99.5 171.5q0 109 -104 176.5t-274 67.5t-274.5 -67t-104.5 -177q0 -107 104.5 -172.5t274.5 -65.5zM656 135q178 0 287.5 70t109.5 185q0 112 -105 182t-272 70h-20q-180 0 -289 -69t-109 -183q0 -115 109.5 -185t288.5 -70z" />
    <glyph glyph-name="nine" unicode="9" horiz-adv-x="1300" vert-adv-y="2130" 
d="M659 0q-334 0 -505 339h146q116 -203 360 -203q102 0 175 35t115 101t63 144.5t27 181.5q-146 -136 -390 -136q-236 0 -380.5 127t-144.5 332q0 206 145.5 336.5t378.5 130.5h8q232 -2 375 -132.5t143 -334.5v-227q0 -350 -127.5 -522t-388.5 -172zM653 602
q170 0 280 89.5t110 230.5t-109 230t-283 89q-173 0 -283 -89.5t-110 -230.5t109 -230t286 -89z" />
    <glyph glyph-name="colon" unicode=":" horiz-adv-x="507" vert-adv-y="2130" 
d="M252 649q-36 0 -62 26t-26 62q0 35 26 61t62 26q35 0 60.5 -26t25.5 -61q0 -36 -25.5 -62t-60.5 -26zM252 0q-36 0 -62 26t-26 62q0 35 26 60.5t62 25.5q35 0 60.5 -25.5t25.5 -60.5q0 -36 -25.5 -62t-60.5 -26z" />
    <glyph glyph-name="semicolon" unicode=";" horiz-adv-x="533" vert-adv-y="2130" 
d="M261 649q-35 0 -61.5 26t-26.5 62q0 35 26.5 61t61.5 26q36 0 62 -26t26 -61q0 -36 -26 -62t-62 -26zM366 185l-118 -294h-139l89 294h168z" />
    <glyph glyph-name="less" unicode="&#x3c;" horiz-adv-x="1019" vert-adv-y="2130" 
d="M286 598l555 -305v-150l-722 397v118l722 397v-150z" />
    <glyph glyph-name="equal" unicode="=" horiz-adv-x="1109" vert-adv-y="2130" 
d="M915 815v-132h-722v132h722zM915 524v-132h-722v132h722z" />
    <glyph glyph-name="greater" unicode="&#x3e;" horiz-adv-x="1019" vert-adv-y="2130" 
d="M899 658v-118l-722 -397v150l556 305l-556 307v150z" />
    <glyph glyph-name="question" unicode="?" horiz-adv-x="1194" vert-adv-y="2130" 
d="M581 395v-146h-135l2 146q1 78 16 121.5t44 70t95 64.5q52 31 85.5 51.5t86.5 60t84.5 73t56 79t24.5 88.5q0 107 -102.5 176.5t-257.5 69.5q-144 0 -233.5 -74.5t-95.5 -198.5h-132q7 182 133.5 294t326.5 112q210 0 351.5 -108t141.5 -270q0 -250 -400 -466l-10 -6
q-33 -18 -46.5 -28.5t-24 -37t-10.5 -71.5zM514 0q-35 0 -61.5 26t-26.5 62q0 35 26.5 60.5t61.5 25.5t60.5 -25.5t25.5 -60.5q0 -36 -25.5 -62t-60.5 -26z" />
    <glyph glyph-name="at" unicode="@" horiz-adv-x="1691" vert-adv-y="2130" 
d="M855 -29h-2q-143 0 -273.5 56t-224.5 150.5t-150 225.5t-56 274t56 273.5t150.5 225t224.5 150.5t273 56q188 0 355 -98.5t262 -262.5q90 -163 90 -344v-149q0 -106 -70 -182.5t-175 -76.5q-115 0 -182 98q-53 -50 -128.5 -77t-160.5 -27h-8q-165 3 -277 94.5t-112 223.5
v195q0 130 114.5 224t266.5 94q150 0 267 -93v51h133l-2 -554q2 -39 26 -67t59 -30q49 2 82.5 39t33.5 88v149q0 155 -76.5 286.5t-208.5 208.5t-288 77q-155 0 -287 -76.5t-208.5 -208.5t-76.5 -287q0 -156 76.5 -287.5t208.5 -208.5t288 -77q191 0 407 164v-166
q-193 -131 -407 -131zM840 395l9 -1q98 3 167 57.5t79 134.5v197q-10 72 -84.5 124.5t-173.5 52.5q-106 0 -182 -54t-76 -130v-195q0 -74 75 -128t186 -58z" />
    <glyph glyph-name="A" unicode="A" horiz-adv-x="1613" vert-adv-y="2130" 
d="M473 387l-190 -387h-149l673 1388l672 -1388h-149l-190 387h-667zM1076 531l-270 557l-269 -557h539z" />
    <glyph glyph-name="B" unicode="B" horiz-adv-x="1398" vert-adv-y="2130" 
d="M890 0h-765v1390h718q159 0 271 -111t112 -269q0 -91 -39 -168.5t-105 -126.5q86 -47 138.5 -138t52.5 -197q0 -158 -112 -269t-271 -111zM843 1255h-583v-493h583q103 0 176 72.5t73 175.5q0 102 -72.5 173.5t-176.5 71.5zM890 628h-630v-493h630q104 0 176.5 71
t72.5 174q0 102 -73 175t-176 73z" />
    <glyph glyph-name="C" unicode="C" horiz-adv-x="1608" vert-adv-y="2130" 
d="M849 -29q-147 0 -281 57t-231 153.5t-154.5 231t-57.5 282.5t57.5 282.5t154.5 231t231 153.5t281 57q185 0 352 -95.5t276 -263.5l-108 -79q-95 142 -232.5 223t-287.5 81q-160 0 -295.5 -79t-214.5 -215t-79 -296t79 -296t214.5 -215t295.5 -79q149 0 286.5 80.5
t232.5 223.5l108 -79q-109 -169 -275.5 -264t-351.5 -95z" />
    <glyph glyph-name="D" unicode="D" horiz-adv-x="1453" vert-adv-y="2130" 
d="M632 0h-507v1390h507q141 0 270 -55t222 -148t148 -222t55 -270t-55 -270t-148 -222t-222 -148t-270 -55zM632 1255h-372v-1120h372q152 0 281 75t204 204t75 281t-75 281t-204 204t-281 75z" />
    <glyph glyph-name="E" unicode="E" horiz-adv-x="1309" vert-adv-y="2130" 
d="M1184 135v-135h-1059v1390h1059v-135h-924v-493h868v-134h-868v-493h924z" />
    <glyph glyph-name="F" unicode="F" horiz-adv-x="1309" vert-adv-y="2130" 
d="M260 628v-628h-135v1390h1059v-135h-924v-493h868v-134h-868z" />
    <glyph glyph-name="G" unicode="G" horiz-adv-x="1603" vert-adv-y="2130" 
d="M849 -29q-147 0 -281 57t-231 153.5t-154.5 231t-57.5 282.5t57.5 282.5t154.5 231t231 153.5t281 57q185 0 352 -95.5t276 -263.5l-108 -79q-95 142 -232.5 223t-287.5 81q-160 0 -295.5 -79t-214.5 -215t-79 -296t79 -296t214.5 -215t295.5 -79q142 0 269.5 66
t211.5 183v257h-575v135h710l1 -432q-102 -161 -266 -252t-351 -91z" />
    <glyph glyph-name="H" unicode="H" vert-adv-y="2130" 
d="M260 628v-628h-135v1390h135v-628h869v628h135v-1390h-135v628h-869z" />
    <glyph glyph-name="I" unicode="I" horiz-adv-x="385" vert-adv-y="2130" 
d="M260 1390v-1390h-135v1390h135z" />
    <glyph glyph-name="J" unicode="J" horiz-adv-x="1328" vert-adv-y="2130" 
d="M634 -29q-146 0 -279 78.5t-224 218.5l116 67q72 -108 174.5 -169t212.5 -61q180 0 307 127.5t127 306.5v851h135v-851q0 -154 -76 -285t-207.5 -207t-285.5 -76z" />
    <glyph glyph-name="K" unicode="K" horiz-adv-x="1406" vert-adv-y="2130" 
d="M260 475v-475h-135v1390h135v-732l804 732h203l-605 -549l604 -841h-165l-539 750z" />
    <glyph glyph-name="L" unicode="L" horiz-adv-x="1309" vert-adv-y="2130" 
d="M1184 135v-135h-1059v1390h135v-1255h924z" />
    <glyph glyph-name="M" unicode="M" horiz-adv-x="1630" vert-adv-y="2130" 
d="M258 994l2 -994h-135v1388h70l620 -1118l620 1118h69v-1388h-135l2 994l-556 -994z" />
    <glyph glyph-name="N" unicode="N" vert-adv-y="2130" 
d="M260 1028v-1028h-135v1388l1004 -1038v1040h135v-1390z" />
    <glyph glyph-name="O" unicode="O" horiz-adv-x="1700" vert-adv-y="2130" 
d="M849 -29q-147 0 -281 57t-231 153.5t-154.5 231t-57.5 282.5t57.5 282.5t154.5 231t231 153.5t281 57q148 0 282.5 -57t232 -154t155 -231t57.5 -282t-57.5 -282t-155 -231t-232 -154t-282.5 -57zM849 105q161 0 297 79t215 215t79 296t-79 296t-215 215t-297 79
q-160 0 -295.5 -79t-214.5 -215t-79 -296t79 -296t214.5 -215t295.5 -79z" />
    <glyph glyph-name="P" unicode="P" horiz-adv-x="1398" vert-adv-y="2130" 
d="M260 476v-476h-135v1390h691q190 0 323.5 -133t133.5 -323t-133.5 -324t-323.5 -134h-556zM816 1255h-556v-643h556q134 0 228.5 94t94.5 228q0 133 -94.5 227t-228.5 94z" />
    <glyph glyph-name="Q" unicode="Q" horiz-adv-x="1711" vert-adv-y="2130" 
d="M849 -29q-147 0 -281 57t-231 153.5t-154.5 231t-57.5 282.5t57.5 282.5t154.5 231t231 153.5t281 57q148 0 282.5 -57t232 -154t155 -231t57.5 -282q0 -117 -42 -234.5t-116 -215.5l169 -166l-97 -97l-166 165q-100 -82 -224.5 -129t-250.5 -47zM849 105q217 0 379 139
l-161 159l94 99l161 -161q118 159 118 354q0 160 -79 296t-215 215t-297 79q-160 0 -295.5 -79t-214.5 -215t-79 -296t79 -296t214.5 -215t295.5 -79z" />
    <glyph glyph-name="R" unicode="R" horiz-adv-x="1407" vert-adv-y="2130" 
d="M260 477v-477h-135v1390h691q190 0 323.5 -133.5t133.5 -323.5q0 -155 -91 -276t-238 -161l338 -496h-163l-326 477h-533zM816 1255h-556v-642h585q122 18 208 109.5t86 210.5q0 133 -94.5 227.5t-228.5 94.5z" />
    <glyph glyph-name="S" unicode="S" vert-adv-y="2130" 
d="M704 -29q-237 0 -401.5 124.5t-177.5 311.5h139q9 -130 134.5 -216t304.5 -86q180 0 301.5 77t121.5 194q0 208 -433 273q-526 79 -526 385q0 166 149.5 275.5t372.5 109.5q220 0 373.5 -118.5t165.5 -296.5h-137q-11 121 -124.5 201t-276.5 80q-164 0 -274.5 -71
t-110.5 -179q0 -96 102 -160.5t294 -91.5q279 -41 421.5 -143.5t142.5 -262.5q0 -116 -73.5 -209t-202 -145t-285.5 -52z" />
    <glyph glyph-name="T" unicode="T" horiz-adv-x="1453" vert-adv-y="2130" 
d="M794 1255v-1255h-135v1255h-534v135h1202v-135h-533z" />
    <glyph glyph-name="U" unicode="U" vert-adv-y="2130" 
d="M695 -29q-155 0 -286.5 76t-207.5 206.5t-76 285.5v851h135v-851q0 -179 127.5 -306.5t307.5 -127.5t307 127.5t127 306.5v851h135v-851q0 -154 -76.5 -285t-207.5 -207t-285 -76z" />
    <glyph glyph-name="V" unicode="V" horiz-adv-x="1613" vert-adv-y="2130" 
d="M1330 1390h149l-672 -1390l-673 1390h149l523 -1077z" />
    <glyph glyph-name="W" unicode="W" horiz-adv-x="2224" vert-adv-y="2130" 
d="M1555 0l-443 1158l-444 -1158l-534 1388h141l393 -1016l392 1016h103l392 -1016l395 1016h140z" />
    <glyph glyph-name="X" unicode="X" horiz-adv-x="1622" vert-adv-y="2130" 
d="M811 586l-487 -586h-182l579 695l-579 695h182l487 -586l488 586h182l-579 -695l579 -695h-182z" />
    <glyph glyph-name="Y" unicode="Y" horiz-adv-x="1607" vert-adv-y="2130" 
d="M871 539v-539h-135v539l-597 851h167l497 -718l499 718h166z" />
    <glyph glyph-name="Z" unicode="Z" horiz-adv-x="1614" vert-adv-y="2130" 
d="M1377 135v-135h-1235l1043 1255h-929v135h1217l-1044 -1255h948z" />
    <glyph glyph-name="bracketleft" unicode="[" horiz-adv-x="627" vert-adv-y="2130" 
d="M546 -85v-134h-351v1790h351v-133h-218v-1523h218z" />
    <glyph glyph-name="backslash" unicode="\" horiz-adv-x="937" vert-adv-y="2130" 
d="M274 1426l532 -1500h-141l-532 1500h141z" />
    <glyph glyph-name="bracketright" unicode="]" horiz-adv-x="627" vert-adv-y="2130" 
d="M432 1571v-1790h-351v134h219v1523h-219v133h351z" />
    <glyph glyph-name="asciicircum" unicode="^" horiz-adv-x="1116" vert-adv-y="2130" 
d="M558 1187l-231 -411h-153l325 577h118l325 -577h-151z" />
    <glyph glyph-name="underscore" unicode="_" horiz-adv-x="1194" vert-adv-y="2130" 
d="M1031 43v-134h-868v134h868z" />
    <glyph glyph-name="grave" unicode="`" horiz-adv-x="910" vert-adv-y="2130" 
d="M371 1422l303 -245l-86 -101l-300 244z" />
    <glyph glyph-name="a" unicode="a" horiz-adv-x="1032" vert-adv-y="2130" 
d="M520 -17q-165 0 -280 91.5t-115 220.5q0 135 125 228.5t302 93.5h221v32q-9 83 -71 137t-162 54q-62 0 -119.5 -22.5t-101.5 -73t-50 -120.5h-134q7 82 45.5 149.5t95.5 110t125.5 65.5t139.5 23q170 0 267.5 -93.5t97.5 -252.5v-626h-133v65q-104 -82 -253 -82zM516 114
q98 0 172.5 52.5t84.5 125.5v193h-221q-122 0 -208 -54.5t-86 -133.5q0 -74 76 -128.5t182 -54.5z" />
    <glyph glyph-name="b" unicode="b" horiz-adv-x="1148" vert-adv-y="2130" 
d="M578 -17q-196 0 -320 144v-127h-133v1353h133v-510q125 145 320 145q191 0 318 -143t127 -360t-127 -359.5t-318 -142.5zM578 114q136 0 227 106.5t91 264.5t-91 264.5t-227 106.5t-226.5 -106.5t-90.5 -264.5t90.5 -264.5t226.5 -106.5z" />
    <glyph glyph-name="c" unicode="c" horiz-adv-x="1146" vert-adv-y="2130" 
d="M600 -17q-204 0 -339.5 143t-135.5 359q0 217 135.5 360t339.5 143q121 0 230 -64t185 -180l-111 -73q-58 87 -138.5 136t-165.5 49q-147 0 -244.5 -106t-97.5 -265t97.5 -265t244.5 -106q85 0 165.5 49t138.5 136l111 -73q-75 -116 -184.5 -179.5t-230.5 -63.5z" />
    <glyph glyph-name="d" unicode="d" horiz-adv-x="1148" vert-adv-y="2130" 
d="M569 -17q-190 0 -317 143t-127 359t127 359.5t317 143.5q196 0 322 -145v510h132v-1353h-132v127q-125 -144 -322 -144zM569 114q137 0 228 106t91 265t-91 265t-228 106q-136 0 -226 -106t-90 -265t90 -265t226 -106z" />
    <glyph glyph-name="e" unicode="e" horiz-adv-x="1202" vert-adv-y="2130" 
d="M600 -17q-204 0 -339.5 143t-135.5 359q0 217 135 360t340 143q203 0 337.5 -153t139.5 -380h-819q13 -146 109 -243.5t233 -97.5q108 0 196 69t132 188l126 -44q-59 -159 -180.5 -251.5t-273.5 -92.5zM271 588h659q-30 119 -120.5 193.5t-209.5 74.5t-209 -74.5
t-120 -193.5z" />
    <glyph glyph-name="f" unicode="f" horiz-adv-x="729" vert-adv-y="2130" 
d="M404 837v-837h-134v837h-145v133h145v112q0 121 97 209.5t237 96.5v-132q-85 -6 -142.5 -56t-57.5 -118v-112h175v-133h-175z" />
    <glyph glyph-name="g" unicode="g" horiz-adv-x="1140" vert-adv-y="2130" 
d="M591 -392q-148 0 -260.5 84.5t-166.5 235.5h139q38 -89 113.5 -138t175.5 -49q135 0 217 78.5t82 210.5v94q-125 -144 -322 -144q-190 0 -317 143t-127 359t127.5 360.5t316.5 144.5q196 0 322 -147v132h132v-933q0 -196 -117 -313.5t-315 -117.5zM569 111q137 0 228 106
t91 265t-91 265t-228 106q-136 0 -226 -106t-90 -265t90 -265t226 -106z" />
    <glyph glyph-name="h" unicode="h" horiz-adv-x="995" vert-adv-y="2130" 
d="M258 637l1 -637h-134v1388h133v-487q101 87 240 87q155 0 263.5 -108t108.5 -263v-617h-133v617q0 99 -69.5 169t-168.5 70q-94 0 -163.5 -64t-77.5 -155z" />
    <glyph glyph-name="i" unicode="i" horiz-adv-x="425" vert-adv-y="2130" 
d="M213 1178q-36 0 -62 25.5t-26 61.5q0 35 26 61.5t62 26.5q35 0 60.5 -26.5t25.5 -61.5q0 -36 -25.5 -61.5t-60.5 -25.5zM279 970v-970h-134v970h134z" />
    <glyph glyph-name="j" unicode="j" horiz-adv-x="736" vert-adv-y="2130" 
d="M523 1178q-35 0 -60.5 25.5t-25.5 61.5q0 35 25.5 61.5t60.5 26.5q36 0 62 -26.5t26 -61.5q0 -36 -26 -61.5t-62 -25.5zM125 -430l4 132q142 4 231 85.5t97 205.5v979h134v-971q0 -192 -127 -309t-339 -122z" />
    <glyph glyph-name="k" unicode="k" horiz-adv-x="1067" vert-adv-y="2130" 
d="M258 311v-312h-133v1389h133v-896l492 478h176l-418 -414l402 -557h-157l-336 469z" />
    <glyph glyph-name="l" unicode="l" horiz-adv-x="383" vert-adv-y="2130" 
d="M258 1388v-1388h-133v1388h133z" />
    <glyph glyph-name="m" unicode="m" horiz-adv-x="1470" vert-adv-y="2130" 
d="M251 617v-617h-126v970h126v-62q89 80 215 80q178 0 270 -155q46 74 115.5 114.5t154.5 40.5q142 0 240.5 -108t98.5 -263v-617h-126v617q0 100 -62 171.5t-148 71.5q-80 0 -141 -68t-69 -160v-632h-127v632q-8 92 -69.5 160t-140.5 68q-87 0 -149 -71.5t-62 -171.5z" />
    <glyph glyph-name="n" unicode="n" horiz-adv-x="995" vert-adv-y="2130" 
d="M259 617v-617h-134v968h133v-67q101 87 240 87q155 0 263.5 -108t108.5 -263v-617h-133v617q0 99 -69.5 169t-168.5 70q-100 0 -170 -70t-70 -169z" />
    <glyph glyph-name="o" unicode="o" horiz-adv-x="1202" vert-adv-y="2130" 
d="M600 -17q-204 0 -339.5 143t-135.5 359q0 217 135.5 360t339.5 143q206 0 342 -143t136 -360t-136 -359.5t-342 -142.5zM600 114q148 0 246 106t98 265t-98 265t-246 106q-147 0 -244.5 -106t-97.5 -265t97.5 -265t244.5 -106z" />
    <glyph glyph-name="p" unicode="p" horiz-adv-x="1148" vert-adv-y="2130" 
d="M258 124v-509h-133v1352h133v-127q124 147 320 147q191 0 318 -144t127 -361t-127 -359.5t-318 -142.5q-196 0 -320 144zM578 111q136 0 227 106.5t91 264.5q0 159 -91 265t-227 106t-226.5 -106t-90.5 -265q0 -158 90.5 -264.5t226.5 -106.5z" />
    <glyph glyph-name="q" unicode="q" horiz-adv-x="1148" vert-adv-y="2130" 
d="M1023 967v-1352h-132v509q-125 -144 -322 -144q-190 0 -317 143t-127 359t127.5 360.5t316.5 144.5q196 0 322 -147v127h132zM569 111q137 0 228 106t91 265t-91 265t-228 106q-136 0 -226 -106t-90 -265t90 -265t226 -106z" />
    <glyph glyph-name="r" unicode="r" horiz-adv-x="733" vert-adv-y="2130" 
d="M259 617v-617h-134v968h133v-67q101 87 240 87q40 0 111 -15v-138q-78 21 -110 21q-100 0 -170 -70t-70 -169z" />
    <glyph glyph-name="s" unicode="s" horiz-adv-x="1071" vert-adv-y="2130" 
d="M539 -17q-172 0 -287.5 90.5t-126.5 230.5h133q6 -62 51.5 -106.5t105.5 -64t124 -19.5q65 0 124.5 16.5t103.5 55t44 92.5q0 18 -5.5 33t-19 28t-26 22.5t-37 19.5t-41 16t-48.5 14t-49 12t-53 12q-73 15 -120.5 27.5t-101 34.5t-84.5 48t-51.5 66.5t-20.5 92.5
q0 127 108 205.5t274 78.5q159 0 267.5 -86.5t119.5 -220.5h-134q-7 76 -77.5 125.5t-170.5 49.5q-99 0 -175 -38.5t-76 -110.5q0 -26 14.5 -47t34 -34t58.5 -25.5t66.5 -19t79.5 -16.5q74 -15 123.5 -27.5t107 -35.5t91.5 -51t57 -71.5t23 -98.5q0 -133 -114.5 -215.5
t-291.5 -82.5z" />
    <glyph glyph-name="t" unicode="t" horiz-adv-x="747" vert-adv-y="2130" 
d="M622 131v-134q-140 8 -236.5 96.5t-96.5 209.5v534h-164v133h164v418h133v-418h182v-133h-182v-534q0 -68 57.5 -117.5t142.5 -54.5z" />
    <glyph glyph-name="u" unicode="u" horiz-adv-x="995" vert-adv-y="2130" 
d="M499 -18q-156 0 -265 108t-109 263v616h133v-616q0 -99 70 -169.5t170 -70.5q99 0 169 70.5t70 169.5v616h133v-968h-133v67q-98 -86 -238 -86z" />
    <glyph glyph-name="v" unicode="v" horiz-adv-x="1206" vert-adv-y="2130" 
d="M925 970h147l-468 -970l-470 970h147l322 -687z" />
    <glyph glyph-name="w" unicode="w" horiz-adv-x="1554" vert-adv-y="2130" 
d="M1062 0l-284 764l-284 -764l-363 970h132l231 -623l233 623h101l234 -623l230 623h132z" />
    <glyph glyph-name="x" unicode="x" horiz-adv-x="1201" vert-adv-y="2130" 
d="M600 377l-287 -377h-173l378 485l-378 485h173l287 -376l288 376h173l-378 -485l378 -485h-173z" />
    <glyph glyph-name="y" unicode="y" horiz-adv-x="1206" vert-adv-y="2130" 
d="M1072 970l-651 -1400h-135l250 532l-402 868h147l322 -716l322 716h147z" />
    <glyph glyph-name="z" unicode="z" horiz-adv-x="1031" vert-adv-y="2130" 
d="M905 133v-133h-780v113l595 724h-558v133h743v-112l-594 -725h594z" />
    <glyph glyph-name="braceleft" unicode="{" horiz-adv-x="677" vert-adv-y="2130" 
d="M596 -85v-134h-140q-88 0 -150 62.5t-62 150.5v537q0 32 -23.5 55.5t-55.5 23.5h-66v133h66q33 0 56 23t23 56v536q0 88 62 150.5t150 62.5h140v-133h-140q-32 0 -55 -23.5t-23 -56.5v-536q0 -86 -59 -145q59 -65 59 -146v-537q0 -33 23 -56t55 -23h140z" />
    <glyph glyph-name="bar" unicode="|" horiz-adv-x="523" vert-adv-y="2130" 
d="M328 1607v-1898h-133v1898h133z" />
    <glyph glyph-name="braceright" unicode="}" horiz-adv-x="677" vert-adv-y="2130" 
d="M220 -219h-139v134h139q33 0 56.5 23t23.5 56v537q0 82 58 145q-58 58 -58 146v536q0 33 -24 56.5t-56 23.5h-139v133h139q88 0 150 -62.5t62 -150.5v-536q0 -33 23.5 -56t56.5 -23h66v-133h-66q-32 0 -56 -23.5t-24 -55.5v-537q0 -88 -62 -150.5t-150 -62.5z" />
    <glyph glyph-name="asciitilde" unicode="~" horiz-adv-x="1210" vert-adv-y="2130" 
d="M757 712q-105 0 -192 87q-48 49 -96 49q-47 0 -99 -49l-71 -74l-94 96l73 71q87 87 188 87q105 0 192 -87q50 -50 97 -50q46 0 98 50l72 73l94 -94l-74 -72q-87 -87 -188 -87z" />
    <glyph glyph-name="exclamdown" unicode="&#xa1;" horiz-adv-x="543" vert-adv-y="2130" 
d="M272 1178q-36 0 -62 25.5t-26 61.5q0 35 26 61.5t62 26.5q35 0 60.5 -26.5t25.5 -61.5q0 -36 -25.5 -61.5t-60.5 -25.5zM344 530v-530h-144v530l14 494h114z" />
    <glyph glyph-name="cent" unicode="&#xa2;" horiz-adv-x="1120" vert-adv-y="2130" 
d="M637 -15v-113h-133v116q-178 26 -288 164t-110 333t110 333t288 164v116h133v-113q104 -13 198.5 -76t161.5 -165l-112 -73q-104 157 -248 180v-732q144 25 248 180l112 -73q-68 -103 -162.5 -166t-197.5 -75zM504 124v722q-119 -28 -192 -126.5t-73 -234.5
q0 -135 73.5 -234t191.5 -127z" />
    <glyph glyph-name="sterling" unicode="&#xa3;" horiz-adv-x="1133" vert-adv-y="2130" 
d="M982 133v-133h-825v114q76 86 129 188.5t53 196.5q0 20 -4 47h-178v133h143l-18 51q-51 145 -51 238q0 172 120.5 293t290.5 121q90 0 177.5 -44t158.5 -126l-96 -93q-53 62 -116 96t-124 34q-116 0 -198 -82.5t-82 -197.5q0 -69 47 -194l3 -8q23 -59 31 -88h382v-133
h-355q2 -30 2 -44q0 -191 -129 -369h639z" />
    <glyph glyph-name="yen" unicode="&#xa5;" horiz-adv-x="1532" vert-adv-y="2130" 
d="M833 269v-269h-133v269h-259v133h259v157h-259v133h174l-499 661h167l483 -641l483 641h167l-498 -661h173v-133h-258v-157h258v-133h-258z" />
    <glyph glyph-name="brokenbar" unicode="&#xa6;" horiz-adv-x="551" vert-adv-y="2130" 
d="M342 1607v-806h-133v806h133zM342 515v-806h-133v806h133z" />
    <glyph glyph-name="dieresis" unicode="&#xa8;" horiz-adv-x="893" vert-adv-y="2130" 
d="M318 1111q-35 0 -61 26t-26 62q0 35 26 61t61 26q36 0 62 -26t26 -61q0 -36 -26 -62t-62 -26zM574 1111q-35 0 -61 26t-26 62q0 35 26 61t61 26t61 -26t26 -61q0 -36 -26 -62t-61 -26z" />
    <glyph glyph-name="copyright" unicode="&#xa9;" horiz-adv-x="1592" vert-adv-y="2130" 
d="M796 0q-137 0 -262 53.5t-216 144.5t-144.5 216t-53.5 262q0 183 91 339t246.5 246.5t338.5 90.5q137 0 262.5 -53.5t216 -144t144 -216t53.5 -262.5q0 -183 -90.5 -338.5t-246.5 -246.5t-339 -91zM796 117q114 0 217.5 44t178.5 119t119 178.5t44 217.5t-44 217.5
t-119 178.5t-178.5 119t-217.5 44t-217.5 -44t-178.5 -119t-119 -178.5t-44 -217.5t44 -217.5t119 -178.5t178.5 -119t217.5 -44zM808 260q-173 0 -294.5 121.5t-121.5 294.5t121.5 294.5t294.5 121.5q104 0 203.5 -59.5t166.5 -162.5l-95 -71q-53 82 -126 129t-149 47
q-124 0 -211.5 -87.5t-87.5 -211.5t87.5 -211t211.5 -87q76 0 148.5 46.5t125.5 128.5l97 -69q-68 -104 -167.5 -164t-203.5 -60z" />
    <glyph glyph-name="ordfeminine" unicode="&#xaa;" horiz-adv-x="634" vert-adv-y="2130" 
d="M314 868q-83 0 -154.5 52t-71.5 137q0 93 89 147h-90v96h20q25 66 88 101.5t137 35.5q98 0 156 -54t58 -150v-268h10v-96h-97v9h-22v23q-60 -33 -123 -33zM216 1274v-50q60 24 121 24h100q-1 37 -34.5 58.5t-72.5 21.5q-80 0 -114 -54zM317 979q36 0 68 15.5t46 39.5
q6 14 6 19v85h-100q-48 0 -94 -21.5t-46 -58.5q0 -33 35.5 -56t84.5 -23z" />
    <glyph glyph-name="guillemotleft" unicode="&#xab;" horiz-adv-x="1097" vert-adv-y="1700" 
d="M326 493l318 -317l-95 -94l-410 411l410 410l95 -94zM615 493l315 -317l-92 -94l-411 411l411 410l92 -94z" />
    <glyph glyph-name="logicalnot" unicode="&#xac;" horiz-adv-x="1258" vert-adv-y="2130" 
d="M1065 670v-461h-132v328h-736v133h868z" />
    <glyph glyph-name="registered" unicode="&#xae;" horiz-adv-x="1592" vert-adv-y="2130" 
d="M796 0q-137 0 -262 53.5t-216 144.5t-144.5 216t-53.5 262q0 183 91 339t246.5 246.5t338.5 90.5q137 0 262.5 -53.5t216 -144t144 -216t53.5 -262.5q0 -183 -90.5 -338.5t-246.5 -246.5t-339 -91zM796 117q114 0 217.5 44t178.5 119t119 178.5t44 217.5t-44 217.5
t-119 178.5t-178.5 119t-217.5 44t-217.5 -44t-178.5 -119t-119 -178.5t-44 -217.5t44 -217.5t119 -178.5t178.5 -119t217.5 -44zM600 533v-248h-118v799h407q115 0 195.5 -80t80.5 -196q0 -86 -47 -155.5t-124 -98.5l183 -269h-142l-172 248h-263zM889 967h-289v-315h304
q60 8 101.5 52.5t41.5 103.5q0 67 -46 113t-112 46z" />
    <glyph glyph-name="macron" unicode="&#xaf;" horiz-adv-x="892" vert-adv-y="2130" 
d="M667 1248v-133h-442v133h442z" />
    <glyph glyph-name="degree" unicode="&#xb0;" horiz-adv-x="724" vert-adv-y="2130" 
d="M362 928q-92 0 -156.5 65t-64.5 157t64.5 156.5t156.5 64.5t156.5 -64.5t64.5 -156.5t-64.5 -157t-156.5 -65zM362 1061q37 0 62.5 26t25.5 63q0 36 -25.5 62t-62.5 26t-62.5 -26t-25.5 -62q0 -37 25.5 -63t62.5 -26z" />
    <glyph glyph-name="plusminus" unicode="&#xb1;" horiz-adv-x="1064" vert-adv-y="2130" 
d="M598 683v-259h-132v259h-259v132h259v260h132v-260h259v-132h-259zM857 338v-133h-650v133h650z" />
    <glyph glyph-name="uni00B2" unicode="&#xb2;" horiz-adv-x="553" vert-adv-y="1700" 
d="M480 1005v-117h-408v70q0 41 15.5 76t45 63t56 46t64.5 40l22 12l8 4l37 19q42 22 42 42q0 21 -24.5 33.5t-62.5 12.5q-37 0 -60 -24t-27 -67h-115v47q0 80 61 120.5t143 40.5q81 0 142 -41t61 -124q0 -49 -21.5 -77.5t-70.5 -58.5l-67 -37q-84 -43 -112 -80h271z" />
    <glyph glyph-name="uni00B3" unicode="&#xb3;" horiz-adv-x="578" vert-adv-y="1700" 
d="M457 1170l-6 5q54 -48 54 -120q0 -56 -34 -95.5t-81 -55.5t-101 -16q-40 0 -76.5 9.5t-69 28.5t-52 53.5t-19.5 78.5v47h118v-47q0 -24 27.5 -38.5t71.5 -14.5t71.5 14.5t27.5 38.5q0 23 -24.5 38t-63.5 15h-88v112h88q36 0 58.5 13.5t22.5 34.5q0 23 -25.5 36.5
t-68.5 13.5q-41 0 -65 -25t-28 -71h-113v46q0 56 32.5 95t77.5 54.5t98 15.5q52 0 98 -16t78.5 -54t32.5 -93q0 -60 -41 -103z" />
    <glyph glyph-name="acute" unicode="&#xb4;" horiz-adv-x="910" vert-adv-y="2130" 
d="M588 1422l86 -102l-303 -244l-83 102z" />
    <glyph glyph-name="paragraph" unicode="&#xb6;" horiz-adv-x="1207" vert-adv-y="2130" 
d="M816 1220v-1220h-133v464h-120q-183 0 -313.5 130t-130.5 314t130.5 314.5t313.5 130.5h435v-1353h-133v1220h-49zM563 597h120v623h-120q-129 0 -220 -91t-91 -221q0 -129 90.5 -220t220.5 -91z" />
    <glyph glyph-name="periodcentered" unicode="&#xb7;" horiz-adv-x="507" vert-adv-y="2130" 
d="M253 595q-36 0 -62 26t-26 62t26 61.5t62 25.5q35 0 60.5 -25.5t25.5 -61.5t-25.5 -62t-60.5 -26z" />
    <glyph glyph-name="cedilla" unicode="&#xb8;" horiz-adv-x="1239" vert-adv-y="2130" 
d="M498 -380v106q39 -1 70.5 19.5t42.5 53.5h-113v212h105v-107h118v-82q0 -84 -65 -143t-158 -59z" />
    <glyph glyph-name="uni00B9" unicode="&#xb9;" horiz-adv-x="390" vert-adv-y="1700" 
d="M317 1422v-527h-117v356l-38 -29l-81 85l149 115h87z" />
    <glyph glyph-name="ordmasculine" unicode="&#xba;" horiz-adv-x="727" vert-adv-y="2130" 
d="M363 836q-118 0 -196.5 82.5t-78.5 206.5t78.5 206t196.5 82t196.5 -82t78.5 -206q0 -125 -78.5 -207t-196.5 -82zM363 946q71 0 118 51t47 128t-47 127.5t-118 50.5t-118.5 -51t-47.5 -127t47.5 -127.5t118.5 -51.5z" />
    <glyph glyph-name="guillemotright" unicode="&#xbb;" horiz-adv-x="1098" vert-adv-y="1700" 
d="M261 903l411 -410l-412 -411l-93 94l317 317l-317 316zM548 903l411 -410l-411 -411l-93 94l317 317l-317 316z" />
    <glyph glyph-name="questiondown" unicode="&#xbf;" horiz-adv-x="1194" vert-adv-y="2130" 
d="M680 1207q-37 0 -63 25.5t-26 61.5t26 62t63 26q35 0 60.5 -26t25.5 -62t-25.5 -61.5t-60.5 -25.5zM614 0q-212 0 -353.5 108t-141.5 270q0 63 26 124.5t65 108t96 93t105.5 77t107.5 62.5q31 16 41.5 23t26 23.5t19.5 39t4 58.5v147h135l-1 -148q0 -50 -5.5 -82.5
t-13 -55.5t-29.5 -43.5t-42 -34t-65 -40.5q-43 -25 -70.5 -42t-73 -47.5t-74.5 -57.5t-59 -61t-45 -70t-15 -73q0 -107 102.5 -176.5t257.5 -69.5q144 0 233 74t96 199h131q-7 -183 -133.5 -294.5t-324.5 -111.5z" />
    <glyph glyph-name="Agrave" unicode="&#xc0;" horiz-adv-x="1613" vert-adv-y="2130" 
d="M718 1855l310 -251l-85 -103l-309 249zM473 387l-190 -387h-149l673 1388l672 -1388h-149l-190 387h-667zM1076 531l-270 557l-269 -557h539z" />
    <glyph glyph-name="Aacute" unicode="&#xc1;" horiz-adv-x="1613" vert-adv-y="2130" 
d="M917 1855l87 -104l-309 -250l-85 103zM473 387l-190 -387h-149l673 1388l672 -1388h-149l-190 387h-667zM1076 531l-270 557l-269 -557h539z" />
    <glyph glyph-name="Acircumflex" unicode="&#xc2;" horiz-adv-x="1613" vert-adv-y="2130" 
d="M995 1523l-189 140l-188 -140l-86 103l275 207l273 -207zM473 387l-190 -387h-149l673 1388l672 -1388h-149l-190 387h-667zM1076 531l-270 557l-269 -557h539z" />
    <glyph glyph-name="Atilde" unicode="&#xc3;" horiz-adv-x="1613" vert-adv-y="2130" 
d="M708 1603l-65 -64l-95 94l66 64q59 59 119 59t120 -58q19 -17 27 -17t25 17l65 64l95 -96l-66 -63q-60 -58 -119 -58q-60 0 -120 58q-17 15 -27 15q-11 0 -25 -15zM473 387l-190 -387h-149l673 1388l672 -1388h-149l-190 387h-667zM1076 531l-270 557l-269 -557h539z" />
    <glyph glyph-name="Adieresis" unicode="&#xc4;" horiz-adv-x="1613" vert-adv-y="2130" 
d="M675 1537q-36 0 -62 26.5t-26 61.5q0 37 26 63.5t62 26.5q37 0 63.5 -26.5t26.5 -63.5q0 -35 -26.5 -61.5t-63.5 -26.5zM940 1537q-37 0 -63.5 26t-26.5 62q0 37 26.5 63.5t63.5 26.5q35 0 61 -26.5t26 -63.5q0 -35 -26 -61.5t-61 -26.5zM473 387l-190 -387h-149
l673 1388l672 -1388h-149l-190 387h-667zM1076 531l-270 557l-269 -557h539z" />
    <glyph glyph-name="Aring" unicode="&#xc5;" horiz-adv-x="1613" vert-adv-y="2130" 
d="M807 1510q-73 0 -124 51.5t-51 124.5t51 124.5t124 51.5t124.5 -51.5t51.5 -124.5t-51.5 -124.5t-124.5 -51.5zM808 1627q24 0 41 17.5t17 41.5t-17 41.5t-41 17.5q-25 0 -42 -17.5t-17 -41.5t17 -41.5t42 -17.5zM473 387l-190 -387h-149l673 1388l672 -1388h-149
l-190 387h-667zM1076 531l-270 557l-269 -557h539z" />
    <glyph glyph-name="AE" unicode="&#xc6;" horiz-adv-x="1961" vert-adv-y="2130" 
d="M474 404l-191 -404h-149l653 1390h1049v-135h-925v-493h868v-134h-868v-493h925v-135h-1059v404h-303zM777 539v505l-240 -505h240z" />
    <glyph glyph-name="Ccedilla" unicode="&#xc7;" horiz-adv-x="1608" vert-adv-y="2130" 
d="M679 -378v106q39 -1 70.5 19.5t42.5 53.5h-113v190q-241 58 -397.5 254t-156.5 450q0 148 57.5 282.5t154.5 231t231 153.5t281 57q185 0 352 -95.5t276 -263.5l-108 -79q-95 142 -232.5 223t-287.5 81q-160 0 -295.5 -79t-214.5 -215t-79 -296t79 -296t214.5 -215
t295.5 -79q149 0 286.5 80.5t232.5 223.5l108 -79q-109 -169 -275.5 -264t-351.5 -95q-33 0 -65 3v-68h118v-82q0 -84 -65 -143t-158 -59z" />
    <glyph glyph-name="Egrave" unicode="&#xc8;" horiz-adv-x="1309" vert-adv-y="2130" 
d="M543 1855l310 -251l-88 -103l-307 249zM1184 135v-135h-1059v1390h1059v-135h-924v-493h868v-134h-868v-493h924z" />
    <glyph glyph-name="Eacute" unicode="&#xc9;" horiz-adv-x="1309" vert-adv-y="2130" 
d="M765 1855l87 -104l-309 -250l-85 103zM1184 135v-135h-1059v1390h1059v-135h-924v-493h868v-134h-868v-493h924z" />
    <glyph glyph-name="Ecircumflex" unicode="&#xca;" horiz-adv-x="1309" vert-adv-y="2130" 
d="M843 1523l-187 140l-187 -140l-89 102l276 208l274 -208zM1184 135v-135h-1059v1390h1059v-135h-924v-493h868v-134h-868v-493h924z" />
    <glyph glyph-name="Edieresis" unicode="&#xcb;" horiz-adv-x="1309" vert-adv-y="2130" 
d="M524 1537q-37 0 -63.5 26t-26.5 62q0 37 26.5 63.5t63.5 26.5q35 0 61.5 -26.5t26.5 -63.5q0 -35 -26.5 -61.5t-61.5 -26.5zM787 1537q-37 0 -63.5 26t-26.5 62q0 37 26.5 63.5t63.5 26.5q35 0 61.5 -26.5t26.5 -63.5q0 -35 -26.5 -61.5t-61.5 -26.5zM1184 135v-135
h-1059v1390h1059v-135h-924v-493h868v-134h-868v-493h924z" />
    <glyph glyph-name="Igrave" unicode="&#xcc;" horiz-adv-x="406" vert-adv-y="2130" 
d="M90 1855l310 -251l-86 -103l-308 249zM270 1390v-1390h-135v1390h135z" />
    <glyph glyph-name="Iacute" unicode="&#xcd;" horiz-adv-x="406" vert-adv-y="2130" 
d="M314 1855l86 -105l-310 -249l-84 103zM270 1390v-1390h-135v1390h135z" />
    <glyph glyph-name="Icircumflex" unicode="&#xce;" horiz-adv-x="399" vert-adv-y="2130" 
d="M387 1523l-188 140l-187 -140l-87 102l274 208l275 -208zM267 1390v-1390h-136v1390h136z" />
    <glyph glyph-name="Idieresis" unicode="&#xcf;" horiz-adv-x="363" vert-adv-y="2130" 
d="M50 1537q-36 0 -62.5 26.5t-26.5 61.5q0 37 26 63.5t63 26.5t63 -26.5t26 -63.5q0 -35 -26.5 -61.5t-62.5 -26.5zM314 1537q-37 0 -63.5 26t-26.5 62q0 37 26.5 63.5t63.5 26.5q35 0 61.5 -26.5t26.5 -63.5q0 -35 -26.5 -61.5t-61.5 -26.5zM249 1390v-1390h-134v1390h134
z" />
    <glyph glyph-name="Ntilde" unicode="&#xd1;" vert-adv-y="2130" 
d="M595 1603l-62 -64l-98 94l66 64q59 59 119 59q61 0 121 -58q19 -17 26 -17q8 0 27 17l63 64l96 -96l-66 -63q-60 -58 -119 -58q-60 0 -120 58q-15 15 -27 15q-9 0 -26 -15zM260 1028v-1028h-135v1388l1004 -1038v1040h135v-1390z" />
    <glyph glyph-name="Ograve" unicode="&#xd2;" horiz-adv-x="1700" vert-adv-y="2130" 
d="M739 1855l309 -251l-87 -103l-308 249zM849 -29q-147 0 -281 57t-231 153.5t-154.5 231t-57.5 282.5t57.5 282.5t154.5 231t231 153.5t281 57q148 0 282.5 -57t232 -154t155 -231t57.5 -282t-57.5 -282t-155 -231t-232 -154t-282.5 -57zM849 105q161 0 297 79t215 215
t79 296t-79 296t-215 215t-297 79q-160 0 -295.5 -79t-214.5 -215t-79 -296t79 -296t214.5 -215t295.5 -79z" />
    <glyph glyph-name="Oacute" unicode="&#xd3;" horiz-adv-x="1700" vert-adv-y="2130" 
d="M961 1855l87 -104l-309 -250l-86 103zM849 -29q-147 0 -281 57t-231 153.5t-154.5 231t-57.5 282.5t57.5 282.5t154.5 231t231 153.5t281 57q148 0 282.5 -57t232 -154t155 -231t57.5 -282t-57.5 -282t-155 -231t-232 -154t-282.5 -57zM849 105q161 0 297 79t215 215
t79 296t-79 296t-215 215t-297 79q-160 0 -295.5 -79t-214.5 -215t-79 -296t79 -296t214.5 -215t295.5 -79z" />
    <glyph glyph-name="Ocircumflex" unicode="&#xd4;" horiz-adv-x="1700" vert-adv-y="2130" 
d="M1036 1523l-187 140l-187 -140l-87 102l274 208l276 -208zM849 -29q-147 0 -281 57t-231 153.5t-154.5 231t-57.5 282.5t57.5 282.5t154.5 231t231 153.5t281 57q148 0 282.5 -57t232 -154t155 -231t57.5 -282t-57.5 -282t-155 -231t-232 -154t-282.5 -57zM849 105
q161 0 297 79t215 215t79 296t-79 296t-215 215t-297 79q-160 0 -295.5 -79t-214.5 -215t-79 -296t79 -296t214.5 -215t295.5 -79z" />
    <glyph glyph-name="Otilde" unicode="&#xd5;" horiz-adv-x="1700" vert-adv-y="2130" 
d="M750 1603l-63 -64l-96 94l67 65q58 58 119 58q59 0 119 -58q19 -17 28 -17q8 0 25 17l62 64l98 -96l-66 -63q-60 -58 -119 -58q-62 0 -120 58q-18 15 -27 15t-27 -15zM849 -29q-147 0 -281 57t-231 153.5t-154.5 231t-57.5 282.5t57.5 282.5t154.5 231t231 153.5t281 57
q148 0 282.5 -57t232 -154t155 -231t57.5 -282t-57.5 -282t-155 -231t-232 -154t-282.5 -57zM849 105q161 0 297 79t215 215t79 296t-79 296t-215 215t-297 79q-160 0 -295.5 -79t-214.5 -215t-79 -296t79 -296t214.5 -215t295.5 -79z" />
    <glyph glyph-name="Odieresis" unicode="&#xd6;" horiz-adv-x="1700" vert-adv-y="2130" 
d="M718 1537q-35 0 -61.5 26.5t-26.5 61.5q0 37 26.5 63.5t61.5 26.5q37 0 63.5 -26.5t26.5 -63.5q0 -36 -26.5 -62t-63.5 -26zM981 1537q-35 0 -61.5 26.5t-26.5 61.5q0 37 26.5 63.5t61.5 26.5q37 0 63.5 -26.5t26.5 -63.5q0 -36 -26.5 -62t-63.5 -26zM849 -29
q-147 0 -281 57t-231 153.5t-154.5 231t-57.5 282.5t57.5 282.5t154.5 231t231 153.5t281 57q148 0 282.5 -57t232 -154t155 -231t57.5 -282t-57.5 -282t-155 -231t-232 -154t-282.5 -57zM849 105q161 0 297 79t215 215t79 296t-79 296t-215 215t-297 79q-160 0 -295.5 -79
t-214.5 -215t-79 -296t79 -296t214.5 -215t295.5 -79z" />
    <glyph glyph-name="multiply" unicode="&#xd7;" horiz-adv-x="1039" vert-adv-y="2130" 
d="M754 275l-235 235l-234 -235l-94 94l235 234l-235 235l94 94l234 -235l235 235l94 -94l-236 -235l236 -234z" />
    <glyph glyph-name="Oslash" unicode="&#xd8;" horiz-adv-x="1700" vert-adv-y="2130" 
d="M672 -8l-23 -66h-144l40 111q-191 89 -305.5 267.5t-114.5 390.5q0 148 57.5 282.5t154.5 231t231 153.5t281 57q95 0 178 -21l24 66h145l-41 -112q191 -89 306 -267t115 -390q0 -148 -57.5 -282t-155 -231t-232 -154t-282.5 -57q-93 0 -177 21zM590 165l392 1104
q-69 16 -133 16q-160 0 -295.5 -79t-214.5 -215t-79 -296q0 -172 88.5 -314.5t241.5 -215.5zM849 105q161 0 297 79t215 215t79 296q0 172 -88.5 314.5t-241.5 215.5l-392 -1104q69 -16 131 -16z" />
    <glyph glyph-name="Ugrave" unicode="&#xd9;" vert-adv-y="2130" 
d="M582 1855l310 -251l-88 -103l-306 249zM695 -29q-155 0 -286.5 76t-207.5 206.5t-76 285.5v851h135v-851q0 -179 127.5 -306.5t307.5 -127.5t307 127.5t127 306.5v851h135v-851q0 -154 -76.5 -285t-207.5 -207t-285 -76z" />
    <glyph glyph-name="Uacute" unicode="&#xda;" vert-adv-y="2130" 
d="M804 1855l88 -104l-310 -250l-84 103zM695 -29q-155 0 -286.5 76t-207.5 206.5t-76 285.5v851h135v-851q0 -179 127.5 -306.5t307.5 -127.5t307 127.5t127 306.5v851h135v-851q0 -154 -76.5 -285t-207.5 -207t-285 -76z" />
    <glyph glyph-name="Ucircumflex" unicode="&#xdb;" vert-adv-y="2130" 
d="M882 1523l-187 140l-187 -140l-88 102l275 208l274 -208zM695 -29q-155 0 -286.5 76t-207.5 206.5t-76 285.5v851h135v-851q0 -179 127.5 -306.5t307.5 -127.5t307 127.5t127 306.5v851h135v-851q0 -154 -76.5 -285t-207.5 -207t-285 -76z" />
    <glyph glyph-name="Udieresis" unicode="&#xdc;" vert-adv-y="2130" 
d="M564 1537q-37 0 -63.5 26t-26.5 62q0 37 26.5 63.5t63.5 26.5q35 0 61.5 -26.5t26.5 -63.5q0 -35 -26.5 -61.5t-61.5 -26.5zM827 1537q-37 0 -63.5 26t-26.5 62q0 37 26.5 63.5t63.5 26.5q35 0 61.5 -26.5t26.5 -63.5q0 -35 -26.5 -61.5t-61.5 -26.5zM695 -29
q-155 0 -286.5 76t-207.5 206.5t-76 285.5v851h135v-851q0 -179 127.5 -306.5t307.5 -127.5t307 127.5t127 306.5v851h135v-851q0 -154 -76.5 -285t-207.5 -207t-285 -76z" />
    <glyph glyph-name="Yacute" unicode="&#xdd;" horiz-adv-x="1547" vert-adv-y="2130" 
d="M914 1855l87 -105l-310 -249l-86 103zM871 539v-539h-135v539l-597 851h167l497 -718l499 718h166z" />
    <glyph glyph-name="germandbls" unicode="&#xdf;" horiz-adv-x="1313" vert-adv-y="1700" 
d="M279 1004v-1300h-133v1324q11 161 152.5 260.5t358.5 99.5q226 0 367 -106.5t141 -274.5q0 -96 -50 -177t-140 -133l-23 10q111 -50 174 -140t63 -201q0 -174 -157.5 -284.5t-403.5 -113.5v132q188 2 307.5 75.5t119.5 188.5q0 106 -100 186.5t-263 84.5l-13 -1l-140 -2
v123l139 -4h12q161 0 254 76t93 182q0 111 -105 180.5t-276 69.5q-168 0 -272.5 -71t-104.5 -184z" />
    <glyph glyph-name="agrave" unicode="&#xe0;" horiz-adv-x="1032" vert-adv-y="2130" 
d="M431 1422l302 -244l-85 -102l-300 243zM520 -17q-165 0 -280 91.5t-115 220.5q0 135 125 228.5t302 93.5h221v32q-9 83 -71 137t-162 54q-62 0 -119.5 -22.5t-101.5 -73t-50 -120.5h-134q7 82 45.5 149.5t95.5 110t125.5 65.5t139.5 23q170 0 267.5 -93.5t97.5 -252.5
v-626h-133v65q-104 -82 -253 -82zM516 114q98 0 172.5 52.5t84.5 125.5v193h-221q-122 0 -208 -54.5t-86 -133.5q0 -74 76 -128.5t182 -54.5z" />
    <glyph glyph-name="aacute" unicode="&#xe1;" horiz-adv-x="1032" vert-adv-y="2130" 
d="M625 1422l84 -103l-302 -244l-83 103zM520 -17q-165 0 -280 91.5t-115 220.5q0 135 125 228.5t302 93.5h221v32q-9 83 -71 137t-162 54q-62 0 -119.5 -22.5t-101.5 -73t-50 -120.5h-134q7 82 45.5 149.5t95.5 110t125.5 65.5t139.5 23q170 0 267.5 -93.5t97.5 -252.5
v-626h-133v65q-104 -82 -253 -82zM516 114q98 0 172.5 52.5t84.5 125.5v193h-221q-122 0 -208 -54.5t-86 -133.5q0 -74 76 -128.5t182 -54.5z" />
    <glyph glyph-name="acircumflex" unicode="&#xe2;" horiz-adv-x="1032" vert-adv-y="2130" 
d="M700 1097l-184 137l-182 -137l-86 102l268 202l268 -202zM520 -17q-165 0 -280 91.5t-115 220.5q0 135 125 228.5t302 93.5h221v32q-9 83 -71 137t-162 54q-62 0 -119.5 -22.5t-101.5 -73t-50 -120.5h-134q7 82 45.5 149.5t95.5 110t125.5 65.5t139.5 23
q170 0 267.5 -93.5t97.5 -252.5v-626h-133v65q-104 -82 -253 -82zM516 114q98 0 172.5 52.5t84.5 125.5v193h-221q-122 0 -208 -54.5t-86 -133.5q0 -74 76 -128.5t182 -54.5z" />
    <glyph glyph-name="atilde" unicode="&#xe3;" horiz-adv-x="1032" vert-adv-y="2130" 
d="M420 1176l-61 -64l-95 95l64 62q59 57 116 57q59 0 118 -57q19 -15 26 -15q9 0 24 15l63 64l94 -95l-65 -62q-60 -58 -116 -58q-57 0 -117 58q-17 15 -25 15q-11 -2 -26 -15zM520 -17q-165 0 -280 91.5t-115 220.5q0 135 125 228.5t302 93.5h221v32q-9 83 -71 137
t-162 54q-62 0 -119.5 -22.5t-101.5 -73t-50 -120.5h-134q7 82 45.5 149.5t95.5 110t125.5 65.5t139.5 23q170 0 267.5 -93.5t97.5 -252.5v-626h-133v65q-104 -82 -253 -82zM516 114q98 0 172.5 52.5t84.5 125.5v193h-221q-122 0 -208 -54.5t-86 -133.5q0 -74 76 -128.5
t182 -54.5z" />
    <glyph glyph-name="adieresis" unicode="&#xe4;" horiz-adv-x="1032" vert-adv-y="2130" 
d="M388 1111q-36 0 -62 26.5t-26 61.5t26 61t62 26q35 0 61 -26t26 -61t-26 -61.5t-61 -26.5zM644 1111q-35 0 -61.5 26.5t-26.5 61.5t26.5 61t61.5 26t61 -26t26 -61t-26 -61.5t-61 -26.5zM520 -17q-165 0 -280 91.5t-115 220.5q0 135 125 228.5t302 93.5h221v32
q-9 83 -71 137t-162 54q-62 0 -119.5 -22.5t-101.5 -73t-50 -120.5h-134q7 82 45.5 149.5t95.5 110t125.5 65.5t139.5 23q170 0 267.5 -93.5t97.5 -252.5v-626h-133v65q-104 -82 -253 -82zM516 114q98 0 172.5 52.5t84.5 125.5v193h-221q-122 0 -208 -54.5t-86 -133.5
q0 -74 76 -128.5t182 -54.5z" />
    <glyph glyph-name="aring" unicode="&#xe5;" horiz-adv-x="1032" vert-adv-y="2130" 
d="M515 1081q-73 0 -124 51.5t-51 124.5t51 124.5t124 51.5t124.5 -51.5t51.5 -124.5t-51.5 -124.5t-124.5 -51.5zM516 1198q24 0 41 17.5t17 41.5t-17 41.5t-41 17.5q-25 0 -42 -17.5t-17 -41.5t17 -41.5t42 -17.5zM520 -17q-165 0 -280 91.5t-115 220.5q0 135 125 228.5
t302 93.5h221v32q-9 83 -71 137t-162 54q-62 0 -119.5 -22.5t-101.5 -73t-50 -120.5h-134q7 82 45.5 149.5t95.5 110t125.5 65.5t139.5 23q170 0 267.5 -93.5t97.5 -252.5v-626h-133v65q-104 -82 -253 -82zM516 114q98 0 172.5 52.5t84.5 125.5v193h-221q-122 0 -208 -54.5
t-86 -133.5q0 -74 76 -128.5t182 -54.5z" />
    <glyph glyph-name="ae" unicode="&#xe6;" horiz-adv-x="1850" vert-adv-y="2130" 
d="M520 -17q-165 0 -280 91.5t-115 220.5q0 135 125 228.5t302 93.5h221v32q-9 83 -71 137t-162 54q-62 0 -119.5 -22.5t-101.5 -73t-50 -120.5h-134q7 81 45.5 148.5t95.5 110t125.5 66t138.5 23.5q117 0 202 -45.5t128 -130.5q64 89 162.5 140.5t217.5 51.5
q200 -1 335 -152t140 -381h-818q17 -143 113.5 -242t228.5 -99q113 0 204.5 77t132.5 207l126 -43q-53 -170 -179 -271t-284 -101q-208 0 -344 147v-130h-132v65q-104 -82 -253 -82zM918 588h661q-30 119 -120.5 193.5t-209.5 74.5t-209.5 -74.5t-121.5 -193.5zM516 114
q98 0 172.5 52.5t84.5 125.5v193h-221q-122 0 -208 -54.5t-86 -133.5q0 -74 76 -128.5t182 -54.5z" />
    <glyph glyph-name="ccedilla" unicode="&#xe7;" horiz-adv-x="1146" vert-adv-y="2130" 
d="M455 -380v106q39 -1 70.5 19.5t42.5 53.5h-113v206q-149 46 -239.5 176t-90.5 304q0 217 135.5 360t339.5 143q121 0 230 -64t185 -180l-111 -73q-58 87 -138.5 136t-165.5 49q-147 0 -244.5 -106t-97.5 -265t97.5 -265t244.5 -106q85 0 165.5 49t138.5 136l111 -73
q-75 -116 -184.5 -179.5t-230.5 -63.5q-14 0 -40 2v-81h118v-82q0 -84 -65 -143t-158 -59z" />
    <glyph glyph-name="egrave" unicode="&#xe8;" horiz-adv-x="1202" vert-adv-y="2130" 
d="M493 1422l301 -244l-85 -102l-300 243zM600 -17q-204 0 -339.5 143t-135.5 359q0 217 135 360t340 143q203 0 337.5 -153t139.5 -380h-819q13 -146 109 -243.5t233 -97.5q108 0 196 69t132 188l126 -44q-59 -159 -180.5 -251.5t-273.5 -92.5zM271 588h659
q-30 119 -120.5 193.5t-209.5 74.5t-209 -74.5t-120 -193.5z" />
    <glyph glyph-name="eacute" unicode="&#xe9;" horiz-adv-x="1202" vert-adv-y="2130" 
d="M709 1422l85 -103l-301 -243l-84 102zM600 -17q-204 0 -339.5 143t-135.5 359q0 217 135 360t340 143q203 0 337.5 -153t139.5 -380h-819q13 -146 109 -243.5t233 -97.5q108 0 196 69t132 188l126 -44q-59 -159 -180.5 -251.5t-273.5 -92.5zM271 588h659
q-30 119 -120.5 193.5t-209.5 74.5t-209 -74.5t-120 -193.5z" />
    <glyph glyph-name="ecircumflex" unicode="&#xea;" horiz-adv-x="1202" vert-adv-y="2130" 
d="M784 1097l-184 137l-181 -137l-85 102l266 202l269 -202zM600 -17q-204 0 -339.5 143t-135.5 359q0 217 135 360t340 143q203 0 337.5 -153t139.5 -380h-819q13 -146 109 -243.5t233 -97.5q108 0 196 69t132 188l126 -44q-59 -159 -180.5 -251.5t-273.5 -92.5zM271 588
h659q-30 119 -120.5 193.5t-209.5 74.5t-209 -74.5t-120 -193.5z" />
    <glyph glyph-name="edieresis" unicode="&#xeb;" horiz-adv-x="1202" vert-adv-y="2130" 
d="M473 1111q-36 0 -62 26.5t-26 61.5t25.5 61t62.5 26q35 0 61 -26t26 -61t-26 -61.5t-61 -26.5zM728 1111q-35 0 -60.5 26.5t-25.5 61.5t25.5 61t60.5 26t61.5 -26t26.5 -61t-26.5 -61.5t-61.5 -26.5zM600 -17q-204 0 -339.5 143t-135.5 359q0 217 135 360t340 143
q203 0 337.5 -153t139.5 -380h-819q13 -146 109 -243.5t233 -97.5q108 0 196 69t132 188l126 -44q-59 -159 -180.5 -251.5t-273.5 -92.5zM271 588h659q-30 119 -120.5 193.5t-209.5 74.5t-209 -74.5t-120 -193.5z" />
    <glyph glyph-name="igrave" unicode="&#xec;" horiz-adv-x="444" vert-adv-y="2130" 
d="M112 1422l304 -245l-87 -101l-300 243zM288 970v-970h-134v970h134z" />
    <glyph glyph-name="iacute" unicode="&#xed;" horiz-adv-x="444" vert-adv-y="2130" 
d="M329 1422l86 -103l-303 -244l-83 103zM288 970v-970h-134v970h134z" />
    <glyph glyph-name="icircumflex" unicode="&#xee;" horiz-adv-x="431" vert-adv-y="2130" 
d="M399 1097l-183 137l-183 -137l-85 102l268 202l267 -202zM282 970v-970h-134v970h134z" />
    <glyph glyph-name="idieresis" unicode="&#xef;" horiz-adv-x="399" vert-adv-y="2130" 
d="M72 1111q-36 0 -62 26.5t-26 61.5t26 61t62 26q35 0 60.5 -26t25.5 -61t-25.5 -61.5t-60.5 -26.5zM328 1111q-35 0 -61.5 26.5t-26.5 61.5t26.5 61t61.5 26t60.5 -26t25.5 -61t-26 -61.5t-60 -26.5zM266 970v-970h-133v970h133z" />
    <glyph glyph-name="ntilde" unicode="&#xf1;" horiz-adv-x="995" vert-adv-y="2130" 
d="M402 1176l-62 -64l-94 95l65 62q57 57 116 57q57 0 117 -57q17 -15 24 -15q9 0 26 15l61 64l96 -95l-65 -62q-58 -58 -117 -58q-56 0 -117 58q-17 15 -25 15t-25 -15zM259 617v-617h-134v968h133v-67q101 87 240 87q155 0 263.5 -108t108.5 -263v-617h-133v617
q0 99 -69.5 169t-168.5 70q-100 0 -170 -70t-70 -169z" />
    <glyph glyph-name="ograve" unicode="&#xf2;" horiz-adv-x="1202" vert-adv-y="2130" 
d="M493 1422l301 -244l-85 -102l-300 243zM600 -17q-204 0 -339.5 143t-135.5 359q0 217 135.5 360t339.5 143q206 0 342 -143t136 -360t-136 -359.5t-342 -142.5zM600 114q148 0 246 106t98 265t-98 265t-246 106q-147 0 -244.5 -106t-97.5 -265t97.5 -265t244.5 -106z" />
    <glyph glyph-name="oacute" unicode="&#xf3;" horiz-adv-x="1202" vert-adv-y="2130" 
d="M709 1422l85 -103l-301 -243l-84 102zM600 -17q-204 0 -339.5 143t-135.5 359q0 217 135.5 360t339.5 143q206 0 342 -143t136 -360t-136 -359.5t-342 -142.5zM600 114q148 0 246 106t98 265t-98 265t-246 106q-147 0 -244.5 -106t-97.5 -265t97.5 -265t244.5 -106z" />
    <glyph glyph-name="ocircumflex" unicode="&#xf4;" horiz-adv-x="1202" vert-adv-y="2130" 
d="M784 1097l-184 137l-181 -137l-85 102l266 202l269 -202zM600 -17q-204 0 -339.5 143t-135.5 359q0 217 135.5 360t339.5 143q206 0 342 -143t136 -360t-136 -359.5t-342 -142.5zM600 114q148 0 246 106t98 265t-98 265t-246 106q-147 0 -244.5 -106t-97.5 -265
t97.5 -265t244.5 -106z" />
    <glyph glyph-name="otilde" unicode="&#xf5;" horiz-adv-x="1202" vert-adv-y="2130" 
d="M505 1176l-61 -64l-96 95l65 62q57 57 117 57q57 0 116 -57q19 -15 26 -15q9 0 24 15l63 64l94 -95l-64 -62q-60 -58 -117 -58t-117 58q-17 15 -24 15q-9 -1 -26 -15zM600 -17q-204 0 -339.5 143t-135.5 359q0 217 135.5 360t339.5 143q206 0 342 -143t136 -360
t-136 -359.5t-342 -142.5zM600 114q148 0 246 106t98 265t-98 265t-246 106q-147 0 -244.5 -106t-97.5 -265t97.5 -265t244.5 -106z" />
    <glyph glyph-name="odieresis" unicode="&#xf6;" horiz-adv-x="1202" vert-adv-y="2130" 
d="M474 1111q-36 0 -62 26.5t-26 61.5t26 61t62 26q35 0 61 -26t26 -61t-26 -61.5t-61 -26.5zM729 1111q-35 0 -61 26.5t-26 61.5t26 61t61 26t61.5 -26t26.5 -61t-26.5 -61.5t-61.5 -26.5zM600 -17q-204 0 -339.5 143t-135.5 359q0 217 135.5 360t339.5 143q206 0 342 -143
t136 -360t-136 -359.5t-342 -142.5zM600 114q148 0 246 106t98 265t-98 265t-246 106q-147 0 -244.5 -106t-97.5 -265t97.5 -265t244.5 -106z" />
    <glyph glyph-name="divide" unicode="&#xf7;" horiz-adv-x="1181" vert-adv-y="2130" 
d="M590 796q-35 0 -61 25.5t-26 61.5q0 35 26 61t61 26t61.5 -26t26.5 -61q0 -36 -26 -61.5t-62 -25.5zM989 670v-133h-796v133h796zM590 259q-36 0 -61.5 25.5t-25.5 61.5q0 35 26 61t61 26t61.5 -26t26.5 -61q0 -36 -26 -61.5t-62 -25.5z" />
    <glyph glyph-name="oslash" unicode="&#xf8;" horiz-adv-x="1202" vert-adv-y="2130" 
d="M437 11l-30 -85h-143l53 149q-90 68 -141 174.5t-51 235.5q0 217 135.5 360t339.5 143q14 0 40 -2l43 122h142l-53 -151q139 -52 222.5 -179t83.5 -293q0 -217 -136 -359.5t-342 -142.5q-85 0 -163 28zM365 211l229 645q-145 -2 -240.5 -108t-95.5 -263q0 -169 107 -274z
M600 114q148 0 246 106t98 265q0 120 -59 213.5t-158 133.5l-246 -697q55 -21 119 -21z" />
    <glyph glyph-name="ugrave" unicode="&#xf9;" horiz-adv-x="995" vert-adv-y="2130" 
d="M389 1422l303 -245l-87 -101l-299 243zM499 -18q-156 0 -265 108t-109 263v616h133v-616q0 -99 70 -169.5t170 -70.5q99 0 169 70.5t70 169.5v616h133v-968h-133v67q-98 -86 -238 -86z" />
    <glyph glyph-name="uacute" unicode="&#xfa;" horiz-adv-x="995" vert-adv-y="2130" 
d="M605 1422l86 -103l-302 -244l-83 103zM499 -18q-156 0 -265 108t-109 263v616h133v-616q0 -99 70 -169.5t170 -70.5q99 0 169 70.5t70 169.5v616h133v-968h-133v67q-98 -86 -238 -86z" />
    <glyph glyph-name="ucircumflex" unicode="&#xfb;" horiz-adv-x="995" vert-adv-y="2130" 
d="M680 1097l-181 137l-184 -137l-84 102l268 202l267 -202zM499 -18q-156 0 -265 108t-109 263v616h133v-616q0 -99 70 -169.5t170 -70.5q99 0 169 70.5t70 169.5v616h133v-968h-133v67q-98 -86 -238 -86z" />
    <glyph glyph-name="udieresis" unicode="&#xfc;" horiz-adv-x="995" vert-adv-y="2130" 
d="M370 1111q-35 0 -61 26.5t-26 61.5t26 61t61 26q36 0 61.5 -26t25.5 -61t-25.5 -61.5t-61.5 -26.5zM627 1111q-36 0 -62.5 26.5t-26.5 61.5t26 61t63 26q35 0 60.5 -26t25.5 -61t-26 -61.5t-60 -26.5zM499 -18q-156 0 -265 108t-109 263v616h133v-616q0 -99 70 -169.5
t170 -70.5q99 0 169 70.5t70 169.5v616h133v-968h-133v67q-98 -86 -238 -86z" />
    <glyph glyph-name="yacute" unicode="&#xfd;" horiz-adv-x="1206" vert-adv-y="2130" 
d="M710 1422l86 -103l-302 -243l-84 102zM1072 970l-633 -1362h-135l232 494l-402 868h147l322 -716l322 716h147z" />
    <glyph glyph-name="ydieresis" unicode="&#xff;" horiz-adv-x="1206" vert-adv-y="2130" 
d="M475 1111q-35 0 -60.5 26.5t-25.5 61.5t25.5 61t60.5 26q36 0 62 -26t26 -61t-26 -61.5t-62 -26.5zM731 1111q-36 0 -61.5 26.5t-25.5 61.5t25.5 61t61.5 26q35 0 61 -26t26 -61t-26 -61.5t-61 -26.5zM1072 970l-633 -1362h-135l232 494l-402 868h147l322 -716l322 716
h147z" />
    <glyph glyph-name="Amacron" unicode="&#x100;" horiz-adv-x="1613" vert-adv-y="2130" 
d="M1033 1676v-136h-453v136h453zM473 387l-190 -387h-149l673 1388l672 -1388h-149l-190 387h-667zM1076 531l-270 557l-269 -557h539z" />
    <glyph glyph-name="amacron" unicode="&#x101;" horiz-adv-x="1032" vert-adv-y="2130" 
d="M737 1248v-133h-442v133h442zM520 -17q-165 0 -280 91.5t-115 220.5q0 135 125 228.5t302 93.5h221v32q-9 83 -71 137t-162 54q-62 0 -119.5 -22.5t-101.5 -73t-50 -120.5h-134q7 82 45.5 149.5t95.5 110t125.5 65.5t139.5 23q170 0 267.5 -93.5t97.5 -252.5v-626h-133
v65q-104 -82 -253 -82zM516 114q98 0 172.5 52.5t84.5 125.5v193h-221q-122 0 -208 -54.5t-86 -133.5q0 -74 76 -128.5t182 -54.5z" />
    <glyph glyph-name="Abreve" unicode="&#x102;" horiz-adv-x="1613" vert-adv-y="2130" 
d="M807 1517q-104 0 -179.5 84t-83.5 207h133q6 -66 43 -111t87 -45q49 0 86 45t43 111h134q-8 -123 -84 -207t-179 -84zM473 387l-190 -387h-149l673 1388l672 -1388h-149l-190 387h-667zM1076 531l-270 557l-269 -557h539z" />
    <glyph glyph-name="abreve" unicode="&#x103;" horiz-adv-x="1032" vert-adv-y="2130" 
d="M516 1092q-100 0 -174.5 82.5t-82.5 201.5h133q5 -64 41 -107.5t83 -43.5q48 0 84 43.5t41 107.5h132q-8 -119 -82.5 -201.5t-174.5 -82.5zM520 -17q-165 0 -280 91.5t-115 220.5q0 135 125 228.5t302 93.5h221v32q-9 83 -71 137t-162 54q-62 0 -119.5 -22.5t-101.5 -73
t-50 -120.5h-134q7 82 45.5 149.5t95.5 110t125.5 65.5t139.5 23q170 0 267.5 -93.5t97.5 -252.5v-626h-133v65q-104 -82 -253 -82zM516 114q98 0 172.5 52.5t84.5 125.5v193h-221q-122 0 -208 -54.5t-86 -133.5q0 -74 76 -128.5t182 -54.5z" />
    <glyph glyph-name="Cacute" unicode="&#x106;" horiz-adv-x="1608" vert-adv-y="2130" 
d="M907 1855l87 -104l-309 -250l-85 103zM849 -29q-147 0 -281 57t-231 153.5t-154.5 231t-57.5 282.5t57.5 282.5t154.5 231t231 153.5t281 57q185 0 352 -95.5t276 -263.5l-108 -79q-95 142 -232.5 223t-287.5 81q-160 0 -295.5 -79t-214.5 -215t-79 -296t79 -296
t214.5 -215t295.5 -79q149 0 286.5 80.5t232.5 223.5l108 -79q-109 -169 -275.5 -264t-351.5 -95z" />
    <glyph glyph-name="cacute" unicode="&#x107;" horiz-adv-x="1146" vert-adv-y="2130" 
d="M672 1422l85 -103l-301 -243l-84 102zM600 -17q-204 0 -339.5 143t-135.5 359q0 217 135.5 360t339.5 143q121 0 230 -64t185 -180l-111 -73q-58 87 -138.5 136t-165.5 49q-147 0 -244.5 -106t-97.5 -265t97.5 -265t244.5 -106q85 0 165.5 49t138.5 136l111 -73
q-75 -116 -184.5 -179.5t-230.5 -63.5z" />
    <glyph glyph-name="Ccircumflex" unicode="&#x108;" horiz-adv-x="1608" vert-adv-y="2130" 
d="M985 1523l-189 140l-188 -140l-86 103l276 207l272 -207zM849 -29q-147 0 -281 57t-231 153.5t-154.5 231t-57.5 282.5t57.5 282.5t154.5 231t231 153.5t281 57q185 0 352 -95.5t276 -263.5l-108 -79q-95 142 -232.5 223t-287.5 81q-160 0 -295.5 -79t-214.5 -215
t-79 -296t79 -296t214.5 -215t295.5 -79q149 0 286.5 80.5t232.5 223.5l108 -79q-109 -169 -275.5 -264t-351.5 -95z" />
    <glyph glyph-name="ccircumflex" unicode="&#x109;" horiz-adv-x="1146" vert-adv-y="2130" 
d="M747 1097l-183 137l-182 -137l-85 102l268 202l267 -202zM600 -17q-204 0 -339.5 143t-135.5 359q0 217 135.5 360t339.5 143q121 0 230 -64t185 -180l-111 -73q-58 87 -138.5 136t-165.5 49q-147 0 -244.5 -106t-97.5 -265t97.5 -265t244.5 -106q85 0 165.5 49
t138.5 136l111 -73q-75 -116 -184.5 -179.5t-230.5 -63.5z" />
    <glyph glyph-name="Cdotaccent" unicode="&#x10a;" horiz-adv-x="1608" vert-adv-y="2130" 
d="M796 1568q-36 0 -62 26t-26 63q0 36 26 62.5t62 26.5q37 0 63 -26.5t26 -62.5q0 -37 -26 -63t-63 -26zM849 -29q-147 0 -281 57t-231 153.5t-154.5 231t-57.5 282.5t57.5 282.5t154.5 231t231 153.5t281 57q185 0 352 -95.5t276 -263.5l-108 -79q-95 142 -232.5 223
t-287.5 81q-160 0 -295.5 -79t-214.5 -215t-79 -296t79 -296t214.5 -215t295.5 -79q149 0 286.5 80.5t232.5 223.5l108 -79q-109 -169 -275.5 -264t-351.5 -95z" />
    <glyph glyph-name="cdotaccent" unicode="&#x10b;" horiz-adv-x="1146" vert-adv-y="2130" 
d="M565 1142q-37 0 -62.5 25t-25.5 62q0 35 25.5 61t62.5 26q35 0 61 -26t26 -61q0 -36 -25.5 -61.5t-61.5 -25.5zM600 -17q-204 0 -339.5 143t-135.5 359q0 217 135.5 360t339.5 143q121 0 230 -64t185 -180l-111 -73q-58 87 -138.5 136t-165.5 49q-147 0 -244.5 -106
t-97.5 -265t97.5 -265t244.5 -106q85 0 165.5 49t138.5 136l111 -73q-75 -116 -184.5 -179.5t-230.5 -63.5z" />
    <glyph glyph-name="Ccaron" unicode="&#x10c;" horiz-adv-x="1608" vert-adv-y="2130" 
d="M985 1820l85 -103l-272 -207l-276 207l86 103l188 -142zM849 -29q-147 0 -281 57t-231 153.5t-154.5 231t-57.5 282.5t57.5 282.5t154.5 231t231 153.5t281 57q185 0 352 -95.5t276 -263.5l-108 -79q-95 142 -232.5 223t-287.5 81q-160 0 -295.5 -79t-214.5 -215
t-79 -296t79 -296t214.5 -215t295.5 -79q149 0 286.5 80.5t232.5 223.5l108 -79q-109 -169 -275.5 -264t-351.5 -95z" />
    <glyph glyph-name="ccaron" unicode="&#x10d;" horiz-adv-x="1146" vert-adv-y="2130" 
d="M747 1388l85 -101l-267 -202l-268 202l85 101l182 -137zM600 -17q-204 0 -339.5 143t-135.5 359q0 217 135.5 360t339.5 143q121 0 230 -64t185 -180l-111 -73q-58 87 -138.5 136t-165.5 49q-147 0 -244.5 -106t-97.5 -265t97.5 -265t244.5 -106q85 0 165.5 49t138.5 136
l111 -73q-75 -116 -184.5 -179.5t-230.5 -63.5z" />
    <glyph glyph-name="Emacron" unicode="&#x112;" horiz-adv-x="1309" vert-adv-y="2130" 
d="M882 1676v-136h-454v136h454zM1184 135v-135h-1059v1390h1059v-135h-924v-493h868v-134h-868v-493h924z" />
    <glyph glyph-name="emacron" unicode="&#x113;" horiz-adv-x="1202" vert-adv-y="2130" 
d="M822 1248v-133h-442v133h442zM600 -17q-204 0 -339.5 143t-135.5 359q0 217 135 360t340 143q203 0 337.5 -153t139.5 -380h-819q13 -146 109 -243.5t233 -97.5q108 0 196 69t132 188l126 -44q-59 -159 -180.5 -251.5t-273.5 -92.5zM271 588h659q-30 119 -120.5 193.5
t-209.5 74.5t-209 -74.5t-120 -193.5z" />
    <glyph glyph-name="Ebreve" unicode="&#x114;" horiz-adv-x="1309" vert-adv-y="2130" 
d="M656 1517q-103 0 -179.5 84.5t-84.5 206.5h134q5 -66 42.5 -111t87.5 -45q49 0 86 45t42 111h134q-8 -122 -83.5 -206.5t-178.5 -84.5zM1184 135v-135h-1059v1390h1059v-135h-924v-493h868v-134h-868v-493h924z" />
    <glyph glyph-name="ebreve" unicode="&#x115;" horiz-adv-x="1202" vert-adv-y="2130" 
d="M600 1092q-100 0 -174 82t-82 202h133q4 -64 40 -107.5t83 -43.5q48 0 84 43.5t42 107.5h132q-8 -119 -83 -201.5t-175 -82.5zM600 -17q-204 0 -339.5 143t-135.5 359q0 217 135 360t340 143q203 0 337.5 -153t139.5 -380h-819q13 -146 109 -243.5t233 -97.5
q108 0 196 69t132 188l126 -44q-59 -159 -180.5 -251.5t-273.5 -92.5zM271 588h659q-30 119 -120.5 193.5t-209.5 74.5t-209 -74.5t-120 -193.5z" />
    <glyph glyph-name="Edotaccent" unicode="&#x116;" horiz-adv-x="1309" vert-adv-y="2130" 
d="M656 1568q-37 0 -63.5 26t-26.5 63q0 36 26.5 62.5t63.5 26.5q35 0 61.5 -26.5t26.5 -62.5q0 -37 -26 -63t-62 -26zM1184 135v-135h-1059v1390h1059v-135h-924v-493h868v-134h-868v-493h924z" />
    <glyph glyph-name="edotaccent" unicode="&#x117;" horiz-adv-x="1202" vert-adv-y="2130" 
d="M600 1142q-36 0 -61 25t-25 62q0 35 25.5 61t60.5 26q36 0 62 -26t26 -61q0 -37 -25.5 -62t-62.5 -25zM600 -17q-204 0 -339.5 143t-135.5 359q0 217 135 360t340 143q203 0 337.5 -153t139.5 -380h-819q13 -146 109 -243.5t233 -97.5q108 0 196 69t132 188l126 -44
q-59 -159 -180.5 -251.5t-273.5 -92.5zM271 588h659q-30 119 -120.5 193.5t-209.5 74.5t-209 -74.5t-120 -193.5z" />
    <glyph glyph-name="Ecaron" unicode="&#x11a;" horiz-adv-x="1309" vert-adv-y="2130" 
d="M843 1820l87 -103l-274 -207l-276 207l88 103l188 -142zM1184 135v-135h-1059v1390h1059v-135h-924v-493h868v-134h-868v-493h924z" />
    <glyph glyph-name="ecaron" unicode="&#x11b;" horiz-adv-x="1202" vert-adv-y="2130" 
d="M784 1388l85 -101l-269 -202l-266 202l85 101l181 -137zM600 -17q-204 0 -339.5 143t-135.5 359q0 217 135 360t340 143q203 0 337.5 -153t139.5 -380h-819q13 -146 109 -243.5t233 -97.5q108 0 196 69t132 188l126 -44q-59 -159 -180.5 -251.5t-273.5 -92.5zM271 588
h659q-30 119 -120.5 193.5t-209.5 74.5t-209 -74.5t-120 -193.5z" />
    <glyph glyph-name="Gcircumflex" unicode="&#x11c;" horiz-adv-x="1603" vert-adv-y="2130" 
d="M985 1523l-189 140l-188 -140l-86 103l276 207l272 -207zM849 -29q-147 0 -281 57t-231 153.5t-154.5 231t-57.5 282.5t57.5 282.5t154.5 231t231 153.5t281 57q185 0 352 -95.5t276 -263.5l-108 -79q-95 142 -232.5 223t-287.5 81q-160 0 -295.5 -79t-214.5 -215
t-79 -296t79 -296t214.5 -215t295.5 -79q142 0 269.5 66t211.5 183v257h-575v135h710l1 -432q-102 -161 -266 -252t-351 -91z" />
    <glyph glyph-name="gcircumflex" unicode="&#x11d;" horiz-adv-x="1140" vert-adv-y="2130" 
d="M757 1097l-184 137l-181 -137l-86 102l267 202l268 -202zM591 -392q-148 0 -260.5 84.5t-166.5 235.5h139q38 -89 113.5 -138t175.5 -49q135 0 217 78.5t82 210.5v94q-125 -144 -322 -144q-190 0 -317 143t-127 359t127.5 360.5t316.5 144.5q196 0 322 -147v132h132v-933
q0 -196 -117 -313.5t-315 -117.5zM569 111q137 0 228 106t91 265t-91 265t-228 106q-136 0 -226 -106t-90 -265t90 -265t226 -106z" />
    <glyph glyph-name="Gbreve" unicode="&#x11e;" horiz-adv-x="1603" vert-adv-y="2130" 
d="M796 1517q-103 0 -179 84t-84 207h134q6 -66 43 -111t86 -45q50 0 87 45t43 111h134q-8 -123 -84 -207t-180 -84zM849 -29q-147 0 -281 57t-231 153.5t-154.5 231t-57.5 282.5t57.5 282.5t154.5 231t231 153.5t281 57q185 0 352 -95.5t276 -263.5l-108 -79
q-95 142 -232.5 223t-287.5 81q-160 0 -295.5 -79t-214.5 -215t-79 -296t79 -296t214.5 -215t295.5 -79q142 0 269.5 66t211.5 183v257h-575v135h710l1 -432q-102 -161 -266 -252t-351 -91z" />
    <glyph glyph-name="gbreve" unicode="&#x11f;" horiz-adv-x="1140" vert-adv-y="2130" 
d="M573 1092q-100 0 -174 82.5t-82 201.5h132q5 -64 41 -107.5t83 -43.5q48 0 84 43.5t41 107.5h133q-8 -119 -83 -201.5t-175 -82.5zM591 -392q-148 0 -260.5 84.5t-166.5 235.5h139q38 -89 113.5 -138t175.5 -49q135 0 217 78.5t82 210.5v94q-125 -144 -322 -144
q-190 0 -317 143t-127 359t127.5 360.5t316.5 144.5q196 0 322 -147v132h132v-933q0 -196 -117 -313.5t-315 -117.5zM569 111q137 0 228 106t91 265t-91 265t-228 106q-136 0 -226 -106t-90 -265t90 -265t226 -106z" />
    <glyph glyph-name="Gdotaccent" unicode="&#x120;" horiz-adv-x="1603" vert-adv-y="2130" 
d="M796 1568q-36 0 -62 26t-26 63q0 36 26 62.5t62 26.5q37 0 63 -26.5t26 -62.5q0 -37 -26 -63t-63 -26zM849 -29q-147 0 -281 57t-231 153.5t-154.5 231t-57.5 282.5t57.5 282.5t154.5 231t231 153.5t281 57q185 0 352 -95.5t276 -263.5l-108 -79q-95 142 -232.5 223
t-287.5 81q-160 0 -295.5 -79t-214.5 -215t-79 -296t79 -296t214.5 -215t295.5 -79q142 0 269.5 66t211.5 183v257h-575v135h710l1 -432q-102 -161 -266 -252t-351 -91z" />
    <glyph glyph-name="gdotaccent" unicode="&#x121;" horiz-adv-x="1140" vert-adv-y="2130" 
d="M573 1142q-36 0 -61.5 25.5t-25.5 61.5q0 35 26 61t61 26q36 0 62 -26t26 -61q0 -36 -26 -61.5t-62 -25.5zM591 -392q-148 0 -260.5 84.5t-166.5 235.5h139q38 -89 113.5 -138t175.5 -49q135 0 217 78.5t82 210.5v94q-125 -144 -322 -144q-190 0 -317 143t-127 359
t127.5 360.5t316.5 144.5q196 0 322 -147v132h132v-933q0 -196 -117 -313.5t-315 -117.5zM569 111q137 0 228 106t91 265t-91 265t-228 106q-136 0 -226 -106t-90 -265t90 -265t226 -106z" />
    <glyph glyph-name="Itilde" unicode="&#x128;" horiz-adv-x="399" vert-adv-y="2130" 
d="M100 1603l-62 -64l-97 94l66 64q59 59 119 59t120 -58q19 -17 27 -17t25 17l65 64l95 -96l-65 -63q-60 -58 -120 -58q-61 0 -119 58q-18 15 -27 15t-27 -15zM267 1390v-1390h-136v1390h136z" />
    <glyph glyph-name="itilde" unicode="&#x129;" horiz-adv-x="433" vert-adv-y="2130" 
d="M121 1176l-63 -64l-94 95l64 62q59 57 117 57t117 -57q19 -15 26 -15q9 0 24 15l62 64l95 -95l-65 -62q-60 -58 -116 -58q-59 0 -117 58q-17 15 -26 15t-24 -15zM282 970v-970h-131v970h131z" />
    <glyph glyph-name="Imacron" unicode="&#x12a;" horiz-adv-x="363" vert-adv-y="2130" 
d="M409 1676v-136h-454v136h454zM249 1390v-1390h-136v1390h136z" />
    <glyph glyph-name="imacron" unicode="&#x12b;" horiz-adv-x="398" vert-adv-y="2130" 
d="M420 1248v-133h-442v133h442zM266 970v-970h-133v970h133z" />
    <glyph glyph-name="Idotaccent" unicode="&#x130;" horiz-adv-x="382" vert-adv-y="2130" 
d="M191 1568q-37 0 -63 26t-26 63q0 36 26 62.5t63 26.5t63 -26.5t26 -62.5q0 -37 -26 -63t-63 -26zM258 1390v-1390h-133v1390h133z" />
    <glyph glyph-name="dotlessi" unicode="&#x131;" horiz-adv-x="429" vert-adv-y="2130" 
d="M281 970v-970h-133v970h133z" />
    <glyph glyph-name="Nacute" unicode="&#x143;" vert-adv-y="2130" 
d="M804 1855l88 -104l-310 -250l-84 103zM260 1028v-1028h-135v1388l1004 -1038v1040h135v-1390z" />
    <glyph glyph-name="nacute" unicode="&#x144;" horiz-adv-x="995" vert-adv-y="2130" 
d="M605 1422l86 -103l-302 -244l-83 103zM259 617v-617h-134v968h133v-67q101 87 240 87q155 0 263.5 -108t108.5 -263v-617h-133v617q0 99 -69.5 169t-168.5 70q-100 0 -170 -70t-70 -169z" />
    <glyph glyph-name="Ncaron" unicode="&#x147;" vert-adv-y="2130" 
d="M882 1820l87 -103l-274 -207l-275 207l88 103l187 -142zM260 1028v-1028h-135v1388l1004 -1038v1040h135v-1390z" />
    <glyph glyph-name="ncaron" unicode="&#x148;" horiz-adv-x="995" vert-adv-y="2130" 
d="M680 1388l86 -101l-267 -202l-268 202l84 101l184 -137zM259 617v-617h-134v968h133v-67q101 87 240 87q155 0 263.5 -108t108.5 -263v-617h-133v617q0 99 -69.5 169t-168.5 70q-100 0 -170 -70t-70 -169z" />
    <glyph glyph-name="Omacron" unicode="&#x14c;" horiz-adv-x="1700" vert-adv-y="2130" 
d="M1077 1676v-136h-453v136h453zM849 -29q-147 0 -281 57t-231 153.5t-154.5 231t-57.5 282.5t57.5 282.5t154.5 231t231 153.5t281 57q148 0 282.5 -57t232 -154t155 -231t57.5 -282t-57.5 -282t-155 -231t-232 -154t-282.5 -57zM849 105q161 0 297 79t215 215t79 296
t-79 296t-215 215t-297 79q-160 0 -295.5 -79t-214.5 -215t-79 -296t79 -296t214.5 -215t295.5 -79z" />
    <glyph glyph-name="omacron" unicode="&#x14d;" horiz-adv-x="1202" vert-adv-y="2130" 
d="M822 1248v-133h-442v133h442zM600 -17q-204 0 -339.5 143t-135.5 359q0 217 135.5 360t339.5 143q206 0 342 -143t136 -360t-136 -359.5t-342 -142.5zM600 114q148 0 246 106t98 265t-98 265t-246 106q-147 0 -244.5 -106t-97.5 -265t97.5 -265t244.5 -106z" />
    <glyph glyph-name="Obreve" unicode="&#x14e;" horiz-adv-x="1700" vert-adv-y="2130" 
d="M849 1517q-103 0 -178.5 84.5t-83.5 206.5h134q5 -66 42 -111t86 -45q50 0 87.5 45t42.5 111h134q-8 -122 -84.5 -206.5t-179.5 -84.5zM849 -29q-147 0 -281 57t-231 153.5t-154.5 231t-57.5 282.5t57.5 282.5t154.5 231t231 153.5t281 57q148 0 282.5 -57t232 -154
t155 -231t57.5 -282t-57.5 -282t-155 -231t-232 -154t-282.5 -57zM849 105q161 0 297 79t215 215t79 296t-79 296t-215 215t-297 79q-160 0 -295.5 -79t-214.5 -215t-79 -296t79 -296t214.5 -215t295.5 -79z" />
    <glyph glyph-name="obreve" unicode="&#x14f;" horiz-adv-x="1202" vert-adv-y="2130" 
d="M600 1092q-100 0 -174 82t-82 202h133q4 -64 40 -107.5t83 -43.5q48 0 84 43.5t42 107.5h132q-8 -119 -83 -201.5t-175 -82.5zM600 -17q-204 0 -339.5 143t-135.5 359q0 217 135.5 360t339.5 143q206 0 342 -143t136 -360t-136 -359.5t-342 -142.5zM600 114
q148 0 246 106t98 265t-98 265t-246 106q-147 0 -244.5 -106t-97.5 -265t97.5 -265t244.5 -106z" />
    <glyph glyph-name="Ohungarumlaut" unicode="&#x150;" horiz-adv-x="1700" vert-adv-y="2130" 
d="M771 1932l112 -70l-227 -328l-113 74zM1044 1932l113 -70l-227 -328l-113 74zM849 -29q-147 0 -281 57t-231 153.5t-154.5 231t-57.5 282.5t57.5 282.5t154.5 231t231 153.5t281 57q148 0 282.5 -57t232 -154t155 -231t57.5 -282t-57.5 -282t-155 -231t-232 -154
t-282.5 -57zM849 105q161 0 297 79t215 215t79 296t-79 296t-215 215t-297 79q-160 0 -295.5 -79t-214.5 -215t-79 -296t79 -296t214.5 -215t295.5 -79z" />
    <glyph glyph-name="ohungarumlaut" unicode="&#x151;" horiz-adv-x="1202" vert-adv-y="2130" 
d="M522 1498l113 -69l-223 -321l-110 73zM789 1498l112 -69l-223 -321l-110 73zM600 -17q-204 0 -339.5 143t-135.5 359q0 217 135.5 360t339.5 143q206 0 342 -143t136 -360t-136 -359.5t-342 -142.5zM600 114q148 0 246 106t98 265t-98 265t-246 106q-147 0 -244.5 -106
t-97.5 -265t97.5 -265t244.5 -106z" />
    <glyph glyph-name="OE" unicode="&#x152;" horiz-adv-x="2623" vert-adv-y="2130" 
d="M849 -29q-147 0 -281 57t-231 153.5t-154.5 231t-57.5 282.5t57.5 282.5t154.5 231t231 153.5t281 57q182 0 336 -80t254 -221v272h1059v-135h-923v-493h867v-134h-867v-493h923v-135h-1059v272q-100 -141 -254 -221t-336 -80zM849 105q112 0 216 45.5t181.5 122t129 178
t63.5 211.5v66q-12 110 -63.5 211.5t-129 178t-181.5 122t-216 45.5q-160 0 -295.5 -79t-214.5 -215t-79 -296t79 -296t214.5 -215t295.5 -79z" />
    <glyph glyph-name="oe" unicode="&#x153;" horiz-adv-x="2020" vert-adv-y="2130" 
d="M600 -17q-204 0 -339.5 143t-135.5 359q0 217 135.5 360t339.5 143q134 0 241.5 -63.5t168.5 -174.5q62 111 170 174.5t240 63.5q200 -1 335 -152t140 -381h-817q15 -143 111.5 -242t229.5 -99q113 0 204.5 77t133.5 207l126 -43q-54 -170 -180 -271t-284 -101
q-134 0 -241 62.5t-168 174.5q-61 -112 -168.5 -174.5t-241.5 -62.5zM600 114q136 0 232.5 103t108.5 247l1 51q-8 140 -107.5 240.5t-234.5 100.5q-147 0 -244.5 -106t-97.5 -265t97.5 -265t244.5 -106zM1089 588h660q-30 119 -120.5 193.5t-209.5 74.5t-209.5 -74.5
t-120.5 -193.5z" />
    <glyph glyph-name="Racute" unicode="&#x154;" horiz-adv-x="1407" vert-adv-y="2130" 
d="M809 1855l87 -104l-309 -250l-85 103zM260 477v-477h-135v1390h691q190 0 323.5 -133.5t133.5 -323.5q0 -155 -91 -276t-238 -161l338 -496h-163l-326 477h-533zM816 1255h-556v-642h585q122 18 208 109.5t86 210.5q0 133 -94.5 227.5t-228.5 94.5z" />
    <glyph glyph-name="racute" unicode="&#x155;" horiz-adv-x="733" vert-adv-y="2130" 
d="M476 1422l83 -103l-301 -244l-83 103zM259 617v-617h-134v968h133v-67q101 87 240 87q40 0 111 -15v-138q-78 21 -110 21q-100 0 -170 -70t-70 -169z" />
    <glyph glyph-name="Rcaron" unicode="&#x158;" horiz-adv-x="1407" vert-adv-y="2130" 
d="M887 1820l87 -103l-274 -207l-276 207l89 103l187 -142zM260 477v-477h-135v1390h691q190 0 323.5 -133.5t133.5 -323.5q0 -155 -91 -276t-238 -161l338 -496h-163l-326 477h-533zM816 1255h-556v-642h585q122 18 208 109.5t86 210.5q0 133 -94.5 227.5t-228.5 94.5z" />
    <glyph glyph-name="rcaron" unicode="&#x159;" horiz-adv-x="785" vert-adv-y="2130" 
d="M575 1389l85 -102l-267 -202l-268 202l85 101l183 -137zM285 617v-617h-135v968h134v-67q101 87 239 87q40 0 111 -15v-138q-77 21 -110 21q-100 0 -169.5 -70t-69.5 -169z" />
    <glyph glyph-name="Sacute" unicode="&#x15a;" vert-adv-y="2130" 
d="M806 1855l88 -104l-310 -250l-84 103zM704 -29q-237 0 -401.5 124.5t-177.5 311.5h139q9 -130 134.5 -216t304.5 -86q180 0 301.5 77t121.5 194q0 208 -433 273q-526 79 -526 385q0 166 149.5 275.5t372.5 109.5q220 0 373.5 -118.5t165.5 -296.5h-137
q-11 121 -124.5 201t-276.5 80q-164 0 -274.5 -71t-110.5 -179q0 -96 102 -160.5t294 -91.5q279 -41 421.5 -143.5t142.5 -262.5q0 -116 -73.5 -209t-202 -145t-285.5 -52z" />
    <glyph glyph-name="sacute" unicode="&#x15b;" horiz-adv-x="1071" vert-adv-y="2130" 
d="M644 1422l86 -103l-302 -243l-84 102zM539 -17q-172 0 -287.5 90.5t-126.5 230.5h133q6 -62 51.5 -106.5t105.5 -64t124 -19.5q65 0 124.5 16.5t103.5 55t44 92.5q0 18 -5.5 33t-19 28t-26 22.5t-37 19.5t-41 16t-48.5 14t-49 12t-53 12q-73 15 -120.5 27.5t-101 34.5
t-84.5 48t-51.5 66.5t-20.5 92.5q0 127 108 205.5t274 78.5q159 0 267.5 -86.5t119.5 -220.5h-134q-7 76 -77.5 125.5t-170.5 49.5q-99 0 -175 -38.5t-76 -110.5q0 -26 14.5 -47t34 -34t58.5 -25.5t66.5 -19t79.5 -16.5q74 -15 123.5 -27.5t107 -35.5t91.5 -51t57 -71.5
t23 -98.5q0 -133 -114.5 -215.5t-291.5 -82.5z" />
    <glyph glyph-name="Scircumflex" unicode="&#x15c;" vert-adv-y="2130" 
d="M884 1523l-187 140l-187 -140l-88 102l275 208l274 -208zM704 -29q-237 0 -401.5 124.5t-177.5 311.5h139q9 -130 134.5 -216t304.5 -86q180 0 301.5 77t121.5 194q0 208 -433 273q-526 79 -526 385q0 166 149.5 275.5t372.5 109.5q220 0 373.5 -118.5t165.5 -296.5h-137
q-11 121 -124.5 201t-276.5 80q-164 0 -274.5 -71t-110.5 -179q0 -96 102 -160.5t294 -91.5q279 -41 421.5 -143.5t142.5 -262.5q0 -116 -73.5 -209t-202 -145t-285.5 -52z" />
    <glyph glyph-name="scircumflex" unicode="&#x15d;" horiz-adv-x="1071" vert-adv-y="2130" 
d="M719 1097l-182 137l-183 -137l-85 102l269 202l266 -202zM539 -17q-172 0 -287.5 90.5t-126.5 230.5h133q6 -62 51.5 -106.5t105.5 -64t124 -19.5q65 0 124.5 16.5t103.5 55t44 92.5q0 18 -5.5 33t-19 28t-26 22.5t-37 19.5t-41 16t-48.5 14t-49 12t-53 12
q-73 15 -120.5 27.5t-101 34.5t-84.5 48t-51.5 66.5t-20.5 92.5q0 127 108 205.5t274 78.5q159 0 267.5 -86.5t119.5 -220.5h-134q-7 76 -77.5 125.5t-170.5 49.5q-99 0 -175 -38.5t-76 -110.5q0 -26 14.5 -47t34 -34t58.5 -25.5t66.5 -19t79.5 -16.5q74 -15 123.5 -27.5
t107 -35.5t91.5 -51t57 -71.5t23 -98.5q0 -133 -114.5 -215.5t-291.5 -82.5z" />
    <glyph glyph-name="Scedilla" unicode="&#x15e;" vert-adv-y="2130" 
d="M582 -380v106q39 -1 70.5 19.5t42.5 53.5h-113v182q-193 31 -319.5 148t-137.5 278h139q9 -130 134.5 -216t304.5 -86q180 0 301.5 77t121.5 194q0 208 -433 273q-526 79 -526 385q0 166 149.5 275.5t372.5 109.5q220 0 373.5 -118.5t165.5 -296.5h-137
q-11 121 -124.5 201t-276.5 80q-164 0 -274.5 -71t-110.5 -179q0 -96 102 -160.5t294 -91.5q279 -41 421.5 -143.5t142.5 -262.5q0 -116 -73.5 -209t-202 -145t-285.5 -52h-17v-67h118v-82q0 -84 -65 -143t-158 -59z" />
    <glyph glyph-name="scedilla" unicode="&#x15f;" horiz-adv-x="1071" vert-adv-y="2130" 
d="M428 -380v106q39 -1 70.5 19.5t42.5 53.5h-113v195q-130 27 -212 110.5t-91 199.5h133q6 -62 51.5 -106.5t105.5 -64t124 -19.5q65 0 124.5 16.5t103.5 55t44 92.5q0 18 -5.5 33t-19 28t-26 22.5t-37 19.5t-41 16t-48.5 14t-49 12t-53 12q-73 15 -120.5 27.5t-101 34.5
t-84.5 48t-51.5 66.5t-20.5 92.5q0 127 108 205.5t274 78.5q159 0 267.5 -86.5t119.5 -220.5h-134q-7 76 -77.5 125.5t-170.5 49.5q-99 0 -175 -38.5t-76 -110.5q0 -26 14.5 -47t34 -34t58.5 -25.5t66.5 -19t79.5 -16.5q74 -15 123.5 -27.5t107 -35.5t91.5 -51t57 -71.5
t23 -98.5q0 -133 -114.5 -215.5t-291.5 -82.5h-6v-79h118v-82q0 -84 -65 -143t-158 -59z" />
    <glyph glyph-name="Scaron" unicode="&#x160;" vert-adv-y="2130" 
d="M884 1820l87 -103l-274 -207l-275 207l88 103l187 -142zM704 -29q-237 0 -401.5 124.5t-177.5 311.5h139q9 -130 134.5 -216t304.5 -86q180 0 301.5 77t121.5 194q0 208 -433 273q-526 79 -526 385q0 166 149.5 275.5t372.5 109.5q220 0 373.5 -118.5t165.5 -296.5h-137
q-11 121 -124.5 201t-276.5 80q-164 0 -274.5 -71t-110.5 -179q0 -96 102 -160.5t294 -91.5q279 -41 421.5 -143.5t142.5 -262.5q0 -116 -73.5 -209t-202 -145t-285.5 -52z" />
    <glyph glyph-name="scaron" unicode="&#x161;" horiz-adv-x="1071" vert-adv-y="2130" 
d="M719 1388l85 -101l-266 -202l-269 202l85 101l183 -137zM539 -17q-172 0 -287.5 90.5t-126.5 230.5h133q6 -62 51.5 -106.5t105.5 -64t124 -19.5q65 0 124.5 16.5t103.5 55t44 92.5q0 18 -5.5 33t-19 28t-26 22.5t-37 19.5t-41 16t-48.5 14t-49 12t-53 12
q-73 15 -120.5 27.5t-101 34.5t-84.5 48t-51.5 66.5t-20.5 92.5q0 127 108 205.5t274 78.5q159 0 267.5 -86.5t119.5 -220.5h-134q-7 76 -77.5 125.5t-170.5 49.5q-99 0 -175 -38.5t-76 -110.5q0 -26 14.5 -47t34 -34t58.5 -25.5t66.5 -19t79.5 -16.5q74 -15 123.5 -27.5
t107 -35.5t91.5 -51t57 -71.5t23 -98.5q0 -133 -114.5 -215.5t-291.5 -82.5z" />
    <glyph glyph-name="Utilde" unicode="&#x168;" vert-adv-y="2130" 
d="M595 1603l-62 -64l-98 94l66 64q59 59 119 59q61 0 121 -58q19 -17 26 -17q8 0 27 17l63 64l96 -96l-66 -63q-60 -58 -119 -58q-60 0 -120 58q-15 15 -27 15q-9 0 -26 -15zM695 -29q-155 0 -286.5 76t-207.5 206.5t-76 285.5v851h135v-851q0 -179 127.5 -306.5
t307.5 -127.5t307 127.5t127 306.5v851h135v-851q0 -154 -76.5 -285t-207.5 -207t-285 -76z" />
    <glyph glyph-name="utilde" unicode="&#x169;" horiz-adv-x="995" vert-adv-y="2130" 
d="M402 1176l-62 -64l-94 95l65 62q57 57 116 57q57 0 117 -57q17 -15 24 -15q9 0 26 15l61 64l96 -95l-65 -62q-58 -58 -117 -58q-56 0 -117 58q-17 15 -25 15t-25 -15zM499 -18q-156 0 -265 108t-109 263v616h133v-616q0 -99 70 -169.5t170 -70.5q99 0 169 70.5t70 169.5
v616h133v-968h-133v67q-98 -86 -238 -86z" />
    <glyph glyph-name="Umacron" unicode="&#x16a;" vert-adv-y="2130" 
d="M921 1676v-136h-454v136h454zM695 -29q-155 0 -286.5 76t-207.5 206.5t-76 285.5v851h135v-851q0 -179 127.5 -306.5t307.5 -127.5t307 127.5t127 306.5v851h135v-851q0 -154 -76.5 -285t-207.5 -207t-285 -76z" />
    <glyph glyph-name="umacron" unicode="&#x16b;" horiz-adv-x="995" vert-adv-y="2130" 
d="M719 1248v-133h-442v133h442zM499 -18q-156 0 -265 108t-109 263v616h133v-616q0 -99 70 -169.5t170 -70.5q99 0 169 70.5t70 169.5v616h133v-968h-133v67q-98 -86 -238 -86z" />
    <glyph glyph-name="Ubreve" unicode="&#x16c;" vert-adv-y="2130" 
d="M695 1517q-103 0 -179.5 84.5t-84.5 206.5h135q5 -66 42 -111t87 -45q49 0 86 45t43 111h134q-8 -122 -84 -206.5t-179 -84.5zM695 -29q-155 0 -286.5 76t-207.5 206.5t-76 285.5v851h135v-851q0 -179 127.5 -306.5t307.5 -127.5t307 127.5t127 306.5v851h135v-851
q0 -154 -76.5 -285t-207.5 -207t-285 -76z" />
    <glyph glyph-name="ubreve" unicode="&#x16d;" horiz-adv-x="995" vert-adv-y="2130" 
d="M499 1092q-100 0 -175 82.5t-83 201.5h132q5 -64 41.5 -107.5t84.5 -43.5q47 0 83 43.5t40 107.5h133q-8 -119 -82 -201.5t-174 -82.5zM499 -18q-156 0 -265 108t-109 263v616h133v-616q0 -99 70 -169.5t170 -70.5q99 0 169 70.5t70 169.5v616h133v-968h-133v67
q-98 -86 -238 -86z" />
    <glyph glyph-name="Uring" unicode="&#x16e;" vert-adv-y="2130" 
d="M694 1510q-73 0 -124 51.5t-51 124.5t51 124.5t124 51.5t124.5 -51.5t51.5 -124.5t-51.5 -124.5t-124.5 -51.5zM695 1627q24 0 41 17.5t17 41.5t-17 41.5t-41 17.5q-25 0 -42 -17.5t-17 -41.5t17 -41.5t42 -17.5zM695 -29q-155 0 -286.5 76t-207.5 206.5t-76 285.5v851
h135v-851q0 -179 127.5 -306.5t307.5 -127.5t307 127.5t127 306.5v851h135v-851q0 -154 -76.5 -285t-207.5 -207t-285 -76z" />
    <glyph glyph-name="uring" unicode="&#x16f;" horiz-adv-x="995" vert-adv-y="2130" 
d="M497 1081q-73 0 -124 51.5t-51 124.5t51 124.5t124 51.5t124.5 -51.5t51.5 -124.5t-51.5 -124.5t-124.5 -51.5zM498 1198q24 0 41 17.5t17 41.5t-17 41.5t-41 17.5q-25 0 -42 -17.5t-17 -41.5t17 -41.5t42 -17.5zM499 -18q-156 0 -265 108t-109 263v616h133v-616
q0 -99 70 -169.5t170 -70.5q99 0 169 70.5t70 169.5v616h133v-968h-133v67q-98 -86 -238 -86z" />
    <glyph glyph-name="Uhungarumlaut" unicode="&#x170;" vert-adv-y="2130" 
d="M614 1932l114 -70l-228 -328l-112 74zM888 1932l113 -70l-228 -328l-111 74zM695 -29q-155 0 -286.5 76t-207.5 206.5t-76 285.5v851h135v-851q0 -179 127.5 -306.5t307.5 -127.5t307 127.5t127 306.5v851h135v-851q0 -154 -76.5 -285t-207.5 -207t-285 -76z" />
    <glyph glyph-name="uhungarumlaut" unicode="&#x171;" horiz-adv-x="995" vert-adv-y="2130" 
d="M421 1498l110 -69l-221 -321l-111 73zM686 1498l111 -69l-222 -321l-110 73zM499 -18q-156 0 -265 108t-109 263v616h133v-616q0 -99 70 -169.5t170 -70.5q99 0 169 70.5t70 169.5v616h133v-968h-133v67q-98 -86 -238 -86z" />
    <glyph glyph-name="Wcircumflex" unicode="&#x174;" horiz-adv-x="2224" vert-adv-y="2130" 
d="M1301 1523l-189 140l-188 -140l-85 103l273 207l275 -207zM1555 0l-443 1158l-444 -1158l-534 1388h141l393 -1016l392 1016h103l392 -1016l395 1016h140z" />
    <glyph glyph-name="wcircumflex" unicode="&#x175;" horiz-adv-x="1554" vert-adv-y="2130" 
d="M960 1097l-183 137l-182 -137l-85 102l266 202l269 -202zM1062 0l-284 764l-284 -764l-363 970h132l231 -623l233 623h101l234 -623l230 623h132z" />
    <glyph glyph-name="Ycircumflex" unicode="&#x176;" horiz-adv-x="1547" vert-adv-y="2130" 
d="M991 1523l-188 140l-188 -140l-85 103l273 207l274 -207zM871 539v-539h-135v539l-597 851h167l497 -718l499 718h166z" />
    <glyph glyph-name="ycircumflex" unicode="&#x177;" horiz-adv-x="1206" vert-adv-y="2130" 
d="M785 1097l-182 137l-182 -137l-87 102l269 202l268 -202zM1072 970l-633 -1362h-135l232 494l-402 868h147l322 -716l322 716h147z" />
    <glyph glyph-name="Ydieresis" unicode="&#x178;" horiz-adv-x="1547" vert-adv-y="2130" 
d="M672 1537q-35 0 -62 26.5t-27 61.5q0 37 26.5 63.5t62.5 26.5q37 0 63 -26.5t26 -63.5q0 -35 -26.5 -61.5t-62.5 -26.5zM935 1537q-35 0 -62 26.5t-27 61.5q0 37 27 63.5t62 26.5q37 0 63 -26.5t26 -63.5q0 -35 -26 -61.5t-63 -26.5zM871 539v-539h-135v539l-597 851h167
l497 -718l499 718h166z" />
    <glyph glyph-name="Zacute" unicode="&#x179;" horiz-adv-x="1614" vert-adv-y="2130" 
d="M918 1855l86 -104l-309 -250l-84 103zM1377 135v-135h-1235l1043 1255h-929v135h1217l-1044 -1255h948z" />
    <glyph glyph-name="zacute" unicode="&#x17a;" horiz-adv-x="1031" vert-adv-y="2130" 
d="M624 1422l84 -103l-302 -244l-83 103zM905 133v-133h-780v113l595 724h-558v133h743v-112l-594 -725h594z" />
    <glyph glyph-name="Zdotaccent" unicode="&#x17b;" horiz-adv-x="1614" vert-adv-y="2130" 
d="M807 1568q-36 0 -62 26t-26 63q0 36 26 62.5t62 26.5t62.5 -26.5t26.5 -62.5q0 -37 -26.5 -63t-62.5 -26zM1377 135v-135h-1235l1043 1255h-929v135h1217l-1044 -1255h948z" />
    <glyph glyph-name="zdotaccent" unicode="&#x17c;" horiz-adv-x="1031" vert-adv-y="2130" 
d="M515 1142q-36 0 -61.5 25.5t-25.5 61.5q0 35 26 61t61 26q36 0 62 -26t26 -61q0 -36 -26 -61.5t-62 -25.5zM905 133v-133h-780v113l595 724h-558v133h743v-112l-594 -725h594z" />
    <glyph glyph-name="Zcaron" unicode="&#x17d;" horiz-adv-x="1614" vert-adv-y="2130" 
d="M994 1820l88 -103l-275 -207l-274 207l87 103l187 -142zM1377 135v-135h-1235l1043 1255h-929v135h1217l-1044 -1255h948z" />
    <glyph glyph-name="zcaron" unicode="&#x17e;" horiz-adv-x="1031" vert-adv-y="2130" 
d="M699 1388l84 -101l-268 -202l-267 202l85 101l182 -137zM905 133v-133h-780v113l595 724h-558v133h743v-112l-594 -725h594z" />
    <glyph glyph-name="circumflex" unicode="&#x2c6;" horiz-adv-x="1038" vert-adv-y="2130" 
d="M701 1097l-182 137l-183 -137l-85 102l268 202l268 -202z" />
    <glyph glyph-name="caron" unicode="&#x2c7;" horiz-adv-x="1038" vert-adv-y="2130" 
d="M701 1389l86 -102l-268 -202l-268 202l85 102l183 -138z" />
    <glyph glyph-name="breve" unicode="&#x2d8;" horiz-adv-x="1004" vert-adv-y="2130" 
d="M502 1092q-100 0 -174.5 82.5t-82.5 201.5h132q5 -64 41 -107.5t84 -43.5t83.5 43.5t41.5 107.5h132q-8 -119 -82.5 -201.5t-174.5 -82.5z" />
    <glyph glyph-name="dotaccent" unicode="&#x2d9;" horiz-adv-x="479" vert-adv-y="2130" 
d="M239 1141q-35 0 -61 26t-26 62q0 35 26 61t61 26q36 0 62 -26t26 -61q0 -36 -26 -62t-62 -26z" />
    <glyph glyph-name="ring" unicode="&#x2da;" horiz-adv-x="841" vert-adv-y="2130" 
d="M421 1081q-73 0 -124.5 51.5t-51.5 124.5t51.5 124.5t124.5 51.5q72 0 123.5 -51.5t51.5 -124.5t-51.5 -124.5t-123.5 -51.5zM421 1198q24 0 41 17.5t17 41.5t-17 41.5t-41 17.5q-25 0 -42 -17.5t-17 -41.5t17 -41.5t42 -17.5z" />
    <glyph glyph-name="tilde" unicode="&#x2dc;" horiz-adv-x="1007" vert-adv-y="2130" 
d="M407 1176l-62 -64l-94 94l64 63q57 55 117 57q60 -2 117 -57q17 -15 25 -15t25 15l62 64l95 -95l-65 -62q-57 -57 -116 -57q-58 0 -117 56q-16 16 -26 16q-8 0 -25 -15z" />
    <glyph glyph-name="hungarumlaut" unicode="&#x2dd;" horiz-adv-x="940" vert-adv-y="2130" 
d="M393 1498l111 -70l-223 -320l-110 73zM658 1498l111 -70l-222 -320l-110 73z" />
    <glyph glyph-name="Wgrave" unicode="&#x1e80;" horiz-adv-x="2224" vert-adv-y="2130" 
d="M1002 1855l309 -251l-87 -103l-308 249zM1555 0l-443 1158l-444 -1158l-534 1388h141l393 -1016l392 1016h103l392 -1016l395 1016h140z" />
    <glyph glyph-name="wgrave" unicode="&#x1e81;" horiz-adv-x="1554" vert-adv-y="2130" 
d="M669 1422l301 -244l-85 -102l-300 243zM1062 0l-284 764l-284 -764l-363 970h132l231 -623l233 623h101l234 -623l230 623h132z" />
    <glyph glyph-name="Wacute" unicode="&#x1e82;" horiz-adv-x="2224" vert-adv-y="2130" 
d="M1191 1855l87 -105l-311 -249l-83 103zM1555 0l-443 1158l-444 -1158l-534 1388h141l393 -1016l392 1016h103l392 -1016l395 1016h140z" />
    <glyph glyph-name="wacute" unicode="&#x1e83;" horiz-adv-x="1554" vert-adv-y="2130" 
d="M885 1422l85 -103l-301 -243l-84 102zM1062 0l-284 764l-284 -764l-363 970h132l231 -623l233 623h101l234 -623l230 623h132z" />
    <glyph glyph-name="Wdieresis" unicode="&#x1e84;" horiz-adv-x="2224" vert-adv-y="2130" 
d="M986 1537q-35 0 -61.5 26.5t-26.5 61.5q0 37 26.5 63.5t61.5 26.5q37 0 63.5 -26.5t26.5 -63.5q0 -36 -26.5 -62t-63.5 -26zM1250 1537q-36 0 -62.5 26.5t-26.5 61.5q0 37 26.5 63.5t62.5 26.5q37 0 63 -26.5t26 -63.5q0 -35 -26.5 -61.5t-62.5 -26.5zM1555 0l-443 1158
l-444 -1158l-534 1388h141l393 -1016l392 1016h103l392 -1016l395 1016h140z" />
    <glyph glyph-name="wdieresis" unicode="&#x1e85;" horiz-adv-x="1554" vert-adv-y="2130" 
d="M650 1111q-36 0 -62 26.5t-26 61.5t26 61t62 26t61.5 -26t25.5 -61t-25.5 -61.5t-61.5 -26.5zM905 1111q-34 0 -60.5 26.5t-26.5 61.5t26 61t61 26t61.5 -26t26.5 -61t-26.5 -61.5t-61.5 -26.5zM1062 0l-284 764l-284 -764l-363 970h132l231 -623l233 623h101l234 -623
l230 623h132z" />
    <glyph glyph-name="endash" unicode="&#x2013;" horiz-adv-x="1149" vert-adv-y="2130" 
d="M973 597v-133h-796v133h796z" />
    <glyph glyph-name="emdash" unicode="&#x2014;" horiz-adv-x="1696" vert-adv-y="2130" 
d="M1518 597v-133h-1341v133h1341z" />
    <glyph glyph-name="quoteleft" unicode="&#x2018;" horiz-adv-x="528" vert-adv-y="2130" 
d="M337 1352l88 -295h-138l-118 295h168z" />
    <glyph glyph-name="quoteright" unicode="&#x2019;" horiz-adv-x="512" vert-adv-y="2130" 
d="M365 1352l-117 -295h-139l88 295h168z" />
    <glyph glyph-name="quotesinglbase" unicode="&#x201a;" horiz-adv-x="536" vert-adv-y="2130" 
d="M365 315l-117 -295h-139l88 295h168z" />
    <glyph glyph-name="quotedblleft" unicode="&#x201c;" horiz-adv-x="708" vert-adv-y="2130" 
d="M248 1355l116 -295h-167l-88 295h139zM436 1355l116 -295h-167l-88 295h139z" />
    <glyph glyph-name="quotedblright" unicode="&#x201d;" horiz-adv-x="692" vert-adv-y="2130" 
d="M364 1352l-116 -295h-139l88 295h167zM552 1352l-116 -295h-139l88 295h167z" />
    <glyph glyph-name="quotedblbase" unicode="&#x201e;" horiz-adv-x="718" vert-adv-y="2130" 
d="M364 317l-116 -295h-139l88 295h167zM552 317l-116 -295h-139l88 295h167z" />
    <glyph glyph-name="dagger" unicode="&#x2020;" horiz-adv-x="822" vert-adv-y="2130" 
d="M477 983v-437h-132v437h-186v133h186v236h132v-236h186v-133h-186z" />
    <glyph glyph-name="daggerdbl" unicode="&#x2021;" horiz-adv-x="830" vert-adv-y="2130" 
d="M481 237v-237h-132v237h-186v132h186v614h-186v133h186v236h132v-236h186v-133h-186v-614h186v-132h-186z" />
    <glyph glyph-name="bullet" unicode="&#x2022;" horiz-adv-x="752" vert-adv-y="2130" 
d="M376 537q-58 0 -98.5 41t-40.5 99q0 57 40.5 97.5t98.5 40.5t99 -40.5t41 -97.5q0 -58 -41 -99t-99 -41z" />
    <glyph glyph-name="ellipsis" unicode="&#x2026;" horiz-adv-x="1077" vert-adv-y="2130" 
d="M247 0q-36 0 -62 26t-26 62q0 35 26 60.5t62 25.5q35 0 60.5 -25.5t25.5 -60.5q0 -36 -25.5 -62t-60.5 -26zM538 0q-36 0 -61.5 26t-25.5 62q0 35 25.5 60.5t61.5 25.5t62 -25.5t26 -60.5q0 -36 -26 -62t-62 -26zM827 0q-35 0 -61 26t-26 62q0 35 26 60.5t61 25.5
t61 -25.5t26 -60.5q0 -36 -26 -62t-61 -26z" />
    <glyph glyph-name="guilsinglleft" unicode="&#x2039;" horiz-adv-x="810" vert-adv-y="2130" 
d="M326 493l318 -317l-95 -94l-410 411l410 410l95 -94z" />
    <glyph glyph-name="guilsinglright" unicode="&#x203a;" horiz-adv-x="810" vert-adv-y="2130" 
d="M261 903l411 -410l-412 -411l-93 94l317 317l-317 316z" />
    <glyph glyph-name="fraction" unicode="&#x2044;" horiz-adv-x="1494" vert-adv-y="2130" 
d="M1357 1374l87 -87l-1307 -1309l-88 88z" />
    <glyph glyph-name="Euro" unicode="&#x20ac;" horiz-adv-x="1383" vert-adv-y="1700" 
d="M786 -29q-191 0 -331.5 122.5t-200.5 333.5h-117v134h92q-7 65 -7 116q0 49 7 115h-92v133h117q58 215 199.5 336t333.5 121q254 0 441 -237l-96 -92q-154 196 -346 196q-137 0 -241.5 -86t-154.5 -238h543v-133h-571q-6 -56 -6 -115q0 -67 7 -116h570v-134h-543
q50 -152 154.5 -237.5t241.5 -85.5q193 0 346 196l96 -92q-188 -237 -442 -237z" />
    <glyph glyph-name="trademark" unicode="&#x2122;" horiz-adv-x="1275" vert-adv-y="2130" 
d="M371 1290v-318h-105v318h-149v96h428l172 -238l172 246h67v-422h-101l1 180l-139 -180l-139 180v-180h-101v318h-106z" />
    <glyph glyph-name="minus" unicode="&#x2212;" horiz-adv-x="1145" vert-adv-y="2130" 
d="M952 688v-133h-759v133h759z" />
    <glyph glyph-name="uniF8FF" unicode="&#xf8ff;" horiz-adv-x="1980" vert-adv-y="2130" 
d="M1860 1615v-1869h-1740v1869h1740zM1266 1384h-890v-1194h203v344h687v183h-687v491h687v176zM1398 375h-685v-185h888v1194h-203v-334h-685v-190h685v-485zM559 -2q30 0 50.5 19.5t20.5 49.5t-20.5 49.5t-50.5 19.5t-51 -19.5t-21 -49.5t21 -49.5t51 -19.5zM1095 -2
q22 0 37.5 11t15.5 30q0 14 -6 22q-4 6 -15 13q-9 5 -24 8q-25 5 -25 16q0 9 14 9q17 0 43 -14l13 28q-28 15 -53 15q-22 0 -37.5 -10.5t-15.5 -31.5q0 -13 6 -20q3 -6 15 -12l24 -8l9 -3q8 -3 13 -5q3 -3 3 -8q0 -6 -6 -8q-6 -3 -11 -3q-27 0 -48 21l-14 -28q27 -22 62 -22
zM1402 -2q29 0 56 25l-21 21q-15 -15 -32 -15q-21 0 -31 19q-5 6 -5 16q0 20 10 31t25 11q22 0 33 -18l20 25q-20 23 -52 23q-31 0 -51.5 -19.5t-20.5 -49.5q0 -29 20 -49t49 -20zM480 134h-99v-134h35v48h58v28h-58v30h64v28zM678 134h-31v-134h33v80l60 -80h29v134h-32
l1 -81zM785 105h39v-105h33v105h41v29h-113v-29zM976 134h-35l-56 -134h34l10 23h57l9 -23h37zM1154 105h39v-105h35v105h40v29h-114v-29zM1316 134h-34v-134h34v134zM1550 134h-36l-57 -134h36l8 23h59l8 -23h37zM559 28q-16 0 -26 11.5t-10 27.5t10 27.5t26 11.5
q23 0 31 -20q4 -10 4 -19q0 -16 -10 -27.5t-25 -11.5zM959 98l17 -48h-37zM1530 98l19 -48h-37zM671 -342v-69h-23v69h-13v12l13 6v6q0 15 7 22q7 6 23 6q13 0 22 -3l-6 -18q-4 2 -13 2q-5 0 -7 -3q-3 -2 -3 -7v-5h21v-18h-21zM1233 -314q-12 0 -12 12t12 12q13 0 13 -12
q0 -6 -3 -9t-10 -3zM938 -412q-14 0 -21 6q-6 8 -6 22v42h-11v10l12 8l7 19h16v-19h24v-18h-24v-42q0 -3 2 -7q4 -2 8 -2q3 0 15 2v-18q-9 -3 -22 -3zM1183 -412q-15 0 -21 6q-7 7 -7 22v42h-12v10l14 8l7 19h14v-19h25v-18h-25v-42q0 -4 4 -7q4 -2 7 -2t15 2v-18
q-9 -3 -21 -3zM998 -412q-12 0 -19 6q-8 8 -8 21q0 14 11 21q8 6 29 7h14v4q0 13 -13 13q-10 0 -24 -6l-8 16q16 8 33 8q16 0 27 -8q9 -8 9 -23v-58h-17l-4 11h-1q-8 -8 -12 -10t-17 -2zM1373 -412q-13 0 -20 6q-7 7 -7 21t10 21q8 5 29 7h15v4q0 13 -13 13q-11 0 -25 -6
l-8 16q16 8 34 8q15 0 26 -8q9 -8 9 -23v-58h-17l-4 11h-1q-5 -7 -11 -10q-4 -2 -17 -2zM742 -412q-13 0 -22 5q-9 4 -15 16q-5 12 -5 23q0 20 11 34q11 11 31 11q14 0 22 -5q10 -4 16 -16q5 -10 5 -24q0 -20 -12 -33q-10 -11 -31 -11zM827 -371v-40h-24v87h19l3 -11h1
q5 7 12 9q6 3 15 3q16 0 23 -8q8 -8 8 -23v-57h-24v51q0 10 -3 14t-11 4q-10 0 -14 -6q-5 -8 -5 -23zM1097 -412q-12 0 -16 1l-12 3v20q2 -1 7 -2.5t7 -2.5l15 -3q13 0 13 8q0 3 -2 5l-6 4q-1 0 -5 2t-7 3q-7 2 -14 7q-5 5 -6 9q-2 3 -2 11q0 13 8 18q9 6 26 6t30 -6l-7 -18
l-12 5q-4 1 -12 1q-11 0 -11 -5q0 -4 4 -5q5 -3 15 -7l15 -7l7 -9q2 -6 2 -11q0 -13 -9 -21q-11 -6 -28 -6zM1305 -412q-41 0 -41 43q0 21 12 35q10 11 31 11q15 0 27 -5l-6 -19q-3 1 -7 3l-4 1q-1 0 -4.5 0.5t-5.5 0.5q-18 0 -18 -26q0 -25 18 -25q5 0 13 2q6 2 12 5v-20
q-2 -2 -12 -5q-4 -1 -15 -1zM1528 -412q-40 0 -40 43q0 24 10 35q11 11 33 11q13 0 26 -5l-7 -19l-10 4q-2 0 -5 0.5t-4 0.5q-19 0 -19 -26q0 -25 19 -25q4 0 12 2q6 1 11 5v-20q-3 -3 -11 -5q-4 -1 -15 -1zM1611 -412q-13 0 -21 5q-11 5 -15 16q-5 9 -5 23q0 21 10 34
q11 11 31 11q15 0 23 -5q11 -6 15 -16q5 -10 5 -24q0 -20 -12 -33q-10 -11 -31 -11zM1697 -371v-40h-24v87h18l3 -11h2q3 7 10 9q6 3 15 3q20 0 26 -12h2q5 6 10 9q7 3 18 3q14 0 21 -7t7 -24v-57h-24v51q0 10 -3 14t-10 4q-8 0 -13 -6q-4 -5 -4 -20v-43h-24v51q0 10 -3 14
t-10 4q-9 0 -13 -6q-4 -7 -4 -23zM245 -343l-15 -68h-26l-24 87h23l10 -38q1 -2 5 -29q0 6 3 18l1 8l11 41h27l9 -41q1 -2 1 -6q0 -1 1 -3.5t1 -3.5q0 -5 1 -7v-6h1q0 3 2 15l2 14l12 38h23l-25 -87h-26l-7 30l-9 38h-1zM382 -343l-17 -68h-24l-25 87h23l10 -38q4 -16 5 -29
h1q0 2 2 18l1 8l12 41h25l11 -41q0 -4 1 -6l1 -7q0 -2 0.5 -4t0.5 -3q0 -2 0.5 -3.5t0.5 -2.5q0 3 2 15q1 3 2 8t1 6l10 38h23l-25 -87h-26l-6 30zM518 -343l-16 -68h-26l-25 87h24l11 -38q0 -2 1.5 -12t2.5 -17h1q0 6 3 18l1 8l10 41h26l10 -41q0 -1 0.5 -3t0.5 -3t1 -3.5
t1 -3.5q1 -3 1 -7q1 -3 1 -6l3 15l2 14l10 38h24l-25 -87h-26l-7 30l-8 38h-1zM1245 -324v-87h-23v87h23zM742 -393q10 0 14 6q4 5 4 19q0 15 -4 20q-4 6 -14 6t-13 -6q-4 -5 -4 -20q0 -12 4 -19q3 -6 13 -6zM1611 -393q11 0 14 6q4 5 4 19q0 15 -4 20q-3 6 -14 6
q-9 0 -13 -6q-4 -5 -4 -20q0 -12 4 -19q4 -6 13 -6zM1008 -396q5 0 13 6q4 4 4 12v7h-8q-13 -2 -16 -4q-5 -3 -5 -10q0 -11 12 -11zM1381 -396q8 0 14 6q5 5 5 12v7h-9q-12 -2 -16 -4q-5 -3 -5 -10q0 -11 11 -11zM609 -413q-5 0 -11 3q-3 4 -3 10q0 7 3 10q6 3 11 3
q7 0 10 -3t3 -10q0 -6 -3 -10q-5 -3 -10 -3zM1458 -413q-6 0 -10 3q-3 5 -3 10q0 7 3 10t10 3q6 0 10 -3q4 -4 4 -10q0 -4 -4 -10q-5 -3 -10 -3z" />
    <glyph glyph-name="_Fontastica" horiz-adv-x="1458" vert-adv-y="2130" 
d="M322 521v-340h-196q-3 0 -4.5 2t-1.5 4v2v1178h884v-174h-682v-490h682v-182h-682zM1338 1367v-1186h-884v184h682v482h-682v188h682v332h202zM836 -1q-35 0 -61 21l14 28q7 -8 21.5 -14.5t24.5 -6.5q8 0 14 3q5 2 5 8q0 5 -4 8q-11 6 -22 9q-18 5 -24 8q-9 3 -14 10
q-6 8 -6 20q0 22 15.5 32.5t36.5 10.5q26 0 53 -15l-13 -28q-23 14 -41 14q-15 0 -15 -9q0 -10 24 -17q19 -4 24 -7q11 -7 15 -12q6 -9 6 -22q0 -20 -15.5 -30.5t-37.5 -10.5zM302 -2q-30 0 -50.5 19.5t-20.5 49.5t20.5 49t50.5 19t50.5 -19t20.5 -49t-20 -49.5t-51 -19.5z
M1143 -2q-29 0 -48.5 20t-19.5 49q0 30 20 49t50 19q33 0 53 -23l-20 -24q-13 18 -33 18q-15 0 -25.5 -10.5t-10.5 -29.5q0 -10 5 -18q12 -19 32 -19q19 0 32 15l21 -21q-27 -25 -56 -25zM159 48v-47h-34v132h99v-27h-65v-30h59v-28h-59zM423 80v-79h-33v132h30l61 -79
l-1 79h33v-132h-30zM600 105v-104h-33v104h-40v28h114v-28h-41zM671 24l-9 -23h-35l56 132h35l56 -132h-36l-10 23h-57zM970 105v-104h-36v104h-38v28h112v-28h-38zM1057 133v-132h-34v132h34zM1242 24l-9 -23h-35l56 132h36l55 -132h-37l-9 23h-57zM302 27q16 0 26 12
t10 27q0 5 -5 20q-7 20 -30 20q-16 0 -26.5 -11.5t-10.5 -27.5t10.5 -28t25.5 -12zM717 50l-16 48l-20 -48h36zM1289 50l-18 48l-18 -48h36z" />
    <glyph glyph-name="_VendorID" horiz-adv-x="1123" vert-adv-y="2130" 
d="M779 772q-104 0 -168 53.5t-53 127.5h73q-16 -44 29.5 -78.5t118.5 -34.5q62 0 105 26.5t43 65.5q0 68 -155 91q-99 15 -150 54.5t-51 98.5q0 66 58 109.5t145 43.5q96 0 158 -51.5t50 -122.5h-74q17 40 -24.5 72.5t-109.5 32.5q-56 0 -94.5 -24t-38.5 -58q0 -66 140 -86
q106 -15 161.5 -56t55.5 -104q0 -69 -62.5 -114.5t-156.5 -45.5zM190 1016v-233h-70v535h413v-69h-343v-164h323v-69h-323zM780 143q-103 0 -168 53t-54 128h73q-16 -43 29.5 -77t118.5 -34q62 0 105 25.5t43 63.5q0 70 -152 93q-100 14 -152 53.5t-52 99.5q0 66 58.5 109.5
t145.5 43.5q96 0 157 -51.5t50 -122.5h-74q17 40 -24.5 72.5t-108.5 32.5q-56 0 -95 -24t-39 -59q0 -64 139 -84q218 -32 218 -162q0 -69 -62 -114.5t-156 -45.5zM190 387v-233h-70v535h413v-68h-343v-164h323v-70h-323zM392 98v-37h-12v37h-7v7l7 3v3q0 8 5 11q0 4 11 4
q9 0 13 -2l-4 -10q-3 1 -8 1q-3 0 -4 -1q-1 -2 -1 -4v-2h11v-10h-11zM695 113q-7 0 -7 6q0 7 7 7t7 -7q0 -4 -1 -5q-1 0 -3 -0.5t-3 -0.5zM536 60q-6 0 -12 4q-4 4 -4 12v22h-4v5l5 5l5 9h8v-9h13v-10h-13v-22q0 -2 2 -4q2 -1 4 -1q1 0 3.5 0.5t4.5 0.5v-10q-8 -2 -12 -2z
M668 60q-8 0 -12 4q-3 2 -3 12v22h-7v5l7 5l4 9h8v-9h14v-10h-14v-22q0 -3 2 -4l4 -1l8 1v-10q-4 -2 -11 -2zM568 60q-4 0 -10 4q-5 3 -5 11q0 7 7 11q2 2 16 4h6v2q0 7 -6 7t-13 -3l-5 9q12 4 19 4q4 0 14 -4q4 -4 4 -13v-31h-9l-2 5h-1q-1 0 -2.5 -2t-2.5 -2q-2 -2 -10 -2
zM771 60q-4 0 -12 4q-4 3 -4 11q0 7 6 11q1 2 16 4h8v2q0 7 -7 7q-6 0 -15 -3l-3 9q10 4 18 4q4 0 14 -4q5 -4 5 -13v-31h-10l-1 5h-1l-6 -4q-2 -2 -8 -2zM944 82v-21h-12v47h9l2 -6h1q1 2 4 4t9 2q12 0 15 -6h1q2 4 5 4q6 2 8 2q9 0 12 -3q5 -4 5 -14v-30h-13v28q0 3 -2 7
q-2 2 -6 2t-7 -3q-2 -4 -2 -11v-23h-13v28q0 3 -2 7q-1 2 -4 2q-6 0 -8 -3q-2 -6 -2 -13zM163 97l-8 -36h-14l-13 47h13l5 -20l3 -16q0 5 1 8l1 6l5 22h15l5 -22q1 -2 1 -4v-4q0 -1 1 -3v-3q0 3 2 7q0 2 0.5 5t0.5 4l7 20h12l-13 -47h-15l-4 16l-4 20h-1zM237 97l-10 -36
h-12l-14 47h13l5 -20q2 -12 2 -16h1q0 1 0.5 3.5t0.5 4.5l1 6l6 22h13l7 -22v-8v-1q1 -1 1 -2v-3q0 3 2 7q0 7 1 9l5 20h14l-15 -47h-13l-4 16zM310 97l-10 -36h-13l-12 47h12l5 -20q0 -3 1 -8t1 -8h1q0 2 2 8l1 6l4 22h16l4 -22v-2l1 -2q0 -1 1 -2v-2v-3q1 -2 1 -3q0 5 1 7
q0 2 0.5 5t0.5 4l7 20h12l-13 -47h-14l-4 16l-4 20h-1zM430 60q-7 0 -12 4q-4 1 -8 8q-1 4 -1 12q0 13 5 19q7 5 16 5t13 -2q6 -4 8 -9q2 -8 2 -13q0 -9 -6 -18q-5 -6 -17 -6zM477 82v-21h-14v47h10l2 -6h1q2 4 6 4q2 2 8 2q9 0 12 -4q5 -2 5 -13v-30h-13v28q0 5 -1 7
q-4 2 -8 2q-3 0 -6 -3q-2 -3 -2 -13zM621 60q-6 0 -8 1q-1 1 -3.5 1t-3.5 1v10q1 0 4 -0.5t4 -1.5q4 -2 7 -2q8 0 8 4v4q-2 0 -4 1q-1 0 -7 2t-6 4q-4 4 -4 5q-2 2 -2 6q0 7 6 10q3 3 13 3t16 -3l-4 -10q-1 1 -4 2l-3 1h-6q-6 0 -6 -2q0 -3 1 -3l10 -4l8 -3q1 -2 2.5 -3.5
t1.5 -2.5v-5q0 -8 -4 -11q-8 -4 -16 -4zM702 108v-47h-13v47h13zM734 60q-22 0 -22 23q0 12 5 20q7 5 18 5q8 0 14 -2l-3 -11q-4 2 -6 2q-1 0 -2 0.5t-3 0.5q-10 0 -10 -14q0 -13 10 -13q1 0 3 0.5t4 0.5q3 0 6 3v-11l-6 -3q-3 -1 -8 -1zM853 60q-21 0 -21 23q0 13 6 20
q7 5 17 5q3 0 15 -2l-5 -11q-2 2 -5 2q-1 0 -3 1h-2q-10 0 -10 -14q0 -13 10 -13q1 0 3 1h3q4 0 7 3v-11q-1 -1 -7 -3q-1 -1 -8 -1zM897 60q-7 0 -10 4q-7 2 -8 8q-3 6 -3 12q0 11 5 19q7 5 16 5q11 0 13 -2q7 -3 9 -9q2 -4 2 -13q0 -10 -7 -18q-6 -6 -17 -6zM430 71
q5 0 8 3q2 3 2 10q0 8 -2 11q-3 3 -8 3q-6 0 -7 -3q-2 -3 -2 -11q0 -7 2 -10q1 -3 7 -3zM897 71q7 0 9 3t2 10q0 8 -2 11t-9 3q-3 0 -6 -3q-2 -3 -2 -11q0 -7 2 -10q3 -3 6 -3zM574 69q3 0 6 3q2 4 2 6v4h-3q-8 -2 -10 -3q-1 0 -1 -4q0 -6 6 -6zM775 69l6 3q4 4 4 6v4h-6
q-5 -1 -7 -3q-3 0 -3 -4q0 -6 6 -6zM359 60q-4 0 -7 2v2l-1 2l1 6q6 2 7 2q3 0 5 -2q2 0 2 -6l-2 -4q-2 -2 -5 -2zM815 60q-3 0 -4 2l-2 4q0 6 2 6q2 2 4 2q3 0 7 -2q1 -3 1 -6l-1 -2v-2q-2 -2 -7 -2z" />
    </font>
</defs>
</svg>
