<?xml version="1.0" standalone="no"?>
<!DOCTYPE svg PUBLIC "-//W3C//DTD SVG 1.1//EN" "http://www.w3.org/Graphics/SVG/1.1/DTD/svg11.dtd" >
<svg xmlns="http://www.w3.org/2000/svg" xmlns:xlink="http://www.w3.org/1999/xlink" version="1.1">
<metadata>
Created by FontForge 20170731 at Wed Oct 20 22:58:10 2021
 By Aleksey,,,
Copyright (c) 2021 by Fontastica. All rights reserved.
</metadata>
<defs>
<font id="EinerGrotesk-Italic" horiz-adv-x="1202" vert-adv-y="2048" >
  <font-face 
    font-family="Einer Grotesk"
    font-weight="400"
    font-style="italic"
    font-stretch="normal"
    units-per-em="2048"
    panose-1="0 0 5 0 0 0 0 0 0 0"
    ascent="1638"
    descent="-410"
    x-height="969"
    cap-height="1390"
    bbox="47 -430 2708 1929"
    underline-thickness="50"
    underline-position="-150"
    slope="-9"
    unicode-range="U+000D-F8FF"
  />
<missing-glyph horiz-adv-x="1459" vert-adv-y="2130" 
d="M1446 1396l-222 -1402h-991l222 1402h991zM1191 1242h-529l201 -399zM1225 1042l-285 -347l175 -349zM740 695l-176 346l-110 -693zM1018 150l-200 397l-327 -397h527z" />
    <glyph glyph-name="t_t.liga" unicode="tt" horiz-adv-x="1201" vert-adv-y="2130" 
d="M652 143l-23 -146q-143 8 -228 97.5t-66 211.5l83 519h-162l23 145h162l66 418h145l-66 -418h302l66 418h145l-66 -418h179l-23 -145h-179l-83 -519q-10 -64 40 -111t133 -52l-23 -146q-143 8 -228.5 97.5t-66.5 211.5l83 519h-302l-83 -519q-10 -64 39.5 -111t132.5 -52
z" />
    <glyph glyph-name=".notdef" horiz-adv-x="1459" vert-adv-y="2130" 
d="M1446 1396l-222 -1402h-991l222 1402h991zM1191 1242h-529l201 -399zM1225 1042l-285 -347l175 -349zM740 695l-176 346l-110 -693zM1018 150l-200 397l-327 -397h527z" />
    <glyph glyph-name=".null" horiz-adv-x="0" vert-adv-y="0" 
 />
    <glyph glyph-name="nonmarkingreturn" horiz-adv-x="682" 
 />
    <glyph glyph-name="CR" unicode="&#xd;" horiz-adv-x="304" vert-adv-y="2130" 
 />
    <glyph glyph-name="space" unicode=" " horiz-adv-x="502" vert-adv-y="2130" 
 />
    <glyph glyph-name="exclam" unicode="!" horiz-adv-x="554" vert-adv-y="2130" 
d="M486 818l-95 -495h-126l65 495l84 530h156zM278 0q-38 0 -61.5 28t-17.5 66q6 37 38 64t70 27t60.5 -27t16.5 -64q-6 -38 -37.5 -66t-68.5 -28z" />
    <glyph glyph-name="quotedbl" unicode="&#x22;" horiz-adv-x="636" vert-adv-y="2130" 
d="M526 1353l-50 -315h-133l50 315h133zM672 1353l-50 -315h-134l50 315h134z" />
    <glyph glyph-name="numbersign" unicode="#" horiz-adv-x="1638" vert-adv-y="2130" 
d="M701 376l-100 -376h-147l102 376h-357l38 146h358l82 302h-358l38 144h358l105 380h145l-103 -380h284l104 380h145l-103 -380h358l-37 -144h-359l-83 -302h359l-39 -146h-360l-100 -376h-146l101 376h-285zM1108 824h-286l-82 -302h286z" />
    <glyph glyph-name="dollar" unicode="$" horiz-adv-x="1278" vert-adv-y="2130" 
d="M707 -24l-28 -177h-145l28 176q-198 18 -317.5 140t-102.5 290h147q-8 -109 76 -189t220 -96l81 511q-210 45 -310 138t-78 229q24 152 163.5 255t341.5 120l28 175h145l-28 -177q179 -20 284.5 -135.5t90.5 -273.5h-149q10 99 -60 172.5t-189 91.5l-75 -472
q231 -44 333 -141t79 -244q-25 -156 -174 -265.5t-361 -127.5zM689 777l71 449q-135 -14 -228.5 -76.5t-107.5 -151.5q-12 -77 56 -133.5t209 -87.5zM807 607l-77 -487q145 18 247.5 87t117.5 162q13 82 -61.5 142.5t-226.5 95.5z" />
    <glyph glyph-name="percent" unicode="%" horiz-adv-x="1618" vert-adv-y="2130" 
d="M1687 1348l-1352 -1348h-190l1351 1348h191zM591 844q-105 0 -167.5 73.5t-46.5 177.5q17 104 103.5 178.5t190.5 74.5t165 -74.5t44 -178.5t-101 -177.5t-188 -73.5zM613 988q44 0 80.5 32t43.5 75q7 44 -19.5 75.5t-70.5 31.5q-45 0 -81 -31.5t-44 -75.5
q-7 -44 19.5 -75.5t71.5 -31.5zM1161 0q-103 0 -165.5 74.5t-46.5 177.5t102.5 177.5t189.5 74.5q104 0 166.5 -74.5t46.5 -177.5t-102.5 -177.5t-190.5 -74.5zM1184 145q44 0 81 31.5t44 75.5t-20 75.5t-71 31.5t-80.5 -31.5t-43.5 -75.5t19.5 -75.5t70.5 -31.5z" />
    <glyph glyph-name="ampersand" unicode="&#x26;" horiz-adv-x="1422" vert-adv-y="2130" 
d="M653 -11q-66 0 -126 12.5t-112.5 40.5t-88.5 68.5t-52 100.5t-5 132q36 222 316 368q-65 84 -89.5 156.5t-12.5 147.5q23 143 140 237.5t276 94.5q145 0 238 -86.5t70 -228.5q-36 -232 -369 -360l287 -300q60 87 94 179h149q-64 -176 -147 -280l219 -229l-214 -7
l-115 122q-98 -81 -217 -124.5t-241 -43.5zM737 770l122 53q168 72 189 201q13 83 -34.5 132.5t-137.5 49.5q-94 0 -158 -52t-79 -144q-7 -44 4.5 -82.5t49.5 -94.5l4 -6q21 -32 40 -57zM664 129q95 0 187.5 33t166.5 94l-335 355q-118 -51 -181 -114.5t-76 -145.5
q-17 -102 47 -162t191 -60z" />
    <glyph glyph-name="quotesingle" unicode="'" horiz-adv-x="528" vert-adv-y="2130" 
d="M594 1347l-169 -305h-151l139 305h181z" />
    <glyph glyph-name="parenleft" unicode="(" horiz-adv-x="620" vert-adv-y="2130" 
d="M497 -114l-17 -107q-95 14 -158.5 141.5t-78.5 321.5t19 432q36 228 116.5 429.5t183 326t201.5 138.5l-17 -107q-94 -19 -191.5 -244.5t-147.5 -542.5q-32 -216 -32.5 -387t32 -280t90.5 -121z" />
    <glyph glyph-name="parenright" unicode=")" horiz-adv-x="620" vert-adv-y="2130" 
d="M70 -221l17 107q95 18 193 244t148 544q50 317 23.5 542.5t-115.5 244.5l17 107q95 -14 159 -141t79 -321t-19 -432q-36 -229 -116.5 -430t-183 -326t-202.5 -139z" />
    <glyph glyph-name="asterisk" unicode="*" horiz-adv-x="810" vert-adv-y="2130" 
d="M632 1014l-17 -105h-131l17 105l-100 -53l-48 113l101 54l-84 53l84 112l83 -52l17 107h131l-17 -107l98 52l49 -112l-101 -53l84 -54l-85 -113z" />
    <glyph glyph-name="plus" unicode="+" horiz-adv-x="1084" vert-adv-y="2130" 
d="M698 529l-52 -327h-145l52 327h-326l23 145h326l52 327h145l-52 -327h328l-23 -145h-328z" />
    <glyph glyph-name="comma" unicode="," horiz-adv-x="554" vert-adv-y="2130" 
d="M426 196l-170 -303h-151l140 303h181z" />
    <glyph glyph-name="hyphen" unicode="-" horiz-adv-x="1024" vert-adv-y="2130" 
d="M937 611l-23 -145h-655l23 145h655z" />
    <glyph glyph-name="period" unicode="." horiz-adv-x="518" vert-adv-y="2130" 
d="M260 7q-38 0 -61.5 27.5t-17.5 65.5t38 65t70 27q37 0 60 -27t17 -65t-37.5 -65.5t-68.5 -27.5z" />
    <glyph glyph-name="slash" unicode="/" horiz-adv-x="947" vert-adv-y="2130" 
d="M1039 1419l-766 -1492h-154l766 1492h154z" />
    <glyph glyph-name="zero" unicode="0" horiz-adv-x="1382" vert-adv-y="2130" 
d="M690 0q-107 0 -193.5 36t-142 99.5t-90.5 150.5t-40 190t11 218q23 144 80 269t142 220t202 150t251 55q108 0 194.5 -35.5t142.5 -99t91.5 -151t40.5 -190.5t-11 -218q-23 -143 -80.5 -268.5t-142.5 -220.5t-203 -150t-252 -55zM713 144q135 0 244.5 77t175 199.5
t89.5 273.5q12 89 9.5 170t-27.5 151t-65.5 121t-105 80t-146.5 29q-101 0 -189 -44.5t-151.5 -121t-106.5 -175t-60 -210.5q-12 -89 -10 -170.5t27 -150.5t65.5 -120t105 -80t145.5 -29z" />
    <glyph glyph-name="one" unicode="1" horiz-adv-x="700" vert-adv-y="2130" 
d="M795 1388l-220 -1388h-145l187 1182l-222 -161l-83 109l362 258h121z" />
    <glyph glyph-name="two" unicode="2" horiz-adv-x="1237" vert-adv-y="2130" 
d="M1137 149l-24 -149h-987l18 111q8 50 26 97.5t41 87t59 80t68.5 71.5t81 66t86 59.5t94 56t93.5 51.5t96 50l43 20q63 32 97 51t75.5 45.5t62.5 47t37.5 47.5t21.5 56q10 61 -12.5 108.5t-68.5 76t-104 43t-124 14.5q-88 0 -168.5 -28.5t-143.5 -91t-81 -148.5h-145
q27 133 115 229.5t202 141.5t241 46h6q98 0 181 -24t144.5 -71t89.5 -123t13 -172q-20 -125 -121 -212q-72 -63 -266 -163q-21 -11 -83 -43q-58 -30 -87 -45.5t-86 -48t-90 -55.5t-79 -59.5t-73.5 -68t-52.5 -72.5t-36 -82h840z" />
    <glyph glyph-name="three" unicode="3" horiz-adv-x="1312" vert-adv-y="2130" 
d="M659 13q-230 0 -359 119t-105 311h144q-13 -129 81 -207.5t261 -78.5q171 0 289 67.5t135 173.5q16 96 -70 170t-241 81l-12 -1l-147 -2l22 137l143 -4h13q155 0 256 70t116 166q16 102 -75.5 165.5t-255.5 63.5q-159 0 -272 -74.5t-139 -195.5h-143q38 184 198 299
t378 115q225 0 350 -104.5t99 -266.5q-14 -89 -75 -169t-146 -130q85 -52 124.5 -134t23.5 -180q-28 -175 -193.5 -283t-399.5 -108z" />
    <glyph glyph-name="four" unicode="4" horiz-adv-x="1360" vert-adv-y="2130" 
d="M1074 321l-51 -321h-144l51 321h-754l20 125l922 942h125l-145 -916h212l-24 -151h-212zM954 472l105 663l-647 -663h542z" />
    <glyph glyph-name="five" unicode="5" horiz-adv-x="1291" vert-adv-y="2130" 
d="M636 0h-27q-182 14 -293 132t-118 308h148q10 -112 91.5 -187t202.5 -92h21q173 0 294 88t143 230q21 130 -76 217.5t-258 96.5q-102 -3 -197.5 -41.5t-159.5 -105.5h-148l213 742h831l-24 -149h-708l-95 -359q140 74 307 74h4q106 0 196 -31t155.5 -88t94.5 -148
t11 -203q-34 -217 -203 -350.5t-405 -133.5z" />
    <glyph glyph-name="six" unicode="6" horiz-adv-x="1299" vert-adv-y="2130" 
d="M651 1h-7q-232 2 -354.5 132.5t-90.5 335.5l36 226q55 349 210.5 521t414.5 172q332 0 454 -352h-160q-81 204 -319 204q-169 0 -272.5 -105t-159.5 -329q161 124 387 124h7q237 -2 360.5 -127.5t90.5 -332.5q-33 -208 -199.5 -338.5t-397.5 -130.5zM675 160
q167 0 287 86.5t142 222.5q22 137 -70.5 223t-262.5 86q-166 0 -285.5 -86.5t-141.5 -223.5q-22 -136 69.5 -222t261.5 -86z" />
    <glyph glyph-name="seven" unicode="7" horiz-adv-x="1274" vert-adv-y="2130" 
d="M1349 1269l-742 -1269h-159l726 1238h-853l24 150h1023z" />
    <glyph glyph-name="eight" unicode="8" horiz-adv-x="1310" vert-adv-y="2130" 
d="M655 1q-236 0 -365.5 109.5t-101.5 286.5q34 214 254 317q-80 46 -116 121t-20 173q27 170 185 275t384 105q225 0 350 -105t99 -271q-15 -99 -77 -175t-157 -124q91 -48 133 -129.5t25 -187.5q-28 -176 -192.5 -285.5t-400.5 -109.5zM778 778h19q155 0 261 64.5
t123 165.5q16 106 -74.5 170.5t-254.5 64.5t-275.5 -64.5t-127.5 -170.5q-16 -103 74.5 -166.5t254.5 -63.5zM679 149q173 0 289.5 68t134.5 179q17 108 -74 175.5t-253 67.5h-20q-174 0 -290 -66.5t-133 -176.5q-18 -111 77.5 -179t268.5 -68z" />
    <glyph glyph-name="nine" unicode="9" horiz-adv-x="1299" vert-adv-y="2130" 
d="M658 0q-332 0 -454 350h160q81 -201 319 -201q79 0 143 22t110 59.5t82 93.5t59 118t41 140q-163 -125 -397 -125q-235 0 -359 128t-92 333q33 207 199.5 338.5t398.5 131.5h8q231 -2 353 -133.5t90 -336.5l-35 -225q-56 -350 -210.5 -521.5t-415.5 -171.5zM749 611
q165 0 285 86.5t142 221.5q21 136 -71 222.5t-261 86.5q-167 0 -287 -86.5t-142 -223.5q-21 -136 71 -221.5t263 -85.5z" />
    <glyph glyph-name="colon" unicode=":" horiz-adv-x="518" vert-adv-y="2130" 
d="M359 640q-38 0 -61.5 27.5t-17.5 65.5t38.5 65.5t70.5 27.5q37 0 59.5 -27.5t16.5 -65.5t-37 -65.5t-69 -27.5zM258 0q-38 0 -61.5 28t-17.5 66q6 37 38 64t70 27t60.5 -27t16.5 -64q-6 -38 -37.5 -66t-68.5 -28z" />
    <glyph glyph-name="semicolon" unicode=";" horiz-adv-x="549" vert-adv-y="2130" 
d="M369 640q-38 0 -61 27.5t-17 65.5q6 37 38 65t70 28t61.5 -27.5t17.5 -65.5t-38.5 -65.5t-70.5 -27.5zM413 196l-170 -303h-151l140 303h181z" />
    <glyph glyph-name="less" unicode="&#x3c;" horiz-adv-x="1022" vert-adv-y="2130" 
d="M399 596l494 -296l-26 -164l-663 399l20 125l789 399l-26 -164z" />
    <glyph glyph-name="equal" unicode="=" horiz-adv-x="1112" vert-adv-y="2130" 
d="M1048 817l-22 -144h-726l22 144h726zM1003 530l-23 -144h-726l23 144h726z" />
    <glyph glyph-name="greater" unicode="&#x3e;" horiz-adv-x="1022" vert-adv-y="2130" 
d="M1008 660l-20 -125l-789 -399l26 164l586 296l-492 299l26 164z" />
    <glyph glyph-name="question" unicode="?" horiz-adv-x="1194" vert-adv-y="2130" 
d="M652 396l-24 -151h-148l27 151q10 59 23 96t38 66.5t53.5 49t82.5 47.5q54 29 91.5 50.5t94 59t93 70.5t66.5 76.5t37 84.5q16 102 -72.5 168.5t-237.5 66.5q-140 0 -238 -73t-123 -196h-144q37 186 182 300t345 114q206 0 329.5 -109.5t103.5 -269.5
q-11 -62 -47.5 -122.5t-83 -108t-109 -94t-117 -78.5t-115.5 -63l-11 -6q-34 -17 -48 -26.5t-27.5 -34.5t-20.5 -68zM516 0q-38 0 -61.5 28t-17.5 66q6 37 38 64t70 27q37 0 60 -27t17 -64q-6 -38 -37.5 -66t-68.5 -28z" />
    <glyph glyph-name="at" unicode="@" horiz-adv-x="1684" vert-adv-y="2130" 
d="M847 -29h-2q-190 0 -336.5 94.5t-214.5 256.5t-38 352q30 191 150 352.5t296 255.5t366 94q142 0 263 -56.5t200.5 -150.5t115.5 -224t14 -271l-24 -147q-17 -107 -100.5 -184.5t-189.5 -77.5q-18 0 -44 4l-27 -165q-216 -133 -429 -133zM871 117q180 0 416 156
q-70 21 -105 85q-128 -99 -300 -99h-8q-165 3 -262.5 95.5t-76.5 225.5l30 192q21 131 150.5 225.5t282.5 94.5q141 0 243 -84l6 43h145l-89 -553q-3 -35 15 -60.5t48 -28.5q45 3 82 37.5t44 80.5l24 147q24 151 -30.5 279.5t-171 203t-268.5 74.5q-151 0 -291 -74.5
t-235 -202.5t-119 -280q-24 -151 30 -279.5t171 -203t269 -74.5zM902 403l8 -1q92 4 166.5 56.5t97.5 126.5l30 193q0 68 -63.5 118t-156.5 50q-102 0 -183 -51t-92 -123l-30 -192q-11 -70 52.5 -121.5t170.5 -55.5z" />
    <glyph glyph-name="A" unicode="A" horiz-adv-x="1622" vert-adv-y="2130" 
d="M546 383l-249 -383h-163l898 1397l456 -1397h-163l-127 383h-652zM1153 540l-174 528l-338 -528h512z" />
    <glyph glyph-name="B" unicode="B" horiz-adv-x="1401" vert-adv-y="2130" 
d="M889 0h-764l220 1390h718q160 0 255 -112t70 -271q-14 -89 -62.5 -165t-120.5 -126q74 -50 110.5 -140t20.5 -193q-17 -105 -82.5 -193t-162.5 -139t-202 -51zM1040 1242h-570l-75 -474h570q99 0 180 70t96 169q16 98 -42.5 166.5t-158.5 68.5zM988 622h-616l-76 -474
h616q101 0 181.5 68t96.5 167q15 99 -44 169t-158 70z" />
    <glyph glyph-name="C" unicode="C" horiz-adv-x="1611" vert-adv-y="2130" 
d="M844 -29q-196 0 -347.5 96.5t-222 263t-39.5 364.5t155 364.5t306 263t378 96.5q185 0 337 -96.5t236 -267.5l-132 -87q-72 142 -195.5 223t-269.5 81q-156 0 -301 -77t-243 -210t-123 -290t31.5 -290t177 -210t276.5 -77q145 0 294 80.5t266 223.5l104 -87
q-138 -171 -320.5 -267.5t-367.5 -96.5z" />
    <glyph glyph-name="D" unicode="D" horiz-adv-x="1454" vert-adv-y="2130" 
d="M634 0h-509l220 1390h509q141 0 261.5 -55t198.5 -148t112.5 -222t12.5 -270q-30 -189 -148.5 -349t-293 -253t-363.5 -93zM831 1242h-361l-174 -1094h361q149 0 286.5 73t230.5 199t117 275q18 111 -9.5 212.5t-88.5 174.5t-155.5 116.5t-206.5 43.5z" />
    <glyph glyph-name="E" unicode="E" horiz-adv-x="1313" vert-adv-y="2130" 
d="M1210 148l-23 -148h-1062l220 1390h1062l-23 -148h-914l-75 -474h859l-23 -146h-859l-76 -474h914z" />
    <glyph glyph-name="F" unicode="F" horiz-adv-x="1313" vert-adv-y="2130" 
d="M372 622l-99 -622h-148l220 1390h1062l-23 -148h-914l-75 -474h859l-23 -146h-859z" />
    <glyph glyph-name="G" unicode="G" horiz-adv-x="1606" vert-adv-y="2130" 
d="M844 -29q-196 0 -347.5 96.5t-222 263t-39.5 364.5t155 364.5t306 263t378 96.5q185 0 337 -96.5t236 -267.5l-132 -87q-72 142 -195.5 223t-269.5 81q-156 0 -301 -77t-243 -210t-123 -290t31.5 -290t177 -210t276.5 -77q138 0 272 64t235 178l39 245h-569l23 147h716
l-68 -436q-128 -161 -306.5 -253t-365.5 -92z" />
    <glyph glyph-name="H" unicode="H" horiz-adv-x="1391" vert-adv-y="2130" 
d="M372 622l-99 -622h-148l220 1390h148l-98 -622h846l98 622h148l-220 -1390h-148l99 622h-846z" />
    <glyph glyph-name="I" unicode="I" horiz-adv-x="398" vert-adv-y="2130" 
d="M493 1390l-220 -1390h-148l220 1390h148z" />
    <glyph glyph-name="J" unicode="J" horiz-adv-x="1334" vert-adv-y="2130" 
d="M634 -29q-146 0 -267 80.5t-192 223.5l138 73q55 -108 146.5 -169t198.5 -61q175 0 318 124t171 299l134 849h148l-134 -849q-25 -155 -122 -286.5t-240.5 -207.5t-298.5 -76z" />
    <glyph glyph-name="K" unicode="K" horiz-adv-x="1420" vert-adv-y="2130" 
d="M348 474l-75 -474h-148l220 1390h148l-113 -716l899 716h222l-695 -551l469 -839h-180l-415 739z" />
    <glyph glyph-name="L" unicode="L" horiz-adv-x="1313" vert-adv-y="2130" 
d="M1210 148l-23 -148h-1062l220 1390h148l-197 -1242h914z" />
    <glyph glyph-name="M" unicode="M" horiz-adv-x="1630" vert-adv-y="2130" 
d="M1356 0l155 964l-697 -971l-390 971l-151 -964h-148l220 1388h80l436 -1099l784 1099h79l-220 -1388h-148z" />
    <glyph glyph-name="N" unicode="N" horiz-adv-x="1391" vert-adv-y="2130" 
d="M1339 1390h148l-222 -1400l-833 1017l-159 -1007h-148l221 1398l832 -1027z" />
    <glyph glyph-name="O" unicode="O" horiz-adv-x="1699" vert-adv-y="2130" 
d="M844 -29q-196 0 -347.5 96.5t-222 263t-39.5 364.5t155 364.5t306 263t378 96.5q198 0 349.5 -96.5t222 -263t39.5 -364.5q-24 -148 -102.5 -282t-191 -231t-256 -154t-291.5 -57zM868 118q157 0 302.5 77t243.5 210t123 290q19 118 -10 224.5t-94 184t-165 123
t-218 45.5q-156 0 -301 -77t-243 -210t-123 -290t31.5 -290t177 -210t276.5 -77z" />
    <glyph glyph-name="P" unicode="P" horiz-adv-x="1401" vert-adv-y="2130" 
d="M348 471l-75 -471h-148l220 1390h691q125 0 221 -61t141 -166.5t25 -230.5q-31 -192 -186 -326.5t-346 -134.5h-543zM1013 1242h-543l-99 -622h543q129 0 235.5 91t127.5 221q20 128 -57.5 219t-206.5 91z" />
    <glyph glyph-name="Q" unicode="Q" horiz-adv-x="1713" vert-adv-y="2130" 
d="M844 -29q-196 0 -347.5 96.5t-222 263t-39.5 364.5t155 364.5t306 263t378 96.5q198 0 349.5 -96.5t222 -263t39.5 -364.5q-18 -115 -77.5 -231.5t-146.5 -213.5l141 -165l-122 -106l-139 164q-112 -81 -241.5 -126.5t-255.5 -45.5zM868 118q208 0 385 131l-134 157
l119 108l134 -159q134 150 165 340q19 118 -10 224.5t-94 184t-165 123t-218 45.5q-156 0 -301 -77t-243 -210t-123 -290t31.5 -290t177 -210t276.5 -77z" />
    <glyph glyph-name="R" unicode="R" horiz-adv-x="1415" vert-adv-y="2130" 
d="M348 472l-75 -472h-148l220 1390h691q125 0 221 -61t140.5 -167t24.5 -231q-24 -154 -131.5 -274.5t-258.5 -162.5l259 -494h-179l-247 472h-517zM1013 1242h-543l-99 -621h571q120 19 218 108t116 202q21 129 -56.5 220t-206.5 91z" />
    <glyph glyph-name="S" unicode="S" horiz-adv-x="1392" vert-adv-y="2130" 
d="M701 -29q-238 0 -382.5 127.5t-127.5 318.5h152q-11 -128 97.5 -213.5t283.5 -85.5t304.5 74t147.5 187q16 99 -80 166t-300 98q-256 39 -373 136.5t-93 251.5q27 167 195 277.5t391 110.5q145 0 257 -55.5t169.5 -153t46.5 -216.5h-150q9 119 -89.5 198.5t-256.5 79.5
q-160 0 -278 -68t-134 -172q-14 -92 75.5 -154.5t272.5 -88.5q273 -41 398.5 -144t100.5 -265q-28 -177 -207.5 -293t-419.5 -116z" />
    <glyph glyph-name="T" unicode="T" horiz-adv-x="1454" vert-adv-y="2130" 
d="M998 1242l-197 -1242h-147l197 1242h-529l23 148h1204l-23 -148h-528z" />
    <glyph glyph-name="U" unicode="U" horiz-adv-x="1391" vert-adv-y="2130" 
d="M691 -29q-155 0 -274.5 76.5t-175 207.5t-30.5 286l134 849h148l-134 -849q-14 -86 7.5 -164t69 -135t120.5 -90.5t159 -33.5q175 0 318.5 124t171.5 299l134 849h148l-134 -849q-25 -155 -122.5 -286.5t-241 -207.5t-298.5 -76z" />
    <glyph glyph-name="V" unicode="V" horiz-adv-x="1622" vert-adv-y="2130" 
d="M1545 1390h163l-897 -1390l-457 1390h163l347 -1050z" />
    <glyph glyph-name="W" unicode="W" horiz-adv-x="2225" vert-adv-y="2130" 
d="M1551 0l-259 1136l-619 -1136l-319 1388h155l228 -984l539 984h112l227 -984l542 984h154z" />
    <glyph glyph-name="X" unicode="X" horiz-adv-x="1638" vert-adv-y="2130" 
d="M910 576l-570 -576h-198l689 695l-469 695h198l388 -576l571 576h198l-689 -695l469 -695h-198z" />
    <glyph glyph-name="Y" unicode="Y" horiz-adv-x="1620" vert-adv-y="2130" 
d="M969 538l-85 -538h-148l85 538l-462 852h182l377 -705l602 705h182z" />
    <glyph glyph-name="Z" unicode="Z" horiz-adv-x="1631" vert-adv-y="2130" 
d="M1409 148l-23 -148h-1244l1229 1242h-911l23 148h1226l-1230 -1242h930z" />
    <glyph glyph-name="bracketleft" unicode="[" horiz-adv-x="636" vert-adv-y="2130" 
d="M544 -70l-23 -146h-360l281 1778h360l-23 -145h-215l-235 -1487h215z" />
    <glyph glyph-name="backslash" unicode="\" horiz-adv-x="947" vert-adv-y="2130" 
d="M512 1419l292 -1492h-154l-292 1492h154z" />
    <glyph glyph-name="bracketright" unicode="]" horiz-adv-x="636" vert-adv-y="2130" 
d="M688 1562l-281 -1778h-360l23 146h216l235 1487h-216l23 145h360z" />
    <glyph glyph-name="asciicircum" unicode="^" horiz-adv-x="1129" vert-adv-y="2130" 
d="M748 1163l-286 -398h-167l421 583h125l235 -583h-165z" />
    <glyph glyph-name="underscore" unicode="_" horiz-adv-x="1196" vert-adv-y="2130" 
d="M1042 56l-23 -146h-870l23 146h870z" />
    <glyph glyph-name="grave" unicode="`" horiz-adv-x="924" vert-adv-y="2130" 
d="M604 1418l269 -250l-110 -110l-268 249z" />
    <glyph glyph-name="a" unicode="a" horiz-adv-x="1035" vert-adv-y="2130" 
d="M518 -17q-165 0 -265.5 92.5t-80.5 222.5q22 136 162 230t318 94h211l3 24q3 78 -48.5 130t-145.5 52q-95 0 -182.5 -56t-112.5 -157h-146q21 84 70.5 153t114 113t137 67.5t143.5 23.5q171 0 254 -94t58 -254l-99 -624h-145l9 57q-112 -74 -255 -74zM537 126
q93 0 172 50t102 119l29 183h-211q-117 0 -208.5 -52t-102.5 -126q-11 -70 53.5 -122t165.5 -52z" />
    <glyph glyph-name="b" unicode="b" horiz-adv-x="1149" vert-adv-y="2130" 
d="M575 -17q-183 0 -287 131l-18 -114h-145l214 1348h145l-78 -492q146 132 328 132q192 0 296.5 -143t70.5 -360q-23 -142 -99 -257t-188.5 -180t-238.5 -65zM598 126q132 0 236 103t128 256t-47 256t-203 103q-130 0 -234 -103t-128 -256t47 -256t201 -103z" />
    <glyph glyph-name="c" unicode="c" horiz-adv-x="1150" vert-adv-y="2130" 
d="M597 -17q-204 0 -316.5 143t-78.5 359q23 143 102.5 258t198.5 180t253 65q121 0 221.5 -65.5t158.5 -184.5l-134 -79q-43 87 -114 136t-154 49q-142 0 -252.5 -103t-134.5 -256t54 -256t219 -103q83 0 169.5 49t157.5 136l109 -79q-95 -119 -216 -184t-243 -65z" />
    <glyph glyph-name="d" unicode="d" horiz-adv-x="1149" vert-adv-y="2130" 
d="M567 -17q-190 0 -294.5 143t-70.5 359t184 359.5t340 143.5q184 0 290 -132l78 492h144l-214 -1348h-144l18 114q-147 -131 -331 -131zM590 126q132 0 236 103t128 256t-47 256t-203 103q-131 0 -234.5 -103t-127.5 -256t46.5 -256t201.5 -103z" />
    <glyph glyph-name="e" unicode="e" vert-adv-y="2130" 
d="M597 -17q-204 0 -316.5 143t-78.5 359q35 217 192 360t362 143q134 0 231.5 -71.5t139.5 -194.5t21 -274h-806q-7 -137 71 -229.5t207 -92.5q102 0 197.5 66.5t158.5 181.5l130 -47q-85 -158 -222 -251t-287 -93zM379 594h631q-13 111 -88.5 180.5t-187.5 69.5
t-209 -69.5t-146 -180.5z" />
    <glyph glyph-name="f" unicode="f" horiz-adv-x="736" vert-adv-y="2130" 
d="M545 825l-131 -825h-146l131 825h-143l23 145h143l17 109q19 123 132.5 212t259.5 97l-23 -144q-84 -5 -148 -52.5t-75 -112.5l-17 -109h172l-23 -145h-172z" />
    <glyph glyph-name="g" unicode="g" horiz-adv-x="1141" vert-adv-y="2130" 
d="M530 -386q-148 0 -247.5 86.5t-131.5 242.5h152q23 -88 89 -136t162 -48q130 0 221 75.5t111 202.5l12 74q-147 -131 -331 -131q-190 0 -295 143t-71 359t184.5 360.5t340.5 144.5q182 0 289 -134l19 119h144l-147 -927q-31 -196 -167 -313.5t-334 -117.5zM589 123
q132 0 236 103t128 256q25 154 -46.5 256.5t-203.5 102.5q-131 0 -234 -102.5t-128 -256.5q-24 -153 46.5 -256t201.5 -103z" />
    <glyph glyph-name="h" unicode="h" horiz-adv-x="999" vert-adv-y="2130" 
d="M370 634l-99 -634h-146l220 1388h145l-76 -478q111 78 242 78q156 0 247.5 -109t66.5 -264l-97 -615h-145l97 615q15 95 -40.5 162t-149.5 67q-89 0 -165 -62t-100 -148z" />
    <glyph glyph-name="i" unicode="i" horiz-adv-x="436" vert-adv-y="2130" 
d="M403 1161q-38 0 -61.5 27.5t-17.5 65.5t38.5 66t70.5 28q37 0 59.5 -28t16.5 -66t-37 -65.5t-69 -27.5zM445 970l-154 -970h-146l154 970h146z" />
    <glyph glyph-name="j" unicode="j" horiz-adv-x="743" vert-adv-y="2130" 
d="M708 1161q-37 0 -59.5 27.5t-16.5 65.5t37.5 66t68.5 28q39 0 62 -28t17 -66t-38 -65.5t-71 -27.5zM58 -424l27 144q138 4 238.5 83t128.5 197l154 972h147l-153 -964q-30 -192 -177.5 -310t-364.5 -122z" />
    <glyph glyph-name="k" unicode="k" horiz-adv-x="1080" vert-adv-y="2130" 
d="M319 311l-49 -312h-145l219 1383h145l-139 -874l549 462h193l-485 -416l312 -555h-172l-255 459z" />
    <glyph glyph-name="l" unicode="l" horiz-adv-x="395" vert-adv-y="2130" 
d="M490 1388l-220 -1388h-145l220 1388h145z" />
    <glyph glyph-name="m" unicode="m" horiz-adv-x="1466" vert-adv-y="2130" 
d="M360 615l-97 -615h-138l154 970h138l-9 -53q100 71 216 71q175 0 243 -147q121 147 289 147q144 0 225.5 -108.5t56.5 -264.5l-97 -615h-138l97 615q16 95 -32.5 164t-130.5 69q-74 0 -142 -65t-92 -153l-100 -630h-139l100 630q5 87 -43.5 152.5t-122.5 65.5
q-82 0 -152 -68.5t-86 -164.5z" />
    <glyph glyph-name="n" unicode="n" horiz-adv-x="999" vert-adv-y="2130" 
d="M368 615l-97 -615h-146l153 968h145l-9 -58q111 78 242 78q156 0 247.5 -109t66.5 -264l-97 -615h-145l97 615q15 95 -40.5 162t-149.5 67q-96 0 -174 -67t-93 -162z" />
    <glyph glyph-name="o" unicode="o" vert-adv-y="2130" 
d="M597 -17q-204 0 -316.5 143t-78.5 359q23 143 102.5 258t198.5 180t253 65q135 0 234.5 -65t143.5 -180.5t21 -257.5t-103 -257t-200 -180t-255 -65zM620 126q142 0 253.5 103t135.5 256t-54.5 256t-220.5 103t-252.5 -103t-134.5 -256t54 -256t219 -103z" />
    <glyph glyph-name="p" unicode="p" horiz-adv-x="1149" vert-adv-y="2130" 
d="M288 111l-78 -490h-145l213 1346h145l-18 -114q145 134 329 134q126 0 218 -65.5t131.5 -181t16.5 -258.5q-34 -217 -183.5 -359.5t-341.5 -142.5q-183 0 -287 131zM597 123q132 0 236 103t128 256q25 154 -46.5 256.5t-203.5 102.5q-130 0 -233.5 -102.5t-128.5 -256.5
q-24 -153 47 -256t201 -103z" />
    <glyph glyph-name="q" unicode="q" horiz-adv-x="1149" vert-adv-y="2130" 
d="M1177 967l-213 -1346h-144l78 490q-147 -131 -331 -131q-190 0 -295 143t-71 359t184.5 360.5t340.5 144.5q182 0 289 -134l18 114h144zM589 123q132 0 236 103t128 256q25 154 -46.5 256.5t-203.5 102.5q-131 0 -234 -102.5t-128 -256.5q-24 -153 46.5 -256t201.5 -103z
" />
    <glyph glyph-name="r" unicode="r" horiz-adv-x="740" vert-adv-y="2130" 
d="M368 615l-97 -615h-146l153 968h145l-9 -58q111 78 242 78q37 0 114 -16l-24 -151q-83 23 -111 23q-96 0 -174 -67t-93 -162z" />
    <glyph glyph-name="s" unicode="s" horiz-adv-x="1073" vert-adv-y="2130" 
d="M538 -17q-173 0 -274.5 93t-88.5 238h145q-4 -61 33 -105t91.5 -63.5t116.5 -19.5q99 0 186.5 40.5t99.5 114.5q2 16 -1 30t-14.5 26t-22.5 21.5t-33 18.5t-37 15t-44.5 14t-45.5 11.5t-49 11.5q-69 15 -114.5 27.5t-95.5 35t-77 49t-41.5 67.5t-6.5 93q21 129 141.5 208
t287.5 79q159 0 254.5 -89.5t84.5 -227.5h-146q5 75 -55 124t-155 49q-60 0 -115 -14t-98 -47t-50 -79q-3 -20 2 -36.5t22 -29.5t34 -22t49 -18t53.5 -14t61.5 -13q72 -15 119.5 -27.5t101.5 -36t83.5 -51.5t45.5 -72t7 -100q-22 -134 -150 -217.5t-305 -83.5z" />
    <glyph glyph-name="t" unicode="t" horiz-adv-x="754" vert-adv-y="2130" 
d="M652 143l-23 -146q-143 8 -228 97.5t-66 211.5l83 519h-162l23 145h162l66 419h145l-66 -419h179l-23 -145h-179l-83 -519q-10 -64 39.5 -111t132.5 -52z" />
    <glyph glyph-name="u" unicode="u" horiz-adv-x="999" vert-adv-y="2130" 
d="M498 -18q-156 0 -249 108.5t-68 264.5l97 614h145l-97 -614q-15 -95 41.5 -162.5t152.5 -67.5q95 0 172 67.5t92 162.5l97 614h145l-153 -968h-145l9 58q-108 -77 -239 -77z" />
    <glyph glyph-name="v" unicode="v" horiz-adv-x="1215" vert-adv-y="2130" 
d="M1074 970h161l-627 -970l-320 970h161l207 -661z" />
    <glyph glyph-name="w" unicode="w" horiz-adv-x="1556" vert-adv-y="2130" 
d="M1059 0l-162 743l-398 -743l-214 970h145l129 -593l319 593h109l132 -593l315 593h146z" />
    <glyph glyph-name="x" unicode="x" horiz-adv-x="1217" vert-adv-y="2130" 
d="M666 367l-338 -367h-188l455 485l-301 485h188l222 -366l338 366h188l-455 -485l301 -485h-188z" />
    <glyph glyph-name="y" unicode="y" horiz-adv-x="1214" vert-adv-y="2130" 
d="M1234 970l-873 -1400h-148l337 538l-262 862h160l202 -696l424 696h160z" />
    <glyph glyph-name="z" unicode="z" horiz-adv-x="1034" vert-adv-y="2130" 
d="M931 145l-23 -145h-783l19 121l691 704h-543l23 145h747l-19 -120l-690 -705h578z" />
    <glyph glyph-name="braceleft" unicode="{" horiz-adv-x="684" vert-adv-y="2130" 
d="M592 -70l-23 -146h-145q-89 0 -142.5 64t-39.5 153l84 529q5 29 -13 50t-47 21h-72l23 145h72q30 0 53.5 21t28.5 50l84 528q14 91 87.5 154t162.5 63h145l-23 -145h-145q-29 0 -52.5 -21t-28.5 -51l-84 -528q-12 -84 -78 -143q45 -66 33 -144l-84 -529q-5 -29 12.5 -50
t46.5 -21h145z" />
    <glyph glyph-name="bar" unicode="|" horiz-adv-x="535" vert-adv-y="2130" 
d="M593 1598l-298 -1885h-145l298 1885h145z" />
    <glyph glyph-name="braceright" unicode="}" horiz-adv-x="684" vert-adv-y="2130" 
d="M191 -216h-144l23 146h144q29 0 54 21t29 50l84 529q13 82 77 143q-45 57 -32 144l84 528q4 30 -14 51t-47 21h-144l23 145h144q90 0 143 -63.5t39 -153.5l-84 -528q-5 -29 13 -50t48 -21h72l-23 -145h-72q-29 0 -53.5 -21t-29.5 -50l-84 -529q-14 -89 -87.5 -153
t-162.5 -64z" />
    <glyph glyph-name="asciitilde" unicode="~" horiz-adv-x="1218" vert-adv-y="2130" 
d="M870 702q-107 0 -180 88q-37 46 -83 46q-41 0 -100 -46l-86 -78l-87 104l89 75q101 88 204 88q109 0 180 -88q41 -47 84 -47q44 0 99 47l88 77l86 -103l-90 -75q-101 -88 -204 -88z" />
    <glyph glyph-name="exclamdown" unicode="&#xa1;" horiz-adv-x="554" vert-adv-y="2130" 
d="M462 1161q-38 0 -61.5 27.5t-17.5 65.5t38.5 66t70.5 28q37 0 59.5 -28t16.5 -66t-37 -65.5t-69 -27.5zM440 529l-84 -529h-156l84 529l92 494h126z" />
    <glyph glyph-name="cent" unicode="&#xa2;" horiz-adv-x="1124" vert-adv-y="2130" 
d="M641 -14l-18 -112h-145l18 115q-171 28 -257.5 165.5t-55.5 330.5t160.5 330.5t309.5 165.5l19 115h145l-18 -112q100 -14 183.5 -78.5t135.5 -167.5l-135 -79q-76 151 -207 178l-112 -704q68 14 136.5 60t127.5 118l110 -79q-86 -104 -189.5 -168.5t-207.5 -77.5z
M520 138l110 694q-115 -30 -198.5 -124.5t-103.5 -222.5q-20 -127 33 -222t159 -125z" />
    <glyph glyph-name="sterling" unicode="&#xa3;" horiz-adv-x="1135" vert-adv-y="2130" 
d="M1007 145l-23 -145h-827l19 122q88 84 156 185t83 192q3 17 3 39h-176l23 145h138l-7 41q-29 142 -14 237q28 173 167.5 294t310.5 121q90 0 171.5 -45.5t141.5 -129.5l-121 -101q-43 63 -99.5 97t-115.5 34q-111 0 -202.5 -79t-109.5 -190q-10 -67 16 -189l3 -14
q11 -41 15 -76h378l-23 -145h-349q-1 -6 -2 -18t-2 -18q-29 -184 -177 -357h623z" />
    <glyph glyph-name="yen" unicode="&#xa5;" horiz-adv-x="1542" vert-adv-y="2130" 
d="M886 265l-42 -265h-145l42 265h-256l23 145h256l22 141h-256l23 145h165l-388 652h182l373 -628l572 628h182l-594 -652h163l-23 -145h-254l-22 -141h254l-23 -145h-254z" />
    <glyph glyph-name="brokenbar" unicode="&#xa6;" horiz-adv-x="563" vert-adv-y="2130" 
d="M607 1598l-128 -809h-145l128 809h145zM437 522l-128 -809h-145l128 809h145z" />
    <glyph glyph-name="dieresis" unicode="&#xa8;" horiz-adv-x="901" vert-adv-y="2130" 
d="M497 1095q-37 0 -60.5 27.5t-17.5 65.5t38 66t70 28t61 -28t17 -66q-6 -37 -38 -65t-70 -28zM749 1095q-37 0 -60.5 27.5t-17.5 65.5t38 66t70 28t61 -28t17 -66t-38 -65.5t-70 -27.5z" />
    <glyph glyph-name="copyright" unicode="&#xa9;" horiz-adv-x="1587" vert-adv-y="2130" 
d="M793 0q-137 0 -253 53.5t-192 143.5t-109.5 214.5t-11.5 261.5t95 262t177 215t237 143.5t270 53.5t253.5 -53.5t192.5 -143.5t110 -215t12 -262q-29 -182 -144 -337.5t-284.5 -245.5t-352.5 -90zM814 130q148 0 284.5 72.5t229 197.5t116.5 273q23 148 -30 273.5
t-166.5 198t-261.5 72.5t-284.5 -72.5t-229 -198t-115.5 -273.5q-18 -110 9 -211t88.5 -173.5t155 -115.5t204.5 -43zM846 257q-173 0 -276 121.5t-75 294.5q27 174 168 295.5t315 121.5q105 0 195.5 -61t143.5 -167l-118 -77q-40 82 -104.5 129t-137.5 47
q-120 0 -217 -84.5t-116 -203.5t51.5 -203t190.5 -84q73 0 151 46.5t145 129.5l95 -77q-87 -107 -196.5 -167.5t-214.5 -60.5z" />
    <glyph glyph-name="ordfeminine" unicode="&#xaa;" horiz-adv-x="641" vert-adv-y="2130" 
d="M453 855q-84 0 -148.5 53.5t-50.5 140.5q13 83 94 138h-73l17 108h22q37 65 105.5 100t141.5 35q100 0 150.5 -55t35.5 -153l-41 -257h10l-17 -109h-109l1 9h-22l3 18q-64 -28 -119 -28zM428 1261l-6 -37q60 20 115 20h91q0 30 -27 47.5t-60 17.5q-75 0 -113 -48z
M476 979q33 0 65 14t49 36l8 16l12 77h-92q-44 0 -91 -19.5t-52 -52.5q-4 -30 25.5 -50.5t75.5 -20.5z" />
    <glyph glyph-name="guillemotleft" unicode="&#xab;" horiz-adv-x="1106" vert-adv-y="1700" 
d="M421 493l265 -313l-121 -102l-348 415l480 414l87 -103zM706 493l261 -312l-117 -103l-349 415l481 414l83 -103z" />
    <glyph glyph-name="logicalnot" unicode="&#xac;" horiz-adv-x="1260" vert-adv-y="2130" 
d="M1174 674l-74 -468h-145l51 323h-725l23 145h870z" />
    <glyph glyph-name="registered" unicode="&#xae;" horiz-adv-x="1559" vert-adv-y="2130" 
d="M782 0q-182 0 -323 90t-207 245.5t-37 337.5q29 183 144 338.5t284.5 245.5t351.5 90q137 0 253 -53.5t192 -143.5t110 -215t12 -262q-29 -182 -144 -337.5t-284.5 -245.5t-351.5 -90zM803 130q148 0 284.5 72.5t229 197.5t116.5 273q23 148 -30 273.5t-166.5 198
t-261.5 72.5t-285 -72.5t-229.5 -198t-115.5 -273.5q-18 -111 9 -211.5t88.5 -173t155.5 -115.5t205 -43zM675 527l-36 -233h-131l125 789h408q116 0 184.5 -81t49.5 -197q-13 -83 -69.5 -152t-135.5 -102l135 -257h-157l-125 233h-248zM1022 968h-291l-51 -325h307
q63 9 112.5 55t58.5 107q11 68 -28.5 115.5t-107.5 47.5z" />
    <glyph glyph-name="macron" unicode="&#xaf;" horiz-adv-x="900" vert-adv-y="2130" 
d="M872 1244l-23 -145h-450l23 145h450z" />
    <glyph glyph-name="degree" unicode="&#xb0;" horiz-adv-x="732" vert-adv-y="2130" 
d="M511 915q-94 0 -149 65.5t-40 159.5q14 94 90 159.5t170 65.5t149 -65.5t41 -159.5q-15 -94 -91 -159.5t-170 -65.5zM534 1060q33 0 60.5 23.5t32.5 56.5t-15 56.5t-53 23.5t-60 -23.5t-32 -56.5t14.5 -56.5t52.5 -23.5z" />
    <glyph glyph-name="plusminus" unicode="&#xb1;" horiz-adv-x="1068" vert-adv-y="2130" 
d="M713 673l-41 -255h-144l41 255h-255l22 144h255l41 257h144l-41 -257h256l-22 -144h-256zM917 347l-23 -145h-655l23 145h655z" />
    <glyph glyph-name="uni00B2" unicode="&#xb2;" horiz-adv-x="561" vert-adv-y="1700" 
d="M647 1005l-20 -130h-416l12 76q6 41 27.5 77t55.5 64t63.5 47t71.5 40l71 35q42 20 44 35q3 18 -17.5 28t-55.5 10q-34 0 -58 -23.5t-35 -65.5h-127l8 53q13 82 82 124t152 42q38 0 72 -9.5t61.5 -28.5t41 -53.5t6.5 -78.5q-8 -51 -34.5 -79.5t-82.5 -60.5l-72 -37
q-77 -36 -109 -65h259z" />
    <glyph glyph-name="uni00B3" unicode="&#xb3;" horiz-adv-x="578" vert-adv-y="1700" 
d="M430 888q-40 0 -75 9.5t-64.5 28.5t-43.5 53.5t-7 78.5l7 47h118l-7 -47q-4 -24 21 -38.5t69 -14.5t74 14.5t34 38.5q3 23 -19 38t-61 15h-88l18 112h88q36 0 60.5 13.5t27.5 34.5q4 23 -19.5 36.5t-66.5 13.5q-84 0 -108 -96h-113l7 46q9 56 47.5 95t86 54.5t100.5 15.5
q83 0 139.5 -41t44.5 -122q-11 -62 -58 -103l-5 5q47 -49 35 -120q-9 -56 -49 -95.5t-89.5 -55.5t-103.5 -16z" />
    <glyph glyph-name="acute" unicode="&#xb4;" horiz-adv-x="924" vert-adv-y="2130" 
d="M820 1418l75 -111l-349 -250l-73 112z" />
    <glyph glyph-name="paragraph" unicode="&#xb6;" horiz-adv-x="1209" vert-adv-y="2130" 
d="M1010 1202l-190 -1202h-145l72 457h-111q-184 0 -293.5 130.5t-80.5 314.5q19 121 95 223.5t188.5 162.5t232.5 60h435l-214 -1348h-145l190 1202h-34zM659 602h111l95 600h-111q-125 0 -226.5 -87.5t-120.5 -212.5q-20 -125 53.5 -212.5t198.5 -87.5z" />
    <glyph glyph-name="periodcentered" unicode="&#xb7;" horiz-adv-x="518" vert-adv-y="2130" 
d="M352 586q-38 0 -61.5 28t-17.5 66t38 65.5t70 27.5t60.5 -27.5t16.5 -65.5t-37.5 -66t-68.5 -28z" />
    <glyph glyph-name="cedilla" unicode="&#xb8;" horiz-adv-x="1261" vert-adv-y="2130" 
d="M430 -387l19 121q35 -4 68.5 12.5t50.5 45.5h-110l36 226h119l-17 -107h118l-14 -89q-14 -89 -93.5 -150t-176.5 -59z" />
    <glyph glyph-name="uni00B9" unicode="&#xb9;" horiz-adv-x="404" vert-adv-y="1700" 
d="M555 1416l-84 -534h-129l54 344l-35 -24l-75 94l174 120h95z" />
    <glyph glyph-name="ordmasculine" unicode="&#xba;" horiz-adv-x="733" vert-adv-y="2130" 
d="M497 824q-119 0 -185.5 83.5t-46.5 208.5t112.5 208t211.5 83q120 0 186 -83t46 -208q-20 -126 -112 -209t-212 -83zM516 946q67 0 119 48.5t64 121.5q11 72 -26 120t-104 48t-119.5 -48t-63.5 -120q-12 -73 25.5 -121.5t104.5 -48.5z" />
    <glyph glyph-name="guillemotright" unicode="&#xbb;" horiz-adv-x="1106" vert-adv-y="1700" 
d="M414 907l349 -414l-482 -415l-85 102l361 313l-263 311zM696 907l349 -414l-481 -415l-84 102l361 313l-263 311z" />
    <glyph glyph-name="questiondown" unicode="&#xbf;" horiz-adv-x="1194" vert-adv-y="2130" 
d="M867 1190q-39 0 -62.5 27t-17.5 65t38.5 66t71.5 28q37 0 60 -28t17 -66t-38 -65t-69 -27zM614 0q-212 0 -336 108.5t-99 271.5q40 250 472 464q31 15 43 22t28 22t23 36.5t13 55.5l24 152h147l-25 -153q-7 -42 -13.5 -70.5t-19.5 -53t-23.5 -39t-35 -32.5t-44.5 -29.5
t-61 -34.5q-46 -24 -76 -41t-78.5 -46t-81.5 -55.5t-67 -59t-54 -67.5t-26 -70q-16 -102 72.5 -169t238.5 -67q139 0 237 73.5t124 195.5h143q-37 -186 -182 -300t-343 -114z" />
    <glyph glyph-name="Agrave" unicode="&#xc0;" horiz-adv-x="1622" vert-adv-y="2130" 
d="M1015 1853l278 -257l-111 -113l-277 255zM546 383l-249 -383h-163l898 1397l456 -1397h-163l-127 383h-652zM1153 540l-174 528l-338 -528h512z" />
    <glyph glyph-name="Aacute" unicode="&#xc1;" horiz-adv-x="1622" vert-adv-y="2130" 
d="M1214 1853l77 -114l-356 -256l-76 113zM546 383l-249 -383h-163l898 1397l456 -1397h-163l-127 383h-652zM1153 540l-174 528l-338 -528h512z" />
    <glyph glyph-name="Acircumflex" unicode="&#xc2;" horiz-adv-x="1622" vert-adv-y="2130" 
d="M1237 1505l-166 140l-210 -140l-76 113l316 212l247 -212zM546 383l-249 -383h-163l898 1397l456 -1397h-163l-127 383h-652zM1153 540l-174 528l-338 -528h512z" />
    <glyph glyph-name="Atilde" unicode="&#xc3;" horiz-adv-x="1622" vert-adv-y="2130" 
d="M970 1589l-80 -68l-88 103l81 68q71 60 132 60q63 0 115 -59q15 -15 20 -15q6 0 21 15l81 68l87 -105l-81 -67q-71 -60 -132 -60t-114 60q-13 13 -20 13t-22 -13zM546 383l-249 -383h-163l898 1397l456 -1397h-163l-127 383h-652zM1153 540l-174 528l-338 -528h512z" />
    <glyph glyph-name="Adieresis" unicode="&#xc4;" horiz-adv-x="1622" vert-adv-y="2130" 
d="M922 1522q-39 0 -62 28t-17 66q6 39 38 67.5t71 28.5t63 -28.5t18 -67.5q-6 -38 -39 -66t-72 -28zM1184 1522q-40 0 -63.5 28t-17.5 66q6 39 38.5 67.5t72.5 28.5q38 0 61 -28.5t17 -67.5q-6 -38 -38 -66t-70 -28zM546 383l-249 -383h-163l898 1397l456 -1397h-163
l-127 383h-652zM1153 540l-174 528l-338 -528h512z" />
    <glyph glyph-name="Aring" unicode="&#xc5;" horiz-adv-x="1622" vert-adv-y="2130" 
d="M1048 1497q-74 0 -118.5 53t-32.5 127q11 74 72.5 126.5t135.5 52.5t118 -52.5t33 -126.5q-12 -74 -73 -127t-135 -53zM1067 1617q25 0 44.5 17.5t24.5 42.5q4 25 -10.5 42.5t-39.5 17.5t-45 -17.5t-24 -42.5q-5 -25 10 -42.5t40 -17.5zM546 383l-249 -383h-163l898 1397
l456 -1397h-163l-127 383h-652zM1153 540l-174 528l-338 -528h512z" />
    <glyph glyph-name="AE" unicode="&#xc6;" horiz-adv-x="1962" vert-adv-y="2130" 
d="M549 400l-252 -400h-163l873 1390h1050l-23 -148h-916l-75 -474h859l-23 -146h-859l-76 -474h916l-23 -148h-1062l63 400h-289zM862 548l73 461l-293 -461h220z" />
    <glyph glyph-name="Ccedilla" unicode="&#xc7;" horiz-adv-x="1611" vert-adv-y="2130" 
d="M617 -395l20 121q35 -4 68.5 12.5t50.5 45.5h-110l33 207q-232 58 -358 253.5t-86 450.5q31 198 155 364.5t306 263t378 96.5q185 0 337 -96.5t236 -267.5l-132 -87q-72 142 -195.5 223t-269.5 81q-156 0 -301 -77t-243 -210t-123 -290t31.5 -290t177 -210t276.5 -77
q145 0 294 80.5t266 223.5l104 -87q-138 -171 -320.5 -267.5t-367.5 -96.5q-15 0 -49 2l-11 -70h118l-14 -89q-14 -89 -93.5 -150t-177.5 -59z" />
    <glyph glyph-name="Egrave" unicode="&#xc8;" horiz-adv-x="1313" vert-adv-y="2130" 
d="M838 1853l278 -257l-115 -113l-274 255zM1210 148l-23 -148h-1062l220 1390h1062l-23 -148h-914l-75 -474h859l-23 -146h-859l-76 -474h914z" />
    <glyph glyph-name="Eacute" unicode="&#xc9;" horiz-adv-x="1313" vert-adv-y="2130" 
d="M1059 1853l78 -114l-357 -256l-75 113zM1210 148l-23 -148h-1062l220 1390h1062l-23 -148h-914l-75 -474h859l-23 -146h-859l-76 -474h914z" />
    <glyph glyph-name="Ecircumflex" unicode="&#xca;" horiz-adv-x="1313" vert-adv-y="2130" 
d="M1082 1505l-164 139l-208 -139l-80 112l318 213l247 -213zM1210 148l-23 -148h-1062l220 1390h1062l-23 -148h-914l-75 -474h859l-23 -146h-859l-76 -474h914z" />
    <glyph glyph-name="Edieresis" unicode="&#xcb;" horiz-adv-x="1313" vert-adv-y="2130" 
d="M768 1522q-40 0 -63.5 28t-17.5 66q6 39 38.5 67.5t72.5 28.5q38 0 61.5 -28.5t17.5 -67.5q-6 -38 -38.5 -66t-70.5 -28zM1028 1522q-40 0 -63.5 28t-17.5 66q6 39 38.5 67.5t72.5 28.5q38 0 61.5 -28.5t17.5 -67.5q-6 -38 -38.5 -66t-70.5 -28zM1210 148l-23 -148h-1062
l220 1390h1062l-23 -148h-914l-75 -474h859l-23 -146h-859l-76 -474h914z" />
    <glyph glyph-name="Igrave" unicode="&#xcc;" horiz-adv-x="422" vert-adv-y="2130" 
d="M391 1853l278 -257l-112 -113l-276 255zM504 1390l-220 -1390h-147l220 1390h147z" />
    <glyph glyph-name="Iacute" unicode="&#xcd;" horiz-adv-x="422" vert-adv-y="2130" 
d="M615 1853l76 -115l-358 -255l-74 113zM504 1390l-220 -1390h-147l220 1390h147z" />
    <glyph glyph-name="Icircumflex" unicode="&#xce;" horiz-adv-x="414" vert-adv-y="2130" 
d="M632 1505l-166 139l-208 -139l-77 112l315 213l249 -213zM501 1390l-220 -1390h-149l220 1390h149z" />
    <glyph glyph-name="Idieresis" unicode="&#xcf;" horiz-adv-x="373" vert-adv-y="2130" 
d="M297 1522q-39 0 -62.5 28t-17.5 66q6 39 38.5 67.5t71.5 28.5t62.5 -28.5t17.5 -67.5q-6 -38 -38.5 -66t-71.5 -28zM558 1522q-40 0 -63.5 28t-17.5 66q6 39 38.5 67.5t72.5 28.5q38 0 62 -28.5t18 -67.5q-6 -38 -39 -66t-71 -28zM480 1390l-220 -1390h-147l220 1390h147
z" />
    <glyph glyph-name="Ntilde" unicode="&#xd1;" horiz-adv-x="1391" vert-adv-y="2130" 
d="M854 1589l-77 -68l-91 103l81 68q71 60 132 60q63 0 116 -59q15 -15 19 -15t23 15l79 68l88 -105l-81 -67q-71 -60 -132 -60q-62 0 -114 60q-13 13 -20 13q-6 0 -23 -13zM1339 1390h148l-222 -1400l-833 1017l-159 -1007h-148l221 1398l832 -1027z" />
    <glyph glyph-name="Ograve" unicode="&#xd2;" horiz-adv-x="1699" vert-adv-y="2130" 
d="M1032 1853l277 -257l-114 -113l-275 255zM844 -29q-196 0 -347.5 96.5t-222 263t-39.5 364.5t155 364.5t306 263t378 96.5q198 0 349.5 -96.5t222 -263t39.5 -364.5q-24 -148 -102.5 -282t-191 -231t-256 -154t-291.5 -57zM868 118q157 0 302.5 77t243.5 210t123 290
q19 118 -10 224.5t-94 184t-165 123t-218 45.5q-156 0 -301 -77t-243 -210t-123 -290t31.5 -290t177 -210t276.5 -77z" />
    <glyph glyph-name="Oacute" unicode="&#xd3;" horiz-adv-x="1699" vert-adv-y="2130" 
d="M1254 1853l77 -114l-357 -256l-76 113zM844 -29q-196 0 -347.5 96.5t-222 263t-39.5 364.5t155 364.5t306 263t378 96.5q198 0 349.5 -96.5t222 -263t39.5 -364.5q-24 -148 -102.5 -282t-191 -231t-256 -154t-291.5 -57zM868 118q157 0 302.5 77t243.5 210t123 290
q19 118 -10 224.5t-94 184t-165 123t-218 45.5q-156 0 -301 -77t-243 -210t-123 -290t31.5 -290t177 -210t276.5 -77z" />
    <glyph glyph-name="Ocircumflex" unicode="&#xd4;" horiz-adv-x="1699" vert-adv-y="2130" 
d="M1273 1505l-164 139l-208 -139l-78 112l316 213l249 -213zM844 -29q-196 0 -347.5 96.5t-222 263t-39.5 364.5t155 364.5t306 263t378 96.5q198 0 349.5 -96.5t222 -263t39.5 -364.5q-24 -148 -102.5 -282t-191 -231t-256 -154t-291.5 -57zM868 118q157 0 302.5 77
t243.5 210t123 290q19 118 -10 224.5t-94 184t-165 123t-218 45.5q-156 0 -301 -77t-243 -210t-123 -290t31.5 -290t177 -210t276.5 -77z" />
    <glyph glyph-name="Otilde" unicode="&#xd5;" horiz-adv-x="1699" vert-adv-y="2130" 
d="M1007 1589l-78 -68l-89 103l83 69q69 59 131 59t114 -59q15 -15 21 -15q3 0 22 15l77 68l90 -105l-80 -67q-71 -60 -133 -60t-114 60q-15 13 -20 13q-4 0 -24 -13zM844 -29q-196 0 -347.5 96.5t-222 263t-39.5 364.5t155 364.5t306 263t378 96.5q198 0 349.5 -96.5
t222 -263t39.5 -364.5q-24 -148 -102.5 -282t-191 -231t-256 -154t-291.5 -57zM868 118q157 0 302.5 77t243.5 210t123 290q19 118 -10 224.5t-94 184t-165 123t-218 45.5q-156 0 -301 -77t-243 -210t-123 -290t31.5 -290t177 -210t276.5 -77z" />
    <glyph glyph-name="Odieresis" unicode="&#xd6;" horiz-adv-x="1699" vert-adv-y="2130" 
d="M960 1522q-38 0 -61.5 28t-17.5 66q6 39 38.5 67.5t70.5 28.5q40 0 63.5 -28.5t17.5 -67.5q-6 -38 -38.5 -66t-72.5 -28zM1220 1522q-38 0 -61.5 28t-17.5 66q6 39 38.5 67.5t70.5 28.5q40 0 63.5 -28.5t17.5 -67.5t-38.5 -66.5t-72.5 -27.5zM844 -29q-196 0 -347.5 96.5
t-222 263t-39.5 364.5t155 364.5t306 263t378 96.5q198 0 349.5 -96.5t222 -263t39.5 -364.5q-24 -148 -102.5 -282t-191 -231t-256 -154t-291.5 -57zM868 118q157 0 302.5 77t243.5 210t123 290q19 118 -10 224.5t-94 184t-165 123t-218 45.5q-156 0 -301 -77t-243 -210
t-123 -290t31.5 -290t177 -210t276.5 -77z" />
    <glyph glyph-name="multiply" unicode="&#xd7;" horiz-adv-x="1049" vert-adv-y="2130" 
d="M798 268l-195 232l-267 -232l-86 103l268 230l-195 232l119 102l194 -231l268 231l86 -102l-269 -232l196 -230z" />
    <glyph glyph-name="Oslash" unicode="&#xd8;" horiz-adv-x="1699" vert-adv-y="2130" 
d="M677 -9l-33 -64h-158l59 113q-174 90 -258.5 267.5t-51.5 387.5q31 198 155 364.5t306 263t378 96.5q89 0 168 -20l34 64h158l-60 -114q174 -90 259.5 -267t51.5 -387q-24 -148 -102.5 -282t-191 -231t-256 -154t-291.5 -57q-88 0 -167 20zM617 180l553 1078
q-59 14 -120 14q-156 0 -301 -77t-243 -210t-123 -290q-26 -168 35.5 -305.5t198.5 -209.5zM868 118q157 0 302.5 77t243.5 210t123 290q26 167 -36 304.5t-198 210.5l-554 -1078q59 -14 119 -14z" />
    <glyph glyph-name="Ugrave" unicode="&#xd9;" horiz-adv-x="1391" vert-adv-y="2130" 
d="M876 1853l278 -257l-114 -113l-274 255zM691 -29q-155 0 -274.5 76.5t-175 207.5t-30.5 286l134 849h148l-134 -849q-14 -86 7.5 -164t69 -135t120.5 -90.5t159 -33.5q175 0 318.5 124t171.5 299l134 849h148l-134 -849q-25 -155 -122.5 -286.5t-241 -207.5t-298.5 -76z
" />
    <glyph glyph-name="Uacute" unicode="&#xda;" horiz-adv-x="1391" vert-adv-y="2130" 
d="M1098 1853l78 -114l-358 -256l-74 113zM691 -29q-155 0 -274.5 76.5t-175 207.5t-30.5 286l134 849h148l-134 -849q-14 -86 7.5 -164t69 -135t120.5 -90.5t159 -33.5q175 0 318.5 124t171.5 299l134 849h148l-134 -849q-25 -155 -122.5 -286.5t-241 -207.5t-298.5 -76z
" />
    <glyph glyph-name="Ucircumflex" unicode="&#xdb;" horiz-adv-x="1391" vert-adv-y="2130" 
d="M1120 1505l-164 139l-208 -139l-78 112l316 213l248 -213zM691 -29q-155 0 -274.5 76.5t-175 207.5t-30.5 286l134 849h148l-134 -849q-14 -86 7.5 -164t69 -135t120.5 -90.5t159 -33.5q175 0 318.5 124t171.5 299l134 849h148l-134 -849q-25 -155 -122.5 -286.5
t-241 -207.5t-298.5 -76z" />
    <glyph glyph-name="Udieresis" unicode="&#xdc;" horiz-adv-x="1391" vert-adv-y="2130" 
d="M808 1522q-40 0 -64 27.5t-18 66.5t39 67.5t73 28.5q38 0 61.5 -28.5t17.5 -67.5q-6 -38 -38.5 -66t-70.5 -28zM1068 1522q-40 0 -63.5 28t-17.5 66q6 39 38.5 67.5t72.5 28.5q38 0 61.5 -28.5t17.5 -67.5q-6 -38 -38.5 -66t-70.5 -28zM691 -29q-155 0 -274.5 76.5
t-175 207.5t-30.5 286l134 849h148l-134 -849q-14 -86 7.5 -164t69 -135t120.5 -90.5t159 -33.5q175 0 318.5 124t171.5 299l134 849h148l-134 -849q-25 -155 -122.5 -286.5t-241 -207.5t-298.5 -76z" />
    <glyph glyph-name="Yacute" unicode="&#xdd;" horiz-adv-x="1560" vert-adv-y="2130" 
d="M1214 1853l77 -115l-358 -255l-76 113zM969 538l-85 -538h-148l85 538l-462 852h182l377 -705l602 705h182z" />
    <glyph glyph-name="germandbls" unicode="&#xdf;" horiz-adv-x="1312" vert-adv-y="1700" 
d="M449 997l-204 -1289h-145l208 1312q37 161 194 261.5t374 100.5q226 0 349.5 -107t96.5 -276q-15 -93 -74.5 -172.5t-154.5 -133.5q89 -53 129 -138t24 -187q-28 -175 -204.5 -286t-425.5 -114l23 144q185 2 314.5 73t146.5 181q16 100 -69.5 176.5t-240.5 83.5l-12 -1
l-146 -2l21 135l143 -4h12q156 0 257.5 73t117.5 174q17 106 -74 173t-256 67q-162 0 -274.5 -68t-129.5 -176z" />
    <glyph glyph-name="agrave" unicode="&#xe0;" horiz-adv-x="1035" vert-adv-y="2130" 
d="M658 1418l268 -249l-110 -111l-267 248zM518 -17q-165 0 -265.5 92.5t-80.5 222.5q22 136 162 230t318 94h211l3 24q3 78 -48.5 130t-145.5 52q-95 0 -182.5 -56t-112.5 -157h-146q21 84 70.5 153t114 113t137 67.5t143.5 23.5q171 0 254 -94t58 -254l-99 -624h-145l9 57
q-112 -74 -255 -74zM537 126q93 0 172 50t102 119l29 183h-211q-117 0 -208.5 -52t-102.5 -126q-11 -70 53.5 -122t165.5 -52z" />
    <glyph glyph-name="aacute" unicode="&#xe1;" horiz-adv-x="1035" vert-adv-y="2130" 
d="M851 1418l73 -112l-348 -249l-73 112zM518 -17q-165 0 -265.5 92.5t-80.5 222.5q22 136 162 230t318 94h211l3 24q3 78 -48.5 130t-145.5 52q-95 0 -182.5 -56t-112.5 -157h-146q21 84 70.5 153t114 113t137 67.5t143.5 23.5q171 0 254 -94t58 -254l-99 -624h-145l9 57
q-112 -74 -255 -74zM537 126q93 0 172 50t102 119l29 183h-211q-117 0 -208.5 -52t-102.5 -126q-11 -70 53.5 -122t165.5 -52z" />
    <glyph glyph-name="acircumflex" unicode="&#xe2;" horiz-adv-x="1035" vert-adv-y="2130" 
d="M871 1079l-162 135l-201 -135l-77 111l307 207l242 -207zM518 -17q-165 0 -265.5 92.5t-80.5 222.5q22 136 162 230t318 94h211l3 24q3 78 -48.5 130t-145.5 52q-95 0 -182.5 -56t-112.5 -157h-146q21 84 70.5 153t114 113t137 67.5t143.5 23.5q171 0 254 -94t58 -254
l-99 -624h-145l9 57q-112 -74 -255 -74zM537 126q93 0 172 50t102 119l29 183h-211q-117 0 -208.5 -52t-102.5 -126q-11 -70 53.5 -122t165.5 -52z" />
    <glyph glyph-name="atilde" unicode="&#xe3;" horiz-adv-x="1035" vert-adv-y="2130" 
d="M612 1161l-76 -68l-87 104l78 66q71 58 128 58q62 0 112 -58q15 -13 19 -13q6 0 21 13l78 68l86 -104l-79 -66q-70 -59 -129 -59t-111 59q-12 12 -17 13q-7 -1 -23 -13zM518 -17q-165 0 -265.5 92.5t-80.5 222.5q22 136 162 230t318 94h211l3 24q3 78 -48.5 130
t-145.5 52q-95 0 -182.5 -56t-112.5 -157h-146q21 84 70.5 153t114 113t137 67.5t143.5 23.5q171 0 254 -94t58 -254l-99 -624h-145l9 57q-112 -74 -255 -74zM537 126q93 0 172 50t102 119l29 183h-211q-117 0 -208.5 -52t-102.5 -126q-11 -70 53.5 -122t165.5 -52z" />
    <glyph glyph-name="adieresis" unicode="&#xe4;" horiz-adv-x="1035" vert-adv-y="2130" 
d="M564 1095q-38 0 -61 28.5t-18 65.5q6 37 38.5 64.5t70.5 27.5t61 -27.5t17 -64.5q-5 -37 -38 -65.5t-70 -28.5zM817 1095q-38 0 -61 28.5t-18 65.5q6 37 38.5 64.5t70.5 27.5q37 0 60 -27t17 -65q-5 -37 -37.5 -65.5t-69.5 -28.5zM518 -17q-165 0 -265.5 92.5
t-80.5 222.5q22 136 162 230t318 94h211l3 24q3 78 -48.5 130t-145.5 52q-95 0 -182.5 -56t-112.5 -157h-146q21 84 70.5 153t114 113t137 67.5t143.5 23.5q171 0 254 -94t58 -254l-99 -624h-145l9 57q-112 -74 -255 -74zM537 126q93 0 172 50t102 119l29 183h-211
q-117 0 -208.5 -52t-102.5 -126q-11 -70 53.5 -122t165.5 -52z" />
    <glyph glyph-name="aring" unicode="&#xe5;" horiz-adv-x="1035" vert-adv-y="2130" 
d="M687 1066q-74 0 -118.5 53t-33.5 127q12 74 73.5 126.5t135.5 52.5t118 -52.5t32 -126.5q-11 -74 -72 -127t-135 -53zM706 1186q25 0 44.5 17.5t23.5 42.5q5 25 -9.5 42.5t-39.5 17.5t-45 -17.5t-25 -42.5q-4 -25 11 -42.5t40 -17.5zM518 -17q-165 0 -265.5 92.5
t-80.5 222.5q22 136 162 230t318 94h211l3 24q3 78 -48.5 130t-145.5 52q-95 0 -182.5 -56t-112.5 -157h-146q21 84 70.5 153t114 113t137 67.5t143.5 23.5q171 0 254 -94t58 -254l-99 -624h-145l9 57q-112 -74 -255 -74zM537 126q93 0 172 50t102 119l29 183h-211
q-117 0 -208.5 -52t-102.5 -126q-11 -70 53.5 -122t165.5 -52z" />
    <glyph glyph-name="ae" unicode="&#xe6;" horiz-adv-x="1841" vert-adv-y="2130" 
d="M1265 126q102 0 197.5 66.5t158.5 181.5l130 -47q-85 -158 -222 -251t-287 -93q-200 0 -315 140l-19 -123h-144l9 57q-112 -74 -255 -74q-165 0 -265.5 92.5t-80.5 222.5q22 136 162 230t318 94h211l3 24q3 78 -48.5 130t-145.5 52q-95 0 -182.5 -56t-112.5 -157h-146
q28 110 104.5 193.5t170.5 123.5t189 40q114 0 190.5 -43t108.5 -124l1 -5q79 89 184 138.5t222 49.5q134 0 231.5 -71.5t139.5 -194.5t21 -274h-806q-7 -137 71 -229.5t207 -92.5zM1379 844q-112 0 -209 -69.5t-146 -180.5h631q-13 111 -88.5 180.5t-187.5 69.5zM811 295
l29 183h-211q-117 0 -208.5 -52t-102.5 -126q-11 -70 53.5 -122t165.5 -52q93 0 172 50t102 119z" />
    <glyph glyph-name="ccedilla" unicode="&#xe7;" horiz-adv-x="1150" vert-adv-y="2130" 
d="M394 -368l19 121q35 -4 68.5 12.5t50.5 45.5h-110l31 195q-140 47 -209 176.5t-42 302.5q23 143 102.5 258t198.5 180t253 65q121 0 221.5 -65.5t158.5 -184.5l-134 -79q-43 87 -114 136t-154 49q-142 0 -252.5 -103t-134.5 -256t54 -256t219 -103q83 0 169.5 49
t157.5 136l109 -79q-95 -119 -216 -184t-243 -65q-19 0 -29 1l-8 -54h118l-14 -89q-14 -89 -93.5 -150t-176.5 -59z" />
    <glyph glyph-name="egrave" unicode="&#xe8;" vert-adv-y="2130" 
d="M719 1418l267 -249l-109 -111l-268 248zM597 -17q-204 0 -316.5 143t-78.5 359q35 217 192 360t362 143q134 0 231.5 -71.5t139.5 -194.5t21 -274h-806q-7 -137 71 -229.5t207 -92.5q102 0 197.5 66.5t158.5 181.5l130 -47q-85 -158 -222 -251t-287 -93zM379 594h631
q-13 111 -88.5 180.5t-187.5 69.5t-209 -69.5t-146 -180.5z" />
    <glyph glyph-name="eacute" unicode="&#xe9;" vert-adv-y="2130" 
d="M934 1418l74 -112l-346 -248l-75 111zM597 -17q-204 0 -316.5 143t-78.5 359q35 217 192 360t362 143q134 0 231.5 -71.5t139.5 -194.5t21 -274h-806q-7 -137 71 -229.5t207 -92.5q102 0 197.5 66.5t158.5 181.5l130 -47q-85 -158 -222 -251t-287 -93zM379 594h631
q-13 111 -88.5 180.5t-187.5 69.5t-209 -69.5t-146 -180.5z" />
    <glyph glyph-name="ecircumflex" unicode="&#xea;" vert-adv-y="2130" 
d="M954 1079l-162 135l-200 -135l-76 111l305 207l242 -207zM597 -17q-204 0 -316.5 143t-78.5 359q35 217 192 360t362 143q134 0 231.5 -71.5t139.5 -194.5t21 -274h-806q-7 -137 71 -229.5t207 -92.5q102 0 197.5 66.5t158.5 181.5l130 -47q-85 -158 -222 -251t-287 -93z
M379 594h631q-13 111 -88.5 180.5t-187.5 69.5t-209 -69.5t-146 -180.5z" />
    <glyph glyph-name="edieresis" unicode="&#xeb;" vert-adv-y="2130" 
d="M648 1095q-38 0 -61 28.5t-18 65.5q6 38 38 65t71 27q38 0 61 -27.5t17 -64.5q-5 -37 -38 -65.5t-70 -28.5zM899 1095q-37 0 -59 28.5t-17 65.5q6 38 37.5 65t68.5 27q38 0 61.5 -27.5t17.5 -64.5q-5 -37 -38.5 -65.5t-70.5 -28.5zM597 -17q-204 0 -316.5 143t-78.5 359
q35 217 192 360t362 143q134 0 231.5 -71.5t139.5 -194.5t21 -274h-806q-7 -137 71 -229.5t207 -92.5q102 0 197.5 66.5t158.5 181.5l130 -47q-85 -158 -222 -251t-287 -93zM379 594h631q-13 111 -88.5 180.5t-187.5 69.5t-209 -69.5t-146 -180.5z" />
    <glyph glyph-name="igrave" unicode="&#xec;" horiz-adv-x="458" vert-adv-y="2130" 
d="M345 1418l270 -250l-112 -110l-267 248zM455 970l-154 -970h-146l154 970h146z" />
    <glyph glyph-name="iacute" unicode="&#xed;" horiz-adv-x="458" vert-adv-y="2130" 
d="M560 1418l76 -112l-349 -249l-73 112zM455 970l-154 -970h-146l154 970h146z" />
    <glyph glyph-name="icircumflex" unicode="&#xee;" horiz-adv-x="444" vert-adv-y="2130" 
d="M575 1079l-161 135l-202 -135l-76 111l307 207l240 -207zM448 970l-154 -970h-146l154 970h146z" />
    <glyph glyph-name="idieresis" unicode="&#xef;" horiz-adv-x="407" vert-adv-y="2130" 
d="M251 1095q-38 0 -61 28.5t-18 65.5q6 37 38.5 64.5t70.5 27.5q37 0 59.5 -27t16.5 -65q-5 -37 -37 -65.5t-69 -28.5zM503 1095q-37 0 -60.5 28.5t-18.5 65.5q6 37 38.5 64.5t70.5 27.5q37 0 60 -27.5t17 -64.5q-5 -37 -37.5 -65.5t-69.5 -28.5zM430 970l-154 -970h-145
l154 970h145z" />
    <glyph glyph-name="ntilde" unicode="&#xf1;" horiz-adv-x="999" vert-adv-y="2130" 
d="M594 1161l-77 -68l-86 104l79 66q69 58 129 58q58 0 111 -58q11 -13 17 -13q5 0 22 13l76 68l88 -104l-79 -66q-70 -59 -129 -59t-111 59q-15 13 -18 13q-5 0 -22 -13zM368 615l-97 -615h-146l153 968h145l-9 -58q111 78 242 78q156 0 247.5 -109t66.5 -264l-97 -615
h-145l97 615q15 95 -40.5 162t-149.5 67q-96 0 -174 -67t-93 -162z" />
    <glyph glyph-name="ograve" unicode="&#xf2;" vert-adv-y="2130" 
d="M719 1418l267 -249l-109 -111l-268 248zM597 -17q-204 0 -316.5 143t-78.5 359q23 143 102.5 258t198.5 180t253 65q135 0 234.5 -65t143.5 -180.5t21 -257.5t-103 -257t-200 -180t-255 -65zM620 126q142 0 253.5 103t135.5 256t-54.5 256t-220.5 103t-252.5 -103
t-134.5 -256t54 -256t219 -103z" />
    <glyph glyph-name="oacute" unicode="&#xf3;" vert-adv-y="2130" 
d="M934 1418l74 -112l-346 -248l-75 111zM597 -17q-204 0 -316.5 143t-78.5 359q23 143 102.5 258t198.5 180t253 65q135 0 234.5 -65t143.5 -180.5t21 -257.5t-103 -257t-200 -180t-255 -65zM620 126q142 0 253.5 103t135.5 256t-54.5 256t-220.5 103t-252.5 -103
t-134.5 -256t54 -256t219 -103z" />
    <glyph glyph-name="ocircumflex" unicode="&#xf4;" vert-adv-y="2130" 
d="M954 1079l-162 135l-200 -135l-76 111l305 207l242 -207zM597 -17q-204 0 -316.5 143t-78.5 359q23 143 102.5 258t198.5 180t253 65q135 0 234.5 -65t143.5 -180.5t21 -257.5t-103 -257t-200 -180t-255 -65zM620 126q142 0 253.5 103t135.5 256t-54.5 256t-220.5 103
t-252.5 -103t-134.5 -256t54 -256t219 -103z" />
    <glyph glyph-name="otilde" unicode="&#xf5;" vert-adv-y="2130" 
d="M695 1161l-75 -68l-88 104l79 66q67 58 129 58q60 0 110 -58q15 -13 19 -13q6 0 21 13l78 68l85 -104l-78 -66q-68 -59 -129 -59q-60 0 -111 59q-11 11 -16 13q-6 -1 -24 -13zM597 -17q-204 0 -316.5 143t-78.5 359q23 143 102.5 258t198.5 180t253 65q135 0 234.5 -65
t143.5 -180.5t21 -257.5t-103 -257t-200 -180t-255 -65zM620 126q142 0 253.5 103t135.5 256t-54.5 256t-220.5 103t-252.5 -103t-134.5 -256t54 -256t219 -103z" />
    <glyph glyph-name="odieresis" unicode="&#xf6;" vert-adv-y="2130" 
d="M649 1095q-38 0 -61 28.5t-18 65.5q6 38 38 65t71 27q38 0 61 -27.5t17 -64.5q-5 -37 -38 -65.5t-70 -28.5zM900 1095q-37 0 -59.5 28.5t-17.5 65.5q6 37 37.5 64.5t69.5 27.5t61.5 -27.5t17.5 -64.5q-5 -37 -38.5 -65.5t-70.5 -28.5zM597 -17q-204 0 -316.5 143
t-78.5 359q23 143 102.5 258t198.5 180t253 65q135 0 234.5 -65t143.5 -180.5t21 -257.5t-103 -257t-200 -180t-255 -65zM620 126q142 0 253.5 103t135.5 256t-54.5 256t-220.5 103t-252.5 -103t-134.5 -256t54 -256t219 -103z" />
    <glyph glyph-name="divide" unicode="&#xf7;" horiz-adv-x="1184" vert-adv-y="2130" 
d="M715 785q-38 0 -60.5 27t-16.5 65t38 65.5t69 27.5q38 0 61.5 -28t17.5 -65q-6 -38 -38.5 -65t-70.5 -27zM1099 674l-23 -145h-799l23 145h799zM631 255q-38 0 -60.5 27t-16.5 66q6 38 38 65.5t69 27.5q38 0 61.5 -28t17.5 -65q-6 -39 -38.5 -66t-70.5 -27z" />
    <glyph glyph-name="oslash" unicode="&#xf8;" vert-adv-y="2130" 
d="M445 9l-42 -82h-156l78 151q-78 69 -111 174t-12 233q23 143 102.5 258t198.5 180t253 65q9 0 35 -2l61 120h155l-77 -152q129 -52 190 -178t35 -291q-23 -142 -103 -257t-200 -180t-255 -65q-82 0 -152 26zM402 228l316 615q-138 -5 -243 -106.5t-128 -251.5
q-24 -157 55 -257zM620 126q142 0 253.5 103t135.5 256q18 115 -23 204t-127 129l-344 -674q48 -18 105 -18z" />
    <glyph glyph-name="ugrave" unicode="&#xf9;" horiz-adv-x="999" vert-adv-y="2130" 
d="M616 1418l270 -250l-112 -110l-266 248zM498 -18q-156 0 -249 108.5t-68 264.5l97 614h145l-97 -614q-15 -95 41.5 -162.5t152.5 -67.5q95 0 172 67.5t92 162.5l97 614h145l-153 -968h-145l9 58q-108 -77 -239 -77z" />
    <glyph glyph-name="uacute" unicode="&#xfa;" horiz-adv-x="999" vert-adv-y="2130" 
d="M831 1418l76 -112l-349 -249l-72 112zM498 -18q-156 0 -249 108.5t-68 264.5l97 614h145l-97 -614q-15 -95 41.5 -162.5t152.5 -67.5q95 0 172 67.5t92 162.5l97 614h145l-153 -968h-145l9 58q-108 -77 -239 -77z" />
    <glyph glyph-name="ucircumflex" unicode="&#xfb;" horiz-adv-x="999" vert-adv-y="2130" 
d="M851 1079l-158 135l-204 -135l-75 111l308 207l240 -207zM498 -18q-156 0 -249 108.5t-68 264.5l97 614h145l-97 -614q-15 -95 41.5 -162.5t152.5 -67.5q95 0 172 67.5t92 162.5l97 614h145l-153 -968h-145l9 58q-108 -77 -239 -77z" />
    <glyph glyph-name="udieresis" unicode="&#xfc;" horiz-adv-x="999" vert-adv-y="2130" 
d="M546 1095q-37 0 -59.5 28.5t-17.5 65.5q6 37 37.5 64.5t69.5 27.5q39 0 61.5 -27t16.5 -65q-5 -37 -37 -65.5t-71 -28.5zM800 1095q-38 0 -61.5 28.5t-18.5 65.5q6 38 38.5 65t71.5 27q37 0 60 -27.5t17 -64.5q-5 -37 -37.5 -65.5t-69.5 -28.5zM498 -18
q-156 0 -249 108.5t-68 264.5l97 614h145l-97 -614q-15 -95 41.5 -162.5t152.5 -67.5q95 0 172 67.5t92 162.5l97 614h145l-153 -968h-145l9 58q-108 -77 -239 -77z" />
    <glyph glyph-name="yacute" unicode="&#xfd;" horiz-adv-x="1214" vert-adv-y="2130" 
d="M939 1418l75 -112l-347 -248l-75 111zM1234 970l-873 -1400h-148l337 538l-262 862h160l202 -696l424 696h160z" />
    <glyph glyph-name="ydieresis" unicode="&#xff;" horiz-adv-x="1214" vert-adv-y="2130" 
d="M654 1095q-37 0 -59.5 28.5t-17.5 65.5q6 37 37.5 64.5t69.5 27.5t61.5 -27t17.5 -65q-5 -37 -38 -65.5t-71 -28.5zM906 1095q-38 0 -60 28.5t-17 65.5q6 38 37.5 65t69.5 27t61 -27.5t17 -64.5q-5 -37 -38 -65.5t-70 -28.5zM1234 970l-872 -1400h-149l337 538l-262 862
h160l202 -696l424 696h160z" />
    <glyph glyph-name="Amacron" unicode="&#x100;" horiz-adv-x="1622" vert-adv-y="2130" 
d="M1307 1673l-24 -149h-462l24 149h462zM546 383l-249 -383h-163l898 1397l456 -1397h-163l-127 383h-652zM1153 540l-174 528l-338 -528h512z" />
    <glyph glyph-name="amacron" unicode="&#x101;" horiz-adv-x="1035" vert-adv-y="2130" 
d="M939 1244l-23 -145h-449l23 145h449zM518 -17q-165 0 -265.5 92.5t-80.5 222.5q22 136 162 230t318 94h211l3 24q3 78 -48.5 130t-145.5 52q-95 0 -182.5 -56t-112.5 -157h-146q21 84 70.5 153t114 113t137 67.5t143.5 23.5q171 0 254 -94t58 -254l-99 -624h-145l9 57
q-112 -74 -255 -74zM537 126q93 0 172 50t102 119l29 183h-211q-117 0 -208.5 -52t-102.5 -126q-11 -70 53.5 -122t165.5 -52z" />
    <glyph glyph-name="Abreve" unicode="&#x102;" horiz-adv-x="1622" vert-adv-y="2130" 
d="M1049 1502q-105 0 -168.5 87.5t-50.5 214.5h145q-5 -66 23 -110.5t74 -44.5t88 44.5t59 110.5h146q-29 -127 -120 -214.5t-196 -87.5zM546 383l-249 -383h-163l898 1397l456 -1397h-163l-127 383h-652zM1153 540l-174 528l-338 -528h512z" />
    <glyph glyph-name="abreve" unicode="&#x103;" horiz-adv-x="1035" vert-adv-y="2130" 
d="M687 1076q-101 0 -163 85.5t-50 208.5h145q-5 -63 21.5 -106t69.5 -43q45 0 85.5 43t55.5 106h144q-27 -123 -116.5 -208.5t-191.5 -85.5zM518 -17q-165 0 -265.5 92.5t-80.5 222.5q22 136 162 230t318 94h211l3 24q3 78 -48.5 130t-145.5 52q-95 0 -182.5 -56
t-112.5 -157h-146q21 84 70.5 153t114 113t137 67.5t143.5 23.5q171 0 254 -94t58 -254l-99 -624h-145l9 57q-112 -74 -255 -74zM537 126q93 0 172 50t102 119l29 183h-211q-117 0 -208.5 -52t-102.5 -126q-11 -70 53.5 -122t165.5 -52z" />
    <glyph glyph-name="Cacute" unicode="&#x106;" horiz-adv-x="1611" vert-adv-y="2130" 
d="M1200 1853l77 -114l-357 -256l-75 113zM844 -29q-196 0 -347.5 96.5t-222 263t-39.5 364.5t155 364.5t306 263t378 96.5q185 0 337 -96.5t236 -267.5l-132 -87q-72 142 -195.5 223t-269.5 81q-156 0 -301 -77t-243 -210t-123 -290t31.5 -290t177 -210t276.5 -77
q145 0 294 80.5t266 223.5l104 -87q-138 -171 -320.5 -267.5t-367.5 -96.5z" />
    <glyph glyph-name="cacute" unicode="&#x107;" horiz-adv-x="1150" vert-adv-y="2130" 
d="M897 1418l75 -112l-347 -248l-74 111zM597 -17q-204 0 -316.5 143t-78.5 359q23 143 102.5 258t198.5 180t253 65q121 0 221.5 -65.5t158.5 -184.5l-134 -79q-43 87 -114 136t-154 49q-142 0 -252.5 -103t-134.5 -256t54 -256t219 -103q83 0 169.5 49t157.5 136l109 -79
q-95 -119 -216 -184t-243 -65z" />
    <glyph glyph-name="Ccircumflex" unicode="&#x108;" horiz-adv-x="1611" vert-adv-y="2130" 
d="M1222 1505l-165 140l-210 -140l-76 113l317 212l246 -212zM844 -29q-196 0 -347.5 96.5t-222 263t-39.5 364.5t155 364.5t306 263t378 96.5q185 0 337 -96.5t236 -267.5l-132 -87q-72 142 -195.5 223t-269.5 81q-156 0 -301 -77t-243 -210t-123 -290t31.5 -290t177 -210
t276.5 -77q145 0 294 80.5t266 223.5l104 -87q-138 -171 -320.5 -267.5t-367.5 -96.5z" />
    <glyph glyph-name="ccircumflex" unicode="&#x109;" horiz-adv-x="1150" vert-adv-y="2130" 
d="M917 1079l-160 135l-202 -135l-76 111l308 207l240 -207zM597 -17q-204 0 -316.5 143t-78.5 359q23 143 102.5 258t198.5 180t253 65q121 0 221.5 -65.5t158.5 -184.5l-134 -79q-43 87 -114 136t-154 49q-142 0 -252.5 -103t-134.5 -256t54 -256t219 -103q83 0 169.5 49
t157.5 136l109 -79q-95 -119 -216 -184t-243 -65z" />
    <glyph glyph-name="Cdotaccent" unicode="&#x10a;" horiz-adv-x="1611" vert-adv-y="2130" 
d="M1042 1552q-38 0 -61.5 28t-17.5 67t38.5 67t70.5 28q40 0 63 -28t17 -67t-38 -67t-72 -28zM844 -29q-196 0 -347.5 96.5t-222 263t-39.5 364.5t155 364.5t306 263t378 96.5q185 0 337 -96.5t236 -267.5l-132 -87q-72 142 -195.5 223t-269.5 81q-156 0 -301 -77
t-243 -210t-123 -290t31.5 -290t177 -210t276.5 -77q145 0 294 80.5t266 223.5l104 -87q-138 -171 -320.5 -267.5t-367.5 -96.5z" />
    <glyph glyph-name="cdotaccent" unicode="&#x10b;" horiz-adv-x="1150" vert-adv-y="2130" 
d="M744 1126q-40 0 -62.5 26.5t-16.5 65.5q6 38 38 65.5t71 27.5q37 0 60 -27.5t17 -65.5q-6 -39 -37.5 -65.5t-69.5 -26.5zM597 -17q-204 0 -316.5 143t-78.5 359q23 143 102.5 258t198.5 180t253 65q121 0 221.5 -65.5t158.5 -184.5l-134 -79q-43 87 -114 136t-154 49
q-142 0 -252.5 -103t-134.5 -256t54 -256t219 -103q83 0 169.5 49t157.5 136l109 -79q-95 -119 -216 -184t-243 -65z" />
    <glyph glyph-name="Ccaron" unicode="&#x10c;" horiz-adv-x="1611" vert-adv-y="2130" 
d="M1272 1818l76 -112l-314 -213l-249 213l112 112l165 -141zM844 -29q-196 0 -347.5 96.5t-222 263t-39.5 364.5t155 364.5t306 263t378 96.5q185 0 337 -96.5t236 -267.5l-132 -87q-72 142 -195.5 223t-269.5 81q-156 0 -301 -77t-243 -210t-123 -290t31.5 -290t177 -210
t276.5 -77q145 0 294 80.5t266 223.5l104 -87q-138 -171 -320.5 -267.5t-367.5 -96.5z" />
    <glyph glyph-name="ccaron" unicode="&#x10d;" horiz-adv-x="1150" vert-adv-y="2130" 
d="M965 1385l76 -111l-306 -206l-242 206l110 111l160 -136zM597 -17q-204 0 -316.5 143t-78.5 359q23 143 102.5 258t198.5 180t253 65q121 0 221.5 -65.5t158.5 -184.5l-134 -79q-43 87 -114 136t-154 49q-142 0 -252.5 -103t-134.5 -256t54 -256t219 -103q83 0 169.5 49
t157.5 136l109 -79q-95 -119 -216 -184t-243 -65z" />
    <glyph glyph-name="Emacron" unicode="&#x112;" horiz-adv-x="1313" vert-adv-y="2130" 
d="M1153 1673l-24 -149h-463l24 149h463zM1210 148l-23 -148h-1062l220 1390h1062l-23 -148h-914l-75 -474h859l-23 -146h-859l-76 -474h914z" />
    <glyph glyph-name="emacron" unicode="&#x113;" vert-adv-y="2130" 
d="M1023 1244l-23 -145h-450l23 145h450zM597 -17q-204 0 -316.5 143t-78.5 359q35 217 192 360t362 143q134 0 231.5 -71.5t139.5 -194.5t21 -274h-806q-7 -137 71 -229.5t207 -92.5q102 0 197.5 66.5t158.5 181.5l130 -47q-85 -158 -222 -251t-287 -93zM379 594h631
q-13 111 -88.5 180.5t-187.5 69.5t-209 -69.5t-146 -180.5z" />
    <glyph glyph-name="Ebreve" unicode="&#x114;" horiz-adv-x="1313" vert-adv-y="2130" 
d="M896 1502q-105 0 -169 87.5t-52 214.5h146q-5 -65 23 -110t75 -45q45 0 87 45t58 110h146q-28 -127 -119 -214.5t-195 -87.5zM1210 148l-23 -148h-1062l220 1390h1062l-23 -148h-914l-75 -474h859l-23 -146h-859l-76 -474h914z" />
    <glyph glyph-name="ebreve" unicode="&#x115;" vert-adv-y="2130" 
d="M770 1076q-101 0 -162.5 85t-50.5 209h145q-5 -63 21 -106t70 -43q45 0 85.5 43t56.5 106h144q-28 -123 -117.5 -208.5t-191.5 -85.5zM597 -17q-204 0 -316.5 143t-78.5 359q35 217 192 360t362 143q134 0 231.5 -71.5t139.5 -194.5t21 -274h-806q-7 -137 71 -229.5
t207 -92.5q102 0 197.5 66.5t158.5 181.5l130 -47q-85 -158 -222 -251t-287 -93zM379 594h631q-13 111 -88.5 180.5t-187.5 69.5t-209 -69.5t-146 -180.5z" />
    <glyph glyph-name="Edotaccent" unicode="&#x116;" horiz-adv-x="1313" vert-adv-y="2130" 
d="M904 1552q-40 0 -63.5 28t-17.5 67t38.5 67t72.5 28q38 0 61.5 -28t17.5 -67t-38.5 -67t-70.5 -28zM1210 148l-23 -148h-1062l220 1390h1062l-23 -148h-914l-75 -474h859l-23 -146h-859l-76 -474h914z" />
    <glyph glyph-name="edotaccent" unicode="&#x117;" vert-adv-y="2130" 
d="M778 1126q-38 0 -60.5 26.5t-16.5 65.5q6 38 38 65.5t69 27.5q39 0 62 -27.5t17 -65.5q-6 -39 -38 -65.5t-71 -26.5zM597 -17q-204 0 -316.5 143t-78.5 359q35 217 192 360t362 143q134 0 231.5 -71.5t139.5 -194.5t21 -274h-806q-7 -137 71 -229.5t207 -92.5
q102 0 197.5 66.5t158.5 181.5l130 -47q-85 -158 -222 -251t-287 -93zM379 594h631q-13 111 -88.5 180.5t-187.5 69.5t-209 -69.5t-146 -180.5z" />
    <glyph glyph-name="Ecaron" unicode="&#x11a;" horiz-adv-x="1313" vert-adv-y="2130" 
d="M1132 1818l77 -112l-315 -213l-250 213l115 112l165 -141zM1210 148l-23 -148h-1062l220 1390h1062l-23 -148h-914l-75 -474h859l-23 -146h-859l-76 -474h914z" />
    <glyph glyph-name="ecaron" unicode="&#x11b;" vert-adv-y="2130" 
d="M1002 1385l75 -111l-308 -206l-239 206l110 111l158 -136zM597 -17q-204 0 -316.5 143t-78.5 359q35 217 192 360t362 143q134 0 231.5 -71.5t139.5 -194.5t21 -274h-806q-7 -137 71 -229.5t207 -92.5q102 0 197.5 66.5t158.5 181.5l130 -47q-85 -158 -222 -251t-287 -93
zM379 594h631q-13 111 -88.5 180.5t-187.5 69.5t-209 -69.5t-146 -180.5z" />
    <glyph glyph-name="Gcircumflex" unicode="&#x11c;" horiz-adv-x="1606" vert-adv-y="2130" 
d="M1222 1505l-165 140l-210 -140l-76 113l317 212l246 -212zM844 -29q-196 0 -347.5 96.5t-222 263t-39.5 364.5t155 364.5t306 263t378 96.5q185 0 337 -96.5t236 -267.5l-132 -87q-72 142 -195.5 223t-269.5 81q-156 0 -301 -77t-243 -210t-123 -290t31.5 -290t177 -210
t276.5 -77q138 0 272 64t235 178l39 245h-569l23 147h716l-68 -436q-128 -161 -306.5 -253t-365.5 -92z" />
    <glyph glyph-name="gcircumflex" unicode="&#x11d;" horiz-adv-x="1141" vert-adv-y="2130" 
d="M927 1079l-161 135l-201 -135l-77 111l307 207l241 -207zM530 -386q-148 0 -247.5 86.5t-131.5 242.5h152q23 -88 89 -136t162 -48q130 0 221 75.5t111 202.5l12 74q-147 -131 -331 -131q-190 0 -295 143t-71 359t184.5 360.5t340.5 144.5q182 0 289 -134l19 119h144
l-147 -927q-31 -196 -167 -313.5t-334 -117.5zM589 123q132 0 236 103t128 256q25 154 -46.5 256.5t-203.5 102.5q-131 0 -234 -102.5t-128 -256.5q-24 -153 46.5 -256t201.5 -103z" />
    <glyph glyph-name="Gbreve" unicode="&#x11e;" horiz-adv-x="1606" vert-adv-y="2130" 
d="M1034 1502q-105 0 -168 87.5t-52 214.5h147q-5 -66 22.5 -110.5t73.5 -44.5q47 0 89 44.5t59 110.5h146q-29 -127 -120 -214.5t-197 -87.5zM844 -29q-196 0 -347.5 96.5t-222 263t-39.5 364.5t155 364.5t306 263t378 96.5q185 0 337 -96.5t236 -267.5l-132 -87
q-72 142 -195.5 223t-269.5 81q-156 0 -301 -77t-243 -210t-123 -290t31.5 -290t177 -210t276.5 -77q138 0 272 64t235 178l39 245h-569l23 147h716l-68 -436q-128 -161 -306.5 -253t-365.5 -92z" />
    <glyph glyph-name="gbreve" unicode="&#x11f;" horiz-adv-x="1141" vert-adv-y="2130" 
d="M744 1076q-102 0 -163.5 85.5t-49.5 208.5h144q-5 -63 21.5 -106t70.5 -43t84.5 43t55.5 106h145q-28 -123 -117.5 -208.5t-190.5 -85.5zM530 -386q-148 0 -247.5 86.5t-131.5 242.5h152q23 -88 89 -136t162 -48q130 0 221 75.5t111 202.5l12 74q-147 -131 -331 -131
q-190 0 -295 143t-71 359t184.5 360.5t340.5 144.5q182 0 289 -134l19 119h144l-147 -927q-31 -196 -167 -313.5t-334 -117.5zM589 123q132 0 236 103t128 256q25 154 -46.5 256.5t-203.5 102.5q-131 0 -234 -102.5t-128 -256.5q-24 -153 46.5 -256t201.5 -103z" />
    <glyph glyph-name="Gdotaccent" unicode="&#x120;" horiz-adv-x="1606" vert-adv-y="2130" 
d="M1042 1552q-38 0 -61.5 28t-17.5 67t38.5 67t70.5 28q40 0 63 -28t17 -67t-38 -67t-72 -28zM844 -29q-196 0 -347.5 96.5t-222 263t-39.5 364.5t155 364.5t306 263t378 96.5q185 0 337 -96.5t236 -267.5l-132 -87q-72 142 -195.5 223t-269.5 81q-156 0 -301 -77
t-243 -210t-123 -290t31.5 -290t177 -210t276.5 -77q138 0 272 64t235 178l39 245h-569l23 147h716l-68 -436q-128 -161 -306.5 -253t-365.5 -92z" />
    <glyph glyph-name="gdotaccent" unicode="&#x121;" horiz-adv-x="1141" vert-adv-y="2130" 
d="M752 1126q-38 0 -61 26.5t-17 65.5q6 38 38 65.5t70 27.5t61 -27.5t17 -65.5q-6 -39 -37.5 -65.5t-70.5 -26.5zM530 -386q-148 0 -247.5 86.5t-131.5 242.5h152q23 -88 89 -136t162 -48q130 0 221 75.5t111 202.5l12 74q-147 -131 -331 -131q-190 0 -295 143t-71 359
t184.5 360.5t340.5 144.5q182 0 289 -134l19 119h144l-147 -927q-31 -196 -167 -313.5t-334 -117.5zM589 123q132 0 236 103t128 256q25 154 -46.5 256.5t-203.5 102.5q-131 0 -234 -102.5t-128 -256.5q-24 -153 46.5 -256t201.5 -103z" />
    <glyph glyph-name="Itilde" unicode="&#x128;" horiz-adv-x="414" vert-adv-y="2130" 
d="M365 1589l-77 -68l-90 103l82 68q69 60 131 60q63 0 115 -59q15 -15 20 -15t22 15l80 68l87 -105l-80 -67q-72 -60 -133 -60t-113 60q-15 13 -20 13t-24 -13zM501 1390l-220 -1390h-149l220 1390h149z" />
    <glyph glyph-name="itilde" unicode="&#x129;" horiz-adv-x="446" vert-adv-y="2130" 
d="M318 1161l-78 -68l-86 104l78 66q71 58 129 58q61 0 111 -58q15 -13 19 -13q6 0 21 13l77 68l87 -104l-80 -66q-69 -59 -128 -59q-60 0 -111 59q-13 13 -19 13q-5 0 -20 -13zM448 970l-154 -970h-143l154 970h143z" />
    <glyph glyph-name="Imacron" unicode="&#x12a;" horiz-adv-x="373" vert-adv-y="2130" 
d="M683 1673l-24 -149h-463l24 149h463zM480 1390l-220 -1390h-149l220 1390h149z" />
    <glyph glyph-name="imacron" unicode="&#x12b;" horiz-adv-x="406" vert-adv-y="2130" 
d="M625 1244l-23 -145h-450l23 145h450zM430 970l-154 -970h-145l154 970h145z" />
    <glyph glyph-name="Idotaccent" unicode="&#x130;" horiz-adv-x="394" vert-adv-y="2130" 
d="M443 1552q-39 0 -62.5 28t-17.5 67t38.5 67t71.5 28t62.5 -28t17.5 -67t-38.5 -67t-71.5 -28zM490 1390l-220 -1390h-145l220 1390h145z" />
    <glyph glyph-name="dotlessi" unicode="&#x131;" horiz-adv-x="441" vert-adv-y="2130" 
d="M447 970l-154 -970h-145l154 970h145z" />
    <glyph glyph-name="Nacute" unicode="&#x143;" horiz-adv-x="1391" vert-adv-y="2130" 
d="M1098 1853l78 -114l-358 -256l-74 113zM1339 1390h148l-222 -1400l-833 1017l-159 -1007h-148l221 1398l832 -1027z" />
    <glyph glyph-name="nacute" unicode="&#x144;" horiz-adv-x="999" vert-adv-y="2130" 
d="M831 1418l76 -112l-349 -249l-72 112zM368 615l-97 -615h-146l153 968h145l-9 -58q111 78 242 78q156 0 247.5 -109t66.5 -264l-97 -615h-145l97 615q15 95 -40.5 162t-149.5 67q-96 0 -174 -67t-93 -162z" />
    <glyph glyph-name="Ncaron" unicode="&#x147;" horiz-adv-x="1391" vert-adv-y="2130" 
d="M1170 1818l78 -112l-316 -213l-248 213l114 112l164 -141zM1339 1390h148l-222 -1400l-833 1017l-159 -1007h-148l221 1398l832 -1027z" />
    <glyph glyph-name="ncaron" unicode="&#x148;" horiz-adv-x="999" vert-adv-y="2130" 
d="M899 1385l77 -111l-306 -206l-242 206l109 111l162 -136zM368 615l-97 -615h-146l153 968h145l-9 -58q111 78 242 78q156 0 247.5 -109t66.5 -264l-97 -615h-145l97 615q15 95 -40.5 162t-149.5 67q-96 0 -174 -67t-93 -162z" />
    <glyph glyph-name="Omacron" unicode="&#x14c;" horiz-adv-x="1699" vert-adv-y="2130" 
d="M1346 1673l-24 -149h-462l24 149h462zM844 -29q-196 0 -347.5 96.5t-222 263t-39.5 364.5t155 364.5t306 263t378 96.5q198 0 349.5 -96.5t222 -263t39.5 -364.5q-24 -148 -102.5 -282t-191 -231t-256 -154t-291.5 -57zM868 118q157 0 302.5 77t243.5 210t123 290
q19 118 -10 224.5t-94 184t-165 123t-218 45.5q-156 0 -301 -77t-243 -210t-123 -290t31.5 -290t177 -210t276.5 -77z" />
    <glyph glyph-name="omacron" unicode="&#x14d;" vert-adv-y="2130" 
d="M1023 1244l-23 -145h-450l23 145h450zM597 -17q-204 0 -316.5 143t-78.5 359q23 143 102.5 258t198.5 180t253 65q135 0 234.5 -65t143.5 -180.5t21 -257.5t-103 -257t-200 -180t-255 -65zM620 126q142 0 253.5 103t135.5 256t-54.5 256t-220.5 103t-252.5 -103
t-134.5 -256t54 -256t219 -103z" />
    <glyph glyph-name="Obreve" unicode="&#x14e;" horiz-adv-x="1699" vert-adv-y="2130" 
d="M1087 1502q-105 0 -168.5 87.5t-50.5 214.5h146q-5 -65 22.5 -110t73.5 -45t88.5 45t58.5 110h147q-29 -127 -120.5 -214.5t-196.5 -87.5zM844 -29q-196 0 -347.5 96.5t-222 263t-39.5 364.5t155 364.5t306 263t378 96.5q198 0 349.5 -96.5t222 -263t39.5 -364.5
q-24 -148 -102.5 -282t-191 -231t-256 -154t-291.5 -57zM868 118q157 0 302.5 77t243.5 210t123 290q19 118 -10 224.5t-94 184t-165 123t-218 45.5q-156 0 -301 -77t-243 -210t-123 -290t31.5 -290t177 -210t276.5 -77z" />
    <glyph glyph-name="obreve" unicode="&#x14f;" vert-adv-y="2130" 
d="M770 1076q-101 0 -162.5 85t-50.5 209h145q-5 -63 21 -106t70 -43q45 0 85.5 43t56.5 106h144q-28 -123 -117.5 -208.5t-191.5 -85.5zM597 -17q-204 0 -316.5 143t-78.5 359q23 143 102.5 258t198.5 180t253 65q135 0 234.5 -65t143.5 -180.5t21 -257.5t-103 -257
t-200 -180t-255 -65zM620 126q142 0 253.5 103t135.5 256t-54.5 256t-220.5 103t-252.5 -103t-134.5 -256t54 -256t219 -103z" />
    <glyph glyph-name="Ohungarumlaut" unicode="&#x150;" horiz-adv-x="1699" vert-adv-y="2130" 
d="M1076 1929l109 -77l-285 -336l-111 81zM1346 1929l111 -77l-286 -336l-111 81zM844 -29q-196 0 -347.5 96.5t-222 263t-39.5 364.5t155 364.5t306 263t378 96.5q198 0 349.5 -96.5t222 -263t39.5 -364.5q-24 -148 -102.5 -282t-191 -231t-256 -154t-291.5 -57zM868 118
q157 0 302.5 77t243.5 210t123 290q19 118 -10 224.5t-94 184t-165 123t-218 45.5q-156 0 -301 -77t-243 -210t-123 -290t31.5 -290t177 -210t276.5 -77z" />
    <glyph glyph-name="ohungarumlaut" unicode="&#x151;" vert-adv-y="2130" 
d="M757 1493l113 -75l-281 -329l-107 80zM1020 1493l112 -75l-281 -329l-107 80zM597 -17q-204 0 -316.5 143t-78.5 359q23 143 102.5 258t198.5 180t253 65q135 0 234.5 -65t143.5 -180.5t21 -257.5t-103 -257t-200 -180t-255 -65zM620 126q142 0 253.5 103t135.5 256
t-54.5 256t-220.5 103t-252.5 -103t-134.5 -256t54 -256t219 -103z" />
    <glyph glyph-name="OE" unicode="&#x152;" horiz-adv-x="2613" vert-adv-y="2130" 
d="M844 -29q-196 0 -347.5 96.5t-222 263t-39.5 364.5t155 364.5t306 263t378 96.5q175 0 313.5 -75.5t218.5 -208.5l40 255h1062l-23 -148h-914l-75 -474h859l-23 -146h-859l-76 -474h914l-23 -148h-1062l40 255q-121 -133 -284 -208.5t-338 -75.5zM868 118q143 0 282.5 77
t239.5 201.5t141 266.5l10 64q4 142 -57 266.5t-176 201.5t-258 77q-156 0 -301 -77t-243 -210t-123 -290t31.5 -290t177 -210t276.5 -77z" />
    <glyph glyph-name="oe" unicode="&#x153;" horiz-adv-x="2009" vert-adv-y="2130" 
d="M1429 126q102 0 197.5 66.5t158.5 181.5l130 -47q-85 -158 -222 -251t-287 -93q-130 0 -226.5 61.5t-141.5 168.5l-1 -3q-78 -109 -192.5 -168t-247.5 -59q-204 0 -316.5 143t-78.5 359q23 143 102.5 258t198.5 180t253 65q133 0 228.5 -59.5t139.5 -168.5v-3
q79 108 195 169.5t246 61.5q134 0 231.5 -71.5t139.5 -194.5t21 -274h-806q-7 -137 71 -229.5t207 -92.5zM1003 465l8 49q11 135 -69 232.5t-208 97.5q-142 0 -252.5 -103t-134.5 -256t54 -256t219 -103q129 0 238 100.5t145 238.5zM1543 844q-112 0 -209 -69.5t-146 -180.5
h631q-13 111 -88.5 180.5t-187.5 69.5z" />
    <glyph glyph-name="Racute" unicode="&#x154;" horiz-adv-x="1415" vert-adv-y="2130" 
d="M1103 1853l77 -114l-357 -256l-75 113zM348 472l-75 -472h-148l220 1390h691q125 0 221 -61t140.5 -167t24.5 -231q-24 -154 -131.5 -274.5t-258.5 -162.5l259 -494h-179l-247 472h-517zM1013 1242h-543l-99 -621h571q120 19 218 108t116 202q21 129 -56.5 220t-206.5 91
z" />
    <glyph glyph-name="racute" unicode="&#x155;" horiz-adv-x="740" vert-adv-y="2130" 
d="M704 1418l73 -112l-348 -249l-73 112zM368 615l-97 -615h-146l153 968h145l-9 -58q111 78 242 78q37 0 114 -16l-24 -151q-83 23 -111 23q-96 0 -174 -67t-93 -162z" />
    <glyph glyph-name="Rcaron" unicode="&#x158;" horiz-adv-x="1415" vert-adv-y="2130" 
d="M1175 1818l78 -112l-316 -213l-249 213l115 112l164 -141zM348 472l-75 -472h-148l220 1390h691q125 0 221 -61t140.5 -167t24.5 -231q-24 -154 -131.5 -274.5t-258.5 -162.5l259 -494h-179l-247 472h-517zM1013 1242h-543l-99 -621h571q120 19 218 108t116 202
q21 129 -56.5 220t-206.5 91z" />
    <glyph glyph-name="rcaron" unicode="&#x159;" horiz-adv-x="798" vert-adv-y="2130" 
d="M800 1386l74 -112l-306 -206l-241 206l110 111l160 -136zM397 615l-97 -615h-147l153 968h146l-9 -58q111 78 240 78q37 0 115 -16l-24 -151q-82 23 -112 23q-96 0 -173 -67t-92 -162z" />
    <glyph glyph-name="Sacute" unicode="&#x15a;" horiz-adv-x="1392" vert-adv-y="2130" 
d="M1101 1853l78 -114l-358 -256l-74 113zM701 -29q-238 0 -382.5 127.5t-127.5 318.5h152q-11 -128 97.5 -213.5t283.5 -85.5t304.5 74t147.5 187q16 99 -80 166t-300 98q-256 39 -373 136.5t-93 251.5q27 167 195 277.5t391 110.5q145 0 257 -55.5t169.5 -153t46.5 -216.5
h-150q9 119 -89.5 198.5t-256.5 79.5q-160 0 -278 -68t-134 -172q-14 -92 75.5 -154.5t272.5 -88.5q273 -41 398.5 -144t100.5 -265q-28 -177 -207.5 -293t-419.5 -116z" />
    <glyph glyph-name="sacute" unicode="&#x15b;" horiz-adv-x="1073" vert-adv-y="2130" 
d="M870 1418l76 -112l-348 -248l-74 111zM538 -17q-173 0 -274.5 93t-88.5 238h145q-4 -61 33 -105t91.5 -63.5t116.5 -19.5q99 0 186.5 40.5t99.5 114.5q2 16 -1 30t-14.5 26t-22.5 21.5t-33 18.5t-37 15t-44.5 14t-45.5 11.5t-49 11.5q-69 15 -114.5 27.5t-95.5 35t-77 49
t-41.5 67.5t-6.5 93q21 129 141.5 208t287.5 79q159 0 254.5 -89.5t84.5 -227.5h-146q5 75 -55 124t-155 49q-60 0 -115 -14t-98 -47t-50 -79q-3 -20 2 -36.5t22 -29.5t34 -22t49 -18t53.5 -14t61.5 -13q72 -15 119.5 -27.5t101.5 -36t83.5 -51.5t45.5 -72t7 -100
q-22 -134 -150 -217.5t-305 -83.5z" />
    <glyph glyph-name="Scircumflex" unicode="&#x15c;" horiz-adv-x="1392" vert-adv-y="2130" 
d="M1123 1505l-164 139l-208 -139l-79 112l317 213l247 -213zM701 -29q-238 0 -382.5 127.5t-127.5 318.5h152q-11 -128 97.5 -213.5t283.5 -85.5t304.5 74t147.5 187q16 99 -80 166t-300 98q-256 39 -373 136.5t-93 251.5q27 167 195 277.5t391 110.5q145 0 257 -55.5
t169.5 -153t46.5 -216.5h-150q9 119 -89.5 198.5t-256.5 79.5q-160 0 -278 -68t-134 -172q-14 -92 75.5 -154.5t272.5 -88.5q273 -41 398.5 -144t100.5 -265q-28 -177 -207.5 -293t-419.5 -116z" />
    <glyph glyph-name="scircumflex" unicode="&#x15d;" horiz-adv-x="1073" vert-adv-y="2130" 
d="M890 1079l-159 135l-203 -135l-76 111l309 207l239 -207zM538 -17q-173 0 -274.5 93t-88.5 238h145q-4 -61 33 -105t91.5 -63.5t116.5 -19.5q99 0 186.5 40.5t99.5 114.5q2 16 -1 30t-14.5 26t-22.5 21.5t-33 18.5t-37 15t-44.5 14t-45.5 11.5t-49 11.5
q-69 15 -114.5 27.5t-95.5 35t-77 49t-41.5 67.5t-6.5 93q21 129 141.5 208t287.5 79q159 0 254.5 -89.5t84.5 -227.5h-146q5 75 -55 124t-155 49q-60 0 -115 -14t-98 -47t-50 -79q-3 -20 2 -36.5t22 -29.5t34 -22t49 -18t53.5 -14t61.5 -13q72 -15 119.5 -27.5t101.5 -36
t83.5 -51.5t45.5 -72t7 -100q-22 -134 -150 -217.5t-305 -83.5z" />
    <glyph glyph-name="Scedilla" unicode="&#x15e;" horiz-adv-x="1392" vert-adv-y="2130" 
d="M525 -395l20 121q35 -4 68.5 12.5t50.5 45.5h-110l31 196q-191 31 -300 151t-94 286h152q-11 -128 97.5 -213.5t283.5 -85.5t304.5 74t147.5 187q16 99 -80 166t-300 98q-256 39 -373 136.5t-93 251.5q27 167 195 277.5t391 110.5q145 0 257 -55.5t169.5 -153
t46.5 -216.5h-150q9 119 -89.5 198.5t-256.5 79.5q-160 0 -278 -68t-134 -172q-14 -92 75.5 -154.5t272.5 -88.5q273 -41 398.5 -144t100.5 -265q-28 -177 -207 -293t-419 -116l-10 -68h118l-14 -89q-14 -89 -93.5 -150t-177.5 -59z" />
    <glyph glyph-name="scedilla" unicode="&#x15f;" horiz-adv-x="1073" vert-adv-y="2130" 
d="M366 -368l19 121q35 -4 68.5 12.5t50.5 45.5h-110l29 185q-123 29 -190.5 114.5t-57.5 203.5h145q-4 -61 33 -105t91.5 -63.5t116.5 -19.5q99 0 186.5 40.5t99.5 114.5q2 16 -1 30t-14.5 26t-22.5 21.5t-33 18.5t-37 15t-44.5 14t-45.5 11.5t-49 11.5q-69 15 -114.5 27.5
t-95.5 35t-77 49t-41.5 67.5t-6.5 93q21 129 141.5 208t287.5 79q159 0 254.5 -89.5t84.5 -227.5h-146q5 75 -55 124t-155 49q-60 0 -115 -14t-98 -47t-50 -79q-3 -20 2 -36.5t22 -29.5t34 -22t49 -18t53.5 -14t61.5 -13q72 -15 119.5 -27.5t101.5 -36t83.5 -51.5t45.5 -72
t7 -100q-22 -134 -149.5 -217t-303.5 -84l-8 -53h118l-14 -89q-14 -89 -93.5 -150t-176.5 -59z" />
    <glyph glyph-name="Scaron" unicode="&#x160;" horiz-adv-x="1392" vert-adv-y="2130" 
d="M1173 1818l77 -112l-315 -213l-249 213l115 112l164 -141zM701 -29q-238 0 -382.5 127.5t-127.5 318.5h152q-11 -128 97.5 -213.5t283.5 -85.5t304.5 74t147.5 187q16 99 -80 166t-300 98q-256 39 -373 136.5t-93 251.5q27 167 195 277.5t391 110.5q145 0 257 -55.5
t169.5 -153t46.5 -216.5h-150q9 119 -89.5 198.5t-256.5 79.5q-160 0 -278 -68t-134 -172q-14 -92 75.5 -154.5t272.5 -88.5q273 -41 398.5 -144t100.5 -265q-28 -177 -207.5 -293t-419.5 -116z" />
    <glyph glyph-name="scaron" unicode="&#x161;" horiz-adv-x="1073" vert-adv-y="2130" 
d="M938 1385l76 -111l-305 -206l-243 206l110 111l161 -136zM538 -17q-173 0 -274.5 93t-88.5 238h145q-4 -61 33 -105t91.5 -63.5t116.5 -19.5q99 0 186.5 40.5t99.5 114.5q2 16 -1 30t-14.5 26t-22.5 21.5t-33 18.5t-37 15t-44.5 14t-45.5 11.5t-49 11.5
q-69 15 -114.5 27.5t-95.5 35t-77 49t-41.5 67.5t-6.5 93q21 129 141.5 208t287.5 79q159 0 254.5 -89.5t84.5 -227.5h-146q5 75 -55 124t-155 49q-60 0 -115 -14t-98 -47t-50 -79q-3 -20 2 -36.5t22 -29.5t34 -22t49 -18t53.5 -14t61.5 -13q72 -15 119.5 -27.5t101.5 -36
t83.5 -51.5t45.5 -72t7 -100q-22 -134 -150 -217.5t-305 -83.5z" />
    <glyph glyph-name="Utilde" unicode="&#x168;" horiz-adv-x="1391" vert-adv-y="2130" 
d="M854 1589l-77 -68l-91 103l81 68q71 60 132 60q63 0 116 -59q15 -15 19 -15t23 15l79 68l88 -105l-81 -67q-71 -60 -132 -60q-62 0 -114 60q-13 13 -20 13q-6 0 -23 -13zM691 -29q-155 0 -274.5 76.5t-175 207.5t-30.5 286l134 849h148l-134 -849q-14 -86 7.5 -164
t69 -135t120.5 -90.5t159 -33.5q175 0 318.5 124t171.5 299l134 849h148l-134 -849q-25 -155 -122.5 -286.5t-241 -207.5t-298.5 -76z" />
    <glyph glyph-name="utilde" unicode="&#x169;" horiz-adv-x="999" vert-adv-y="2130" 
d="M594 1161l-77 -68l-86 104l79 66q69 58 129 58q58 0 111 -58q11 -13 17 -13q5 0 22 13l76 68l88 -104l-79 -66q-70 -59 -129 -59t-111 59q-15 13 -18 13q-5 0 -22 -13zM498 -18q-156 0 -249 108.5t-68 264.5l97 614h145l-97 -614q-15 -95 41.5 -162.5t152.5 -67.5
q95 0 172 67.5t92 162.5l97 614h145l-153 -968h-145l9 58q-108 -77 -239 -77z" />
    <glyph glyph-name="Umacron" unicode="&#x16a;" horiz-adv-x="1391" vert-adv-y="2130" 
d="M1192 1673l-24 -149h-463l24 149h463zM691 -29q-155 0 -274.5 76.5t-175 207.5t-30.5 286l134 849h148l-134 -849q-14 -86 7.5 -164t69 -135t120.5 -90.5t159 -33.5q175 0 318.5 124t171.5 299l134 849h148l-134 -849q-25 -155 -122.5 -286.5t-241 -207.5t-298.5 -76z
" />
    <glyph glyph-name="umacron" unicode="&#x16b;" horiz-adv-x="999" vert-adv-y="2130" 
d="M921 1244l-23 -145h-449l23 145h449zM498 -18q-156 0 -249 108.5t-68 264.5l97 614h145l-97 -614q-15 -95 41.5 -162.5t152.5 -67.5q95 0 172 67.5t92 162.5l97 614h145l-153 -968h-145l9 58q-108 -77 -239 -77z" />
    <glyph glyph-name="Ubreve" unicode="&#x16c;" horiz-adv-x="1391" vert-adv-y="2130" 
d="M934 1502q-104 0 -168 87.5t-53 214.5h148q-5 -66 22.5 -110.5t73.5 -44.5t88 45t59 110h146q-29 -127 -120 -214.5t-196 -87.5zM691 -29q-155 0 -274.5 76.5t-175 207.5t-30.5 286l134 849h148l-134 -849q-14 -86 7.5 -164t69 -135t120.5 -90.5t159 -33.5
q175 0 318.5 124t171.5 299l134 849h148l-134 -849q-25 -155 -122.5 -286.5t-241 -207.5t-298.5 -76z" />
    <glyph glyph-name="ubreve" unicode="&#x16d;" horiz-adv-x="999" vert-adv-y="2130" 
d="M671 1076q-102 0 -164 85.5t-51 208.5h144q-5 -63 22 -106t72 -43q44 0 84 43t54 106h145q-28 -123 -117 -208.5t-189 -85.5zM498 -18q-156 0 -249 108.5t-68 264.5l97 614h145l-97 -614q-15 -95 41.5 -162.5t152.5 -67.5q95 0 172 67.5t92 162.5l97 614h145l-153 -968
h-145l9 58q-108 -77 -239 -77z" />
    <glyph glyph-name="Uring" unicode="&#x16e;" horiz-adv-x="1391" vert-adv-y="2130" 
d="M931 1497q-74 0 -118.5 53t-32.5 127q11 74 72.5 126.5t135.5 52.5t118 -52.5t33 -126.5q-12 -74 -73 -127t-135 -53zM950 1617q25 0 44.5 17.5t24.5 42.5q4 25 -10.5 42.5t-39.5 17.5t-45 -17.5t-24 -42.5q-5 -25 10 -42.5t40 -17.5zM691 -29q-155 0 -274.5 76.5
t-175 207.5t-30.5 286l134 849h148l-134 -849q-14 -86 7.5 -164t69 -135t120.5 -90.5t159 -33.5q175 0 318.5 124t171.5 299l134 849h148l-134 -849q-25 -155 -122.5 -286.5t-241 -207.5t-298.5 -76z" />
    <glyph glyph-name="uring" unicode="&#x16f;" horiz-adv-x="999" vert-adv-y="2130" 
d="M669 1066q-74 0 -118.5 53t-33.5 127q12 74 73.5 126.5t135.5 52.5t118 -52.5t32 -126.5q-11 -74 -72 -127t-135 -53zM688 1186q25 0 44.5 17.5t23.5 42.5q5 25 -9.5 42.5t-39.5 17.5t-45 -17.5t-25 -42.5q-4 -25 11 -42.5t40 -17.5zM498 -18q-156 0 -249 108.5
t-68 264.5l97 614h145l-97 -614q-15 -95 41.5 -162.5t152.5 -67.5q95 0 172 67.5t92 162.5l97 614h145l-153 -968h-145l9 58q-108 -77 -239 -77z" />
    <glyph glyph-name="Uhungarumlaut" unicode="&#x170;" horiz-adv-x="1391" vert-adv-y="2130" 
d="M920 1929l112 -77l-287 -336l-110 81zM1191 1929l111 -77l-287 -336l-108 81zM691 -29q-155 0 -274.5 76.5t-175 207.5t-30.5 286l134 849h148l-134 -849q-14 -86 7.5 -164t69 -135t120.5 -90.5t159 -33.5q175 0 318.5 124t171.5 299l134 849h148l-134 -849
q-25 -155 -122.5 -286.5t-241 -207.5t-298.5 -76z" />
    <glyph glyph-name="uhungarumlaut" unicode="&#x171;" horiz-adv-x="999" vert-adv-y="2130" 
d="M658 1493l108 -76l-278 -328l-108 80zM919 1493l109 -76l-279 -328l-107 80zM498 -18q-156 0 -249 108.5t-68 264.5l97 614h145l-97 -614q-15 -95 41.5 -162.5t152.5 -67.5q95 0 172 67.5t92 162.5l97 614h145l-153 -968h-145l9 58q-108 -77 -239 -77z" />
    <glyph glyph-name="Wcircumflex" unicode="&#x174;" horiz-adv-x="2225" vert-adv-y="2130" 
d="M1539 1505l-166 140l-210 -140l-75 113l314 212l249 -212zM1551 0l-259 1136l-619 -1136l-319 1388h155l228 -984l539 984h112l227 -984l542 984h154z" />
    <glyph glyph-name="wcircumflex" unicode="&#x175;" horiz-adv-x="1556" vert-adv-y="2130" 
d="M1130 1079l-160 135l-202 -135l-75 111l305 207l242 -207zM1059 0l-162 743l-398 -743l-214 970h145l129 -593l319 593h109l132 -593l315 593h146z" />
    <glyph glyph-name="Ycircumflex" unicode="&#x176;" horiz-adv-x="1560" vert-adv-y="2130" 
d="M1235 1505l-164 140l-210 -140l-76 113l315 212l247 -212zM969 538l-85 -538h-148l85 538l-462 852h182l377 -705l602 705h182z" />
    <glyph glyph-name="ycircumflex" unicode="&#x177;" horiz-adv-x="1214" vert-adv-y="2130" 
d="M959 1079l-160 135l-201 -135l-78 111l308 207l241 -207zM1234 970l-872 -1400h-149l337 538l-262 862h160l202 -696l424 696h160z" />
    <glyph glyph-name="Ydieresis" unicode="&#x178;" horiz-adv-x="1560" vert-adv-y="2130" 
d="M921 1522q-38 0 -62 28t-18 66q6 39 39 67.5t71 28.5q39 0 62.5 -28.5t17.5 -67.5q-6 -38 -38.5 -66t-71.5 -28zM1181 1522q-38 0 -62 28t-18 66q6 39 39 67.5t71 28.5q40 0 63.5 -28.5t17.5 -67.5q-6 -38 -38.5 -66t-72.5 -28zM969 538l-85 -538h-148l85 538l-462 852
h182l377 -705l602 705h182z" />
    <glyph glyph-name="Zacute" unicode="&#x179;" horiz-adv-x="1631" vert-adv-y="2130" 
d="M1219 1853l76 -114l-357 -256l-74 113zM1409 148l-23 -148h-1244l1229 1242h-911l23 148h1226l-1230 -1242h930z" />
    <glyph glyph-name="zacute" unicode="&#x17a;" horiz-adv-x="1034" vert-adv-y="2130" 
d="M850 1418l73 -112l-348 -249l-73 112zM931 145l-23 -145h-783l19 121l691 704h-543l23 145h747l-19 -120l-690 -705h578z" />
    <glyph glyph-name="Zdotaccent" unicode="&#x17b;" horiz-adv-x="1631" vert-adv-y="2130" 
d="M1061 1552q-38 0 -61.5 28t-17.5 67t38.5 67t70.5 28q39 0 62.5 -28t17.5 -67t-38.5 -67t-71.5 -28zM1409 148l-23 -148h-1244l1229 1242h-911l23 148h1226l-1230 -1242h930z" />
    <glyph glyph-name="zdotaccent" unicode="&#x17c;" horiz-adv-x="1034" vert-adv-y="2130" 
d="M694 1126q-38 0 -60.5 26.5t-16.5 65.5q6 38 38 65.5t69 27.5q39 0 62 -27.5t17 -65.5q-6 -39 -38 -65.5t-71 -26.5zM931 145l-23 -145h-783l19 121l691 704h-543l23 145h747l-19 -120l-690 -705h578z" />
    <glyph glyph-name="Zcaron" unicode="&#x17d;" horiz-adv-x="1631" vert-adv-y="2130" 
d="M1289 1818l79 -112l-317 -213l-247 213l113 112l164 -141zM1409 148l-23 -148h-1244l1229 1242h-911l23 148h1226l-1230 -1242h930z" />
    <glyph glyph-name="zcaron" unicode="&#x17e;" horiz-adv-x="1034" vert-adv-y="2130" 
d="M918 1385l75 -111l-308 -206l-240 206l110 111l159 -136zM931 145l-23 -145h-783l19 121l691 704h-543l23 145h747l-19 -120l-690 -705h578z" />
    <glyph glyph-name="circumflex" unicode="&#x2c6;" horiz-adv-x="1050" vert-adv-y="2130" 
d="M877 1079l-160 136l-202 -136l-76 110l307 207l241 -207z" />
    <glyph glyph-name="caron" unicode="&#x2c7;" horiz-adv-x="1050" vert-adv-y="2130" 
d="M925 1385l76 -110l-307 -208l-241 208l110 110l160 -137z" />
    <glyph glyph-name="breve" unicode="&#x2d8;" horiz-adv-x="1011" vert-adv-y="2130" 
d="M677 1077q-102 0 -164 85t-51 208h144q-5 -63 22 -106t71 -43t84.5 43t55.5 106h144q-28 -123 -116.5 -208t-189.5 -85z" />
    <glyph glyph-name="dotaccent" unicode="&#x2d9;" horiz-adv-x="490" vert-adv-y="2130" 
d="M423 1125q-37 0 -60.5 27.5t-17.5 65.5q6 37 38 65t70 28q37 0 60.5 -27.5t17.5 -65.5q-6 -37 -38 -65t-70 -28z" />
    <glyph glyph-name="ring" unicode="&#x2da;" horiz-adv-x="850" vert-adv-y="2130" 
d="M594 1067q-74 0 -118.5 53t-32.5 127q11 74 72.5 126.5t135.5 52.5t118 -52.5t33 -126.5q-12 -74 -73 -127t-135 -53zM613 1187q25 0 44.5 17.5t24.5 42.5q4 25 -10.5 42.5t-39.5 17.5t-45 -17.5t-24 -42.5q-5 -25 10 -42.5t40 -17.5z" />
    <glyph glyph-name="tilde" unicode="&#x2dc;" horiz-adv-x="1019" vert-adv-y="2130" 
d="M604 1161l-77 -68l-87 103l80 67q66 56 128 58q59 -1 112 -58q14 -14 18 -14q5 0 21 14l77 68l86 -104l-78 -66q-67 -58 -129 -58q-61 0 -111 57q-12 14 -18 14q-5 0 -22 -13z" />
    <glyph glyph-name="hungarumlaut" unicode="&#x2dd;" horiz-adv-x="951" vert-adv-y="2130" 
d="M633 1493l110 -77l-280 -327l-107 80zM895 1493l109 -77l-279 -327l-107 80z" />
    <glyph glyph-name="Wgrave" unicode="&#x1e80;" horiz-adv-x="2225" vert-adv-y="2130" 
d="M1295 1853l277 -257l-113 -113l-276 255zM1551 0l-259 1136l-619 -1136l-319 1388h155l228 -984l539 984h112l227 -984l542 984h154z" />
    <glyph glyph-name="wgrave" unicode="&#x1e81;" horiz-adv-x="1556" vert-adv-y="2130" 
d="M895 1418l268 -249l-110 -111l-267 248zM1059 0l-162 743l-398 -743l-214 970h145l129 -593l319 593h109l132 -593l315 593h146z" />
    <glyph glyph-name="Wacute" unicode="&#x1e82;" horiz-adv-x="2224" vert-adv-y="2130" 
d="M1484 1853l78 -115l-359 -255l-73 113zM1551 0l-259 1136l-619 -1136l-319 1388h155l228 -984l539 984h112l227 -984l542 984h154z" />
    <glyph glyph-name="wacute" unicode="&#x1e83;" horiz-adv-x="1556" vert-adv-y="2130" 
d="M1110 1418l75 -112l-347 -248l-74 111zM1059 0l-162 743l-398 -743l-214 970h145l129 -593l319 593h109l132 -593l315 593h146z" />
    <glyph glyph-name="Wdieresis" unicode="&#x1e84;" horiz-adv-x="2225" vert-adv-y="2130" 
d="M1229 1522q-38 0 -62 28t-18 66q6 39 39 67.5t71 28.5q40 0 63.5 -28.5t17.5 -67.5q-6 -38 -38.5 -66t-72.5 -28zM1490 1522q-38 0 -62 28t-18 66q6 39 39 67.5t71 28.5q39 0 62.5 -28.5t17.5 -67.5q-6 -38 -38.5 -66t-71.5 -28zM1551 0l-259 1136l-619 -1136l-319 1388
h155l228 -984l539 984h112l227 -984l542 984h154z" />
    <glyph glyph-name="wdieresis" unicode="&#x1e85;" horiz-adv-x="1556" vert-adv-y="2130" 
d="M826 1095q-38 0 -61 28.5t-18 65.5q6 38 38 65t71 27q38 0 60.5 -27t16.5 -65q-5 -37 -37 -65.5t-70 -28.5zM1077 1095q-37 0 -60 28.5t-18 65.5q6 37 38.5 64.5t69.5 27.5q38 0 61.5 -27.5t17.5 -64.5q-5 -37 -38.5 -65.5t-70.5 -28.5zM1059 0l-162 743l-398 -743
l-214 970h145l129 -593l319 593h109l132 -593l315 593h146z" />
    <glyph glyph-name="endash" unicode="&#x2013;" horiz-adv-x="1152" vert-adv-y="2130" 
d="M1071 602l-23 -145h-799l23 145h799z" />
    <glyph glyph-name="emdash" unicode="&#x2014;" horiz-adv-x="1690" vert-adv-y="2130" 
d="M1608 602l-23 -145h-1336l23 145h1336z" />
    <glyph glyph-name="quoteleft" unicode="&#x2018;" horiz-adv-x="544" vert-adv-y="2130" 
d="M563 1347l43 -305h-150l-74 305h181z" />
    <glyph glyph-name="quoteright" unicode="&#x2019;" horiz-adv-x="528" vert-adv-y="2130" 
d="M594 1347l-169 -305h-151l139 305h181z" />
    <glyph glyph-name="quotesinglbase" unicode="&#x201a;" horiz-adv-x="552" vert-adv-y="2130" 
d="M432 324l-169 -304h-151l139 304h181z" />
    <glyph glyph-name="quotedblleft" unicode="&#x201c;" horiz-adv-x="708" vert-adv-y="2130" 
d="M463 1355l69 -295h-167l-41 295h139zM651 1355l69 -295h-167l-41 295h139z" />
    <glyph glyph-name="quotedblright" unicode="&#x201d;" horiz-adv-x="692" vert-adv-y="2130" 
d="M578 1352l-163 -295h-139l135 295h167zM766 1352l-163 -295h-139l135 295h167z" />
    <glyph glyph-name="quotedblbase" unicode="&#x201e;" horiz-adv-x="718" vert-adv-y="2130" 
d="M414 317l-163 -295h-139l135 295h167zM602 317l-163 -295h-139l135 295h167z" />
    <glyph glyph-name="dagger" unicode="&#x2020;" horiz-adv-x="829" vert-adv-y="2130" 
d="M640 969l-68 -431h-145l68 431h-183l23 145h183l37 233h145l-37 -233h183l-23 -145h-183z" />
    <glyph glyph-name="daggerdbl" unicode="&#x2021;" horiz-adv-x="837" vert-adv-y="2130" 
d="M528 233l-37 -233h-145l37 233h-183l23 145h183l93 591h-183l23 145h183l37 233h145l-37 -233h183l-23 -145h-183l-93 -591h183l-23 -145h-183z" />
    <glyph glyph-name="bullet" unicode="&#x2022;" horiz-adv-x="762" vert-adv-y="2130" 
d="M465 529q-60 0 -95.5 42t-25.5 103q9 59 57.5 101t108.5 42t96 -42t27 -101q-10 -61 -59 -103t-109 -42z" />
    <glyph glyph-name="ellipsis" unicode="&#x2026;" horiz-adv-x="1081" vert-adv-y="2130" 
d="M253 0q-38 0 -61.5 28t-17.5 66q6 37 38 64t70 27t60.5 -27t16.5 -64q-6 -38 -37.5 -66t-68.5 -28zM540 0q-39 0 -61.5 27.5t-16.5 66.5q6 38 37 64.5t70 26.5q38 0 61.5 -27t17.5 -64q-6 -38 -38 -66t-70 -28zM824 0q-37 0 -60 28t-17 66q6 37 37 64t69 27t61.5 -27
t17.5 -64q-6 -38 -38 -66t-70 -28z" />
    <glyph glyph-name="guilsinglleft" unicode="&#x2039;" horiz-adv-x="823" vert-adv-y="2130" 
d="M421 493l265 -313l-121 -102l-348 415l480 414l87 -103z" />
    <glyph glyph-name="guilsinglright" unicode="&#x203a;" horiz-adv-x="822" vert-adv-y="2130" 
d="M414 907l349 -414l-482 -415l-85 102l361 313l-263 311z" />
    <glyph glyph-name="fraction" unicode="&#x2044;" horiz-adv-x="1494" vert-adv-y="2130" 
d="M1565 1371l81 -96l-1504 -1300l-82 97z" />
    <glyph glyph-name="Euro" unicode="&#x20ac;" horiz-adv-x="1384" vert-adv-y="1700" 
d="M779 -29q-190 0 -310.5 120.5t-147.5 329.5h-117l23 146h90q1 46 11 107q7 48 23 107h-90l23 145h117q92 213 251.5 331.5t350.5 118.5q125 0 228.5 -61.5t177.5 -179.5l-121 -101q-123 197 -309 197q-130 0 -243.5 -80.5t-185.5 -224.5h533l-23 -145h-564
q-16 -60 -22 -107q-10 -60 -11 -107h563l-23 -146h-533q26 -143 114 -223.5t219 -80.5q186 0 371 196l89 -100q-230 -242 -484 -242z" />
    <glyph glyph-name="trademark" unicode="&#x2122;" horiz-adv-x="1277" vert-adv-y="2130" 
d="M996 958l27 164l-157 -168l-103 168l-26 -164h-113l49 313h-91l-49 -313h-117l49 313h-147l18 109h432l129 -229l204 237h77l-68 -430h-114z" />
    <glyph glyph-name="minus" unicode="&#x2212;" horiz-adv-x="1148" vert-adv-y="2130" 
d="M1065 692l-23 -145h-762l23 145h762z" />
    <glyph glyph-name="uniF8FF" unicode="&#xf8ff;" horiz-adv-x="1980" vert-adv-y="2130" 
d="M1860 1615v-1869h-1740v1869h1740zM1266 1384h-890v-1194h203v344h687v183h-687v491h687v176zM1398 375h-685v-185h888v1194h-203v-334h-685v-190h685v-485zM559 -2q30 0 50.5 19.5t20.5 49.5t-20.5 49.5t-50.5 19.5t-51 -19.5t-21 -49.5t21 -49.5t51 -19.5zM1095 -2
q22 0 37.5 11t15.5 30q0 14 -6 22q-4 6 -15 13q-9 5 -24 8q-25 5 -25 16q0 9 14 9q17 0 43 -14l13 28q-28 15 -53 15q-22 0 -37.5 -10.5t-15.5 -31.5q0 -13 6 -20q3 -6 15 -12l24 -8l9 -3q8 -3 13 -5q3 -3 3 -8q0 -6 -6 -8q-6 -3 -11 -3q-27 0 -48 21l-14 -28q27 -22 62 -22
zM1402 -2q29 0 56 25l-21 21q-15 -15 -32 -15q-21 0 -31 19q-5 6 -5 16q0 20 10 31t25 11q22 0 33 -18l20 25q-20 23 -52 23q-31 0 -51.5 -19.5t-20.5 -49.5q0 -29 20 -49t49 -20zM480 134h-99v-134h35v48h58v28h-58v30h64v28zM678 134h-31v-134h33v80l60 -80h29v134h-32
l1 -81zM785 105h39v-105h33v105h41v29h-113v-29zM976 134h-35l-56 -134h34l10 23h57l9 -23h37zM1154 105h39v-105h35v105h40v29h-114v-29zM1316 134h-34v-134h34v134zM1550 134h-36l-57 -134h36l8 23h59l8 -23h37zM559 28q-16 0 -26 11.5t-10 27.5t10 27.5t26 11.5
q23 0 31 -20q4 -10 4 -19q0 -16 -10 -27.5t-25 -11.5zM959 98l17 -48h-37zM1530 98l19 -48h-37zM671 -342v-69h-23v69h-13v12l13 6v6q0 15 7 22q7 6 23 6q13 0 22 -3l-6 -18q-4 2 -13 2q-5 0 -7 -3q-3 -2 -3 -7v-5h21v-18h-21zM1233 -314q-12 0 -12 12t12 12q13 0 13 -12
q0 -6 -3 -9t-10 -3zM938 -412q-14 0 -21 6q-6 8 -6 22v42h-11v10l12 8l7 19h16v-19h24v-18h-24v-42q0 -3 2 -7q4 -2 8 -2q3 0 15 2v-18q-9 -3 -22 -3zM1183 -412q-15 0 -21 6q-7 7 -7 22v42h-12v10l14 8l7 19h14v-19h25v-18h-25v-42q0 -4 4 -7q4 -2 7 -2t15 2v-18
q-9 -3 -21 -3zM998 -412q-12 0 -19 6q-8 8 -8 21q0 14 11 21q8 6 29 7h14v4q0 13 -13 13q-10 0 -24 -6l-8 16q16 8 33 8q16 0 27 -8q9 -8 9 -23v-58h-17l-4 11h-1q-8 -8 -12 -10t-17 -2zM1373 -412q-13 0 -20 6q-7 7 -7 21t10 21q8 5 29 7h15v4q0 13 -13 13q-11 0 -25 -6
l-8 16q16 8 34 8q15 0 26 -8q9 -8 9 -23v-58h-17l-4 11h-1q-5 -7 -11 -10q-4 -2 -17 -2zM742 -412q-13 0 -22 5q-9 4 -15 16q-5 12 -5 23q0 20 11 34q11 11 31 11q14 0 22 -5q10 -4 16 -16q5 -10 5 -24q0 -20 -12 -33q-10 -11 -31 -11zM827 -371v-40h-24v87h19l3 -11h1
q5 7 12 9q6 3 15 3q16 0 23 -8q8 -8 8 -23v-57h-24v51q0 10 -3 14t-11 4q-10 0 -14 -6q-5 -8 -5 -23zM1097 -412q-12 0 -16 1l-12 3v20q2 -1 7 -2.5t7 -2.5l15 -3q13 0 13 8q0 3 -2 5l-6 4q-1 0 -5 2t-7 3q-7 2 -14 7q-5 5 -6 9q-2 3 -2 11q0 13 8 18q9 6 26 6t30 -6l-7 -18
l-12 5q-4 1 -12 1q-11 0 -11 -5q0 -4 4 -5q5 -3 15 -7l15 -7l7 -9q2 -6 2 -11q0 -13 -9 -21q-11 -6 -28 -6zM1305 -412q-41 0 -41 43q0 21 12 35q10 11 31 11q15 0 27 -5l-6 -19q-3 1 -7 3l-4 1q-1 0 -4.5 0.5t-5.5 0.5q-18 0 -18 -26q0 -25 18 -25q5 0 13 2q6 2 12 5v-20
q-2 -2 -12 -5q-4 -1 -15 -1zM1528 -412q-40 0 -40 43q0 24 10 35q11 11 33 11q13 0 26 -5l-7 -19l-10 4q-2 0 -5 0.5t-4 0.5q-19 0 -19 -26q0 -25 19 -25q4 0 12 2q6 1 11 5v-20q-3 -3 -11 -5q-4 -1 -15 -1zM1611 -412q-13 0 -21 5q-11 5 -15 16q-5 9 -5 23q0 21 10 34
q11 11 31 11q15 0 23 -5q11 -6 15 -16q5 -10 5 -24q0 -20 -12 -33q-10 -11 -31 -11zM1697 -371v-40h-24v87h18l3 -11h2q3 7 10 9q6 3 15 3q20 0 26 -12h2q5 6 10 9q7 3 18 3q14 0 21 -7t7 -24v-57h-24v51q0 10 -3 14t-10 4q-8 0 -13 -6q-4 -5 -4 -20v-43h-24v51q0 10 -3 14
t-10 4q-9 0 -13 -6q-4 -7 -4 -23zM245 -343l-15 -68h-26l-24 87h23l10 -38q1 -2 5 -29q0 6 3 18l1 8l11 41h27l9 -41q1 -2 1 -6q0 -1 1 -3.5t1 -3.5q0 -5 1 -7v-6h1q0 3 2 15l2 14l12 38h23l-25 -87h-26l-7 30l-9 38h-1zM382 -343l-17 -68h-24l-25 87h23l10 -38q4 -16 5 -29
h1q0 2 2 18l1 8l12 41h25l11 -41q0 -4 1 -6l1 -7q0 -2 0.5 -4t0.5 -3q0 -2 0.5 -3.5t0.5 -2.5q0 3 2 15q1 3 2 8t1 6l10 38h23l-25 -87h-26l-6 30zM518 -343l-16 -68h-26l-25 87h24l11 -38q0 -2 1.5 -12t2.5 -17h1q0 6 3 18l1 8l10 41h26l10 -41q0 -1 0.5 -3t0.5 -3t1 -3.5
t1 -3.5q1 -3 1 -7q1 -3 1 -6l3 15l2 14l10 38h24l-25 -87h-26l-7 30l-8 38h-1zM1245 -324v-87h-23v87h23zM742 -393q10 0 14 6q4 5 4 19q0 15 -4 20q-4 6 -14 6t-13 -6q-4 -5 -4 -20q0 -12 4 -19q3 -6 13 -6zM1611 -393q11 0 14 6q4 5 4 19q0 15 -4 20q-3 6 -14 6
q-9 0 -13 -6q-4 -5 -4 -20q0 -12 4 -19q4 -6 13 -6zM1008 -396q5 0 13 6q4 4 4 12v7h-8q-13 -2 -16 -4q-5 -3 -5 -10q0 -11 12 -11zM1381 -396q8 0 14 6q5 5 5 12v7h-9q-12 -2 -16 -4q-5 -3 -5 -10q0 -11 11 -11zM609 -413q-5 0 -11 3q-3 4 -3 10q0 7 3 10q6 3 11 3
q7 0 10 -3t3 -10q0 -6 -3 -10q-5 -3 -10 -3zM1458 -413q-6 0 -10 3q-3 5 -3 10q0 7 3 10t10 3q6 0 10 -3q4 -4 4 -10q0 -4 -4 -10q-5 -3 -10 -3z" />
    <glyph glyph-name="_Fontastica" horiz-adv-x="1458" vert-adv-y="2130" 
d="M322 521v-340h-196q-3 0 -4.5 2t-1.5 4v2v1178h884v-174h-682v-490h682v-182h-682zM1338 1367v-1186h-884v184h682v482h-682v188h682v332h202zM836 -1q-35 0 -61 21l14 28q7 -8 21.5 -14.5t24.5 -6.5q8 0 14 3q5 2 5 8q0 5 -4 8q-11 6 -22 9q-18 5 -24 8q-9 3 -14 10
q-6 8 -6 20q0 22 15.5 32.5t36.5 10.5q26 0 53 -15l-13 -28q-23 14 -41 14q-15 0 -15 -9q0 -10 24 -17q19 -4 24 -7q11 -7 15 -12q6 -9 6 -22q0 -20 -15.5 -30.5t-37.5 -10.5zM302 -2q-30 0 -50.5 19.5t-20.5 49.5t20.5 49t50.5 19t50.5 -19t20.5 -49t-20 -49.5t-51 -19.5z
M1143 -2q-29 0 -48.5 20t-19.5 49q0 30 20 49t50 19q33 0 53 -23l-20 -24q-13 18 -33 18q-15 0 -25.5 -10.5t-10.5 -29.5q0 -10 5 -18q12 -19 32 -19q19 0 32 15l21 -21q-27 -25 -56 -25zM159 48v-47h-34v132h99v-27h-65v-30h59v-28h-59zM423 80v-79h-33v132h30l61 -79
l-1 79h33v-132h-30zM600 105v-104h-33v104h-40v28h114v-28h-41zM671 24l-9 -23h-35l56 132h35l56 -132h-36l-10 23h-57zM970 105v-104h-36v104h-38v28h112v-28h-38zM1057 133v-132h-34v132h34zM1242 24l-9 -23h-35l56 132h36l55 -132h-37l-9 23h-57zM302 27q16 0 26 12
t10 27q0 5 -5 20q-7 20 -30 20q-16 0 -26.5 -11.5t-10.5 -27.5t10.5 -28t25.5 -12zM717 50l-16 48l-20 -48h36zM1289 50l-18 48l-18 -48h36z" />
    <glyph glyph-name="_VendorID" horiz-adv-x="1123" vert-adv-y="2130" 
d="M779 772q-104 0 -168 53.5t-53 127.5h73q-16 -44 29.5 -78.5t118.5 -34.5q62 0 105 26.5t43 65.5q0 68 -155 91q-99 15 -150 54.5t-51 98.5q0 66 58 109.5t145 43.5q96 0 158 -51.5t50 -122.5h-74q17 40 -24.5 72.5t-109.5 32.5q-56 0 -94.5 -24t-38.5 -58q0 -66 140 -86
q106 -15 161.5 -56t55.5 -104q0 -69 -62.5 -114.5t-156.5 -45.5zM190 1016v-233h-70v535h413v-69h-343v-164h323v-69h-323zM780 143q-103 0 -168 53t-54 128h73q-16 -43 29.5 -77t118.5 -34q62 0 105 25.5t43 63.5q0 70 -152 93q-100 14 -152 53.5t-52 99.5q0 66 58.5 109.5
t145.5 43.5q96 0 157 -51.5t50 -122.5h-74q17 40 -24.5 72.5t-108.5 32.5q-56 0 -95 -24t-39 -59q0 -64 139 -84q218 -32 218 -162q0 -69 -62 -114.5t-156 -45.5zM190 387v-233h-70v535h413v-68h-343v-164h323v-70h-323zM392 98v-37h-12v37h-7v7l7 3v3q0 8 5 11q0 4 11 4
q9 0 13 -2l-4 -10q-3 1 -8 1q-3 0 -4 -1q-1 -2 -1 -4v-2h11v-10h-11zM695 113q-7 0 -7 6q0 7 7 7t7 -7q0 -4 -1 -5q-1 0 -3 -0.5t-3 -0.5zM536 60q-6 0 -12 4q-4 4 -4 12v22h-4v5l5 5l5 9h8v-9h13v-10h-13v-22q0 -2 2 -4q2 -1 4 -1q1 0 3.5 0.5t4.5 0.5v-10q-8 -2 -12 -2z
M668 60q-8 0 -12 4q-3 2 -3 12v22h-7v5l7 5l4 9h8v-9h14v-10h-14v-22q0 -3 2 -4l4 -1l8 1v-10q-4 -2 -11 -2zM568 60q-4 0 -10 4q-5 3 -5 11q0 7 7 11q2 2 16 4h6v2q0 7 -6 7t-13 -3l-5 9q12 4 19 4q4 0 14 -4q4 -4 4 -13v-31h-9l-2 5h-1q-1 0 -2.5 -2t-2.5 -2q-2 -2 -10 -2
zM771 60q-4 0 -12 4q-4 3 -4 11q0 7 6 11q1 2 16 4h8v2q0 7 -7 7q-6 0 -15 -3l-3 9q10 4 18 4q4 0 14 -4q5 -4 5 -13v-31h-10l-1 5h-1l-6 -4q-2 -2 -8 -2zM944 82v-21h-12v47h9l2 -6h1q1 2 4 4t9 2q12 0 15 -6h1q2 4 5 4q6 2 8 2q9 0 12 -3q5 -4 5 -14v-30h-13v28q0 3 -2 7
q-2 2 -6 2t-7 -3q-2 -4 -2 -11v-23h-13v28q0 3 -2 7q-1 2 -4 2q-6 0 -8 -3q-2 -6 -2 -13zM163 97l-8 -36h-14l-13 47h13l5 -20l3 -16q0 5 1 8l1 6l5 22h15l5 -22q1 -2 1 -4v-4q0 -1 1 -3v-3q0 3 2 7q0 2 0.5 5t0.5 4l7 20h12l-13 -47h-15l-4 16l-4 20h-1zM237 97l-10 -36
h-12l-14 47h13l5 -20q2 -12 2 -16h1q0 1 0.5 3.5t0.5 4.5l1 6l6 22h13l7 -22v-8v-1q1 -1 1 -2v-3q0 3 2 7q0 7 1 9l5 20h14l-15 -47h-13l-4 16zM310 97l-10 -36h-13l-12 47h12l5 -20q0 -3 1 -8t1 -8h1q0 2 2 8l1 6l4 22h16l4 -22v-2l1 -2q0 -1 1 -2v-2v-3q1 -2 1 -3q0 5 1 7
q0 2 0.5 5t0.5 4l7 20h12l-13 -47h-14l-4 16l-4 20h-1zM430 60q-7 0 -12 4q-4 1 -8 8q-1 4 -1 12q0 13 5 19q7 5 16 5t13 -2q6 -4 8 -9q2 -8 2 -13q0 -9 -6 -18q-5 -6 -17 -6zM477 82v-21h-14v47h10l2 -6h1q2 4 6 4q2 2 8 2q9 0 12 -4q5 -2 5 -13v-30h-13v28q0 5 -1 7
q-4 2 -8 2q-3 0 -6 -3q-2 -3 -2 -13zM621 60q-6 0 -8 1q-1 1 -3.5 1t-3.5 1v10q1 0 4 -0.5t4 -1.5q4 -2 7 -2q8 0 8 4v4q-2 0 -4 1q-1 0 -7 2t-6 4q-4 4 -4 5q-2 2 -2 6q0 7 6 10q3 3 13 3t16 -3l-4 -10q-1 1 -4 2l-3 1h-6q-6 0 -6 -2q0 -3 1 -3l10 -4l8 -3q1 -2 2.5 -3.5
t1.5 -2.5v-5q0 -8 -4 -11q-8 -4 -16 -4zM702 108v-47h-13v47h13zM734 60q-22 0 -22 23q0 12 5 20q7 5 18 5q8 0 14 -2l-3 -11q-4 2 -6 2q-1 0 -2 0.5t-3 0.5q-10 0 -10 -14q0 -13 10 -13q1 0 3 0.5t4 0.5q3 0 6 3v-11l-6 -3q-3 -1 -8 -1zM853 60q-21 0 -21 23q0 13 6 20
q7 5 17 5q3 0 15 -2l-5 -11q-2 2 -5 2q-1 0 -3 1h-2q-10 0 -10 -14q0 -13 10 -13q1 0 3 1h3q4 0 7 3v-11q-1 -1 -7 -3q-1 -1 -8 -1zM897 60q-7 0 -10 4q-7 2 -8 8q-3 6 -3 12q0 11 5 19q7 5 16 5q11 0 13 -2q7 -3 9 -9q2 -4 2 -13q0 -10 -7 -18q-6 -6 -17 -6zM430 71
q5 0 8 3q2 3 2 10q0 8 -2 11q-3 3 -8 3q-6 0 -7 -3q-2 -3 -2 -11q0 -7 2 -10q1 -3 7 -3zM897 71q7 0 9 3t2 10q0 8 -2 11t-9 3q-3 0 -6 -3q-2 -3 -2 -11q0 -7 2 -10q3 -3 6 -3zM574 69q3 0 6 3q2 4 2 6v4h-3q-8 -2 -10 -3q-1 0 -1 -4q0 -6 6 -6zM775 69l6 3q4 4 4 6v4h-6
q-5 -1 -7 -3q-3 0 -3 -4q0 -6 6 -6zM359 60q-4 0 -7 2v2l-1 2l1 6q6 2 7 2q3 0 5 -2q2 0 2 -6l-2 -4q-2 -2 -5 -2zM815 60q-3 0 -4 2l-2 4q0 6 2 6q2 2 4 2q3 0 7 -2q1 -3 1 -6l-1 -2v-2q-2 -2 -7 -2z" />
    </font>
</defs>
</svg>
