<?xml version="1.0" standalone="no"?>
<!DOCTYPE svg PUBLIC "-//W3C//DTD SVG 1.1//EN" "http://www.w3.org/Graphics/SVG/1.1/DTD/svg11.dtd" >
<svg xmlns="http://www.w3.org/2000/svg" xmlns:xlink="http://www.w3.org/1999/xlink" version="1.1">
<metadata>
Created by FontForge 20170731 at Wed Oct 20 22:58:10 2021
 By Aleksey,,,
Copyright (c) 2021 by Fontastica. All rights reserved.
</metadata>
<defs>
<font id="EinerGrotesk-HeavyItalic" horiz-adv-x="1403" vert-adv-y="2048" >
  <font-face 
    font-family="Einer Grotesk Heavy"
    font-weight="900"
    font-style="italic"
    font-stretch="normal"
    units-per-em="2048"
    panose-1="0 0 10 0 0 0 0 0 0 0"
    ascent="1638"
    descent="-410"
    x-height="970"
    cap-height="1390"
    bbox="49 -432 2664 1916"
    underline-thickness="50"
    underline-position="-150"
    slope="-9"
    unicode-range="U+000D-F8FF"
  />
<missing-glyph horiz-adv-x="1477" vert-adv-y="2130" 
d="M1464 1395l-222 -1400h-1009l222 1400h1009zM1120 1186h-387l148 -292zM1167 921l-185 -226l113 -227zM715 695l-113 224l-72 -450zM965 206l-146 290l-239 -290h385z" />
    <glyph glyph-name="t_t.liga" unicode="tt" horiz-adv-x="1203" vert-adv-y="2130" 
d="M692 197l-32 -201q-160 8 -257.5 101.5t-77.5 220.5l72 451h-150l32 201h150l66 418h202l-66 -418h215l66 418h202l-66 -418h167l-32 -201h-167l-72 -451q-7 -47 40.5 -82t124.5 -39l-32 -201q-160 8 -257.5 101.5t-77.5 220.5l72 451h-215l-72 -451q-7 -47 40.5 -82
t124.5 -39z" />
    <glyph glyph-name=".notdef" horiz-adv-x="1477" vert-adv-y="2130" 
d="M1464 1395l-222 -1400h-1009l222 1400h1009zM1120 1186h-387l148 -292zM1167 921l-185 -226l113 -227zM715 695l-113 224l-72 -450zM965 206l-146 290l-239 -290h385z" />
    <glyph glyph-name=".null" horiz-adv-x="0" vert-adv-y="0" 
 />
    <glyph glyph-name="nonmarkingreturn" horiz-adv-x="682" 
 />
    <glyph glyph-name="CR" unicode="&#xd;" horiz-adv-x="290" vert-adv-y="2130" 
 />
    <glyph glyph-name="space" unicode=" " horiz-adv-x="468" vert-adv-y="2130" 
 />
    <glyph glyph-name="exclam" unicode="!" horiz-adv-x="608" vert-adv-y="2130" 
d="M536 795l-94 -494h-180l62 494l83 526h212zM304 0q-49 0 -79 35.5t-22 84.5q7 49 48.5 84.5t90.5 35.5t79 -35.5t22 -84.5q-7 -49 -48.5 -84.5t-90.5 -35.5z" />
    <glyph glyph-name="quotedbl" unicode="&#x22;" horiz-adv-x="740" vert-adv-y="2130" 
d="M564 1367l-59 -369h-168l59 369h168zM778 1367l-59 -369h-168l59 369h168z" />
    <glyph glyph-name="numbersign" unicode="#" horiz-adv-x="1618" vert-adv-y="2130" 
d="M729 351l-94 -351h-203l95 351h-332l52 202h334l57 214h-331l52 202h334l96 352h203l-96 -352h198l96 352h203l-96 -352h333l-52 -202h-336l-57 -214h333l-52 -202h-336l-94 -351h-203l95 351h-199zM1039 767h-198l-57 -214h198z" />
    <glyph glyph-name="dollar" unicode="$" horiz-adv-x="1271" vert-adv-y="2130" 
d="M734 -20l-27 -168h-202l27 169q-184 28 -292.5 158t-91.5 305h205q-9 -100 50 -171.5t161 -89.5l65 411q-403 89 -358 369q23 149 154 252t322 126l27 167h202l-27 -169q168 -29 262.5 -152.5t77.5 -290.5h-203q7 90 -39 155t-130 84l-59 -372q210 -47 306 -144.5
t74 -241.5q-25 -156 -163 -264.5t-341 -132.5zM662 799l53 339q-99 -17 -164.5 -64t-75.5 -111q-9 -55 38.5 -96.5t148.5 -67.5zM825 557l-59 -373q110 18 183 70t84 123q9 60 -43 105.5t-165 74.5z" />
    <glyph glyph-name="percent" unicode="%" horiz-adv-x="1670" vert-adv-y="2130" 
d="M1734 1321l-1324 -1321h-265l1325 1321h264zM631 785q-111 0 -177 79t-48 189q17 111 108 189.5t202 78.5t177 -78.5t49 -189.5q-18 -110 -109 -189t-202 -79zM663 987q27 0 49.5 19.5t27.5 46.5q4 28 -12.5 47t-43.5 19t-49.5 -19t-26.5 -47q-4 -27 12 -46.5t43 -19.5z
M1164 0q-111 0 -177 78.5t-49 189.5q18 111 109 189.5t202 78.5q110 0 176.5 -78.5t48.5 -189.5q-17 -111 -108.5 -189.5t-201.5 -78.5zM1196 202q27 0 49.5 19.5t26.5 46.5t-12 46.5t-43 19.5q-28 0 -50.5 -19.5t-27.5 -46.5q-4 -27 12.5 -46.5t44.5 -19.5z" />
    <glyph glyph-name="ampersand" unicode="&#x26;" horiz-adv-x="1455" vert-adv-y="2130" 
d="M650 -9q-87 0 -160.5 23t-128 67t-79 116.5t-10.5 164.5q16 96 87.5 184.5t187.5 156.5q-99 140 -77 273q23 149 142.5 246.5t279.5 97.5q220 0 299 -164q34 -75 20 -160q-35 -220 -317 -347l205 -214q41 75 67 144h207q-72 -198 -139 -287l239 -249l-296 -12l-96 103
q-189 -143 -431 -143zM754 792l90 38q71 30 108 69t45 93q10 59 -27.5 95.5t-107.5 36.5t-119 -39t-59 -101q-7 -41 2 -74t39 -77l6 -8zM678 188q146 0 272 84l-273 291q-174 -81 -192 -199q-13 -82 38 -129t155 -47z" />
    <glyph glyph-name="quotesingle" unicode="'" horiz-adv-x="604" vert-adv-y="2130" 
d="M666 1320l-195 -349h-208l160 349h243z" />
    <glyph glyph-name="parenleft" unicode="(" horiz-adv-x="662" vert-adv-y="2130" 
d="M550 -44l-27 -168q-105 16 -179 141t-95 313.5t11 418.5q35 220 120 415.5t197 318t223 138.5l-27 -168q-88 -16 -177 -218t-134 -486t-20 -486.5t108 -218.5z" />
    <glyph glyph-name="parenright" unicode=")" horiz-adv-x="662" vert-adv-y="2130" 
d="M71 -212l27 168q88 16 177.5 218.5t134.5 486.5q45 283 19.5 485.5t-108.5 218.5l27 168q106 -16 180 -141t95 -313t-11 -418q-35 -221 -120 -416.5t-197 -318t-224 -138.5z" />
    <glyph glyph-name="asterisk" unicode="*" horiz-adv-x="871" vert-adv-y="2130" 
d="M676 919l-12 -74h-189l12 74l-69 -36l-69 162l71 38l-59 38l120 162l58 -36l11 74h189l-11 -74l68 36l70 -162l-71 -38l59 -38l-121 -162z" />
    <glyph glyph-name="plus" unicode="+" horiz-adv-x="1096" vert-adv-y="2130" 
d="M727 493l-48 -304h-202l48 304h-304l32 202h304l48 304h202l-48 -304h304l-32 -202h-304z" />
    <glyph glyph-name="comma" unicode="," horiz-adv-x="630" vert-adv-y="2130" 
d="M509 249l-195 -349h-208l160 349h243z" />
    <glyph glyph-name="hyphen" unicode="-" horiz-adv-x="1046" vert-adv-y="2130" 
d="M962 636l-32 -202h-676l32 202h676z" />
    <glyph glyph-name="period" unicode="." horiz-adv-x="572" vert-adv-y="2130" 
d="M286 6q-49 0 -79 35.5t-22 84.5q7 49 48.5 84.5t90.5 35.5t79 -35.5t22 -84.5q-7 -49 -48.5 -84.5t-90.5 -35.5z" />
    <glyph glyph-name="slash" unicode="/" horiz-adv-x="995" vert-adv-y="2130" 
d="M1082 1388l-747 -1455h-215l747 1455h215z" />
    <glyph glyph-name="zero" unicode="0" horiz-adv-x="1371" vert-adv-y="2130" 
d="M685 -2q-107 0 -192.5 35.5t-140.5 99.5t-89.5 151t-39 190.5t11.5 219.5q31 193 118.5 348.5t231.5 250.5t320 95q107 0 192.5 -35.5t140.5 -99t90 -151t39.5 -190.5t-11.5 -218q-23 -144 -80 -270t-141.5 -221t-200.5 -150t-249 -55zM717 202q114 0 208 69t150.5 178.5
t78.5 244.5q21 134 -1 243t-94 178t-186 69t-208 -69t-150.5 -178t-77.5 -243q-22 -135 0 -244.5t94 -178.5t186 -69z" />
    <glyph glyph-name="one" unicode="1" horiz-adv-x="753" vert-adv-y="2130" 
d="M848 1388l-220 -1388h-201l174 1101l-172 -121l-118 145l380 263h157z" />
    <glyph glyph-name="two" unicode="2" horiz-adv-x="1237" vert-adv-y="2130" 
d="M1161 209l-33 -209h-1017l22 139q9 56 29 107.5t52 97.5t66.5 85.5t84.5 78.5t92.5 69t104 65.5t105 59t108.5 56.5l50 25q144 73 192.5 111t58.5 100q14 88 -67 137.5t-201 49.5h-2q-73 -1 -143 -29t-126 -87.5t-73 -139.5h-208q22 112 81 202t139.5 146t173 86
t188.5 30h2q99 0 185 -25t150.5 -72.5t95 -124.5t14.5 -173q-6 -35 -15 -65t-18.5 -55t-29 -49t-34 -41.5t-46 -40t-52.5 -37t-65.5 -39t-73.5 -39.5t-88 -45l-52 -26q-74 -38 -106 -55.5t-100 -58.5t-105 -71t-77.5 -74.5t-60.5 -88.5h799z" />
    <glyph glyph-name="three" unicode="3" horiz-adv-x="1307" vert-adv-y="2130" 
d="M655 0q-228 0 -354 132t-101 343h201q-13 -123 65.5 -197.5t220.5 -74.5q146 0 244.5 56.5t112.5 147.5q14 82 -56.5 143.5t-204.5 62.5h-11l-168 -3l30 194l167 -3h11q129 0 212.5 57.5t95.5 135.5q14 86 -62.5 139.5t-214.5 53.5q-134 0 -231 -71.5t-121 -188.5h-199
q41 204 202.5 332t380.5 128q226 0 349 -109t95 -284q-13 -81 -62 -154t-123 -126q144 -112 112 -307q-19 -119 -100 -212t-209 -144t-282 -51z" />
    <glyph glyph-name="four" unicode="4" horiz-adv-x="1351" vert-adv-y="2130" 
d="M1077 306l-48 -306h-202l48 306h-702l27 166l883 916h166l-138 -871h197l-34 -211h-197zM909 517l79 500l-478 -500h399z" />
    <glyph glyph-name="five" unicode="5" horiz-adv-x="1294" vert-adv-y="2130" 
d="M642 0h-25q-183 14 -293 143.5t-119 341.5h204q10 -115 76 -184.5t173 -79.5h19q146 0 247 74t120 194q19 116 -59.5 191t-220.5 78q-53 -1 -94 -6.5t-90 -21t-92.5 -49t-77.5 -84.5l-154 16l1 4h-1l2 8l215 763h839l-33 -207h-664l-71 -254q113 44 252 46
q107 0 196.5 -31t153 -90t91.5 -152.5t9 -210.5q-34 -217 -202.5 -353t-401.5 -136z" />
    <glyph glyph-name="six" unicode="6" horiz-adv-x="1294" vert-adv-y="2130" 
d="M640 -4q-229 4 -351 137.5t-88 343.5l34 217q56 350 212 521.5t424 172.5q209 -3 314.5 -109.5t113.5 -321.5h-210q-13 108 -72.5 167.5t-181.5 59.5q-144 0 -229 -83t-129 -230q139 78 320 81q232 0 356.5 -132t91.5 -343q-34 -213 -202.5 -347t-402.5 -134zM681 213
q143 5 243 77.5t119 186.5q18 114 -60 186.5t-219 77.5q-143 -5 -243 -77.5t-118 -186.5q-19 -114 59 -186.5t219 -77.5z" />
    <glyph glyph-name="seven" unicode="7" horiz-adv-x="1270" vert-adv-y="2130" 
d="M1340 1232l-711 -1232h-221l679 1176h-776l34 212h1020z" />
    <glyph glyph-name="eight" unicode="8" horiz-adv-x="1304" vert-adv-y="2130" 
d="M652 0q-233 0 -362 113.5t-101 293.5q33 200 211 306q-126 103 -97 282q27 174 185 283.5t384 109.5q225 0 348.5 -109.5t96.5 -283.5q-29 -177 -192 -282q150 -110 118 -306q-29 -180 -193.5 -293.5t-397.5 -113.5zM779 805h17q130 0 219 53t103 137q14 86 -63 139.5
t-215 53.5t-231 -53.5t-107 -139.5t62.5 -138t214.5 -52zM684 203q146 0 244.5 56.5t112.5 147.5q15 91 -61.5 147t-212.5 56h-18q-146 0 -244.5 -55.5t-113.5 -147.5q-14 -91 66.5 -147.5t226.5 -56.5z" />
    <glyph glyph-name="nine" unicode="9" horiz-adv-x="1294" vert-adv-y="2130" 
d="M643 0q-209 3 -314.5 109.5t-113.5 321.5h210q13 -108 72.5 -167.5t181.5 -59.5q144 0 229 83t129 230q-139 -78 -320 -81q-232 0 -356.5 132t-91.5 343q34 213 202 347t402 134q229 -4 351.5 -137.5t88.5 -343.5l-34 -217q-56 -350 -212 -521.5t-424 -172.5zM749 647
q143 5 243.5 77.5t118.5 186.5q19 114 -59 186.5t-219 77.5q-143 -5 -243 -77.5t-119 -186.5q-18 -114 59.5 -186.5t218.5 -77.5z" />
    <glyph glyph-name="colon" unicode=":" horiz-adv-x="572" vert-adv-y="2130" 
d="M378 596q-49 0 -79 35.5t-22 84.5t49 84.5t90 35.5t79 -35.5t22 -84.5q-7 -49 -48.5 -84.5t-90.5 -35.5zM284 0q-49 0 -79 35.5t-22 84.5q7 49 48.5 84.5t90.5 35.5t79 -35.5t22 -84.5q-7 -49 -48.5 -84.5t-90.5 -35.5z" />
    <glyph glyph-name="semicolon" unicode=";" horiz-adv-x="625" vert-adv-y="2130" 
d="M397 596q-49 0 -79.5 35.5t-22.5 84.5t49.5 84.5t90.5 35.5t79 -35.5t22 -84.5q-7 -49 -48.5 -84.5t-90.5 -35.5zM496 249l-195 -349h-208l160 349h243z" />
    <glyph glyph-name="less" unicode="&#x3c;" horiz-adv-x="1039" vert-adv-y="2130" 
d="M488 589l427 -256l-37 -230l-678 409l25 155l807 409l-36 -230z" />
    <glyph glyph-name="equal" unicode="=" horiz-adv-x="1129" vert-adv-y="2130" 
d="M1067 828l-32 -201h-743l32 201h743zM1025 561l-32 -202h-743l32 202h743z" />
    <glyph glyph-name="greater" unicode="&#x3e;" horiz-adv-x="1039" vert-adv-y="2130" 
d="M1026 667l-25 -155l-808 -409l37 230l507 256l-426 257l36 230z" />
    <glyph glyph-name="question" unicode="?" horiz-adv-x="1197" vert-adv-y="2130" 
d="M689 402l-25 -153h-205l28 154q11 64 23 101.5t38.5 68t54.5 49t88 50.5q77 41 140 80q180 111 196 211q12 79 -62.5 131t-199.5 52q-114 0 -196.5 -68t-106.5 -182h-201q41 203 188.5 327.5t347.5 124.5q138 0 243 -50.5t155.5 -138.5t33.5 -196q-10 -65 -44 -126
t-77.5 -107t-106 -91.5t-115.5 -76.5t-120 -64q-29 -14 -40.5 -21.5t-21.5 -25.5t-15 -49zM522 1q-49 0 -78 34.5t-21 83.5q7 49 47.5 83.5t89.5 34.5t78 -34.5t21 -83.5q-7 -49 -47.5 -83.5t-89.5 -34.5z" />
    <glyph glyph-name="at" unicode="@" horiz-adv-x="1658" vert-adv-y="2130" 
d="M834 -25h-2q-186 0 -329.5 92.5t-210.5 251t-38 345.5q30 187 147 345.5t290.5 251t360.5 92.5t333 -94t212 -257q64 -156 35 -338l-23 -144q-16 -102 -93 -175t-176 -81q-123 -9 -180 86q-118 -94 -298 -94q-159 0 -257.5 92.5t-77.5 223.5l29 188q21 131 148.5 223.5
t286.5 92.5q60 0 120.5 -21t105.5 -57l6 39h149l-88 -545q-7 -41 10 -62.5t54 -19.5q41 2 73 33t39 77l23 144q22 139 -27 265q-51 127 -166 201t-261 74q-147 0 -283 -72.5t-228 -196.5t-115 -271q-17 -110 9.5 -209.5t87.5 -172t154 -115.5t203 -43q182 0 336 106
l-27 -176q-166 -79 -332 -79zM886 404q108 0 176.5 45t88.5 129l29 189q5 67 -56 114t-156 47q-97 0 -175 -50.5t-89 -117.5l-29 -188q-11 -67 51 -117t160 -51z" />
    <glyph glyph-name="A" unicode="A" horiz-adv-x="1658" vert-adv-y="2130" 
d="M595 353l-236 -353h-225l915 1388l475 -1388h-224l-125 353h-580zM1112 555l-133 390l-257 -390h390z" />
    <glyph glyph-name="B" unicode="B" horiz-adv-x="1412" vert-adv-y="2130" 
d="M887 0h-762l220 1390h718q166 0 264 -116t72 -282q-25 -159 -156 -275q63 -55 92.5 -139.5t14.5 -179.5q-17 -109 -85 -200.5t-168.5 -144.5t-209.5 -53zM1031 1186h-514l-62 -389h514q81 0 147 57t79 138t-35 137.5t-129 56.5zM981 593h-558l-62 -389h558
q82 0 147.5 56.5t78.5 137.5t-35 138t-129 57z" />
    <glyph glyph-name="C" unicode="C" horiz-adv-x="1624" vert-adv-y="2130" 
d="M844 -28q-147 0 -272 57t-206.5 154t-117.5 231t-13 281t101.5 281t190.5 231t255.5 154t290.5 57q184 0 338.5 -103t244.5 -285l-184 -120q-71 142 -186 223t-246 81q-141 0 -271 -69.5t-218.5 -189t-111.5 -260.5q-22 -141 28.5 -260.5t159 -189t249.5 -69.5
q131 0 271 80.5t256 223.5l146 -120q-147 -182 -334 -285t-371 -103z" />
    <glyph glyph-name="D" unicode="D" horiz-adv-x="1463" vert-adv-y="2130" 
d="M643 0h-518l220 1390h518q141 0 261.5 -55t198.5 -148t112.5 -222t12.5 -270q-30 -189 -148.5 -349t-293 -253t-363.5 -93zM831 1186h-314l-156 -982h314q133 0 256.5 65.5t207.5 179t105 246.5q16 100 -8.5 191t-80 156.5t-140 104.5t-184.5 39z" />
    <glyph glyph-name="E" unicode="E" horiz-adv-x="1327" vert-adv-y="2130" 
d="M1234 204l-32 -204h-1077l220 1390h1077l-32 -204h-873l-62 -389h820l-32 -204h-820l-62 -389h873z" />
    <glyph glyph-name="F" unicode="F" horiz-adv-x="1327" vert-adv-y="2130" 
d="M423 593l-94 -593h-204l220 1390h1077l-32 -204h-873l-62 -389h820l-32 -204h-820z" />
    <glyph glyph-name="G" unicode="G" horiz-adv-x="1619" vert-adv-y="2130" 
d="M844 -28q-147 0 -272 57t-206.5 154t-117.5 231t-13 281t101.5 281t190.5 231t255.5 154t290.5 57q184 0 338.5 -103t244.5 -285l-184 -120q-71 142 -186 223t-246 81q-141 0 -271 -69.5t-218.5 -189t-111.5 -260.5q-22 -141 28.5 -260.5t159 -189t249.5 -69.5
q122 0 240.5 55t208.5 153l30 193h-544l33 204h748l-72 -457q-131 -164 -310.5 -258t-365.5 -94z" />
    <glyph glyph-name="H" unicode="H" vert-adv-y="2130" 
d="M423 593l-94 -593h-204l220 1390h204l-94 -593h744l94 593h205l-220 -1390h-205l94 593h-744z" />
    <glyph glyph-name="I" unicode="I" horiz-adv-x="454" vert-adv-y="2130" 
d="M549 1390l-220 -1390h-204l220 1390h204z" />
    <glyph glyph-name="J" unicode="J" horiz-adv-x="1361" vert-adv-y="2130" 
d="M656 -28q-148 0 -274 88t-203 244l192 102q55 -108 139 -169t178 -61q154 0 280 109t151 263l133 842h204l-133 -842q-25 -156 -123 -289t-243 -210t-301 -77z" />
    <glyph glyph-name="K" unicode="K" horiz-adv-x="1481" vert-adv-y="2130" 
d="M403 470l-74 -470h-204l220 1390h204l-102 -643l809 643h306l-709 -563l464 -827h-252l-385 689z" />
    <glyph glyph-name="L" unicode="L" horiz-adv-x="1327" vert-adv-y="2130" 
d="M1234 204l-32 -204h-1077l220 1390h204l-188 -1186h873z" />
    <glyph glyph-name="M" unicode="M" horiz-adv-x="1630" vert-adv-y="2130" 
d="M462 846l-133 -846h-204l220 1388h131l403 -982l715 982h131l-220 -1388h-204l135 846l-620 -846z" />
    <glyph glyph-name="N" unicode="N" vert-adv-y="2130" 
d="M471 896l-142 -896h-204l220 1391l812 -861l136 860h205l-220 -1390z" />
    <glyph glyph-name="O" unicode="O" horiz-adv-x="1696" vert-adv-y="2130" 
d="M844 -28q-147 0 -272 57t-206.5 154t-117.5 231t-13 281t101.5 281t190.5 231t255.5 154t290.5 57t272 -57t206 -154t117 -231t13 -281q-31 -197 -154 -363.5t-304.5 -263t-378.5 -96.5zM876 176q215 0 391 152t210 367q23 141 -27.5 260.5t-159.5 189t-250 69.5
t-271 -69.5t-218.5 -189t-111.5 -260.5q-22 -141 28.5 -260.5t159 -189t249.5 -69.5z" />
    <glyph glyph-name="P" unicode="P" horiz-adv-x="1412" vert-adv-y="2130" 
d="M400 450l-71 -450h-204l220 1390h691q128 0 226.5 -62.5t144.5 -171t26 -236.5q-21 -128 -101 -236.5t-198.5 -171t-246.5 -62.5h-487zM1004 1186h-487l-84 -531h487q110 0 200.5 77.5t107.5 187.5t-48.5 188t-175.5 78z" />
    <glyph glyph-name="Q" unicode="Q" horiz-adv-x="1724" vert-adv-y="2130" 
d="M1479 274l138 -161l-170 -146l-133 159q-222 -154 -470 -154q-147 0 -272 57t-206.5 154t-117.5 231t-13 281t101.5 281t190.5 231t255.5 154t290.5 57t272 -57t206 -154t117 -231t13 -281q-36 -232 -202 -421zM876 176q164 0 315 96l-125 147l165 149l125 -148
q98 128 121 275q23 141 -27.5 260.5t-159.5 189t-250 69.5t-271 -69.5t-218.5 -189t-111.5 -260.5q-22 -141 28.5 -260.5t159 -189t249.5 -69.5z" />
    <glyph glyph-name="R" unicode="R" horiz-adv-x="1454" vert-adv-y="2130" 
d="M400 451l-71 -451h-204l220 1390h691q128 0 226.5 -63t144.5 -171t26 -236q-23 -144 -121.5 -261.5t-237.5 -171.5l255 -487h-247l-237 451h-445zM1004 1186h-487l-84 -531h513q104 11 185 86.5t97 178.5q17 110 -48.5 188t-175.5 78z" />
    <glyph glyph-name="S" unicode="S" horiz-adv-x="1405" vert-adv-y="2130" 
d="M701 -28q-114 0 -212.5 38t-165.5 103.5t-101 156t-24 191.5h207q-10 -120 84.5 -202.5t243.5 -82.5q159 0 273 62t129 156q13 80 -73.5 135.5t-268.5 83.5q-257 40 -373.5 140.5t-91.5 261.5q28 176 197.5 289.5t404.5 113.5q142 0 254 -62.5t169.5 -170.5t44.5 -237
h-207q11 112 -74.5 189t-219.5 77q-144 0 -246.5 -56t-115.5 -143q-12 -73 68 -124.5t239 -74.5q277 -41 402 -147.5t98 -274.5q-29 -182 -210.5 -302t-430.5 -120z" />
    <glyph glyph-name="T" unicode="T" horiz-adv-x="1463" vert-adv-y="2130" 
d="M1022 1186l-188 -1186h-205l188 1186h-504l32 204h1213l-32 -204h-504z" />
    <glyph glyph-name="U" unicode="U" vert-adv-y="2130" 
d="M697 -28q-117 0 -216.5 45.5t-164.5 123t-94 184t-10 223.5l133 842h204l-133 -842q-25 -154 67 -263t246 -109t280 109t151 263l133 842h205l-133 -842q-19 -117 -81.5 -223.5t-152 -184t-203.5 -123t-231 -45.5z" />
    <glyph glyph-name="V" unicode="V" horiz-adv-x="1658" vert-adv-y="2130" 
d="M1519 1390h225l-915 -1390l-475 1390h225l322 -935z" />
    <glyph glyph-name="W" unicode="W" horiz-adv-x="2225" vert-adv-y="2130" 
d="M2097 1388h214l-780 -1388l-253 1044l-584 -1043l-340 1387h215l210 -850l478 850h151l209 -850z" />
    <glyph glyph-name="X" unicode="X" horiz-adv-x="1712" vert-adv-y="2130" 
d="M940 533l-527 -533h-271l689 695l-469 695h271l359 -533l527 533h271l-689 -695l469 -695h-271z" />
    <glyph glyph-name="Y" unicode="Y" horiz-adv-x="1681" vert-adv-y="2130" 
d="M1027 534l-85 -534h-204l85 534l-464 856h251l347 -649l553 649h252z" />
    <glyph glyph-name="Z" unicode="Z" horiz-adv-x="1704" vert-adv-y="2130" 
d="M1461 204l-32 -204h-1287l1174 1186h-834l32 204h1268l-1173 -1186h852z" />
    <glyph glyph-name="bracketleft" unicode="[" horiz-adv-x="678" vert-adv-y="2130" 
d="M597 1l-32 -201h-402l273 1722h402l-32 -202h-200l-209 -1319h200z" />
    <glyph glyph-name="backslash" unicode="\" horiz-adv-x="995" vert-adv-y="2130" 
d="M568 1388l285 -1455h-215l-285 1455h215z" />
    <glyph glyph-name="bracketright" unicode="]" horiz-adv-x="678" vert-adv-y="2130" 
d="M724 1522l-273 -1722h-402l32 201h200l209 1319h-200l32 202h402z" />
    <glyph glyph-name="asciicircum" unicode="^" horiz-adv-x="1190" vert-adv-y="2130" 
d="M761 1048l-243 -336h-231l439 609h156l247 -609h-231z" />
    <glyph glyph-name="underscore" unicode="_" horiz-adv-x="1203" vert-adv-y="2130" 
d="M1059 118l-32 -202h-877l32 202h877z" />
    <glyph glyph-name="grave" unicode="`" horiz-adv-x="991" vert-adv-y="2130" 
d="M637 1401l296 -275l-154 -154l-294 274z" />
    <glyph glyph-name="a" unicode="a" horiz-adv-x="1047" vert-adv-y="2130" 
d="M520 -17q-164 0 -265.5 97.5t-79.5 234.5q15 94 90 171t180 118.5t214 41.5h162q1 60 -41.5 92.5t-119.5 31.5q-66 -1 -127.5 -43.5t-91.5 -107.5h-205q51 151 179.5 252t275.5 101h2q181 0 267 -94t59 -263l-97 -615h-202l8 49q-82 -66 -208 -66zM552 185q79 0 142 36.5
t75 88.5l21 134h-163q-96 0 -169 -37.5t-81 -91.5q-9 -54 42.5 -92t132.5 -38z" />
    <glyph glyph-name="b" unicode="b" horiz-adv-x="1154" vert-adv-y="2130" 
d="M578 -17q-40 0 -64 2t-61 10.5t-65 31.5t-47 59l-14 -86h-202l220 1388h202l-77 -484q125 83 267 83q192 0 297.5 -143.5t71.5 -358.5q-35 -215 -185.5 -358.5t-342.5 -143.5zM610 185q108 0 194 86t106 214q20 129 -38.5 214.5t-166.5 85.5t-193.5 -85.5t-105.5 -214.5
q-20 -128 38 -214t166 -86z" />
    <glyph glyph-name="c" unicode="c" horiz-adv-x="1168" vert-adv-y="2130" 
d="M599 -17q-101 0 -183.5 38.5t-135 105t-74 159.5t-4.5 199q34 215 192.5 358.5t363.5 143.5q121 0 224 -72.5t168 -202.5l-186 -112q-44 87 -107 136t-131 49q-118 0 -210 -85.5t-112 -214.5q-20 -128 44.5 -214t182.5 -86q68 0 146.5 49t150.5 137l150 -112
q-106 -131 -232 -203.5t-247 -72.5z" />
    <glyph glyph-name="d" unicode="d" horiz-adv-x="1154" vert-adv-y="2130" 
d="M570 -17q-192 0 -297 143.5t-71 358.5t184.5 358.5t342.5 143.5q144 0 241 -83l77 484h202l-220 -1388h-202l14 86q-31 -36 -66.5 -59t-75.5 -31.5t-64.5 -10.5t-64.5 -2zM602 185q108 0 194 86t106 214q20 129 -38.5 214.5t-166.5 85.5t-193.5 -85.5t-105.5 -214.5
q-20 -128 38 -214t166 -86z" />
    <glyph glyph-name="e" unicode="e" horiz-adv-x="1205" vert-adv-y="2130" 
d="M599 -17q-101 0 -183.5 38.5t-135 105t-74 159.5t-4.5 199q34 215 192.5 358.5t363.5 143.5q194 0 304.5 -153t87.5 -388h-747q0 -127 59.5 -194t168.5 -67q77 0 153 54t136 148l182 -64q-92 -157 -226.5 -248.5t-276.5 -91.5zM451 619h497q-21 76 -80.5 121t-141.5 45
q-83 0 -156.5 -45t-118.5 -121z" />
    <glyph glyph-name="f" unicode="f" horiz-adv-x="769" vert-adv-y="2130" 
d="M582 769l-122 -769h-201l122 769h-134l32 201h134l15 95q20 127 146.5 220.5t289.5 102.5l-32 -202q-78 -5 -137 -40t-66 -81l-15 -95h162l-32 -201h-162z" />
    <glyph glyph-name="g" unicode="g" horiz-adv-x="1146" vert-adv-y="2130" 
d="M535 -359q-144 0 -245.5 93t-139.5 261h213q25 -73 78.5 -112.5t126.5 -39.5q106 0 180 60t90 161q-124 -83 -268 -83q-192 0 -297.5 143t-71.5 359q35 215 185.5 358.5t342.5 143.5q86 0 142.5 -22.5t94.5 -91.5l16 101h202l-142 -896q-32 -198 -170 -316.5t-337 -118.5
zM602 183q108 0 193.5 85.5t105.5 214.5q21 128 -37.5 214t-166.5 86q-107 0 -192.5 -86t-106.5 -214q-20 -129 38.5 -214.5t165.5 -85.5z" />
    <glyph glyph-name="h" unicode="h" horiz-adv-x="1014" vert-adv-y="2130" 
d="M427 624l-99 -624h-203l220 1388h202l-71 -446q92 45 187 45q159 0 253 -111.5t69 -270.5l-96 -605h-202l96 605q12 75 -32.5 127.5t-119.5 52.5q-70 0 -128.5 -46.5t-75.5 -114.5z" />
    <glyph glyph-name="i" unicode="i" horiz-adv-x="490" vert-adv-y="2130" 
d="M416 1081q-49 0 -79 35.5t-22 84.5t49 84.5t90 35.5t79 -35.5t22 -84.5q-7 -49 -48.5 -84.5t-90.5 -35.5zM500 970l-154 -970h-202l154 970h202z" />
    <glyph glyph-name="j" unicode="j" horiz-adv-x="779" vert-adv-y="2130" 
d="M706 1083q-49 0 -79.5 36t-22.5 85q7 49 48.5 85t91.5 36q49 0 78.5 -36t22.5 -85q-8 -49 -49 -85t-90 -36zM57 -432l36 202q137 4 228 66.5t110 163.5l154 974h204l-153 -967q-31 -195 -188.5 -314.5t-390.5 -124.5z" />
    <glyph glyph-name="k" unicode="k" horiz-adv-x="1139" vert-adv-y="2130" 
d="M376 309l-49 -310h-202l269 1701h202l-176 -1113l456 383h276l-497 -424l309 -547h-244l-227 409z" />
    <glyph glyph-name="l" unicode="l" horiz-adv-x="452" vert-adv-y="2130" 
d="M547 1388l-220 -1388h-202l220 1388h202z" />
    <glyph glyph-name="m" unicode="m" horiz-adv-x="1449" vert-adv-y="2130" 
d="M416 605l-96 -605h-195l154 972h195l-13 -80q40 45 97.5 69t117.5 23q65 -1 116.5 -29.5t71.5 -80.5q118 113 268 113q145 0 229 -111.5t59 -270.5l-96 -605h-195l96 605q12 76 -24.5 130t-99.5 54q-60 0 -112 -50t-68 -121l-98 -618h-196l98 618q7 71 -29.5 121
t-96.5 50q-64 0 -117.5 -54t-65.5 -130z" />
    <glyph glyph-name="n" unicode="n" horiz-adv-x="1014" vert-adv-y="2130" 
d="M424 607l-96 -607h-203l154 971h202l-11 -65q75 56 156.5 72t150 -7.5t121.5 -72.5t77 -127t10 -166l-96 -605h-202l96 605q12 75 -32.5 127.5t-119.5 52.5q-73 0 -134 -52.5t-73 -125.5z" />
    <glyph glyph-name="o" unicode="o" horiz-adv-x="1204" vert-adv-y="2130" 
d="M599 -17q-101 0 -183.5 38.5t-135 105t-74 159.5t-4.5 199q34 215 192.5 358.5t363.5 143.5q101 0 183.5 -38.5t135 -105t74.5 -159.5t5 -199q-35 -215 -193.5 -358.5t-363.5 -143.5zM631 185q118 0 210.5 86t112.5 214q20 129 -45 214.5t-183 85.5t-210 -85.5
t-112 -214.5q-20 -128 44.5 -214t182.5 -86z" />
    <glyph glyph-name="p" unicode="p" horiz-adv-x="1154" vert-adv-y="2130" 
d="M737 986q192 0 297.5 -143.5t71.5 -358.5q-35 -215 -185.5 -358.5t-342.5 -143.5q-142 0 -241 83l-78 -495h-202l221 1399h202l-13 -86q31 36 66 59t75 31.5t64.5 10.5t64.5 2zM705 784q-108 0 -193.5 -86t-105.5 -214q-21 -129 37.5 -214.5t166.5 -85.5t193.5 85.5
t106.5 214.5q20 128 -38.5 214t-166.5 86z" />
    <glyph glyph-name="q" unicode="q" horiz-adv-x="1154" vert-adv-y="2130" 
d="M729 986q32 0 50 -0.5t50 -6t53.5 -15.5t45 -30.5t39.5 -50.5l13 86h202l-221 -1399h-202l78 495q-124 -83 -267 -83q-192 0 -297 143.5t-71 358.5t184.5 358.5t342.5 143.5zM697 784q-108 0 -193.5 -86t-105.5 -214q-21 -129 37.5 -214.5t166.5 -85.5t193.5 85.5
t106.5 214.5q20 128 -38.5 214t-166.5 86z" />
    <glyph glyph-name="r" unicode="r" horiz-adv-x="773" vert-adv-y="2130" 
d="M424 605l-96 -605h-203l154 971l202 1l-10 -61q77 57 159 67.5t171 -13.5l-34 -211q-58 31 -136 31q-73 0 -134.5 -53t-72.5 -127z" />
    <glyph glyph-name="s" unicode="s" horiz-adv-x="1086" vert-adv-y="2130" 
d="M543 -17q-171 0 -273 106.5t-88 269.5h203q-6 -83 53 -128.5t137 -45.5q81 0 151 28t78 78q2 15 -3 27t-20 22t-31.5 18t-44.5 15.5t-50.5 13t-58.5 12.5q-38 8 -68 15t-60.5 16t-53.5 18t-45.5 20.5t-38.5 24t-30 28t-22 33.5t-13 39t-5 45.5t5 53.5q20 128 144 211.5
t293 83.5q162 0 258 -102.5t83 -259.5h-202q4 71 -44 115.5t-127 44.5q-73 0 -133.5 -24.5t-67.5 -68.5q-6 -36 39 -56t145 -38q98 -19 162.5 -40.5t115 -56t69 -86.5t7.5 -124q-21 -133 -153 -220.5t-311 -87.5z" />
    <glyph glyph-name="t" unicode="t" horiz-adv-x="786" vert-adv-y="2130" 
d="M692 197l-32 -201q-160 8 -257.5 101.5t-77.5 220.5l72 451h-150l32 201h150l66 418h202l-66 -418h167l-32 -201h-167l-72 -451q-7 -47 40.5 -82t124.5 -39z" />
    <glyph glyph-name="u" unicode="u" horiz-adv-x="1014" vert-adv-y="2130" 
d="M744 365l96 607h203l-154 -971h-202l10 65q-74 -56 -155.5 -72t-150 7.5t-121.5 72.5t-77 127t-10 166l96 605h202l-96 -605q-12 -75 32.5 -127.5t119.5 -52.5q73 0 134 52.5t73 125.5z" />
    <glyph glyph-name="v" unicode="v" horiz-adv-x="1254" vert-adv-y="2130" 
d="M1051 970h223l-647 -970l-339 970h223l183 -547z" />
    <glyph glyph-name="w" unicode="w" horiz-adv-x="1560" vert-adv-y="2130" 
d="M1042 0l-157 654l-365 -654l-235 970h206l110 -461l259 461h149l113 -461l257 461h204z" />
    <glyph glyph-name="x" unicode="x" horiz-adv-x="1289" vert-adv-y="2130" 
d="M695 320l-295 -320h-260l455 485l-301 485h260l193 -320l296 320h260l-455 -485l301 -485h-260z" />
    <glyph glyph-name="y" unicode="y" horiz-adv-x="1254" vert-adv-y="2130" 
d="M1274 970l-873 -1400h-212l354 564l-255 836h223l175 -599l365 599h223z" />
    <glyph glyph-name="z" unicode="z" horiz-adv-x="1047" vert-adv-y="2130" 
d="M954 202l-32 -202h-797l25 158l598 611h-468l32 201h764l-25 -158l-599 -610h502z" />
    <glyph glyph-name="braceleft" unicode="{" horiz-adv-x="716" vert-adv-y="2130" 
d="M635 1l-32 -201h-168q-97 0 -154.5 68.5t-42.5 165.5l78 493q2 13 -6 23t-21 10h-101l32 201h101q13 0 24.5 9.5t13.5 23.5l78 493q15 97 94.5 166t176.5 69h168l-32 -202h-168q-13 0 -24.5 -9.5t-13.5 -23.5l-78 -493q-12 -74 -63 -134q32 -62 20 -133l-78 -493
q-2 -14 6.5 -23.5t21.5 -9.5h168z" />
    <glyph glyph-name="bar" unicode="|" horiz-adv-x="592" vert-adv-y="2130" 
d="M643 1555l-288 -1822h-202l288 1822h202z" />
    <glyph glyph-name="braceright" unicode="}" horiz-adv-x="716" vert-adv-y="2130" 
d="M217 -200h-168l32 201h168q14 0 25 10t12 23l78 493q13 74 64 133q-33 60 -21 134l78 493q2 14 -6 23.5t-21 9.5h-168l32 202h168q97 0 154.5 -69t42.5 -166l-78 -493q-2 -13 6 -23t22 -10h101l-32 -201h-101q-13 0 -25 -10t-14 -23l-78 -493q-15 -97 -94.5 -165.5
t-176.5 -68.5z" />
    <glyph glyph-name="asciitilde" unicode="~" horiz-adv-x="1257" vert-adv-y="2130" 
d="M560 745l-108 -95l-121 143l110 94h-1q107 92 216 92q112 0 191 -93l-1 1q30 -34 56 -34q27 0 67 34l109 95l121 -143l-111 -94q-107 -92 -216 -92q-111 0 -189 92q-31 34 -57 34t-66 -34z" />
    <glyph glyph-name="exclamdown" unicode="&#xa1;" horiz-adv-x="608" vert-adv-y="2130" 
d="M475 1081q-49 0 -79 35.5t-22 84.5t49 84.5t90 35.5t79 -35.5t22 -84.5q-7 -49 -48.5 -84.5t-90.5 -35.5zM493 527l-83 -527h-212l83 527l95 493h180z" />
    <glyph glyph-name="cent" unicode="&#xa2;" horiz-adv-x="1142" vert-adv-y="2130" 
d="M672 -8l-18 -109h-202l19 114q-161 35 -239 168.5t-49 319.5t149.5 319.5t292.5 169.5l18 113h202l-17 -110q92 -22 171 -90.5t132 -174.5l-186 -112q-72 143 -150 170l-90 -565q105 45 204 166l150 -112q-91 -112 -191.5 -181t-195.5 -86zM504 209l88 553
q-80 -35 -136 -109t-71 -168t17.5 -168t101.5 -108z" />
    <glyph glyph-name="sterling" unicode="&#xa3;" horiz-adv-x="1157" vert-adv-y="2130" 
d="M1026 202l-32 -202h-837l25 160q83 78 146 168.5t75 170.5v2h-167l32 202h115q-26 132 -12 227q28 173 170 295.5t315 122.5q91 0 177 -51.5t155 -146.5l-168 -141q-46 65 -97.5 101t-98.5 36q-89 0 -163 -63.5t-88 -152.5q-8 -55 14 -165q11 -46 12 -62h362l-32 -202
h-324v-2q-23 -147 -132 -297h553z" />
    <glyph glyph-name="yen" unicode="&#xa5;" horiz-adv-x="1586" vert-adv-y="2130" 
d="M933 247l-39 -247h-202l39 247h-237l32 202h237l10 64h-237l32 202h119l-362 606h253l335 -562l513 562h253l-554 -606h119l-32 -202h-237l-10 -64h237l-32 -202h-237z" />
    <glyph glyph-name="brokenbar" unicode="&#xa6;" horiz-adv-x="620" vert-adv-y="2130" 
d="M657 1555l-130 -820h-202l130 820h202zM499 553l-130 -820h-202l130 820h202z" />
    <glyph glyph-name="dieresis" unicode="&#xa8;" horiz-adv-x="938" vert-adv-y="2130" 
d="M503 1018q-50 0 -80 36.5t-22 85.5q7 50 49 86.5t92 36.5t81 -36.5t23 -86.5t-50.5 -86t-92.5 -36zM752 1018q-50 0 -80.5 36t-22.5 86q7 50 49.5 86.5t92.5 36.5t80 -36.5t23 -86.5q-8 -50 -50.5 -86t-91.5 -36z" />
    <glyph glyph-name="copyright" unicode="&#xa9;" horiz-adv-x="1561" vert-adv-y="2130" 
d="M793 0q-137 0 -253 53.5t-192 143.5t-109.5 214.5t-11.5 261.5t95 262t177 215t237 143.5t270 53.5t253.5 -53.5t192.5 -143.5t110 -215t12 -262q-29 -182 -144 -337.5t-284.5 -245.5t-352.5 -90zM814 130q148 0 284.5 72.5t229 197.5t116.5 273q23 148 -30 273.5
t-166.5 198t-261.5 72.5t-284.5 -72.5t-229 -198t-115.5 -273.5q-18 -110 9 -211t88.5 -173.5t155 -115.5t204.5 -43zM846 257q-173 0 -276 121.5t-75 294.5q27 174 168 295.5t315 121.5q105 0 195.5 -61t143.5 -167l-118 -77q-40 82 -104.5 129t-137.5 47
q-120 0 -217 -84.5t-116 -203.5t51.5 -203t190.5 -84q73 0 151 46.5t145 129.5l95 -77q-87 -107 -196.5 -167.5t-214.5 -60.5z" />
    <glyph glyph-name="ordfeminine" unicode="&#xaa;" horiz-adv-x="662" vert-adv-y="2130" 
d="M459 785q-102 0 -165 61t-50 146q14 88 105 147.5t197 59.5h101q1 37 -25.5 57t-74.5 21q-42 -1 -80 -28t-57 -67h-128q32 94 112 157t172 63h1q113 0 167 -58.5t37 -164.5l-61 -383h-126l3 16q-58 -27 -128 -27zM479 911q50 0 89.5 22.5t46.5 55.5l13 84h-102
q-59 0 -105 -23.5t-51 -57.5t27 -57.5t82 -23.5z" />
    <glyph glyph-name="guillemotleft" unicode="&#xab;" horiz-adv-x="1226" vert-adv-y="1700" 
d="M502 492l244 -291l-165 -142l-364 433l502 433l119 -142zM847 492l244 -291l-165 -142l-364 433l502 433l119 -142z" />
    <glyph glyph-name="logicalnot" unicode="&#xac;" horiz-adv-x="1267" vert-adv-y="2130" 
d="M1184 695l-80 -503h-202l48 301h-675l32 202h877z" />
    <glyph glyph-name="registered" unicode="&#xae;" horiz-adv-x="1561" vert-adv-y="2130" 
d="M782 0q-182 0 -323 90t-207 245.5t-37 337.5q29 183 144 338.5t284.5 245.5t351.5 90q137 0 253 -53.5t192 -143.5t110 -215t12 -262q-29 -182 -144 -337.5t-284.5 -245.5t-351.5 -90zM803 130q148 0 284.5 72.5t229 197.5t116.5 273q23 148 -30 273.5t-166.5 198
t-261.5 72.5t-285 -72.5t-229.5 -198t-115.5 -273.5q-18 -111 9 -211.5t88.5 -173t155.5 -115.5t205 -43zM675 527l-36 -233h-131l125 789h408q116 0 184.5 -81t49.5 -197q-13 -83 -69.5 -152t-135.5 -102l135 -257h-157l-125 233h-248zM1022 968h-291l-51 -325h307
q63 9 112.5 55t58.5 107q11 68 -28.5 115.5t-107.5 47.5z" />
    <glyph glyph-name="macron" unicode="&#xaf;" horiz-adv-x="936" vert-adv-y="2130" 
d="M905 1225l-32 -202h-486l32 202h486z" />
    <glyph glyph-name="degree" unicode="&#xb0;" horiz-adv-x="768" vert-adv-y="2130" 
d="M519 852q-101 0 -161 71t-44 172q17 101 99 172t183 71t160.5 -71t43.5 -172t-98 -172t-183 -71zM551 1054q17 0 31 12t16 29q3 17 -7 29t-27 12t-31 -12t-17 -29q-2 -17 8 -29t27 -12z" />
    <glyph glyph-name="plusminus" unicode="&#xb1;" horiz-adv-x="1090" vert-adv-y="2130" 
d="M945 391l-32 -202h-676l32 202h237l37 236h-237l32 201h237l38 238h202l-38 -238h237l-32 -201h-237l-37 -236h237z" />
    <glyph glyph-name="uni00B2" unicode="&#xb2;" horiz-adv-x="561" vert-adv-y="1700" 
d="M647 1005l-20 -130h-416l12 76q6 41 27.5 77t55.5 64t63.5 47t71.5 40l71 35q42 20 44 35q3 18 -17.5 28t-55.5 10q-34 0 -58 -23.5t-35 -65.5h-127l8 53q13 82 82 124t152 42q38 0 72 -9.5t61.5 -28.5t41 -53.5t6.5 -78.5q-8 -51 -34.5 -79.5t-82.5 -60.5l-72 -37
q-77 -36 -109 -65h259z" />
    <glyph glyph-name="uni00B3" unicode="&#xb3;" horiz-adv-x="578" vert-adv-y="1700" 
d="M430 888q-40 0 -75 9.5t-64.5 28.5t-43.5 53.5t-7 78.5l7 47h118l-7 -47q-4 -24 21 -38.5t69 -14.5t74 14.5t34 38.5q3 23 -19 38t-61 15h-88l18 112h88q36 0 60.5 13.5t27.5 34.5q4 23 -19.5 36.5t-66.5 13.5q-84 0 -108 -96h-113l7 46q9 56 47.5 95t86 54.5t100.5 15.5
q83 0 139.5 -41t44.5 -122q-11 -62 -58 -103l-5 5q47 -49 35 -120q-9 -56 -49 -95.5t-89.5 -55.5t-103.5 -16z" />
    <glyph glyph-name="acute" unicode="&#xb4;" horiz-adv-x="991" vert-adv-y="2130" 
d="M847 1400l105 -154l-383 -275l-103 156z" />
    <glyph glyph-name="paragraph" unicode="&#xb6;" horiz-adv-x="1215" vert-adv-y="2130" 
d="M1010 1202l-190 -1202h-145l72 457h-111q-184 0 -293.5 130.5t-80.5 314.5q19 121 95 223.5t188.5 162.5t232.5 60h435l-214 -1348h-145l190 1202h-34zM659 602h111l95 600h-111q-125 0 -226.5 -87.5t-120.5 -212.5q-20 -125 53.5 -212.5t198.5 -87.5z" />
    <glyph glyph-name="periodcentered" unicode="&#xb7;" horiz-adv-x="572" vert-adv-y="2130" 
d="M371 546q-49 0 -79 35.5t-22 84.5t49.5 85t90.5 36t78.5 -36t21.5 -85q-7 -49 -48.5 -84.5t-90.5 -35.5z" />
    <glyph glyph-name="cedilla" unicode="&#xb8;" horiz-adv-x="1396" vert-adv-y="2130" 
d="M422 -421l25 153q30 -6 62.5 4.5t52.5 34.5h-109l41 259h149l-18 -110h126l-16 -106q-16 -103 -108.5 -172t-204.5 -63z" />
    <glyph glyph-name="uni00B9" unicode="&#xb9;" horiz-adv-x="404" vert-adv-y="1700" 
d="M555 1416l-84 -534h-129l54 344l-35 -24l-75 94l174 120h95z" />
    <glyph glyph-name="ordmasculine" unicode="&#xba;" horiz-adv-x="770" vert-adv-y="2130" 
d="M505 759q-128 0 -198.5 89.5t-48.5 223.5q21 134 120 223.5t226 89.5t198 -89.5t50 -223.5q-22 -134 -121 -223.5t-226 -89.5zM525 885q73 0 130.5 53.5t70.5 133.5t-27.5 133.5t-114.5 53.5q-73 0 -130 -53.5t-70 -133.5t27.5 -133.5t113.5 -53.5z" />
    <glyph glyph-name="guillemotright" unicode="&#xbb;" horiz-adv-x="1226" vert-adv-y="1700" 
d="M456 925l364 -433l-502 -433l-119 142l336 291l-244 291zM801 925l364 -433l-502 -433l-119 142l336 291l-244 291z" />
    <glyph glyph-name="questiondown" unicode="&#xbf;" horiz-adv-x="1197" vert-adv-y="2130" 
d="M851 1111q-49 0 -78 34.5t-21 83.5t47.5 83.5t88.5 34.5t78 -34.5t22 -83.5q-8 -49 -48 -83.5t-89 -34.5zM614 0q-211 0 -334.5 110.5t-97.5 274.5q10 65 44 126t77.5 107t105.5 91.5t115.5 76.5t120.5 64q29 14 40 21.5t21.5 25.5t15.5 49l24 153h205l-27 -154
q-12 -64 -24 -101.5t-38 -68t-54.5 -49t-88.5 -50.5q-90 -49 -140 -80q-179 -111 -195 -211q-13 -79 62 -131t200 -52q114 0 196.5 68t106.5 182h201q-41 -203 -188.5 -327.5t-347.5 -124.5z" />
    <glyph glyph-name="Agrave" unicode="&#xc0;" horiz-adv-x="1658" vert-adv-y="2130" 
d="M1032 1844l308 -285l-156 -157l-305 285zM595 353l-236 -353h-225l915 1388l475 -1388h-224l-125 353h-580zM1112 555l-133 390l-257 -390h390z" />
    <glyph glyph-name="Aacute" unicode="&#xc1;" horiz-adv-x="1658" vert-adv-y="2130" 
d="M1231 1843l106 -156l-398 -285l-103 157zM595 353l-236 -353h-225l915 1388l475 -1388h-224l-125 353h-580zM1112 555l-133 390l-257 -390h390z" />
    <glyph glyph-name="Acircumflex" unicode="&#xc2;" horiz-adv-x="1658" vert-adv-y="2130" 
d="M1238 1424l-162 138l-204 -138l-108 156l353 238l277 -238zM595 353l-236 -353h-225l915 1388l475 -1388h-224l-125 353h-580zM1112 555l-133 390l-257 -390h390z" />
    <glyph glyph-name="Atilde" unicode="&#xc3;" horiz-adv-x="1658" vert-adv-y="2130" 
d="M1001 1523l-98 -87l-122 146l103 87q75 66 151 66q73 0 128 -64l97 87l123 -146l-103 -87q-77 -66 -151 -66t-128 64zM595 353l-236 -353h-225l915 1388l475 -1388h-224l-125 353h-580zM1112 555l-133 390l-257 -390h390z" />
    <glyph glyph-name="Adieresis" unicode="&#xc4;" horiz-adv-x="1658" vert-adv-y="2130" 
d="M935 1452q-49 0 -80 36t-23 86t50 86.5t92 36.5t80.5 -36.5t22.5 -86.5t-50 -86t-92 -36zM1184 1452q-50 0 -81 36t-23 86t50.5 86.5t92.5 36.5t80 -36.5t22 -86.5q-7 -49 -49 -85.5t-92 -36.5zM595 353l-236 -353h-225l915 1388l475 -1388h-224l-125 353h-580zM1112 555
l-133 390l-257 -390h390z" />
    <glyph glyph-name="Aring" unicode="&#xc5;" horiz-adv-x="1658" vert-adv-y="2130" 
d="M1058 1431q-83 0 -133 59.5t-36 142.5q13 83 81 142t151 59t133 -59t37 -142q-14 -83 -82 -142.5t-151 -59.5zM1079 1565q28 0 51 20.5t28 49.5t-12 49.5t-45 20.5q-29 0 -52 -20.5t-28 -49.5t12 -49.5t46 -20.5zM595 353l-236 -353h-225l915 1388l475 -1388h-224
l-125 353h-580zM1112 555l-133 390l-257 -390h390z" />
    <glyph glyph-name="AE" unicode="&#xc6;" horiz-adv-x="1965" vert-adv-y="2130" 
d="M591 353l-236 -353h-225l915 1388v2h1015l-32 -204h-812l-62 -389h759l-32 -204h-759l-62 -389h812l-32 -204h-1015l56 353h-290zM913 555l62 390l-257 -390h195z" />
    <glyph glyph-name="Ccedilla" unicode="&#xc7;" horiz-adv-x="1624" vert-adv-y="2130" 
d="M616 -421l25 153q30 -6 62.5 4.5t52.5 34.5h-109l35 220q-234 56 -360.5 252.5t-86.5 451.5q23 147 101.5 281t190.5 231t255.5 154t290.5 57q184 0 338.5 -103t244.5 -285l-184 -120q-71 142 -186 223t-246 81q-141 0 -271 -69.5t-218.5 -189t-111.5 -260.5
q-22 -141 28.5 -260.5t159 -189t249.5 -69.5q131 0 271 80.5t256 223.5l146 -120q-147 -182 -334 -285t-371 -103h-16l-9 -52h126l-16 -106q-16 -103 -108.5 -172t-204.5 -63z" />
    <glyph glyph-name="Egrave" unicode="&#xc8;" horiz-adv-x="1327" vert-adv-y="2130" 
d="M845 1844l307 -285l-156 -157l-305 285zM1234 204l-32 -204h-1077l220 1390h1077l-32 -204h-873l-62 -389h820l-32 -204h-820l-62 -389h873z" />
    <glyph glyph-name="Eacute" unicode="&#xc9;" horiz-adv-x="1327" vert-adv-y="2130" 
d="M1066 1843l106 -156l-397 -285l-104 157zM1234 204l-32 -204h-1077l220 1390h1077l-32 -204h-873l-62 -389h820l-32 -204h-820l-62 -389h873z" />
    <glyph glyph-name="Ecircumflex" unicode="&#xca;" horiz-adv-x="1327" vert-adv-y="2130" 
d="M1073 1424l-162 138l-204 -138l-107 156l352 238l277 -238zM1234 204l-32 -204h-1077l220 1390h1077l-32 -204h-873l-62 -389h820l-32 -204h-820l-62 -389h873z" />
    <glyph glyph-name="Edieresis" unicode="&#xcb;" horiz-adv-x="1327" vert-adv-y="2130" 
d="M769 1452q-49 0 -80 36t-23 86t50 86.5t92 36.5t80.5 -36.5t22.5 -86.5t-50 -86t-92 -36zM1018 1452q-49 0 -80 36t-23 86t50 86.5t92 36.5t80.5 -36.5t22.5 -86.5q-7 -49 -49.5 -85.5t-92.5 -36.5zM1234 204l-32 -204h-1077l220 1390h1077l-32 -204h-873l-62 -389h820
l-32 -204h-820l-62 -389h873z" />
    <glyph glyph-name="Igrave" unicode="&#xcc;" horiz-adv-x="493" vert-adv-y="2130" 
d="M426 1844l308 -285l-156 -157l-305 285zM568 1390l-220 -1390h-204l220 1390h204z" />
    <glyph glyph-name="Iacute" unicode="&#xcd;" horiz-adv-x="493" vert-adv-y="2130" 
d="M648 1843l106 -156l-398 -285l-103 157zM568 1390l-220 -1390h-204l220 1390h204z" />
    <glyph glyph-name="Icircumflex" unicode="&#xce;" horiz-adv-x="479" vert-adv-y="2130" 
d="M649 1424l-162 138l-205 -138l-107 156l353 238l276 -238zM562 1390l-220 -1390h-205l220 1390h205z" />
    <glyph glyph-name="Idieresis" unicode="&#xcf;" horiz-adv-x="416" vert-adv-y="2130" 
d="M313 1452q-49 0 -80 36t-23 86t50 86.5t92 36.5t80.5 -36.5t22.5 -86.5t-50 -86t-92 -36zM562 1452q-49 0 -80 36t-23 86t50 86.5t92 36.5t80.5 -36.5t22.5 -86.5q-7 -49 -49.5 -85.5t-92.5 -36.5zM530 1390l-220 -1390h-204l220 1390h204z" />
    <glyph glyph-name="Ntilde" unicode="&#xd1;" vert-adv-y="2130" 
d="M873 1523l-98 -87l-122 146l103 87q76 66 151 66q73 0 128 -64l97 87l123 -146l-103 -87q-77 -66 -151 -66t-128 64zM471 896l-142 -896h-204l220 1391l812 -861l136 860h205l-220 -1390z" />
    <glyph glyph-name="Ograve" unicode="&#xd2;" horiz-adv-x="1696" vert-adv-y="2130" 
d="M844 -28q-147 0 -272 57t-206.5 154t-117.5 231t-13 281t101.5 281t190.5 231t255.5 154t290.5 57q53 0 96 -7l-294 276l154 157l307 -285l-149 -150q253 -42 394.5 -243.5t99.5 -470.5q-31 -197 -154 -363.5t-304.5 -263t-378.5 -96.5zM876 176q215 0 391 152t210 367
q23 141 -27.5 260.5t-159.5 189t-250 69.5t-271 -69.5t-218.5 -189t-111.5 -260.5q-22 -141 28.5 -260.5t159 -189t249.5 -69.5z" />
    <glyph glyph-name="Oacute" unicode="&#xd3;" horiz-adv-x="1696" vert-adv-y="2130" 
d="M844 -28q-147 0 -272 57t-206.5 154t-117.5 231t-13 281q28 177 132 331t258 254.5t329 128.5l-99 150l395 284l106 -156l-385 -276q48 7 102 7q147 0 272 -57t206 -154t117 -231t13 -281q-31 -197 -154 -363.5t-304.5 -263t-378.5 -96.5zM876 176q215 0 391 152t210 367
q23 141 -27.5 260.5t-159.5 189t-250 69.5t-271 -69.5t-218.5 -189t-111.5 -260.5q-22 -141 28.5 -260.5t159 -189t249.5 -69.5z" />
    <glyph glyph-name="Ocircumflex" unicode="&#xd4;" horiz-adv-x="1696" vert-adv-y="2130" 
d="M1257 1424l-162 138l-204 -138l-107 156l352 238l277 -238zM844 -28q-147 0 -272 57t-206.5 154t-117.5 231t-13 281t101.5 281t190.5 231t255.5 154t290.5 57t272 -57t206 -154t117 -231t13 -281q-31 -197 -154 -363.5t-304.5 -263t-378.5 -96.5zM876 176q215 0 391 152
t210 367q23 141 -27.5 260.5t-159.5 189t-250 69.5t-271 -69.5t-218.5 -189t-111.5 -260.5q-22 -141 28.5 -260.5t159 -189t249.5 -69.5z" />
    <glyph glyph-name="Otilde" unicode="&#xd5;" horiz-adv-x="1696" vert-adv-y="2130" 
d="M1020 1523l-98 -87l-122 146l103 87q77 66 151 66q73 0 128 -64l97 87l123 -146l-103 -87q-77 -66 -151 -66t-128 64zM844 -28q-147 0 -272 57t-206.5 154t-117.5 231t-13 281t101.5 281t190.5 231t255.5 154t290.5 57t272 -57t206 -154t117 -231t13 -281
q-31 -197 -154 -363.5t-304.5 -263t-378.5 -96.5zM876 176q215 0 391 152t210 367q23 141 -27.5 260.5t-159.5 189t-250 69.5t-271 -69.5t-218.5 -189t-111.5 -260.5q-22 -141 28.5 -260.5t159 -189t249.5 -69.5z" />
    <glyph glyph-name="Odieresis" unicode="&#xd6;" horiz-adv-x="1696" vert-adv-y="2130" 
d="M954 1452q-49 0 -80 36t-23 86t50 86.5t92 36.5t80.5 -36.5t22.5 -86.5t-50 -86t-92 -36zM1203 1452q-50 0 -80.5 36.5t-23.5 85.5q8 50 50.5 86.5t92.5 36.5t80 -36.5t22 -86.5q-7 -49 -49 -85.5t-92 -36.5zM844 -28q-147 0 -272 57t-206.5 154t-117.5 231t-13 281
t101.5 281t190.5 231t255.5 154t290.5 57t272 -57t206 -154t117 -231t13 -281q-31 -197 -154 -363.5t-304.5 -263t-378.5 -96.5zM876 176q215 0 391 152t210 367q23 141 -27.5 260.5t-159.5 189t-250 69.5t-271 -69.5t-218.5 -189t-111.5 -260.5q-22 -141 28.5 -260.5
t159 -189t249.5 -69.5z" />
    <glyph glyph-name="multiply" unicode="&#xd7;" horiz-adv-x="1098" vert-adv-y="2130" 
d="M801 236l-181 215l-250 -215l-119 142l250 216l-182 215l165 143l182 -216l249 216l120 -143l-250 -215l182 -216z" />
    <glyph glyph-name="Oslash" unicode="&#xd8;" horiz-adv-x="1696" vert-adv-y="2130" 
d="M703 -14l-29 -57h-217l64 126q-162 94 -240 266.5t-46 373.5q23 147 101.5 281t190.5 231t255.5 154t290.5 57q76 0 140 -14l29 57h218l-65 -126q162 -94 240 -266.5t46 -373.5q-31 -197 -154 -363.5t-304.5 -263t-378.5 -96.5q-77 0 -141 14zM621 249l492 959
q-36 6 -73 6q-141 0 -271 -69.5t-218.5 -189t-111.5 -260.5q-22 -138 27 -257t155 -189zM876 176q215 0 391 152t210 367q22 137 -27 256.5t-154 189.5l-492 -960q38 -5 72 -5z" />
    <glyph glyph-name="Ugrave" unicode="&#xd9;" vert-adv-y="2130" 
d="M882 1844l307 -285l-156 -157l-305 285zM697 -28q-117 0 -216.5 45.5t-164.5 123t-94 184t-10 223.5l133 842h204l-133 -842q-25 -154 67 -263t246 -109t280 109t151 263l133 842h205l-133 -842q-19 -117 -81.5 -223.5t-152 -184t-203.5 -123t-231 -45.5z" />
    <glyph glyph-name="Uacute" unicode="&#xda;" vert-adv-y="2130" 
d="M1103 1843l106 -156l-397 -285l-104 157zM697 -28q-117 0 -216.5 45.5t-164.5 123t-94 184t-10 223.5l133 842h204l-133 -842q-25 -154 67 -263t246 -109t280 109t151 263l133 842h205l-133 -842q-19 -117 -81.5 -223.5t-152 -184t-203.5 -123t-231 -45.5z" />
    <glyph glyph-name="Ucircumflex" unicode="&#xdb;" vert-adv-y="2130" 
d="M1111 1424l-163 138l-204 -138l-107 156l352 238l277 -238zM697 -28q-117 0 -216.5 45.5t-164.5 123t-94 184t-10 223.5l133 842h204l-133 -842q-25 -154 67 -263t246 -109t280 109t151 263l133 842h205l-133 -842q-19 -117 -81.5 -223.5t-152 -184t-203.5 -123
t-231 -45.5z" />
    <glyph glyph-name="Udieresis" unicode="&#xdc;" vert-adv-y="2130" 
d="M804 1452q-49 0 -80 36t-23 86t50 86.5t92 36.5t80.5 -36.5t22.5 -86.5t-50 -86t-92 -36zM1053 1452q-50 0 -81 36t-23 86t50.5 86.5t92.5 36.5t80 -36.5t22 -86.5q-7 -49 -49 -85.5t-92 -36.5zM697 -28q-117 0 -216.5 45.5t-164.5 123t-94 184t-10 223.5l133 842h204
l-133 -842q-25 -154 67 -263t246 -109t280 109t151 263l133 842h205l-133 -842q-19 -117 -81.5 -223.5t-152 -184t-203.5 -123t-231 -45.5z" />
    <glyph glyph-name="Yacute" unicode="&#xdd;" horiz-adv-x="1621" vert-adv-y="2130" 
d="M1242 1843l107 -156l-398 -285l-104 157zM1027 534l-85 -534h-204l85 534l-464 856h251l347 -649l553 649h252z" />
    <glyph glyph-name="germandbls" unicode="&#xdf;" horiz-adv-x="1307" vert-adv-y="1700" 
d="M500 962l-195 -1234h-202l199 1257q38 165 194.5 267t372.5 102q226 0 349.5 -109t95.5 -283q-26 -171 -186 -281q69 -55 98.5 -134t15.5 -170q-19 -117 -108 -209t-232.5 -144t-318.5 -55l32 202q177 3 294.5 60t131.5 146q13 81 -58 142.5t-205 62.5h-11l-168 -3
l30 194l168 -3h11q129 0 212 57.5t95 134.5q14 86 -62.5 139.5t-214.5 53.5q-137 0 -230.5 -53.5t-107.5 -139.5z" />
    <glyph glyph-name="agrave" unicode="&#xe0;" horiz-adv-x="1047" vert-adv-y="2130" 
d="M662 1401l296 -275l-154 -154l-294 274zM520 -17q-164 0 -265.5 97.5t-79.5 234.5q15 94 90 171t180 118.5t214 41.5h162q1 60 -41.5 92.5t-119.5 31.5q-66 -1 -127.5 -43.5t-91.5 -107.5h-205q51 151 179.5 252t275.5 101h2q181 0 267 -94t59 -263l-97 -615h-202l8 49
q-82 -66 -208 -66zM552 185q79 0 142 36.5t75 88.5l21 134h-163q-96 0 -169 -37.5t-81 -91.5q-9 -54 42.5 -92t132.5 -38z" />
    <glyph glyph-name="aacute" unicode="&#xe1;" horiz-adv-x="1047" vert-adv-y="2130" 
d="M850 1400l105 -154l-383 -275l-103 156zM520 -17q-164 0 -265.5 97.5t-79.5 234.5q15 94 90 171t180 118.5t214 41.5h162q1 60 -41.5 92.5t-119.5 31.5q-66 -1 -127.5 -43.5t-91.5 -107.5h-205q51 151 179.5 252t275.5 101h2q181 0 267 -94t59 -263l-97 -615h-202l8 49
q-82 -66 -208 -66zM552 185q79 0 142 36.5t75 88.5l21 134h-163q-96 0 -169 -37.5t-81 -91.5q-9 -54 42.5 -92t132.5 -38z" />
    <glyph glyph-name="acircumflex" unicode="&#xe2;" horiz-adv-x="1047" vert-adv-y="2130" 
d="M855 992l-153 131l-195 -131l-104 154l339 230l268 -230zM520 -17q-164 0 -265.5 97.5t-79.5 234.5q15 94 90 171t180 118.5t214 41.5h162q1 60 -41.5 92.5t-119.5 31.5q-66 -1 -127.5 -43.5t-91.5 -107.5h-205q51 151 179.5 252t275.5 101h2q181 0 267 -94t59 -263
l-97 -615h-202l8 49q-82 -66 -208 -66zM552 185q79 0 142 36.5t75 88.5l21 134h-163q-96 0 -169 -37.5t-81 -91.5q-9 -54 42.5 -92t132.5 -38z" />
    <glyph glyph-name="atilde" unicode="&#xe3;" horiz-adv-x="1047" vert-adv-y="2130" 
d="M631 1086l-92 -82l-121 144l101 85q73 64 145 64q70 0 121 -59l93 82l121 -144l-101 -85q-75 -64 -146 -64t-121 59zM520 -17q-164 0 -265.5 97.5t-79.5 234.5q15 94 90 171t180 118.5t214 41.5h162q1 60 -41.5 92.5t-119.5 31.5q-66 -1 -127.5 -43.5t-91.5 -107.5h-205
q51 151 179.5 252t275.5 101h2q181 0 267 -94t59 -263l-97 -615h-202l8 49q-82 -66 -208 -66zM552 185q79 0 142 36.5t75 88.5l21 134h-163q-96 0 -169 -37.5t-81 -91.5q-9 -54 42.5 -92t132.5 -38z" />
    <glyph glyph-name="adieresis" unicode="&#xe4;" horiz-adv-x="1047" vert-adv-y="2130" 
d="M560 1018q-50 0 -80 36.5t-22 85.5q7 50 49 86.5t92 36.5t81 -36.5t23 -86.5t-50.5 -86t-92.5 -36zM809 1018q-50 0 -80.5 36t-22.5 86q7 50 49.5 86.5t92.5 36.5t80 -36.5t23 -86.5q-8 -50 -50.5 -86t-91.5 -36zM520 -17q-164 0 -265.5 97.5t-79.5 234.5q15 94 90 171
t180 118.5t214 41.5h162q1 60 -41.5 92.5t-119.5 31.5q-66 -1 -127.5 -43.5t-91.5 -107.5h-205q51 151 179.5 252t275.5 101h2q181 0 267 -94t59 -263l-97 -615h-202l8 49q-82 -66 -208 -66zM552 185q79 0 142 36.5t75 88.5l21 134h-163q-96 0 -169 -37.5t-81 -91.5
q-9 -54 42.5 -92t132.5 -38z" />
    <glyph glyph-name="aring" unicode="&#xe5;" horiz-adv-x="1047" vert-adv-y="2130" 
d="M666 992q-83 0 -132.5 59.5t-36.5 142.5q14 83 82 142t151 59t132.5 -59t36.5 -142t-81.5 -142.5t-151.5 -59.5zM687 1126q28 0 51 20.5t28 49.5t-11.5 49.5t-44.5 20.5q-29 0 -52.5 -20.5t-28.5 -49.5t12 -49.5t46 -20.5zM520 -17q-164 0 -265.5 97.5t-79.5 234.5
q15 94 90 171t180 118.5t214 41.5h162q1 60 -41.5 92.5t-119.5 31.5q-66 -1 -127.5 -43.5t-91.5 -107.5h-205q51 151 179.5 252t275.5 101h2q181 0 267 -94t59 -263l-97 -615h-202l8 49q-82 -66 -208 -66zM552 185q79 0 142 36.5t75 88.5l21 134h-163q-96 0 -169 -37.5
t-81 -91.5q-9 -54 42.5 -92t132.5 -38z" />
    <glyph glyph-name="ae" unicode="&#xe6;" horiz-adv-x="1800" vert-adv-y="2130" 
d="M1236 185q77 0 153 54t136 148l182 -64q-92 -157 -226.5 -248.5t-276.5 -91.5q-160 0 -270 94l-12 -77h-202l8 49q-82 -66 -208 -66q-164 0 -265.5 97.5t-79.5 234.5q15 94 90 171t180 118.5t214 41.5h162q1 60 -41.5 92.5t-119.5 31.5q-66 -1 -127.5 -43.5t-91.5 -107.5
h-205q51 151 179.5 252t275.5 101h2q218 0 295 -133q76 69 176 108.5t199 39.5q194 0 304.5 -153t87.5 -388h-747q0 -127 59.5 -194t168.5 -67zM1331 785q-83 0 -156.5 -45t-118.5 -121h497q-21 76 -80.5 121t-141.5 45zM769 310l21 134h-163q-96 0 -169 -37.5t-81 -91.5
q-9 -54 42.5 -92t132.5 -38q79 0 142 36.5t75 88.5z" />
    <glyph glyph-name="ccedilla" unicode="&#xe7;" horiz-adv-x="1168" vert-adv-y="2130" 
d="M370 -421l25 153q30 -6 62.5 4.5t52.5 34.5h-109l38 240q-133 52 -198.5 179.5t-38.5 294.5q34 215 192.5 358.5t363.5 143.5q121 0 224 -72.5t168 -202.5l-186 -112q-44 87 -107 136t-131 49q-118 0 -210 -85.5t-112 -214.5q-20 -128 44.5 -214t182.5 -86q68 0 146.5 49
t150.5 137l150 -112q-106 -131 -232 -203.5t-247 -72.5h-16l-10 -63h126l-16 -106q-16 -103 -108.5 -172t-204.5 -63z" />
    <glyph glyph-name="egrave" unicode="&#xe8;" horiz-adv-x="1205" vert-adv-y="2130" 
d="M719 1406l296 -275l-153 -152l-295 272zM599 -17q-101 0 -183.5 38.5t-135 105t-74 159.5t-4.5 199q34 215 192.5 358.5t363.5 143.5q194 0 304.5 -153t87.5 -388h-747q0 -127 59.5 -194t168.5 -67q77 0 153 54t136 148l182 -64q-92 -157 -226.5 -248.5t-276.5 -91.5z
M451 619h497q-21 76 -80.5 121t-141.5 45q-83 0 -156.5 -45t-118.5 -121z" />
    <glyph glyph-name="eacute" unicode="&#xe9;" horiz-adv-x="1205" vert-adv-y="2130" 
d="M929 1409l106 -154l-383 -274l-103 155zM599 -17q-101 0 -183.5 38.5t-135 105t-74 159.5t-4.5 199q34 215 192.5 358.5t363.5 143.5q194 0 304.5 -153t87.5 -388h-747q0 -127 59.5 -194t168.5 -67q77 0 153 54t136 148l182 -64q-92 -157 -226.5 -248.5t-276.5 -91.5z
M451 619h497q-21 76 -80.5 121t-141.5 45q-83 0 -156.5 -45t-118.5 -121z" />
    <glyph glyph-name="ecircumflex" unicode="&#xea;" horiz-adv-x="1205" vert-adv-y="2130" 
d="M932 992l-152 131l-195 -131l-105 154l340 230l267 -230zM599 -17q-101 0 -183.5 38.5t-135 105t-74 159.5t-4.5 199q34 215 192.5 358.5t363.5 143.5q194 0 304.5 -153t87.5 -388h-747q0 -127 59.5 -194t168.5 -67q77 0 153 54t136 148l182 -64q-92 -157 -226.5 -248.5
t-276.5 -91.5zM451 619h497q-21 76 -80.5 121t-141.5 45q-83 0 -156.5 -45t-118.5 -121z" />
    <glyph glyph-name="edieresis" unicode="&#xeb;" horiz-adv-x="1205" vert-adv-y="2130" 
d="M639 1018q-50 0 -80 36.5t-22 85.5q7 50 49 86.5t92 36.5t81 -36.5t23 -86.5t-50.5 -86t-92.5 -36zM888 1018q-50 0 -80.5 36t-22.5 86q7 50 49.5 86.5t92.5 36.5t80 -36.5t23 -86.5q-8 -50 -50.5 -86t-91.5 -36zM599 -17q-101 0 -183.5 38.5t-135 105t-74 159.5
t-4.5 199q34 215 192.5 358.5t363.5 143.5q194 0 304.5 -153t87.5 -388h-747q0 -127 59.5 -194t168.5 -67q77 0 153 54t136 148l182 -64q-92 -157 -226.5 -248.5t-276.5 -91.5zM451 619h497q-21 76 -80.5 121t-141.5 45q-83 0 -156.5 -45t-118.5 -121z" />
    <glyph glyph-name="igrave" unicode="&#xec;" horiz-adv-x="525" vert-adv-y="2130" 
d="M378 1401l296 -275l-154 -154l-294 274zM517 970l-154 -970h-202l154 970h202z" />
    <glyph glyph-name="iacute" unicode="&#xed;" horiz-adv-x="525" vert-adv-y="2130" 
d="M588 1400l105 -154l-383 -275l-103 156zM517 970l-154 -970h-202l154 970h202z" />
    <glyph glyph-name="icircumflex" unicode="&#xee;" horiz-adv-x="503" vert-adv-y="2130" 
d="M582 992l-153 131l-194 -131l-105 154l339 230l268 -230zM506 970l-154 -970h-201l154 970h201z" />
    <glyph glyph-name="idieresis" unicode="&#xef;" horiz-adv-x="444" vert-adv-y="2130" 
d="M258 1018q-50 0 -80 36.5t-22 85.5q7 50 49 86.5t92 36.5t81 -36.5t23 -86.5t-50.5 -86t-92.5 -36zM507 1018q-50 0 -80.5 36t-22.5 86q7 50 49.5 86.5t92.5 36.5t80 -36.5t23 -86.5q-8 -50 -50.5 -86t-91.5 -36zM477 970l-154 -970h-202l154 970h202z" />
    <glyph glyph-name="ntilde" unicode="&#xf1;" horiz-adv-x="1014" vert-adv-y="2130" 
d="M615 1085l-93 -81l-121 144l101 85q75 64 145 64q68 0 121 -59l93 82l121 -144l-101 -85q-75 -64 -145 -64q-69 0 -121 58zM424 607l-96 -607h-203l154 971h202l-11 -65q85 59 209 66q71 4 133 -20t105 -70.5t62 -118.5t6 -158l-96 -605h-202l96 605q12 75 -32.5 127.5
t-119.5 52.5q-73 0 -134 -52.5t-73 -125.5z" />
    <glyph glyph-name="ograve" unicode="&#xf2;" horiz-adv-x="1204" vert-adv-y="2130" 
d="M720 1415l297 -275l-151 -151l-297 271zM599 -17q-101 0 -183.5 38.5t-135 105t-74 159.5t-4.5 199q34 215 192.5 358.5t363.5 143.5q101 0 183.5 -38.5t135 -105t74.5 -159.5t5 -199q-35 -215 -193.5 -358.5t-363.5 -143.5zM631 185q118 0 210.5 86t112.5 214
q20 129 -45 214.5t-183 85.5t-210 -85.5t-112 -214.5q-20 -128 44.5 -214t182.5 -86z" />
    <glyph glyph-name="oacute" unicode="&#xf3;" horiz-adv-x="1204" vert-adv-y="2130" 
d="M930 1412l105 -154l-386 -271l-100 152zM599 -17q-101 0 -183.5 38.5t-135 105t-74 159.5t-4.5 199q34 215 192.5 358.5t363.5 143.5q101 0 183.5 -38.5t135 -105t74.5 -159.5t5 -199q-35 -215 -193.5 -358.5t-363.5 -143.5zM631 185q118 0 210.5 86t112.5 214
q20 129 -45 214.5t-183 85.5t-210 -85.5t-112 -214.5q-20 -128 44.5 -214t182.5 -86z" />
    <glyph glyph-name="ocircumflex" unicode="&#xf4;" horiz-adv-x="1204" vert-adv-y="2130" 
d="M932 992l-152 131l-195 -131l-105 154l340 230l267 -230zM599 -17q-101 0 -183.5 38.5t-135 105t-74 159.5t-4.5 199q34 215 192.5 358.5t363.5 143.5q101 0 183.5 -38.5t135 -105t74.5 -159.5t5 -199q-35 -215 -193.5 -358.5t-363.5 -143.5zM631 185q118 0 210.5 86
t112.5 214q20 129 -45 214.5t-183 85.5t-210 -85.5t-112 -214.5q-20 -128 44.5 -214t182.5 -86z" />
    <glyph glyph-name="otilde" unicode="&#xf5;" horiz-adv-x="1204" vert-adv-y="2130" 
d="M709 1086l-93 -82l-121 144l101 85q75 64 146 64q70 0 121 -59l92 82l121 -144l-101 -85q-75 -64 -145 -64q-71 0 -121 59zM599 -17q-101 0 -183.5 38.5t-135 105t-74 159.5t-4.5 199q34 215 192.5 358.5t363.5 143.5q101 0 183.5 -38.5t135 -105t74.5 -159.5t5 -199
q-35 -215 -193.5 -358.5t-363.5 -143.5zM631 185q118 0 210.5 86t112.5 214q20 129 -45 214.5t-183 85.5t-210 -85.5t-112 -214.5q-20 -128 44.5 -214t182.5 -86z" />
    <glyph glyph-name="odieresis" unicode="&#xf6;" horiz-adv-x="1204" vert-adv-y="2130" 
d="M640 1018q-50 0 -80 36.5t-22 85.5q7 50 49 86.5t92 36.5t81 -36.5t23 -86.5t-50.5 -86t-92.5 -36zM889 1018q-50 0 -80.5 36t-22.5 86q7 50 49.5 86.5t92.5 36.5t80 -36.5t23 -86.5q-8 -50 -50.5 -86t-91.5 -36zM599 -17q-101 0 -183.5 38.5t-135 105t-74 159.5
t-4.5 199q34 215 192.5 358.5t363.5 143.5q101 0 183.5 -38.5t135 -105t74.5 -159.5t5 -199q-35 -215 -193.5 -358.5t-363.5 -143.5zM631 185q118 0 210.5 86t112.5 214q20 129 -45 214.5t-183 85.5t-210 -85.5t-112 -214.5q-20 -128 44.5 -214t182.5 -86z" />
    <glyph glyph-name="divide" unicode="&#xf7;" horiz-adv-x="1196" vert-adv-y="2130" 
d="M713 730q-49 0 -79 35.5t-22 84.5q7 49 48.5 84.5t90.5 35.5t79 -35.5t22 -84.5t-49 -84.5t-90 -35.5zM1113 695l-32 -202h-810l32 202h810zM635 237q-49 0 -79 35.5t-22 84.5q7 49 48.5 84.5t90.5 35.5t79 -35.5t22 -84.5t-49 -84.5t-90 -35.5z" />
    <glyph glyph-name="oslash" unicode="&#xf8;" horiz-adv-x="1204" vert-adv-y="2130" 
d="M475 0l-35 -67h-215l84 164q-70 69 -98 169.5t-9 218.5q34 215 192.5 358.5t363.5 143.5h7l-2 1h3v-1v1l57 108h215l-81 -156q115 -60 169 -181.5t30 -273.5q-35 -215 -193.5 -358.5t-363.5 -143.5q-64 0 -124 17zM422 314l237 463q-97 -23 -167.5 -103t-87.5 -189
q-16 -98 18 -171zM631 185q118 0 210.5 86t112.5 214q13 88 -12 156.5t-84 106.5l-285 -557q29 -6 58 -6z" />
    <glyph glyph-name="ugrave" unicode="&#xf9;" horiz-adv-x="1014" vert-adv-y="2130" 
d="M623 1401l296 -275l-153 -154l-295 274zM744 365l96 607h203l-154 -971h-202l10 65q-74 -56 -155.5 -72t-150 7.5t-121.5 72.5t-77 127t-10 166l96 605h202l-96 -605q-12 -75 32.5 -127.5t119.5 -52.5q73 0 134 52.5t73 125.5z" />
    <glyph glyph-name="uacute" unicode="&#xfa;" horiz-adv-x="1014" vert-adv-y="2130" 
d="M834 1400l104 -154l-383 -275l-103 156zM744 365l96 607h203l-154 -971h-202l10 65q-74 -56 -155.5 -72t-150 7.5t-121.5 72.5t-77 127t-10 166l96 605h202l-96 -605q-12 -75 32.5 -127.5t119.5 -52.5q73 0 134 52.5t73 125.5z" />
    <glyph glyph-name="ucircumflex" unicode="&#xfb;" horiz-adv-x="1014" vert-adv-y="2130" 
d="M838 992l-153 131l-194 -131l-105 154l339 230l268 -230zM744 365l96 607h203l-154 -971h-202l10 65q-74 -56 -155.5 -72t-150 7.5t-121.5 72.5t-77 127t-10 166l96 605h202l-96 -605q-12 -75 32.5 -127.5t119.5 -52.5q73 0 134 52.5t73 125.5z" />
    <glyph glyph-name="udieresis" unicode="&#xfc;" horiz-adv-x="1014" vert-adv-y="2130" 
d="M543 1018q-50 0 -80 36.5t-22 85.5q7 50 49 86.5t92 36.5t81 -36.5t23 -86.5t-50.5 -86t-92.5 -36zM792 1018q-50 0 -80.5 36t-22.5 86q7 50 49.5 86.5t92.5 36.5t80 -36.5t23 -86.5q-8 -50 -50.5 -86t-91.5 -36zM744 365l96 607h203l-154 -971h-202l10 65
q-74 -56 -155.5 -72t-150 7.5t-121.5 72.5t-77 127t-10 166l96 605h202l-96 -605q-12 -75 32.5 -127.5t119.5 -52.5q73 0 134 52.5t73 125.5z" />
    <glyph glyph-name="yacute" unicode="&#xfd;" horiz-adv-x="1254" vert-adv-y="2130" 
d="M953 1400l105 -154l-383 -275l-103 156zM1274 970l-873 -1400h-212l354 564l-255 836h223l175 -599l365 599h223z" />
    <glyph glyph-name="ydieresis" unicode="&#xff;" horiz-adv-x="1254" vert-adv-y="2130" 
d="M665 1018q-50 0 -80 36.5t-22 85.5q7 50 49 86.5t92 36.5t81 -36.5t23 -86.5t-50.5 -86t-92.5 -36zM914 1018q-50 0 -80.5 36t-22.5 86q7 50 49.5 86.5t92.5 36.5t80 -36.5t23 -86.5q-8 -50 -50.5 -86t-91.5 -36zM1274 970l-873 -1400h-212l354 564l-255 836h223
l175 -599l365 599h223z" />
    <glyph glyph-name="Amacron" unicode="&#x100;" horiz-adv-x="1658" vert-adv-y="2130" 
d="M1345 1660l-33 -205h-505l33 205h505zM595 353l-236 -353h-225l915 1388l475 -1388h-224l-125 353h-580zM1112 555l-133 390l-257 -390h390z" />
    <glyph glyph-name="amacron" unicode="&#x101;" horiz-adv-x="1047" vert-adv-y="2130" 
d="M961 1225l-32 -202h-486l32 202h486zM520 -17q-164 0 -265.5 97.5t-79.5 234.5q15 94 90 171t180 118.5t214 41.5h162q1 60 -41.5 92.5t-119.5 31.5q-66 -1 -127.5 -43.5t-91.5 -107.5h-205q51 151 179.5 252t275.5 101h2q181 0 267 -94t59 -263l-97 -615h-202l8 49
q-82 -66 -208 -66zM552 185q79 0 142 36.5t75 88.5l21 134h-163q-96 0 -169 -37.5t-81 -91.5q-9 -54 42.5 -92t132.5 -38z" />
    <glyph glyph-name="Abreve" unicode="&#x102;" horiz-adv-x="1658" vert-adv-y="2130" 
d="M1056 1433q-112 0 -180 102t-54 249h203q-5 -62 13 -104.5t50 -42.5q31 0 63 42.5t48 104.5h203q-33 -147 -133.5 -249t-212.5 -102zM595 353l-236 -353h-225l915 1388l475 -1388h-224l-125 353h-580zM1112 555l-133 390l-257 -390h390z" />
    <glyph glyph-name="abreve" unicode="&#x103;" horiz-adv-x="1047" vert-adv-y="2130" 
d="M683 1002q-108 0 -173 99t-51 242h200q-4 -59 12 -99t44 -40t56.5 39.5t43.5 99.5h201q-33 -144 -129 -242.5t-204 -98.5zM520 -17q-164 0 -265.5 97.5t-79.5 234.5q15 94 90 171t180 118.5t214 41.5h162q1 60 -41.5 92.5t-119.5 31.5q-66 -1 -127.5 -43.5t-91.5 -107.5
h-205q51 151 179.5 252t275.5 101h2q181 0 267 -94t59 -263l-97 -615h-202l8 49q-82 -66 -208 -66zM552 185q79 0 142 36.5t75 88.5l21 134h-163q-96 0 -169 -37.5t-81 -91.5q-9 -54 42.5 -92t132.5 -38z" />
    <glyph glyph-name="Cacute" unicode="&#x106;" horiz-adv-x="1624" vert-adv-y="2130" 
d="M1199 1843l107 -156l-398 -285l-103 157zM844 -28q-147 0 -272 57t-206.5 154t-117.5 231t-13 281t101.5 281t190.5 231t255.5 154t290.5 57q184 0 338.5 -103t244.5 -285l-184 -120q-71 142 -186 223t-246 81q-141 0 -271 -69.5t-218.5 -189t-111.5 -260.5
q-22 -141 28.5 -260.5t159 -189t249.5 -69.5q131 0 271 80.5t256 223.5l146 -120q-147 -182 -334 -285t-371 -103z" />
    <glyph glyph-name="cacute" unicode="&#x107;" horiz-adv-x="1168" vert-adv-y="2130" 
d="M895 1400l104 -154l-383 -275l-103 156zM599 -17q-101 0 -183.5 38.5t-135 105t-74 159.5t-4.5 199q34 215 192.5 358.5t363.5 143.5q121 0 224 -72.5t168 -202.5l-186 -112q-44 87 -107 136t-131 49q-118 0 -210 -85.5t-112 -214.5q-20 -128 44.5 -214t182.5 -86
q68 0 146.5 49t150.5 137l150 -112q-106 -131 -232 -203.5t-247 -72.5z" />
    <glyph glyph-name="Ccircumflex" unicode="&#x108;" horiz-adv-x="1624" vert-adv-y="2130" 
d="M1207 1424l-162 138l-204 -138l-108 156l353 238l276 -238zM844 -28q-147 0 -272 57t-206.5 154t-117.5 231t-13 281t101.5 281t190.5 231t255.5 154t290.5 57q184 0 338.5 -103t244.5 -285l-184 -120q-71 142 -186 223t-246 81q-141 0 -271 -69.5t-218.5 -189
t-111.5 -260.5q-22 -141 28.5 -260.5t159 -189t249.5 -69.5q131 0 271 80.5t256 223.5l146 -120q-147 -182 -334 -285t-371 -103z" />
    <glyph glyph-name="ccircumflex" unicode="&#x109;" horiz-adv-x="1168" vert-adv-y="2130" 
d="M899 992l-153 131l-194 -131l-105 154l339 230l268 -230zM599 -17q-101 0 -183.5 38.5t-135 105t-74 159.5t-4.5 199q34 215 192.5 358.5t363.5 143.5q121 0 224 -72.5t168 -202.5l-186 -112q-44 87 -107 136t-131 49q-118 0 -210 -85.5t-112 -214.5q-20 -128 44.5 -214
t182.5 -86q68 0 146.5 49t150.5 137l150 -112q-106 -131 -232 -203.5t-247 -72.5z" />
    <glyph glyph-name="Cdotaccent" unicode="&#x10a;" horiz-adv-x="1624" vert-adv-y="2130" 
d="M1033 1481q-50 0 -81 36.5t-23 86.5t50 86t92 36t80.5 -36.5t22.5 -85.5q-8 -50 -50 -86.5t-91 -36.5zM844 -28q-147 0 -272 57t-206.5 154t-117.5 231t-13 281t101.5 281t190.5 231t255.5 154t290.5 57q184 0 338.5 -103t244.5 -285l-184 -120q-71 142 -186 223t-246 81
q-141 0 -271 -69.5t-218.5 -189t-111.5 -260.5q-22 -141 28.5 -260.5t159 -189t249.5 -69.5q131 0 271 80.5t256 223.5l146 -120q-147 -182 -334 -285t-371 -103z" />
    <glyph glyph-name="cdotaccent" unicode="&#x10b;" horiz-adv-x="1168" vert-adv-y="2130" 
d="M734 1048q-49 0 -79 35.5t-22 84.5q7 49 48.5 84.5t90.5 35.5t79 -35.5t22 -84.5q-7 -49 -48.5 -84.5t-90.5 -35.5zM599 -17q-101 0 -183.5 38.5t-135 105t-74 159.5t-4.5 199q34 215 192.5 358.5t363.5 143.5q121 0 224 -72.5t168 -202.5l-186 -112q-44 87 -107 136
t-131 49q-118 0 -210 -85.5t-112 -214.5q-20 -128 44.5 -214t182.5 -86q68 0 146.5 49t150.5 137l150 -112q-106 -131 -232 -203.5t-247 -72.5z" />
    <glyph glyph-name="Ccaron" unicode="&#x10c;" horiz-adv-x="1624" vert-adv-y="2130" 
d="M1268 1810l106 -156l-352 -237l-277 237l157 156l161 -138zM844 -28q-147 0 -272 57t-206.5 154t-117.5 231t-13 281t101.5 281t190.5 231t255.5 154t290.5 57q184 0 338.5 -103t244.5 -285l-184 -120q-71 142 -186 223t-246 81q-141 0 -271 -69.5t-218.5 -189
t-111.5 -260.5q-22 -141 28.5 -260.5t159 -189t249.5 -69.5q131 0 271 80.5t256 223.5l146 -120q-147 -182 -334 -285t-371 -103z" />
    <glyph glyph-name="ccaron" unicode="&#x10d;" horiz-adv-x="1168" vert-adv-y="2130" 
d="M959 1369l105 -154l-340 -229l-267 229l155 154l152 -131zM599 -17q-101 0 -183.5 38.5t-135 105t-74 159.5t-4.5 199q34 215 192.5 358.5t363.5 143.5q121 0 224 -72.5t168 -202.5l-186 -112q-44 87 -107 136t-131 49q-118 0 -210 -85.5t-112 -214.5q-20 -128 44.5 -214
t182.5 -86q68 0 146.5 49t150.5 137l150 -112q-106 -131 -232 -203.5t-247 -72.5z" />
    <glyph glyph-name="Emacron" unicode="&#x112;" horiz-adv-x="1327" vert-adv-y="2130" 
d="M1180 1660l-33 -205h-505l33 205h505zM1234 204l-32 -204h-1077l220 1390h1077l-32 -204h-873l-62 -389h820l-32 -204h-820l-62 -389h873z" />
    <glyph glyph-name="emacron" unicode="&#x113;" horiz-adv-x="1205" vert-adv-y="2130" 
d="M1039 1225l-32 -202h-486l32 202h486zM599 -17q-101 0 -183.5 38.5t-135 105t-74 159.5t-4.5 199q34 215 192.5 358.5t363.5 143.5q194 0 304.5 -153t87.5 -388h-747q0 -127 59.5 -194t168.5 -67q77 0 153 54t136 148l182 -64q-92 -157 -226.5 -248.5t-276.5 -91.5z
M451 619h497q-21 76 -80.5 121t-141.5 45q-83 0 -156.5 -45t-118.5 -121z" />
    <glyph glyph-name="Ebreve" unicode="&#x114;" horiz-adv-x="1327" vert-adv-y="2130" 
d="M891 1433q-112 0 -180 102t-54 249h204q-5 -62 12.5 -104.5t49.5 -42.5q31 0 63 42.5t48 104.5h203q-33 -147 -133.5 -249t-212.5 -102zM1234 204l-32 -204h-1077l220 1390h1077l-32 -204h-873l-62 -389h820l-32 -204h-820l-62 -389h873z" />
    <glyph glyph-name="ebreve" unicode="&#x115;" horiz-adv-x="1205" vert-adv-y="2130" 
d="M761 1002q-108 0 -173 99t-52 242h201q-5 -59 11.5 -99t44.5 -40t56.5 40t43.5 99h200q-32 -143 -128 -242t-204 -99zM599 -17q-101 0 -183.5 38.5t-135 105t-74 159.5t-4.5 199q34 215 192.5 358.5t363.5 143.5q194 0 304.5 -153t87.5 -388h-747q0 -127 59.5 -194
t168.5 -67q77 0 153 54t136 148l182 -64q-92 -157 -226.5 -248.5t-276.5 -91.5zM451 619h497q-21 76 -80.5 121t-141.5 45q-83 0 -156.5 -45t-118.5 -121z" />
    <glyph glyph-name="Edotaccent" unicode="&#x116;" horiz-adv-x="1327" vert-adv-y="2130" 
d="M899 1481q-50 0 -80.5 36.5t-22.5 86.5t50 86t91 36q50 0 81 -36.5t23 -85.5q-8 -50 -50 -86.5t-92 -36.5zM1234 204l-32 -204h-1077l220 1390h1077l-32 -204h-873l-62 -389h820l-32 -204h-820l-62 -389h873z" />
    <glyph glyph-name="edotaccent" unicode="&#x117;" horiz-adv-x="1205" vert-adv-y="2130" 
d="M768 1048q-49 0 -79 35.5t-22 84.5q7 49 48.5 84.5t90.5 35.5t79 -35.5t22 -84.5q-7 -49 -48.5 -84.5t-90.5 -35.5zM599 -17q-101 0 -183.5 38.5t-135 105t-74 159.5t-4.5 199q34 215 192.5 358.5t363.5 143.5q194 0 304.5 -153t87.5 -388h-747q0 -127 59.5 -194
t168.5 -67q77 0 153 54t136 148l182 -64q-92 -157 -226.5 -248.5t-276.5 -91.5zM451 619h497q-21 76 -80.5 121t-141.5 45q-83 0 -156.5 -45t-118.5 -121z" />
    <glyph glyph-name="Ecaron" unicode="&#x11a;" horiz-adv-x="1327" vert-adv-y="2130" 
d="M1134 1810l107 -156l-353 -237l-276 237l156 156l161 -138zM1234 204l-32 -204h-1077l220 1390h1077l-32 -204h-873l-62 -389h820l-32 -204h-820l-62 -389h873z" />
    <glyph glyph-name="ecaron" unicode="&#x11b;" horiz-adv-x="1205" vert-adv-y="2130" 
d="M994 1381l105 -154l-340 -228l-267 228l155 154l153 -131zM599 -17q-101 0 -183.5 38.5t-135 105t-74 159.5t-4.5 199q34 215 192.5 358.5t363.5 143.5q194 0 304.5 -153t87.5 -388h-747q0 -127 59.5 -194t168.5 -67q77 0 153 54t136 148l182 -64q-92 -157 -226.5 -248.5
t-276.5 -91.5zM451 619h497q-21 76 -80.5 121t-141.5 45q-83 0 -156.5 -45t-118.5 -121z" />
    <glyph glyph-name="Gcircumflex" unicode="&#x11c;" horiz-adv-x="1619" vert-adv-y="2130" 
d="M1207 1424l-162 138l-204 -138l-108 156l353 238l276 -238zM844 -28q-147 0 -272 57t-206.5 154t-117.5 231t-13 281t101.5 281t190.5 231t255.5 154t290.5 57q184 0 338.5 -103t244.5 -285l-184 -120q-71 142 -186 223t-246 81q-141 0 -271 -69.5t-218.5 -189
t-111.5 -260.5q-22 -141 28.5 -260.5t159 -189t249.5 -69.5q122 0 240.5 55t208.5 153l30 193h-544l33 204h748l-72 -457q-131 -164 -310.5 -258t-365.5 -94z" />
    <glyph glyph-name="gcircumflex" unicode="&#x11d;" horiz-adv-x="1146" vert-adv-y="2130" 
d="M907 992l-152 131l-195 -131l-105 154l340 230l267 -230zM535 -359q-144 0 -245.5 93t-139.5 261h213q25 -73 78.5 -112.5t126.5 -39.5q106 0 180 60t90 161q-124 -83 -268 -83q-192 0 -297.5 143t-71.5 359q35 215 185.5 358.5t342.5 143.5q86 0 142.5 -22.5t94.5 -91.5
l16 101h202l-142 -896q-32 -198 -170 -316.5t-337 -118.5zM602 183q108 0 193.5 85.5t105.5 214.5q21 128 -37.5 214t-166.5 86q-107 0 -192.5 -86t-106.5 -214q-20 -129 38.5 -214.5t165.5 -85.5z" />
    <glyph glyph-name="Gbreve" unicode="&#x11e;" horiz-adv-x="1619" vert-adv-y="2130" 
d="M1025 1433q-112 0 -180 102t-54 249h203q-5 -62 13 -104.5t50 -42.5q31 0 62.5 42t47.5 105h204q-33 -147 -133.5 -249t-212.5 -102zM844 -28q-147 0 -272 57t-206.5 154t-117.5 231t-13 281t101.5 281t190.5 231t255.5 154t290.5 57q184 0 338.5 -103t244.5 -285
l-184 -120q-71 142 -186 223t-246 81q-141 0 -271 -69.5t-218.5 -189t-111.5 -260.5q-22 -141 28.5 -260.5t159 -189t249.5 -69.5q122 0 240.5 55t208.5 153l30 193h-544l33 204h748l-72 -457q-131 -164 -310.5 -258t-365.5 -94z" />
    <glyph glyph-name="gbreve" unicode="&#x11f;" horiz-adv-x="1146" vert-adv-y="2130" 
d="M736 1002q-108 0 -173 99t-52 242h201q-5 -59 11.5 -99t44.5 -40t56.5 40t42.5 99h201q-32 -143 -128 -242t-204 -99zM535 -359q-144 0 -245.5 93t-139.5 261h213q25 -73 78.5 -112.5t126.5 -39.5q106 0 180 60t90 161q-124 -83 -268 -83q-192 0 -297.5 143t-71.5 359
q35 215 185.5 358.5t342.5 143.5q86 0 142.5 -22.5t94.5 -91.5l16 101h202l-142 -896q-32 -198 -170 -316.5t-337 -118.5zM602 183q108 0 193.5 85.5t105.5 214.5q21 128 -37.5 214t-166.5 86q-107 0 -192.5 -86t-106.5 -214q-20 -129 38.5 -214.5t165.5 -85.5z" />
    <glyph glyph-name="Gdotaccent" unicode="&#x120;" horiz-adv-x="1619" vert-adv-y="2130" 
d="M1033 1481q-50 0 -81 36.5t-23 86.5t50 86t92 36t80.5 -36.5t22.5 -85.5q-8 -50 -50 -86.5t-91 -36.5zM844 -28q-147 0 -272 57t-206.5 154t-117.5 231t-13 281t101.5 281t190.5 231t255.5 154t290.5 57q184 0 338.5 -103t244.5 -285l-184 -120q-71 142 -186 223t-246 81
q-141 0 -271 -69.5t-218.5 -189t-111.5 -260.5q-22 -141 28.5 -260.5t159 -189t249.5 -69.5q122 0 240.5 55t208.5 153l30 193h-544l33 204h748l-72 -457q-131 -164 -310.5 -258t-365.5 -94z" />
    <glyph glyph-name="gdotaccent" unicode="&#x121;" horiz-adv-x="1146" vert-adv-y="2130" 
d="M743 1048q-49 0 -79 35.5t-22 84.5q7 49 48.5 84.5t90.5 35.5t79 -35.5t22 -84.5q-7 -49 -48.5 -84.5t-90.5 -35.5zM535 -359q-144 0 -245.5 93t-139.5 261h213q25 -73 78.5 -112.5t126.5 -39.5q106 0 180 60t90 161q-124 -83 -268 -83q-192 0 -297.5 143t-71.5 359
q35 215 185.5 358.5t342.5 143.5q86 0 142.5 -22.5t94.5 -91.5l16 101h202l-142 -896q-32 -198 -170 -316.5t-337 -118.5zM602 183q108 0 193.5 85.5t105.5 214.5q21 128 -37.5 214t-166.5 86q-107 0 -192.5 -86t-106.5 -214q-20 -129 38.5 -214.5t165.5 -85.5z" />
    <glyph glyph-name="Itilde" unicode="&#x128;" horiz-adv-x="480" vert-adv-y="2130" 
d="M412 1523l-98 -87l-122 146l103 87q75 66 151 66q72 0 127 -63l98 86l123 -146l-103 -87q-78 -66 -151 -66q-74 0 -128 64zM562 1390l-220 -1390h-204l220 1390h204z" />
    <glyph glyph-name="itilde" unicode="&#x129;" horiz-adv-x="505" vert-adv-y="2130" 
d="M360 1085l-93 -81l-121 144l101 85q75 64 145 64q68 0 121 -59l93 82l121 -144l-101 -85q-75 -64 -145 -64q-69 0 -121 58zM507 970l-154 -970h-201l154 970h201z" />
    <glyph glyph-name="Imacron" unicode="&#x12a;" horiz-adv-x="415" vert-adv-y="2130" 
d="M723 1660l-33 -205h-505l33 205h505zM530 1390l-220 -1390h-205l220 1390h205z" />
    <glyph glyph-name="imacron" unicode="&#x12b;" horiz-adv-x="442" vert-adv-y="2130" 
d="M658 1225l-32 -202h-486l32 202h486zM476 970l-154 -970h-202l154 970h202z" />
    <glyph glyph-name="Idotaccent" unicode="&#x130;" horiz-adv-x="449" vert-adv-y="2130" 
d="M459 1481q-50 0 -80.5 36.5t-22.5 86.5t50 86t91 36q50 0 81 -36.5t23 -85.5q-8 -50 -50 -86.5t-92 -36.5zM547 1390l-220 -1390h-205l220 1390h205z" />
    <glyph glyph-name="dotlessi" unicode="&#x131;" horiz-adv-x="498" vert-adv-y="2130" 
d="M504 970l-154 -970h-202l154 970h202z" />
    <glyph glyph-name="Nacute" unicode="&#x143;" vert-adv-y="2130" 
d="M1103 1843l106 -156l-397 -285l-104 157zM471 896l-142 -896h-204l220 1391l812 -861l136 860h205l-220 -1390z" />
    <glyph glyph-name="nacute" unicode="&#x144;" horiz-adv-x="1014" vert-adv-y="2130" 
d="M835 1407l104 -154l-384 -274l-101 155zM424 607l-96 -607h-203l154 971h202l-11 -65q85 59 209 66q71 4 133 -20t105 -70.5t62 -118.5t6 -158l-96 -605h-202l96 605q12 75 -32.5 127.5t-119.5 52.5q-73 0 -134 -52.5t-73 -125.5z" />
    <glyph glyph-name="Ncaron" unicode="&#x147;" vert-adv-y="2130" 
d="M1171 1810l107 -156l-353 -237l-276 237l156 156l161 -138zM471 896l-142 -896h-204l220 1391l812 -861l136 860h205l-220 -1390z" />
    <glyph glyph-name="ncaron" unicode="&#x148;" horiz-adv-x="1014" vert-adv-y="2130" 
d="M899 1376l106 -154l-342 -228l-265 228l154 154l152 -131zM424 607l-96 -607h-203l154 971h202l-11 -65q85 59 209 66q71 4 133 -20t105 -70.5t62 -118.5t6 -158l-96 -605h-202l96 605q12 75 -32.5 127.5t-119.5 52.5q-73 0 -134 -52.5t-73 -125.5z" />
    <glyph glyph-name="Omacron" unicode="&#x14c;" horiz-adv-x="1696" vert-adv-y="2130" 
d="M1364 1660l-33 -205h-505l33 205h505zM844 -28q-147 0 -272 57t-206.5 154t-117.5 231t-13 281t101.5 281t190.5 231t255.5 154t290.5 57t272 -57t206 -154t117 -231t13 -281q-31 -197 -154 -363.5t-304.5 -263t-378.5 -96.5zM876 176q215 0 391 152t210 367
q23 141 -27.5 260.5t-159.5 189t-250 69.5t-271 -69.5t-218.5 -189t-111.5 -260.5q-22 -141 28.5 -260.5t159 -189t249.5 -69.5z" />
    <glyph glyph-name="omacron" unicode="&#x14d;" horiz-adv-x="1204" vert-adv-y="2130" 
d="M1039 1225l-32 -202h-486l32 202h486zM599 -17q-101 0 -183.5 38.5t-135 105t-74 159.5t-4.5 199q34 215 192.5 358.5t363.5 143.5q101 0 183.5 -38.5t135 -105t74.5 -159.5t5 -199q-35 -215 -193.5 -358.5t-363.5 -143.5zM631 185q118 0 210.5 86t112.5 214
q20 129 -45 214.5t-183 85.5t-210 -85.5t-112 -214.5q-20 -128 44.5 -214t182.5 -86z" />
    <glyph glyph-name="Obreve" unicode="&#x14e;" horiz-adv-x="1696" vert-adv-y="2130" 
d="M1075 1433q-112 0 -180 102t-54 249h204q-5 -62 12.5 -104.5t49.5 -42.5q31 0 63 42.5t48 104.5h203q-33 -147 -133.5 -249t-212.5 -102zM844 -28q-147 0 -272 57t-206.5 154t-117.5 231t-13 281t101.5 281t190.5 231t255.5 154t290.5 57t272 -57t206 -154t117 -231
t13 -281q-31 -197 -154 -363.5t-304.5 -263t-378.5 -96.5zM876 176q215 0 391 152t210 367q23 141 -27.5 260.5t-159.5 189t-250 69.5t-271 -69.5t-218.5 -189t-111.5 -260.5q-22 -141 28.5 -260.5t159 -189t249.5 -69.5z" />
    <glyph glyph-name="obreve" unicode="&#x14f;" horiz-adv-x="1204" vert-adv-y="2130" 
d="M761 1002q-108 0 -173 99t-52 242h201q-5 -59 11.5 -99t44.5 -40t56.5 40t43.5 99h200q-32 -143 -128 -242t-204 -99zM599 -17q-101 0 -183.5 38.5t-135 105t-74 159.5t-4.5 199q34 215 192.5 358.5t363.5 143.5q101 0 183.5 -38.5t135 -105t74.5 -159.5t5 -199
q-35 -215 -193.5 -358.5t-363.5 -143.5zM631 185q118 0 210.5 86t112.5 214q20 129 -45 214.5t-183 85.5t-210 -85.5t-112 -214.5q-20 -128 44.5 -214t182.5 -86z" />
    <glyph glyph-name="Ohungarumlaut" unicode="&#x150;" horiz-adv-x="1696" vert-adv-y="2130" 
d="M1066 1916l154 -108l-318 -374l-152 112zM1324 1916l154 -108l-318 -374l-152 112zM844 -28q-147 0 -272 57t-206.5 154t-117.5 231t-13 281t101.5 281t190.5 231t255.5 154t290.5 57t272 -57t206 -154t117 -231t13 -281q-31 -197 -154 -363.5t-304.5 -263t-378.5 -96.5z
M876 176q215 0 391 152t210 367q23 141 -27.5 260.5t-159.5 189t-250 69.5t-271 -69.5t-218.5 -189t-111.5 -260.5q-22 -141 28.5 -260.5t159 -189t249.5 -69.5z" />
    <glyph glyph-name="ohungarumlaut" unicode="&#x151;" horiz-adv-x="1204" vert-adv-y="2130" 
d="M753 1469l152 -107l-307 -360l-151 111zM1016 1469l152 -107l-307 -360l-151 111zM599 -17q-101 0 -183.5 38.5t-135 105t-74 159.5t-4.5 199q34 215 192.5 358.5t363.5 143.5q101 0 183.5 -38.5t135 -105t74.5 -159.5t5 -199q-35 -215 -193.5 -358.5t-363.5 -143.5z
M631 185q118 0 210.5 86t112.5 214q20 129 -45 214.5t-183 85.5t-210 -85.5t-112 -214.5q-20 -128 44.5 -214t182.5 -86z" />
    <glyph glyph-name="OE" unicode="&#x152;" horiz-adv-x="2569" vert-adv-y="2130" 
d="M844 -28q-147 0 -272 57t-206.5 154t-117.5 231t-13 281t101.5 281t190.5 231t255.5 154t290.5 57q150 0 274.5 -57.5t208.5 -161.5l30 191h1078l-32 -204h-873l-62 -389h820l-32 -204h-820l-62 -389h873l-32 -204h-1078l30 190q-116 -103 -259 -160.5t-293 -57.5z
M876 176q207 0 379 142t216 347l10 60q21 205 -106.5 347t-334.5 142q-141 0 -271 -69.5t-218.5 -189t-111.5 -260.5q-22 -141 28.5 -260.5t159 -189t249.5 -69.5z" />
    <glyph glyph-name="oe" unicode="&#x153;" horiz-adv-x="1956" vert-adv-y="2130" 
d="M1382 185q77 0 153 54t136 148l182 -64q-92 -157 -226.5 -248.5t-276.5 -91.5q-115 0 -204.5 49t-141.5 136q-78 -87 -184 -136t-221 -49q-101 0 -183.5 38.5t-135 105t-74 159.5t-4.5 199q34 215 192.5 358.5t363.5 143.5q116 0 205.5 -49t140.5 -136q79 87 184 136
t221 49q194 0 304.5 -153t87.5 -388h-747q0 -127 59.5 -194t168.5 -67zM950 467l6 36q12 121 -53 201.5t-177 80.5q-118 0 -210 -85.5t-112 -214.5q-20 -128 44.5 -214t182.5 -86q112 0 202.5 80.5t116.5 201.5zM1477 785q-83 0 -156.5 -45t-118.5 -121h497
q-21 76 -80.5 121t-141.5 45z" />
    <glyph glyph-name="Racute" unicode="&#x154;" horiz-adv-x="1454" vert-adv-y="2130" 
d="M1107 1843l107 -156l-398 -285l-103 157zM400 451l-71 -451h-204l220 1390h691q128 0 226.5 -63t144.5 -171t26 -236q-23 -144 -121.5 -261.5t-237.5 -171.5l255 -487h-247l-237 451h-445zM1004 1186h-487l-84 -531h513q104 11 185 86.5t97 178.5q17 110 -48.5 188
t-175.5 78z" />
    <glyph glyph-name="racute" unicode="&#x155;" horiz-adv-x="773" vert-adv-y="2130" 
d="M714 1410l106 -154l-384 -275l-102 156zM424 605l-96 -605h-203l154 971l202 1l-10 -61q77 57 159 67.5t171 -13.5l-34 -211q-58 31 -136 31q-73 0 -134.5 -53t-72.5 -127z" />
    <glyph glyph-name="Rcaron" unicode="&#x158;" horiz-adv-x="1454" vert-adv-y="2130" 
d="M1176 1810l106 -156l-352 -237l-277 237l157 156l161 -138zM400 451l-71 -451h-204l220 1390h691q128 0 226.5 -63t144.5 -171t26 -236q-23 -144 -121.5 -261.5t-237.5 -171.5l255 -487h-247l-237 451h-445zM1004 1186h-487l-84 -531h513q104 11 185 86.5t97 178.5
q17 110 -48.5 188t-175.5 78z" />
    <glyph glyph-name="rcaron" unicode="&#x159;" horiz-adv-x="857" vert-adv-y="2130" 
d="M819 1369l105 -154l-340 -229l-267 229l155 154l152 -131zM424 605l-96 -605h-203l154 971l202 1l-10 -61q77 57 159 67.5t171 -13.5l-34 -211q-58 31 -136 31q-73 0 -134.5 -53t-72.5 -127z" />
    <glyph glyph-name="Sacute" unicode="&#x15a;" horiz-adv-x="1405" vert-adv-y="2130" 
d="M701 -28q-114 0 -212.5 38t-165.5 103.5t-101 156t-24 191.5h207q-10 -120 84.5 -202.5t243.5 -82.5q159 0 273 62t129 156q13 81 -73.5 136t-269.5 83q-257 40 -373 141t-91 261q24 152 156.5 259.5t326.5 135.5l-99 149l395 284l106 -156l-382 -275q47 6 99 6
q142 0 254 -62.5t169.5 -170.5t44.5 -237h-207q11 112 -74.5 189t-219.5 77q-144 0 -246.5 -56t-115.5 -143q-12 -73 68 -124.5t241 -74.5q274 -41 399.5 -147t98.5 -275q-29 -182 -210.5 -302t-430.5 -120z" />
    <glyph glyph-name="sacute" unicode="&#x15b;" horiz-adv-x="1086" vert-adv-y="2130" 
d="M873 1410l106 -154l-384 -274l-102 155zM543 -17q-171 0 -273 106.5t-88 269.5h203q-6 -83 53 -128.5t137 -45.5q81 0 151 28t78 78q2 15 -3 27t-20 22t-31.5 18t-44.5 15.5t-50.5 13t-58.5 12.5q-38 8 -68 15t-60.5 16t-53.5 18t-45.5 20.5t-38.5 24t-30 28t-22 33.5
t-13 39t-5 45.5t5 53.5q20 128 144 211.5t293 83.5q162 0 258 -102.5t83 -259.5h-202q4 71 -44 115.5t-127 44.5q-73 0 -133.5 -24.5t-67.5 -68.5q-6 -36 39 -56t145 -38q98 -19 162.5 -40.5t115 -56t69 -86.5t7.5 -124q-21 -133 -153 -220.5t-311 -87.5z" />
    <glyph glyph-name="Scircumflex" unicode="&#x15c;" horiz-adv-x="1405" vert-adv-y="2130" 
d="M1114 1424l-162 138l-204 -138l-107 156l352 238l277 -238zM701 -28q-114 0 -212.5 38t-165.5 103.5t-101 156t-24 191.5h207q-10 -120 84.5 -202.5t243.5 -82.5q159 0 273 62t129 156q13 81 -73.5 136t-269.5 83q-257 40 -373 141t-91 261q28 176 197.5 289.5
t404.5 113.5q142 0 254 -62.5t169.5 -170.5t44.5 -237h-207q11 112 -74.5 189t-219.5 77q-144 0 -246.5 -56t-115.5 -143q-12 -73 68 -124.5t241 -74.5q274 -41 399.5 -147t98.5 -275q-29 -182 -210.5 -302t-430.5 -120z" />
    <glyph glyph-name="scircumflex" unicode="&#x15d;" horiz-adv-x="1086" vert-adv-y="2130" 
d="M877 992l-153 131l-195 -131l-104 154l339 230l268 -230zM543 -17q-171 0 -273 106.5t-88 269.5h203q-6 -83 53 -128.5t137 -45.5q81 0 151 28t78 78q2 15 -3 27t-20 22t-31.5 18t-44.5 15.5t-50.5 13t-58.5 12.5q-38 8 -68 15t-60.5 16t-53.5 18t-45.5 20.5t-38.5 24
t-30 28t-22 33.5t-13 39t-5 45.5t5 53.5q20 128 144 211.5t293 83.5q162 0 258 -102.5t83 -259.5h-202q4 71 -44 115.5t-127 44.5q-73 0 -133.5 -24.5t-67.5 -68.5q-6 -36 39 -56t145 -38q98 -19 162.5 -40.5t115 -56t69 -86.5t7.5 -124q-21 -133 -153 -220.5t-311 -87.5z
" />
    <glyph glyph-name="Scedilla" unicode="&#x15e;" horiz-adv-x="1405" vert-adv-y="2130" 
d="M507 -421l25 153q30 -6 62.5 4.5t52.5 34.5h-109l34 214q-181 39 -286 170.5t-88 305.5h207q-10 -120 84.5 -202.5t243.5 -82.5q159 0 273 62t129 156q13 80 -73.5 135.5t-268.5 83.5q-257 40 -373.5 140.5t-91.5 261.5q28 176 197.5 289.5t404.5 113.5q142 0 254 -62.5
t169.5 -170.5t44.5 -237h-207q11 112 -74.5 189t-219.5 77q-144 0 -246.5 -56t-115.5 -143q-12 -73 68 -124.5t239 -74.5q277 -41 402 -147.5t98 -274.5q-28 -179 -204 -298t-419 -124l-9 -52h126l-16 -106q-16 -103 -108.5 -172t-204.5 -63z" />
    <glyph glyph-name="scedilla" unicode="&#x15f;" horiz-adv-x="1086" vert-adv-y="2130" 
d="M370 -421l25 153q30 -6 62.5 4.5t52.5 34.5h-109l35 225q-126 31 -196 129.5t-58 233.5h203q-6 -83 53 -128.5t137 -45.5q81 0 151 28t78 78q2 15 -3 27t-20 22t-31.5 18t-44.5 15.5t-50.5 13t-58.5 12.5q-38 8 -68 15t-60.5 16t-53.5 18t-45.5 20.5t-38.5 24t-30 28
t-22 33.5t-13 39t-5 45.5t5 53.5q20 128 144 211.5t293 83.5q162 0 258 -102.5t83 -259.5h-202q4 71 -44 115.5t-127 44.5q-73 0 -133.5 -24.5t-67.5 -68.5q-6 -36 39 -56t145 -38q98 -19 162.5 -40.5t115 -56t69 -86.5t7.5 -124q-19 -125 -138.5 -210.5t-285.5 -96.5
l-10 -64h126l-16 -106q-16 -103 -108.5 -172t-204.5 -63z" />
    <glyph glyph-name="Scaron" unicode="&#x160;" horiz-adv-x="1405" vert-adv-y="2130" 
d="M701 -28q-114 0 -212.5 38t-165.5 103.5t-101 156t-24 191.5h207q-10 -120 84.5 -202.5t243.5 -82.5q159 0 273 62t129 156q13 81 -73.5 136t-269.5 83q-257 40 -373 141t-91 261q28 176 197 289.5t404 113.5l-276 236l156 156l161 -138l205 138l107 -156l-351 -236
q215 -1 350.5 -137.5t116.5 -332.5h-207q11 112 -74.5 189t-219.5 77q-144 0 -246.5 -56t-115.5 -143q-12 -73 68 -124.5t241 -74.5q274 -41 399.5 -147t98.5 -275q-29 -182 -210.5 -302t-430.5 -120z" />
    <glyph glyph-name="scaron" unicode="&#x161;" horiz-adv-x="1086" vert-adv-y="2130" 
d="M938 1379l106 -154l-341 -228l-266 228l154 154l153 -131zM543 -17q-171 0 -273 106.5t-88 269.5h203q-6 -83 53 -128.5t137 -45.5q81 0 151 28t78 78q2 15 -3 27t-20 22t-31.5 18t-44.5 15.5t-50.5 13t-58.5 12.5q-38 8 -68 15t-60.5 16t-53.5 18t-45.5 20.5t-38.5 24
t-30 28t-22 33.5t-13 39t-5 45.5t5 53.5q20 128 144 211.5t293 83.5q162 0 258 -102.5t83 -259.5h-202q4 71 -44 115.5t-127 44.5q-73 0 -133.5 -24.5t-67.5 -68.5q-6 -36 39 -56t145 -38q98 -19 162.5 -40.5t115 -56t69 -86.5t7.5 -124q-21 -133 -153 -220.5t-311 -87.5z
" />
    <glyph glyph-name="Utilde" unicode="&#x168;" vert-adv-y="2130" 
d="M873 1523l-98 -87l-122 146l103 87q76 66 151 66q73 0 128 -64l97 87l123 -146l-103 -87q-77 -66 -151 -66t-128 64zM697 -28q-117 0 -216.5 45.5t-164.5 123t-94 184t-10 223.5l133 842h204l-133 -842q-25 -154 67 -263t246 -109t280 109t151 263l133 842h205l-133 -842
q-19 -117 -81.5 -223.5t-152 -184t-203.5 -123t-231 -45.5z" />
    <glyph glyph-name="utilde" unicode="&#x169;" horiz-adv-x="1014" vert-adv-y="2130" 
d="M615 1085l-93 -81l-121 144l101 85q75 64 145 64q68 0 121 -59l93 82l121 -144l-101 -85q-75 -64 -145 -64q-69 0 -121 58zM744 365l96 607h203l-154 -971h-202l10 65q-74 -56 -155.5 -72t-150 7.5t-121.5 72.5t-77 127t-10 166l96 605h202l-96 -605q-12 -75 32.5 -127.5
t119.5 -52.5q73 0 134 52.5t73 125.5z" />
    <glyph glyph-name="Umacron" unicode="&#x16a;" vert-adv-y="2130" 
d="M1217 1660l-33 -205h-505l33 205h505zM697 -28q-117 0 -216.5 45.5t-164.5 123t-94 184t-10 223.5l133 842h204l-133 -842q-25 -154 67 -263t246 -109t280 109t151 263l133 842h205l-133 -842q-19 -117 -81.5 -223.5t-152 -184t-203.5 -123t-231 -45.5z" />
    <glyph glyph-name="umacron" unicode="&#x16b;" horiz-adv-x="1014" vert-adv-y="2130" 
d="M944 1225l-32 -202h-485l32 202h485zM744 365l96 607h203l-154 -971h-202l10 65q-74 -56 -155.5 -72t-150 7.5t-121.5 72.5t-77 127t-10 166l96 605h202l-96 -605q-12 -75 32.5 -127.5t119.5 -52.5q73 0 134 52.5t73 125.5z" />
    <glyph glyph-name="Ubreve" unicode="&#x16c;" vert-adv-y="2130" 
d="M928 1433q-112 0 -180 102t-54 249h204q-5 -62 12.5 -104.5t49.5 -42.5t63.5 42t47.5 105h203q-33 -147 -133.5 -249t-212.5 -102zM697 -28q-117 0 -216.5 45.5t-164.5 123t-94 184t-10 223.5l133 842h204l-133 -842q-25 -154 67 -263t246 -109t280 109t151 263l133 842
h205l-133 -842q-19 -117 -81.5 -223.5t-152 -184t-203.5 -123t-231 -45.5z" />
    <glyph glyph-name="ubreve" unicode="&#x16d;" horiz-adv-x="1014" vert-adv-y="2130" 
d="M666 1002q-108 0 -173 99t-51 242h201q-5 -59 11 -99t44 -40t56.5 39.5t43.5 99.5h201q-33 -144 -129 -242.5t-204 -98.5zM744 365l96 607h203l-154 -971h-202l10 65q-74 -56 -155.5 -72t-150 7.5t-121.5 72.5t-77 127t-10 166l96 605h202l-96 -605q-12 -75 32.5 -127.5
t119.5 -52.5q73 0 134 52.5t73 125.5z" />
    <glyph glyph-name="Uring" unicode="&#x16e;" vert-adv-y="2130" 
d="M926 1430q-83 0 -132.5 59.5t-36.5 142.5q14 83 82 142t151 59t132.5 -59t36.5 -142t-81.5 -142.5t-151.5 -59.5zM948 1564q28 0 51 20.5t28 49.5t-12 49.5t-45 20.5q-29 0 -52 -20.5t-28 -49.5t12 -49.5t46 -20.5zM697 -28q-117 0 -216.5 45.5t-164.5 123t-94 184
t-10 223.5l133 842h204l-133 -842q-25 -154 67 -263t246 -109t280 109t151 263l133 842h205l-133 -842q-19 -117 -81.5 -223.5t-152 -184t-203.5 -123t-231 -45.5z" />
    <glyph glyph-name="uring" unicode="&#x16f;" horiz-adv-x="1014" vert-adv-y="2130" 
d="M666 992q-83 0 -132.5 59.5t-36.5 142.5q14 83 82 142t151 59t132.5 -59t36.5 -142t-81.5 -142.5t-151.5 -59.5zM687 1126q28 0 51 20.5t28 49.5t-11.5 49.5t-44.5 20.5q-29 0 -52.5 -20.5t-28.5 -49.5t12 -49.5t46 -20.5zM744 365l96 607h203l-154 -971h-202l10 65
q-74 -56 -155.5 -72t-150 7.5t-121.5 72.5t-77 127t-10 166l96 605h202l-96 -605q-12 -75 32.5 -127.5t119.5 -52.5q73 0 134 52.5t73 125.5z" />
    <glyph glyph-name="Uhungarumlaut" unicode="&#x170;" vert-adv-y="2130" 
d="M919 1916l154 -108l-318 -374l-152 112zM1177 1916l155 -108l-319 -374l-152 112zM697 -28q-117 0 -216.5 45.5t-164.5 123t-94 184t-10 223.5l133 842h204l-133 -842q-25 -154 67 -263t246 -109t280 109t151 263l133 842h205l-133 -842q-19 -117 -81.5 -223.5t-152 -184
t-203.5 -123t-231 -45.5z" />
    <glyph glyph-name="uhungarumlaut" unicode="&#x171;" horiz-adv-x="1014" vert-adv-y="2130" 
d="M650 1469l152 -107l-307 -360l-151 111zM913 1469l152 -107l-307 -360l-151 111zM744 365l96 607h203l-154 -971h-202l10 65q-74 -56 -155.5 -72t-150 7.5t-121.5 72.5t-77 127t-10 166l96 605h202l-96 -605q-12 -75 32.5 -127.5t119.5 -52.5q73 0 134 52.5t73 125.5z
" />
    <glyph glyph-name="Wcircumflex" unicode="&#x174;" horiz-adv-x="2225" vert-adv-y="2130" 
d="M1526 1424l-162 138l-205 -138l-107 156l353 238l276 -238zM2096 1380h214l-779 -1380l-254 1038l-583 -1037l-341 1379h215l211 -845l477 845h151l210 -845z" />
    <glyph glyph-name="wcircumflex" unicode="&#x175;" horiz-adv-x="1560" vert-adv-y="2130" 
d="M1111 992l-153 131l-194 -131l-105 154l339 230l268 -230zM1042 0l-157 654l-365 -654l-235 970h206l110 -461l259 461h149l113 -461l257 461h204z" />
    <glyph glyph-name="Ycircumflex" unicode="&#x176;" horiz-adv-x="1621" vert-adv-y="2130" 
d="M1250 1424l-163 138l-204 -138l-107 156l352 238l277 -238zM1027 534l-85 -534h-204l85 534l-464 856h251l347 -649l553 649h252z" />
    <glyph glyph-name="ycircumflex" unicode="&#x177;" horiz-adv-x="1254" vert-adv-y="2130" 
d="M958 992l-153 131l-195 -131l-105 154l340 230l267 -230zM1274 970l-873 -1400h-212l354 564l-255 836h223l175 -599l365 599h223z" />
    <glyph glyph-name="Ydieresis" unicode="&#x178;" horiz-adv-x="1621" vert-adv-y="2130" 
d="M946 1452q-49 0 -80 36t-23 86t50 86.5t92 36.5t80.5 -36.5t22.5 -86.5t-50 -86t-92 -36zM1195 1452q-49 0 -80 36t-23 86t50 86.5t92 36.5t80.5 -36.5t22.5 -86.5q-7 -49 -49.5 -85.5t-92.5 -36.5zM1027 534l-85 -534h-204l85 534l-464 856h251l347 -649l553 649h252z
" />
    <glyph glyph-name="Zacute" unicode="&#x179;" horiz-adv-x="1704" vert-adv-y="2130" 
d="M1254 1843l106 -156l-397 -285l-104 157zM1461 204l-32 -204h-1287l1174 1186h-834l32 204h1268l-1173 -1186h852z" />
    <glyph glyph-name="zacute" unicode="&#x17a;" horiz-adv-x="1047" vert-adv-y="2130" 
d="M851 1412l105 -154l-383 -275l-103 156zM954 202l-32 -202h-797l25 158l598 611h-468l32 201h764l-25 -158l-599 -610h502z" />
    <glyph glyph-name="Zdotaccent" unicode="&#x17b;" horiz-adv-x="1704" vert-adv-y="2130" 
d="M1087 1481q-50 0 -80.5 36.5t-22.5 86.5t50 86t91 36q50 0 81 -36.5t23 -85.5q-8 -50 -50 -86.5t-92 -36.5zM1461 204l-32 -204h-1287l1174 1186h-834l32 204h1268l-1173 -1186h852z" />
    <glyph glyph-name="zdotaccent" unicode="&#x17c;" horiz-adv-x="1047" vert-adv-y="2130" 
d="M689 1048q-49 0 -79 35.5t-22 84.5q7 49 48.5 84.5t90.5 35.5t79 -35.5t22 -84.5q-7 -49 -48.5 -84.5t-90.5 -35.5zM954 202l-32 -202h-797l25 158l598 611h-468l32 201h764l-25 -158l-599 -610h502z" />
    <glyph glyph-name="Zcaron" unicode="&#x17d;" horiz-adv-x="1704" vert-adv-y="2130" 
d="M1322 1810l107 -156l-353 -237l-276 237l156 156l161 -138zM1461 204l-32 -204h-1287l1174 1186h-834l32 204h1268l-1173 -1186h852z" />
    <glyph glyph-name="zcaron" unicode="&#x17e;" horiz-adv-x="1047" vert-adv-y="2130" 
d="M914 1369l105 -154l-340 -229l-267 229l155 154l152 -131zM954 202l-32 -202h-797l25 158l598 611h-468l32 201h764l-25 -158l-599 -610h502z" />
    <glyph glyph-name="circumflex" unicode="&#x2c6;" horiz-adv-x="1109" vert-adv-y="2130" 
d="M885 992l-153 131l-194 -131l-105 154l339 230l268 -230z" />
    <glyph glyph-name="caron" unicode="&#x2c7;" horiz-adv-x="1109" vert-adv-y="2130" 
d="M945 1369l105 -154l-340 -229l-267 229l155 154l152 -131z" />
    <glyph glyph-name="breve" unicode="&#x2d8;" horiz-adv-x="1047" vert-adv-y="2130" 
d="M682 1002q-108 0 -173 99t-51 242h201q-5 -59 11 -99t44 -40t56.5 39.5t43.5 99.5h201q-33 -144 -129 -242.5t-204 -98.5z" />
    <glyph glyph-name="dotaccent" unicode="&#x2d9;" horiz-adv-x="544" vert-adv-y="2130" 
d="M438 1048q-49 0 -79 35.5t-22 84.5q7 49 48.5 84.5t90.5 35.5t79 -35.5t22 -84.5q-7 -49 -48.5 -84.5t-90.5 -35.5z" />
    <glyph glyph-name="ring" unicode="&#x2da;" horiz-adv-x="892" vert-adv-y="2130" 
d="M603 992q-83 0 -132.5 59.5t-36.5 142.5q14 83 82 142t151 59t132.5 -59t36.5 -142t-81.5 -142.5t-151.5 -59.5zM624 1126q28 0 51 20.5t28 49.5t-11.5 49.5t-44.5 20.5q-29 0 -52.5 -20.5t-28.5 -49.5t12 -49.5t46 -20.5z" />
    <glyph glyph-name="tilde" unicode="&#x2dc;" horiz-adv-x="1079" vert-adv-y="2130" 
d="M647 1085l-93 -81l-121 144l101 85q75 64 145 64q68 0 121 -59l93 82l121 -144l-101 -85q-75 -64 -145 -64q-69 0 -121 58z" />
    <glyph glyph-name="hungarumlaut" unicode="&#x2dd;" horiz-adv-x="1004" vert-adv-y="2130" 
d="M645 1469l152 -107l-307 -360l-151 111zM908 1469l152 -107l-307 -360l-151 111z" />
    <glyph glyph-name="Wgrave" unicode="&#x1e80;" horiz-adv-x="2225" vert-adv-y="2130" 
d="M1322 1844l308 -285l-157 -157l-304 285zM2096 1380h214l-779 -1380l-254 1038l-583 -1037l-341 1379h215l211 -845l477 845h151l210 -845z" />
    <glyph glyph-name="wgrave" unicode="&#x1e81;" horiz-adv-x="1560" vert-adv-y="2130" 
d="M898 1414l296 -275l-154 -154l-294 274zM1042 0l-157 654l-365 -654l-235 970h206l110 -461l259 461h149l113 -461l257 461h204z" />
    <glyph glyph-name="Wacute" unicode="&#x1e82;" horiz-adv-x="2225" vert-adv-y="2130" 
d="M1474 1843l107 -156l-398 -285l-103 157zM2096 1380h214l-779 -1380l-254 1038l-583 -1037l-341 1379h215l211 -845l477 845h151l210 -845z" />
    <glyph glyph-name="wacute" unicode="&#x1e83;" horiz-adv-x="1560" vert-adv-y="2130" 
d="M1106 1400l105 -154l-383 -275l-103 156zM1042 0l-157 654l-365 -654l-235 970h206l110 -461l259 461h149l113 -461l257 461h204z" />
    <glyph glyph-name="Wdieresis" unicode="&#x1e84;" horiz-adv-x="2225" vert-adv-y="2130" 
d="M1217 1452q-49 0 -80 36t-23 86t50 86.5t92 36.5t80.5 -36.5t22.5 -86.5t-50 -86t-92 -36zM1466 1452q-50 0 -81 36t-23 86t50.5 86.5t92.5 36.5t80 -36.5t22 -86.5q-7 -49 -49 -85.5t-92 -36.5zM2096 1380h214l-779 -1380l-254 1038l-583 -1037l-341 1379h215l211 -845
l477 845h151l210 -845z" />
    <glyph glyph-name="wdieresis" unicode="&#x1e85;" horiz-adv-x="1560" vert-adv-y="2130" 
d="M818 1018q-50 0 -80 36.5t-22 85.5q7 50 49 86.5t92 36.5t81 -36.5t23 -86.5t-50.5 -86t-92.5 -36zM1067 1018q-50 0 -80.5 36t-22.5 86q7 50 49.5 86.5t92.5 36.5t80 -36.5t23 -86.5q-8 -50 -50.5 -86t-91.5 -36zM1042 0l-157 654l-365 -654l-235 970h206l110 -461
l259 461h149l113 -461l257 461h204z" />
    <glyph glyph-name="endash" unicode="&#x2013;" horiz-adv-x="1164" vert-adv-y="2130" 
d="M1086 628l-32 -202h-810l32 202h810z" />
    <glyph glyph-name="emdash" unicode="&#x2014;" horiz-adv-x="1665" vert-adv-y="2130" 
d="M1587 628l-32 -202h-1311l32 202h1311z" />
    <glyph glyph-name="quoteleft" unicode="&#x2018;" horiz-adv-x="620" vert-adv-y="2130" 
d="M621 1320l50 -349h-208l-85 349h243z" />
    <glyph glyph-name="quoteright" unicode="&#x2019;" horiz-adv-x="604" vert-adv-y="2130" 
d="M666 1320l-195 -349h-208l160 349h243z" />
    <glyph glyph-name="quotesinglbase" unicode="&#x201a;" horiz-adv-x="628" vert-adv-y="2130" 
d="M515 369l-195 -350h-208l160 350h243z" />
    <glyph glyph-name="quotedblleft" unicode="&#x201c;" horiz-adv-x="830" vert-adv-y="2130" 
d="M495 1319l84 -347h-212l-49 347h177zM745 1319l84 -347h-212l-49 347h177z" />
    <glyph glyph-name="quotedblright" unicode="&#x201d;" horiz-adv-x="814" vert-adv-y="2130" 
d="M634 1319l-194 -347h-177l159 347h212zM884 1319l-194 -347h-177l159 347h212z" />
    <glyph glyph-name="quotedblbase" unicode="&#x201e;" horiz-adv-x="840" vert-adv-y="2130" 
d="M483 367l-194 -347h-177l159 347h212zM733 367l-194 -347h-177l159 347h212z" />
    <glyph glyph-name="dagger" unicode="&#x2020;" horiz-adv-x="861" vert-adv-y="2130" 
d="M674 902l-64 -401h-202l64 401h-170l32 202h170l34 217h202l-34 -217h171l-32 -202h-171z" />
    <glyph glyph-name="daggerdbl" unicode="&#x2021;" horiz-adv-x="869" vert-adv-y="2130" 
d="M569 217l-34 -217h-202l34 217h-170l32 202h170l77 483h-170l32 202h170l34 217h202l-34 -217h171l-32 -202h-171l-77 -483h171l-32 -202h-171z" />
    <glyph glyph-name="bullet" unicode="&#x2022;" horiz-adv-x="809" vert-adv-y="2130" 
d="M483 493q-70 0 -111 49t-30 119q11 69 67.5 118t126.5 49q69 0 110.5 -49t30.5 -118q-11 -70 -68 -119t-126 -49z" />
    <glyph glyph-name="ellipsis" unicode="&#x2026;" horiz-adv-x="1095" vert-adv-y="2130" 
d="M279 0q-49 0 -79 35.5t-22 84.5q7 49 48.5 84.5t90.5 35.5t79 -35.5t22 -84.5q-7 -49 -48.5 -84.5t-90.5 -35.5zM547 0q-49 0 -79 35.5t-22 84.5q7 49 48.5 84.5t90.5 35.5t79 -35.5t22 -84.5q-7 -49 -48.5 -84.5t-90.5 -35.5zM812 0q-49 0 -79 35.5t-22 84.5
q7 49 48.5 84.5t90.5 35.5t79 -35.5t22 -84.5q-7 -49 -48.5 -84.5t-90.5 -35.5z" />
    <glyph glyph-name="guilsinglleft" unicode="&#x2039;" horiz-adv-x="881" vert-adv-y="2130" 
d="M502 492l244 -291l-165 -142l-364 433l502 433l119 -142z" />
    <glyph glyph-name="guilsinglright" unicode="&#x203a;" horiz-adv-x="881" vert-adv-y="2130" 
d="M456 925l364 -433l-502 -433l-119 142l337 291l-245 291z" />
    <glyph glyph-name="fraction" unicode="&#x2044;" horiz-adv-x="1492" vert-adv-y="2130" 
d="M1521 1358l115 -138l-1456 -1256l-115 137z" />
    <glyph glyph-name="Euro" unicode="&#x20ac;" horiz-adv-x="1387" vert-adv-y="1700" 
d="M772 -27q-190 0 -309 110t-148 310h-116l32 201h81q3 29 9 67q2 13 2.5 21t0.5 10t0.5 5.5t2 9.5t6.5 20h-81l32 202h116q92 199 246.5 309t343.5 110q122 0 227.5 -66.5t185.5 -194.5l-167 -141q-126 200 -278 200q-103 0 -192.5 -57t-151.5 -160h480l-32 -202h-527
q-10 -44 -13 -66q-2 -14 -4 -24t-3 -11t-1.5 -6t-0.5 -8t1 -18h527l-32 -201h-480q30 -103 101 -160.5t174 -57.5q153 0 341 200l123 -141q-249 -261 -496 -261z" />
    <glyph glyph-name="trademark" unicode="&#x2122;" horiz-adv-x="1236" vert-adv-y="2130" 
d="M574 1242l-43 -271h-144l43 271h-116l23 144h367v1h81l103 -202l168 202h81l-66 -416h-112l21 136l-126 -136l-83 136l-21 -136h-112l43 271h-107z" />
    <glyph glyph-name="minus" unicode="&#x2212;" horiz-adv-x="1163" vert-adv-y="2130" 
d="M1083 711l-32 -201h-777l32 201h777z" />
    <glyph glyph-name="uniF8FF" unicode="&#xf8ff;" horiz-adv-x="1980" vert-adv-y="2130" 
d="M1860 1615v-1869h-1740v1869h1740zM1266 1384h-890v-1194h203v344h687v183h-687v491h687v176zM1398 375h-685v-185h888v1194h-203v-334h-685v-190h685v-485zM559 -2q30 0 50.5 19.5t20.5 49.5t-20.5 49.5t-50.5 19.5t-51 -19.5t-21 -49.5t21 -49.5t51 -19.5zM1095 -2
q22 0 37.5 11t15.5 31q0 11 -6 21q-4 5 -15 13q-9 5 -24 8q-25 3 -25 16q0 9 14 9q17 0 43 -14l13 28q-28 15 -53 15q-22 0 -37.5 -10.5t-15.5 -31.5q0 -13 6 -20q3 -6 15 -12l10.5 -3.5t12.5 -4.5q14 -4 23 -8q3 -3 3 -8q0 -6 -6 -8q-6 -3 -11 -3q-27 0 -48 21l-14 -28
q27 -22 62 -22zM1402 -2q29 0 56 25l-21 21q-15 -15 -32 -15q-21 0 -31 19q-5 6 -5 20q0 16 9.5 27t26.5 11q21 0 32 -18l20 25q-20 23 -52 23q-31 0 -51.5 -19.5t-20.5 -49.5q0 -29 20 -49t49 -20zM480 134h-99v-134h35v48h58v28h-58v30h64v28zM678 134h-31v-134h33v80
l60 -80h29v134h-32l1 -81zM785 105h39v-105h33v105h41v29h-113v-29zM976 134h-35l-56 -134h34l10 23h57l9 -23h37zM1154 105h39v-105h35v105h40v29h-114v-29zM1316 134h-34v-134h34v134zM1550 134h-36l-57 -134h36l8 23h59l8 -23h37zM559 28q-16 0 -26 11.5t-10 27.5
t10 27.5t26 11.5q23 0 31 -20q4 -10 4 -19q0 -16 -10 -27.5t-25 -11.5zM959 98l17 -48h-37zM1530 98l19 -48h-37zM671 -342v-69h-23v69h-13v12l13 6v6q0 15 7 22q7 6 23 6q13 0 22 -3l-6 -18q-4 2 -13 2q-5 0 -7 -3q-3 -2 -3 -7v-5h21v-18h-21zM1233 -314q-12 0 -12 12
t12 12q13 0 13 -12q0 -6 -3 -9t-10 -3zM938 -412q-14 0 -21 6q-6 8 -6 22v42h-11v10l12 8l7 19h16v-19h24v-18h-24v-42q0 -3 2 -7q4 -2 8 -2q3 0 15 2v-18q-9 -3 -22 -3zM1183 -412q-15 0 -21 6q-7 7 -7 22v42h-12v10l14 8l7 19h14v-19h25v-18h-25v-42q0 -4 4 -7q4 -2 7 -2
t15 2v-18q-9 -3 -21 -3zM998 -412q-12 0 -19 6q-8 8 -8 21q0 14 11 21q8 6 29 7h14v4q0 13 -13 13q-10 0 -24 -6l-8 16q16 8 33 8q16 0 27 -8q9 -8 9 -23v-58h-17l-4 11h-1q-8 -8 -12 -10t-17 -2zM1373 -412q-13 0 -20 6q-7 7 -7 21t10 21q8 5 29 7h15v4q0 13 -13 13
q-11 0 -25 -6l-8 16q16 8 34 8q15 0 26 -8q9 -8 9 -23v-58h-17l-4 11h-1q-5 -7 -11 -10q-4 -2 -17 -2zM742 -412q-13 0 -22 5q-9 4 -15 16q-5 12 -5 23q0 20 11 34q11 11 31 11q14 0 22 -5q10 -4 16 -16q5 -10 5 -24q0 -20 -12 -33q-10 -11 -31 -11zM827 -371v-40h-24v87h19
l3 -11h1q5 7 12 9q6 3 15 3q16 0 23 -8q8 -8 8 -23v-57h-24v51q0 10 -3 14t-11 4q-10 0 -14 -6q-5 -8 -5 -23zM1097 -412q-12 0 -16 1l-12 3v20q2 -1 7 -2.5t7 -2.5l15 -3q13 0 13 8q0 3 -2 5l-6 4q-1 0 -5 2t-7 3q-7 2 -14 7q-5 5 -6 9q-2 3 -2 11q0 13 8 18q9 6 26 6
t30 -6l-7 -18l-12 5q-4 1 -12 1q-11 0 -11 -5q0 -4 4 -5q5 -3 15 -7l15 -7l7 -9q2 -6 2 -11q0 -13 -9 -21q-11 -6 -28 -6zM1305 -412q-41 0 -41 43q0 21 12 35q10 11 31 11q15 0 27 -5l-6 -19q-3 1 -7 3l-4 1q-1 0 -4.5 0.5t-5.5 0.5q-18 0 -18 -26q0 -25 18 -25q5 0 13 2
q6 2 12 5v-20q-2 -2 -12 -5q-4 -1 -15 -1zM1528 -412q-40 0 -40 43q0 24 10 35q11 11 33 11q13 0 26 -5l-7 -19l-10 4q-2 0 -5 0.5t-4 0.5q-19 0 -19 -26q0 -25 19 -25q4 0 12 2q6 1 11 5v-20q-3 -3 -11 -5q-4 -1 -15 -1zM1611 -412q-13 0 -21 5q-11 5 -15 16q-5 9 -5 23
q0 21 10 34q11 11 31 11q15 0 23 -5q11 -6 15 -16q5 -10 5 -24q0 -20 -12 -33q-10 -11 -31 -11zM1697 -371v-40h-24v87h18l3 -11h2q3 6 10 9q6 3 15 3q20 0 26 -12h2q5 6 10 9q9 3 16 3q16 0 23 -7t7 -24v-57h-24v51q0 10 -3 14t-10 4q-8 0 -13 -6q-4 -5 -4 -20v-43h-24v51
q0 10 -3 14t-10 4q-8 0 -13 -6q-4 -7 -4 -23zM245 -343l-15 -68h-26l-24 87h23l10 -38q1 -2 5 -29q0 6 3 18l1 8l11 41h27l9 -41q1 -2 1 -6q0 -1 1 -3.5t1 -3.5q0 -5 1 -7v-6h1q0 3 2 15l2 14l12 38h23l-25 -87h-26l-7 30l-9 38h-1zM382 -343l-17 -68h-24l-25 87h23l10 -38
q4 -16 5 -29h1q0 2 2 18l1 8l12 41h25l11 -41q0 -4 1 -6l1 -7q0 -2 0.5 -4t0.5 -3q0 -2 0.5 -3.5t0.5 -2.5q0 3 2 15q1 3 2 8t1 6l10 38h23l-25 -87h-26l-6 30zM518 -343l-16 -68h-26l-25 87h24l11 -38q0 -2 1.5 -12t2.5 -17h1q0 6 3 18l1 8l10 41h26l10 -41q0 -1 0.5 -3
t0.5 -3t1 -3.5t1 -3.5q1 -3 1 -7q1 -3 1 -6l3 15l2 14l10 38h24l-25 -87h-26l-7 30l-8 38h-1zM1245 -324v-87h-23v87h23zM742 -393q10 0 14 6q4 5 4 19q0 15 -4 20q-4 6 -14 6t-13 -6q-4 -5 -4 -20q0 -12 4 -19q3 -6 13 -6zM1611 -393q11 0 14 6q4 5 4 19q0 15 -4 20
q-3 6 -14 6q-9 0 -13 -6q-4 -5 -4 -20q0 -12 4 -19q4 -6 13 -6zM1008 -396q5 0 13 6q4 4 4 12v7h-8q-13 -2 -16 -4q-5 -3 -5 -10q0 -11 12 -11zM1381 -396q8 0 14 6q5 5 5 12v7h-9q-12 -2 -16 -4q-5 -3 -5 -10q0 -11 11 -11zM609 -413q-5 0 -11 3q-3 4 -3 10q0 7 3 10
q6 3 11 3q7 0 10 -3t3 -10q0 -6 -3 -10q-5 -3 -10 -3zM1458 -413q-6 0 -10 3q-3 5 -3 10q0 7 3 10t10 3q6 0 10 -3q4 -4 4 -10q0 -4 -4 -10q-5 -3 -10 -3z" />
    <glyph glyph-name="_Fontastica" horiz-adv-x="1458" vert-adv-y="2130" 
d="M322 521v-340h-196q-3 0 -4.5 2t-1.5 4v2v1178h884v-174h-682v-490h682v-182h-682zM1338 1367v-1186h-884v184h682v482h-682v188h682v332h202zM836 -1q-35 0 -61 21l14 28q7 -8 22 -14.5t25 -6.5q4 0 13 3q5 5 5 8q0 5 -4 8q-11 6 -22 9q-19 6 -23 8q-10 2 -15 11
q-6 6 -6 21q0 20 15.5 30.5t36.5 10.5q26 0 53 -15l-13 -28q-23 14 -43 14q-13 0 -13 -9q0 -10 24 -17q19 -4 24 -7q10 -6 15 -12q6 -9 6 -22q0 -20 -15.5 -30.5t-37.5 -10.5zM302 -2q-30 0 -50.5 19.5t-20.5 49.5t20.5 49t50.5 19t50.5 -19t20.5 -49t-20 -49.5t-51 -19.5z
M1143 -2q-29 0 -48.5 20t-19.5 49q0 30 20 49t50 19q33 0 53 -23l-20 -24q-13 18 -32 18q-17 0 -27 -11t-10 -27q0 -12 5 -20q10 -19 32 -19q19 0 32 15l21 -21q-27 -25 -56 -25zM159 48v-47h-34v132h99v-27h-65v-30h59v-28h-59zM423 80v-79h-33v132h30l61 -79l-1 79h33
v-132h-30zM600 105v-104h-33v104h-40v28h114v-28h-41zM671 24l-9 -23h-35l56 132h35l56 -132h-36l-10 23h-57zM970 105v-104h-36v104h-38v28h112v-28h-38zM1057 133v-132h-34v132h34zM1242 24l-9 -23h-35l56 132h36l55 -132h-37l-9 23h-57zM303 27q15 0 25 12.5t10 27.5
q0 4 -5 19q-7 20 -30 20q-16 0 -26.5 -11.5t-10.5 -27.5t10.5 -28t26.5 -12zM717 50l-16 48l-20 -48h36zM1289 50l-18 48l-18 -48h36z" />
    <glyph glyph-name="_VendorID" horiz-adv-x="1123" vert-adv-y="2130" 
d="M777 772q-101 0 -166 54t-53 127h73q-16 -43 29.5 -78t116.5 -35q64 0 107 26.5t43 65.5q0 67 -152 91q-204 29 -204 153q0 67 58.5 110t147.5 43q94 0 155.5 -52t49.5 -122h-74q17 40 -24 72.5t-107 32.5q-59 0 -97.5 -23.5t-38.5 -60.5q0 -30 36.5 -52t102.5 -32
q218 -30 218 -160q0 -70 -62.5 -115t-158.5 -45zM190 1016v-233h-70v535h413v-69h-343v-164h323v-69h-323zM777 143q-101 0 -166 54t-53 127h73q-16 -42 29.5 -76.5t116.5 -34.5q65 0 107.5 25.5t42.5 64.5q0 69 -152 92q-100 14 -152 53.5t-52 99.5q0 67 58.5 110t147.5 43
q94 0 155.5 -52t49.5 -122h-74q17 39 -24.5 72t-106.5 33q-58 0 -97 -24t-39 -60q0 -63 139 -83q218 -32 218 -162q0 -69 -62.5 -114.5t-158.5 -45.5zM190 387v-233h-70v535h413v-68h-343v-164h323v-70h-323zM392 98v-37h-12v37h-7v7l7 3v3q0 8 5 11q0 4 11 4q9 0 13 -2
l-4 -10q-3 1 -8 1q-3 0 -4 -1q-1 -2 -1 -4v-2h11v-10h-11zM695 113q-7 0 -7 6q0 7 7 7t7 -7q0 -4 -1 -5q-1 0 -3 -0.5t-3 -0.5zM536 60q-6 0 -12 4q-4 4 -4 12v22h-4v5l5 5l5 9h8v-9h13v-10h-13v-22q0 -2 2 -4q2 -1 4 -1q1 0 3.5 0.5t4.5 0.5v-10q-8 -2 -12 -2zM668 60
q-8 0 -12 4q-3 2 -3 12v22h-7v5l7 5l4 9h8v-9h14v-10h-14v-22q0 -3 2 -4l4 -1l8 1v-10q-4 -2 -11 -2zM568 60q-4 0 -10 4q-5 3 -5 11q0 7 7 11q2 2 16 4h6v2q0 7 -6 7t-13 -3l-5 9q12 4 19 4q4 0 14 -4q4 -4 4 -13v-31h-9l-2 5h-1q-1 0 -2.5 -2t-2.5 -2q-2 -2 -10 -2z
M771 60q-4 0 -12 4q-4 3 -4 11q0 7 6 11q1 2 16 4h8v2q0 7 -7 7q-6 0 -15 -3l-3 9q10 4 18 4q4 0 14 -4q5 -4 5 -13v-31h-10l-1 5h-1l-6 -4q-2 -2 -8 -2zM163 97l-8 -36h-14l-13 47h13l5 -20l3 -16q0 5 1 8l1 6l5 22h15l5 -22q1 -2 1 -4v-4q0 -1 1 -3v-3q0 3 2 7q0 2 0.5 5
t0.5 4l7 20h12l-13 -47h-15l-4 16l-4 20h-1zM237 97l-10 -36h-12l-14 47h13l5 -20q2 -12 2 -16h1q0 1 0.5 3.5t0.5 4.5l1 6l6 22h13l7 -22v-8v-1q1 -1 1 -2v-3q0 3 2 7q0 7 1 9l5 20h14l-15 -47h-13l-4 16zM310 97l-10 -36h-13l-12 47h12l5 -20q0 -3 1 -8t1 -8h1q0 2 2 8
l1 6l4 22h16l4 -22v-2l1 -2q0 -1 1 -2v-2v-3q1 -2 1 -3q0 5 1 7q0 2 0.5 5t0.5 4l7 20h12l-13 -47h-14l-4 16l-4 20h-1zM430 60q-7 0 -12 4q-4 1 -8 8q-1 4 -1 12q0 13 5 19q7 5 16 5t13 -2q6 -4 8 -9q2 -8 2 -13q0 -9 -6 -18q-5 -6 -17 -6zM477 82v-21h-14v47h10l2 -6h1
q2 4 6 4q2 2 8 2q9 0 12 -4q5 -2 5 -13v-30h-13v28q0 5 -1 7q-4 2 -8 2q-3 0 -6 -3q-2 -3 -2 -13zM621 60q-6 0 -8 1q-1 1 -3.5 1t-3.5 1v10q1 0 4 -0.5t4 -1.5q4 -2 7 -2q8 0 8 4v4q-2 0 -4 1q-1 0 -7 2t-6 4q-4 4 -4 5q-2 2 -2 6q0 7 6 10q3 3 13 3t16 -3l-4 -10
q-1 1 -4 2l-3 1h-6q-6 0 -6 -2q0 -3 1 -3l10 -4l8 -3q1 -2 2.5 -3.5t1.5 -2.5v-5q0 -8 -4 -11q-8 -4 -16 -4zM702 108v-47h-13v47h13zM734 60q-22 0 -22 23q0 12 5 20q7 5 18 5q8 0 14 -2l-3 -11q-4 2 -6 2q-1 0 -2 0.5t-3 0.5q-10 0 -10 -14q0 -13 10 -13q1 0 3 0.5t4 0.5
q3 0 6 3v-11l-6 -3q-3 -1 -8 -1zM853 60q-21 0 -21 23q0 13 6 20q7 5 17 5q3 0 15 -2l-5 -11q-2 2 -5 2q-1 0 -3 1h-2q-10 0 -10 -14q0 -13 10 -13q1 0 3 1h3q4 0 7 3v-11q-1 -1 -7 -3q-1 -1 -8 -1zM897 60q-7 0 -10 4q-7 2 -8 8q-3 6 -3 12q0 11 5 19q7 5 16 5q11 0 13 -2
q7 -3 9 -9q2 -4 2 -13q0 -10 -7 -18q-6 -6 -17 -6zM944 82v-21h-12v47h9l2 -6h1q2 4 4 4q3 2 9 2q12 0 15 -6h1q2 4 5 4q3 2 8 2q9 0 12 -3q5 -4 5 -14v-30h-13v28q0 3 -2 7q-2 2 -6 2t-7 -3q-2 -6 -2 -11v-23h-13v28q0 5 -2 7q0 2 -4 2q-6 0 -8 -3q-2 -6 -2 -13zM430 71
q5 0 8 3q2 3 2 10q0 8 -2 11q-3 3 -8 3q-6 0 -7 -3q-2 -3 -2 -11q0 -7 2 -10q1 -3 7 -3zM897 71q7 0 9 3t2 10q0 8 -2 11t-9 3q-3 0 -6 -3q-2 -3 -2 -11q0 -7 2 -10q3 -3 6 -3zM574 69q3 0 6 3q2 4 2 6v4h-3q-8 -2 -10 -3q-1 0 -1 -4q0 -6 6 -6zM775 69l6 3q4 4 4 6v4h-6
q-5 -1 -7 -3q-3 0 -3 -4q0 -6 6 -6zM359 60q-4 0 -7 2v2l-1 2l1 6q6 2 7 2q3 0 5 -2q2 0 2 -6l-2 -4q-2 -2 -5 -2zM815 60q-3 0 -4 2l-2 4q0 6 2 6q2 2 4 2q3 0 7 -2q1 -3 1 -6l-1 -2v-2q-2 -2 -7 -2z" />
    </font>
</defs>
</svg>
